M48
;Layer_Color=9474304
;FILE_FORMAT=4:4
METRIC,LZ
;TYPE=PLATED
T01F00S00C0.3000
%
T01
X00015Y00015
X00035
X00055
X00045Y0003
X00055Y0004
X00065Y0003
Y0005
Y001
Y0012
X00055Y0011
X00045Y0012
X00025
X00035Y00135
X00055
X00015
X00016Y0019
X00036
X00036498Y00171209
X00066498
X00056Y0019
X00046Y00205
X00056Y00215
X00066Y00205
X00064938Y0023281
X00056Y00235
X00079938Y0023281
X00094938
X00109938
X00124938
X00139938
X00154938
X00169938
X00184938
X00199938
X00214938
X00229938
X00244938
X00259938
X00274938
X00289938
X00304938
X00319938
X00334938
X00349938
X00364938
X00379938
X00381498Y00201209
X00351498
X00321498
X00291498
X00261498
X00231498
X00201498
X00171498
X00141498
X00111498
X00126498Y00171209
X00156498
X00186498
X00216498
X00246498
X00276498
X00306498
X00336498
X00366498
X00359447Y0026719
X00374447
X00344447
X00329447
X00314447
X00299447
X00284447
X00269447
X00254447
X00239447
X00224447
X00209447
X00194447
X00179447
X00164447
X00149447
X00134447
X00119447
X00104447
X00089447
X00074447
X00066Y00275
Y00295
X00056Y00285
X00046Y00295
X00026
X00036Y0031
X00056
X00081498Y00321209
X00111498
X00141498
X00171498
X00201498
X00231498
X00261498
X00291498
X00321498
X00351498
X00381498
X00366498Y00291209
X00336498
X00306498
X00276498
X00246498
X00216498
X00186498
X00156498
X00126498
X00096498
X00056Y00265
X00016Y0031
X00026Y00205
X00096498Y00171209
X00025Y0003
X00396498Y00171209
X00426498
X00456498
X00486498
X00516498
X00546498
X00576498
X00606498
X00636498
X00666498
X00696498
X00726498
X00756498
X00771498Y00201209
X00741498
X00711498
X00681498
X00651498
X00621498
X00591498
X00561498
X00531498
X00501498
X00471498
X00441498
X00411498
X00409938Y0023281
X00394938
X00424938
X00439938
X00454938
X00469938
X00484938
X00499938
X00514938
X00529938
X00544938
X00559938
X00574938
X00589938
X00604938
X00619938
X00634938
X00649938
X00664938
X00679938
X00694938
X00709938
X00724938
X00739938
X00754938
X00769938
X00764447Y0026719
X00749447
X00734447
X00719447
X00704447
X00689447
X00674447
X00659447
X00644447
X00629447
X00614447
X00599447
X00584447
X00569447
X00554447
X00539447
X00524447
X00509447
X00494447
X00479447
X00464447
X00449447
X00434447
X00419447
X00404447
X00389447
X00396498Y00291209
X00426498
X00456498
X00486498
X00516498
X00546498
X00576498
X00606498
X00636498
X00666498
X00696498
X00726498
X00756498
X00771498Y00321209
X00741498
X00711498
X00681498
X00651498
X00621498
X00591498
X00561498
X00531498
X00501498
X00471498
X00441498
X00411498
X00801498
X00831498
X00861498
X00891498
X00921498
X00951498
X00981498
X01011498
X01045Y00311
X01065
X01085
X01075Y00296
X01055
X01045Y00286
X01035Y00296
X01034447Y0026719
X01045Y00266
X01019447Y0026719
X01004447
X00989447
X00974447
X00959447
X00944447
X00929447
X00914447
X00899447
X00884447
X00869447
X00854447
X00839447
X00824447
X00809447
X00794447
X00779447
X00786498Y00291209
X00816498
X00846498
X00876498
X00906498
X00936498
X00966498
X00996498
X00994938Y0023281
X00979938
X00964938
X00949938
X00934938
X00919938
X00904938
X00889938
X00874938
X00859938
X00844938
X00829938
X00814938
X00799938
X00784938
X00801498Y00201209
X00831498
X00861498
X00891498
X00921498
X00951498
X00981498
X01011498
X01035Y00206
X01055
X01045Y00216
Y00236
X01035Y00226
X01024938Y0023281
X01009938
X00996498Y00171209
X01026498
X01056498
X01065Y00191
X01045
X01085
X01075Y00206
X01085Y00135
X01065
X01045
X01055Y0012
X01045Y0011
X01035Y0012
Y001
Y0005
Y0003
X01045Y0004
X01055Y0003
X01075
X01065Y00015
X01045
X01085
X01075Y0012
X00966498Y00171209
X00936498
X00906498
X00876498
X00846498
X00816498
X00786498
Y00381209
X00816498
X00846498
X00876498
X00906498
X00936498
X00966498
X00996498
X01026498
X01045Y00391
X01065
X01056498Y00381209
X01055Y00406
X01045Y00416
Y00436
X01036495Y00434951
X01026495
X01016495
X01006495
X00996495
X00986495
X00976495
X00966495
X00956495
X00946495
X00936495
X00926495
X00916495
X00906495
X00896495
X00886495
X00876495
X00866495
X00856495
X00846495
X00836495
X00826495
X00816495
X00806495
X00796495
X00786495
X00790253Y00465049
X00800253
X00810253
X00820252
X00830252
X00840252
X00850252
X00860252
X00870252
X00880252
X00890252
X00900252
X00910252
X00920252
X00930252
X00940252
X00950252
X00960252
X00970252
X00980252
X00990252
X01000252
X01010252
X01020252
X01030252
X01035Y00476
X01045Y00466
Y00486
X01055Y00496
X01035
X01045Y00511
X01065
X01085
X01075Y00496
X01056498Y00561209
X01026498
X00996498
X00966498
X00936498
X00906498
X00876498
X00846498
X00816498
X00786498
X00801498Y00591209
X00831498
X00861498
X00891498
X00921498
X00951498
X00981498
X01011498
X01045Y00591
X01065
X01085
X01075Y00606
X01055
X01045Y00616
X01035Y00606
Y00626
X01024938Y00632809
X01009938
X0098086
X00972023Y00634191
X00957123Y00632462
X00927961Y00632809
X00916432Y00633182
X00901437Y00632809
X00886437
X00871437
X00856437
X00841437
X00826437
X00811437
X00796437
X00781437
X00785096Y0066719
X00800096
X00815095
X00830095
X00845095
X00860095
X00875095
X00890095
X00905095
X0092007Y00666309
X00930303Y0066719
X00945303
X00964544Y00667023
X0097735Y0066719
X0099235
X0100735
X0102235
X01035Y00676
Y00696
X01045Y00686
X01055Y00696
X01075
X01065Y00711
X01045
X01011498Y00711209
X00981498
X00951498
X00921498
X00891498
X00861498
X00831498
X00801498
X00816498Y00681209
X00846498
X00876498
X00936498
X00996498
X01045Y00666
Y00636
X01085Y00711
X00996498Y00501209
X00966498
X00936498
X00906498
X00876498
X00846498
X00816498
X00786498
X00780253Y00465049
X00801498Y00411209
X00831498
X00861498
X00891498
X00921498
X00951498
X00981498
X01011498
X01035Y00406
Y00426
X01075Y00406
X01085Y00391
X00786498Y00681209
X00756498
X00755096Y0066719
X00740096
X00725096
X00710096
X00695096
X00680096
X00665096
X00650096
X00635095
X00620095
X00605095
X00590095
X00575095
X00560095
X00545095
X00530095
X00515095
X00500095
X00485095
X00470096
X00455096
X00440096
X00425096
X00410096
X00395096
X00396498Y00681209
X00426498
X00456498
X00486498
X00516498
X00546498
X00576498
X00606498
X00636498
X00666498
X00696498
X00726498
X00741498Y00711209
X00771498
X00770096Y0066719
X00766437Y00632809
X00751437
X00736437
X00721437
X00706437
X00691437
X00676437
X00661437
X00646437
X00631437
X00616437
X00601437
X00586437
X00571437
X00556437
X00541437
X00526437
X00511437
X00496437
X00481437
X00466437
X00451437
X00436437
X00421437
X00406437
X00391437
X00411498Y00591209
X00441498
X00471498
X00501498
X00531498
X00561498
X00591498
X00621498
X00651498
X00681498
X00711498
X00741498
X00771498
X00756498Y00561209
X00726498
X00696498
X00666498
X00636498
X00606498
X00576498
X00546498
X00516498
X00486498
X00456498
X00426498
X00396498
Y00501209
X00426498
X00456498
X00486498
X00516498
X00546498
X00576498
X00606498
X00636498
X00666498
X00696498
X00726498
X00756498
X00760253Y00465049
X00770253
X00750253
X00740253
X00730253
X00720253
X00710253
X00700253
X00690253
X00680253
X00670253
X00660253
X00650253
X00640253
X00630253
X00620253
X00610253
X00600253
X00590253
X00580253
X00570253
X00560253
X00550253
X00540253
X00530253
X00520253
X00510253
X00500253
X00490253
X00480253
X00470253
X00460253
X00450253
X00440253
X00430253
X00420253
X00410253
X00400253
X00390253
X00386496Y00434951
X00396496
X00406496
X00416496
X00426496
X00436496
X00446496
X00456496
X00466496
X00476496
X00486496
X00496496
X00506496
X00516496
X00526496
X00536496
X00546496
X00556496
X00566496
X00576495
X00586495
X00596495
X00606495
X00616495
X00626495
X00636495
X00646495
X00656495
X00666495
X00676495
X00686495
X00696495
X00706495
X00716495
X00726495
X00736495
X00746495
X00756495
X00766495
X00776495
X00771498Y00411209
X00741498
X00711498
X00681498
X00651498
X00621498
X00591498
X00561498
X00531498
X00501498
X00471498
X00441498
X00411498
X00426498Y00381209
X00456498
X00486498
X00516498
X00546498
X00576498
X00606498
X00636498
X00666498
X00696498
X00726498
X00756498
X00396498
X00411498Y00711209
X00441498
X00471498
X00501498
X00531498
X00561498
X00591498
X00621498
X00651498
X00681498
X00711498
X00381498
X00351498
X00321498
X00291498
X00261498
X00231498
X00201498
X00171498
X00141498
X00111498
X00081498
X00056Y0071
X00036
X00016
X00026Y00695
X00046
X00056Y00685
X00066Y00695
Y00675
X00065096Y0066719
X00056Y00665
X00080096Y0066719
X00095096
X00110096
X00125096
X00140096
X00155096
X00170096
X00185096
X00200096
X00215096
X00230096
X00245096
X00260096
X00275096
X00290096
X00305096
X00320096
X00335096
X00350096
X00365096
X00380096
X00366498Y00681209
X00336498
X00306498
X00276498
X00246498
X00216498
X00186498
X00156498
X00126498
X00096498
X00091437Y00632809
X00076437
X00066Y00625
Y00605
X00046
X00056Y00615
Y00635
Y0059
X00036
X00016
X00026Y00605
X00036498Y00561209
X00066498
X00096498
X00126498
X00156498
X00186498
X00216498
X00246498
X00276498
X00306498
X00336498
X00366498
X00381498Y00591209
X00351498
X00321498
X00291498
X00261498
X00231498
X00201498
X00171498
X00141498
X00111498
X00081498
X00106437Y00632809
X00121437
X00136437
X00151437
X00166437
X00181437
X00196437
X00211437
X00226437
X00241437
X00256437
X00271437
X00286437
X00301437
X00316437
X00331437
X00346437
X00361437
X00376437
X00366498Y00501209
X00336498
X00306498
X00276498
X00246498
X00216498
X00186498
X00156498
X00126498
X00096498
X00066Y00495
X00056Y00485
X00046Y00495
X00026
X00036Y0051
X00056
X00016
X00056Y00465
X00070254Y00465049
X00080254
X00090254
X00100254
X00110254
X00120254
X00130254
X00140254
X00150254
X00160254
X00170254
X00180254
X00190254
X00200254
X00210254
X00220254
X00230254
X00240254
X00250254
X00260254
X00270254
X00280254
X00290254
X00300254
X00310254
X00320253
X00330253
X00340253
X00350253
X00360253
X00370253
X00380253
X00376496Y00434951
X00366496
X00356496
X00346496
X00336496
X00326496
X00316496
X00306496
X00296496
X00286496
X00276496
X00266496
X00256496
X00246496
X00236496
X00226496
X00216496
X00206496
X00196496
X00186496
X00176496
X00166496
X00156496
X00146496
X00136496
X00126496
X00116496
X00106496
X00096496
X00086496
X00076496
X00066497
X00066Y00425
Y00405
X00046
X00056Y00415
Y00435
Y0039
X00066498Y00381209
X00096498
X00126498
X00156498
X00186498
X00216498
X00246498
X00276498
X00306498
X00336498
X00366498
X00381498Y00411209
X00351498
X00321498
X00291498
X00261498
X00231498
X00201498
X00171498
X00141498
X00111498
X00081498
X00026Y00405
X00016Y0039
X00036
X00066Y00475
X00066498Y00771209
X00056Y0079
X00036
X00036498Y00771209
X00016Y0079
X00026Y00805
X00046
X00056Y00815
X00066Y00805
Y00825
X00063773Y00834951
X00056Y00835
X00073773Y00834951
X00083773
X00093773
X00103773
X00113773
X00123773
X00133773
X00143773
X00153773
X00163773
X00173773
X00183773
X00193773
X00203773
X00213773
X00223773
X00233773
X00243773
X00253772
X00263772
X00273772
X00283772
X00293772
X00303772
X00313772
X00323772
X00333772
X00343772
X00353772
X00363772
X00373772
X00368985Y00865049
X00378985
X00358985
X00348985
X00338985
X00328985
X00318985
X00308985
X00298985
X00288985
X00278985
X00268985
X00258986
X00248986
X00238986
X00228986
X00218986
X00208986
X00198986
X00188986
X00178986
X00168986
X00158986
X00148986
X00138986
X00128986
X00118986
X00108986
X00098986
X00088986
X00078986
X00068986
X00066Y00875
Y00895
X00056Y00885
X00046Y00895
X00026
X00036Y0091
X00056
X00081498Y00921209
X00111498
X00141498
X00171498
X00201498
X00231498
X00261498
X00291498
X00321498
X00351498
X00381498
X00366498Y00891209
X00336498
X00306498
X00276498
X00246498
X00216498
X00186498
X00156498
X00126498
X00096498
X00056Y00865
X00016Y0091
X00015Y00965
X00035
X00055
Y0099
X00045Y0098
X00065
Y01
X00081498Y01011209
X00111498
X00141498
X00171498
X00201498
X00231498
X00261498
X00291498
X003Y01025
X00306498Y01041209
X00336498
X00366498
X00381498Y01071209
X00351498
X00321498
X00291498
X00261498
X00231498
X00201498
X00171498
X00141498
X00111498
X00081498
X00065Y0107
X00045
X00055Y0106
X00065Y0105
X00096498Y01041209
X00126498
X00156498
X00186498
X00216498
X00246498
X00276498
Y00981209
X00306498
X00336498
X00366498
X00381498Y01011209
X00351498
X00321498
X00246498Y00981209
X00216498
X00186498
X00156498
X00126498
X00096498
X00025Y0098
Y0107
X00015Y01085
X00035
X00055
Y01115
X00035
X00015
X00025Y0113
X00045
X00055Y0114
X00065Y0113
Y0115
X00096498Y01131209
X00126498
X00156498
X00186498
X00216498
X00246498
X00276498
X00306498
X00336498
X00366498
X00381498Y00801209
X00351498
X00321498
X00291498
X00261498
X00231498
X00201498
X00171498
X00141498
X00111498
X00126498Y00771209
X00156498
X00186498
X00216498
X00246498
X00276498
X00306498
X00336498
X00366498
X00096498
X00396498
X00426498
X00456498
X00486498
X00516498
X00546498
X00576498
X00606498
X00636498
X00666498
X00696498
X00726498
X00756498
X00771498Y00801209
X00741498
X00711498
X00681498
X00651498
X00621498
X00591498
X00561498
X00531498
X00501498
X00471498
X00441498
X00411498
X00413772Y00834951
X00403772
X00393772
X00383772
X00388985Y00865049
X00398985
X00408985
X00418985
X00428985
X00438985
X00448985
X00458985
X00468985
X00478985
X00488985
X00498985
X00508985
X00518985
X00528985
X00538985
X00548985
X00558985
X00568985
X00578985
X00588985
X00598985
X00608985
X00618985
X00628985
X00638985
X00648985
X00658985
X00668985
X00678985
X00688985
X00698985
X00708985
X00718985
X00728985
X00738985
X00748985
X00758985
X00768984
X00773771Y00834951
X00763771
X00753771
X00743772
X00733772
X00723772
X00713772
X00703772
X00693772
X00683772
X00673772
X00663772
X00653772
X00643772
X00633772
X00623772
X00613772
X00603772
X00593772
X00583772
X00573772
X00563772
X00553772
X00543772
X00533772
X00523772
X00513772
X00503772
X00493772
X00483772
X00473772
X00463772
X00453772
X00443772
X00433772
X00423772
X00426498Y00891209
X00456498
X00486498
X00516498
X00546498
X00576498
X00606498
X00636498
X00666498
X00696498
X00726498
X00756498
X00771498Y00921209
X00741498
X00711498
X00681498
X00651498
X00621498
X00591498
X00561498
X00531498
X00501498
X00471498
X00441498
X00411498
X00396498Y00891209
Y00981209
X00426498
X00456498
X00486498
X00516498
X00546498
X00576498
X00606498
X00636498
X00666498
X00696498
X00726498
X00756498
X00771498Y01011209
X00741498
X00711498
X00681498
X00651498
X00621498
X00591498
X00561498
X00531498
X00501498
X00471498
X00441498
X00411498
X00426498Y01041209
X00456498
X00486498
X00516498
X00546498
X00576498
X00606498
X00636498
X00666498
X00696498
X00726498
X00756498
X00771498Y01071209
X00741498
X00711498
X00681498
X00651498
X00621498
X00591498
X00561498
X00531498
X00501498
X00471498
X00441498
X00411498
X00396498Y01041209
Y01131209
X00426498
X00456498
X00486498
X00516498
X00546498
X00576498
X00606498
X00636498
X00666498
X00696498
X00726498
X00756498
X00786498
X00816498
X00846498
X00876498
X00906498
X00936498
X00966498
X00996498
X01035Y01131
X01055
X01045Y01141
X01035Y01151
X01045Y01116
X01065
X01085
X01075Y01131
X01065Y01086
X01045
Y01061
X01055Y01071
X01035
Y01051
X01011498Y01071209
X00981498
X00951498
X00921498
X00891498
X00861498
X00831498
X00801498
X00816498Y01041209
X00846498
X00876498
X00906498
X00936498
X00966498
X00996498
X01011498Y01011209
X00981498
X00951498
X00921498
X00891498
X00861498
X00831498
X00801498
X008Y01025
X00786498Y01041209
Y00981209
X00816498
X00846498
X00876498
X00906498
X00936498
X00966498
X00996498
X01035Y00981
X01055
X01045Y00991
X01035Y01001
X01045Y00966
X01065
X01085
X01075Y00981
X01065Y00911
X01045
Y00886
X01055Y00896
X01035
Y00876
X01029176Y00865049
X01019176
X01009176
X00999176
X00989176
X00979299Y00866611
X00964413
X00954447Y0086578
X00944474Y00865049
X00934538Y00866176
X0091886Y00866468
X00908861Y00866611
X00898984Y00865049
X00888984
X00878984
X00868984
X00858984
X00848984
X00838984
X00828984
X00818984
X00808984
X00798984
X00788984
X00778984
X00786498Y00891209
X00816498
X00846498
X00876498
X00906498
X00936498
X00966498
X00996498
X01011498Y00921209
X00981498
X00951498
X00921498
X00891498
X00861498
X00831498
X00801498
X00803771Y00834951
X00793771
X00783771
X00813771
X00823771
X00833771
X00843771
X00853771
X00863771
X00873771
X00883771
X00893771
X00903761Y00834502
X00913699Y00833387
X00923593Y0083484
X00932888Y00832452
X00961605Y00833387
X0097804
X01006863Y00832261
X01016494Y0083495
X01026494
X01036494
X01045Y00836
X01035Y00826
Y00806
X01055
X01045Y00816
Y00791
X01065
X01085
X01075Y00806
X01056498Y00771209
X01026498
X00996498
X00966498
X00936498
X00906498
X00876498
X00846498
X00816498
X00786498
X00801498Y00801209
X00831498
X00861498
X00891498
X00921498
X00951498
X00981498
X01011498
X01045Y00866
X01075Y00896
X01085Y00911
X01075Y01071
X01085Y01086
X01075Y01221
X01055
X01045Y01211
X01035Y01221
Y01201
X01011498Y01221209
X00981498
X00951498
X00921498
X00891498
X00861498
X00831498
X00801498
X00804Y01186
X008Y01175
X00804Y01164
X00831498Y01161209
X00861498
X00891498
X00921498
X00951498
X00981498
X01011498
X00996498Y01191209
X00966498
X00936498
X00906498
X00876498
X00846498
X00786498
Y01281209
X00816498
X00846498
X00876498
X00906498
X00936498
X00966498
X00996498
X01035Y01281
X01055
X01045Y01291
X01035Y01301
X01011498Y01311209
X00981498
X00951498
X00921498
X00891498
X00861498
X00831498
X00801498
X00816498Y01341209
X00846498
X00876498
X00906498
X00936498
X00966498
X00996498
X01011498Y01371209
X01035Y01371
X01045Y01361
X01055Y01371
X01075
X01065Y01386
X01045
X01085
X01035Y01351
X00981498Y01371209
X00951498
X00921498
X00891498
X00861498
X00831498
X00801498
X00786498Y01341209
X0102Y014292
X0103
X0104
X01051Y014985
Y015135
X01061Y01506
X01071Y015135
Y014985
X01081Y01506
X01091Y015135
Y014985
X01075Y01281
X01085Y01266
X01065
X01045
Y01236
X01065
X01085
X00771498Y01221209
X00741498
X00711498
X00681498
X00651498
X00621498
X00591498
X00561498
X00531498
X00501498
X00471498
X00441498
X00411498
X00426498Y01191209
X00456498
X00486498
X00516498
X00546498
X00576498
X00606498
X00636498
X00666498
X00696498
X00726498
X00756498
X00771498Y01161209
X00741498
X00711498
X00681498
X00651498
X00621498
X00591498
X00561498
X00531498
X00501498
X00471498
X00441498
X00411498
X00396498Y01191209
Y01281209
X00426498
X00456498
X00486498
X00516498
X00531498Y01311209
X00501498
X00471498
X00441498
X00411498
X00426498Y01341209
X00456498
X00486498
X00516498
X00531498Y01371209
X00501498
X00471498
X00441498
X00411498
X00396498Y01341209
X00576498
X00606498
X00636498
X00666498
X00696498
X00726498
X00756498
X00771498Y01371209
X00741498
X00711498
X00681498
X00651498
X00621498
X00591498
Y01311209
X00621498
X00651498
X00681498
X00711498
X00741498
X00771498
X00756498Y01281209
X00726498
X00696498
X00666498
X00636498
X00606498
X00576498
X00366498
X00336498
X00306498
X00276498
X00246498
X00216498
X00186498
X00156498
X00126498
X00096498
X00065Y0128
X00055Y0129
X00045Y0128
X00025
X00035Y01265
X00055
Y01235
X00035
X00015
X00025Y0122
X00045
X00055Y0121
X00065Y0122
X00081498Y01221209
X00111498
X00141498
X00171498
X00201498
X00231498
X00261498
X00291498
X00321498
X00351498
X00381498
X00366498Y01191209
X00336498
X00351498Y01161209
X00381498
X00321498
X00295Y01164
X003Y01175
X00295Y01186
X00276498Y01191209
X00246498
X00216498
X00186498
X00156498
X00126498
X00096498
X00065Y012
X00081498Y01161209
X00111498
X00141498
X00171498
X00201498
X00231498
X00261498
Y01311209
X00291498
X00321498
X00351498
X00381498
X00366498Y01341209
X00336498
X00306498
X00276498
X00246498
X00216498
X00186498
X00156498
X00126498
X00096498
X00065Y0135
Y0137
X00081498Y01371209
X00111498
X00141498
X00171498
X00201498
X00231498
X00261498
X00291498
X00321498
X00351498
X00381498
X00231498Y01311209
X00201498
X00171498
X00141498
X00111498
X00081498
X00065Y013
X00055Y0136
X00045Y0137
X00025
X00015Y01385
X00035
X00055
X0006Y014282
X0007
X0008
X0005Y014975
Y015125
X0004Y01505
X0003Y015125
Y014975
X0002Y01505
X0001Y015125
Y014975
X00015Y01265
Y0161
X0004
X0006Y0162
Y0164
X000725Y016325
Y016125
X00096498Y01611209
X00126498
X00156498
X00186498
X00216498
X00246498
X00276498
X00306498
X00336498
X00366498
X00381498Y01641209
X00351498
X00321498
X00291498
X00261498
X00231498
X00201498
X00171498
X00141498
X00111498
X00126498Y01671209
X00156498
X00186498
X00216498
X00246498
X00276498
X00306498
X00336498
X00366498
Y01731209
X00336498
X00306498
X00276498
X00246498
X00216498
X00186498
X00156498
X00126498
X00141498Y01761209
X00171498
X00201498
X00231498
X00261498
X00291498
X00321498
X00351498
X00381498
X00366498Y01821209
X00336498
X00306498
X00276498
X00246498
X00216498
X00186498
X00156498
X00126498
X00096498
X0006Y018282
Y0179
Y01775
X000725Y017825
Y017675
X00111498Y01761209
Y01851209
X00141498
X00171498
X00201498
X00231498
X00261498
X00291498
X00321498
X00351498
X00381498
X00366498Y01881209
X00336498
X00306498
X00301325Y019005
Y019095
X00306498Y01941209
X00336498
X00366498
X00276498
X00246498
X00216498
X00186498
X00156498
X00126498
X00096498
X00066498
X0005Y019125
Y018975
X0004Y01905
X0003Y019125
Y018975
X0002Y01905
X0001Y019125
Y018975
X00096498Y01881209
X00126498
X00156498
X00186498
X00216498
X00246498
X00276498
X00081498Y01851209
X0004Y01705
X00015
X0006Y0158
X0007
X0008
X00396498Y01611209
X00426498
X00456498
X00486498
X00516498
X00546498
X00576498
X00606498
X00636498
X00666498
X00696498
X00726498
X00756498
X00771498Y01641209
X00741498
X00711498
X00681498
X00651498
X00621498
X00591498
X00561498
X00531498
X00501498
X00471498
X00441498
X00411498
X00426498Y01671209
X00456498
X00486498
X00516498
X00546498
X00576498
X00606498
X00636498
X00666498
X00696498
X00726498
X00756498
Y01731209
X00726498
X00696498
X00666498
X00636498
X00606498
X00576498
X00546498
X00516498
X00486498
X00456498
X00426498
X00396498
X00411498Y01761209
X00441498
X00471498
X00501498
X00531498
X00561498
X00591498
X00621498
X00651498
X00681498
X00711498
X00741498
X00771498
X00756498Y01821209
X00726498
X00696498
X00666498
X00636498
X00606498
X00576498
X00546498
X00516498
X00486498
X00456498
X00426498
X00396498
X00411498Y01851209
X00441498
X00471498
X00501498
X00531498
X00561498
X00591498
X00621498
X00651498
X00681498
X00711498
X00741498
X00771498
X00756498Y01881209
X00726498
X00696498
X00666498
X00636498
X00606498
X00576498
X00546498
X00516498
X00486498
X00456498
X00426498
X00396498
Y01941209
X00426498
X00456498
X00486498
X00516498
X00546498
X00576498
X00606498
X00636498
X00666498
X00696498
X00726498
X00756498
X00396498Y01671209
X00786498
X00816498
X00846498
X00876498
X00906498
X00936498
X00966498
X00996498
X01011498Y01641209
X010275Y016325
Y016125
X0104Y0162
Y0164
X0106Y0161
X01085
X0104Y01581
X0103
X0102
X00996498Y01611209
X00966498
X00936498
X00906498
X00876498
X00846498
X00816498
X00786498
X00801498Y01641209
X00831498
X00861498
X00891498
X00921498
X00951498
X00981498
X00996498Y01731209
X00966498
X00936498
X00906498
X00876498
X00846498
X00816498
X00786498
X00801498Y01761209
X00831498
X00861498
X00891498
X00921498
X00951498
X00981498
X01011498
X010275Y017675
Y017825
X0104Y01775
Y0179
Y018282
X01041498Y01851209
X01011498
X00981498
X00951498
X00921498
X00891498
X00861498
X00831498
X00801498
X00816498Y01881209
X00846498
X00876498
X00906498
X00936498
X00966498
X00996498
X01026498
X01051Y018985
Y019135
X01061Y01906
X01071Y019135
Y018985
X01081Y01906
X01091Y019135
Y018985
X01026498Y01941209
X00996498
X00966498
X00936498
X00906498
X00876498
X00846498
X00816498
X00786498
X00798674Y019095
Y019005
X00786498Y01881209
Y01821209
X00816498
X00846498
X00876498
X00906498
X00936498
X00966498
X00996498
X0106Y01705
X01085
X0104Y0198
X01011498Y01971209
X00981498
X00951498
X00921498
X00891498
X00861498
X00831498
X00801498
X00816498Y02031209
X00846498
X00876498
X00906498
X00936498
X00966498
X00996498
X01011498Y02061209
X01041498
X0104Y020282
X01026498Y02091208
X00996498
X00966498
X00936498
X00906498
X00876498
X00846498
X00816498
X00798674Y021005
Y021095
X00801498Y02121208
X00831498
X00861498
X00891498
X00921498
X00951498
X00981498
X01011498
X01026498Y02151208
X00996498
X00966498
X00936498
X00906498
X00876498
X00846498
X00816498
X00786498
Y02211208
X00816498
X00846498
X00876498
X00906498
X00936498
X00966498
X00996498
X01026498
X0104Y022282
X01011498Y02241208
X00981498
X00951498
X00921498
X00891498
X00861498
X00831498
X00801498
X00816498Y02271208
X00846498
X00876498
X00906498
X00936498
X00966498
X00996498
X01026498
X01051Y022985
Y023135
X01061Y02306
X01071Y023135
Y022985
X01081Y02306
X01091Y023135
Y022985
X01026498Y02331208
X00996498
X00966498
X00936498
X00906498
X00876498
X00846498
X00816498
X00786498
Y02271208
Y02091208
X00801498Y02061209
X00831498
X00861498
X00891498
X00921498
X00951498
X00981498
X01051Y020985
Y021135
X01061Y02106
X01071Y021135
Y020985
X01081Y02106
X01091Y021135
Y020985
X0104Y0218
X00786498Y02031209
X00756498
X00726498
X00696498
X00666498
X00636498
X00606498
X00576498
X00546498
X00516498
X00486498
X00456498
X00426498
X00396498
X00411498Y02061209
X00441498
X00471498
X00501498
X00531498
X00561498
X00591498
X00621498
X00651498
X00681498
X00711498
X00741498
X00771498
X00756498Y02091208
X00726498
X00696498
X00666498
X00636498
X00606498
X00576498
X00546498
X00516498
X00486498
X00456498
X00426498
X00396498
X00411498Y02121208
X00441498
X00471498
X00501498
X00531498
X00561498
X00591498
X00621498
X00651498
X00681498
X00711498
X00741498
X00771498
X00756498Y02151208
X00726498
X00696498
X00666498
X00636498
X00606498
X00576498
X00546498
X00516498
X00486498
X00456498
X00426498
X00396498
Y02211208
X00426498
X00456498
X00486498
X00516498
X00546498
X00576498
X00606498
X00636498
X00666498
X00696498
X00726498
X00756498
X00771498Y02241208
X00741498
X00711498
X00681498
X00651498
X00621498
X00591498
X00561498
X00531498
X00501498
X00471498
X00441498
X00411498
X00426498Y02271208
X00456498
X00486498
X00516498
X00546498
X00576498
X00606498
X00636498
X00666498
X00696498
X00726498
X00756498
Y02331208
X00726498
X00696498
X00666498
X00636498
X00606498
X00576498
X00546498
X00516498
X00486498
X00456498
X00426498
X00396498
Y02271208
X00411498Y01971209
X00441498
X00471498
X00501498
X00531498
X00561498
X00591498
X00621498
X00651498
X00681498
X00711498
X00741498
X00771498
X00381498
X00351498
X00321498
X00291498
X00261498
X00231498
X00201498
X00171498
X00141498
X00111498
X00081498
X0006Y0198
Y020282
X00096498Y02031209
X00126498
X00156498
X00186498
X00216498
X00246498
X00276498
X00306498
X00336498
X00366498
X00381498Y02061209
X00351498
X00321498
X00291498
X00261498
X00231498
X00201498
X00171498
X00141498
X00111498
X00081498
X00096498Y02091208
X00126498
X00156498
X00186498
X00216498
X00246498
X00276498
X00306498
X00301325Y021005
Y021095
X00291498Y02121208
X00321498
X00351498
X00381498
X00366498Y02151208
X00336498
X00306498
X00276498
X00246498
X00216498
X00186498
X00156498
X00126498
X00096498
X00066498
X0006Y0218
X00066498Y02211208
X0006Y022282
X00081498Y02241208
X00111498
X00141498
X00171498
X00201498
X00231498
X00261498
X00291498
X00321498
X00351498
X00381498
X00366498Y02271208
X00336498
X00306498
X00276498
X00246498
X00216498
X00186498
X00156498
X00126498
X00096498
Y02331208
X00126498
X00156498
X00186498
X00216498
X00246498
X00276498
X00306498
X00336498
X00366498
Y02211208
X00336498
X00306498
X00276498
X00246498
X00216498
X00186498
X00156498
X00126498
X00096498
X00111498Y02121208
X00141498
X00171498
X00201498
X00231498
X00261498
X00336498Y02091208
X00366498
X00081498Y02121208
X0005Y021125
Y020975
X0004Y02105
X0003Y021125
Y020975
X0002Y02105
X0001Y021125
Y020975
Y022975
Y023125
X0002Y02305
X0003Y023125
Y022975
X0004Y02305
X0005Y023125
Y022975
X0006Y0238
X00081498Y02361208
X00111498
X00141498
X00171498
X00201498
X00231498
X00261498
X00291498
X00321498
X00351498
X00381498
X00366498Y02421208
X00336498
X00306498
X00276498
X00246498
X00216498
X00186498
X00156498
X00126498
X00096498
X0006Y024282
X00081498Y02451208
X00111498
X00141498
X00171498
X00201498
X00231498
X00261498
X00291498
X00321498
X00351498
X00381498
X00366498Y02481208
X00336498
X00306498
X00276498
X00246498
X00216498
X00186498
X00156498
X00126498
X00096498
Y02541208
X00126498
X00156498
X00186498
X00216498
X00246498
X00276498
X00306498
X00336498
X00366498
X00381498Y02571208
X00351498
X00321498
X00291498
X00261498
X00231498
X00201498
X00171498
X00141498
X00111498
X00081498
X0006Y0258
X00066498Y02541208
X0005Y025125
Y024975
X0004Y02505
X0003Y025125
Y024975
X0002Y02505
X0001Y025125
Y024975
X00396498Y02481208
X00426498
X00456498
X00486498
X00516498
X00531498Y02451208
X00501498
X00471498
X00441498
X00411498
X00426498Y02421208
X00456498
X00486498
X00516498
X00576498
X00606498
X00636498
X00666498
X00696498
X00726498
X00756498
X00771498Y02451208
X00741498
X00711498
X00681498
X00651498
X00621498
X00591498
X00606498Y02481208
X00636498
X00666498
X00696498
X00726498
X00756498
Y02541208
X00726498
X00696498
X00666498
X00636498
X00606498
X00576498
X00591498Y02571208
X00621498
X00651498
X00681498
X00711498
X00741498
X00771498
Y02361208
X00741498
X00711498
X00681498
X00651498
X00621498
X00591498
X00561498
X00531498
X00501498
X00471498
X00441498
X00411498
X00396498Y02421208
Y02541208
X00426498
X00456498
X00486498
X00516498
X00531498Y02571208
X00501498
X00471498
X00441498
X00411498
X00576498Y02481208
X00786498
X00816498
X00846498
X00876498
X00906498
X00936498
X00966498
X00996498
X01026498
X01051Y024985
Y025135
X01061Y02506
X01071Y025135
Y024985
X01081Y02506
X01091Y025135
Y024985
X01041498Y02451208
X01041Y024292
X01026498Y02421208
X00996498
X00966498
X00936498
X00906498
X00876498
X00846498
X00816498
X00786498
X00801498Y02451208
X00831498
X00861498
X00891498
X00921498
X00951498
X00981498
X01011498
Y02361208
X01041498
X0104Y0238
X00981498Y02361208
X00951498
X00921498
X00891498
X00861498
X00831498
X00801498
X00816498Y02541208
X00846498
X00876498
X00906498
X00936498
X00966498
X00996498
X01026498
X01011498Y02571208
X00981498
X00951498
X00921498
X00891498
X00861498
X00831498
X00801498
X00786498Y02541208
X01041Y02581
M30
