G04*
G04 #@! TF.GenerationSoftware,Altium Limited,Altium Designer,26.3.0 (6)*
G04*
G04 Layer_Physical_Order=4*
G04 Layer_Color=16776960*
%FSLAX44Y44*%
%MOMM*%
G71*
G04*
G04 #@! TF.SameCoordinates,275B8CE4-E838-42BB-8D23-489C854344AE*
G04*
G04*
G04 #@! TF.FilePolarity,Positive*
G04*
G01*
G75*
%ADD10R,4.0000X1.5000*%
%ADD16C,0.6000*%
%ADD17C,0.7000*%
G36*
X1093882Y486440D02*
X1076500D01*
Y476400D01*
Y466360D01*
X1093882D01*
Y434640D01*
X1076500D01*
Y424600D01*
Y414560D01*
X1093882D01*
Y356118D01*
X6118D01*
Y413560D01*
X24500D01*
Y423600D01*
Y433640D01*
X6118D01*
Y465360D01*
X24500D01*
Y475400D01*
Y485440D01*
X6118D01*
Y543882D01*
X1093882D01*
Y486440D01*
D02*
G37*
G36*
Y286440D02*
X1076500D01*
Y276400D01*
Y266360D01*
X1093882D01*
Y234640D01*
X1076500D01*
Y224600D01*
Y214560D01*
X1093882D01*
X1093883Y156117D01*
X6118D01*
Y213560D01*
X24500D01*
Y223600D01*
Y233640D01*
X6118D01*
Y265360D01*
X24500D01*
Y275400D01*
Y285440D01*
X6118D01*
Y343882D01*
X1093882D01*
Y286440D01*
D02*
G37*
G36*
X1093883Y111440D02*
X1076500D01*
Y101400D01*
Y91360D01*
X1093883D01*
Y59640D01*
X1076500D01*
Y49600D01*
Y39560D01*
X1093883D01*
Y6118D01*
X6118D01*
Y38560D01*
X23500D01*
Y48600D01*
Y58640D01*
X6118D01*
Y90360D01*
X23500D01*
Y100400D01*
Y110440D01*
X6118D01*
Y143882D01*
X1093883D01*
Y111440D01*
D02*
G37*
G36*
X1093882Y1161440D02*
X1076500D01*
Y1151400D01*
Y1141360D01*
X1093882D01*
Y1109640D01*
X1076500D01*
Y1099600D01*
Y1089560D01*
X1093882D01*
Y1056117D01*
X6118D01*
Y1088560D01*
X23500D01*
Y1098600D01*
Y1108640D01*
X6118D01*
Y1140360D01*
X23500D01*
Y1150400D01*
Y1160440D01*
X6118D01*
Y1193882D01*
X1093882D01*
Y1161440D01*
D02*
G37*
G36*
Y1011440D02*
X1076500D01*
Y1001400D01*
Y991360D01*
X1093882D01*
Y959640D01*
X1076500D01*
Y949600D01*
Y939560D01*
X1093882D01*
Y906117D01*
X6118D01*
Y938560D01*
X23500D01*
Y948600D01*
Y958640D01*
X6118D01*
Y990360D01*
X23500D01*
Y1000400D01*
Y1010440D01*
X6118D01*
Y1043882D01*
X1093882D01*
Y1011440D01*
D02*
G37*
G36*
X1093882Y861440D02*
X1076500D01*
Y851400D01*
Y841360D01*
X1093882D01*
Y809640D01*
X1076500D01*
Y799600D01*
Y789560D01*
X1093882D01*
Y756117D01*
X6118D01*
Y788560D01*
X23500D01*
Y798600D01*
Y808640D01*
X6118D01*
Y840360D01*
X23500D01*
Y850400D01*
Y860440D01*
X6118D01*
Y893882D01*
X1093882D01*
Y861440D01*
D02*
G37*
G36*
Y686440D02*
X1076500D01*
Y676400D01*
Y666360D01*
X1093882D01*
Y634640D01*
X1076500D01*
Y624600D01*
Y614560D01*
X1093882D01*
X1093882Y556118D01*
X6118D01*
Y613560D01*
X24500D01*
Y623600D01*
Y633640D01*
X6118D01*
Y665360D01*
X24500D01*
Y675400D01*
Y685440D01*
X6118D01*
Y743882D01*
X1093882D01*
Y686440D01*
D02*
G37*
%LPC*%
G36*
X1071500Y486440D02*
X1051460D01*
Y478900D01*
X1071500D01*
Y486440D01*
D02*
G37*
G36*
X49540Y485440D02*
X29500D01*
Y477900D01*
X49540D01*
Y485440D01*
D02*
G37*
G36*
X1071500Y473900D02*
X1051460D01*
Y466360D01*
X1071500D01*
Y473900D01*
D02*
G37*
G36*
X49540Y472900D02*
X29500D01*
Y465360D01*
X49540D01*
Y472900D01*
D02*
G37*
G36*
X1071500Y434640D02*
X1051460D01*
Y427100D01*
X1071500D01*
Y434640D01*
D02*
G37*
G36*
X49540Y433640D02*
X29500D01*
Y426100D01*
X49540D01*
Y433640D01*
D02*
G37*
G36*
X1071500Y422100D02*
X1051460D01*
Y414560D01*
X1071500D01*
Y422100D01*
D02*
G37*
G36*
X49540Y421100D02*
X29500D01*
Y413560D01*
X49540D01*
Y421100D01*
D02*
G37*
G36*
X1071500Y286440D02*
X1051460D01*
Y278900D01*
X1071500D01*
Y286440D01*
D02*
G37*
G36*
X49540Y285440D02*
X29500D01*
Y277900D01*
X49540D01*
Y285440D01*
D02*
G37*
G36*
X1071500Y273900D02*
X1051460D01*
Y266360D01*
X1071500D01*
Y273900D01*
D02*
G37*
G36*
X49540Y272900D02*
X29500D01*
Y265360D01*
X49540D01*
Y272900D01*
D02*
G37*
G36*
X1071500Y234640D02*
X1051460D01*
Y227100D01*
X1071500D01*
Y234640D01*
D02*
G37*
G36*
X49540Y233640D02*
X29500D01*
Y226100D01*
X49540D01*
Y233640D01*
D02*
G37*
G36*
X1071500Y222100D02*
X1051460D01*
Y214560D01*
X1071500D01*
Y222100D01*
D02*
G37*
G36*
X49540Y221100D02*
X29500D01*
Y213560D01*
X49540D01*
Y221100D01*
D02*
G37*
G36*
X1071500Y111440D02*
X1051460D01*
Y103900D01*
X1071500D01*
Y111440D01*
D02*
G37*
G36*
X48540Y110440D02*
X28500D01*
Y102900D01*
X48540D01*
Y110440D01*
D02*
G37*
G36*
X1071500Y98900D02*
X1051460D01*
Y91360D01*
X1071500D01*
Y98900D01*
D02*
G37*
G36*
X48540Y97900D02*
X28500D01*
Y90360D01*
X48540D01*
Y97900D01*
D02*
G37*
G36*
X1071500Y59640D02*
X1051460D01*
Y52100D01*
X1071500D01*
Y59640D01*
D02*
G37*
G36*
X48540Y58640D02*
X28500D01*
Y51100D01*
X48540D01*
Y58640D01*
D02*
G37*
G36*
X1071500Y47100D02*
X1051460D01*
Y39560D01*
X1071500D01*
Y47100D01*
D02*
G37*
G36*
X48540Y46100D02*
X28500D01*
Y38560D01*
X48540D01*
Y46100D01*
D02*
G37*
G36*
X1071500Y1161440D02*
X1051460D01*
Y1153900D01*
X1071500D01*
Y1161440D01*
D02*
G37*
G36*
X48540Y1160440D02*
X28500D01*
Y1152900D01*
X48540D01*
Y1160440D01*
D02*
G37*
G36*
X1071500Y1148900D02*
X1051460D01*
Y1141360D01*
X1071500D01*
Y1148900D01*
D02*
G37*
G36*
X48540Y1147900D02*
X28500D01*
Y1140360D01*
X48540D01*
Y1147900D01*
D02*
G37*
G36*
X1071500Y1109640D02*
X1051460D01*
Y1102100D01*
X1071500D01*
Y1109640D01*
D02*
G37*
G36*
X48540Y1108640D02*
X28500D01*
Y1101100D01*
X48540D01*
Y1108640D01*
D02*
G37*
G36*
X1071500Y1097100D02*
X1051460D01*
Y1089560D01*
X1071500D01*
Y1097100D01*
D02*
G37*
G36*
X48540Y1096100D02*
X28500D01*
Y1088560D01*
X48540D01*
Y1096100D01*
D02*
G37*
G36*
X1071500Y1011440D02*
X1051460D01*
Y1003900D01*
X1071500D01*
Y1011440D01*
D02*
G37*
G36*
X48540Y1010440D02*
X28500D01*
Y1002900D01*
X48540D01*
Y1010440D01*
D02*
G37*
G36*
X1071500Y998900D02*
X1051460D01*
Y991360D01*
X1071500D01*
Y998900D01*
D02*
G37*
G36*
X48540Y997900D02*
X28500D01*
Y990360D01*
X48540D01*
Y997900D01*
D02*
G37*
G36*
X801094Y980500D02*
X798906D01*
X796885Y979663D01*
X795337Y978115D01*
X794500Y976094D01*
Y973906D01*
X795337Y971884D01*
X796885Y970337D01*
X798906Y969500D01*
X801094D01*
X803115Y970337D01*
X804663Y971884D01*
X805500Y973906D01*
Y976094D01*
X804663Y978115D01*
X803115Y979663D01*
X801094Y980500D01*
D02*
G37*
G36*
X301094D02*
X298906D01*
X296884Y979663D01*
X295337Y978115D01*
X294500Y976094D01*
Y973906D01*
X295337Y971884D01*
X296884Y970337D01*
X298906Y969500D01*
X301094D01*
X303116Y970337D01*
X304663Y971884D01*
X305500Y973906D01*
Y976094D01*
X304663Y978115D01*
X303116Y979663D01*
X301094Y980500D01*
D02*
G37*
G36*
X1071500Y959640D02*
X1051460D01*
Y952100D01*
X1071500D01*
Y959640D01*
D02*
G37*
G36*
X48540Y958640D02*
X28500D01*
Y951100D01*
X48540D01*
Y958640D01*
D02*
G37*
G36*
X1071500Y947100D02*
X1051460D01*
Y939560D01*
X1071500D01*
Y947100D01*
D02*
G37*
G36*
X48540Y946100D02*
X28500D01*
Y938560D01*
X48540D01*
Y946100D01*
D02*
G37*
G36*
X1071500Y861440D02*
X1051460D01*
Y853900D01*
X1071500D01*
Y861440D01*
D02*
G37*
G36*
X48540Y860440D02*
X28500D01*
Y852900D01*
X48540D01*
Y860440D01*
D02*
G37*
G36*
X1071500Y848900D02*
X1051460D01*
Y841360D01*
X1071500D01*
Y848900D01*
D02*
G37*
G36*
X48540Y847900D02*
X28500D01*
Y840360D01*
X48540D01*
Y847900D01*
D02*
G37*
G36*
X801094Y830500D02*
X798906D01*
X796885Y829663D01*
X795337Y828115D01*
X794500Y826094D01*
Y823906D01*
X795337Y821884D01*
X796885Y820337D01*
X798906Y819500D01*
X801094D01*
X803115Y820337D01*
X804663Y821884D01*
X805500Y823906D01*
Y826094D01*
X804663Y828115D01*
X803115Y829663D01*
X801094Y830500D01*
D02*
G37*
G36*
X301094D02*
X298906D01*
X296884Y829663D01*
X295337Y828115D01*
X294500Y826094D01*
Y823906D01*
X295337Y821884D01*
X296884Y820337D01*
X298906Y819500D01*
X301094D01*
X303116Y820337D01*
X304663Y821884D01*
X305500Y823906D01*
Y826094D01*
X304663Y828115D01*
X303116Y829663D01*
X301094Y830500D01*
D02*
G37*
G36*
X1071500Y809640D02*
X1051460D01*
Y802100D01*
X1071500D01*
Y809640D01*
D02*
G37*
G36*
X48540Y808640D02*
X28500D01*
Y801100D01*
X48540D01*
Y808640D01*
D02*
G37*
G36*
X1071500Y797100D02*
X1051460D01*
Y789560D01*
X1071500D01*
Y797100D01*
D02*
G37*
G36*
X48540Y796100D02*
X28500D01*
Y788560D01*
X48540D01*
Y796100D01*
D02*
G37*
G36*
X1071500Y686440D02*
X1051460D01*
Y678900D01*
X1071500D01*
Y686440D01*
D02*
G37*
G36*
X49540Y685440D02*
X29500D01*
Y677900D01*
X49540D01*
Y685440D01*
D02*
G37*
G36*
X1071500Y673900D02*
X1051460D01*
Y666360D01*
X1071500D01*
Y673900D01*
D02*
G37*
G36*
X49540Y672900D02*
X29500D01*
Y665360D01*
X49540D01*
Y672900D01*
D02*
G37*
G36*
X1071500Y634640D02*
X1051460D01*
Y627100D01*
X1071500D01*
Y634640D01*
D02*
G37*
G36*
X49540Y633640D02*
X29500D01*
Y626100D01*
X49540D01*
Y633640D01*
D02*
G37*
G36*
X1071500Y622100D02*
X1051460D01*
Y614560D01*
X1071500D01*
Y622100D01*
D02*
G37*
G36*
X49540Y621100D02*
X29500D01*
Y613560D01*
X49540D01*
Y621100D01*
D02*
G37*
%LPD*%
D10*
X1074000Y224600D02*
D03*
Y276400D02*
D03*
Y424600D02*
D03*
Y476400D02*
D03*
Y49600D02*
D03*
Y101400D02*
D03*
Y624600D02*
D03*
Y676400D02*
D03*
Y799600D02*
D03*
Y851400D02*
D03*
Y949600D02*
D03*
Y1001400D02*
D03*
Y1099600D02*
D03*
Y1151400D02*
D03*
X26000Y1098600D02*
D03*
Y1150400D02*
D03*
Y948600D02*
D03*
Y1000400D02*
D03*
Y798600D02*
D03*
Y850400D02*
D03*
X27000Y623600D02*
D03*
Y675400D02*
D03*
Y423600D02*
D03*
Y475400D02*
D03*
X26000Y48600D02*
D03*
Y100400D02*
D03*
X27000Y223600D02*
D03*
Y275400D02*
D03*
D16*
X1056498Y561209D02*
D03*
X1026498D02*
D03*
X1011498Y711209D02*
D03*
X996498Y681209D02*
D03*
X1011498Y591209D02*
D03*
X996498Y561209D02*
D03*
X981498Y711209D02*
D03*
Y591209D02*
D03*
X966498Y561209D02*
D03*
X951498Y711209D02*
D03*
X936498Y681209D02*
D03*
X951498Y591209D02*
D03*
X936498Y561209D02*
D03*
X921498Y711209D02*
D03*
Y591209D02*
D03*
X906498Y561209D02*
D03*
X891498Y711209D02*
D03*
X876498Y681209D02*
D03*
X891498Y591209D02*
D03*
X876498Y561209D02*
D03*
X861498Y711209D02*
D03*
X846498Y681209D02*
D03*
X861498Y591209D02*
D03*
X846498Y561209D02*
D03*
X831498Y711209D02*
D03*
X816498Y681209D02*
D03*
X831498Y591209D02*
D03*
X816498Y561209D02*
D03*
X801498Y711209D02*
D03*
X786498Y681209D02*
D03*
X801498Y591209D02*
D03*
X786498Y561209D02*
D03*
X771498Y711209D02*
D03*
X756498Y681209D02*
D03*
X771498Y591209D02*
D03*
X756498Y561209D02*
D03*
X741498Y711209D02*
D03*
X726498Y681209D02*
D03*
X741498Y591209D02*
D03*
X726498Y561209D02*
D03*
X711498Y711209D02*
D03*
X696498Y681209D02*
D03*
X711498Y591209D02*
D03*
X696498Y561209D02*
D03*
X681498Y711209D02*
D03*
X666498Y681209D02*
D03*
X681498Y591209D02*
D03*
X666498Y561209D02*
D03*
X651498Y711209D02*
D03*
X636498Y681209D02*
D03*
X651498Y591209D02*
D03*
X636498Y561209D02*
D03*
X621498Y711209D02*
D03*
X606498Y681209D02*
D03*
X621498Y591209D02*
D03*
X606498Y561209D02*
D03*
X591498Y711209D02*
D03*
X576498Y681209D02*
D03*
X591498Y591209D02*
D03*
X576498Y561209D02*
D03*
X561498Y711209D02*
D03*
X546498Y681209D02*
D03*
X561498Y591209D02*
D03*
X546498Y561209D02*
D03*
X531498Y711209D02*
D03*
X516498Y681209D02*
D03*
X531498Y591209D02*
D03*
X516498Y561209D02*
D03*
X501498Y711209D02*
D03*
X486498Y681209D02*
D03*
X501498Y591209D02*
D03*
X486498Y561209D02*
D03*
X471498Y711209D02*
D03*
X456498Y681209D02*
D03*
X471498Y591209D02*
D03*
X456498Y561209D02*
D03*
X441498Y711209D02*
D03*
X426498Y681209D02*
D03*
X441498Y591209D02*
D03*
X426498Y561209D02*
D03*
X411498Y711209D02*
D03*
X396498Y681209D02*
D03*
X411498Y591209D02*
D03*
X396498Y561209D02*
D03*
X381498Y711209D02*
D03*
X366498Y681209D02*
D03*
X381498Y591209D02*
D03*
X366498Y561209D02*
D03*
X351498Y711209D02*
D03*
X336498Y681209D02*
D03*
X351498Y591209D02*
D03*
X336498Y561209D02*
D03*
X321498Y711209D02*
D03*
X306498Y681209D02*
D03*
X321498Y591209D02*
D03*
X306498Y561209D02*
D03*
X291498Y711209D02*
D03*
X276498Y681209D02*
D03*
X291498Y591209D02*
D03*
X276498Y561209D02*
D03*
X261498Y711209D02*
D03*
X246498Y681209D02*
D03*
X261498Y591209D02*
D03*
X246498Y561209D02*
D03*
X231498Y711209D02*
D03*
X216498Y681209D02*
D03*
X231498Y591209D02*
D03*
X216498Y561209D02*
D03*
X201498Y711209D02*
D03*
X186498Y681209D02*
D03*
X201498Y591209D02*
D03*
X186498Y561209D02*
D03*
X171498Y711209D02*
D03*
X156498Y681209D02*
D03*
X171498Y591209D02*
D03*
X156498Y561209D02*
D03*
X141498Y711209D02*
D03*
X126498Y681209D02*
D03*
X141498Y591209D02*
D03*
X126498Y561209D02*
D03*
X111498Y711209D02*
D03*
X96498Y681209D02*
D03*
X111498Y591209D02*
D03*
X96498Y561209D02*
D03*
X81498Y711209D02*
D03*
Y591209D02*
D03*
X66498Y561209D02*
D03*
X36498D02*
D03*
X1035844Y664654D02*
D03*
X1020844D02*
D03*
X1005844D02*
D03*
X990844D02*
D03*
X961907Y661400D02*
D03*
X982564Y632702D02*
D03*
X1010776Y635345D02*
D03*
X1025776D02*
D03*
X952216Y664857D02*
D03*
X937218Y665091D02*
D03*
X935924Y630470D02*
D03*
X965357Y633388D02*
D03*
X971162Y666165D02*
D03*
X62211Y635345D02*
D03*
X77211D02*
D03*
X92211D02*
D03*
X107211D02*
D03*
X122211D02*
D03*
X137211D02*
D03*
X152211D02*
D03*
X167211D02*
D03*
X182211D02*
D03*
X197211D02*
D03*
X212211D02*
D03*
X227211D02*
D03*
X242211D02*
D03*
X257211D02*
D03*
X272211D02*
D03*
X287211D02*
D03*
X302211D02*
D03*
X317211D02*
D03*
X332211D02*
D03*
X347211D02*
D03*
X362211D02*
D03*
X377211D02*
D03*
X392211D02*
D03*
X407211D02*
D03*
X422211D02*
D03*
X437211D02*
D03*
X452211D02*
D03*
X467211D02*
D03*
X482211D02*
D03*
X497211D02*
D03*
X512211D02*
D03*
X527211D02*
D03*
X542211D02*
D03*
X557211D02*
D03*
X572211D02*
D03*
X587211D02*
D03*
X602211D02*
D03*
X617211D02*
D03*
X632211D02*
D03*
X647211D02*
D03*
X662211D02*
D03*
X677211D02*
D03*
X692211D02*
D03*
X707211D02*
D03*
X722211D02*
D03*
X737211D02*
D03*
X752211D02*
D03*
X767211D02*
D03*
X782211D02*
D03*
X797211D02*
D03*
X812211D02*
D03*
X827211D02*
D03*
X842211D02*
D03*
X857211D02*
D03*
X872211D02*
D03*
X887211D02*
D03*
X902209Y635147D02*
D03*
X917106Y633388D02*
D03*
X919290Y666412D02*
D03*
X904306Y665723D02*
D03*
X889344Y664654D02*
D03*
X874344D02*
D03*
X859344D02*
D03*
X844344D02*
D03*
X829344D02*
D03*
X814344D02*
D03*
X799344D02*
D03*
X784344D02*
D03*
X769344D02*
D03*
X754344D02*
D03*
X739344D02*
D03*
X724344D02*
D03*
X709344D02*
D03*
X694344D02*
D03*
X679344D02*
D03*
X664344D02*
D03*
X649344D02*
D03*
X634344D02*
D03*
X619344D02*
D03*
X604344D02*
D03*
X589344D02*
D03*
X574344D02*
D03*
X559344D02*
D03*
X544344D02*
D03*
X529344D02*
D03*
X514344D02*
D03*
X499344D02*
D03*
X484344D02*
D03*
X469344D02*
D03*
X454344D02*
D03*
X439344D02*
D03*
X424344D02*
D03*
X409344D02*
D03*
X394345D02*
D03*
X379345D02*
D03*
X364345D02*
D03*
X349345D02*
D03*
X334345D02*
D03*
X319345D02*
D03*
X304345D02*
D03*
X289345D02*
D03*
X274345D02*
D03*
X259345D02*
D03*
X244345D02*
D03*
X229345D02*
D03*
X214345D02*
D03*
X199345D02*
D03*
X184345D02*
D03*
X169345D02*
D03*
X154345D02*
D03*
X139345D02*
D03*
X124345D02*
D03*
X109345D02*
D03*
X94345D02*
D03*
X79345D02*
D03*
X64345D02*
D03*
X1056498Y381209D02*
D03*
X1026498D02*
D03*
X996498Y501209D02*
D03*
X1011498Y411209D02*
D03*
X996498Y381209D02*
D03*
X966498Y501209D02*
D03*
X981498Y411209D02*
D03*
X966498Y381209D02*
D03*
X936498Y501209D02*
D03*
X951498Y411209D02*
D03*
X936498Y381209D02*
D03*
X906498Y501209D02*
D03*
X921498Y411209D02*
D03*
X906498Y381209D02*
D03*
X876498Y501209D02*
D03*
X891498Y411209D02*
D03*
X876498Y381209D02*
D03*
X846498Y501209D02*
D03*
X861498Y411209D02*
D03*
X846498Y381209D02*
D03*
X816498Y501209D02*
D03*
X831498Y411209D02*
D03*
X816498Y381209D02*
D03*
X786498Y501209D02*
D03*
X801498Y411209D02*
D03*
X786498Y381209D02*
D03*
X756498Y501209D02*
D03*
X771498Y411209D02*
D03*
X756498Y381209D02*
D03*
X726498Y501209D02*
D03*
X741498Y411209D02*
D03*
X726498Y381209D02*
D03*
X696498Y501209D02*
D03*
X711498Y411209D02*
D03*
X696498Y381209D02*
D03*
X666498Y501209D02*
D03*
X681498Y411209D02*
D03*
X666498Y381209D02*
D03*
X636498Y501209D02*
D03*
X651498Y411209D02*
D03*
X636498Y381209D02*
D03*
X606498Y501209D02*
D03*
X621498Y411209D02*
D03*
X606498Y381209D02*
D03*
X576498Y501209D02*
D03*
X591498Y411209D02*
D03*
X576498Y381209D02*
D03*
X546498Y501209D02*
D03*
X561498Y411209D02*
D03*
X546498Y381209D02*
D03*
X516498Y501209D02*
D03*
X531498Y411209D02*
D03*
X516498Y381209D02*
D03*
X486498Y501209D02*
D03*
X501498Y411209D02*
D03*
X486498Y381209D02*
D03*
X456498Y501209D02*
D03*
X471498Y411209D02*
D03*
X456498Y381209D02*
D03*
X426498Y501209D02*
D03*
X441498Y411209D02*
D03*
X426498Y381209D02*
D03*
X396498Y501209D02*
D03*
X411498Y411209D02*
D03*
X396498Y381209D02*
D03*
X366498Y501209D02*
D03*
X381498Y411209D02*
D03*
X366498Y381209D02*
D03*
X336498Y501209D02*
D03*
X351498Y411209D02*
D03*
X336498Y381209D02*
D03*
X306498Y501209D02*
D03*
X321498Y411209D02*
D03*
X306498Y381209D02*
D03*
X276498Y501209D02*
D03*
X291498Y411209D02*
D03*
X276498Y381209D02*
D03*
X246498Y501209D02*
D03*
X261498Y411209D02*
D03*
X246498Y381209D02*
D03*
X216498Y501209D02*
D03*
X231498Y411209D02*
D03*
X216498Y381209D02*
D03*
X186498Y501209D02*
D03*
X201498Y411209D02*
D03*
X186498Y381209D02*
D03*
X156498Y501209D02*
D03*
X171498Y411209D02*
D03*
X156498Y381209D02*
D03*
X126498Y501209D02*
D03*
X141498Y411209D02*
D03*
X126498Y381209D02*
D03*
X96498Y501209D02*
D03*
X111498Y411209D02*
D03*
X96498Y381209D02*
D03*
X81498Y411209D02*
D03*
X66498Y381209D02*
D03*
X1056498Y171209D02*
D03*
X1026498D02*
D03*
X1011498Y321209D02*
D03*
X996498Y291209D02*
D03*
X1011498Y201209D02*
D03*
X996498Y171209D02*
D03*
X981498Y321209D02*
D03*
X966498Y291209D02*
D03*
X981498Y201209D02*
D03*
X966498Y171209D02*
D03*
X951498Y321209D02*
D03*
X936498Y291209D02*
D03*
X951498Y201209D02*
D03*
X936498Y171209D02*
D03*
X921498Y321209D02*
D03*
X906498Y291209D02*
D03*
X921498Y201209D02*
D03*
X906498Y171209D02*
D03*
X891498Y321209D02*
D03*
X876498Y291209D02*
D03*
X891498Y201209D02*
D03*
X876498Y171209D02*
D03*
X861498Y321209D02*
D03*
X846498Y291209D02*
D03*
X861498Y201209D02*
D03*
X846498Y171209D02*
D03*
X831498Y321209D02*
D03*
X816498Y291209D02*
D03*
X831498Y201209D02*
D03*
X816498Y171209D02*
D03*
X801498Y321209D02*
D03*
X786498Y291209D02*
D03*
X801498Y201209D02*
D03*
X786498Y171209D02*
D03*
X771498Y321209D02*
D03*
X756498Y291209D02*
D03*
X771498Y201209D02*
D03*
X756498Y171209D02*
D03*
X741498Y321209D02*
D03*
X726498Y291209D02*
D03*
X741498Y201209D02*
D03*
X726498Y171209D02*
D03*
X711498Y321209D02*
D03*
X696498Y291209D02*
D03*
X711498Y201209D02*
D03*
X696498Y171209D02*
D03*
X681498Y321209D02*
D03*
X666498Y291209D02*
D03*
X681498Y201209D02*
D03*
X666498Y171209D02*
D03*
X651498Y321209D02*
D03*
X636498Y291209D02*
D03*
X651498Y201209D02*
D03*
X636498Y171209D02*
D03*
X621498Y321209D02*
D03*
X606498Y291209D02*
D03*
X621498Y201209D02*
D03*
X606498Y171209D02*
D03*
X591498Y321209D02*
D03*
X576498Y291209D02*
D03*
X591498Y201209D02*
D03*
X576498Y171209D02*
D03*
X561498Y321209D02*
D03*
X546498Y291209D02*
D03*
X561498Y201209D02*
D03*
X546498Y171209D02*
D03*
X531498Y321209D02*
D03*
X516498Y291209D02*
D03*
X531498Y201209D02*
D03*
X516498Y171209D02*
D03*
X501498Y321209D02*
D03*
X486498Y291209D02*
D03*
X501498Y201209D02*
D03*
X486498Y171209D02*
D03*
X471498Y321209D02*
D03*
X456498Y291209D02*
D03*
X471498Y201209D02*
D03*
X456498Y171209D02*
D03*
X441498Y321209D02*
D03*
X426498Y291209D02*
D03*
X441498Y201209D02*
D03*
X426498Y171209D02*
D03*
X411498Y321209D02*
D03*
X396498Y291209D02*
D03*
X411498Y201209D02*
D03*
X396498Y171209D02*
D03*
X381498Y321209D02*
D03*
X366498Y291209D02*
D03*
X381498Y201209D02*
D03*
X366498Y171209D02*
D03*
X351498Y321209D02*
D03*
X336498Y291209D02*
D03*
X351498Y201209D02*
D03*
X336498Y171209D02*
D03*
X321498Y321209D02*
D03*
X306498Y291209D02*
D03*
X321498Y201209D02*
D03*
X306498Y171209D02*
D03*
X291498Y321209D02*
D03*
X276498Y291209D02*
D03*
X291498Y201209D02*
D03*
X276498Y171209D02*
D03*
X261498Y321209D02*
D03*
X246498Y291209D02*
D03*
X261498Y201209D02*
D03*
X246498Y171209D02*
D03*
X231498Y321209D02*
D03*
X216498Y291209D02*
D03*
X231498Y201209D02*
D03*
X216498Y171209D02*
D03*
X201498Y321209D02*
D03*
X186498Y291209D02*
D03*
X201498Y201209D02*
D03*
X186498Y171209D02*
D03*
X171498Y321209D02*
D03*
X156498Y291209D02*
D03*
X171498Y201209D02*
D03*
X156498Y171209D02*
D03*
X141498Y321209D02*
D03*
X126498Y291209D02*
D03*
X141498Y201209D02*
D03*
X126498Y171209D02*
D03*
X111498Y321209D02*
D03*
X96498Y291209D02*
D03*
X111498Y201209D02*
D03*
X96498Y171209D02*
D03*
X81498Y321209D02*
D03*
X66498Y171209D02*
D03*
X36498D02*
D03*
X639162Y464249D02*
D03*
X689162D02*
D03*
X546764Y435751D02*
D03*
X379162Y464249D02*
D03*
X986763Y435751D02*
D03*
X336764D02*
D03*
X669162Y464249D02*
D03*
X679162D02*
D03*
X229162D02*
D03*
X1019161D02*
D03*
X509162D02*
D03*
X519162D02*
D03*
X216765Y435751D02*
D03*
X219162Y464249D02*
D03*
X769161D02*
D03*
X626764Y435751D02*
D03*
X549162Y464249D02*
D03*
X96765Y435751D02*
D03*
X209162Y464249D02*
D03*
X389162D02*
D03*
X439162D02*
D03*
X909161D02*
D03*
X716764Y435751D02*
D03*
X346764D02*
D03*
X849161Y464249D02*
D03*
X506764Y435751D02*
D03*
X709161Y464249D02*
D03*
X206765Y435751D02*
D03*
X236765D02*
D03*
X66765D02*
D03*
X516764D02*
D03*
X406764D02*
D03*
X126765D02*
D03*
X289162Y464249D02*
D03*
X299162D02*
D03*
X409162D02*
D03*
X399162D02*
D03*
X676764Y435751D02*
D03*
X906763D02*
D03*
X356764D02*
D03*
X1016763D02*
D03*
X279162Y464249D02*
D03*
X226765Y435751D02*
D03*
X959161Y464249D02*
D03*
X736764Y435751D02*
D03*
X619162Y464249D02*
D03*
X799161D02*
D03*
X286765Y435751D02*
D03*
X269162Y464249D02*
D03*
X106765Y435751D02*
D03*
X939161Y464249D02*
D03*
X589162D02*
D03*
X359162D02*
D03*
X369162D02*
D03*
X196765Y435751D02*
D03*
X876763D02*
D03*
X566764D02*
D03*
X189163Y464249D02*
D03*
X456764Y435751D02*
D03*
X339162Y464249D02*
D03*
X659162D02*
D03*
X609162D02*
D03*
X899161D02*
D03*
X186765Y435751D02*
D03*
X686764D02*
D03*
X309162Y464249D02*
D03*
X779161D02*
D03*
X869161D02*
D03*
X776764Y435751D02*
D03*
X419162Y464249D02*
D03*
X116765Y435751D02*
D03*
X489162Y464249D02*
D03*
X829161D02*
D03*
X176765Y435751D02*
D03*
X739161Y464249D02*
D03*
X786764Y435751D02*
D03*
X169163Y464249D02*
D03*
X496764Y435751D02*
D03*
X89163Y464249D02*
D03*
X329162D02*
D03*
X936763Y435751D02*
D03*
X649162Y464249D02*
D03*
X929161D02*
D03*
X576764Y435751D02*
D03*
X466764D02*
D03*
X256765D02*
D03*
X646764D02*
D03*
X946763D02*
D03*
X796764D02*
D03*
X999161Y464249D02*
D03*
X759161D02*
D03*
X426764Y435751D02*
D03*
X699161Y464249D02*
D03*
X846763Y435751D02*
D03*
X839161Y464249D02*
D03*
X616764Y435751D02*
D03*
X636764D02*
D03*
X886763D02*
D03*
X166765D02*
D03*
X79163Y464249D02*
D03*
X479162D02*
D03*
X949161D02*
D03*
X809161D02*
D03*
X156765Y435751D02*
D03*
X966763D02*
D03*
X956763D02*
D03*
X889161Y464249D02*
D03*
X199162D02*
D03*
X629162D02*
D03*
X749161D02*
D03*
X726764Y435751D02*
D03*
X896763D02*
D03*
X586764D02*
D03*
X76765D02*
D03*
X579162Y464249D02*
D03*
X756764Y435751D02*
D03*
X249162Y464249D02*
D03*
X99163D02*
D03*
X996763Y435751D02*
D03*
X719161Y464249D02*
D03*
X1009161D02*
D03*
X149163D02*
D03*
X159163D02*
D03*
X866763Y435751D02*
D03*
X296765D02*
D03*
X606764D02*
D03*
X239162Y464249D02*
D03*
X979161D02*
D03*
X976763Y435751D02*
D03*
X666764D02*
D03*
X989161Y464249D02*
D03*
X259162D02*
D03*
X1029161D02*
D03*
X856763Y435751D02*
D03*
X596764D02*
D03*
X306765D02*
D03*
X556764D02*
D03*
X446764D02*
D03*
X476764D02*
D03*
X559162Y464249D02*
D03*
X806764Y435751D02*
D03*
X366764D02*
D03*
X316765D02*
D03*
X729161Y464249D02*
D03*
X859161D02*
D03*
X656764Y435751D02*
D03*
X696764D02*
D03*
X429162Y464249D02*
D03*
X746764Y435751D02*
D03*
X436764D02*
D03*
X459162Y464249D02*
D03*
X816764Y435751D02*
D03*
X326764D02*
D03*
X499162Y464249D02*
D03*
X926763Y435751D02*
D03*
X529162Y464249D02*
D03*
X69163D02*
D03*
X486764Y435751D02*
D03*
X879161Y464249D02*
D03*
X1006763Y435751D02*
D03*
X179163Y464249D02*
D03*
X276765Y435751D02*
D03*
X1036763D02*
D03*
X246765D02*
D03*
X599162Y464249D02*
D03*
X266765Y435751D02*
D03*
X386764D02*
D03*
X139163Y464249D02*
D03*
X569162D02*
D03*
X539162D02*
D03*
X826763Y435751D02*
D03*
X536764D02*
D03*
X376764D02*
D03*
X789161Y464249D02*
D03*
X819161D02*
D03*
X119163D02*
D03*
X766764Y435751D02*
D03*
X919161Y464249D02*
D03*
X706764Y435751D02*
D03*
X396764D02*
D03*
X136765D02*
D03*
X916763D02*
D03*
X416764D02*
D03*
X86765D02*
D03*
X1026763D02*
D03*
X469162Y464249D02*
D03*
X969161D02*
D03*
X109163D02*
D03*
X129163D02*
D03*
X319162D02*
D03*
X449162D02*
D03*
X526764Y435751D02*
D03*
X349162Y464249D02*
D03*
X836763Y435751D02*
D03*
X146765D02*
D03*
X1032434Y264655D02*
D03*
X1017434D02*
D03*
X1002434D02*
D03*
X987434D02*
D03*
X972434D02*
D03*
X957434D02*
D03*
X942434D02*
D03*
X927434D02*
D03*
X912434D02*
D03*
X897434D02*
D03*
X882434D02*
D03*
X867434D02*
D03*
X852434D02*
D03*
X837434D02*
D03*
X822434D02*
D03*
X807434D02*
D03*
X792434D02*
D03*
X777434D02*
D03*
X762434D02*
D03*
X747434D02*
D03*
X732434D02*
D03*
X717434D02*
D03*
X702434D02*
D03*
X687434D02*
D03*
X672434D02*
D03*
X657434D02*
D03*
X642434D02*
D03*
X627434D02*
D03*
X612434D02*
D03*
X597434D02*
D03*
X582434D02*
D03*
X567434D02*
D03*
X552434D02*
D03*
X537434D02*
D03*
X522434D02*
D03*
X507434D02*
D03*
X492434D02*
D03*
X477434D02*
D03*
X462434D02*
D03*
X447434D02*
D03*
X432434D02*
D03*
X417434D02*
D03*
X402434D02*
D03*
X387434D02*
D03*
X372434D02*
D03*
X357434D02*
D03*
X342434D02*
D03*
X327434D02*
D03*
X312434D02*
D03*
X297434D02*
D03*
X282434D02*
D03*
X267434D02*
D03*
X252434D02*
D03*
X237434D02*
D03*
X222434D02*
D03*
X207434D02*
D03*
X192434D02*
D03*
X177434D02*
D03*
X162434D02*
D03*
X147434D02*
D03*
X132434D02*
D03*
X117434D02*
D03*
X102434D02*
D03*
X87434D02*
D03*
X72434D02*
D03*
X65777Y235345D02*
D03*
X80777D02*
D03*
X95777D02*
D03*
X110777D02*
D03*
X125777D02*
D03*
X140777D02*
D03*
X155777D02*
D03*
X170777D02*
D03*
X185777D02*
D03*
X200777D02*
D03*
X215777D02*
D03*
X230777D02*
D03*
X245777D02*
D03*
X260777D02*
D03*
X275777D02*
D03*
X290777D02*
D03*
X305777D02*
D03*
X320776D02*
D03*
X335776D02*
D03*
X350776D02*
D03*
X365776D02*
D03*
X380776D02*
D03*
X395776D02*
D03*
X410776D02*
D03*
X425776D02*
D03*
X440776D02*
D03*
X455776D02*
D03*
X470776D02*
D03*
X485776D02*
D03*
X500776D02*
D03*
X515776D02*
D03*
X530776D02*
D03*
X545776D02*
D03*
X560776D02*
D03*
X575776D02*
D03*
X590776D02*
D03*
X605776D02*
D03*
X620776D02*
D03*
X635776D02*
D03*
X650776D02*
D03*
X665776D02*
D03*
X680776D02*
D03*
X695776D02*
D03*
X710776D02*
D03*
X725776D02*
D03*
X740776D02*
D03*
X755776D02*
D03*
X770776D02*
D03*
X785776D02*
D03*
X800776D02*
D03*
X815776D02*
D03*
X830776D02*
D03*
X845776D02*
D03*
X860776D02*
D03*
X875776D02*
D03*
X890776D02*
D03*
X905776D02*
D03*
X920776D02*
D03*
X935776D02*
D03*
X950776D02*
D03*
X965776D02*
D03*
X980776D02*
D03*
X995776D02*
D03*
X1010776D02*
D03*
X1025776D02*
D03*
X808000Y968000D02*
D03*
Y982000D02*
D03*
X292000Y968000D02*
D03*
Y982000D02*
D03*
X1085000Y1066000D02*
D03*
X1065000D02*
D03*
X1045000D02*
D03*
X1075000Y1081000D02*
D03*
X1055000D02*
D03*
X1035000D02*
D03*
Y1101000D02*
D03*
X1045000Y1091000D02*
D03*
Y1161000D02*
D03*
X1035000Y1151000D02*
D03*
Y1171000D02*
D03*
X1055000D02*
D03*
X1075000D02*
D03*
X1045000Y1186000D02*
D03*
X1065000D02*
D03*
X1085000D02*
D03*
Y916000D02*
D03*
X1065000D02*
D03*
X1045000D02*
D03*
X1075000Y931000D02*
D03*
X1055000D02*
D03*
X1035000D02*
D03*
Y951000D02*
D03*
X1045000Y941000D02*
D03*
Y1011000D02*
D03*
X1035000Y1001000D02*
D03*
Y1021000D02*
D03*
X1055000D02*
D03*
X1075000D02*
D03*
X1045000Y1036000D02*
D03*
X1065000D02*
D03*
X1085000D02*
D03*
Y766000D02*
D03*
X1065000D02*
D03*
X1045000D02*
D03*
X1075000Y781000D02*
D03*
X1055000D02*
D03*
X1035000D02*
D03*
Y801000D02*
D03*
X1045000Y791000D02*
D03*
Y861000D02*
D03*
X1035000Y851000D02*
D03*
Y871000D02*
D03*
X1055000D02*
D03*
X1075000D02*
D03*
X1045000Y886000D02*
D03*
X1065000D02*
D03*
X1085000D02*
D03*
X15000Y1185000D02*
D03*
X35000D02*
D03*
X55000D02*
D03*
X25000Y1170000D02*
D03*
X45000D02*
D03*
X65000D02*
D03*
Y1150000D02*
D03*
X55000Y1160000D02*
D03*
Y1090000D02*
D03*
X65000Y1100000D02*
D03*
Y1080000D02*
D03*
X45000D02*
D03*
X25000D02*
D03*
X55000Y1065000D02*
D03*
X35000D02*
D03*
X15000D02*
D03*
Y1035000D02*
D03*
X35000D02*
D03*
X55000D02*
D03*
X25000Y1020000D02*
D03*
X45000D02*
D03*
X65000D02*
D03*
Y1000000D02*
D03*
X55000Y1010000D02*
D03*
Y940000D02*
D03*
X65000Y950000D02*
D03*
Y930000D02*
D03*
X45000D02*
D03*
X25000D02*
D03*
X55000Y915000D02*
D03*
X35000D02*
D03*
X15000D02*
D03*
Y885000D02*
D03*
X35000D02*
D03*
X55000D02*
D03*
X25000Y870000D02*
D03*
X45000D02*
D03*
X65000D02*
D03*
Y850000D02*
D03*
X55000Y860000D02*
D03*
Y790000D02*
D03*
X65000Y800000D02*
D03*
Y780000D02*
D03*
X45000D02*
D03*
X25000D02*
D03*
X55000Y765000D02*
D03*
X35000D02*
D03*
X15000D02*
D03*
X1085000Y591000D02*
D03*
X1065000D02*
D03*
X1045000D02*
D03*
X1075000Y606000D02*
D03*
X1055000D02*
D03*
X1035000D02*
D03*
Y626000D02*
D03*
X1045000Y616000D02*
D03*
Y686000D02*
D03*
X1035000Y676000D02*
D03*
Y696000D02*
D03*
X1055000D02*
D03*
X1075000D02*
D03*
X1045000Y711000D02*
D03*
X1065000D02*
D03*
X1085000D02*
D03*
X1045000Y666000D02*
D03*
Y636000D02*
D03*
X16000Y590000D02*
D03*
X36000D02*
D03*
X56000D02*
D03*
X26000Y605000D02*
D03*
X46000D02*
D03*
X66000D02*
D03*
Y625000D02*
D03*
X56000Y615000D02*
D03*
Y685000D02*
D03*
X66000Y675000D02*
D03*
Y695000D02*
D03*
X46000D02*
D03*
X26000D02*
D03*
X56000Y710000D02*
D03*
X36000D02*
D03*
X16000D02*
D03*
X56000Y665000D02*
D03*
Y635000D02*
D03*
X16000Y390000D02*
D03*
X36000D02*
D03*
X56000D02*
D03*
X26000Y405000D02*
D03*
X46000D02*
D03*
X66000D02*
D03*
Y425000D02*
D03*
X56000Y415000D02*
D03*
Y485000D02*
D03*
X66000Y475000D02*
D03*
Y495000D02*
D03*
X46000D02*
D03*
X26000D02*
D03*
X56000Y510000D02*
D03*
X36000D02*
D03*
X16000D02*
D03*
X56000Y465000D02*
D03*
Y435000D02*
D03*
X16000Y190000D02*
D03*
X36000D02*
D03*
X56000D02*
D03*
X26000Y205000D02*
D03*
X46000D02*
D03*
X66000D02*
D03*
Y225000D02*
D03*
X56000Y215000D02*
D03*
Y285000D02*
D03*
X66000Y275000D02*
D03*
Y295000D02*
D03*
X46000D02*
D03*
X26000D02*
D03*
X56000Y310000D02*
D03*
X36000D02*
D03*
X16000D02*
D03*
X56000Y265000D02*
D03*
Y235000D02*
D03*
X1085000Y191000D02*
D03*
X1065000D02*
D03*
X1045000D02*
D03*
X1075000Y206000D02*
D03*
X1055000D02*
D03*
X1035000D02*
D03*
Y226000D02*
D03*
X1045000Y216000D02*
D03*
Y286000D02*
D03*
X1035000Y276000D02*
D03*
Y296000D02*
D03*
X1055000D02*
D03*
X1075000D02*
D03*
X1045000Y311000D02*
D03*
X1065000D02*
D03*
X1085000D02*
D03*
X1045000Y266000D02*
D03*
Y236000D02*
D03*
Y436000D02*
D03*
Y466000D02*
D03*
X1085000Y511000D02*
D03*
X1065000D02*
D03*
X1045000D02*
D03*
X1075000Y496000D02*
D03*
X1055000D02*
D03*
X1035000D02*
D03*
Y476000D02*
D03*
X1045000Y486000D02*
D03*
Y416000D02*
D03*
X1035000Y426000D02*
D03*
Y406000D02*
D03*
X1055000D02*
D03*
X1075000D02*
D03*
X1045000Y391000D02*
D03*
X1065000D02*
D03*
X1085000D02*
D03*
Y135000D02*
D03*
X1065000D02*
D03*
X1045000D02*
D03*
X1075000Y120000D02*
D03*
X1055000D02*
D03*
X1035000D02*
D03*
Y100000D02*
D03*
X1045000Y110000D02*
D03*
Y40000D02*
D03*
X1035000Y50000D02*
D03*
Y30000D02*
D03*
X1055000D02*
D03*
X1075000D02*
D03*
X1045000Y15000D02*
D03*
X1065000D02*
D03*
X1085000D02*
D03*
X15000D02*
D03*
X35000D02*
D03*
X55000D02*
D03*
X25000Y30000D02*
D03*
X45000D02*
D03*
X65000D02*
D03*
Y50000D02*
D03*
X55000Y40000D02*
D03*
Y110000D02*
D03*
X65000Y100000D02*
D03*
Y120000D02*
D03*
X45000D02*
D03*
X25000D02*
D03*
X55000Y135000D02*
D03*
X35000D02*
D03*
X15000D02*
D03*
D17*
X300000Y975000D02*
D03*
X800000D02*
D03*
Y825000D02*
D03*
X300000D02*
D03*
M02*
