G04*
G04 #@! TF.GenerationSoftware,Altium Limited,Altium Designer,26.3.0 (6)*
G04*
G04 Layer_Color=2752767*
%FSLAX44Y44*%
%MOMM*%
G71*
G04*
G04 #@! TF.SameCoordinates,275B8CE4-E838-42BB-8D23-489C854344AE*
G04*
G04*
G04 #@! TF.FilePolarity,Positive*
G04*
G01*
G75*
%ADD29C,0.0508*%
D29*
X1054466Y559177D02*
Y563241D01*
X1058530D01*
Y559177D01*
X1054466D01*
X1024466D02*
Y563241D01*
X1028530D01*
Y559177D01*
X1024466D01*
X1009466Y709177D02*
Y713241D01*
X1013530D01*
Y709177D01*
X1009466D01*
X994466Y679177D02*
Y683241D01*
X998530D01*
Y679177D01*
X994466D01*
X1009466Y589177D02*
Y593241D01*
X1013530D01*
Y589177D01*
X1009466D01*
X994466Y559177D02*
Y563241D01*
X998530D01*
Y559177D01*
X994466D01*
X979466Y709177D02*
Y713241D01*
X983530D01*
Y709177D01*
X979466D01*
Y589177D02*
Y593241D01*
X983530D01*
Y589177D01*
X979466D01*
X964466Y559177D02*
Y563241D01*
X968530D01*
Y559177D01*
X964466D01*
X949466Y709177D02*
Y713241D01*
X953530D01*
Y709177D01*
X949466D01*
X934466Y679177D02*
Y683241D01*
X938530D01*
Y679177D01*
X934466D01*
X949466Y589177D02*
Y593241D01*
X953530D01*
Y589177D01*
X949466D01*
X934466Y559177D02*
Y563241D01*
X938530D01*
Y559177D01*
X934466D01*
X919466Y709177D02*
Y713241D01*
X923530D01*
Y709177D01*
X919466D01*
Y589177D02*
Y593241D01*
X923530D01*
Y589177D01*
X919466D01*
X904466Y559177D02*
Y563241D01*
X908530D01*
Y559177D01*
X904466D01*
X889466Y709177D02*
Y713241D01*
X893530D01*
Y709177D01*
X889466D01*
X874466Y679177D02*
Y683241D01*
X878530D01*
Y679177D01*
X874466D01*
X889466Y589177D02*
Y593241D01*
X893530D01*
Y589177D01*
X889466D01*
X874466Y559177D02*
Y563241D01*
X878530D01*
Y559177D01*
X874466D01*
X859466Y709177D02*
Y713241D01*
X863530D01*
Y709177D01*
X859466D01*
X844466Y679177D02*
Y683241D01*
X848530D01*
Y679177D01*
X844466D01*
X859466Y589177D02*
Y593241D01*
X863530D01*
Y589177D01*
X859466D01*
X844466Y559177D02*
Y563241D01*
X848530D01*
Y559177D01*
X844466D01*
X829466Y709177D02*
Y713241D01*
X833530D01*
Y709177D01*
X829466D01*
X814466Y679177D02*
Y683241D01*
X818530D01*
Y679177D01*
X814466D01*
X829466Y589177D02*
Y593241D01*
X833530D01*
Y589177D01*
X829466D01*
X814466Y559177D02*
Y563241D01*
X818530D01*
Y559177D01*
X814466D01*
X799466Y709177D02*
Y713241D01*
X803530D01*
Y709177D01*
X799466D01*
X784466Y679177D02*
Y683241D01*
X788530D01*
Y679177D01*
X784466D01*
X799466Y589177D02*
Y593241D01*
X803530D01*
Y589177D01*
X799466D01*
X784466Y559177D02*
Y563241D01*
X788530D01*
Y559177D01*
X784466D01*
X769466Y709177D02*
Y713241D01*
X773530D01*
Y709177D01*
X769466D01*
X754466Y679177D02*
Y683241D01*
X758530D01*
Y679177D01*
X754466D01*
X769466Y589177D02*
Y593241D01*
X773530D01*
Y589177D01*
X769466D01*
X754466Y559177D02*
Y563241D01*
X758530D01*
Y559177D01*
X754466D01*
X739466Y709177D02*
Y713241D01*
X743530D01*
Y709177D01*
X739466D01*
X724466Y679177D02*
Y683241D01*
X728530D01*
Y679177D01*
X724466D01*
X739466Y589177D02*
Y593241D01*
X743530D01*
Y589177D01*
X739466D01*
X724466Y559177D02*
Y563241D01*
X728530D01*
Y559177D01*
X724466D01*
X709466Y709177D02*
Y713241D01*
X713530D01*
Y709177D01*
X709466D01*
X694466Y679177D02*
Y683241D01*
X698530D01*
Y679177D01*
X694466D01*
X709466Y589177D02*
Y593241D01*
X713530D01*
Y589177D01*
X709466D01*
X694466Y559177D02*
Y563241D01*
X698530D01*
Y559177D01*
X694466D01*
X679466Y709177D02*
Y713241D01*
X683530D01*
Y709177D01*
X679466D01*
X664466Y679177D02*
Y683241D01*
X668530D01*
Y679177D01*
X664466D01*
X679466Y589177D02*
Y593241D01*
X683530D01*
Y589177D01*
X679466D01*
X664466Y559177D02*
Y563241D01*
X668530D01*
Y559177D01*
X664466D01*
X649466Y709177D02*
Y713241D01*
X653530D01*
Y709177D01*
X649466D01*
X634466Y679177D02*
Y683241D01*
X638530D01*
Y679177D01*
X634466D01*
X649466Y589177D02*
Y593241D01*
X653530D01*
Y589177D01*
X649466D01*
X634466Y559177D02*
Y563241D01*
X638530D01*
Y559177D01*
X634466D01*
X619466Y709177D02*
Y713241D01*
X623530D01*
Y709177D01*
X619466D01*
X604466Y679177D02*
Y683241D01*
X608530D01*
Y679177D01*
X604466D01*
X619466Y589177D02*
Y593241D01*
X623530D01*
Y589177D01*
X619466D01*
X604466Y559177D02*
Y563241D01*
X608530D01*
Y559177D01*
X604466D01*
X589466Y709177D02*
Y713241D01*
X593530D01*
Y709177D01*
X589466D01*
X574466Y679177D02*
Y683241D01*
X578530D01*
Y679177D01*
X574466D01*
X589466Y589177D02*
Y593241D01*
X593530D01*
Y589177D01*
X589466D01*
X574466Y559177D02*
Y563241D01*
X578530D01*
Y559177D01*
X574466D01*
X559466Y709177D02*
Y713241D01*
X563530D01*
Y709177D01*
X559466D01*
X544466Y679177D02*
Y683241D01*
X548530D01*
Y679177D01*
X544466D01*
X559466Y589177D02*
Y593241D01*
X563530D01*
Y589177D01*
X559466D01*
X544466Y559177D02*
Y563241D01*
X548530D01*
Y559177D01*
X544466D01*
X529466Y709177D02*
Y713241D01*
X533530D01*
Y709177D01*
X529466D01*
X514466Y679177D02*
Y683241D01*
X518530D01*
Y679177D01*
X514466D01*
X529466Y589177D02*
Y593241D01*
X533530D01*
Y589177D01*
X529466D01*
X514466Y559177D02*
Y563241D01*
X518530D01*
Y559177D01*
X514466D01*
X499466Y709177D02*
Y713241D01*
X503530D01*
Y709177D01*
X499466D01*
X484466Y679177D02*
Y683241D01*
X488530D01*
Y679177D01*
X484466D01*
X499466Y589177D02*
Y593241D01*
X503530D01*
Y589177D01*
X499466D01*
X484466Y559177D02*
Y563241D01*
X488530D01*
Y559177D01*
X484466D01*
X469466Y709177D02*
Y713241D01*
X473530D01*
Y709177D01*
X469466D01*
X454466Y679177D02*
Y683241D01*
X458530D01*
Y679177D01*
X454466D01*
X469466Y589177D02*
Y593241D01*
X473530D01*
Y589177D01*
X469466D01*
X454466Y559177D02*
Y563241D01*
X458530D01*
Y559177D01*
X454466D01*
X439466Y709177D02*
Y713241D01*
X443530D01*
Y709177D01*
X439466D01*
X424466Y679177D02*
Y683241D01*
X428530D01*
Y679177D01*
X424466D01*
X439466Y589177D02*
Y593241D01*
X443530D01*
Y589177D01*
X439466D01*
X424466Y559177D02*
Y563241D01*
X428530D01*
Y559177D01*
X424466D01*
X409466Y709177D02*
Y713241D01*
X413530D01*
Y709177D01*
X409466D01*
X394466Y679177D02*
Y683241D01*
X398530D01*
Y679177D01*
X394466D01*
X409466Y589177D02*
Y593241D01*
X413530D01*
Y589177D01*
X409466D01*
X394466Y559177D02*
Y563241D01*
X398530D01*
Y559177D01*
X394466D01*
X379466Y709177D02*
Y713241D01*
X383530D01*
Y709177D01*
X379466D01*
X364466Y679177D02*
Y683241D01*
X368530D01*
Y679177D01*
X364466D01*
X379466Y589177D02*
Y593241D01*
X383530D01*
Y589177D01*
X379466D01*
X364466Y559177D02*
Y563241D01*
X368530D01*
Y559177D01*
X364466D01*
X349466Y709177D02*
Y713241D01*
X353530D01*
Y709177D01*
X349466D01*
X334466Y679177D02*
Y683241D01*
X338530D01*
Y679177D01*
X334466D01*
X349466Y589177D02*
Y593241D01*
X353530D01*
Y589177D01*
X349466D01*
X334466Y559177D02*
Y563241D01*
X338530D01*
Y559177D01*
X334466D01*
X319466Y709177D02*
Y713241D01*
X323530D01*
Y709177D01*
X319466D01*
X304466Y679177D02*
Y683241D01*
X308530D01*
Y679177D01*
X304466D01*
X319466Y589177D02*
Y593241D01*
X323530D01*
Y589177D01*
X319466D01*
X304466Y559177D02*
Y563241D01*
X308530D01*
Y559177D01*
X304466D01*
X289466Y709177D02*
Y713241D01*
X293530D01*
Y709177D01*
X289466D01*
X274466Y679177D02*
Y683241D01*
X278530D01*
Y679177D01*
X274466D01*
X289466Y589177D02*
Y593241D01*
X293530D01*
Y589177D01*
X289466D01*
X274466Y559177D02*
Y563241D01*
X278530D01*
Y559177D01*
X274466D01*
X259466Y709177D02*
Y713241D01*
X263530D01*
Y709177D01*
X259466D01*
X244466Y679177D02*
Y683241D01*
X248530D01*
Y679177D01*
X244466D01*
X259466Y589177D02*
Y593241D01*
X263530D01*
Y589177D01*
X259466D01*
X244466Y559177D02*
Y563241D01*
X248530D01*
Y559177D01*
X244466D01*
X229466Y709177D02*
Y713241D01*
X233530D01*
Y709177D01*
X229466D01*
X214466Y679177D02*
Y683241D01*
X218530D01*
Y679177D01*
X214466D01*
X229466Y589177D02*
Y593241D01*
X233530D01*
Y589177D01*
X229466D01*
X214466Y559177D02*
Y563241D01*
X218530D01*
Y559177D01*
X214466D01*
X199466Y709177D02*
Y713241D01*
X203530D01*
Y709177D01*
X199466D01*
X184466Y679177D02*
Y683241D01*
X188530D01*
Y679177D01*
X184466D01*
X199466Y589177D02*
Y593241D01*
X203530D01*
Y589177D01*
X199466D01*
X184466Y559177D02*
Y563241D01*
X188530D01*
Y559177D01*
X184466D01*
X169466Y709177D02*
Y713241D01*
X173530D01*
Y709177D01*
X169466D01*
X154466Y679177D02*
Y683241D01*
X158530D01*
Y679177D01*
X154466D01*
X169466Y589177D02*
Y593241D01*
X173530D01*
Y589177D01*
X169466D01*
X154466Y559177D02*
Y563241D01*
X158530D01*
Y559177D01*
X154466D01*
X139466Y709177D02*
Y713241D01*
X143530D01*
Y709177D01*
X139466D01*
X124466Y679177D02*
Y683241D01*
X128530D01*
Y679177D01*
X124466D01*
X139466Y589177D02*
Y593241D01*
X143530D01*
Y589177D01*
X139466D01*
X124466Y559177D02*
Y563241D01*
X128530D01*
Y559177D01*
X124466D01*
X109466Y709177D02*
Y713241D01*
X113530D01*
Y709177D01*
X109466D01*
X94466Y679177D02*
Y683241D01*
X98530D01*
Y679177D01*
X94466D01*
X109466Y589177D02*
Y593241D01*
X113530D01*
Y589177D01*
X109466D01*
X94466Y559177D02*
Y563241D01*
X98530D01*
Y559177D01*
X94466D01*
X79466Y709177D02*
Y713241D01*
X83530D01*
Y709177D01*
X79466D01*
Y589177D02*
Y593241D01*
X83530D01*
Y589177D01*
X79466D01*
X64466Y559177D02*
Y563241D01*
X68530D01*
Y559177D01*
X64466D01*
X34466D02*
Y563241D01*
X38530D01*
Y559177D01*
X34466D01*
X1033812Y662623D02*
Y666686D01*
X1037876D01*
Y662623D01*
X1033812D01*
X1018812D02*
Y666686D01*
X1022876D01*
Y662623D01*
X1018812D01*
X1003812D02*
Y666686D01*
X1007876D01*
Y662623D01*
X1003812D01*
X988812D02*
Y666686D01*
X992876D01*
Y662623D01*
X988812D01*
X959875Y659368D02*
Y663432D01*
X963939D01*
Y659368D01*
X959875D01*
X980532Y630670D02*
Y634734D01*
X984596D01*
Y630670D01*
X980532D01*
X1008744Y633313D02*
Y637377D01*
X1012808D01*
Y633313D01*
X1008744D01*
X1023744D02*
Y637377D01*
X1027808D01*
Y633313D01*
X1023744D01*
X950184Y662825D02*
Y666889D01*
X954248D01*
Y662825D01*
X950184D01*
X935186Y663059D02*
Y667123D01*
X939250D01*
Y663059D01*
X935186D01*
X933892Y628438D02*
Y632502D01*
X937956D01*
Y628438D01*
X933892D01*
X963325Y631356D02*
Y635420D01*
X967389D01*
Y631356D01*
X963325D01*
X969130Y664133D02*
Y668197D01*
X973195D01*
Y664133D01*
X969130D01*
X60179Y633313D02*
Y637377D01*
X64243D01*
Y633313D01*
X60179D01*
X75179D02*
Y637377D01*
X79243D01*
Y633313D01*
X75179D01*
X90179D02*
Y637377D01*
X94243D01*
Y633313D01*
X90179D01*
X105179D02*
Y637377D01*
X109243D01*
Y633313D01*
X105179D01*
X120179D02*
Y637377D01*
X124243D01*
Y633313D01*
X120179D01*
X135179D02*
Y637377D01*
X139243D01*
Y633313D01*
X135179D01*
X150179D02*
Y637377D01*
X154243D01*
Y633313D01*
X150179D01*
X165179D02*
Y637377D01*
X169243D01*
Y633313D01*
X165179D01*
X180179D02*
Y637377D01*
X184243D01*
Y633313D01*
X180179D01*
X195179D02*
Y637377D01*
X199243D01*
Y633313D01*
X195179D01*
X210179D02*
Y637377D01*
X214243D01*
Y633313D01*
X210179D01*
X225179D02*
Y637377D01*
X229243D01*
Y633313D01*
X225179D01*
X240179D02*
Y637377D01*
X244243D01*
Y633313D01*
X240179D01*
X255179D02*
Y637377D01*
X259243D01*
Y633313D01*
X255179D01*
X270179D02*
Y637377D01*
X274243D01*
Y633313D01*
X270179D01*
X285179D02*
Y637377D01*
X289243D01*
Y633313D01*
X285179D01*
X300179D02*
Y637377D01*
X304243D01*
Y633313D01*
X300179D01*
X315179D02*
Y637377D01*
X319243D01*
Y633313D01*
X315179D01*
X330179D02*
Y637377D01*
X334243D01*
Y633313D01*
X330179D01*
X345179D02*
Y637377D01*
X349243D01*
Y633313D01*
X345179D01*
X360179D02*
Y637377D01*
X364243D01*
Y633313D01*
X360179D01*
X375179D02*
Y637377D01*
X379243D01*
Y633313D01*
X375179D01*
X390179D02*
Y637377D01*
X394243D01*
Y633313D01*
X390179D01*
X405179D02*
Y637377D01*
X409243D01*
Y633313D01*
X405179D01*
X420179D02*
Y637377D01*
X424243D01*
Y633313D01*
X420179D01*
X435179D02*
Y637377D01*
X439243D01*
Y633313D01*
X435179D01*
X450179D02*
Y637377D01*
X454243D01*
Y633313D01*
X450179D01*
X465179D02*
Y637377D01*
X469243D01*
Y633313D01*
X465179D01*
X480179D02*
Y637377D01*
X484243D01*
Y633313D01*
X480179D01*
X495179D02*
Y637377D01*
X499243D01*
Y633313D01*
X495179D01*
X510179D02*
Y637377D01*
X514243D01*
Y633313D01*
X510179D01*
X525179D02*
Y637377D01*
X529243D01*
Y633313D01*
X525179D01*
X540179D02*
Y637377D01*
X544243D01*
Y633313D01*
X540179D01*
X555179D02*
Y637377D01*
X559243D01*
Y633313D01*
X555179D01*
X570179D02*
Y637377D01*
X574243D01*
Y633313D01*
X570179D01*
X585179D02*
Y637377D01*
X589243D01*
Y633313D01*
X585179D01*
X600179D02*
Y637377D01*
X604243D01*
Y633313D01*
X600179D01*
X615179D02*
Y637377D01*
X619243D01*
Y633313D01*
X615179D01*
X630179D02*
Y637377D01*
X634243D01*
Y633313D01*
X630179D01*
X645179D02*
Y637377D01*
X649243D01*
Y633313D01*
X645179D01*
X660179D02*
Y637377D01*
X664243D01*
Y633313D01*
X660179D01*
X675179D02*
Y637377D01*
X679243D01*
Y633313D01*
X675179D01*
X690179D02*
Y637377D01*
X694243D01*
Y633313D01*
X690179D01*
X705179D02*
Y637377D01*
X709243D01*
Y633313D01*
X705179D01*
X720179D02*
Y637377D01*
X724243D01*
Y633313D01*
X720179D01*
X735179D02*
Y637377D01*
X739243D01*
Y633313D01*
X735179D01*
X750179D02*
Y637377D01*
X754243D01*
Y633313D01*
X750179D01*
X765179D02*
Y637377D01*
X769243D01*
Y633313D01*
X765179D01*
X780179D02*
Y637377D01*
X784243D01*
Y633313D01*
X780179D01*
X795179D02*
Y637377D01*
X799243D01*
Y633313D01*
X795179D01*
X810179D02*
Y637377D01*
X814243D01*
Y633313D01*
X810179D01*
X825179D02*
Y637377D01*
X829243D01*
Y633313D01*
X825179D01*
X840179D02*
Y637377D01*
X844243D01*
Y633313D01*
X840179D01*
X855179D02*
Y637377D01*
X859243D01*
Y633313D01*
X855179D01*
X870179D02*
Y637377D01*
X874243D01*
Y633313D01*
X870179D01*
X885179D02*
Y637377D01*
X889243D01*
Y633313D01*
X885179D01*
X900177Y633115D02*
Y637179D01*
X904241D01*
Y633115D01*
X900177D01*
X915074Y631356D02*
Y635420D01*
X919138D01*
Y631356D01*
X915074D01*
X917259Y664380D02*
Y668444D01*
X921322D01*
Y664380D01*
X917259D01*
X902274Y663691D02*
Y667755D01*
X906338D01*
Y663691D01*
X902274D01*
X887312Y662623D02*
Y666686D01*
X891376D01*
Y662623D01*
X887312D01*
X872312D02*
Y666686D01*
X876376D01*
Y662623D01*
X872312D01*
X857312D02*
Y666686D01*
X861376D01*
Y662623D01*
X857312D01*
X842312D02*
Y666686D01*
X846376D01*
Y662623D01*
X842312D01*
X827312D02*
Y666686D01*
X831376D01*
Y662623D01*
X827312D01*
X812312D02*
Y666686D01*
X816376D01*
Y662623D01*
X812312D01*
X797312D02*
Y666686D01*
X801376D01*
Y662623D01*
X797312D01*
X782312D02*
Y666686D01*
X786376D01*
Y662623D01*
X782312D01*
X767312D02*
Y666686D01*
X771376D01*
Y662623D01*
X767312D01*
X752312D02*
Y666686D01*
X756376D01*
Y662623D01*
X752312D01*
X737312D02*
Y666686D01*
X741376D01*
Y662623D01*
X737312D01*
X722312D02*
Y666686D01*
X726376D01*
Y662623D01*
X722312D01*
X707312D02*
Y666686D01*
X711376D01*
Y662623D01*
X707312D01*
X692312D02*
Y666686D01*
X696376D01*
Y662623D01*
X692312D01*
X677312D02*
Y666686D01*
X681376D01*
Y662623D01*
X677312D01*
X662312D02*
Y666686D01*
X666376D01*
Y662623D01*
X662312D01*
X647312D02*
Y666686D01*
X651376D01*
Y662623D01*
X647312D01*
X632313D02*
Y666686D01*
X636376D01*
Y662623D01*
X632313D01*
X617313D02*
Y666686D01*
X621376D01*
Y662623D01*
X617313D01*
X602313D02*
Y666686D01*
X606376D01*
Y662623D01*
X602313D01*
X587313D02*
Y666686D01*
X591376D01*
Y662623D01*
X587313D01*
X572313D02*
Y666686D01*
X576376D01*
Y662623D01*
X572313D01*
X557313D02*
Y666686D01*
X561376D01*
Y662623D01*
X557313D01*
X542313D02*
Y666686D01*
X546376D01*
Y662623D01*
X542313D01*
X527313D02*
Y666686D01*
X531376D01*
Y662623D01*
X527313D01*
X512313D02*
Y666686D01*
X516376D01*
Y662623D01*
X512313D01*
X497313D02*
Y666686D01*
X501376D01*
Y662623D01*
X497313D01*
X482313D02*
Y666686D01*
X486376D01*
Y662623D01*
X482313D01*
X467313D02*
Y666686D01*
X471376D01*
Y662623D01*
X467313D01*
X452313D02*
Y666686D01*
X456376D01*
Y662623D01*
X452313D01*
X437313D02*
Y666686D01*
X441376D01*
Y662623D01*
X437313D01*
X422313D02*
Y666686D01*
X426376D01*
Y662623D01*
X422313D01*
X407313D02*
Y666686D01*
X411376D01*
Y662623D01*
X407313D01*
X392313D02*
Y666686D01*
X396377D01*
Y662623D01*
X392313D01*
X377313D02*
Y666686D01*
X381377D01*
Y662623D01*
X377313D01*
X362313D02*
Y666686D01*
X366377D01*
Y662623D01*
X362313D01*
X347313D02*
Y666686D01*
X351377D01*
Y662623D01*
X347313D01*
X332313D02*
Y666686D01*
X336377D01*
Y662623D01*
X332313D01*
X317313D02*
Y666686D01*
X321377D01*
Y662623D01*
X317313D01*
X302313D02*
Y666686D01*
X306377D01*
Y662623D01*
X302313D01*
X287313D02*
Y666686D01*
X291377D01*
Y662623D01*
X287313D01*
X272313D02*
Y666686D01*
X276377D01*
Y662623D01*
X272313D01*
X257313D02*
Y666686D01*
X261377D01*
Y662623D01*
X257313D01*
X242313D02*
Y666686D01*
X246377D01*
Y662623D01*
X242313D01*
X227313D02*
Y666686D01*
X231377D01*
Y662623D01*
X227313D01*
X212313D02*
Y666686D01*
X216377D01*
Y662623D01*
X212313D01*
X197313D02*
Y666686D01*
X201377D01*
Y662623D01*
X197313D01*
X182313D02*
Y666686D01*
X186377D01*
Y662623D01*
X182313D01*
X167313D02*
Y666686D01*
X171377D01*
Y662623D01*
X167313D01*
X152313D02*
Y666686D01*
X156377D01*
Y662623D01*
X152313D01*
X137313D02*
Y666686D01*
X141377D01*
Y662623D01*
X137313D01*
X122313D02*
Y666686D01*
X126377D01*
Y662623D01*
X122313D01*
X107313D02*
Y666686D01*
X111377D01*
Y662623D01*
X107313D01*
X92313D02*
Y666686D01*
X96377D01*
Y662623D01*
X92313D01*
X77313D02*
Y666686D01*
X81377D01*
Y662623D01*
X77313D01*
X62313D02*
Y666686D01*
X66377D01*
Y662623D01*
X62313D01*
X1054466Y379177D02*
Y383241D01*
X1058530D01*
Y379177D01*
X1054466D01*
X1024466D02*
Y383241D01*
X1028530D01*
Y379177D01*
X1024466D01*
X994466Y499177D02*
Y503241D01*
X998530D01*
Y499177D01*
X994466D01*
X1009466Y409177D02*
Y413241D01*
X1013530D01*
Y409177D01*
X1009466D01*
X994466Y379177D02*
Y383241D01*
X998530D01*
Y379177D01*
X994466D01*
X964466Y499177D02*
Y503241D01*
X968530D01*
Y499177D01*
X964466D01*
X979466Y409177D02*
Y413241D01*
X983530D01*
Y409177D01*
X979466D01*
X964466Y379177D02*
Y383241D01*
X968530D01*
Y379177D01*
X964466D01*
X934466Y499177D02*
Y503241D01*
X938530D01*
Y499177D01*
X934466D01*
X949466Y409177D02*
Y413241D01*
X953530D01*
Y409177D01*
X949466D01*
X934466Y379177D02*
Y383241D01*
X938530D01*
Y379177D01*
X934466D01*
X904466Y499177D02*
Y503241D01*
X908530D01*
Y499177D01*
X904466D01*
X919466Y409177D02*
Y413241D01*
X923530D01*
Y409177D01*
X919466D01*
X904466Y379177D02*
Y383241D01*
X908530D01*
Y379177D01*
X904466D01*
X874466Y499177D02*
Y503241D01*
X878530D01*
Y499177D01*
X874466D01*
X889466Y409177D02*
Y413241D01*
X893530D01*
Y409177D01*
X889466D01*
X874466Y379177D02*
Y383241D01*
X878530D01*
Y379177D01*
X874466D01*
X844466Y499177D02*
Y503241D01*
X848530D01*
Y499177D01*
X844466D01*
X859466Y409177D02*
Y413241D01*
X863530D01*
Y409177D01*
X859466D01*
X844466Y379177D02*
Y383241D01*
X848530D01*
Y379177D01*
X844466D01*
X814466Y499177D02*
Y503241D01*
X818530D01*
Y499177D01*
X814466D01*
X829466Y409177D02*
Y413241D01*
X833530D01*
Y409177D01*
X829466D01*
X814466Y379177D02*
Y383241D01*
X818530D01*
Y379177D01*
X814466D01*
X784466Y499177D02*
Y503241D01*
X788530D01*
Y499177D01*
X784466D01*
X799466Y409177D02*
Y413241D01*
X803530D01*
Y409177D01*
X799466D01*
X784466Y379177D02*
Y383241D01*
X788530D01*
Y379177D01*
X784466D01*
X754466Y499177D02*
Y503241D01*
X758530D01*
Y499177D01*
X754466D01*
X769466Y409177D02*
Y413241D01*
X773530D01*
Y409177D01*
X769466D01*
X754466Y379177D02*
Y383241D01*
X758530D01*
Y379177D01*
X754466D01*
X724466Y499177D02*
Y503241D01*
X728530D01*
Y499177D01*
X724466D01*
X739466Y409177D02*
Y413241D01*
X743530D01*
Y409177D01*
X739466D01*
X724466Y379177D02*
Y383241D01*
X728530D01*
Y379177D01*
X724466D01*
X694466Y499177D02*
Y503241D01*
X698530D01*
Y499177D01*
X694466D01*
X709466Y409177D02*
Y413241D01*
X713530D01*
Y409177D01*
X709466D01*
X694466Y379177D02*
Y383241D01*
X698530D01*
Y379177D01*
X694466D01*
X664466Y499177D02*
Y503241D01*
X668530D01*
Y499177D01*
X664466D01*
X679466Y409177D02*
Y413241D01*
X683530D01*
Y409177D01*
X679466D01*
X664466Y379177D02*
Y383241D01*
X668530D01*
Y379177D01*
X664466D01*
X634466Y499177D02*
Y503241D01*
X638530D01*
Y499177D01*
X634466D01*
X649466Y409177D02*
Y413241D01*
X653530D01*
Y409177D01*
X649466D01*
X634466Y379177D02*
Y383241D01*
X638530D01*
Y379177D01*
X634466D01*
X604466Y499177D02*
Y503241D01*
X608530D01*
Y499177D01*
X604466D01*
X619466Y409177D02*
Y413241D01*
X623530D01*
Y409177D01*
X619466D01*
X604466Y379177D02*
Y383241D01*
X608530D01*
Y379177D01*
X604466D01*
X574466Y499177D02*
Y503241D01*
X578530D01*
Y499177D01*
X574466D01*
X589466Y409177D02*
Y413241D01*
X593530D01*
Y409177D01*
X589466D01*
X574466Y379177D02*
Y383241D01*
X578530D01*
Y379177D01*
X574466D01*
X544466Y499177D02*
Y503241D01*
X548530D01*
Y499177D01*
X544466D01*
X559466Y409177D02*
Y413241D01*
X563530D01*
Y409177D01*
X559466D01*
X544466Y379177D02*
Y383241D01*
X548530D01*
Y379177D01*
X544466D01*
X514466Y499177D02*
Y503241D01*
X518530D01*
Y499177D01*
X514466D01*
X529466Y409177D02*
Y413241D01*
X533530D01*
Y409177D01*
X529466D01*
X514466Y379177D02*
Y383241D01*
X518530D01*
Y379177D01*
X514466D01*
X484466Y499177D02*
Y503241D01*
X488530D01*
Y499177D01*
X484466D01*
X499466Y409177D02*
Y413241D01*
X503530D01*
Y409177D01*
X499466D01*
X484466Y379177D02*
Y383241D01*
X488530D01*
Y379177D01*
X484466D01*
X454466Y499177D02*
Y503241D01*
X458530D01*
Y499177D01*
X454466D01*
X469466Y409177D02*
Y413241D01*
X473530D01*
Y409177D01*
X469466D01*
X454466Y379177D02*
Y383241D01*
X458530D01*
Y379177D01*
X454466D01*
X424466Y499177D02*
Y503241D01*
X428530D01*
Y499177D01*
X424466D01*
X439466Y409177D02*
Y413241D01*
X443530D01*
Y409177D01*
X439466D01*
X424466Y379177D02*
Y383241D01*
X428530D01*
Y379177D01*
X424466D01*
X394466Y499177D02*
Y503241D01*
X398530D01*
Y499177D01*
X394466D01*
X409466Y409177D02*
Y413241D01*
X413530D01*
Y409177D01*
X409466D01*
X394466Y379177D02*
Y383241D01*
X398530D01*
Y379177D01*
X394466D01*
X364466Y499177D02*
Y503241D01*
X368530D01*
Y499177D01*
X364466D01*
X379466Y409177D02*
Y413241D01*
X383530D01*
Y409177D01*
X379466D01*
X364466Y379177D02*
Y383241D01*
X368530D01*
Y379177D01*
X364466D01*
X334466Y499177D02*
Y503241D01*
X338530D01*
Y499177D01*
X334466D01*
X349466Y409177D02*
Y413241D01*
X353530D01*
Y409177D01*
X349466D01*
X334466Y379177D02*
Y383241D01*
X338530D01*
Y379177D01*
X334466D01*
X304466Y499177D02*
Y503241D01*
X308530D01*
Y499177D01*
X304466D01*
X319466Y409177D02*
Y413241D01*
X323530D01*
Y409177D01*
X319466D01*
X304466Y379177D02*
Y383241D01*
X308530D01*
Y379177D01*
X304466D01*
X274466Y499177D02*
Y503241D01*
X278530D01*
Y499177D01*
X274466D01*
X289466Y409177D02*
Y413241D01*
X293530D01*
Y409177D01*
X289466D01*
X274466Y379177D02*
Y383241D01*
X278530D01*
Y379177D01*
X274466D01*
X244466Y499177D02*
Y503241D01*
X248530D01*
Y499177D01*
X244466D01*
X259466Y409177D02*
Y413241D01*
X263530D01*
Y409177D01*
X259466D01*
X244466Y379177D02*
Y383241D01*
X248530D01*
Y379177D01*
X244466D01*
X214466Y499177D02*
Y503241D01*
X218530D01*
Y499177D01*
X214466D01*
X229466Y409177D02*
Y413241D01*
X233530D01*
Y409177D01*
X229466D01*
X214466Y379177D02*
Y383241D01*
X218530D01*
Y379177D01*
X214466D01*
X184466Y499177D02*
Y503241D01*
X188530D01*
Y499177D01*
X184466D01*
X199466Y409177D02*
Y413241D01*
X203530D01*
Y409177D01*
X199466D01*
X184466Y379177D02*
Y383241D01*
X188530D01*
Y379177D01*
X184466D01*
X154466Y499177D02*
Y503241D01*
X158530D01*
Y499177D01*
X154466D01*
X169466Y409177D02*
Y413241D01*
X173530D01*
Y409177D01*
X169466D01*
X154466Y379177D02*
Y383241D01*
X158530D01*
Y379177D01*
X154466D01*
X124466Y499177D02*
Y503241D01*
X128530D01*
Y499177D01*
X124466D01*
X139466Y409177D02*
Y413241D01*
X143530D01*
Y409177D01*
X139466D01*
X124466Y379177D02*
Y383241D01*
X128530D01*
Y379177D01*
X124466D01*
X94466Y499177D02*
Y503241D01*
X98530D01*
Y499177D01*
X94466D01*
X109466Y409177D02*
Y413241D01*
X113530D01*
Y409177D01*
X109466D01*
X94466Y379177D02*
Y383241D01*
X98530D01*
Y379177D01*
X94466D01*
X79466Y409177D02*
Y413241D01*
X83530D01*
Y409177D01*
X79466D01*
X64466Y379177D02*
Y383241D01*
X68530D01*
Y379177D01*
X64466D01*
X1054466Y169177D02*
Y173241D01*
X1058530D01*
Y169177D01*
X1054466D01*
X1024466D02*
Y173241D01*
X1028530D01*
Y169177D01*
X1024466D01*
X1009466Y319177D02*
Y323241D01*
X1013530D01*
Y319177D01*
X1009466D01*
X994466Y289177D02*
Y293241D01*
X998530D01*
Y289177D01*
X994466D01*
X1009466Y199177D02*
Y203241D01*
X1013530D01*
Y199177D01*
X1009466D01*
X994466Y169177D02*
Y173241D01*
X998530D01*
Y169177D01*
X994466D01*
X979466Y319177D02*
Y323241D01*
X983530D01*
Y319177D01*
X979466D01*
X964466Y289177D02*
Y293241D01*
X968530D01*
Y289177D01*
X964466D01*
X979466Y199177D02*
Y203241D01*
X983530D01*
Y199177D01*
X979466D01*
X964466Y169177D02*
Y173241D01*
X968530D01*
Y169177D01*
X964466D01*
X949466Y319177D02*
Y323241D01*
X953530D01*
Y319177D01*
X949466D01*
X934466Y289177D02*
Y293241D01*
X938530D01*
Y289177D01*
X934466D01*
X949466Y199177D02*
Y203241D01*
X953530D01*
Y199177D01*
X949466D01*
X934466Y169177D02*
Y173241D01*
X938530D01*
Y169177D01*
X934466D01*
X919466Y319177D02*
Y323241D01*
X923530D01*
Y319177D01*
X919466D01*
X904466Y289177D02*
Y293241D01*
X908530D01*
Y289177D01*
X904466D01*
X919466Y199177D02*
Y203241D01*
X923530D01*
Y199177D01*
X919466D01*
X904466Y169177D02*
Y173241D01*
X908530D01*
Y169177D01*
X904466D01*
X889466Y319177D02*
Y323241D01*
X893530D01*
Y319177D01*
X889466D01*
X874466Y289177D02*
Y293241D01*
X878530D01*
Y289177D01*
X874466D01*
X889466Y199177D02*
Y203241D01*
X893530D01*
Y199177D01*
X889466D01*
X874466Y169177D02*
Y173241D01*
X878530D01*
Y169177D01*
X874466D01*
X859466Y319177D02*
Y323241D01*
X863530D01*
Y319177D01*
X859466D01*
X844466Y289177D02*
Y293241D01*
X848530D01*
Y289177D01*
X844466D01*
X859466Y199177D02*
Y203241D01*
X863530D01*
Y199177D01*
X859466D01*
X844466Y169177D02*
Y173241D01*
X848530D01*
Y169177D01*
X844466D01*
X829466Y319177D02*
Y323241D01*
X833530D01*
Y319177D01*
X829466D01*
X814466Y289177D02*
Y293241D01*
X818530D01*
Y289177D01*
X814466D01*
X829466Y199177D02*
Y203241D01*
X833530D01*
Y199177D01*
X829466D01*
X814466Y169177D02*
Y173241D01*
X818530D01*
Y169177D01*
X814466D01*
X799466Y319177D02*
Y323241D01*
X803530D01*
Y319177D01*
X799466D01*
X784466Y289177D02*
Y293241D01*
X788530D01*
Y289177D01*
X784466D01*
X799466Y199177D02*
Y203241D01*
X803530D01*
Y199177D01*
X799466D01*
X784466Y169177D02*
Y173241D01*
X788530D01*
Y169177D01*
X784466D01*
X769466Y319177D02*
Y323241D01*
X773530D01*
Y319177D01*
X769466D01*
X754466Y289177D02*
Y293241D01*
X758530D01*
Y289177D01*
X754466D01*
X769466Y199177D02*
Y203241D01*
X773530D01*
Y199177D01*
X769466D01*
X754466Y169177D02*
Y173241D01*
X758530D01*
Y169177D01*
X754466D01*
X739466Y319177D02*
Y323241D01*
X743530D01*
Y319177D01*
X739466D01*
X724466Y289177D02*
Y293241D01*
X728530D01*
Y289177D01*
X724466D01*
X739466Y199177D02*
Y203241D01*
X743530D01*
Y199177D01*
X739466D01*
X724466Y169177D02*
Y173241D01*
X728530D01*
Y169177D01*
X724466D01*
X709466Y319177D02*
Y323241D01*
X713530D01*
Y319177D01*
X709466D01*
X694466Y289177D02*
Y293241D01*
X698530D01*
Y289177D01*
X694466D01*
X709466Y199177D02*
Y203241D01*
X713530D01*
Y199177D01*
X709466D01*
X694466Y169177D02*
Y173241D01*
X698530D01*
Y169177D01*
X694466D01*
X679466Y319177D02*
Y323241D01*
X683530D01*
Y319177D01*
X679466D01*
X664466Y289177D02*
Y293241D01*
X668530D01*
Y289177D01*
X664466D01*
X679466Y199177D02*
Y203241D01*
X683530D01*
Y199177D01*
X679466D01*
X664466Y169177D02*
Y173241D01*
X668530D01*
Y169177D01*
X664466D01*
X649466Y319177D02*
Y323241D01*
X653530D01*
Y319177D01*
X649466D01*
X634466Y289177D02*
Y293241D01*
X638530D01*
Y289177D01*
X634466D01*
X649466Y199177D02*
Y203241D01*
X653530D01*
Y199177D01*
X649466D01*
X634466Y169177D02*
Y173241D01*
X638530D01*
Y169177D01*
X634466D01*
X619466Y319177D02*
Y323241D01*
X623530D01*
Y319177D01*
X619466D01*
X604466Y289177D02*
Y293241D01*
X608530D01*
Y289177D01*
X604466D01*
X619466Y199177D02*
Y203241D01*
X623530D01*
Y199177D01*
X619466D01*
X604466Y169177D02*
Y173241D01*
X608530D01*
Y169177D01*
X604466D01*
X589466Y319177D02*
Y323241D01*
X593530D01*
Y319177D01*
X589466D01*
X574466Y289177D02*
Y293241D01*
X578530D01*
Y289177D01*
X574466D01*
X589466Y199177D02*
Y203241D01*
X593530D01*
Y199177D01*
X589466D01*
X574466Y169177D02*
Y173241D01*
X578530D01*
Y169177D01*
X574466D01*
X559466Y319177D02*
Y323241D01*
X563530D01*
Y319177D01*
X559466D01*
X544466Y289177D02*
Y293241D01*
X548530D01*
Y289177D01*
X544466D01*
X559466Y199177D02*
Y203241D01*
X563530D01*
Y199177D01*
X559466D01*
X544466Y169177D02*
Y173241D01*
X548530D01*
Y169177D01*
X544466D01*
X529466Y319177D02*
Y323241D01*
X533530D01*
Y319177D01*
X529466D01*
X514466Y289177D02*
Y293241D01*
X518530D01*
Y289177D01*
X514466D01*
X529466Y199177D02*
Y203241D01*
X533530D01*
Y199177D01*
X529466D01*
X514466Y169177D02*
Y173241D01*
X518530D01*
Y169177D01*
X514466D01*
X499466Y319177D02*
Y323241D01*
X503530D01*
Y319177D01*
X499466D01*
X484466Y289177D02*
Y293241D01*
X488530D01*
Y289177D01*
X484466D01*
X499466Y199177D02*
Y203241D01*
X503530D01*
Y199177D01*
X499466D01*
X484466Y169177D02*
Y173241D01*
X488530D01*
Y169177D01*
X484466D01*
X469466Y319177D02*
Y323241D01*
X473530D01*
Y319177D01*
X469466D01*
X454466Y289177D02*
Y293241D01*
X458530D01*
Y289177D01*
X454466D01*
X469466Y199177D02*
Y203241D01*
X473530D01*
Y199177D01*
X469466D01*
X454466Y169177D02*
Y173241D01*
X458530D01*
Y169177D01*
X454466D01*
X439466Y319177D02*
Y323241D01*
X443530D01*
Y319177D01*
X439466D01*
X424466Y289177D02*
Y293241D01*
X428530D01*
Y289177D01*
X424466D01*
X439466Y199177D02*
Y203241D01*
X443530D01*
Y199177D01*
X439466D01*
X424466Y169177D02*
Y173241D01*
X428530D01*
Y169177D01*
X424466D01*
X409466Y319177D02*
Y323241D01*
X413530D01*
Y319177D01*
X409466D01*
X394466Y289177D02*
Y293241D01*
X398530D01*
Y289177D01*
X394466D01*
X409466Y199177D02*
Y203241D01*
X413530D01*
Y199177D01*
X409466D01*
X394466Y169177D02*
Y173241D01*
X398530D01*
Y169177D01*
X394466D01*
X379466Y319177D02*
Y323241D01*
X383530D01*
Y319177D01*
X379466D01*
X364466Y289177D02*
Y293241D01*
X368530D01*
Y289177D01*
X364466D01*
X379466Y199177D02*
Y203241D01*
X383530D01*
Y199177D01*
X379466D01*
X364466Y169177D02*
Y173241D01*
X368530D01*
Y169177D01*
X364466D01*
X349466Y319177D02*
Y323241D01*
X353530D01*
Y319177D01*
X349466D01*
X334466Y289177D02*
Y293241D01*
X338530D01*
Y289177D01*
X334466D01*
X349466Y199177D02*
Y203241D01*
X353530D01*
Y199177D01*
X349466D01*
X334466Y169177D02*
Y173241D01*
X338530D01*
Y169177D01*
X334466D01*
X319466Y319177D02*
Y323241D01*
X323530D01*
Y319177D01*
X319466D01*
X304466Y289177D02*
Y293241D01*
X308530D01*
Y289177D01*
X304466D01*
X319466Y199177D02*
Y203241D01*
X323530D01*
Y199177D01*
X319466D01*
X304466Y169177D02*
Y173241D01*
X308530D01*
Y169177D01*
X304466D01*
X289466Y319177D02*
Y323241D01*
X293530D01*
Y319177D01*
X289466D01*
X274466Y289177D02*
Y293241D01*
X278530D01*
Y289177D01*
X274466D01*
X289466Y199177D02*
Y203241D01*
X293530D01*
Y199177D01*
X289466D01*
X274466Y169177D02*
Y173241D01*
X278530D01*
Y169177D01*
X274466D01*
X259466Y319177D02*
Y323241D01*
X263530D01*
Y319177D01*
X259466D01*
X244466Y289177D02*
Y293241D01*
X248530D01*
Y289177D01*
X244466D01*
X259466Y199177D02*
Y203241D01*
X263530D01*
Y199177D01*
X259466D01*
X244466Y169177D02*
Y173241D01*
X248530D01*
Y169177D01*
X244466D01*
X229466Y319177D02*
Y323241D01*
X233530D01*
Y319177D01*
X229466D01*
X214466Y289177D02*
Y293241D01*
X218530D01*
Y289177D01*
X214466D01*
X229466Y199177D02*
Y203241D01*
X233530D01*
Y199177D01*
X229466D01*
X214466Y169177D02*
Y173241D01*
X218530D01*
Y169177D01*
X214466D01*
X199466Y319177D02*
Y323241D01*
X203530D01*
Y319177D01*
X199466D01*
X184466Y289177D02*
Y293241D01*
X188530D01*
Y289177D01*
X184466D01*
X199466Y199177D02*
Y203241D01*
X203530D01*
Y199177D01*
X199466D01*
X184466Y169177D02*
Y173241D01*
X188530D01*
Y169177D01*
X184466D01*
X169466Y319177D02*
Y323241D01*
X173530D01*
Y319177D01*
X169466D01*
X154466Y289177D02*
Y293241D01*
X158530D01*
Y289177D01*
X154466D01*
X169466Y199177D02*
Y203241D01*
X173530D01*
Y199177D01*
X169466D01*
X154466Y169177D02*
Y173241D01*
X158530D01*
Y169177D01*
X154466D01*
X139466Y319177D02*
Y323241D01*
X143530D01*
Y319177D01*
X139466D01*
X124466Y289177D02*
Y293241D01*
X128530D01*
Y289177D01*
X124466D01*
X139466Y199177D02*
Y203241D01*
X143530D01*
Y199177D01*
X139466D01*
X124466Y169177D02*
Y173241D01*
X128530D01*
Y169177D01*
X124466D01*
X109466Y319177D02*
Y323241D01*
X113530D01*
Y319177D01*
X109466D01*
X94466Y289177D02*
Y293241D01*
X98530D01*
Y289177D01*
X94466D01*
X109466Y199177D02*
Y203241D01*
X113530D01*
Y199177D01*
X109466D01*
X94466Y169177D02*
Y173241D01*
X98530D01*
Y169177D01*
X94466D01*
X79466Y319177D02*
Y323241D01*
X83530D01*
Y319177D01*
X79466D01*
X64466Y169177D02*
Y173241D01*
X68530D01*
Y169177D01*
X64466D01*
X34466D02*
Y173241D01*
X38530D01*
Y169177D01*
X34466D01*
X637130Y462217D02*
Y466281D01*
X641194D01*
Y462217D01*
X637130D01*
X687130D02*
Y466281D01*
X691193D01*
Y462217D01*
X687130D01*
X544732Y433719D02*
Y437783D01*
X548796D01*
Y433719D01*
X544732D01*
X377130Y462217D02*
Y466281D01*
X381194D01*
Y462217D01*
X377130D01*
X984731Y433719D02*
Y437783D01*
X988795D01*
Y433719D01*
X984731D01*
X334732D02*
Y437783D01*
X338796D01*
Y433719D01*
X334732D01*
X667130Y462217D02*
Y466281D01*
X671193D01*
Y462217D01*
X667130D01*
X677130D02*
Y466281D01*
X681193D01*
Y462217D01*
X677130D01*
X227130D02*
Y466281D01*
X231194D01*
Y462217D01*
X227130D01*
X1017129D02*
Y466281D01*
X1021193D01*
Y462217D01*
X1017129D01*
X507130D02*
Y466281D01*
X511194D01*
Y462217D01*
X507130D01*
X517130D02*
Y466281D01*
X521194D01*
Y462217D01*
X517130D01*
X214733Y433719D02*
Y437783D01*
X218797D01*
Y433719D01*
X214733D01*
X217130Y462217D02*
Y466281D01*
X221194D01*
Y462217D01*
X217130D01*
X767129D02*
Y466281D01*
X771193D01*
Y462217D01*
X767129D01*
X624732Y433719D02*
Y437783D01*
X628796D01*
Y433719D01*
X624732D01*
X547130Y462217D02*
Y466281D01*
X551194D01*
Y462217D01*
X547130D01*
X94733Y433719D02*
Y437783D01*
X98797D01*
Y433719D01*
X94733D01*
X207130Y462217D02*
Y466281D01*
X211194D01*
Y462217D01*
X207130D01*
X387130D02*
Y466281D01*
X391194D01*
Y462217D01*
X387130D01*
X437130D02*
Y466281D01*
X441194D01*
Y462217D01*
X437130D01*
X907129D02*
Y466281D01*
X911193D01*
Y462217D01*
X907129D01*
X714732Y433719D02*
Y437783D01*
X718796D01*
Y433719D01*
X714732D01*
X344732D02*
Y437783D01*
X348796D01*
Y433719D01*
X344732D01*
X847129Y462217D02*
Y466281D01*
X851193D01*
Y462217D01*
X847129D01*
X504732Y433719D02*
Y437783D01*
X508796D01*
Y433719D01*
X504732D01*
X707129Y462217D02*
Y466281D01*
X711193D01*
Y462217D01*
X707129D01*
X204733Y433719D02*
Y437783D01*
X208797D01*
Y433719D01*
X204733D01*
X234733D02*
Y437783D01*
X238797D01*
Y433719D01*
X234733D01*
X64733D02*
Y437783D01*
X68797D01*
Y433719D01*
X64733D01*
X514732D02*
Y437783D01*
X518796D01*
Y433719D01*
X514732D01*
X404732D02*
Y437783D01*
X408796D01*
Y433719D01*
X404732D01*
X124733D02*
Y437783D01*
X128797D01*
Y433719D01*
X124733D01*
X287130Y462217D02*
Y466281D01*
X291194D01*
Y462217D01*
X287130D01*
X297130D02*
Y466281D01*
X301194D01*
Y462217D01*
X297130D01*
X407130D02*
Y466281D01*
X411194D01*
Y462217D01*
X407130D01*
X397130D02*
Y466281D01*
X401194D01*
Y462217D01*
X397130D01*
X674732Y433719D02*
Y437783D01*
X678796D01*
Y433719D01*
X674732D01*
X904731D02*
Y437783D01*
X908795D01*
Y433719D01*
X904731D01*
X354732D02*
Y437783D01*
X358796D01*
Y433719D01*
X354732D01*
X1014731D02*
Y437783D01*
X1018795D01*
Y433719D01*
X1014731D01*
X277130Y462217D02*
Y466281D01*
X281194D01*
Y462217D01*
X277130D01*
X224733Y433719D02*
Y437783D01*
X228797D01*
Y433719D01*
X224733D01*
X957129Y462217D02*
Y466281D01*
X961193D01*
Y462217D01*
X957129D01*
X734732Y433719D02*
Y437783D01*
X738796D01*
Y433719D01*
X734732D01*
X617130Y462217D02*
Y466281D01*
X621194D01*
Y462217D01*
X617130D01*
X797129D02*
Y466281D01*
X801193D01*
Y462217D01*
X797129D01*
X284732Y433719D02*
Y437783D01*
X288797D01*
Y433719D01*
X284732D01*
X267130Y462217D02*
Y466281D01*
X271194D01*
Y462217D01*
X267130D01*
X104733Y433719D02*
Y437783D01*
X108797D01*
Y433719D01*
X104733D01*
X937129Y462217D02*
Y466281D01*
X941193D01*
Y462217D01*
X937129D01*
X587130D02*
Y466281D01*
X591194D01*
Y462217D01*
X587130D01*
X357130D02*
Y466281D01*
X361194D01*
Y462217D01*
X357130D01*
X367130D02*
Y466281D01*
X371194D01*
Y462217D01*
X367130D01*
X194733Y433719D02*
Y437783D01*
X198797D01*
Y433719D01*
X194733D01*
X874731D02*
Y437783D01*
X878795D01*
Y433719D01*
X874731D01*
X564732D02*
Y437783D01*
X568796D01*
Y433719D01*
X564732D01*
X187131Y462217D02*
Y466281D01*
X191194D01*
Y462217D01*
X187131D01*
X454732Y433719D02*
Y437783D01*
X458796D01*
Y433719D01*
X454732D01*
X337130Y462217D02*
Y466281D01*
X341194D01*
Y462217D01*
X337130D01*
X657130D02*
Y466281D01*
X661193D01*
Y462217D01*
X657130D01*
X607130D02*
Y466281D01*
X611194D01*
Y462217D01*
X607130D01*
X897129D02*
Y466281D01*
X901193D01*
Y462217D01*
X897129D01*
X184733Y433719D02*
Y437783D01*
X188797D01*
Y433719D01*
X184733D01*
X684732D02*
Y437783D01*
X688796D01*
Y433719D01*
X684732D01*
X307130Y462217D02*
Y466281D01*
X311194D01*
Y462217D01*
X307130D01*
X777129D02*
Y466281D01*
X781193D01*
Y462217D01*
X777129D01*
X867129D02*
Y466281D01*
X871193D01*
Y462217D01*
X867129D01*
X774732Y433719D02*
Y437783D01*
X778795D01*
Y433719D01*
X774732D01*
X417130Y462217D02*
Y466281D01*
X421194D01*
Y462217D01*
X417130D01*
X114733Y433719D02*
Y437783D01*
X118797D01*
Y433719D01*
X114733D01*
X487130Y462217D02*
Y466281D01*
X491194D01*
Y462217D01*
X487130D01*
X827129D02*
Y466281D01*
X831193D01*
Y462217D01*
X827129D01*
X174733Y433719D02*
Y437783D01*
X178797D01*
Y433719D01*
X174733D01*
X737129Y462217D02*
Y466281D01*
X741193D01*
Y462217D01*
X737129D01*
X784732Y433719D02*
Y437783D01*
X788795D01*
Y433719D01*
X784732D01*
X167131Y462217D02*
Y466281D01*
X171194D01*
Y462217D01*
X167131D01*
X494732Y433719D02*
Y437783D01*
X498796D01*
Y433719D01*
X494732D01*
X87131Y462217D02*
Y466281D01*
X91195D01*
Y462217D01*
X87131D01*
X327130D02*
Y466281D01*
X331194D01*
Y462217D01*
X327130D01*
X934731Y433719D02*
Y437783D01*
X938795D01*
Y433719D01*
X934731D01*
X647130Y462217D02*
Y466281D01*
X651193D01*
Y462217D01*
X647130D01*
X927129D02*
Y466281D01*
X931193D01*
Y462217D01*
X927129D01*
X574732Y433719D02*
Y437783D01*
X578796D01*
Y433719D01*
X574732D01*
X464732D02*
Y437783D01*
X468796D01*
Y433719D01*
X464732D01*
X254733D02*
Y437783D01*
X258797D01*
Y433719D01*
X254733D01*
X644732D02*
Y437783D01*
X648796D01*
Y433719D01*
X644732D01*
X944731D02*
Y437783D01*
X948795D01*
Y433719D01*
X944731D01*
X794732D02*
Y437783D01*
X798795D01*
Y433719D01*
X794732D01*
X997129Y462217D02*
Y466281D01*
X1001193D01*
Y462217D01*
X997129D01*
X757129D02*
Y466281D01*
X761193D01*
Y462217D01*
X757129D01*
X424732Y433719D02*
Y437783D01*
X428796D01*
Y433719D01*
X424732D01*
X697129Y462217D02*
Y466281D01*
X701193D01*
Y462217D01*
X697129D01*
X844731Y433719D02*
Y437783D01*
X848795D01*
Y433719D01*
X844731D01*
X837129Y462217D02*
Y466281D01*
X841193D01*
Y462217D01*
X837129D01*
X614732Y433719D02*
Y437783D01*
X618796D01*
Y433719D01*
X614732D01*
X634732D02*
Y437783D01*
X638796D01*
Y433719D01*
X634732D01*
X884731D02*
Y437783D01*
X888795D01*
Y433719D01*
X884731D01*
X164733D02*
Y437783D01*
X168797D01*
Y433719D01*
X164733D01*
X77131Y462217D02*
Y466281D01*
X81195D01*
Y462217D01*
X77131D01*
X477130D02*
Y466281D01*
X481194D01*
Y462217D01*
X477130D01*
X947129D02*
Y466281D01*
X951193D01*
Y462217D01*
X947129D01*
X807129D02*
Y466281D01*
X811193D01*
Y462217D01*
X807129D01*
X154733Y433719D02*
Y437783D01*
X158797D01*
Y433719D01*
X154733D01*
X964731D02*
Y437783D01*
X968795D01*
Y433719D01*
X964731D01*
X954731D02*
Y437783D01*
X958795D01*
Y433719D01*
X954731D01*
X887129Y462217D02*
Y466281D01*
X891193D01*
Y462217D01*
X887129D01*
X197130D02*
Y466281D01*
X201194D01*
Y462217D01*
X197130D01*
X627130D02*
Y466281D01*
X631194D01*
Y462217D01*
X627130D01*
X747129D02*
Y466281D01*
X751193D01*
Y462217D01*
X747129D01*
X724732Y433719D02*
Y437783D01*
X728796D01*
Y433719D01*
X724732D01*
X894731D02*
Y437783D01*
X898795D01*
Y433719D01*
X894731D01*
X584732D02*
Y437783D01*
X588796D01*
Y433719D01*
X584732D01*
X74733D02*
Y437783D01*
X78797D01*
Y433719D01*
X74733D01*
X577130Y462217D02*
Y466281D01*
X581194D01*
Y462217D01*
X577130D01*
X754732Y433719D02*
Y437783D01*
X758796D01*
Y433719D01*
X754732D01*
X247130Y462217D02*
Y466281D01*
X251194D01*
Y462217D01*
X247130D01*
X97131D02*
Y466281D01*
X101195D01*
Y462217D01*
X97131D01*
X994731Y433719D02*
Y437783D01*
X998795D01*
Y433719D01*
X994731D01*
X717129Y462217D02*
Y466281D01*
X721193D01*
Y462217D01*
X717129D01*
X1007129D02*
Y466281D01*
X1011193D01*
Y462217D01*
X1007129D01*
X147130D02*
Y466281D01*
X151194D01*
Y462217D01*
X147130D01*
X157130D02*
Y466281D01*
X161194D01*
Y462217D01*
X157130D01*
X864731Y433719D02*
Y437783D01*
X868795D01*
Y433719D01*
X864731D01*
X294732D02*
Y437783D01*
X298797D01*
Y433719D01*
X294732D01*
X604732D02*
Y437783D01*
X608796D01*
Y433719D01*
X604732D01*
X237130Y462217D02*
Y466281D01*
X241194D01*
Y462217D01*
X237130D01*
X977129D02*
Y466281D01*
X981193D01*
Y462217D01*
X977129D01*
X974731Y433719D02*
Y437783D01*
X978795D01*
Y433719D01*
X974731D01*
X664732D02*
Y437783D01*
X668796D01*
Y433719D01*
X664732D01*
X987129Y462217D02*
Y466281D01*
X991193D01*
Y462217D01*
X987129D01*
X257130D02*
Y466281D01*
X261194D01*
Y462217D01*
X257130D01*
X1027129D02*
Y466281D01*
X1031193D01*
Y462217D01*
X1027129D01*
X854731Y433719D02*
Y437783D01*
X858795D01*
Y433719D01*
X854731D01*
X594732D02*
Y437783D01*
X598796D01*
Y433719D01*
X594732D01*
X304732D02*
Y437783D01*
X308797D01*
Y433719D01*
X304732D01*
X554732D02*
Y437783D01*
X558796D01*
Y433719D01*
X554732D01*
X444732D02*
Y437783D01*
X448796D01*
Y433719D01*
X444732D01*
X474732D02*
Y437783D01*
X478796D01*
Y433719D01*
X474732D01*
X557130Y462217D02*
Y466281D01*
X561194D01*
Y462217D01*
X557130D01*
X804732Y433719D02*
Y437783D01*
X808795D01*
Y433719D01*
X804732D01*
X364732D02*
Y437783D01*
X368796D01*
Y433719D01*
X364732D01*
X314732D02*
Y437783D01*
X318797D01*
Y433719D01*
X314732D01*
X727129Y462217D02*
Y466281D01*
X731193D01*
Y462217D01*
X727129D01*
X857129D02*
Y466281D01*
X861193D01*
Y462217D01*
X857129D01*
X654732Y433719D02*
Y437783D01*
X658796D01*
Y433719D01*
X654732D01*
X694732D02*
Y437783D01*
X698796D01*
Y433719D01*
X694732D01*
X427130Y462217D02*
Y466281D01*
X431194D01*
Y462217D01*
X427130D01*
X744732Y433719D02*
Y437783D01*
X748796D01*
Y433719D01*
X744732D01*
X434732D02*
Y437783D01*
X438796D01*
Y433719D01*
X434732D01*
X457130Y462217D02*
Y466281D01*
X461194D01*
Y462217D01*
X457130D01*
X814732Y433719D02*
Y437783D01*
X818795D01*
Y433719D01*
X814732D01*
X324732D02*
Y437783D01*
X328796D01*
Y433719D01*
X324732D01*
X497130Y462217D02*
Y466281D01*
X501194D01*
Y462217D01*
X497130D01*
X924731Y433719D02*
Y437783D01*
X928795D01*
Y433719D01*
X924731D01*
X527130Y462217D02*
Y466281D01*
X531194D01*
Y462217D01*
X527130D01*
X67131D02*
Y466281D01*
X71195D01*
Y462217D01*
X67131D01*
X484732Y433719D02*
Y437783D01*
X488796D01*
Y433719D01*
X484732D01*
X877129Y462217D02*
Y466281D01*
X881193D01*
Y462217D01*
X877129D01*
X1004731Y433719D02*
Y437783D01*
X1008795D01*
Y433719D01*
X1004731D01*
X177131Y462217D02*
Y466281D01*
X181194D01*
Y462217D01*
X177131D01*
X274732Y433719D02*
Y437783D01*
X278797D01*
Y433719D01*
X274732D01*
X1034731D02*
Y437783D01*
X1038795D01*
Y433719D01*
X1034731D01*
X244733D02*
Y437783D01*
X248797D01*
Y433719D01*
X244733D01*
X597130Y462217D02*
Y466281D01*
X601194D01*
Y462217D01*
X597130D01*
X264733Y433719D02*
Y437783D01*
X268797D01*
Y433719D01*
X264733D01*
X384732D02*
Y437783D01*
X388796D01*
Y433719D01*
X384732D01*
X137131Y462217D02*
Y466281D01*
X141195D01*
Y462217D01*
X137131D01*
X567130D02*
Y466281D01*
X571194D01*
Y462217D01*
X567130D01*
X537130D02*
Y466281D01*
X541194D01*
Y462217D01*
X537130D01*
X824731Y433719D02*
Y437783D01*
X828795D01*
Y433719D01*
X824731D01*
X534732D02*
Y437783D01*
X538796D01*
Y433719D01*
X534732D01*
X374732D02*
Y437783D01*
X378796D01*
Y433719D01*
X374732D01*
X787129Y462217D02*
Y466281D01*
X791193D01*
Y462217D01*
X787129D01*
X817129D02*
Y466281D01*
X821193D01*
Y462217D01*
X817129D01*
X117131D02*
Y466281D01*
X121195D01*
Y462217D01*
X117131D01*
X764732Y433719D02*
Y437783D01*
X768796D01*
Y433719D01*
X764732D01*
X917129Y462217D02*
Y466281D01*
X921193D01*
Y462217D01*
X917129D01*
X704732Y433719D02*
Y437783D01*
X708796D01*
Y433719D01*
X704732D01*
X394732D02*
Y437783D01*
X398796D01*
Y433719D01*
X394732D01*
X134733D02*
Y437783D01*
X138797D01*
Y433719D01*
X134733D01*
X914731D02*
Y437783D01*
X918795D01*
Y433719D01*
X914731D01*
X414732D02*
Y437783D01*
X418796D01*
Y433719D01*
X414732D01*
X84733D02*
Y437783D01*
X88797D01*
Y433719D01*
X84733D01*
X1024731D02*
Y437783D01*
X1028795D01*
Y433719D01*
X1024731D01*
X467130Y462217D02*
Y466281D01*
X471194D01*
Y462217D01*
X467130D01*
X967129D02*
Y466281D01*
X971193D01*
Y462217D01*
X967129D01*
X107131D02*
Y466281D01*
X111195D01*
Y462217D01*
X107131D01*
X127131D02*
Y466281D01*
X131195D01*
Y462217D01*
X127131D01*
X317130D02*
Y466281D01*
X321194D01*
Y462217D01*
X317130D01*
X447130D02*
Y466281D01*
X451194D01*
Y462217D01*
X447130D01*
X524732Y433719D02*
Y437783D01*
X528796D01*
Y433719D01*
X524732D01*
X347130Y462217D02*
Y466281D01*
X351194D01*
Y462217D01*
X347130D01*
X834731Y433719D02*
Y437783D01*
X838795D01*
Y433719D01*
X834731D01*
X144733D02*
Y437783D01*
X148797D01*
Y433719D01*
X144733D01*
X1030402Y262623D02*
Y266686D01*
X1034466D01*
Y262623D01*
X1030402D01*
X1015402D02*
Y266686D01*
X1019466D01*
Y262623D01*
X1015402D01*
X1000402D02*
Y266686D01*
X1004466D01*
Y262623D01*
X1000402D01*
X985402D02*
Y266686D01*
X989466D01*
Y262623D01*
X985402D01*
X970402D02*
Y266686D01*
X974466D01*
Y262623D01*
X970402D01*
X955402D02*
Y266686D01*
X959466D01*
Y262623D01*
X955402D01*
X940402D02*
Y266686D01*
X944466D01*
Y262623D01*
X940402D01*
X925402D02*
Y266686D01*
X929466D01*
Y262623D01*
X925402D01*
X910402D02*
Y266686D01*
X914466D01*
Y262623D01*
X910402D01*
X895402D02*
Y266686D01*
X899466D01*
Y262623D01*
X895402D01*
X880402D02*
Y266686D01*
X884466D01*
Y262623D01*
X880402D01*
X865402D02*
Y266686D01*
X869466D01*
Y262623D01*
X865402D01*
X850402D02*
Y266686D01*
X854466D01*
Y262623D01*
X850402D01*
X835402D02*
Y266686D01*
X839466D01*
Y262623D01*
X835402D01*
X820402D02*
Y266686D01*
X824466D01*
Y262623D01*
X820402D01*
X805402D02*
Y266686D01*
X809466D01*
Y262623D01*
X805402D01*
X790402D02*
Y266686D01*
X794466D01*
Y262623D01*
X790402D01*
X775402D02*
Y266686D01*
X779466D01*
Y262623D01*
X775402D01*
X760402D02*
Y266686D01*
X764466D01*
Y262623D01*
X760402D01*
X745402D02*
Y266686D01*
X749466D01*
Y262623D01*
X745402D01*
X730402D02*
Y266686D01*
X734466D01*
Y262623D01*
X730402D01*
X715402D02*
Y266686D01*
X719466D01*
Y262623D01*
X715402D01*
X700402D02*
Y266686D01*
X704466D01*
Y262623D01*
X700402D01*
X685402D02*
Y266686D01*
X689466D01*
Y262623D01*
X685402D01*
X670402D02*
Y266686D01*
X674466D01*
Y262623D01*
X670402D01*
X655402D02*
Y266686D01*
X659466D01*
Y262623D01*
X655402D01*
X640402D02*
Y266686D01*
X644466D01*
Y262623D01*
X640402D01*
X625402D02*
Y266686D01*
X629466D01*
Y262623D01*
X625402D01*
X610402D02*
Y266686D01*
X614466D01*
Y262623D01*
X610402D01*
X595402D02*
Y266686D01*
X599466D01*
Y262623D01*
X595402D01*
X580402D02*
Y266686D01*
X584466D01*
Y262623D01*
X580402D01*
X565402D02*
Y266686D01*
X569466D01*
Y262623D01*
X565402D01*
X550402D02*
Y266686D01*
X554466D01*
Y262623D01*
X550402D01*
X535402D02*
Y266686D01*
X539466D01*
Y262623D01*
X535402D01*
X520402D02*
Y266686D01*
X524466D01*
Y262623D01*
X520402D01*
X505402D02*
Y266686D01*
X509466D01*
Y262623D01*
X505402D01*
X490402D02*
Y266686D01*
X494466D01*
Y262623D01*
X490402D01*
X475402D02*
Y266686D01*
X479466D01*
Y262623D01*
X475402D01*
X460402D02*
Y266686D01*
X464466D01*
Y262623D01*
X460402D01*
X445402D02*
Y266686D01*
X449466D01*
Y262623D01*
X445402D01*
X430402D02*
Y266686D01*
X434466D01*
Y262623D01*
X430402D01*
X415402D02*
Y266686D01*
X419466D01*
Y262623D01*
X415402D01*
X400402D02*
Y266686D01*
X404466D01*
Y262623D01*
X400402D01*
X385402D02*
Y266686D01*
X389466D01*
Y262623D01*
X385402D01*
X370402D02*
Y266686D01*
X374466D01*
Y262623D01*
X370402D01*
X355402D02*
Y266686D01*
X359466D01*
Y262623D01*
X355402D01*
X340402D02*
Y266686D01*
X344466D01*
Y262623D01*
X340402D01*
X325402D02*
Y266686D01*
X329466D01*
Y262623D01*
X325402D01*
X310402D02*
Y266686D01*
X314466D01*
Y262623D01*
X310402D01*
X295402D02*
Y266686D01*
X299466D01*
Y262623D01*
X295402D01*
X280402D02*
Y266686D01*
X284466D01*
Y262623D01*
X280402D01*
X265402D02*
Y266686D01*
X269466D01*
Y262623D01*
X265402D01*
X250402D02*
Y266686D01*
X254466D01*
Y262623D01*
X250402D01*
X235402D02*
Y266686D01*
X239466D01*
Y262623D01*
X235402D01*
X220402D02*
Y266686D01*
X224466D01*
Y262623D01*
X220402D01*
X205402D02*
Y266686D01*
X209466D01*
Y262623D01*
X205402D01*
X190402D02*
Y266686D01*
X194466D01*
Y262623D01*
X190402D01*
X175402D02*
Y266686D01*
X179466D01*
Y262623D01*
X175402D01*
X160402D02*
Y266686D01*
X164466D01*
Y262623D01*
X160402D01*
X145402D02*
Y266686D01*
X149466D01*
Y262623D01*
X145402D01*
X130402D02*
Y266686D01*
X134466D01*
Y262623D01*
X130402D01*
X115402D02*
Y266686D01*
X119466D01*
Y262623D01*
X115402D01*
X100402D02*
Y266686D01*
X104466D01*
Y262623D01*
X100402D01*
X85402D02*
Y266686D01*
X89466D01*
Y262623D01*
X85402D01*
X70402D02*
Y266686D01*
X74466D01*
Y262623D01*
X70402D01*
X63745Y233313D02*
Y237377D01*
X67809D01*
Y233313D01*
X63745D01*
X78745D02*
Y237377D01*
X82809D01*
Y233313D01*
X78745D01*
X93744D02*
Y237377D01*
X97809D01*
Y233313D01*
X93744D01*
X108744D02*
Y237377D01*
X112809D01*
Y233313D01*
X108744D01*
X123744D02*
Y237377D01*
X127809D01*
Y233313D01*
X123744D01*
X138744D02*
Y237377D01*
X142809D01*
Y233313D01*
X138744D01*
X153744D02*
Y237377D01*
X157809D01*
Y233313D01*
X153744D01*
X168745D02*
Y237377D01*
X172808D01*
Y233313D01*
X168745D01*
X183745D02*
Y237377D01*
X187808D01*
Y233313D01*
X183745D01*
X198745D02*
Y237377D01*
X202808D01*
Y233313D01*
X198745D01*
X213745D02*
Y237377D01*
X217808D01*
Y233313D01*
X213745D01*
X228745D02*
Y237377D01*
X232808D01*
Y233313D01*
X228745D01*
X243745D02*
Y237377D01*
X247808D01*
Y233313D01*
X243745D01*
X258745D02*
Y237377D01*
X262808D01*
Y233313D01*
X258745D01*
X273745D02*
Y237377D01*
X277808D01*
Y233313D01*
X273745D01*
X288745D02*
Y237377D01*
X292808D01*
Y233313D01*
X288745D01*
X303745D02*
Y237377D01*
X307808D01*
Y233313D01*
X303745D01*
X318745D02*
Y237377D01*
X322808D01*
Y233313D01*
X318745D01*
X333745D02*
Y237377D01*
X337808D01*
Y233313D01*
X333745D01*
X348745D02*
Y237377D01*
X352808D01*
Y233313D01*
X348745D01*
X363745D02*
Y237377D01*
X367808D01*
Y233313D01*
X363745D01*
X378745D02*
Y237377D01*
X382808D01*
Y233313D01*
X378745D01*
X393745D02*
Y237377D01*
X397808D01*
Y233313D01*
X393745D01*
X408744D02*
Y237377D01*
X412808D01*
Y233313D01*
X408744D01*
X423744D02*
Y237377D01*
X427808D01*
Y233313D01*
X423744D01*
X438744D02*
Y237377D01*
X442808D01*
Y233313D01*
X438744D01*
X453744D02*
Y237377D01*
X457808D01*
Y233313D01*
X453744D01*
X468744D02*
Y237377D01*
X472808D01*
Y233313D01*
X468744D01*
X483744D02*
Y237377D01*
X487808D01*
Y233313D01*
X483744D01*
X498744D02*
Y237377D01*
X502808D01*
Y233313D01*
X498744D01*
X513744D02*
Y237377D01*
X517808D01*
Y233313D01*
X513744D01*
X528744D02*
Y237377D01*
X532808D01*
Y233313D01*
X528744D01*
X543744D02*
Y237377D01*
X547808D01*
Y233313D01*
X543744D01*
X558744D02*
Y237377D01*
X562808D01*
Y233313D01*
X558744D01*
X573744D02*
Y237377D01*
X577808D01*
Y233313D01*
X573744D01*
X588744D02*
Y237377D01*
X592808D01*
Y233313D01*
X588744D01*
X603744D02*
Y237377D01*
X607808D01*
Y233313D01*
X603744D01*
X618744D02*
Y237377D01*
X622808D01*
Y233313D01*
X618744D01*
X633744D02*
Y237377D01*
X637808D01*
Y233313D01*
X633744D01*
X648744D02*
Y237377D01*
X652808D01*
Y233313D01*
X648744D01*
X663744D02*
Y237377D01*
X667808D01*
Y233313D01*
X663744D01*
X678744D02*
Y237377D01*
X682808D01*
Y233313D01*
X678744D01*
X693744D02*
Y237377D01*
X697808D01*
Y233313D01*
X693744D01*
X708744D02*
Y237377D01*
X712808D01*
Y233313D01*
X708744D01*
X723744D02*
Y237377D01*
X727808D01*
Y233313D01*
X723744D01*
X738744D02*
Y237377D01*
X742808D01*
Y233313D01*
X738744D01*
X753744D02*
Y237377D01*
X757808D01*
Y233313D01*
X753744D01*
X768744D02*
Y237377D01*
X772808D01*
Y233313D01*
X768744D01*
X783744D02*
Y237377D01*
X787808D01*
Y233313D01*
X783744D01*
X798744D02*
Y237377D01*
X802808D01*
Y233313D01*
X798744D01*
X813744D02*
Y237377D01*
X817808D01*
Y233313D01*
X813744D01*
X828744D02*
Y237377D01*
X832808D01*
Y233313D01*
X828744D01*
X843744D02*
Y237377D01*
X847808D01*
Y233313D01*
X843744D01*
X858744D02*
Y237377D01*
X862808D01*
Y233313D01*
X858744D01*
X873744D02*
Y237377D01*
X877808D01*
Y233313D01*
X873744D01*
X888744D02*
Y237377D01*
X892808D01*
Y233313D01*
X888744D01*
X903744D02*
Y237377D01*
X907808D01*
Y233313D01*
X903744D01*
X918744D02*
Y237377D01*
X922808D01*
Y233313D01*
X918744D01*
X933744D02*
Y237377D01*
X937808D01*
Y233313D01*
X933744D01*
X948744D02*
Y237377D01*
X952808D01*
Y233313D01*
X948744D01*
X963744D02*
Y237377D01*
X967808D01*
Y233313D01*
X963744D01*
X978744D02*
Y237377D01*
X982808D01*
Y233313D01*
X978744D01*
X993744D02*
Y237377D01*
X997808D01*
Y233313D01*
X993744D01*
X1008744D02*
Y237377D01*
X1012808D01*
Y233313D01*
X1008744D01*
X1023744D02*
Y237377D01*
X1027808D01*
Y233313D01*
X1023744D01*
X805968Y965968D02*
Y970032D01*
X810032D01*
Y965968D01*
X805968D01*
Y979968D02*
Y984032D01*
X810032D01*
Y979968D01*
X805968D01*
X289968Y965968D02*
Y970032D01*
X294032D01*
Y965968D01*
X289968D01*
Y979968D02*
Y984032D01*
X294032D01*
Y979968D01*
X289968D01*
X297968Y972968D02*
Y977032D01*
X302032D01*
Y972968D01*
X297968D01*
X797968D02*
Y977032D01*
X802032D01*
Y972968D01*
X797968D01*
Y822968D02*
Y827032D01*
X802032D01*
Y822968D01*
X797968D01*
X297968D02*
Y827032D01*
X302032D01*
Y822968D01*
X297968D01*
X1082968Y1063968D02*
Y1068032D01*
X1087032D01*
Y1063968D01*
X1082968D01*
X1062968D02*
Y1068032D01*
X1067032D01*
Y1063968D01*
X1062968D01*
X1042968D02*
Y1068032D01*
X1047032D01*
Y1063968D01*
X1042968D01*
X1072968Y1078968D02*
Y1083032D01*
X1077032D01*
Y1078968D01*
X1072968D01*
X1052968D02*
Y1083032D01*
X1057032D01*
Y1078968D01*
X1052968D01*
X1032968D02*
Y1083032D01*
X1037032D01*
Y1078968D01*
X1032968D01*
Y1098968D02*
Y1103032D01*
X1037032D01*
Y1098968D01*
X1032968D01*
X1042968Y1088968D02*
Y1093032D01*
X1047032D01*
Y1088968D01*
X1042968D01*
Y1158968D02*
Y1163032D01*
X1047032D01*
Y1158968D01*
X1042968D01*
X1032968Y1148968D02*
Y1153032D01*
X1037032D01*
Y1148968D01*
X1032968D01*
Y1168968D02*
Y1173032D01*
X1037032D01*
Y1168968D01*
X1032968D01*
X1052968D02*
Y1173032D01*
X1057032D01*
Y1168968D01*
X1052968D01*
X1072968D02*
Y1173032D01*
X1077032D01*
Y1168968D01*
X1072968D01*
X1042968Y1183968D02*
Y1188032D01*
X1047032D01*
Y1183968D01*
X1042968D01*
X1062968D02*
Y1188032D01*
X1067032D01*
Y1183968D01*
X1062968D01*
X1082968D02*
Y1188032D01*
X1087032D01*
Y1183968D01*
X1082968D01*
Y913968D02*
Y918032D01*
X1087032D01*
Y913968D01*
X1082968D01*
X1062968D02*
Y918032D01*
X1067032D01*
Y913968D01*
X1062968D01*
X1042968D02*
Y918032D01*
X1047032D01*
Y913968D01*
X1042968D01*
X1072968Y928968D02*
Y933032D01*
X1077032D01*
Y928968D01*
X1072968D01*
X1052968D02*
Y933032D01*
X1057032D01*
Y928968D01*
X1052968D01*
X1032968D02*
Y933032D01*
X1037032D01*
Y928968D01*
X1032968D01*
Y948968D02*
Y953032D01*
X1037032D01*
Y948968D01*
X1032968D01*
X1042968Y938968D02*
Y943032D01*
X1047032D01*
Y938968D01*
X1042968D01*
Y1008968D02*
Y1013032D01*
X1047032D01*
Y1008968D01*
X1042968D01*
X1032968Y998968D02*
Y1003032D01*
X1037032D01*
Y998968D01*
X1032968D01*
Y1018968D02*
Y1023032D01*
X1037032D01*
Y1018968D01*
X1032968D01*
X1052968D02*
Y1023032D01*
X1057032D01*
Y1018968D01*
X1052968D01*
X1072968D02*
Y1023032D01*
X1077032D01*
Y1018968D01*
X1072968D01*
X1042968Y1033968D02*
Y1038032D01*
X1047032D01*
Y1033968D01*
X1042968D01*
X1062968D02*
Y1038032D01*
X1067032D01*
Y1033968D01*
X1062968D01*
X1082968D02*
Y1038032D01*
X1087032D01*
Y1033968D01*
X1082968D01*
Y763968D02*
Y768032D01*
X1087032D01*
Y763968D01*
X1082968D01*
X1062968D02*
Y768032D01*
X1067032D01*
Y763968D01*
X1062968D01*
X1042968D02*
Y768032D01*
X1047032D01*
Y763968D01*
X1042968D01*
X1072968Y778968D02*
Y783032D01*
X1077032D01*
Y778968D01*
X1072968D01*
X1052968D02*
Y783032D01*
X1057032D01*
Y778968D01*
X1052968D01*
X1032968D02*
Y783032D01*
X1037032D01*
Y778968D01*
X1032968D01*
Y798968D02*
Y803032D01*
X1037032D01*
Y798968D01*
X1032968D01*
X1042968Y788968D02*
Y793032D01*
X1047032D01*
Y788968D01*
X1042968D01*
Y858968D02*
Y863032D01*
X1047032D01*
Y858968D01*
X1042968D01*
X1032968Y848968D02*
Y853032D01*
X1037032D01*
Y848968D01*
X1032968D01*
Y868968D02*
Y873032D01*
X1037032D01*
Y868968D01*
X1032968D01*
X1052968D02*
Y873032D01*
X1057032D01*
Y868968D01*
X1052968D01*
X1072968D02*
Y873032D01*
X1077032D01*
Y868968D01*
X1072968D01*
X1042968Y883968D02*
Y888032D01*
X1047032D01*
Y883968D01*
X1042968D01*
X1062968D02*
Y888032D01*
X1067032D01*
Y883968D01*
X1062968D01*
X1082968D02*
Y888032D01*
X1087032D01*
Y883968D01*
X1082968D01*
X12968Y1182968D02*
Y1187032D01*
X17032D01*
Y1182968D01*
X12968D01*
X32968D02*
Y1187032D01*
X37032D01*
Y1182968D01*
X32968D01*
X52968D02*
Y1187032D01*
X57032D01*
Y1182968D01*
X52968D01*
X22968Y1167968D02*
Y1172032D01*
X27032D01*
Y1167968D01*
X22968D01*
X42968D02*
Y1172032D01*
X47032D01*
Y1167968D01*
X42968D01*
X62968D02*
Y1172032D01*
X67032D01*
Y1167968D01*
X62968D01*
Y1147968D02*
Y1152032D01*
X67032D01*
Y1147968D01*
X62968D01*
X52968Y1157968D02*
Y1162032D01*
X57032D01*
Y1157968D01*
X52968D01*
Y1087968D02*
Y1092032D01*
X57032D01*
Y1087968D01*
X52968D01*
X62968Y1097968D02*
Y1102032D01*
X67032D01*
Y1097968D01*
X62968D01*
Y1077968D02*
Y1082032D01*
X67032D01*
Y1077968D01*
X62968D01*
X42968D02*
Y1082032D01*
X47032D01*
Y1077968D01*
X42968D01*
X22968D02*
Y1082032D01*
X27032D01*
Y1077968D01*
X22968D01*
X52968Y1062968D02*
Y1067032D01*
X57032D01*
Y1062968D01*
X52968D01*
X32968D02*
Y1067032D01*
X37032D01*
Y1062968D01*
X32968D01*
X12968D02*
Y1067032D01*
X17032D01*
Y1062968D01*
X12968D01*
Y1032968D02*
Y1037032D01*
X17032D01*
Y1032968D01*
X12968D01*
X32968D02*
Y1037032D01*
X37032D01*
Y1032968D01*
X32968D01*
X52968D02*
Y1037032D01*
X57032D01*
Y1032968D01*
X52968D01*
X22968Y1017968D02*
Y1022032D01*
X27032D01*
Y1017968D01*
X22968D01*
X42968D02*
Y1022032D01*
X47032D01*
Y1017968D01*
X42968D01*
X62968D02*
Y1022032D01*
X67032D01*
Y1017968D01*
X62968D01*
Y997968D02*
Y1002032D01*
X67032D01*
Y997968D01*
X62968D01*
X52968Y1007968D02*
Y1012032D01*
X57032D01*
Y1007968D01*
X52968D01*
Y937968D02*
Y942032D01*
X57032D01*
Y937968D01*
X52968D01*
X62968Y947968D02*
Y952032D01*
X67032D01*
Y947968D01*
X62968D01*
Y927968D02*
Y932032D01*
X67032D01*
Y927968D01*
X62968D01*
X42968D02*
Y932032D01*
X47032D01*
Y927968D01*
X42968D01*
X22968D02*
Y932032D01*
X27032D01*
Y927968D01*
X22968D01*
X52968Y912968D02*
Y917032D01*
X57032D01*
Y912968D01*
X52968D01*
X32968D02*
Y917032D01*
X37032D01*
Y912968D01*
X32968D01*
X12968D02*
Y917032D01*
X17032D01*
Y912968D01*
X12968D01*
Y882968D02*
Y887032D01*
X17032D01*
Y882968D01*
X12968D01*
X32968D02*
Y887032D01*
X37032D01*
Y882968D01*
X32968D01*
X52968D02*
Y887032D01*
X57032D01*
Y882968D01*
X52968D01*
X22968Y867968D02*
Y872032D01*
X27032D01*
Y867968D01*
X22968D01*
X42968D02*
Y872032D01*
X47032D01*
Y867968D01*
X42968D01*
X62968D02*
Y872032D01*
X67032D01*
Y867968D01*
X62968D01*
Y847968D02*
Y852032D01*
X67032D01*
Y847968D01*
X62968D01*
X52968Y857968D02*
Y862032D01*
X57032D01*
Y857968D01*
X52968D01*
Y787968D02*
Y792032D01*
X57032D01*
Y787968D01*
X52968D01*
X62968Y797968D02*
Y802032D01*
X67032D01*
Y797968D01*
X62968D01*
Y777968D02*
Y782032D01*
X67032D01*
Y777968D01*
X62968D01*
X42968D02*
Y782032D01*
X47032D01*
Y777968D01*
X42968D01*
X22968D02*
Y782032D01*
X27032D01*
Y777968D01*
X22968D01*
X52968Y762968D02*
Y767032D01*
X57032D01*
Y762968D01*
X52968D01*
X32968D02*
Y767032D01*
X37032D01*
Y762968D01*
X32968D01*
X12968D02*
Y767032D01*
X17032D01*
Y762968D01*
X12968D01*
X1082968Y588968D02*
Y593032D01*
X1087032D01*
Y588968D01*
X1082968D01*
X1062968D02*
Y593032D01*
X1067032D01*
Y588968D01*
X1062968D01*
X1042968D02*
Y593032D01*
X1047032D01*
Y588968D01*
X1042968D01*
X1072968Y603968D02*
Y608032D01*
X1077032D01*
Y603968D01*
X1072968D01*
X1052968D02*
Y608032D01*
X1057032D01*
Y603968D01*
X1052968D01*
X1032968D02*
Y608032D01*
X1037032D01*
Y603968D01*
X1032968D01*
Y623968D02*
Y628032D01*
X1037032D01*
Y623968D01*
X1032968D01*
X1042968Y613968D02*
Y618032D01*
X1047032D01*
Y613968D01*
X1042968D01*
Y683968D02*
Y688032D01*
X1047032D01*
Y683968D01*
X1042968D01*
X1032968Y673968D02*
Y678032D01*
X1037032D01*
Y673968D01*
X1032968D01*
Y693968D02*
Y698032D01*
X1037032D01*
Y693968D01*
X1032968D01*
X1052968D02*
Y698032D01*
X1057032D01*
Y693968D01*
X1052968D01*
X1072968D02*
Y698032D01*
X1077032D01*
Y693968D01*
X1072968D01*
X1042968Y708968D02*
Y713032D01*
X1047032D01*
Y708968D01*
X1042968D01*
X1062968D02*
Y713032D01*
X1067032D01*
Y708968D01*
X1062968D01*
X1082968D02*
Y713032D01*
X1087032D01*
Y708968D01*
X1082968D01*
X1042968Y663968D02*
Y668032D01*
X1047032D01*
Y663968D01*
X1042968D01*
Y633968D02*
Y638032D01*
X1047032D01*
Y633968D01*
X1042968D01*
X13968Y587968D02*
Y592032D01*
X18032D01*
Y587968D01*
X13968D01*
X33968D02*
Y592032D01*
X38032D01*
Y587968D01*
X33968D01*
X53968D02*
Y592032D01*
X58032D01*
Y587968D01*
X53968D01*
X23968Y602968D02*
Y607032D01*
X28032D01*
Y602968D01*
X23968D01*
X43968D02*
Y607032D01*
X48032D01*
Y602968D01*
X43968D01*
X63968D02*
Y607032D01*
X68032D01*
Y602968D01*
X63968D01*
Y622968D02*
Y627032D01*
X68032D01*
Y622968D01*
X63968D01*
X53968Y612968D02*
Y617032D01*
X58032D01*
Y612968D01*
X53968D01*
Y682968D02*
Y687032D01*
X58032D01*
Y682968D01*
X53968D01*
X63968Y672968D02*
Y677032D01*
X68032D01*
Y672968D01*
X63968D01*
Y692968D02*
Y697032D01*
X68032D01*
Y692968D01*
X63968D01*
X43968D02*
Y697032D01*
X48032D01*
Y692968D01*
X43968D01*
X23968D02*
Y697032D01*
X28032D01*
Y692968D01*
X23968D01*
X53968Y707968D02*
Y712032D01*
X58032D01*
Y707968D01*
X53968D01*
X33968D02*
Y712032D01*
X38032D01*
Y707968D01*
X33968D01*
X13968D02*
Y712032D01*
X18032D01*
Y707968D01*
X13968D01*
X53968Y662968D02*
Y667032D01*
X58032D01*
Y662968D01*
X53968D01*
Y632968D02*
Y637032D01*
X58032D01*
Y632968D01*
X53968D01*
X13968Y387968D02*
Y392032D01*
X18032D01*
Y387968D01*
X13968D01*
X33968D02*
Y392032D01*
X38032D01*
Y387968D01*
X33968D01*
X53968D02*
Y392032D01*
X58032D01*
Y387968D01*
X53968D01*
X23968Y402968D02*
Y407032D01*
X28032D01*
Y402968D01*
X23968D01*
X43968D02*
Y407032D01*
X48032D01*
Y402968D01*
X43968D01*
X63968D02*
Y407032D01*
X68032D01*
Y402968D01*
X63968D01*
Y422968D02*
Y427032D01*
X68032D01*
Y422968D01*
X63968D01*
X53968Y412968D02*
Y417032D01*
X58032D01*
Y412968D01*
X53968D01*
Y482968D02*
Y487032D01*
X58032D01*
Y482968D01*
X53968D01*
X63968Y472968D02*
Y477032D01*
X68032D01*
Y472968D01*
X63968D01*
Y492968D02*
Y497032D01*
X68032D01*
Y492968D01*
X63968D01*
X43968D02*
Y497032D01*
X48032D01*
Y492968D01*
X43968D01*
X23968D02*
Y497032D01*
X28032D01*
Y492968D01*
X23968D01*
X53968Y507968D02*
Y512032D01*
X58032D01*
Y507968D01*
X53968D01*
X33968D02*
Y512032D01*
X38032D01*
Y507968D01*
X33968D01*
X13968D02*
Y512032D01*
X18032D01*
Y507968D01*
X13968D01*
X53968Y462968D02*
Y467032D01*
X58032D01*
Y462968D01*
X53968D01*
Y432968D02*
Y437032D01*
X58032D01*
Y432968D01*
X53968D01*
X13968Y187968D02*
Y192032D01*
X18032D01*
Y187968D01*
X13968D01*
X33968D02*
Y192032D01*
X38032D01*
Y187968D01*
X33968D01*
X53968D02*
Y192032D01*
X58032D01*
Y187968D01*
X53968D01*
X23968Y202968D02*
Y207032D01*
X28032D01*
Y202968D01*
X23968D01*
X43968D02*
Y207032D01*
X48032D01*
Y202968D01*
X43968D01*
X63968D02*
Y207032D01*
X68032D01*
Y202968D01*
X63968D01*
Y222968D02*
Y227032D01*
X68032D01*
Y222968D01*
X63968D01*
X53968Y212968D02*
Y217032D01*
X58032D01*
Y212968D01*
X53968D01*
Y282968D02*
Y287032D01*
X58032D01*
Y282968D01*
X53968D01*
X63968Y272968D02*
Y277032D01*
X68032D01*
Y272968D01*
X63968D01*
Y292968D02*
Y297032D01*
X68032D01*
Y292968D01*
X63968D01*
X43968D02*
Y297032D01*
X48032D01*
Y292968D01*
X43968D01*
X23968D02*
Y297032D01*
X28032D01*
Y292968D01*
X23968D01*
X53968Y307968D02*
Y312032D01*
X58032D01*
Y307968D01*
X53968D01*
X33968D02*
Y312032D01*
X38032D01*
Y307968D01*
X33968D01*
X13968D02*
Y312032D01*
X18032D01*
Y307968D01*
X13968D01*
X53968Y262968D02*
Y267032D01*
X58032D01*
Y262968D01*
X53968D01*
Y232968D02*
Y237032D01*
X58032D01*
Y232968D01*
X53968D01*
X1082968Y188968D02*
Y193032D01*
X1087032D01*
Y188968D01*
X1082968D01*
X1062968D02*
Y193032D01*
X1067032D01*
Y188968D01*
X1062968D01*
X1042968D02*
Y193032D01*
X1047032D01*
Y188968D01*
X1042968D01*
X1072968Y203968D02*
Y208032D01*
X1077032D01*
Y203968D01*
X1072968D01*
X1052968D02*
Y208032D01*
X1057032D01*
Y203968D01*
X1052968D01*
X1032968D02*
Y208032D01*
X1037032D01*
Y203968D01*
X1032968D01*
Y223968D02*
Y228032D01*
X1037032D01*
Y223968D01*
X1032968D01*
X1042968Y213968D02*
Y218032D01*
X1047032D01*
Y213968D01*
X1042968D01*
Y283968D02*
Y288032D01*
X1047032D01*
Y283968D01*
X1042968D01*
X1032968Y273968D02*
Y278032D01*
X1037032D01*
Y273968D01*
X1032968D01*
Y293968D02*
Y298032D01*
X1037032D01*
Y293968D01*
X1032968D01*
X1052968D02*
Y298032D01*
X1057032D01*
Y293968D01*
X1052968D01*
X1072968D02*
Y298032D01*
X1077032D01*
Y293968D01*
X1072968D01*
X1042968Y308968D02*
Y313032D01*
X1047032D01*
Y308968D01*
X1042968D01*
X1062968D02*
Y313032D01*
X1067032D01*
Y308968D01*
X1062968D01*
X1082968D02*
Y313032D01*
X1087032D01*
Y308968D01*
X1082968D01*
X1042968Y263968D02*
Y268032D01*
X1047032D01*
Y263968D01*
X1042968D01*
Y233968D02*
Y238032D01*
X1047032D01*
Y233968D01*
X1042968D01*
Y433968D02*
Y438032D01*
X1047032D01*
Y433968D01*
X1042968D01*
Y463968D02*
Y468032D01*
X1047032D01*
Y463968D01*
X1042968D01*
X1082968Y508968D02*
Y513032D01*
X1087032D01*
Y508968D01*
X1082968D01*
X1062968D02*
Y513032D01*
X1067032D01*
Y508968D01*
X1062968D01*
X1042968D02*
Y513032D01*
X1047032D01*
Y508968D01*
X1042968D01*
X1072968Y493968D02*
Y498032D01*
X1077032D01*
Y493968D01*
X1072968D01*
X1052968D02*
Y498032D01*
X1057032D01*
Y493968D01*
X1052968D01*
X1032968D02*
Y498032D01*
X1037032D01*
Y493968D01*
X1032968D01*
Y473968D02*
Y478032D01*
X1037032D01*
Y473968D01*
X1032968D01*
X1042968Y483968D02*
Y488032D01*
X1047032D01*
Y483968D01*
X1042968D01*
Y413968D02*
Y418032D01*
X1047032D01*
Y413968D01*
X1042968D01*
X1032968Y423968D02*
Y428032D01*
X1037032D01*
Y423968D01*
X1032968D01*
Y403968D02*
Y408032D01*
X1037032D01*
Y403968D01*
X1032968D01*
X1052968D02*
Y408032D01*
X1057032D01*
Y403968D01*
X1052968D01*
X1072968D02*
Y408032D01*
X1077032D01*
Y403968D01*
X1072968D01*
X1042968Y388968D02*
Y393032D01*
X1047032D01*
Y388968D01*
X1042968D01*
X1062968D02*
Y393032D01*
X1067032D01*
Y388968D01*
X1062968D01*
X1082968D02*
Y393032D01*
X1087032D01*
Y388968D01*
X1082968D01*
Y132968D02*
Y137032D01*
X1087032D01*
Y132968D01*
X1082968D01*
X1062968D02*
Y137032D01*
X1067032D01*
Y132968D01*
X1062968D01*
X1042968D02*
Y137032D01*
X1047032D01*
Y132968D01*
X1042968D01*
X1072968Y117968D02*
Y122032D01*
X1077032D01*
Y117968D01*
X1072968D01*
X1052968D02*
Y122032D01*
X1057032D01*
Y117968D01*
X1052968D01*
X1032968D02*
Y122032D01*
X1037032D01*
Y117968D01*
X1032968D01*
Y97968D02*
Y102032D01*
X1037032D01*
Y97968D01*
X1032968D01*
X1042968Y107968D02*
Y112032D01*
X1047032D01*
Y107968D01*
X1042968D01*
Y37968D02*
Y42032D01*
X1047032D01*
Y37968D01*
X1042968D01*
X1032968Y47968D02*
Y52032D01*
X1037032D01*
Y47968D01*
X1032968D01*
Y27968D02*
Y32032D01*
X1037032D01*
Y27968D01*
X1032968D01*
X1052968D02*
Y32032D01*
X1057032D01*
Y27968D01*
X1052968D01*
X1072968D02*
Y32032D01*
X1077032D01*
Y27968D01*
X1072968D01*
X1042968Y12968D02*
Y17032D01*
X1047032D01*
Y12968D01*
X1042968D01*
X1062968D02*
Y17032D01*
X1067032D01*
Y12968D01*
X1062968D01*
X1082968D02*
Y17032D01*
X1087032D01*
Y12968D01*
X1082968D01*
X12968D02*
Y17032D01*
X17032D01*
Y12968D01*
X12968D01*
X32968D02*
Y17032D01*
X37032D01*
Y12968D01*
X32968D01*
X52968D02*
Y17032D01*
X57032D01*
Y12968D01*
X52968D01*
X22968Y27968D02*
Y32032D01*
X27032D01*
Y27968D01*
X22968D01*
X42968D02*
Y32032D01*
X47032D01*
Y27968D01*
X42968D01*
X62968D02*
Y32032D01*
X67032D01*
Y27968D01*
X62968D01*
Y47968D02*
Y52032D01*
X67032D01*
Y47968D01*
X62968D01*
X52968Y37968D02*
Y42032D01*
X57032D01*
Y37968D01*
X52968D01*
Y107968D02*
Y112032D01*
X57032D01*
Y107968D01*
X52968D01*
X62968Y97968D02*
Y102032D01*
X67032D01*
Y97968D01*
X62968D01*
Y117968D02*
Y122032D01*
X67032D01*
Y117968D01*
X62968D01*
X42968D02*
Y122032D01*
X47032D01*
Y117968D01*
X42968D01*
X22968D02*
Y122032D01*
X27032D01*
Y117968D01*
X22968D01*
X52968Y132968D02*
Y137032D01*
X57032D01*
Y132968D01*
X52968D01*
X32968D02*
Y137032D01*
X37032D01*
Y132968D01*
X32968D01*
X12968D02*
Y137032D01*
X17032D01*
Y132968D01*
X12968D01*
M02*
