G04*
G04 #@! TF.GenerationSoftware,Altium Limited,Altium Designer,26.3.0 (6)*
G04*
G04 Layer_Color=8421504*
%FSLAX44Y44*%
%MOMM*%
G71*
G04*
G04 #@! TF.SameCoordinates,275B8CE4-E838-42BB-8D23-489C854344AE*
G04*
G04*
G04 #@! TF.FilePolarity,Positive*
G04*
G01*
G75*
%ADD10R,4.0000X1.5000*%
%ADD11R,0.9000X0.7000*%
%ADD12R,0.7000X0.9000*%
D10*
X1074000Y250000D02*
D03*
Y224600D02*
D03*
Y276400D02*
D03*
Y450000D02*
D03*
Y424600D02*
D03*
Y476400D02*
D03*
Y75000D02*
D03*
Y49600D02*
D03*
Y101400D02*
D03*
Y650000D02*
D03*
Y624600D02*
D03*
Y676400D02*
D03*
Y825000D02*
D03*
Y799600D02*
D03*
Y851400D02*
D03*
Y975000D02*
D03*
Y949600D02*
D03*
Y1001400D02*
D03*
Y1125000D02*
D03*
Y1099600D02*
D03*
Y1151400D02*
D03*
X26000Y1098600D02*
D03*
Y1150400D02*
D03*
Y1125000D02*
D03*
Y948600D02*
D03*
Y1000400D02*
D03*
Y975000D02*
D03*
Y798600D02*
D03*
Y850400D02*
D03*
Y825000D02*
D03*
X27000Y623600D02*
D03*
Y675400D02*
D03*
Y650000D02*
D03*
Y423600D02*
D03*
Y475400D02*
D03*
Y450000D02*
D03*
X26000Y48600D02*
D03*
Y100400D02*
D03*
Y75000D02*
D03*
X27000Y223600D02*
D03*
Y275400D02*
D03*
Y250000D02*
D03*
D11*
X926731Y650000D02*
D03*
X913269D02*
D03*
X976731D02*
D03*
X963269D02*
D03*
D12*
X945000Y646731D02*
D03*
Y633269D02*
D03*
X995000Y646731D02*
D03*
Y633269D02*
D03*
M02*
