M48
;Layer_Color=9474304
;FILE_FORMAT=4:4
METRIC,LZ
;TYPE=PLATED
T01F00S00C0.3000
%
T01
X00015Y00015
X00035
X00055
X00045Y0003
X00055Y0004
X00065Y0003
Y0005
Y001
Y0012
X00055Y0011
X00045Y0012
X00025
X00035Y00135
X00055
X00015
X00016Y0019
X00036
X00036498Y00171209
X00066498
X00056Y0019
X00046Y00205
X00056Y00215
X00066Y00205
Y00225
X00065777Y00235345
X00056Y00235
X00080777Y00235345
X00095777
X00110777
X00125777
X00140777
X00155777
X00170777
X00185777
X00200777
X00215777
X00230777
X00245777
X00260777
X00275777
X00290777
X00305777
X00320776
X00335776
X00350776
X00365776
X00380776
X00381498Y00201209
X00351498
X00321498
X00291498
X00261498
X00231498
X00201498
X00171498
X00141498
X00111498
X00126498Y00171209
X00156498
X00186498
X00216498
X00246498
X00276498
X00306498
X00336498
X00366498
X00372434Y00264655
X00357434
X00342434
X00327434
X00312434
X00297434
X00282434
X00267434
X00252434
X00237434
X00222434
X00207434
X00192434
X00177434
X00162434
X00147434
X00132434
X00117434
X00102434
X00087434
X00072434
X00066Y00275
Y00295
X00056Y00285
X00046Y00295
X00026
X00036Y0031
X00056
X00081498Y00321209
X00111498
X00141498
X00171498
X00201498
X00231498
X00261498
X00291498
X00321498
X00351498
X00381498
X00366498Y00291209
X00336498
X00306498
X00276498
X00246498
X00216498
X00186498
X00156498
X00126498
X00096498
X00056Y00265
X00016Y0031
X00026Y00205
X00096498Y00171209
X00025Y0003
X00396498Y00171209
X00426498
X00456498
X00486498
X00516498
X00546498
X00576498
X00606498
X00636498
X00666498
X00696498
X00726498
X00756498
X00771498Y00201209
X00741498
X00711498
X00681498
X00651498
X00621498
X00591498
X00561498
X00531498
X00501498
X00471498
X00441498
X00411498
X00410776Y00235345
X00395776
X00425776
X00440776
X00455776
X00470776
X00485776
X00500776
X00515776
X00530776
X00545776
X00560776
X00575776
X00590776
X00605776
X00620776
X00635776
X00650776
X00665776
X00680776
X00695776
X00710776
X00725776
X00740776
X00755776
X00770776
X00777434Y00264655
X00762434
X00747434
X00732434
X00717434
X00702434
X00687434
X00672434
X00657434
X00642434
X00627434
X00612434
X00597434
X00582434
X00567434
X00552434
X00537434
X00522434
X00507434
X00492434
X00477434
X00462434
X00447434
X00432434
X00417434
X00402434
X00387434
X00396498Y00291209
X00426498
X00456498
X00486498
X00516498
X00546498
X00576498
X00606498
X00636498
X00666498
X00696498
X00726498
X00756498
X00771498Y00321209
X00741498
X00711498
X00681498
X00651498
X00621498
X00591498
X00561498
X00531498
X00501498
X00471498
X00441498
X00411498
X00801498
X00831498
X00861498
X00891498
X00921498
X00951498
X00981498
X01011498
X01045Y00311
X01065
X01085
X01075Y00296
X01055
X01045Y00286
X01035Y00296
Y00276
X01032434Y00264655
X01045Y00266
X01017434Y00264655
X01002434
X00987434
X00972434
X00957434
X00942434
X00927434
X00912434
X00897434
X00882434
X00867434
X00852434
X00837434
X00822434
X00807434
X00792434
X00786498Y00291209
X00816498
X00846498
X00876498
X00906498
X00936498
X00966498
X00996498
X00995776Y00235345
X00980776
X00965776
X00950776
X00935776
X00920776
X00905776
X00890776
X00875776
X00860776
X00845776
X00830776
X00815776
X00800776
X00785776
X00801498Y00201209
X00831498
X00861498
X00891498
X00921498
X00951498
X00981498
X01011498
X01035Y00206
X01055
X01045Y00216
Y00236
X01025776Y00235345
X01010776
X01035Y00226
X01045Y00191
X01065
X01085
X01075Y00206
X01056498Y00171209
X01026498
X00996498
X00966498
X00936498
X00906498
X00876498
X00846498
X00816498
X00786498
X01045Y00135
X01065
X01085
X01075Y0012
X01055
X01045Y0011
X01035Y0012
Y001
Y0005
Y0003
X01045Y0004
X01055Y0003
X01075
X01065Y00015
X01045
X01085
Y00391
X01065
X01056498Y00381209
X01045Y00391
Y00416
X01055Y00406
X01035
Y00426
X01036763Y00435751
X01045Y00436
X01026763Y00435751
X01016763
X01006763
X00996763
X00986763
X00976763
X00966763
X00956763
X00946763
X00936763
X00926763
X00916763
X00906763
X00896763
X00886763
X00876763
X00866763
X00856763
X00846763
X00836763
X00826763
X00816764
X00806764
X00796764
X00786764
X00789161Y00464249
X00799161
X00809161
X00819161
X00829161
X00839161
X00849161
X00859161
X00869161
X00879161
X00889161
X00899161
X00909161
X00919161
X00929161
X00939161
X00949161
X00959161
X00969161
X00979161
X00989161
X00999161
X01009161
X01019161
X01029161
X01035Y00476
X01045Y00466
Y00486
X01055Y00496
X01035
X01045Y00511
X01065
X01085
X01075Y00496
X01056498Y00561209
X01026498
X00996498
X00966498
X00936498
X00906498
X00876498
X00846498
X00816498
X00786498
X00801498Y00591209
X00831498
X00861498
X00891498
X00921498
X00951498
X00981498
X01011498
X01045Y00591
X01065
X01085
X01075Y00606
X01055
X01045Y00616
X01035Y00606
Y00626
X01025776Y00635345
X01010776
X00982564Y00632702
X00965357Y00633388
X00961907Y006614
X00952216Y00664857
X00937218Y00665091
X00936498Y00681209
X0091929Y00666412
X00904306Y00665723
X00889344Y00664654
X00874344
X00859344
X00844344
X00829344
X00814344
X00799344
X00784344
X00786498Y00681209
X00816498
X00846498
X00876498
X00891498Y00711209
X00921498
X00951498
X00981498
X01011498
X01045Y00711
X01065
X01085
X01075Y00696
X01055
X01045Y00686
X01035Y00696
Y00676
X01035844Y00664654
X01045Y00666
X01020844Y00664654
X01005844
X00990844
X00971162Y00666165
X00996498Y00681209
X01045Y00636
X00935924Y0063047
X00917106Y00633388
X00902209Y00635147
X00887211Y00635345
X00872211
X00857211
X00842211
X00827211
X00812211
X00797211
X00782211
X00801498Y00711209
X00831498
X00861498
X00876498Y00501209
X00906498
X00936498
X00966498
X00996498
X01011498Y00411209
X00981498
X00951498
X00921498
X00891498
X00861498
X00831498
X00801498
X00816498Y00381209
X00846498
X00876498
X00906498
X00936498
X00966498
X00996498
X01026498
X01075Y00406
X00786498Y00381209
X00779161Y00464249
X00786498Y00501209
X00816498
X00846498
X00756498
X00726498
X00696498
X00666498
X00636498
X00606498
X00576498
X00546498
X00516498
X00486498
X00456498
X00426498
X00396498
X00399162Y00464249
X00389162
X00409162
X00419162
X00429162
X00439162
X00449162
X00459162
X00469162
X00479162
X00489162
X00499162
X00509162
X00519162
X00529162
X00539162
X00549162
X00559162
X00569162
X00579162
X00589162
X00599162
X00609162
X00619162
X00629162
X00639162
X00649162
X00659162
X00669162
X00679162
X00689162
X00699161
X00709161
X00719161
X00729161
X00739161
X00749161
X00759161
X00769161
X00766764Y00435751
X00776764
X00756764
X00746764
X00736764
X00726764
X00716764
X00706764
X00696764
X00686764
X00676764
X00666764
X00656764
X00646764
X00636764
X00626764
X00616764
X00606764
X00596764
X00586764
X00576764
X00566764
X00556764
X00546764
X00536764
X00526764
X00516764
X00506764
X00496764
X00486764
X00476764
X00466764
X00456764
X00446764
X00436764
X00426764
X00416764
X00406764
X00396764
X00386764
X00411498Y00411209
X00441498
X00471498
X00501498
X00531498
X00561498
X00591498
X00621498
X00651498
X00681498
X00711498
X00741498
X00771498
X00756498Y00381209
X00726498
X00696498
X00666498
X00636498
X00606498
X00576498
X00546498
X00516498
X00486498
X00456498
X00426498
X00396498
Y00561209
X00426498
X00456498
X00486498
X00516498
X00546498
X00576498
X00606498
X00636498
X00666498
X00696498
X00726498
X00756498
X00771498Y00591209
X00741498
X00711498
X00681498
X00651498
X00621498
X00591498
X00561498
X00531498
X00501498
X00471498
X00441498
X00411498
X00407211Y00635345
X00392211
X00422211
X00437211
X00452211
X00467211
X00482211
X00497211
X00512211
X00527211
X00542211
X00557211
X00572211
X00587211
X00602211
X00617211
X00632211
X00647211
X00662211
X00677211
X00692211
X00707211
X00722211
X00737211
X00752211
X00767211
X00769344Y00664654
X00754344
X00739344
X00724344
X00709344
X00694344
X00679344
X00664344
X00649344
X00634344
X00619344
X00604344
X00589344
X00574344
X00559344
X00544344
X00529344
X00514344
X00499344
X00484344
X00469344
X00454344
X00439344
X00424344
X00409344
X00394345
X00396498Y00681209
X00426498
X00456498
X00486498
X00516498
X00546498
X00576498
X00606498
X00636498
X00666498
X00696498
X00726498
X00756498
X00771498Y00711209
X00741498
X00711498
X00681498
X00651498
X00621498
X00591498
X00561498
X00531498
X00501498
X00471498
X00441498
X00411498
X00381498
X00351498
X00321498
X00291498
X00261498
X00231498
X00201498
X00171498
X00141498
X00111498
X00081498
X00056Y0071
X00036
X00016
X00026Y00695
X00046
X00056Y00685
X00066Y00695
Y00675
X00064345Y00664654
X00056Y00665
X00079345Y00664654
X00094345
X00109345
X00124345
X00139345
X00154345
X00169345
X00184345
X00199345
X00214345
X00229345
X00244345
X00259345
X00274345
X00289345
X00304345
X00319345
X00334345
X00349345
X00364345
X00379345
X00366498Y00681209
X00336498
X00306498
X00276498
X00246498
X00216498
X00186498
X00156498
X00126498
X00096498
X00092211Y00635345
X00077211
X00062211
X00056Y00635
X00066Y00625
Y00605
X00046
X00056Y00615
Y0059
X00036
X00016
X00026Y00605
X00036498Y00561209
X00066498
X00096498
X00126498
X00156498
X00186498
X00216498
X00246498
X00276498
X00306498
X00336498
X00366498
X00381498Y00591209
X00351498
X00321498
X00291498
X00261498
X00231498
X00201498
X00171498
X00141498
X00111498
X00081498
X00107211Y00635345
X00122211
X00137211
X00152211
X00167211
X00182211
X00197211
X00212211
X00227211
X00242211
X00257211
X00272211
X00287211
X00302211
X00317211
X00332211
X00347211
X00362211
X00377211
X00366498Y00501209
X00336498
X00306498
X00276498
X00246498
X00216498
X00186498
X00156498
X00126498
X00096498
X00066Y00495
X00056Y00485
X00046Y00495
X00026
X00036Y0051
X00056
X00016
X00056Y00465
X00069163Y00464249
X00079163
X00089163
X00099163
X00109163
X00119163
X00129163
X00139163
X00149163
X00159163
X00169163
X00179163
X00189163
X00199162
X00209162
X00219162
X00229162
X00239162
X00249162
X00259162
X00269162
X00279162
X00289162
X00299162
X00309162
X00319162
X00329162
X00339162
X00349162
X00359162
X00369162
X00379162
X00376764Y00435751
X00366764
X00356764
X00346764
X00336764
X00326764
X00316765
X00306765
X00296765
X00286765
X00276765
X00266765
X00256765
X00246765
X00236765
X00226765
X00216765
X00206765
X00196765
X00186765
X00176765
X00166765
X00156765
X00146765
X00136765
X00126765
X00116765
X00106765
X00096765
X00086765
X00076765
X00066765
X00066Y00425
Y00405
X00046
X00056Y00415
Y00435
Y0039
X00066498Y00381209
X00096498
X00126498
X00156498
X00186498
X00216498
X00246498
X00276498
X00306498
X00336498
X00366498
X00381498Y00411209
X00351498
X00321498
X00291498
X00261498
X00231498
X00201498
X00171498
X00141498
X00111498
X00081498
X00026Y00405
X00016Y0039
X00036
X00066Y00475
X00055Y00765
X00035
X00015
X00025Y0078
X00045
X00055Y0079
X00065Y0078
Y008
Y0085
Y0087
X00045
X00055Y0086
Y00885
X00035
X00015
X00025Y0087
X00035Y00915
X00055
Y0094
X00045Y0093
X00065
Y0095
Y01
Y0102
X00045
X00055Y0101
Y01035
X00035
X00015
X00025Y0102
X00035Y01065
X00055
Y0109
X00045Y0108
X00065
Y011
Y0115
X00025Y0108
X00015Y01065
X00025Y0093
X00015Y00915
X00292Y00968
Y00982
X003Y00975
Y00825
X008
Y00975
X00808Y00968
Y00982
X01035Y01001
Y01021
X01045Y01011
X01055Y01021
X01075
X01065Y01036
X01045
Y01066
X01065
X01085
X01075Y01081
X01055
X01045Y01091
X01035Y01081
Y01101
Y01151
X01085Y01036
X01075Y00931
X01055
X01045Y00941
X01035Y00931
Y00951
X01045Y00916
X01065
X01085
Y00886
X01065
X01045
Y00861
X01055Y00871
X01035
Y00851
Y00801
Y00781
X01055
X01045Y00791
Y00766
X01065
X01085
X01075Y00781
Y00871
Y01171
X01055
X01045Y01161
X01035Y01171
X01045Y01186
X01065
X01085
X00055Y01185
X00035
X00015
X00025Y0117
X00045
X00055Y0116
X00065Y0117
M30
