G04*
G04 #@! TF.GenerationSoftware,Altium Limited,Altium Designer,26.3.0 (6)*
G04*
G04 Layer_Physical_Order=3*
G04 Layer_Color=10085887*
%FSLAX44Y44*%
%MOMM*%
G71*
G04*
G04 #@! TF.SameCoordinates,CC5576EB-6972-46C7-92A3-5A6C56D054FB*
G04*
G04*
G04 #@! TF.FilePolarity,Positive*
G04*
G01*
G75*
%ADD20C,0.7000*%
%ADD21C,0.1500*%
%ADD22C,0.3000*%
D20*
X800000Y2109500D02*
D03*
Y2100500D02*
D03*
X301367Y2109500D02*
D03*
Y2100500D02*
D03*
X800000Y1909500D02*
D03*
Y1900500D02*
D03*
X301367Y1909500D02*
D03*
Y1900500D02*
D03*
X300000Y1175000D02*
D03*
X800000D02*
D03*
Y1025000D02*
D03*
X300000D02*
D03*
D21*
X304996Y1903650D02*
X796371D01*
X799521Y1900500D01*
X800000D01*
X796371Y1906350D02*
X799761Y1909740D01*
X796371Y2103650D02*
X799521Y2100500D01*
X800000D01*
X799521Y2109500D02*
X800000D01*
X304996Y2103650D02*
X796371D01*
Y2106350D02*
X799521Y2109500D01*
X304996Y2106350D02*
X796371D01*
X301846Y2100500D02*
X304996Y2103650D01*
X301367Y2109500D02*
X301846D01*
X304996Y2106350D01*
X301367Y2100500D02*
X301846D01*
X301367Y1900500D02*
X301846D01*
X304996Y1903650D01*
Y1906350D02*
X796371D01*
X301367Y1909500D02*
X301846D01*
X304996Y1906350D01*
D22*
X300000Y1175000D02*
X800000D01*
X300000Y1025000D02*
X800000D01*
M02*
