G04*
G04 #@! TF.GenerationSoftware,Altium Limited,Altium Designer,26.3.0 (6)*
G04*
G04 Layer_Color=2752767*
%FSLAX44Y44*%
%MOMM*%
G71*
G04*
G04 #@! TF.SameCoordinates,CC5576EB-6972-46C7-92A3-5A6C56D054FB*
G04*
G04*
G04 #@! TF.FilePolarity,Positive*
G04*
G01*
G75*
%ADD31C,0.0508*%
D31*
X1054466Y769177D02*
Y773241D01*
X1058530D01*
Y769177D01*
X1054466D01*
X1024466D02*
Y773241D01*
X1028530D01*
Y769177D01*
X1024466D01*
X1009466Y919177D02*
Y923241D01*
X1013530D01*
Y919177D01*
X1009466D01*
X994466Y889177D02*
Y893241D01*
X998530D01*
Y889177D01*
X994466D01*
X1009466Y799177D02*
Y803241D01*
X1013530D01*
Y799177D01*
X1009466D01*
X994466Y769177D02*
Y773241D01*
X998530D01*
Y769177D01*
X994466D01*
X979466Y919177D02*
Y923241D01*
X983530D01*
Y919177D01*
X979466D01*
X964466Y889177D02*
Y893241D01*
X968530D01*
Y889177D01*
X964466D01*
X979466Y799177D02*
Y803241D01*
X983530D01*
Y799177D01*
X979466D01*
X964466Y769177D02*
Y773241D01*
X968530D01*
Y769177D01*
X964466D01*
X949466Y919177D02*
Y923241D01*
X953530D01*
Y919177D01*
X949466D01*
X934466Y889177D02*
Y893241D01*
X938530D01*
Y889177D01*
X934466D01*
X949466Y799177D02*
Y803241D01*
X953530D01*
Y799177D01*
X949466D01*
X934466Y769177D02*
Y773241D01*
X938530D01*
Y769177D01*
X934466D01*
X919466Y919177D02*
Y923241D01*
X923530D01*
Y919177D01*
X919466D01*
X904466Y889177D02*
Y893241D01*
X908530D01*
Y889177D01*
X904466D01*
X919466Y799177D02*
Y803241D01*
X923530D01*
Y799177D01*
X919466D01*
X904466Y769177D02*
Y773241D01*
X908530D01*
Y769177D01*
X904466D01*
X889466Y919177D02*
Y923241D01*
X893530D01*
Y919177D01*
X889466D01*
X874466Y889177D02*
Y893241D01*
X878530D01*
Y889177D01*
X874466D01*
X889466Y799177D02*
Y803241D01*
X893530D01*
Y799177D01*
X889466D01*
X874466Y769177D02*
Y773241D01*
X878530D01*
Y769177D01*
X874466D01*
X859466Y919177D02*
Y923241D01*
X863530D01*
Y919177D01*
X859466D01*
X844466Y889177D02*
Y893241D01*
X848530D01*
Y889177D01*
X844466D01*
X859466Y799177D02*
Y803241D01*
X863530D01*
Y799177D01*
X859466D01*
X844466Y769177D02*
Y773241D01*
X848530D01*
Y769177D01*
X844466D01*
X829466Y919177D02*
Y923241D01*
X833530D01*
Y919177D01*
X829466D01*
X814466Y889177D02*
Y893241D01*
X818530D01*
Y889177D01*
X814466D01*
X829466Y799177D02*
Y803241D01*
X833530D01*
Y799177D01*
X829466D01*
X814466Y769177D02*
Y773241D01*
X818530D01*
Y769177D01*
X814466D01*
X799466Y919177D02*
Y923241D01*
X803530D01*
Y919177D01*
X799466D01*
X784466Y889177D02*
Y893241D01*
X788530D01*
Y889177D01*
X784466D01*
X799466Y799177D02*
Y803241D01*
X803530D01*
Y799177D01*
X799466D01*
X784466Y769177D02*
Y773241D01*
X788530D01*
Y769177D01*
X784466D01*
X769466Y919177D02*
Y923241D01*
X773530D01*
Y919177D01*
X769466D01*
X754466Y889177D02*
Y893241D01*
X758530D01*
Y889177D01*
X754466D01*
X769466Y799177D02*
Y803241D01*
X773530D01*
Y799177D01*
X769466D01*
X754466Y769177D02*
Y773241D01*
X758530D01*
Y769177D01*
X754466D01*
X739466Y919177D02*
Y923241D01*
X743530D01*
Y919177D01*
X739466D01*
X724466Y889177D02*
Y893241D01*
X728530D01*
Y889177D01*
X724466D01*
X739466Y799177D02*
Y803241D01*
X743530D01*
Y799177D01*
X739466D01*
X724466Y769177D02*
Y773241D01*
X728530D01*
Y769177D01*
X724466D01*
X709466Y919177D02*
Y923241D01*
X713530D01*
Y919177D01*
X709466D01*
X694466Y889177D02*
Y893241D01*
X698530D01*
Y889177D01*
X694466D01*
X709466Y799177D02*
Y803241D01*
X713530D01*
Y799177D01*
X709466D01*
X694466Y769177D02*
Y773241D01*
X698530D01*
Y769177D01*
X694466D01*
X679466Y919177D02*
Y923241D01*
X683530D01*
Y919177D01*
X679466D01*
X664466Y889177D02*
Y893241D01*
X668530D01*
Y889177D01*
X664466D01*
X679466Y799177D02*
Y803241D01*
X683530D01*
Y799177D01*
X679466D01*
X664466Y769177D02*
Y773241D01*
X668530D01*
Y769177D01*
X664466D01*
X649466Y919177D02*
Y923241D01*
X653530D01*
Y919177D01*
X649466D01*
X634466Y889177D02*
Y893241D01*
X638530D01*
Y889177D01*
X634466D01*
X649466Y799177D02*
Y803241D01*
X653530D01*
Y799177D01*
X649466D01*
X634466Y769177D02*
Y773241D01*
X638530D01*
Y769177D01*
X634466D01*
X619466Y919177D02*
Y923241D01*
X623530D01*
Y919177D01*
X619466D01*
X604466Y889177D02*
Y893241D01*
X608530D01*
Y889177D01*
X604466D01*
X619466Y799177D02*
Y803241D01*
X623530D01*
Y799177D01*
X619466D01*
X604466Y769177D02*
Y773241D01*
X608530D01*
Y769177D01*
X604466D01*
X589466Y919177D02*
Y923241D01*
X593530D01*
Y919177D01*
X589466D01*
X574466Y889177D02*
Y893241D01*
X578530D01*
Y889177D01*
X574466D01*
X589466Y799177D02*
Y803241D01*
X593530D01*
Y799177D01*
X589466D01*
X574466Y769177D02*
Y773241D01*
X578530D01*
Y769177D01*
X574466D01*
X559466Y919177D02*
Y923241D01*
X563530D01*
Y919177D01*
X559466D01*
X544466Y889177D02*
Y893241D01*
X548530D01*
Y889177D01*
X544466D01*
X559466Y799177D02*
Y803241D01*
X563530D01*
Y799177D01*
X559466D01*
X544466Y769177D02*
Y773241D01*
X548530D01*
Y769177D01*
X544466D01*
X529466Y919177D02*
Y923241D01*
X533530D01*
Y919177D01*
X529466D01*
X514466Y889177D02*
Y893241D01*
X518530D01*
Y889177D01*
X514466D01*
X529466Y799177D02*
Y803241D01*
X533530D01*
Y799177D01*
X529466D01*
X514466Y769177D02*
Y773241D01*
X518530D01*
Y769177D01*
X514466D01*
X499466Y919177D02*
Y923241D01*
X503530D01*
Y919177D01*
X499466D01*
X484466Y889177D02*
Y893241D01*
X488530D01*
Y889177D01*
X484466D01*
X499466Y799177D02*
Y803241D01*
X503530D01*
Y799177D01*
X499466D01*
X484466Y769177D02*
Y773241D01*
X488530D01*
Y769177D01*
X484466D01*
X469466Y919177D02*
Y923241D01*
X473530D01*
Y919177D01*
X469466D01*
X454466Y889177D02*
Y893241D01*
X458530D01*
Y889177D01*
X454466D01*
X469466Y799177D02*
Y803241D01*
X473530D01*
Y799177D01*
X469466D01*
X454466Y769177D02*
Y773241D01*
X458530D01*
Y769177D01*
X454466D01*
X439466Y919177D02*
Y923241D01*
X443530D01*
Y919177D01*
X439466D01*
X424466Y889177D02*
Y893241D01*
X428530D01*
Y889177D01*
X424466D01*
X439466Y799177D02*
Y803241D01*
X443530D01*
Y799177D01*
X439466D01*
X424466Y769177D02*
Y773241D01*
X428530D01*
Y769177D01*
X424466D01*
X409466Y919177D02*
Y923241D01*
X413530D01*
Y919177D01*
X409466D01*
X394466Y889177D02*
Y893241D01*
X398530D01*
Y889177D01*
X394466D01*
X409466Y799177D02*
Y803241D01*
X413530D01*
Y799177D01*
X409466D01*
X394466Y769177D02*
Y773241D01*
X398530D01*
Y769177D01*
X394466D01*
X379466Y919177D02*
Y923241D01*
X383530D01*
Y919177D01*
X379466D01*
X364466Y889177D02*
Y893241D01*
X368530D01*
Y889177D01*
X364466D01*
X379466Y799177D02*
Y803241D01*
X383530D01*
Y799177D01*
X379466D01*
X364466Y769177D02*
Y773241D01*
X368530D01*
Y769177D01*
X364466D01*
X349466Y919177D02*
Y923241D01*
X353530D01*
Y919177D01*
X349466D01*
X334466Y889177D02*
Y893241D01*
X338530D01*
Y889177D01*
X334466D01*
X349466Y799177D02*
Y803241D01*
X353530D01*
Y799177D01*
X349466D01*
X334466Y769177D02*
Y773241D01*
X338530D01*
Y769177D01*
X334466D01*
X319466Y919177D02*
Y923241D01*
X323530D01*
Y919177D01*
X319466D01*
X304466Y889177D02*
Y893241D01*
X308530D01*
Y889177D01*
X304466D01*
X319466Y799177D02*
Y803241D01*
X323530D01*
Y799177D01*
X319466D01*
X304466Y769177D02*
Y773241D01*
X308530D01*
Y769177D01*
X304466D01*
X289466Y919177D02*
Y923241D01*
X293530D01*
Y919177D01*
X289466D01*
X274466Y889177D02*
Y893241D01*
X278530D01*
Y889177D01*
X274466D01*
X289466Y799177D02*
Y803241D01*
X293530D01*
Y799177D01*
X289466D01*
X274466Y769177D02*
Y773241D01*
X278530D01*
Y769177D01*
X274466D01*
X259466Y919177D02*
Y923241D01*
X263530D01*
Y919177D01*
X259466D01*
X244466Y889177D02*
Y893241D01*
X248530D01*
Y889177D01*
X244466D01*
X259466Y799177D02*
Y803241D01*
X263530D01*
Y799177D01*
X259466D01*
X244466Y769177D02*
Y773241D01*
X248530D01*
Y769177D01*
X244466D01*
X229466Y919177D02*
Y923241D01*
X233530D01*
Y919177D01*
X229466D01*
X214466Y889177D02*
Y893241D01*
X218530D01*
Y889177D01*
X214466D01*
X229466Y799177D02*
Y803241D01*
X233530D01*
Y799177D01*
X229466D01*
X214466Y769177D02*
Y773241D01*
X218530D01*
Y769177D01*
X214466D01*
X199466Y919177D02*
Y923241D01*
X203530D01*
Y919177D01*
X199466D01*
X184466Y889177D02*
Y893241D01*
X188530D01*
Y889177D01*
X184466D01*
X199466Y799177D02*
Y803241D01*
X203530D01*
Y799177D01*
X199466D01*
X184466Y769177D02*
Y773241D01*
X188530D01*
Y769177D01*
X184466D01*
X169466Y919177D02*
Y923241D01*
X173530D01*
Y919177D01*
X169466D01*
X154466Y889177D02*
Y893241D01*
X158530D01*
Y889177D01*
X154466D01*
X169466Y799177D02*
Y803241D01*
X173530D01*
Y799177D01*
X169466D01*
X154466Y769177D02*
Y773241D01*
X158530D01*
Y769177D01*
X154466D01*
X139466Y919177D02*
Y923241D01*
X143530D01*
Y919177D01*
X139466D01*
X124466Y889177D02*
Y893241D01*
X128530D01*
Y889177D01*
X124466D01*
X139466Y799177D02*
Y803241D01*
X143530D01*
Y799177D01*
X139466D01*
X124466Y769177D02*
Y773241D01*
X128530D01*
Y769177D01*
X124466D01*
X109466Y919177D02*
Y923241D01*
X113530D01*
Y919177D01*
X109466D01*
X94466Y889177D02*
Y893241D01*
X98530D01*
Y889177D01*
X94466D01*
X109466Y799177D02*
Y803241D01*
X113530D01*
Y799177D01*
X109466D01*
X94466Y769177D02*
Y773241D01*
X98530D01*
Y769177D01*
X94466D01*
X79466Y919177D02*
Y923241D01*
X83530D01*
Y919177D01*
X79466D01*
X64466Y769177D02*
Y773241D01*
X68530D01*
Y769177D01*
X64466D01*
X34466D02*
Y773241D01*
X38530D01*
Y769177D01*
X34466D01*
X1033401Y862216D02*
Y866280D01*
X1037465D01*
Y862216D01*
X1033401D01*
X1018401D02*
Y866280D01*
X1022465D01*
Y862216D01*
X1018401D01*
X1003401D02*
Y866280D01*
X1007465D01*
Y862216D01*
X1003401D01*
X988401D02*
Y866280D01*
X992466D01*
Y862216D01*
X988401D01*
X959640Y859062D02*
Y863126D01*
X963704D01*
Y859062D01*
X959640D01*
X980849Y830425D02*
Y834490D01*
X984913D01*
Y830425D01*
X980849D01*
X1008927Y833718D02*
Y837783D01*
X1012991D01*
Y833718D01*
X1008927D01*
X1023927D02*
Y837783D01*
X1027991D01*
Y833718D01*
X1023927D01*
X950184Y862824D02*
Y866888D01*
X954248D01*
Y862824D01*
X950184D01*
X935186Y863058D02*
Y867122D01*
X939250D01*
Y863058D01*
X935186D01*
X933892Y828437D02*
Y832501D01*
X937956D01*
Y828437D01*
X933892D01*
X963325Y831355D02*
Y835419D01*
X967389D01*
Y831355D01*
X963325D01*
X969131Y864133D02*
Y868197D01*
X973195D01*
Y864133D01*
X969131D01*
X60413Y833719D02*
Y837783D01*
X64477D01*
Y833719D01*
X60413D01*
X75413D02*
Y837783D01*
X79477D01*
Y833719D01*
X75413D01*
X90413D02*
Y837783D01*
X94477D01*
Y833719D01*
X90413D01*
X105413D02*
Y837783D01*
X109477D01*
Y833719D01*
X105413D01*
X120413D02*
Y837783D01*
X124477D01*
Y833719D01*
X120413D01*
X135413D02*
Y837783D01*
X139477D01*
Y833719D01*
X135413D01*
X150413D02*
Y837783D01*
X154477D01*
Y833719D01*
X150413D01*
X165413D02*
Y837783D01*
X169477D01*
Y833719D01*
X165413D01*
X180413D02*
Y837783D01*
X184477D01*
Y833719D01*
X180413D01*
X195413D02*
Y837783D01*
X199477D01*
Y833719D01*
X195413D01*
X210413D02*
Y837783D01*
X214477D01*
Y833719D01*
X210413D01*
X225413D02*
Y837783D01*
X229477D01*
Y833719D01*
X225413D01*
X240413D02*
Y837783D01*
X244477D01*
Y833719D01*
X240413D01*
X255413D02*
Y837783D01*
X259477D01*
Y833719D01*
X255413D01*
X270413D02*
Y837783D01*
X274477D01*
Y833719D01*
X270413D01*
X285413D02*
Y837783D01*
X289477D01*
Y833719D01*
X285413D01*
X300413D02*
Y837783D01*
X304477D01*
Y833719D01*
X300413D01*
X315413D02*
Y837783D01*
X319477D01*
Y833719D01*
X315413D01*
X330413D02*
Y837783D01*
X334477D01*
Y833719D01*
X330413D01*
X345413D02*
Y837783D01*
X349477D01*
Y833719D01*
X345413D01*
X360413D02*
Y837783D01*
X364477D01*
Y833719D01*
X360413D01*
X375413D02*
Y837783D01*
X379477D01*
Y833719D01*
X375413D01*
X390413D02*
Y837783D01*
X394477D01*
Y833719D01*
X390413D01*
X405413D02*
Y837783D01*
X409477D01*
Y833719D01*
X405413D01*
X420413D02*
Y837783D01*
X424477D01*
Y833719D01*
X420413D01*
X435413D02*
Y837783D01*
X439477D01*
Y833719D01*
X435413D01*
X450413D02*
Y837783D01*
X454477D01*
Y833719D01*
X450413D01*
X465413D02*
Y837783D01*
X469477D01*
Y833719D01*
X465413D01*
X480413D02*
Y837783D01*
X484477D01*
Y833719D01*
X480413D01*
X495413D02*
Y837783D01*
X499477D01*
Y833719D01*
X495413D01*
X510413D02*
Y837783D01*
X514477D01*
Y833719D01*
X510413D01*
X525413D02*
Y837783D01*
X529477D01*
Y833719D01*
X525413D01*
X540413D02*
Y837783D01*
X544477D01*
Y833719D01*
X540413D01*
X555413D02*
Y837783D01*
X559477D01*
Y833719D01*
X555413D01*
X570413D02*
Y837783D01*
X574477D01*
Y833719D01*
X570413D01*
X585413D02*
Y837783D01*
X589477D01*
Y833719D01*
X585413D01*
X600413D02*
Y837783D01*
X604477D01*
Y833719D01*
X600413D01*
X615413D02*
Y837783D01*
X619477D01*
Y833719D01*
X615413D01*
X630413D02*
Y837783D01*
X634477D01*
Y833719D01*
X630413D01*
X645413D02*
Y837783D01*
X649477D01*
Y833719D01*
X645413D01*
X660413D02*
Y837783D01*
X664476D01*
Y833719D01*
X660413D01*
X675413D02*
Y837783D01*
X679476D01*
Y833719D01*
X675413D01*
X690413D02*
Y837783D01*
X694476D01*
Y833719D01*
X690413D01*
X705413D02*
Y837783D01*
X709476D01*
Y833719D01*
X705413D01*
X720413D02*
Y837783D01*
X724476D01*
Y833719D01*
X720413D01*
X735413D02*
Y837783D01*
X739476D01*
Y833719D01*
X735413D01*
X750413D02*
Y837783D01*
X754476D01*
Y833719D01*
X750413D01*
X765413D02*
Y837783D01*
X769476D01*
Y833719D01*
X765413D01*
X780413D02*
Y837783D01*
X784476D01*
Y833719D01*
X780413D01*
X795413D02*
Y837783D01*
X799476D01*
Y833719D01*
X795413D01*
X810413D02*
Y837783D01*
X814476D01*
Y833719D01*
X810413D01*
X825413D02*
Y837783D01*
X829476D01*
Y833719D01*
X825413D01*
X840413D02*
Y837783D01*
X844476D01*
Y833719D01*
X840413D01*
X855413D02*
Y837783D01*
X859476D01*
Y833719D01*
X855413D01*
X870413D02*
Y837783D01*
X874476D01*
Y833719D01*
X870413D01*
X885413D02*
Y837783D01*
X889476D01*
Y833719D01*
X885413D01*
X900396Y833023D02*
Y837086D01*
X904460D01*
Y833023D01*
X900396D01*
X915303Y831355D02*
Y835419D01*
X919367D01*
Y831355D01*
X915303D01*
X917059Y864405D02*
Y868469D01*
X921123D01*
Y864405D01*
X917059D01*
X902080Y863609D02*
Y867673D01*
X906144D01*
Y863609D01*
X902080D01*
X887145Y862217D02*
Y866281D01*
X891209D01*
Y862217D01*
X887145D01*
X872145D02*
Y866281D01*
X876209D01*
Y862217D01*
X872145D01*
X857145D02*
Y866281D01*
X861209D01*
Y862217D01*
X857145D01*
X842145D02*
Y866281D01*
X846209D01*
Y862217D01*
X842145D01*
X827145D02*
Y866281D01*
X831209D01*
Y862217D01*
X827145D01*
X812145D02*
Y866281D01*
X816209D01*
Y862217D01*
X812145D01*
X797145D02*
Y866281D01*
X801209D01*
Y862217D01*
X797145D01*
X782145D02*
Y866281D01*
X786209D01*
Y862217D01*
X782145D01*
X767145D02*
Y866281D01*
X771209D01*
Y862217D01*
X767145D01*
X752145D02*
Y866281D01*
X756209D01*
Y862217D01*
X752145D01*
X737145D02*
Y866281D01*
X741209D01*
Y862217D01*
X737145D01*
X722145D02*
Y866281D01*
X726209D01*
Y862217D01*
X722145D01*
X707145D02*
Y866281D01*
X711209D01*
Y862217D01*
X707145D01*
X692145D02*
Y866281D01*
X696209D01*
Y862217D01*
X692145D01*
X677145D02*
Y866281D01*
X681209D01*
Y862217D01*
X677145D01*
X662145D02*
Y866281D01*
X666209D01*
Y862217D01*
X662145D01*
X647145D02*
Y866281D01*
X651209D01*
Y862217D01*
X647145D01*
X632145D02*
Y866281D01*
X636209D01*
Y862217D01*
X632145D01*
X617145D02*
Y866281D01*
X621209D01*
Y862217D01*
X617145D01*
X602145D02*
Y866281D01*
X606209D01*
Y862217D01*
X602145D01*
X587145D02*
Y866281D01*
X591209D01*
Y862217D01*
X587145D01*
X572145D02*
Y866281D01*
X576209D01*
Y862217D01*
X572145D01*
X557145D02*
Y866281D01*
X561209D01*
Y862217D01*
X557145D01*
X542145D02*
Y866281D01*
X546209D01*
Y862217D01*
X542145D01*
X527145D02*
Y866281D01*
X531209D01*
Y862217D01*
X527145D01*
X512145D02*
Y866281D01*
X516209D01*
Y862217D01*
X512145D01*
X497145D02*
Y866281D01*
X501209D01*
Y862217D01*
X497145D01*
X482145D02*
Y866281D01*
X486209D01*
Y862217D01*
X482145D01*
X467145D02*
Y866281D01*
X471209D01*
Y862217D01*
X467145D01*
X452145D02*
Y866281D01*
X456209D01*
Y862217D01*
X452145D01*
X437145D02*
Y866281D01*
X441209D01*
Y862217D01*
X437145D01*
X422145D02*
Y866281D01*
X426209D01*
Y862217D01*
X422145D01*
X407145D02*
Y866281D01*
X411209D01*
Y862217D01*
X407145D01*
X392145D02*
Y866281D01*
X396209D01*
Y862217D01*
X392145D01*
X377145D02*
Y866281D01*
X381209D01*
Y862217D01*
X377145D01*
X362145D02*
Y866281D01*
X366209D01*
Y862217D01*
X362145D01*
X347145D02*
Y866281D01*
X351209D01*
Y862217D01*
X347145D01*
X332145D02*
Y866281D01*
X336209D01*
Y862217D01*
X332145D01*
X317145D02*
Y866281D01*
X321209D01*
Y862217D01*
X317145D01*
X302145D02*
Y866281D01*
X306209D01*
Y862217D01*
X302145D01*
X287145D02*
Y866281D01*
X291209D01*
Y862217D01*
X287145D01*
X272145D02*
Y866281D01*
X276209D01*
Y862217D01*
X272145D01*
X257145D02*
Y866281D01*
X261209D01*
Y862217D01*
X257145D01*
X242145D02*
Y866281D01*
X246209D01*
Y862217D01*
X242145D01*
X227145D02*
Y866281D01*
X231209D01*
Y862217D01*
X227145D01*
X212145D02*
Y866281D01*
X216209D01*
Y862217D01*
X212145D01*
X197145D02*
Y866281D01*
X201209D01*
Y862217D01*
X197145D01*
X182145D02*
Y866281D01*
X186209D01*
Y862217D01*
X182145D01*
X167145D02*
Y866281D01*
X171209D01*
Y862217D01*
X167145D01*
X152145D02*
Y866281D01*
X156209D01*
Y862217D01*
X152145D01*
X137145D02*
Y866281D01*
X141209D01*
Y862217D01*
X137145D01*
X122145D02*
Y866281D01*
X126209D01*
Y862217D01*
X122145D01*
X107145D02*
Y866281D01*
X111209D01*
Y862217D01*
X107145D01*
X92145D02*
Y866281D01*
X96209D01*
Y862217D01*
X92145D01*
X77145D02*
Y866281D01*
X81209D01*
Y862217D01*
X77145D01*
X62145D02*
Y866281D01*
X66209D01*
Y862217D01*
X62145D01*
X1009466Y1759177D02*
Y1763241D01*
X1013530D01*
Y1759177D01*
X1009466D01*
X994466Y1729177D02*
Y1733241D01*
X998530D01*
Y1729177D01*
X994466D01*
Y1669177D02*
Y1673241D01*
X998530D01*
Y1669177D01*
X994466D01*
X1009466Y1639177D02*
Y1643241D01*
X1013530D01*
Y1639177D01*
X1009466D01*
X994466Y1609177D02*
Y1613241D01*
X998530D01*
Y1609177D01*
X994466D01*
X979466Y1759177D02*
Y1763241D01*
X983530D01*
Y1759177D01*
X979466D01*
X964466Y1729177D02*
Y1733241D01*
X968530D01*
Y1729177D01*
X964466D01*
Y1669177D02*
Y1673241D01*
X968530D01*
Y1669177D01*
X964466D01*
X979466Y1639177D02*
Y1643241D01*
X983530D01*
Y1639177D01*
X979466D01*
X964466Y1609177D02*
Y1613241D01*
X968530D01*
Y1609177D01*
X964466D01*
X949466Y1759177D02*
Y1763241D01*
X953530D01*
Y1759177D01*
X949466D01*
X934466Y1729177D02*
Y1733241D01*
X938530D01*
Y1729177D01*
X934466D01*
Y1669177D02*
Y1673241D01*
X938530D01*
Y1669177D01*
X934466D01*
X949466Y1639177D02*
Y1643241D01*
X953530D01*
Y1639177D01*
X949466D01*
X934466Y1609177D02*
Y1613241D01*
X938530D01*
Y1609177D01*
X934466D01*
X919466Y1759177D02*
Y1763241D01*
X923530D01*
Y1759177D01*
X919466D01*
X904466Y1729177D02*
Y1733241D01*
X908530D01*
Y1729177D01*
X904466D01*
Y1669177D02*
Y1673241D01*
X908530D01*
Y1669177D01*
X904466D01*
X919466Y1639177D02*
Y1643241D01*
X923530D01*
Y1639177D01*
X919466D01*
X904466Y1609177D02*
Y1613241D01*
X908530D01*
Y1609177D01*
X904466D01*
X889466Y1759177D02*
Y1763241D01*
X893530D01*
Y1759177D01*
X889466D01*
X874466Y1729177D02*
Y1733241D01*
X878530D01*
Y1729177D01*
X874466D01*
Y1669177D02*
Y1673241D01*
X878530D01*
Y1669177D01*
X874466D01*
X889466Y1639177D02*
Y1643241D01*
X893530D01*
Y1639177D01*
X889466D01*
X874466Y1609177D02*
Y1613241D01*
X878530D01*
Y1609177D01*
X874466D01*
X859466Y1759177D02*
Y1763241D01*
X863530D01*
Y1759177D01*
X859466D01*
X844466Y1729177D02*
Y1733241D01*
X848530D01*
Y1729177D01*
X844466D01*
Y1669177D02*
Y1673241D01*
X848530D01*
Y1669177D01*
X844466D01*
X859466Y1639177D02*
Y1643241D01*
X863530D01*
Y1639177D01*
X859466D01*
X844466Y1609177D02*
Y1613241D01*
X848530D01*
Y1609177D01*
X844466D01*
X829466Y1759177D02*
Y1763241D01*
X833530D01*
Y1759177D01*
X829466D01*
X814466Y1729177D02*
Y1733241D01*
X818530D01*
Y1729177D01*
X814466D01*
Y1669177D02*
Y1673241D01*
X818530D01*
Y1669177D01*
X814466D01*
X829466Y1639177D02*
Y1643241D01*
X833530D01*
Y1639177D01*
X829466D01*
X814466Y1609177D02*
Y1613241D01*
X818530D01*
Y1609177D01*
X814466D01*
X799466Y1759177D02*
Y1763241D01*
X803530D01*
Y1759177D01*
X799466D01*
X784466Y1729177D02*
Y1733241D01*
X788530D01*
Y1729177D01*
X784466D01*
Y1669177D02*
Y1673241D01*
X788530D01*
Y1669177D01*
X784466D01*
X799466Y1639177D02*
Y1643241D01*
X803530D01*
Y1639177D01*
X799466D01*
X784466Y1609177D02*
Y1613241D01*
X788530D01*
Y1609177D01*
X784466D01*
X769466Y1759177D02*
Y1763241D01*
X773530D01*
Y1759177D01*
X769466D01*
X754466Y1729177D02*
Y1733241D01*
X758530D01*
Y1729177D01*
X754466D01*
Y1669177D02*
Y1673241D01*
X758530D01*
Y1669177D01*
X754466D01*
X769466Y1639177D02*
Y1643241D01*
X773530D01*
Y1639177D01*
X769466D01*
X754466Y1609177D02*
Y1613241D01*
X758530D01*
Y1609177D01*
X754466D01*
X739466Y1759177D02*
Y1763241D01*
X743530D01*
Y1759177D01*
X739466D01*
X724466Y1729177D02*
Y1733241D01*
X728530D01*
Y1729177D01*
X724466D01*
Y1669177D02*
Y1673241D01*
X728530D01*
Y1669177D01*
X724466D01*
X739466Y1639177D02*
Y1643241D01*
X743530D01*
Y1639177D01*
X739466D01*
X724466Y1609177D02*
Y1613241D01*
X728530D01*
Y1609177D01*
X724466D01*
X709466Y1759177D02*
Y1763241D01*
X713530D01*
Y1759177D01*
X709466D01*
X694466Y1729177D02*
Y1733241D01*
X698530D01*
Y1729177D01*
X694466D01*
Y1669177D02*
Y1673241D01*
X698530D01*
Y1669177D01*
X694466D01*
X709466Y1639177D02*
Y1643241D01*
X713530D01*
Y1639177D01*
X709466D01*
X694466Y1609177D02*
Y1613241D01*
X698530D01*
Y1609177D01*
X694466D01*
X679466Y1759177D02*
Y1763241D01*
X683530D01*
Y1759177D01*
X679466D01*
X664466Y1729177D02*
Y1733241D01*
X668530D01*
Y1729177D01*
X664466D01*
Y1669177D02*
Y1673241D01*
X668530D01*
Y1669177D01*
X664466D01*
X679466Y1639177D02*
Y1643241D01*
X683530D01*
Y1639177D01*
X679466D01*
X664466Y1609177D02*
Y1613241D01*
X668530D01*
Y1609177D01*
X664466D01*
X649466Y1759177D02*
Y1763241D01*
X653530D01*
Y1759177D01*
X649466D01*
X634466Y1729177D02*
Y1733241D01*
X638530D01*
Y1729177D01*
X634466D01*
Y1669177D02*
Y1673241D01*
X638530D01*
Y1669177D01*
X634466D01*
X649466Y1639177D02*
Y1643241D01*
X653530D01*
Y1639177D01*
X649466D01*
X634466Y1609177D02*
Y1613241D01*
X638530D01*
Y1609177D01*
X634466D01*
X619466Y1759177D02*
Y1763241D01*
X623530D01*
Y1759177D01*
X619466D01*
X604466Y1729177D02*
Y1733241D01*
X608530D01*
Y1729177D01*
X604466D01*
Y1669177D02*
Y1673241D01*
X608530D01*
Y1669177D01*
X604466D01*
X619466Y1639177D02*
Y1643241D01*
X623530D01*
Y1639177D01*
X619466D01*
X604466Y1609177D02*
Y1613241D01*
X608530D01*
Y1609177D01*
X604466D01*
X589466Y1759177D02*
Y1763241D01*
X593530D01*
Y1759177D01*
X589466D01*
X574466Y1729177D02*
Y1733241D01*
X578530D01*
Y1729177D01*
X574466D01*
Y1669177D02*
Y1673241D01*
X578530D01*
Y1669177D01*
X574466D01*
X589466Y1639177D02*
Y1643241D01*
X593530D01*
Y1639177D01*
X589466D01*
X574466Y1609177D02*
Y1613241D01*
X578530D01*
Y1609177D01*
X574466D01*
X559466Y1759177D02*
Y1763241D01*
X563530D01*
Y1759177D01*
X559466D01*
X544466Y1729177D02*
Y1733241D01*
X548530D01*
Y1729177D01*
X544466D01*
Y1669177D02*
Y1673241D01*
X548530D01*
Y1669177D01*
X544466D01*
X559466Y1639177D02*
Y1643241D01*
X563530D01*
Y1639177D01*
X559466D01*
X544466Y1609177D02*
Y1613241D01*
X548530D01*
Y1609177D01*
X544466D01*
X529466Y1759177D02*
Y1763241D01*
X533530D01*
Y1759177D01*
X529466D01*
X514466Y1729177D02*
Y1733241D01*
X518530D01*
Y1729177D01*
X514466D01*
Y1669177D02*
Y1673241D01*
X518530D01*
Y1669177D01*
X514466D01*
X529466Y1639177D02*
Y1643241D01*
X533530D01*
Y1639177D01*
X529466D01*
X514466Y1609177D02*
Y1613241D01*
X518530D01*
Y1609177D01*
X514466D01*
X499466Y1759177D02*
Y1763241D01*
X503530D01*
Y1759177D01*
X499466D01*
X484466Y1729177D02*
Y1733241D01*
X488530D01*
Y1729177D01*
X484466D01*
Y1669177D02*
Y1673241D01*
X488530D01*
Y1669177D01*
X484466D01*
X499466Y1639177D02*
Y1643241D01*
X503530D01*
Y1639177D01*
X499466D01*
X484466Y1609177D02*
Y1613241D01*
X488530D01*
Y1609177D01*
X484466D01*
X469466Y1759177D02*
Y1763241D01*
X473530D01*
Y1759177D01*
X469466D01*
X454466Y1729177D02*
Y1733241D01*
X458530D01*
Y1729177D01*
X454466D01*
Y1669177D02*
Y1673241D01*
X458530D01*
Y1669177D01*
X454466D01*
X469466Y1639177D02*
Y1643241D01*
X473530D01*
Y1639177D01*
X469466D01*
X454466Y1609177D02*
Y1613241D01*
X458530D01*
Y1609177D01*
X454466D01*
X439466Y1759177D02*
Y1763241D01*
X443530D01*
Y1759177D01*
X439466D01*
X424466Y1729177D02*
Y1733241D01*
X428530D01*
Y1729177D01*
X424466D01*
Y1669177D02*
Y1673241D01*
X428530D01*
Y1669177D01*
X424466D01*
X439466Y1639177D02*
Y1643241D01*
X443530D01*
Y1639177D01*
X439466D01*
X424466Y1609177D02*
Y1613241D01*
X428530D01*
Y1609177D01*
X424466D01*
X409466Y1759177D02*
Y1763241D01*
X413530D01*
Y1759177D01*
X409466D01*
X394466Y1729177D02*
Y1733241D01*
X398530D01*
Y1729177D01*
X394466D01*
Y1669177D02*
Y1673241D01*
X398530D01*
Y1669177D01*
X394466D01*
X409466Y1639177D02*
Y1643241D01*
X413530D01*
Y1639177D01*
X409466D01*
X394466Y1609177D02*
Y1613241D01*
X398530D01*
Y1609177D01*
X394466D01*
X379466Y1759177D02*
Y1763241D01*
X383530D01*
Y1759177D01*
X379466D01*
X364466Y1729177D02*
Y1733241D01*
X368530D01*
Y1729177D01*
X364466D01*
Y1669177D02*
Y1673241D01*
X368530D01*
Y1669177D01*
X364466D01*
X379466Y1639177D02*
Y1643241D01*
X383530D01*
Y1639177D01*
X379466D01*
X364466Y1609177D02*
Y1613241D01*
X368530D01*
Y1609177D01*
X364466D01*
X349466Y1759177D02*
Y1763241D01*
X353530D01*
Y1759177D01*
X349466D01*
X334466Y1729177D02*
Y1733241D01*
X338530D01*
Y1729177D01*
X334466D01*
Y1669177D02*
Y1673241D01*
X338530D01*
Y1669177D01*
X334466D01*
X349466Y1639177D02*
Y1643241D01*
X353530D01*
Y1639177D01*
X349466D01*
X334466Y1609177D02*
Y1613241D01*
X338530D01*
Y1609177D01*
X334466D01*
X319466Y1759177D02*
Y1763241D01*
X323530D01*
Y1759177D01*
X319466D01*
X304466Y1729177D02*
Y1733241D01*
X308530D01*
Y1729177D01*
X304466D01*
Y1669177D02*
Y1673241D01*
X308530D01*
Y1669177D01*
X304466D01*
X319466Y1639177D02*
Y1643241D01*
X323530D01*
Y1639177D01*
X319466D01*
X304466Y1609177D02*
Y1613241D01*
X308530D01*
Y1609177D01*
X304466D01*
X289466Y1759177D02*
Y1763241D01*
X293530D01*
Y1759177D01*
X289466D01*
X274466Y1729177D02*
Y1733241D01*
X278530D01*
Y1729177D01*
X274466D01*
Y1669177D02*
Y1673241D01*
X278530D01*
Y1669177D01*
X274466D01*
X289466Y1639177D02*
Y1643241D01*
X293530D01*
Y1639177D01*
X289466D01*
X274466Y1609177D02*
Y1613241D01*
X278530D01*
Y1609177D01*
X274466D01*
X259466Y1759177D02*
Y1763241D01*
X263530D01*
Y1759177D01*
X259466D01*
X244466Y1729177D02*
Y1733241D01*
X248530D01*
Y1729177D01*
X244466D01*
Y1669177D02*
Y1673241D01*
X248530D01*
Y1669177D01*
X244466D01*
X259466Y1639177D02*
Y1643241D01*
X263530D01*
Y1639177D01*
X259466D01*
X244466Y1609177D02*
Y1613241D01*
X248530D01*
Y1609177D01*
X244466D01*
X229466Y1759177D02*
Y1763241D01*
X233530D01*
Y1759177D01*
X229466D01*
X214466Y1729177D02*
Y1733241D01*
X218530D01*
Y1729177D01*
X214466D01*
Y1669177D02*
Y1673241D01*
X218530D01*
Y1669177D01*
X214466D01*
X229466Y1639177D02*
Y1643241D01*
X233530D01*
Y1639177D01*
X229466D01*
X214466Y1609177D02*
Y1613241D01*
X218530D01*
Y1609177D01*
X214466D01*
X199466Y1759177D02*
Y1763241D01*
X203530D01*
Y1759177D01*
X199466D01*
X184466Y1729177D02*
Y1733241D01*
X188530D01*
Y1729177D01*
X184466D01*
Y1669177D02*
Y1673241D01*
X188530D01*
Y1669177D01*
X184466D01*
X199466Y1639177D02*
Y1643241D01*
X203530D01*
Y1639177D01*
X199466D01*
X184466Y1609177D02*
Y1613241D01*
X188530D01*
Y1609177D01*
X184466D01*
X169466Y1759177D02*
Y1763241D01*
X173530D01*
Y1759177D01*
X169466D01*
X154466Y1729177D02*
Y1733241D01*
X158530D01*
Y1729177D01*
X154466D01*
Y1669177D02*
Y1673241D01*
X158530D01*
Y1669177D01*
X154466D01*
X169466Y1639177D02*
Y1643241D01*
X173530D01*
Y1639177D01*
X169466D01*
X154466Y1609177D02*
Y1613241D01*
X158530D01*
Y1609177D01*
X154466D01*
X139466Y1759177D02*
Y1763241D01*
X143530D01*
Y1759177D01*
X139466D01*
X124466Y1729177D02*
Y1733241D01*
X128530D01*
Y1729177D01*
X124466D01*
Y1669177D02*
Y1673241D01*
X128530D01*
Y1669177D01*
X124466D01*
X139466Y1639177D02*
Y1643241D01*
X143530D01*
Y1639177D01*
X139466D01*
X124466Y1609177D02*
Y1613241D01*
X128530D01*
Y1609177D01*
X124466D01*
X109466Y1759177D02*
Y1763241D01*
X113530D01*
Y1759177D01*
X109466D01*
Y1639177D02*
Y1643241D01*
X113530D01*
Y1639177D01*
X109466D01*
X94466Y1609177D02*
Y1613241D01*
X98530D01*
Y1609177D01*
X94466D01*
X1054466Y559177D02*
Y563241D01*
X1058530D01*
Y559177D01*
X1054466D01*
X1024466D02*
Y563241D01*
X1028530D01*
Y559177D01*
X1024466D01*
X1009466Y709177D02*
Y713241D01*
X1013530D01*
Y709177D01*
X1009466D01*
X994466Y679177D02*
Y683241D01*
X998530D01*
Y679177D01*
X994466D01*
X1009466Y589177D02*
Y593241D01*
X1013530D01*
Y589177D01*
X1009466D01*
X994466Y559177D02*
Y563241D01*
X998530D01*
Y559177D01*
X994466D01*
X979466Y709177D02*
Y713241D01*
X983530D01*
Y709177D01*
X979466D01*
Y589177D02*
Y593241D01*
X983530D01*
Y589177D01*
X979466D01*
X964466Y559177D02*
Y563241D01*
X968530D01*
Y559177D01*
X964466D01*
X949466Y709177D02*
Y713241D01*
X953530D01*
Y709177D01*
X949466D01*
X934466Y679177D02*
Y683241D01*
X938530D01*
Y679177D01*
X934466D01*
X949466Y589177D02*
Y593241D01*
X953530D01*
Y589177D01*
X949466D01*
X934466Y559177D02*
Y563241D01*
X938530D01*
Y559177D01*
X934466D01*
X919466Y709177D02*
Y713241D01*
X923530D01*
Y709177D01*
X919466D01*
Y589177D02*
Y593241D01*
X923530D01*
Y589177D01*
X919466D01*
X904466Y559177D02*
Y563241D01*
X908530D01*
Y559177D01*
X904466D01*
X889466Y709177D02*
Y713241D01*
X893530D01*
Y709177D01*
X889466D01*
X874466Y679177D02*
Y683241D01*
X878530D01*
Y679177D01*
X874466D01*
X889466Y589177D02*
Y593241D01*
X893530D01*
Y589177D01*
X889466D01*
X874466Y559177D02*
Y563241D01*
X878530D01*
Y559177D01*
X874466D01*
X859466Y709177D02*
Y713241D01*
X863530D01*
Y709177D01*
X859466D01*
X844466Y679177D02*
Y683241D01*
X848530D01*
Y679177D01*
X844466D01*
X859466Y589177D02*
Y593241D01*
X863530D01*
Y589177D01*
X859466D01*
X844466Y559177D02*
Y563241D01*
X848530D01*
Y559177D01*
X844466D01*
X829466Y709177D02*
Y713241D01*
X833530D01*
Y709177D01*
X829466D01*
X814466Y679177D02*
Y683241D01*
X818530D01*
Y679177D01*
X814466D01*
X829466Y589177D02*
Y593241D01*
X833530D01*
Y589177D01*
X829466D01*
X814466Y559177D02*
Y563241D01*
X818530D01*
Y559177D01*
X814466D01*
X799466Y709177D02*
Y713241D01*
X803530D01*
Y709177D01*
X799466D01*
X784466Y679177D02*
Y683241D01*
X788530D01*
Y679177D01*
X784466D01*
X799466Y589177D02*
Y593241D01*
X803530D01*
Y589177D01*
X799466D01*
X784466Y559177D02*
Y563241D01*
X788530D01*
Y559177D01*
X784466D01*
X769466Y709177D02*
Y713241D01*
X773530D01*
Y709177D01*
X769466D01*
X754466Y679177D02*
Y683241D01*
X758530D01*
Y679177D01*
X754466D01*
X769466Y589177D02*
Y593241D01*
X773530D01*
Y589177D01*
X769466D01*
X754466Y559177D02*
Y563241D01*
X758530D01*
Y559177D01*
X754466D01*
X739466Y709177D02*
Y713241D01*
X743530D01*
Y709177D01*
X739466D01*
X724466Y679177D02*
Y683241D01*
X728530D01*
Y679177D01*
X724466D01*
X739466Y589177D02*
Y593241D01*
X743530D01*
Y589177D01*
X739466D01*
X724466Y559177D02*
Y563241D01*
X728530D01*
Y559177D01*
X724466D01*
X709466Y709177D02*
Y713241D01*
X713530D01*
Y709177D01*
X709466D01*
X694466Y679177D02*
Y683241D01*
X698530D01*
Y679177D01*
X694466D01*
X709466Y589177D02*
Y593241D01*
X713530D01*
Y589177D01*
X709466D01*
X694466Y559177D02*
Y563241D01*
X698530D01*
Y559177D01*
X694466D01*
X679466Y709177D02*
Y713241D01*
X683530D01*
Y709177D01*
X679466D01*
X664466Y679177D02*
Y683241D01*
X668530D01*
Y679177D01*
X664466D01*
X679466Y589177D02*
Y593241D01*
X683530D01*
Y589177D01*
X679466D01*
X664466Y559177D02*
Y563241D01*
X668530D01*
Y559177D01*
X664466D01*
X649466Y709177D02*
Y713241D01*
X653530D01*
Y709177D01*
X649466D01*
X634466Y679177D02*
Y683241D01*
X638530D01*
Y679177D01*
X634466D01*
X649466Y589177D02*
Y593241D01*
X653530D01*
Y589177D01*
X649466D01*
X634466Y559177D02*
Y563241D01*
X638530D01*
Y559177D01*
X634466D01*
X619466Y709177D02*
Y713241D01*
X623530D01*
Y709177D01*
X619466D01*
X604466Y679177D02*
Y683241D01*
X608530D01*
Y679177D01*
X604466D01*
X619466Y589177D02*
Y593241D01*
X623530D01*
Y589177D01*
X619466D01*
X604466Y559177D02*
Y563241D01*
X608530D01*
Y559177D01*
X604466D01*
X589466Y709177D02*
Y713241D01*
X593530D01*
Y709177D01*
X589466D01*
X574466Y679177D02*
Y683241D01*
X578530D01*
Y679177D01*
X574466D01*
X589466Y589177D02*
Y593241D01*
X593530D01*
Y589177D01*
X589466D01*
X574466Y559177D02*
Y563241D01*
X578530D01*
Y559177D01*
X574466D01*
X559466Y709177D02*
Y713241D01*
X563530D01*
Y709177D01*
X559466D01*
X544466Y679177D02*
Y683241D01*
X548530D01*
Y679177D01*
X544466D01*
X559466Y589177D02*
Y593241D01*
X563530D01*
Y589177D01*
X559466D01*
X544466Y559177D02*
Y563241D01*
X548530D01*
Y559177D01*
X544466D01*
X529466Y709177D02*
Y713241D01*
X533530D01*
Y709177D01*
X529466D01*
X514466Y679177D02*
Y683241D01*
X518530D01*
Y679177D01*
X514466D01*
X529466Y589177D02*
Y593241D01*
X533530D01*
Y589177D01*
X529466D01*
X514466Y559177D02*
Y563241D01*
X518530D01*
Y559177D01*
X514466D01*
X499466Y709177D02*
Y713241D01*
X503530D01*
Y709177D01*
X499466D01*
X484466Y679177D02*
Y683241D01*
X488530D01*
Y679177D01*
X484466D01*
X499466Y589177D02*
Y593241D01*
X503530D01*
Y589177D01*
X499466D01*
X484466Y559177D02*
Y563241D01*
X488530D01*
Y559177D01*
X484466D01*
X469466Y709177D02*
Y713241D01*
X473530D01*
Y709177D01*
X469466D01*
X454466Y679177D02*
Y683241D01*
X458530D01*
Y679177D01*
X454466D01*
X469466Y589177D02*
Y593241D01*
X473530D01*
Y589177D01*
X469466D01*
X454466Y559177D02*
Y563241D01*
X458530D01*
Y559177D01*
X454466D01*
X439466Y709177D02*
Y713241D01*
X443530D01*
Y709177D01*
X439466D01*
X424466Y679177D02*
Y683241D01*
X428530D01*
Y679177D01*
X424466D01*
X439466Y589177D02*
Y593241D01*
X443530D01*
Y589177D01*
X439466D01*
X424466Y559177D02*
Y563241D01*
X428530D01*
Y559177D01*
X424466D01*
X409466Y709177D02*
Y713241D01*
X413530D01*
Y709177D01*
X409466D01*
X394466Y679177D02*
Y683241D01*
X398530D01*
Y679177D01*
X394466D01*
X409466Y589177D02*
Y593241D01*
X413530D01*
Y589177D01*
X409466D01*
X394466Y559177D02*
Y563241D01*
X398530D01*
Y559177D01*
X394466D01*
X379466Y709177D02*
Y713241D01*
X383530D01*
Y709177D01*
X379466D01*
X364466Y679177D02*
Y683241D01*
X368530D01*
Y679177D01*
X364466D01*
X379466Y589177D02*
Y593241D01*
X383530D01*
Y589177D01*
X379466D01*
X364466Y559177D02*
Y563241D01*
X368530D01*
Y559177D01*
X364466D01*
X349466Y709177D02*
Y713241D01*
X353530D01*
Y709177D01*
X349466D01*
X334466Y679177D02*
Y683241D01*
X338530D01*
Y679177D01*
X334466D01*
X349466Y589177D02*
Y593241D01*
X353530D01*
Y589177D01*
X349466D01*
X334466Y559177D02*
Y563241D01*
X338530D01*
Y559177D01*
X334466D01*
X319466Y709177D02*
Y713241D01*
X323530D01*
Y709177D01*
X319466D01*
X304466Y679177D02*
Y683241D01*
X308530D01*
Y679177D01*
X304466D01*
X319466Y589177D02*
Y593241D01*
X323530D01*
Y589177D01*
X319466D01*
X304466Y559177D02*
Y563241D01*
X308530D01*
Y559177D01*
X304466D01*
X289466Y709177D02*
Y713241D01*
X293530D01*
Y709177D01*
X289466D01*
X274466Y679177D02*
Y683241D01*
X278530D01*
Y679177D01*
X274466D01*
X289466Y589177D02*
Y593241D01*
X293530D01*
Y589177D01*
X289466D01*
X274466Y559177D02*
Y563241D01*
X278530D01*
Y559177D01*
X274466D01*
X259466Y709177D02*
Y713241D01*
X263530D01*
Y709177D01*
X259466D01*
X244466Y679177D02*
Y683241D01*
X248530D01*
Y679177D01*
X244466D01*
X259466Y589177D02*
Y593241D01*
X263530D01*
Y589177D01*
X259466D01*
X244466Y559177D02*
Y563241D01*
X248530D01*
Y559177D01*
X244466D01*
X229466Y709177D02*
Y713241D01*
X233530D01*
Y709177D01*
X229466D01*
X214466Y679177D02*
Y683241D01*
X218530D01*
Y679177D01*
X214466D01*
X229466Y589177D02*
Y593241D01*
X233530D01*
Y589177D01*
X229466D01*
X214466Y559177D02*
Y563241D01*
X218530D01*
Y559177D01*
X214466D01*
X199466Y709177D02*
Y713241D01*
X203530D01*
Y709177D01*
X199466D01*
X184466Y679177D02*
Y683241D01*
X188530D01*
Y679177D01*
X184466D01*
X199466Y589177D02*
Y593241D01*
X203530D01*
Y589177D01*
X199466D01*
X184466Y559177D02*
Y563241D01*
X188530D01*
Y559177D01*
X184466D01*
X169466Y709177D02*
Y713241D01*
X173530D01*
Y709177D01*
X169466D01*
X154466Y679177D02*
Y683241D01*
X158530D01*
Y679177D01*
X154466D01*
X169466Y589177D02*
Y593241D01*
X173530D01*
Y589177D01*
X169466D01*
X154466Y559177D02*
Y563241D01*
X158530D01*
Y559177D01*
X154466D01*
X139466Y709177D02*
Y713241D01*
X143530D01*
Y709177D01*
X139466D01*
X124466Y679177D02*
Y683241D01*
X128530D01*
Y679177D01*
X124466D01*
X139466Y589177D02*
Y593241D01*
X143530D01*
Y589177D01*
X139466D01*
X124466Y559177D02*
Y563241D01*
X128530D01*
Y559177D01*
X124466D01*
X109466Y709177D02*
Y713241D01*
X113530D01*
Y709177D01*
X109466D01*
X94466Y679177D02*
Y683241D01*
X98530D01*
Y679177D01*
X94466D01*
X109466Y589177D02*
Y593241D01*
X113530D01*
Y589177D01*
X109466D01*
X94466Y559177D02*
Y563241D01*
X98530D01*
Y559177D01*
X94466D01*
X79466Y709177D02*
Y713241D01*
X83530D01*
Y709177D01*
X79466D01*
Y589177D02*
Y593241D01*
X83530D01*
Y589177D01*
X79466D01*
X64466Y559177D02*
Y563241D01*
X68530D01*
Y559177D01*
X64466D01*
X34466D02*
Y563241D01*
X38530D01*
Y559177D01*
X34466D01*
X1033812Y662623D02*
Y666686D01*
X1037876D01*
Y662623D01*
X1033812D01*
X1018812D02*
Y666686D01*
X1022876D01*
Y662623D01*
X1018812D01*
X1003812D02*
Y666686D01*
X1007876D01*
Y662623D01*
X1003812D01*
X988812D02*
Y666686D01*
X992876D01*
Y662623D01*
X988812D01*
X959875Y659368D02*
Y663432D01*
X963939D01*
Y659368D01*
X959875D01*
X980532Y630670D02*
Y634734D01*
X984596D01*
Y630670D01*
X980532D01*
X1008744Y633313D02*
Y637377D01*
X1012808D01*
Y633313D01*
X1008744D01*
X1023744D02*
Y637377D01*
X1027808D01*
Y633313D01*
X1023744D01*
X950184Y662825D02*
Y666889D01*
X954248D01*
Y662825D01*
X950184D01*
X935186Y663059D02*
Y667123D01*
X939250D01*
Y663059D01*
X935186D01*
X933892Y628438D02*
Y632502D01*
X937956D01*
Y628438D01*
X933892D01*
X963325Y631356D02*
Y635420D01*
X967389D01*
Y631356D01*
X963325D01*
X969130Y664133D02*
Y668197D01*
X973195D01*
Y664133D01*
X969130D01*
X60179Y633313D02*
Y637377D01*
X64243D01*
Y633313D01*
X60179D01*
X75179D02*
Y637377D01*
X79243D01*
Y633313D01*
X75179D01*
X90179D02*
Y637377D01*
X94243D01*
Y633313D01*
X90179D01*
X105179D02*
Y637377D01*
X109243D01*
Y633313D01*
X105179D01*
X120179D02*
Y637377D01*
X124243D01*
Y633313D01*
X120179D01*
X135179D02*
Y637377D01*
X139243D01*
Y633313D01*
X135179D01*
X150179D02*
Y637377D01*
X154243D01*
Y633313D01*
X150179D01*
X165179D02*
Y637377D01*
X169243D01*
Y633313D01*
X165179D01*
X180179D02*
Y637377D01*
X184243D01*
Y633313D01*
X180179D01*
X195179D02*
Y637377D01*
X199243D01*
Y633313D01*
X195179D01*
X210179D02*
Y637377D01*
X214243D01*
Y633313D01*
X210179D01*
X225179D02*
Y637377D01*
X229243D01*
Y633313D01*
X225179D01*
X240179D02*
Y637377D01*
X244243D01*
Y633313D01*
X240179D01*
X255179D02*
Y637377D01*
X259243D01*
Y633313D01*
X255179D01*
X270179D02*
Y637377D01*
X274243D01*
Y633313D01*
X270179D01*
X285179D02*
Y637377D01*
X289243D01*
Y633313D01*
X285179D01*
X300179D02*
Y637377D01*
X304243D01*
Y633313D01*
X300179D01*
X315179D02*
Y637377D01*
X319243D01*
Y633313D01*
X315179D01*
X330179D02*
Y637377D01*
X334243D01*
Y633313D01*
X330179D01*
X345179D02*
Y637377D01*
X349243D01*
Y633313D01*
X345179D01*
X360179D02*
Y637377D01*
X364243D01*
Y633313D01*
X360179D01*
X375179D02*
Y637377D01*
X379243D01*
Y633313D01*
X375179D01*
X390179D02*
Y637377D01*
X394243D01*
Y633313D01*
X390179D01*
X405179D02*
Y637377D01*
X409243D01*
Y633313D01*
X405179D01*
X420179D02*
Y637377D01*
X424243D01*
Y633313D01*
X420179D01*
X435179D02*
Y637377D01*
X439243D01*
Y633313D01*
X435179D01*
X450179D02*
Y637377D01*
X454243D01*
Y633313D01*
X450179D01*
X465179D02*
Y637377D01*
X469243D01*
Y633313D01*
X465179D01*
X480179D02*
Y637377D01*
X484243D01*
Y633313D01*
X480179D01*
X495179D02*
Y637377D01*
X499243D01*
Y633313D01*
X495179D01*
X510179D02*
Y637377D01*
X514243D01*
Y633313D01*
X510179D01*
X525179D02*
Y637377D01*
X529243D01*
Y633313D01*
X525179D01*
X540179D02*
Y637377D01*
X544243D01*
Y633313D01*
X540179D01*
X555179D02*
Y637377D01*
X559243D01*
Y633313D01*
X555179D01*
X570179D02*
Y637377D01*
X574243D01*
Y633313D01*
X570179D01*
X585179D02*
Y637377D01*
X589243D01*
Y633313D01*
X585179D01*
X600179D02*
Y637377D01*
X604243D01*
Y633313D01*
X600179D01*
X615179D02*
Y637377D01*
X619243D01*
Y633313D01*
X615179D01*
X630179D02*
Y637377D01*
X634243D01*
Y633313D01*
X630179D01*
X645179D02*
Y637377D01*
X649243D01*
Y633313D01*
X645179D01*
X660179D02*
Y637377D01*
X664243D01*
Y633313D01*
X660179D01*
X675179D02*
Y637377D01*
X679243D01*
Y633313D01*
X675179D01*
X690179D02*
Y637377D01*
X694243D01*
Y633313D01*
X690179D01*
X705179D02*
Y637377D01*
X709243D01*
Y633313D01*
X705179D01*
X720179D02*
Y637377D01*
X724243D01*
Y633313D01*
X720179D01*
X735179D02*
Y637377D01*
X739243D01*
Y633313D01*
X735179D01*
X750179D02*
Y637377D01*
X754243D01*
Y633313D01*
X750179D01*
X765179D02*
Y637377D01*
X769243D01*
Y633313D01*
X765179D01*
X780179D02*
Y637377D01*
X784243D01*
Y633313D01*
X780179D01*
X795179D02*
Y637377D01*
X799243D01*
Y633313D01*
X795179D01*
X810179D02*
Y637377D01*
X814243D01*
Y633313D01*
X810179D01*
X825179D02*
Y637377D01*
X829243D01*
Y633313D01*
X825179D01*
X840179D02*
Y637377D01*
X844243D01*
Y633313D01*
X840179D01*
X855179D02*
Y637377D01*
X859243D01*
Y633313D01*
X855179D01*
X870179D02*
Y637377D01*
X874243D01*
Y633313D01*
X870179D01*
X885179D02*
Y637377D01*
X889243D01*
Y633313D01*
X885179D01*
X900177Y633115D02*
Y637179D01*
X904241D01*
Y633115D01*
X900177D01*
X915074Y631356D02*
Y635420D01*
X919138D01*
Y631356D01*
X915074D01*
X917259Y664380D02*
Y668444D01*
X921322D01*
Y664380D01*
X917259D01*
X902274Y663691D02*
Y667755D01*
X906338D01*
Y663691D01*
X902274D01*
X887312Y662623D02*
Y666686D01*
X891376D01*
Y662623D01*
X887312D01*
X872312D02*
Y666686D01*
X876376D01*
Y662623D01*
X872312D01*
X857312D02*
Y666686D01*
X861376D01*
Y662623D01*
X857312D01*
X842312D02*
Y666686D01*
X846376D01*
Y662623D01*
X842312D01*
X827312D02*
Y666686D01*
X831376D01*
Y662623D01*
X827312D01*
X812312D02*
Y666686D01*
X816376D01*
Y662623D01*
X812312D01*
X797312D02*
Y666686D01*
X801376D01*
Y662623D01*
X797312D01*
X782312D02*
Y666686D01*
X786376D01*
Y662623D01*
X782312D01*
X767312D02*
Y666686D01*
X771376D01*
Y662623D01*
X767312D01*
X752312D02*
Y666686D01*
X756376D01*
Y662623D01*
X752312D01*
X737312D02*
Y666686D01*
X741376D01*
Y662623D01*
X737312D01*
X722312D02*
Y666686D01*
X726376D01*
Y662623D01*
X722312D01*
X707312D02*
Y666686D01*
X711376D01*
Y662623D01*
X707312D01*
X692312D02*
Y666686D01*
X696376D01*
Y662623D01*
X692312D01*
X677312D02*
Y666686D01*
X681376D01*
Y662623D01*
X677312D01*
X662312D02*
Y666686D01*
X666376D01*
Y662623D01*
X662312D01*
X647312D02*
Y666686D01*
X651376D01*
Y662623D01*
X647312D01*
X632313D02*
Y666686D01*
X636376D01*
Y662623D01*
X632313D01*
X617313D02*
Y666686D01*
X621376D01*
Y662623D01*
X617313D01*
X602313D02*
Y666686D01*
X606376D01*
Y662623D01*
X602313D01*
X587313D02*
Y666686D01*
X591376D01*
Y662623D01*
X587313D01*
X572313D02*
Y666686D01*
X576376D01*
Y662623D01*
X572313D01*
X557313D02*
Y666686D01*
X561376D01*
Y662623D01*
X557313D01*
X542313D02*
Y666686D01*
X546376D01*
Y662623D01*
X542313D01*
X527313D02*
Y666686D01*
X531376D01*
Y662623D01*
X527313D01*
X512313D02*
Y666686D01*
X516376D01*
Y662623D01*
X512313D01*
X497313D02*
Y666686D01*
X501376D01*
Y662623D01*
X497313D01*
X482313D02*
Y666686D01*
X486376D01*
Y662623D01*
X482313D01*
X467313D02*
Y666686D01*
X471376D01*
Y662623D01*
X467313D01*
X452313D02*
Y666686D01*
X456376D01*
Y662623D01*
X452313D01*
X437313D02*
Y666686D01*
X441376D01*
Y662623D01*
X437313D01*
X422313D02*
Y666686D01*
X426376D01*
Y662623D01*
X422313D01*
X407313D02*
Y666686D01*
X411376D01*
Y662623D01*
X407313D01*
X392313D02*
Y666686D01*
X396377D01*
Y662623D01*
X392313D01*
X377313D02*
Y666686D01*
X381377D01*
Y662623D01*
X377313D01*
X362313D02*
Y666686D01*
X366377D01*
Y662623D01*
X362313D01*
X347313D02*
Y666686D01*
X351377D01*
Y662623D01*
X347313D01*
X332313D02*
Y666686D01*
X336377D01*
Y662623D01*
X332313D01*
X317313D02*
Y666686D01*
X321377D01*
Y662623D01*
X317313D01*
X302313D02*
Y666686D01*
X306377D01*
Y662623D01*
X302313D01*
X287313D02*
Y666686D01*
X291377D01*
Y662623D01*
X287313D01*
X272313D02*
Y666686D01*
X276377D01*
Y662623D01*
X272313D01*
X257313D02*
Y666686D01*
X261377D01*
Y662623D01*
X257313D01*
X242313D02*
Y666686D01*
X246377D01*
Y662623D01*
X242313D01*
X227313D02*
Y666686D01*
X231377D01*
Y662623D01*
X227313D01*
X212313D02*
Y666686D01*
X216377D01*
Y662623D01*
X212313D01*
X197313D02*
Y666686D01*
X201377D01*
Y662623D01*
X197313D01*
X182313D02*
Y666686D01*
X186377D01*
Y662623D01*
X182313D01*
X167313D02*
Y666686D01*
X171377D01*
Y662623D01*
X167313D01*
X152313D02*
Y666686D01*
X156377D01*
Y662623D01*
X152313D01*
X137313D02*
Y666686D01*
X141377D01*
Y662623D01*
X137313D01*
X122313D02*
Y666686D01*
X126377D01*
Y662623D01*
X122313D01*
X107313D02*
Y666686D01*
X111377D01*
Y662623D01*
X107313D01*
X92313D02*
Y666686D01*
X96377D01*
Y662623D01*
X92313D01*
X77313D02*
Y666686D01*
X81377D01*
Y662623D01*
X77313D01*
X62313D02*
Y666686D01*
X66377D01*
Y662623D01*
X62313D01*
X1054466Y379177D02*
Y383241D01*
X1058530D01*
Y379177D01*
X1054466D01*
X1024466D02*
Y383241D01*
X1028530D01*
Y379177D01*
X1024466D01*
X994466Y499177D02*
Y503241D01*
X998530D01*
Y499177D01*
X994466D01*
X1009466Y409177D02*
Y413241D01*
X1013530D01*
Y409177D01*
X1009466D01*
X994466Y379177D02*
Y383241D01*
X998530D01*
Y379177D01*
X994466D01*
X964466Y499177D02*
Y503241D01*
X968530D01*
Y499177D01*
X964466D01*
X979466Y409177D02*
Y413241D01*
X983530D01*
Y409177D01*
X979466D01*
X964466Y379177D02*
Y383241D01*
X968530D01*
Y379177D01*
X964466D01*
X934466Y499177D02*
Y503241D01*
X938530D01*
Y499177D01*
X934466D01*
X949466Y409177D02*
Y413241D01*
X953530D01*
Y409177D01*
X949466D01*
X934466Y379177D02*
Y383241D01*
X938530D01*
Y379177D01*
X934466D01*
X904466Y499177D02*
Y503241D01*
X908530D01*
Y499177D01*
X904466D01*
X919466Y409177D02*
Y413241D01*
X923530D01*
Y409177D01*
X919466D01*
X904466Y379177D02*
Y383241D01*
X908530D01*
Y379177D01*
X904466D01*
X874466Y499177D02*
Y503241D01*
X878530D01*
Y499177D01*
X874466D01*
X889466Y409177D02*
Y413241D01*
X893530D01*
Y409177D01*
X889466D01*
X874466Y379177D02*
Y383241D01*
X878530D01*
Y379177D01*
X874466D01*
X844466Y499177D02*
Y503241D01*
X848530D01*
Y499177D01*
X844466D01*
X859466Y409177D02*
Y413241D01*
X863530D01*
Y409177D01*
X859466D01*
X844466Y379177D02*
Y383241D01*
X848530D01*
Y379177D01*
X844466D01*
X814466Y499177D02*
Y503241D01*
X818530D01*
Y499177D01*
X814466D01*
X829466Y409177D02*
Y413241D01*
X833530D01*
Y409177D01*
X829466D01*
X814466Y379177D02*
Y383241D01*
X818530D01*
Y379177D01*
X814466D01*
X784466Y499177D02*
Y503241D01*
X788530D01*
Y499177D01*
X784466D01*
X799466Y409177D02*
Y413241D01*
X803530D01*
Y409177D01*
X799466D01*
X784466Y379177D02*
Y383241D01*
X788530D01*
Y379177D01*
X784466D01*
X754466Y499177D02*
Y503241D01*
X758530D01*
Y499177D01*
X754466D01*
X769466Y409177D02*
Y413241D01*
X773530D01*
Y409177D01*
X769466D01*
X754466Y379177D02*
Y383241D01*
X758530D01*
Y379177D01*
X754466D01*
X724466Y499177D02*
Y503241D01*
X728530D01*
Y499177D01*
X724466D01*
X739466Y409177D02*
Y413241D01*
X743530D01*
Y409177D01*
X739466D01*
X724466Y379177D02*
Y383241D01*
X728530D01*
Y379177D01*
X724466D01*
X694466Y499177D02*
Y503241D01*
X698530D01*
Y499177D01*
X694466D01*
X709466Y409177D02*
Y413241D01*
X713530D01*
Y409177D01*
X709466D01*
X694466Y379177D02*
Y383241D01*
X698530D01*
Y379177D01*
X694466D01*
X664466Y499177D02*
Y503241D01*
X668530D01*
Y499177D01*
X664466D01*
X679466Y409177D02*
Y413241D01*
X683530D01*
Y409177D01*
X679466D01*
X664466Y379177D02*
Y383241D01*
X668530D01*
Y379177D01*
X664466D01*
X634466Y499177D02*
Y503241D01*
X638530D01*
Y499177D01*
X634466D01*
X649466Y409177D02*
Y413241D01*
X653530D01*
Y409177D01*
X649466D01*
X634466Y379177D02*
Y383241D01*
X638530D01*
Y379177D01*
X634466D01*
X604466Y499177D02*
Y503241D01*
X608530D01*
Y499177D01*
X604466D01*
X619466Y409177D02*
Y413241D01*
X623530D01*
Y409177D01*
X619466D01*
X604466Y379177D02*
Y383241D01*
X608530D01*
Y379177D01*
X604466D01*
X574466Y499177D02*
Y503241D01*
X578530D01*
Y499177D01*
X574466D01*
X589466Y409177D02*
Y413241D01*
X593530D01*
Y409177D01*
X589466D01*
X574466Y379177D02*
Y383241D01*
X578530D01*
Y379177D01*
X574466D01*
X544466Y499177D02*
Y503241D01*
X548530D01*
Y499177D01*
X544466D01*
X559466Y409177D02*
Y413241D01*
X563530D01*
Y409177D01*
X559466D01*
X544466Y379177D02*
Y383241D01*
X548530D01*
Y379177D01*
X544466D01*
X514466Y499177D02*
Y503241D01*
X518530D01*
Y499177D01*
X514466D01*
X529466Y409177D02*
Y413241D01*
X533530D01*
Y409177D01*
X529466D01*
X514466Y379177D02*
Y383241D01*
X518530D01*
Y379177D01*
X514466D01*
X484466Y499177D02*
Y503241D01*
X488530D01*
Y499177D01*
X484466D01*
X499466Y409177D02*
Y413241D01*
X503530D01*
Y409177D01*
X499466D01*
X484466Y379177D02*
Y383241D01*
X488530D01*
Y379177D01*
X484466D01*
X454466Y499177D02*
Y503241D01*
X458530D01*
Y499177D01*
X454466D01*
X469466Y409177D02*
Y413241D01*
X473530D01*
Y409177D01*
X469466D01*
X454466Y379177D02*
Y383241D01*
X458530D01*
Y379177D01*
X454466D01*
X424466Y499177D02*
Y503241D01*
X428530D01*
Y499177D01*
X424466D01*
X439466Y409177D02*
Y413241D01*
X443530D01*
Y409177D01*
X439466D01*
X424466Y379177D02*
Y383241D01*
X428530D01*
Y379177D01*
X424466D01*
X394466Y499177D02*
Y503241D01*
X398530D01*
Y499177D01*
X394466D01*
X409466Y409177D02*
Y413241D01*
X413530D01*
Y409177D01*
X409466D01*
X394466Y379177D02*
Y383241D01*
X398530D01*
Y379177D01*
X394466D01*
X364466Y499177D02*
Y503241D01*
X368530D01*
Y499177D01*
X364466D01*
X379466Y409177D02*
Y413241D01*
X383530D01*
Y409177D01*
X379466D01*
X364466Y379177D02*
Y383241D01*
X368530D01*
Y379177D01*
X364466D01*
X334466Y499177D02*
Y503241D01*
X338530D01*
Y499177D01*
X334466D01*
X349466Y409177D02*
Y413241D01*
X353530D01*
Y409177D01*
X349466D01*
X334466Y379177D02*
Y383241D01*
X338530D01*
Y379177D01*
X334466D01*
X304466Y499177D02*
Y503241D01*
X308530D01*
Y499177D01*
X304466D01*
X319466Y409177D02*
Y413241D01*
X323530D01*
Y409177D01*
X319466D01*
X304466Y379177D02*
Y383241D01*
X308530D01*
Y379177D01*
X304466D01*
X274466Y499177D02*
Y503241D01*
X278530D01*
Y499177D01*
X274466D01*
X289466Y409177D02*
Y413241D01*
X293530D01*
Y409177D01*
X289466D01*
X274466Y379177D02*
Y383241D01*
X278530D01*
Y379177D01*
X274466D01*
X244466Y499177D02*
Y503241D01*
X248530D01*
Y499177D01*
X244466D01*
X259466Y409177D02*
Y413241D01*
X263530D01*
Y409177D01*
X259466D01*
X244466Y379177D02*
Y383241D01*
X248530D01*
Y379177D01*
X244466D01*
X214466Y499177D02*
Y503241D01*
X218530D01*
Y499177D01*
X214466D01*
X229466Y409177D02*
Y413241D01*
X233530D01*
Y409177D01*
X229466D01*
X214466Y379177D02*
Y383241D01*
X218530D01*
Y379177D01*
X214466D01*
X184466Y499177D02*
Y503241D01*
X188530D01*
Y499177D01*
X184466D01*
X199466Y409177D02*
Y413241D01*
X203530D01*
Y409177D01*
X199466D01*
X184466Y379177D02*
Y383241D01*
X188530D01*
Y379177D01*
X184466D01*
X154466Y499177D02*
Y503241D01*
X158530D01*
Y499177D01*
X154466D01*
X169466Y409177D02*
Y413241D01*
X173530D01*
Y409177D01*
X169466D01*
X154466Y379177D02*
Y383241D01*
X158530D01*
Y379177D01*
X154466D01*
X124466Y499177D02*
Y503241D01*
X128530D01*
Y499177D01*
X124466D01*
X139466Y409177D02*
Y413241D01*
X143530D01*
Y409177D01*
X139466D01*
X124466Y379177D02*
Y383241D01*
X128530D01*
Y379177D01*
X124466D01*
X94466Y499177D02*
Y503241D01*
X98530D01*
Y499177D01*
X94466D01*
X109466Y409177D02*
Y413241D01*
X113530D01*
Y409177D01*
X109466D01*
X94466Y379177D02*
Y383241D01*
X98530D01*
Y379177D01*
X94466D01*
X79466Y409177D02*
Y413241D01*
X83530D01*
Y409177D01*
X79466D01*
X64466Y379177D02*
Y383241D01*
X68530D01*
Y379177D01*
X64466D01*
X1054466Y169177D02*
Y173241D01*
X1058530D01*
Y169177D01*
X1054466D01*
X1024466D02*
Y173241D01*
X1028530D01*
Y169177D01*
X1024466D01*
X1009466Y319177D02*
Y323241D01*
X1013530D01*
Y319177D01*
X1009466D01*
X994466Y289177D02*
Y293241D01*
X998530D01*
Y289177D01*
X994466D01*
X1009466Y199177D02*
Y203241D01*
X1013530D01*
Y199177D01*
X1009466D01*
X994466Y169177D02*
Y173241D01*
X998530D01*
Y169177D01*
X994466D01*
X979466Y319177D02*
Y323241D01*
X983530D01*
Y319177D01*
X979466D01*
X964466Y289177D02*
Y293241D01*
X968530D01*
Y289177D01*
X964466D01*
X979466Y199177D02*
Y203241D01*
X983530D01*
Y199177D01*
X979466D01*
X964466Y169177D02*
Y173241D01*
X968530D01*
Y169177D01*
X964466D01*
X949466Y319177D02*
Y323241D01*
X953530D01*
Y319177D01*
X949466D01*
X934466Y289177D02*
Y293241D01*
X938530D01*
Y289177D01*
X934466D01*
X949466Y199177D02*
Y203241D01*
X953530D01*
Y199177D01*
X949466D01*
X934466Y169177D02*
Y173241D01*
X938530D01*
Y169177D01*
X934466D01*
X919466Y319177D02*
Y323241D01*
X923530D01*
Y319177D01*
X919466D01*
X904466Y289177D02*
Y293241D01*
X908530D01*
Y289177D01*
X904466D01*
X919466Y199177D02*
Y203241D01*
X923530D01*
Y199177D01*
X919466D01*
X904466Y169177D02*
Y173241D01*
X908530D01*
Y169177D01*
X904466D01*
X889466Y319177D02*
Y323241D01*
X893530D01*
Y319177D01*
X889466D01*
X874466Y289177D02*
Y293241D01*
X878530D01*
Y289177D01*
X874466D01*
X889466Y199177D02*
Y203241D01*
X893530D01*
Y199177D01*
X889466D01*
X874466Y169177D02*
Y173241D01*
X878530D01*
Y169177D01*
X874466D01*
X859466Y319177D02*
Y323241D01*
X863530D01*
Y319177D01*
X859466D01*
X844466Y289177D02*
Y293241D01*
X848530D01*
Y289177D01*
X844466D01*
X859466Y199177D02*
Y203241D01*
X863530D01*
Y199177D01*
X859466D01*
X844466Y169177D02*
Y173241D01*
X848530D01*
Y169177D01*
X844466D01*
X829466Y319177D02*
Y323241D01*
X833530D01*
Y319177D01*
X829466D01*
X814466Y289177D02*
Y293241D01*
X818530D01*
Y289177D01*
X814466D01*
X829466Y199177D02*
Y203241D01*
X833530D01*
Y199177D01*
X829466D01*
X814466Y169177D02*
Y173241D01*
X818530D01*
Y169177D01*
X814466D01*
X799466Y319177D02*
Y323241D01*
X803530D01*
Y319177D01*
X799466D01*
X784466Y289177D02*
Y293241D01*
X788530D01*
Y289177D01*
X784466D01*
X799466Y199177D02*
Y203241D01*
X803530D01*
Y199177D01*
X799466D01*
X784466Y169177D02*
Y173241D01*
X788530D01*
Y169177D01*
X784466D01*
X769466Y319177D02*
Y323241D01*
X773530D01*
Y319177D01*
X769466D01*
X754466Y289177D02*
Y293241D01*
X758530D01*
Y289177D01*
X754466D01*
X769466Y199177D02*
Y203241D01*
X773530D01*
Y199177D01*
X769466D01*
X754466Y169177D02*
Y173241D01*
X758530D01*
Y169177D01*
X754466D01*
X739466Y319177D02*
Y323241D01*
X743530D01*
Y319177D01*
X739466D01*
X724466Y289177D02*
Y293241D01*
X728530D01*
Y289177D01*
X724466D01*
X739466Y199177D02*
Y203241D01*
X743530D01*
Y199177D01*
X739466D01*
X724466Y169177D02*
Y173241D01*
X728530D01*
Y169177D01*
X724466D01*
X709466Y319177D02*
Y323241D01*
X713530D01*
Y319177D01*
X709466D01*
X694466Y289177D02*
Y293241D01*
X698530D01*
Y289177D01*
X694466D01*
X709466Y199177D02*
Y203241D01*
X713530D01*
Y199177D01*
X709466D01*
X694466Y169177D02*
Y173241D01*
X698530D01*
Y169177D01*
X694466D01*
X679466Y319177D02*
Y323241D01*
X683530D01*
Y319177D01*
X679466D01*
X664466Y289177D02*
Y293241D01*
X668530D01*
Y289177D01*
X664466D01*
X679466Y199177D02*
Y203241D01*
X683530D01*
Y199177D01*
X679466D01*
X664466Y169177D02*
Y173241D01*
X668530D01*
Y169177D01*
X664466D01*
X649466Y319177D02*
Y323241D01*
X653530D01*
Y319177D01*
X649466D01*
X634466Y289177D02*
Y293241D01*
X638530D01*
Y289177D01*
X634466D01*
X649466Y199177D02*
Y203241D01*
X653530D01*
Y199177D01*
X649466D01*
X634466Y169177D02*
Y173241D01*
X638530D01*
Y169177D01*
X634466D01*
X619466Y319177D02*
Y323241D01*
X623530D01*
Y319177D01*
X619466D01*
X604466Y289177D02*
Y293241D01*
X608530D01*
Y289177D01*
X604466D01*
X619466Y199177D02*
Y203241D01*
X623530D01*
Y199177D01*
X619466D01*
X604466Y169177D02*
Y173241D01*
X608530D01*
Y169177D01*
X604466D01*
X589466Y319177D02*
Y323241D01*
X593530D01*
Y319177D01*
X589466D01*
X574466Y289177D02*
Y293241D01*
X578530D01*
Y289177D01*
X574466D01*
X589466Y199177D02*
Y203241D01*
X593530D01*
Y199177D01*
X589466D01*
X574466Y169177D02*
Y173241D01*
X578530D01*
Y169177D01*
X574466D01*
X559466Y319177D02*
Y323241D01*
X563530D01*
Y319177D01*
X559466D01*
X544466Y289177D02*
Y293241D01*
X548530D01*
Y289177D01*
X544466D01*
X559466Y199177D02*
Y203241D01*
X563530D01*
Y199177D01*
X559466D01*
X544466Y169177D02*
Y173241D01*
X548530D01*
Y169177D01*
X544466D01*
X529466Y319177D02*
Y323241D01*
X533530D01*
Y319177D01*
X529466D01*
X514466Y289177D02*
Y293241D01*
X518530D01*
Y289177D01*
X514466D01*
X529466Y199177D02*
Y203241D01*
X533530D01*
Y199177D01*
X529466D01*
X514466Y169177D02*
Y173241D01*
X518530D01*
Y169177D01*
X514466D01*
X499466Y319177D02*
Y323241D01*
X503530D01*
Y319177D01*
X499466D01*
X484466Y289177D02*
Y293241D01*
X488530D01*
Y289177D01*
X484466D01*
X499466Y199177D02*
Y203241D01*
X503530D01*
Y199177D01*
X499466D01*
X484466Y169177D02*
Y173241D01*
X488530D01*
Y169177D01*
X484466D01*
X469466Y319177D02*
Y323241D01*
X473530D01*
Y319177D01*
X469466D01*
X454466Y289177D02*
Y293241D01*
X458530D01*
Y289177D01*
X454466D01*
X469466Y199177D02*
Y203241D01*
X473530D01*
Y199177D01*
X469466D01*
X454466Y169177D02*
Y173241D01*
X458530D01*
Y169177D01*
X454466D01*
X439466Y319177D02*
Y323241D01*
X443530D01*
Y319177D01*
X439466D01*
X424466Y289177D02*
Y293241D01*
X428530D01*
Y289177D01*
X424466D01*
X439466Y199177D02*
Y203241D01*
X443530D01*
Y199177D01*
X439466D01*
X424466Y169177D02*
Y173241D01*
X428530D01*
Y169177D01*
X424466D01*
X409466Y319177D02*
Y323241D01*
X413530D01*
Y319177D01*
X409466D01*
X394466Y289177D02*
Y293241D01*
X398530D01*
Y289177D01*
X394466D01*
X409466Y199177D02*
Y203241D01*
X413530D01*
Y199177D01*
X409466D01*
X394466Y169177D02*
Y173241D01*
X398530D01*
Y169177D01*
X394466D01*
X379466Y319177D02*
Y323241D01*
X383530D01*
Y319177D01*
X379466D01*
X364466Y289177D02*
Y293241D01*
X368530D01*
Y289177D01*
X364466D01*
X379466Y199177D02*
Y203241D01*
X383530D01*
Y199177D01*
X379466D01*
X364466Y169177D02*
Y173241D01*
X368530D01*
Y169177D01*
X364466D01*
X349466Y319177D02*
Y323241D01*
X353530D01*
Y319177D01*
X349466D01*
X334466Y289177D02*
Y293241D01*
X338530D01*
Y289177D01*
X334466D01*
X349466Y199177D02*
Y203241D01*
X353530D01*
Y199177D01*
X349466D01*
X334466Y169177D02*
Y173241D01*
X338530D01*
Y169177D01*
X334466D01*
X319466Y319177D02*
Y323241D01*
X323530D01*
Y319177D01*
X319466D01*
X304466Y289177D02*
Y293241D01*
X308530D01*
Y289177D01*
X304466D01*
X319466Y199177D02*
Y203241D01*
X323530D01*
Y199177D01*
X319466D01*
X304466Y169177D02*
Y173241D01*
X308530D01*
Y169177D01*
X304466D01*
X289466Y319177D02*
Y323241D01*
X293530D01*
Y319177D01*
X289466D01*
X274466Y289177D02*
Y293241D01*
X278530D01*
Y289177D01*
X274466D01*
X289466Y199177D02*
Y203241D01*
X293530D01*
Y199177D01*
X289466D01*
X274466Y169177D02*
Y173241D01*
X278530D01*
Y169177D01*
X274466D01*
X259466Y319177D02*
Y323241D01*
X263530D01*
Y319177D01*
X259466D01*
X244466Y289177D02*
Y293241D01*
X248530D01*
Y289177D01*
X244466D01*
X259466Y199177D02*
Y203241D01*
X263530D01*
Y199177D01*
X259466D01*
X244466Y169177D02*
Y173241D01*
X248530D01*
Y169177D01*
X244466D01*
X229466Y319177D02*
Y323241D01*
X233530D01*
Y319177D01*
X229466D01*
X214466Y289177D02*
Y293241D01*
X218530D01*
Y289177D01*
X214466D01*
X229466Y199177D02*
Y203241D01*
X233530D01*
Y199177D01*
X229466D01*
X214466Y169177D02*
Y173241D01*
X218530D01*
Y169177D01*
X214466D01*
X199466Y319177D02*
Y323241D01*
X203530D01*
Y319177D01*
X199466D01*
X184466Y289177D02*
Y293241D01*
X188530D01*
Y289177D01*
X184466D01*
X199466Y199177D02*
Y203241D01*
X203530D01*
Y199177D01*
X199466D01*
X184466Y169177D02*
Y173241D01*
X188530D01*
Y169177D01*
X184466D01*
X169466Y319177D02*
Y323241D01*
X173530D01*
Y319177D01*
X169466D01*
X154466Y289177D02*
Y293241D01*
X158530D01*
Y289177D01*
X154466D01*
X169466Y199177D02*
Y203241D01*
X173530D01*
Y199177D01*
X169466D01*
X154466Y169177D02*
Y173241D01*
X158530D01*
Y169177D01*
X154466D01*
X139466Y319177D02*
Y323241D01*
X143530D01*
Y319177D01*
X139466D01*
X124466Y289177D02*
Y293241D01*
X128530D01*
Y289177D01*
X124466D01*
X139466Y199177D02*
Y203241D01*
X143530D01*
Y199177D01*
X139466D01*
X124466Y169177D02*
Y173241D01*
X128530D01*
Y169177D01*
X124466D01*
X109466Y319177D02*
Y323241D01*
X113530D01*
Y319177D01*
X109466D01*
X94466Y289177D02*
Y293241D01*
X98530D01*
Y289177D01*
X94466D01*
X109466Y199177D02*
Y203241D01*
X113530D01*
Y199177D01*
X109466D01*
X94466Y169177D02*
Y173241D01*
X98530D01*
Y169177D01*
X94466D01*
X79466Y319177D02*
Y323241D01*
X83530D01*
Y319177D01*
X79466D01*
X64466Y169177D02*
Y173241D01*
X68530D01*
Y169177D01*
X64466D01*
X34466D02*
Y173241D01*
X38530D01*
Y169177D01*
X34466D01*
X637130Y462217D02*
Y466281D01*
X641194D01*
Y462217D01*
X637130D01*
X687130D02*
Y466281D01*
X691193D01*
Y462217D01*
X687130D01*
X544732Y433719D02*
Y437783D01*
X548796D01*
Y433719D01*
X544732D01*
X377130Y462217D02*
Y466281D01*
X381194D01*
Y462217D01*
X377130D01*
X984731Y433719D02*
Y437783D01*
X988795D01*
Y433719D01*
X984731D01*
X334732D02*
Y437783D01*
X338796D01*
Y433719D01*
X334732D01*
X667130Y462217D02*
Y466281D01*
X671193D01*
Y462217D01*
X667130D01*
X677130D02*
Y466281D01*
X681193D01*
Y462217D01*
X677130D01*
X227130D02*
Y466281D01*
X231194D01*
Y462217D01*
X227130D01*
X1017129D02*
Y466281D01*
X1021193D01*
Y462217D01*
X1017129D01*
X507130D02*
Y466281D01*
X511194D01*
Y462217D01*
X507130D01*
X517130D02*
Y466281D01*
X521194D01*
Y462217D01*
X517130D01*
X214733Y433719D02*
Y437783D01*
X218797D01*
Y433719D01*
X214733D01*
X217130Y462217D02*
Y466281D01*
X221194D01*
Y462217D01*
X217130D01*
X767129D02*
Y466281D01*
X771193D01*
Y462217D01*
X767129D01*
X624732Y433719D02*
Y437783D01*
X628796D01*
Y433719D01*
X624732D01*
X547130Y462217D02*
Y466281D01*
X551194D01*
Y462217D01*
X547130D01*
X94733Y433719D02*
Y437783D01*
X98797D01*
Y433719D01*
X94733D01*
X207130Y462217D02*
Y466281D01*
X211194D01*
Y462217D01*
X207130D01*
X387130D02*
Y466281D01*
X391194D01*
Y462217D01*
X387130D01*
X437130D02*
Y466281D01*
X441194D01*
Y462217D01*
X437130D01*
X907129D02*
Y466281D01*
X911193D01*
Y462217D01*
X907129D01*
X714732Y433719D02*
Y437783D01*
X718796D01*
Y433719D01*
X714732D01*
X344732D02*
Y437783D01*
X348796D01*
Y433719D01*
X344732D01*
X847129Y462217D02*
Y466281D01*
X851193D01*
Y462217D01*
X847129D01*
X504732Y433719D02*
Y437783D01*
X508796D01*
Y433719D01*
X504732D01*
X707129Y462217D02*
Y466281D01*
X711193D01*
Y462217D01*
X707129D01*
X204733Y433719D02*
Y437783D01*
X208797D01*
Y433719D01*
X204733D01*
X234733D02*
Y437783D01*
X238797D01*
Y433719D01*
X234733D01*
X64733D02*
Y437783D01*
X68797D01*
Y433719D01*
X64733D01*
X514732D02*
Y437783D01*
X518796D01*
Y433719D01*
X514732D01*
X404732D02*
Y437783D01*
X408796D01*
Y433719D01*
X404732D01*
X124733D02*
Y437783D01*
X128797D01*
Y433719D01*
X124733D01*
X287130Y462217D02*
Y466281D01*
X291194D01*
Y462217D01*
X287130D01*
X297130D02*
Y466281D01*
X301194D01*
Y462217D01*
X297130D01*
X407130D02*
Y466281D01*
X411194D01*
Y462217D01*
X407130D01*
X397130D02*
Y466281D01*
X401194D01*
Y462217D01*
X397130D01*
X674732Y433719D02*
Y437783D01*
X678796D01*
Y433719D01*
X674732D01*
X904731D02*
Y437783D01*
X908795D01*
Y433719D01*
X904731D01*
X354732D02*
Y437783D01*
X358796D01*
Y433719D01*
X354732D01*
X1014731D02*
Y437783D01*
X1018795D01*
Y433719D01*
X1014731D01*
X277130Y462217D02*
Y466281D01*
X281194D01*
Y462217D01*
X277130D01*
X224733Y433719D02*
Y437783D01*
X228797D01*
Y433719D01*
X224733D01*
X957129Y462217D02*
Y466281D01*
X961193D01*
Y462217D01*
X957129D01*
X734732Y433719D02*
Y437783D01*
X738796D01*
Y433719D01*
X734732D01*
X617130Y462217D02*
Y466281D01*
X621194D01*
Y462217D01*
X617130D01*
X797129D02*
Y466281D01*
X801193D01*
Y462217D01*
X797129D01*
X284732Y433719D02*
Y437783D01*
X288797D01*
Y433719D01*
X284732D01*
X267130Y462217D02*
Y466281D01*
X271194D01*
Y462217D01*
X267130D01*
X104733Y433719D02*
Y437783D01*
X108797D01*
Y433719D01*
X104733D01*
X937129Y462217D02*
Y466281D01*
X941193D01*
Y462217D01*
X937129D01*
X587130D02*
Y466281D01*
X591194D01*
Y462217D01*
X587130D01*
X357130D02*
Y466281D01*
X361194D01*
Y462217D01*
X357130D01*
X367130D02*
Y466281D01*
X371194D01*
Y462217D01*
X367130D01*
X194733Y433719D02*
Y437783D01*
X198797D01*
Y433719D01*
X194733D01*
X874731D02*
Y437783D01*
X878795D01*
Y433719D01*
X874731D01*
X564732D02*
Y437783D01*
X568796D01*
Y433719D01*
X564732D01*
X187131Y462217D02*
Y466281D01*
X191194D01*
Y462217D01*
X187131D01*
X454732Y433719D02*
Y437783D01*
X458796D01*
Y433719D01*
X454732D01*
X337130Y462217D02*
Y466281D01*
X341194D01*
Y462217D01*
X337130D01*
X657130D02*
Y466281D01*
X661193D01*
Y462217D01*
X657130D01*
X607130D02*
Y466281D01*
X611194D01*
Y462217D01*
X607130D01*
X897129D02*
Y466281D01*
X901193D01*
Y462217D01*
X897129D01*
X184733Y433719D02*
Y437783D01*
X188797D01*
Y433719D01*
X184733D01*
X684732D02*
Y437783D01*
X688796D01*
Y433719D01*
X684732D01*
X307130Y462217D02*
Y466281D01*
X311194D01*
Y462217D01*
X307130D01*
X777129D02*
Y466281D01*
X781193D01*
Y462217D01*
X777129D01*
X867129D02*
Y466281D01*
X871193D01*
Y462217D01*
X867129D01*
X774732Y433719D02*
Y437783D01*
X778795D01*
Y433719D01*
X774732D01*
X417130Y462217D02*
Y466281D01*
X421194D01*
Y462217D01*
X417130D01*
X114733Y433719D02*
Y437783D01*
X118797D01*
Y433719D01*
X114733D01*
X487130Y462217D02*
Y466281D01*
X491194D01*
Y462217D01*
X487130D01*
X827129D02*
Y466281D01*
X831193D01*
Y462217D01*
X827129D01*
X174733Y433719D02*
Y437783D01*
X178797D01*
Y433719D01*
X174733D01*
X737129Y462217D02*
Y466281D01*
X741193D01*
Y462217D01*
X737129D01*
X784732Y433719D02*
Y437783D01*
X788795D01*
Y433719D01*
X784732D01*
X167131Y462217D02*
Y466281D01*
X171194D01*
Y462217D01*
X167131D01*
X494732Y433719D02*
Y437783D01*
X498796D01*
Y433719D01*
X494732D01*
X87131Y462217D02*
Y466281D01*
X91195D01*
Y462217D01*
X87131D01*
X327130D02*
Y466281D01*
X331194D01*
Y462217D01*
X327130D01*
X934731Y433719D02*
Y437783D01*
X938795D01*
Y433719D01*
X934731D01*
X647130Y462217D02*
Y466281D01*
X651193D01*
Y462217D01*
X647130D01*
X927129D02*
Y466281D01*
X931193D01*
Y462217D01*
X927129D01*
X574732Y433719D02*
Y437783D01*
X578796D01*
Y433719D01*
X574732D01*
X464732D02*
Y437783D01*
X468796D01*
Y433719D01*
X464732D01*
X254733D02*
Y437783D01*
X258797D01*
Y433719D01*
X254733D01*
X644732D02*
Y437783D01*
X648796D01*
Y433719D01*
X644732D01*
X944731D02*
Y437783D01*
X948795D01*
Y433719D01*
X944731D01*
X794732D02*
Y437783D01*
X798795D01*
Y433719D01*
X794732D01*
X997129Y462217D02*
Y466281D01*
X1001193D01*
Y462217D01*
X997129D01*
X757129D02*
Y466281D01*
X761193D01*
Y462217D01*
X757129D01*
X424732Y433719D02*
Y437783D01*
X428796D01*
Y433719D01*
X424732D01*
X697129Y462217D02*
Y466281D01*
X701193D01*
Y462217D01*
X697129D01*
X844731Y433719D02*
Y437783D01*
X848795D01*
Y433719D01*
X844731D01*
X837129Y462217D02*
Y466281D01*
X841193D01*
Y462217D01*
X837129D01*
X614732Y433719D02*
Y437783D01*
X618796D01*
Y433719D01*
X614732D01*
X634732D02*
Y437783D01*
X638796D01*
Y433719D01*
X634732D01*
X884731D02*
Y437783D01*
X888795D01*
Y433719D01*
X884731D01*
X164733D02*
Y437783D01*
X168797D01*
Y433719D01*
X164733D01*
X77131Y462217D02*
Y466281D01*
X81195D01*
Y462217D01*
X77131D01*
X477130D02*
Y466281D01*
X481194D01*
Y462217D01*
X477130D01*
X947129D02*
Y466281D01*
X951193D01*
Y462217D01*
X947129D01*
X807129D02*
Y466281D01*
X811193D01*
Y462217D01*
X807129D01*
X154733Y433719D02*
Y437783D01*
X158797D01*
Y433719D01*
X154733D01*
X964731D02*
Y437783D01*
X968795D01*
Y433719D01*
X964731D01*
X954731D02*
Y437783D01*
X958795D01*
Y433719D01*
X954731D01*
X887129Y462217D02*
Y466281D01*
X891193D01*
Y462217D01*
X887129D01*
X197130D02*
Y466281D01*
X201194D01*
Y462217D01*
X197130D01*
X627130D02*
Y466281D01*
X631194D01*
Y462217D01*
X627130D01*
X747129D02*
Y466281D01*
X751193D01*
Y462217D01*
X747129D01*
X724732Y433719D02*
Y437783D01*
X728796D01*
Y433719D01*
X724732D01*
X894731D02*
Y437783D01*
X898795D01*
Y433719D01*
X894731D01*
X584732D02*
Y437783D01*
X588796D01*
Y433719D01*
X584732D01*
X74733D02*
Y437783D01*
X78797D01*
Y433719D01*
X74733D01*
X577130Y462217D02*
Y466281D01*
X581194D01*
Y462217D01*
X577130D01*
X754732Y433719D02*
Y437783D01*
X758796D01*
Y433719D01*
X754732D01*
X247130Y462217D02*
Y466281D01*
X251194D01*
Y462217D01*
X247130D01*
X97131D02*
Y466281D01*
X101195D01*
Y462217D01*
X97131D01*
X994731Y433719D02*
Y437783D01*
X998795D01*
Y433719D01*
X994731D01*
X717129Y462217D02*
Y466281D01*
X721193D01*
Y462217D01*
X717129D01*
X1007129D02*
Y466281D01*
X1011193D01*
Y462217D01*
X1007129D01*
X147130D02*
Y466281D01*
X151194D01*
Y462217D01*
X147130D01*
X157130D02*
Y466281D01*
X161194D01*
Y462217D01*
X157130D01*
X864731Y433719D02*
Y437783D01*
X868795D01*
Y433719D01*
X864731D01*
X294732D02*
Y437783D01*
X298797D01*
Y433719D01*
X294732D01*
X604732D02*
Y437783D01*
X608796D01*
Y433719D01*
X604732D01*
X237130Y462217D02*
Y466281D01*
X241194D01*
Y462217D01*
X237130D01*
X977129D02*
Y466281D01*
X981193D01*
Y462217D01*
X977129D01*
X974731Y433719D02*
Y437783D01*
X978795D01*
Y433719D01*
X974731D01*
X664732D02*
Y437783D01*
X668796D01*
Y433719D01*
X664732D01*
X987129Y462217D02*
Y466281D01*
X991193D01*
Y462217D01*
X987129D01*
X257130D02*
Y466281D01*
X261194D01*
Y462217D01*
X257130D01*
X1027129D02*
Y466281D01*
X1031193D01*
Y462217D01*
X1027129D01*
X854731Y433719D02*
Y437783D01*
X858795D01*
Y433719D01*
X854731D01*
X594732D02*
Y437783D01*
X598796D01*
Y433719D01*
X594732D01*
X304732D02*
Y437783D01*
X308797D01*
Y433719D01*
X304732D01*
X554732D02*
Y437783D01*
X558796D01*
Y433719D01*
X554732D01*
X444732D02*
Y437783D01*
X448796D01*
Y433719D01*
X444732D01*
X474732D02*
Y437783D01*
X478796D01*
Y433719D01*
X474732D01*
X557130Y462217D02*
Y466281D01*
X561194D01*
Y462217D01*
X557130D01*
X804732Y433719D02*
Y437783D01*
X808795D01*
Y433719D01*
X804732D01*
X364732D02*
Y437783D01*
X368796D01*
Y433719D01*
X364732D01*
X314732D02*
Y437783D01*
X318797D01*
Y433719D01*
X314732D01*
X727129Y462217D02*
Y466281D01*
X731193D01*
Y462217D01*
X727129D01*
X857129D02*
Y466281D01*
X861193D01*
Y462217D01*
X857129D01*
X654732Y433719D02*
Y437783D01*
X658796D01*
Y433719D01*
X654732D01*
X694732D02*
Y437783D01*
X698796D01*
Y433719D01*
X694732D01*
X427130Y462217D02*
Y466281D01*
X431194D01*
Y462217D01*
X427130D01*
X744732Y433719D02*
Y437783D01*
X748796D01*
Y433719D01*
X744732D01*
X434732D02*
Y437783D01*
X438796D01*
Y433719D01*
X434732D01*
X457130Y462217D02*
Y466281D01*
X461194D01*
Y462217D01*
X457130D01*
X814732Y433719D02*
Y437783D01*
X818795D01*
Y433719D01*
X814732D01*
X324732D02*
Y437783D01*
X328796D01*
Y433719D01*
X324732D01*
X497130Y462217D02*
Y466281D01*
X501194D01*
Y462217D01*
X497130D01*
X924731Y433719D02*
Y437783D01*
X928795D01*
Y433719D01*
X924731D01*
X527130Y462217D02*
Y466281D01*
X531194D01*
Y462217D01*
X527130D01*
X67131D02*
Y466281D01*
X71195D01*
Y462217D01*
X67131D01*
X484732Y433719D02*
Y437783D01*
X488796D01*
Y433719D01*
X484732D01*
X877129Y462217D02*
Y466281D01*
X881193D01*
Y462217D01*
X877129D01*
X1004731Y433719D02*
Y437783D01*
X1008795D01*
Y433719D01*
X1004731D01*
X177131Y462217D02*
Y466281D01*
X181194D01*
Y462217D01*
X177131D01*
X274732Y433719D02*
Y437783D01*
X278797D01*
Y433719D01*
X274732D01*
X1034731D02*
Y437783D01*
X1038795D01*
Y433719D01*
X1034731D01*
X244733D02*
Y437783D01*
X248797D01*
Y433719D01*
X244733D01*
X597130Y462217D02*
Y466281D01*
X601194D01*
Y462217D01*
X597130D01*
X264733Y433719D02*
Y437783D01*
X268797D01*
Y433719D01*
X264733D01*
X384732D02*
Y437783D01*
X388796D01*
Y433719D01*
X384732D01*
X137131Y462217D02*
Y466281D01*
X141195D01*
Y462217D01*
X137131D01*
X567130D02*
Y466281D01*
X571194D01*
Y462217D01*
X567130D01*
X537130D02*
Y466281D01*
X541194D01*
Y462217D01*
X537130D01*
X824731Y433719D02*
Y437783D01*
X828795D01*
Y433719D01*
X824731D01*
X534732D02*
Y437783D01*
X538796D01*
Y433719D01*
X534732D01*
X374732D02*
Y437783D01*
X378796D01*
Y433719D01*
X374732D01*
X787129Y462217D02*
Y466281D01*
X791193D01*
Y462217D01*
X787129D01*
X817129D02*
Y466281D01*
X821193D01*
Y462217D01*
X817129D01*
X117131D02*
Y466281D01*
X121195D01*
Y462217D01*
X117131D01*
X764732Y433719D02*
Y437783D01*
X768796D01*
Y433719D01*
X764732D01*
X917129Y462217D02*
Y466281D01*
X921193D01*
Y462217D01*
X917129D01*
X704732Y433719D02*
Y437783D01*
X708796D01*
Y433719D01*
X704732D01*
X394732D02*
Y437783D01*
X398796D01*
Y433719D01*
X394732D01*
X134733D02*
Y437783D01*
X138797D01*
Y433719D01*
X134733D01*
X914731D02*
Y437783D01*
X918795D01*
Y433719D01*
X914731D01*
X414732D02*
Y437783D01*
X418796D01*
Y433719D01*
X414732D01*
X84733D02*
Y437783D01*
X88797D01*
Y433719D01*
X84733D01*
X1024731D02*
Y437783D01*
X1028795D01*
Y433719D01*
X1024731D01*
X467130Y462217D02*
Y466281D01*
X471194D01*
Y462217D01*
X467130D01*
X967129D02*
Y466281D01*
X971193D01*
Y462217D01*
X967129D01*
X107131D02*
Y466281D01*
X111195D01*
Y462217D01*
X107131D01*
X127131D02*
Y466281D01*
X131195D01*
Y462217D01*
X127131D01*
X317130D02*
Y466281D01*
X321194D01*
Y462217D01*
X317130D01*
X447130D02*
Y466281D01*
X451194D01*
Y462217D01*
X447130D01*
X524732Y433719D02*
Y437783D01*
X528796D01*
Y433719D01*
X524732D01*
X347130Y462217D02*
Y466281D01*
X351194D01*
Y462217D01*
X347130D01*
X834731Y433719D02*
Y437783D01*
X838795D01*
Y433719D01*
X834731D01*
X144733D02*
Y437783D01*
X148797D01*
Y433719D01*
X144733D01*
X1030402Y262623D02*
Y266686D01*
X1034466D01*
Y262623D01*
X1030402D01*
X1015402D02*
Y266686D01*
X1019466D01*
Y262623D01*
X1015402D01*
X1000402D02*
Y266686D01*
X1004466D01*
Y262623D01*
X1000402D01*
X985402D02*
Y266686D01*
X989466D01*
Y262623D01*
X985402D01*
X970402D02*
Y266686D01*
X974466D01*
Y262623D01*
X970402D01*
X955402D02*
Y266686D01*
X959466D01*
Y262623D01*
X955402D01*
X940402D02*
Y266686D01*
X944466D01*
Y262623D01*
X940402D01*
X925402D02*
Y266686D01*
X929466D01*
Y262623D01*
X925402D01*
X910402D02*
Y266686D01*
X914466D01*
Y262623D01*
X910402D01*
X895402D02*
Y266686D01*
X899466D01*
Y262623D01*
X895402D01*
X880402D02*
Y266686D01*
X884466D01*
Y262623D01*
X880402D01*
X865402D02*
Y266686D01*
X869466D01*
Y262623D01*
X865402D01*
X850402D02*
Y266686D01*
X854466D01*
Y262623D01*
X850402D01*
X835402D02*
Y266686D01*
X839466D01*
Y262623D01*
X835402D01*
X820402D02*
Y266686D01*
X824466D01*
Y262623D01*
X820402D01*
X805402D02*
Y266686D01*
X809466D01*
Y262623D01*
X805402D01*
X790402D02*
Y266686D01*
X794466D01*
Y262623D01*
X790402D01*
X775402D02*
Y266686D01*
X779466D01*
Y262623D01*
X775402D01*
X760402D02*
Y266686D01*
X764466D01*
Y262623D01*
X760402D01*
X745402D02*
Y266686D01*
X749466D01*
Y262623D01*
X745402D01*
X730402D02*
Y266686D01*
X734466D01*
Y262623D01*
X730402D01*
X715402D02*
Y266686D01*
X719466D01*
Y262623D01*
X715402D01*
X700402D02*
Y266686D01*
X704466D01*
Y262623D01*
X700402D01*
X685402D02*
Y266686D01*
X689466D01*
Y262623D01*
X685402D01*
X670402D02*
Y266686D01*
X674466D01*
Y262623D01*
X670402D01*
X655402D02*
Y266686D01*
X659466D01*
Y262623D01*
X655402D01*
X640402D02*
Y266686D01*
X644466D01*
Y262623D01*
X640402D01*
X625402D02*
Y266686D01*
X629466D01*
Y262623D01*
X625402D01*
X610402D02*
Y266686D01*
X614466D01*
Y262623D01*
X610402D01*
X595402D02*
Y266686D01*
X599466D01*
Y262623D01*
X595402D01*
X580402D02*
Y266686D01*
X584466D01*
Y262623D01*
X580402D01*
X565402D02*
Y266686D01*
X569466D01*
Y262623D01*
X565402D01*
X550402D02*
Y266686D01*
X554466D01*
Y262623D01*
X550402D01*
X535402D02*
Y266686D01*
X539466D01*
Y262623D01*
X535402D01*
X520402D02*
Y266686D01*
X524466D01*
Y262623D01*
X520402D01*
X505402D02*
Y266686D01*
X509466D01*
Y262623D01*
X505402D01*
X490402D02*
Y266686D01*
X494466D01*
Y262623D01*
X490402D01*
X475402D02*
Y266686D01*
X479466D01*
Y262623D01*
X475402D01*
X460402D02*
Y266686D01*
X464466D01*
Y262623D01*
X460402D01*
X445402D02*
Y266686D01*
X449466D01*
Y262623D01*
X445402D01*
X430402D02*
Y266686D01*
X434466D01*
Y262623D01*
X430402D01*
X415402D02*
Y266686D01*
X419466D01*
Y262623D01*
X415402D01*
X400402D02*
Y266686D01*
X404466D01*
Y262623D01*
X400402D01*
X385402D02*
Y266686D01*
X389466D01*
Y262623D01*
X385402D01*
X370402D02*
Y266686D01*
X374466D01*
Y262623D01*
X370402D01*
X355402D02*
Y266686D01*
X359466D01*
Y262623D01*
X355402D01*
X340402D02*
Y266686D01*
X344466D01*
Y262623D01*
X340402D01*
X325402D02*
Y266686D01*
X329466D01*
Y262623D01*
X325402D01*
X310402D02*
Y266686D01*
X314466D01*
Y262623D01*
X310402D01*
X295402D02*
Y266686D01*
X299466D01*
Y262623D01*
X295402D01*
X280402D02*
Y266686D01*
X284466D01*
Y262623D01*
X280402D01*
X265402D02*
Y266686D01*
X269466D01*
Y262623D01*
X265402D01*
X250402D02*
Y266686D01*
X254466D01*
Y262623D01*
X250402D01*
X235402D02*
Y266686D01*
X239466D01*
Y262623D01*
X235402D01*
X220402D02*
Y266686D01*
X224466D01*
Y262623D01*
X220402D01*
X205402D02*
Y266686D01*
X209466D01*
Y262623D01*
X205402D01*
X190402D02*
Y266686D01*
X194466D01*
Y262623D01*
X190402D01*
X175402D02*
Y266686D01*
X179466D01*
Y262623D01*
X175402D01*
X160402D02*
Y266686D01*
X164466D01*
Y262623D01*
X160402D01*
X145402D02*
Y266686D01*
X149466D01*
Y262623D01*
X145402D01*
X130402D02*
Y266686D01*
X134466D01*
Y262623D01*
X130402D01*
X115402D02*
Y266686D01*
X119466D01*
Y262623D01*
X115402D01*
X100402D02*
Y266686D01*
X104466D01*
Y262623D01*
X100402D01*
X85402D02*
Y266686D01*
X89466D01*
Y262623D01*
X85402D01*
X70402D02*
Y266686D01*
X74466D01*
Y262623D01*
X70402D01*
X63745Y233313D02*
Y237377D01*
X67809D01*
Y233313D01*
X63745D01*
X78745D02*
Y237377D01*
X82809D01*
Y233313D01*
X78745D01*
X93744D02*
Y237377D01*
X97809D01*
Y233313D01*
X93744D01*
X108744D02*
Y237377D01*
X112809D01*
Y233313D01*
X108744D01*
X123744D02*
Y237377D01*
X127809D01*
Y233313D01*
X123744D01*
X138744D02*
Y237377D01*
X142809D01*
Y233313D01*
X138744D01*
X153744D02*
Y237377D01*
X157809D01*
Y233313D01*
X153744D01*
X168745D02*
Y237377D01*
X172808D01*
Y233313D01*
X168745D01*
X183745D02*
Y237377D01*
X187808D01*
Y233313D01*
X183745D01*
X198745D02*
Y237377D01*
X202808D01*
Y233313D01*
X198745D01*
X213745D02*
Y237377D01*
X217808D01*
Y233313D01*
X213745D01*
X228745D02*
Y237377D01*
X232808D01*
Y233313D01*
X228745D01*
X243745D02*
Y237377D01*
X247808D01*
Y233313D01*
X243745D01*
X258745D02*
Y237377D01*
X262808D01*
Y233313D01*
X258745D01*
X273745D02*
Y237377D01*
X277808D01*
Y233313D01*
X273745D01*
X288745D02*
Y237377D01*
X292808D01*
Y233313D01*
X288745D01*
X303745D02*
Y237377D01*
X307808D01*
Y233313D01*
X303745D01*
X318745D02*
Y237377D01*
X322808D01*
Y233313D01*
X318745D01*
X333745D02*
Y237377D01*
X337808D01*
Y233313D01*
X333745D01*
X348745D02*
Y237377D01*
X352808D01*
Y233313D01*
X348745D01*
X363745D02*
Y237377D01*
X367808D01*
Y233313D01*
X363745D01*
X378745D02*
Y237377D01*
X382808D01*
Y233313D01*
X378745D01*
X393745D02*
Y237377D01*
X397808D01*
Y233313D01*
X393745D01*
X408744D02*
Y237377D01*
X412808D01*
Y233313D01*
X408744D01*
X423744D02*
Y237377D01*
X427808D01*
Y233313D01*
X423744D01*
X438744D02*
Y237377D01*
X442808D01*
Y233313D01*
X438744D01*
X453744D02*
Y237377D01*
X457808D01*
Y233313D01*
X453744D01*
X468744D02*
Y237377D01*
X472808D01*
Y233313D01*
X468744D01*
X483744D02*
Y237377D01*
X487808D01*
Y233313D01*
X483744D01*
X498744D02*
Y237377D01*
X502808D01*
Y233313D01*
X498744D01*
X513744D02*
Y237377D01*
X517808D01*
Y233313D01*
X513744D01*
X528744D02*
Y237377D01*
X532808D01*
Y233313D01*
X528744D01*
X543744D02*
Y237377D01*
X547808D01*
Y233313D01*
X543744D01*
X558744D02*
Y237377D01*
X562808D01*
Y233313D01*
X558744D01*
X573744D02*
Y237377D01*
X577808D01*
Y233313D01*
X573744D01*
X588744D02*
Y237377D01*
X592808D01*
Y233313D01*
X588744D01*
X603744D02*
Y237377D01*
X607808D01*
Y233313D01*
X603744D01*
X618744D02*
Y237377D01*
X622808D01*
Y233313D01*
X618744D01*
X633744D02*
Y237377D01*
X637808D01*
Y233313D01*
X633744D01*
X648744D02*
Y237377D01*
X652808D01*
Y233313D01*
X648744D01*
X663744D02*
Y237377D01*
X667808D01*
Y233313D01*
X663744D01*
X678744D02*
Y237377D01*
X682808D01*
Y233313D01*
X678744D01*
X693744D02*
Y237377D01*
X697808D01*
Y233313D01*
X693744D01*
X708744D02*
Y237377D01*
X712808D01*
Y233313D01*
X708744D01*
X723744D02*
Y237377D01*
X727808D01*
Y233313D01*
X723744D01*
X738744D02*
Y237377D01*
X742808D01*
Y233313D01*
X738744D01*
X753744D02*
Y237377D01*
X757808D01*
Y233313D01*
X753744D01*
X768744D02*
Y237377D01*
X772808D01*
Y233313D01*
X768744D01*
X783744D02*
Y237377D01*
X787808D01*
Y233313D01*
X783744D01*
X798744D02*
Y237377D01*
X802808D01*
Y233313D01*
X798744D01*
X813744D02*
Y237377D01*
X817808D01*
Y233313D01*
X813744D01*
X828744D02*
Y237377D01*
X832808D01*
Y233313D01*
X828744D01*
X843744D02*
Y237377D01*
X847808D01*
Y233313D01*
X843744D01*
X858744D02*
Y237377D01*
X862808D01*
Y233313D01*
X858744D01*
X873744D02*
Y237377D01*
X877808D01*
Y233313D01*
X873744D01*
X888744D02*
Y237377D01*
X892808D01*
Y233313D01*
X888744D01*
X903744D02*
Y237377D01*
X907808D01*
Y233313D01*
X903744D01*
X918744D02*
Y237377D01*
X922808D01*
Y233313D01*
X918744D01*
X933744D02*
Y237377D01*
X937808D01*
Y233313D01*
X933744D01*
X948744D02*
Y237377D01*
X952808D01*
Y233313D01*
X948744D01*
X963744D02*
Y237377D01*
X967808D01*
Y233313D01*
X963744D01*
X978744D02*
Y237377D01*
X982808D01*
Y233313D01*
X978744D01*
X993744D02*
Y237377D01*
X997808D01*
Y233313D01*
X993744D01*
X1008744D02*
Y237377D01*
X1012808D01*
Y233313D01*
X1008744D01*
X1023744D02*
Y237377D01*
X1027808D01*
Y233313D01*
X1023744D01*
X1088968Y2496468D02*
Y2500532D01*
X1093032D01*
Y2496468D01*
X1088968D01*
Y2511468D02*
Y2515532D01*
X1093032D01*
Y2511468D01*
X1088968D01*
X1078968Y2503968D02*
Y2508032D01*
X1083032D01*
Y2503968D01*
X1078968D01*
X1068968Y2496468D02*
Y2500532D01*
X1073032D01*
Y2496468D01*
X1068968D01*
Y2511468D02*
Y2515532D01*
X1073032D01*
Y2511468D01*
X1068968D01*
X1058968Y2503968D02*
Y2508032D01*
X1063032D01*
Y2503968D01*
X1058968D01*
X1048968Y2496468D02*
Y2500532D01*
X1053032D01*
Y2496468D01*
X1048968D01*
Y2511468D02*
Y2515532D01*
X1053032D01*
Y2511468D01*
X1048968D01*
X1038968Y2578968D02*
Y2583032D01*
X1043032D01*
Y2578968D01*
X1038968D01*
X1028968D02*
Y2583032D01*
X1033032D01*
Y2578968D01*
X1028968D01*
X1018968D02*
Y2583032D01*
X1023032D01*
Y2578968D01*
X1018968D01*
Y2427168D02*
Y2431232D01*
X1023032D01*
Y2427168D01*
X1018968D01*
X1028968D02*
Y2431232D01*
X1033032D01*
Y2427168D01*
X1028968D01*
X1038968D02*
Y2431232D01*
X1043032D01*
Y2427168D01*
X1038968D01*
X57968Y2577968D02*
Y2582032D01*
X62032D01*
Y2577968D01*
X57968D01*
X67968D02*
Y2582032D01*
X72032D01*
Y2577968D01*
X67968D01*
X77968D02*
Y2582032D01*
X82032D01*
Y2577968D01*
X77968D01*
Y2426168D02*
Y2430232D01*
X82032D01*
Y2426168D01*
X77968D01*
X67968D02*
Y2430232D01*
X72032D01*
Y2426168D01*
X67968D01*
X57968D02*
Y2430232D01*
X62032D01*
Y2426168D01*
X57968D01*
X7968Y2495468D02*
Y2499532D01*
X12032D01*
Y2495468D01*
X7968D01*
Y2510468D02*
Y2514532D01*
X12032D01*
Y2510468D01*
X7968D01*
X17968Y2502968D02*
Y2507032D01*
X22032D01*
Y2502968D01*
X17968D01*
X27968Y2495468D02*
Y2499532D01*
X32032D01*
Y2495468D01*
X27968D01*
Y2510468D02*
Y2514532D01*
X32032D01*
Y2510468D01*
X27968D01*
X37968Y2502968D02*
Y2507032D01*
X42032D01*
Y2502968D01*
X37968D01*
X47968Y2495468D02*
Y2499532D01*
X52032D01*
Y2495468D01*
X47968D01*
Y2510468D02*
Y2514532D01*
X52032D01*
Y2510468D01*
X47968D01*
X307335Y2094718D02*
Y2098782D01*
X311399D01*
Y2094718D01*
X307335D01*
Y2111218D02*
Y2115282D01*
X311399D01*
Y2111218D01*
X307335D01*
X789968Y2094718D02*
Y2098782D01*
X794032D01*
Y2094718D01*
X789968D01*
Y2111218D02*
Y2115282D01*
X794032D01*
Y2111218D01*
X789968D01*
X797968Y2107468D02*
Y2111532D01*
X802032D01*
Y2107468D01*
X797968D01*
Y2098468D02*
Y2102532D01*
X802032D01*
Y2098468D01*
X797968D01*
X299335Y2107468D02*
Y2111532D01*
X303399D01*
Y2107468D01*
X299335D01*
Y2098468D02*
Y2102532D01*
X303399D01*
Y2098468D01*
X299335D01*
X797968Y1907468D02*
Y1911532D01*
X802032D01*
Y1907468D01*
X797968D01*
Y1898468D02*
Y1902532D01*
X802032D01*
Y1898468D01*
X797968D01*
X299335Y1907468D02*
Y1911532D01*
X303399D01*
Y1907468D01*
X299335D01*
Y1898468D02*
Y1902532D01*
X303399D01*
Y1898468D01*
X299335D01*
X1037968Y1652968D02*
Y1657032D01*
X1042032D01*
Y1652968D01*
X1037968D01*
Y1752968D02*
Y1757032D01*
X1042032D01*
Y1752968D01*
X1037968D01*
X56468Y1654468D02*
Y1658532D01*
X60532D01*
Y1654468D01*
X56468D01*
X57968Y1757968D02*
Y1762032D01*
X62032D01*
Y1757968D01*
X57968D01*
X81468Y1684468D02*
Y1688532D01*
X85532D01*
Y1684468D01*
X81468D01*
Y1714468D02*
Y1718532D01*
X85532D01*
Y1714468D01*
X81468D01*
Y1669468D02*
Y1673532D01*
X85532D01*
Y1669468D01*
X81468D01*
Y1729468D02*
Y1733532D01*
X85532D01*
Y1729468D01*
X81468D01*
X68968Y1661968D02*
Y1666032D01*
X73032D01*
Y1661968D01*
X68968D01*
Y1676968D02*
Y1681032D01*
X73032D01*
Y1676968D01*
X68968D01*
Y1691968D02*
Y1696032D01*
X73032D01*
Y1691968D01*
X68968D01*
Y1721968D02*
Y1726032D01*
X73032D01*
Y1721968D01*
X68968D01*
Y1736968D02*
Y1741032D01*
X73032D01*
Y1736968D01*
X68968D01*
X1048968Y2311468D02*
Y2315532D01*
X1053032D01*
Y2311468D01*
X1048968D01*
Y2296468D02*
Y2300532D01*
X1053032D01*
Y2296468D01*
X1048968D01*
X1058968Y2303968D02*
Y2308032D01*
X1063032D01*
Y2303968D01*
X1058968D01*
X1068968Y2311468D02*
Y2315532D01*
X1073032D01*
Y2311468D01*
X1068968D01*
Y2296468D02*
Y2300532D01*
X1073032D01*
Y2296468D01*
X1068968D01*
X1078968Y2303968D02*
Y2308032D01*
X1083032D01*
Y2303968D01*
X1078968D01*
X1088968Y2311468D02*
Y2315532D01*
X1093032D01*
Y2311468D01*
X1088968D01*
Y2296468D02*
Y2300532D01*
X1093032D01*
Y2296468D01*
X1088968D01*
X47968Y2310468D02*
Y2314532D01*
X52032D01*
Y2310468D01*
X47968D01*
Y2295468D02*
Y2299532D01*
X52032D01*
Y2295468D01*
X47968D01*
X37968Y2302968D02*
Y2307032D01*
X42032D01*
Y2302968D01*
X37968D01*
X27968Y2310468D02*
Y2314532D01*
X32032D01*
Y2310468D01*
X27968D01*
Y2295468D02*
Y2299532D01*
X32032D01*
Y2295468D01*
X27968D01*
X17968Y2302968D02*
Y2307032D01*
X22032D01*
Y2302968D01*
X17968D01*
X7968Y2310468D02*
Y2314532D01*
X12032D01*
Y2310468D01*
X7968D01*
Y2295468D02*
Y2299532D01*
X12032D01*
Y2295468D01*
X7968D01*
X47968Y2110468D02*
Y2114532D01*
X52032D01*
Y2110468D01*
X47968D01*
Y2095468D02*
Y2099532D01*
X52032D01*
Y2095468D01*
X47968D01*
X37968Y2102968D02*
Y2107032D01*
X42032D01*
Y2102968D01*
X37968D01*
X27968Y2110468D02*
Y2114532D01*
X32032D01*
Y2110468D01*
X27968D01*
Y2095468D02*
Y2099532D01*
X32032D01*
Y2095468D01*
X27968D01*
X17968Y2102968D02*
Y2107032D01*
X22032D01*
Y2102968D01*
X17968D01*
X7968Y2110468D02*
Y2114532D01*
X12032D01*
Y2110468D01*
X7968D01*
Y2095468D02*
Y2099532D01*
X12032D01*
Y2095468D01*
X7968D01*
X1048968Y2111468D02*
Y2115532D01*
X1053032D01*
Y2111468D01*
X1048968D01*
Y2096468D02*
Y2100532D01*
X1053032D01*
Y2096468D01*
X1048968D01*
X1058968Y2103968D02*
Y2108032D01*
X1063032D01*
Y2103968D01*
X1058968D01*
X1068968Y2111468D02*
Y2115532D01*
X1073032D01*
Y2111468D01*
X1068968D01*
Y2096468D02*
Y2100532D01*
X1073032D01*
Y2096468D01*
X1068968D01*
X1078968Y2103968D02*
Y2108032D01*
X1083032D01*
Y2103968D01*
X1078968D01*
X1088968Y2111468D02*
Y2115532D01*
X1093032D01*
Y2111468D01*
X1088968D01*
Y2096468D02*
Y2100532D01*
X1093032D01*
Y2096468D01*
X1088968D01*
X1048968Y1911468D02*
Y1915532D01*
X1053032D01*
Y1911468D01*
X1048968D01*
Y1896468D02*
Y1900532D01*
X1053032D01*
Y1896468D01*
X1048968D01*
X1058968Y1903968D02*
Y1908032D01*
X1063032D01*
Y1903968D01*
X1058968D01*
X1068968Y1911468D02*
Y1915532D01*
X1073032D01*
Y1911468D01*
X1068968D01*
Y1896468D02*
Y1900532D01*
X1073032D01*
Y1896468D01*
X1068968D01*
X1078968Y1903968D02*
Y1908032D01*
X1083032D01*
Y1903968D01*
X1078968D01*
X1088968Y1911468D02*
Y1915532D01*
X1093032D01*
Y1911468D01*
X1088968D01*
Y1896468D02*
Y1900532D01*
X1093032D01*
Y1896468D01*
X1088968D01*
X47968Y1910468D02*
Y1914532D01*
X52032D01*
Y1910468D01*
X47968D01*
Y1895468D02*
Y1899532D01*
X52032D01*
Y1895468D01*
X47968D01*
X37968Y1902968D02*
Y1907032D01*
X42032D01*
Y1902968D01*
X37968D01*
X27968Y1910468D02*
Y1914532D01*
X32032D01*
Y1910468D01*
X27968D01*
Y1895468D02*
Y1899532D01*
X32032D01*
Y1895468D01*
X27968D01*
X17968Y1902968D02*
Y1907032D01*
X22032D01*
Y1902968D01*
X17968D01*
X7968Y1910468D02*
Y1914532D01*
X12032D01*
Y1910468D01*
X7968D01*
Y1895468D02*
Y1899532D01*
X12032D01*
Y1895468D01*
X7968D01*
X1048968Y1511468D02*
Y1515532D01*
X1053032D01*
Y1511468D01*
X1048968D01*
Y1496468D02*
Y1500532D01*
X1053032D01*
Y1496468D01*
X1048968D01*
X1058968Y1503968D02*
Y1508032D01*
X1063032D01*
Y1503968D01*
X1058968D01*
X1068968Y1511468D02*
Y1515532D01*
X1073032D01*
Y1511468D01*
X1068968D01*
Y1496468D02*
Y1500532D01*
X1073032D01*
Y1496468D01*
X1068968D01*
X1078968Y1503968D02*
Y1508032D01*
X1083032D01*
Y1503968D01*
X1078968D01*
X1088968Y1511468D02*
Y1515532D01*
X1093032D01*
Y1511468D01*
X1088968D01*
Y1496468D02*
Y1500532D01*
X1093032D01*
Y1496468D01*
X1088968D01*
X7968Y1495468D02*
Y1499532D01*
X12032D01*
Y1495468D01*
X7968D01*
Y1510468D02*
Y1514532D01*
X12032D01*
Y1510468D01*
X7968D01*
X17968Y1502968D02*
Y1507032D01*
X22032D01*
Y1502968D01*
X17968D01*
X27968Y1495468D02*
Y1499532D01*
X32032D01*
Y1495468D01*
X27968D01*
Y1510468D02*
Y1514532D01*
X32032D01*
Y1510468D01*
X27968D01*
X37968Y1502968D02*
Y1507032D01*
X42032D01*
Y1502968D01*
X37968D01*
X47968Y1495468D02*
Y1499532D01*
X52032D01*
Y1495468D01*
X47968D01*
Y1510468D02*
Y1514532D01*
X52032D01*
Y1510468D01*
X47968D01*
X805968Y1165968D02*
Y1170032D01*
X810032D01*
Y1165968D01*
X805968D01*
Y1179968D02*
Y1184032D01*
X810032D01*
Y1179968D01*
X805968D01*
X289968Y1165968D02*
Y1170032D01*
X294032D01*
Y1165968D01*
X289968D01*
Y1179968D02*
Y1184032D01*
X294032D01*
Y1179968D01*
X289968D01*
X297968Y1172968D02*
Y1177032D01*
X302032D01*
Y1172968D01*
X297968D01*
X797968D02*
Y1177032D01*
X802032D01*
Y1172968D01*
X797968D01*
Y1022968D02*
Y1027032D01*
X802032D01*
Y1022968D01*
X797968D01*
X297968D02*
Y1027032D01*
X302032D01*
Y1022968D01*
X297968D01*
X57968Y1426168D02*
Y1430232D01*
X62032D01*
Y1426168D01*
X57968D01*
X67968D02*
Y1430232D01*
X72032D01*
Y1426168D01*
X67968D01*
X77968D02*
Y1430232D01*
X82032D01*
Y1426168D01*
X77968D01*
Y1577968D02*
Y1582032D01*
X82032D01*
Y1577968D01*
X77968D01*
X67968D02*
Y1582032D01*
X72032D01*
Y1577968D01*
X67968D01*
X57968D02*
Y1582032D01*
X62032D01*
Y1577968D01*
X57968D01*
X1037968Y2026168D02*
Y2030232D01*
X1042032D01*
Y2026168D01*
X1037968D01*
X1027968D02*
Y2030232D01*
X1032032D01*
Y2026168D01*
X1027968D01*
X1017968D02*
Y2030232D01*
X1022032D01*
Y2026168D01*
X1017968D01*
Y2177968D02*
Y2182032D01*
X1022032D01*
Y2177968D01*
X1017968D01*
X1027968D02*
Y2182032D01*
X1032032D01*
Y2177968D01*
X1027968D01*
X1037968D02*
Y2182032D01*
X1042032D01*
Y2177968D01*
X1037968D01*
Y2226168D02*
Y2230232D01*
X1042032D01*
Y2226168D01*
X1037968D01*
X1027968D02*
Y2230232D01*
X1032032D01*
Y2226168D01*
X1027968D01*
X1017968D02*
Y2230232D01*
X1022032D01*
Y2226168D01*
X1017968D01*
Y2377968D02*
Y2382032D01*
X1022032D01*
Y2377968D01*
X1017968D01*
X1027968D02*
Y2382032D01*
X1032032D01*
Y2377968D01*
X1027968D01*
X1037968D02*
Y2382032D01*
X1042032D01*
Y2377968D01*
X1037968D01*
X57968Y2226168D02*
Y2230232D01*
X62032D01*
Y2226168D01*
X57968D01*
X67968D02*
Y2230232D01*
X72032D01*
Y2226168D01*
X67968D01*
X77968D02*
Y2230232D01*
X82032D01*
Y2226168D01*
X77968D01*
Y2377968D02*
Y2382032D01*
X82032D01*
Y2377968D01*
X77968D01*
X67968D02*
Y2382032D01*
X72032D01*
Y2377968D01*
X67968D01*
X57968D02*
Y2382032D01*
X62032D01*
Y2377968D01*
X57968D01*
Y2026168D02*
Y2030232D01*
X62032D01*
Y2026168D01*
X57968D01*
X67968D02*
Y2030232D01*
X72032D01*
Y2026168D01*
X67968D01*
X77968D02*
Y2030232D01*
X82032D01*
Y2026168D01*
X77968D01*
Y2177968D02*
Y2182032D01*
X82032D01*
Y2177968D01*
X77968D01*
X67968D02*
Y2182032D01*
X72032D01*
Y2177968D01*
X67968D01*
X57968D02*
Y2182032D01*
X62032D01*
Y2177968D01*
X57968D01*
X1037968Y1787968D02*
Y1792032D01*
X1042032D01*
Y1787968D01*
X1037968D01*
Y1772968D02*
Y1777032D01*
X1042032D01*
Y1772968D01*
X1037968D01*
X1027968Y1737968D02*
Y1742032D01*
X1032032D01*
Y1737968D01*
X1027968D01*
Y1722968D02*
Y1727032D01*
X1032032D01*
Y1722968D01*
X1027968D01*
Y1692968D02*
Y1697032D01*
X1032032D01*
Y1692968D01*
X1027968D01*
Y1677968D02*
Y1682032D01*
X1032032D01*
Y1677968D01*
X1027968D01*
Y1662968D02*
Y1667032D01*
X1032032D01*
Y1662968D01*
X1027968D01*
X1037968Y1637968D02*
Y1642032D01*
X1042032D01*
Y1637968D01*
X1037968D01*
Y1617968D02*
Y1622032D01*
X1042032D01*
Y1617968D01*
X1037968D01*
X1082968Y1607968D02*
Y1612032D01*
X1087032D01*
Y1607968D01*
X1082968D01*
X1057968D02*
Y1612032D01*
X1062032D01*
Y1607968D01*
X1057968D01*
X1082968Y1702968D02*
Y1707032D01*
X1087032D01*
Y1702968D01*
X1082968D01*
X1057968D02*
Y1707032D01*
X1062032D01*
Y1702968D01*
X1057968D01*
X1025468Y1780468D02*
Y1784532D01*
X1029532D01*
Y1780468D01*
X1025468D01*
X1015468Y1730468D02*
Y1734532D01*
X1019532D01*
Y1730468D01*
X1015468D01*
Y1670468D02*
Y1674532D01*
X1019532D01*
Y1670468D01*
X1015468D01*
X1025468Y1630468D02*
Y1634532D01*
X1029532D01*
Y1630468D01*
X1025468D01*
Y1765468D02*
Y1769532D01*
X1029532D01*
Y1765468D01*
X1025468D01*
X1015468Y1715468D02*
Y1719532D01*
X1019532D01*
Y1715468D01*
X1015468D01*
Y1685468D02*
Y1689532D01*
X1019532D01*
Y1685468D01*
X1015468D01*
X1025468Y1610468D02*
Y1614532D01*
X1029532D01*
Y1610468D01*
X1025468D01*
X70468D02*
Y1614532D01*
X74532D01*
Y1610468D01*
X70468D01*
Y1765468D02*
Y1769532D01*
X74532D01*
Y1765468D01*
X70468D01*
Y1630468D02*
Y1634532D01*
X74532D01*
Y1630468D01*
X70468D01*
Y1780468D02*
Y1784532D01*
X74532D01*
Y1780468D01*
X70468D01*
X37968Y1702968D02*
Y1707032D01*
X42032D01*
Y1702968D01*
X37968D01*
X12968D02*
Y1707032D01*
X17032D01*
Y1702968D01*
X12968D01*
X37968Y1607968D02*
Y1612032D01*
X42032D01*
Y1607968D01*
X37968D01*
X12968D02*
Y1612032D01*
X17032D01*
Y1607968D01*
X12968D01*
X57968Y1617968D02*
Y1622032D01*
X62032D01*
Y1617968D01*
X57968D01*
Y1637968D02*
Y1642032D01*
X62032D01*
Y1637968D01*
X57968D01*
Y1772968D02*
Y1777032D01*
X62032D01*
Y1772968D01*
X57968D01*
Y1787968D02*
Y1792032D01*
X62032D01*
Y1787968D01*
X57968D01*
X1037968Y1977968D02*
Y1982032D01*
X1042032D01*
Y1977968D01*
X1037968D01*
X1027968D02*
Y1982032D01*
X1032032D01*
Y1977968D01*
X1027968D01*
X1017968D02*
Y1982032D01*
X1022032D01*
Y1977968D01*
X1017968D01*
Y1826168D02*
Y1830232D01*
X1022032D01*
Y1826168D01*
X1017968D01*
X1027968D02*
Y1830232D01*
X1032032D01*
Y1826168D01*
X1027968D01*
X1037968D02*
Y1830232D01*
X1042032D01*
Y1826168D01*
X1037968D01*
X57968Y1977968D02*
Y1982032D01*
X62032D01*
Y1977968D01*
X57968D01*
X67968D02*
Y1982032D01*
X72032D01*
Y1977968D01*
X67968D01*
X77968D02*
Y1982032D01*
X82032D01*
Y1977968D01*
X77968D01*
Y1826168D02*
Y1830232D01*
X82032D01*
Y1826168D01*
X77968D01*
X67968D02*
Y1830232D01*
X72032D01*
Y1826168D01*
X67968D01*
X57968D02*
Y1830232D01*
X62032D01*
Y1826168D01*
X57968D01*
X1037968Y1578968D02*
Y1583032D01*
X1042032D01*
Y1578968D01*
X1037968D01*
X1027968D02*
Y1583032D01*
X1032032D01*
Y1578968D01*
X1027968D01*
X1017968D02*
Y1583032D01*
X1022032D01*
Y1578968D01*
X1017968D01*
Y1427168D02*
Y1431232D01*
X1022032D01*
Y1427168D01*
X1017968D01*
X1027968D02*
Y1431232D01*
X1032032D01*
Y1427168D01*
X1027968D01*
X1037968D02*
Y1431232D01*
X1042032D01*
Y1427168D01*
X1037968D01*
X1082968Y1263968D02*
Y1268032D01*
X1087032D01*
Y1263968D01*
X1082968D01*
X1062968D02*
Y1268032D01*
X1067032D01*
Y1263968D01*
X1062968D01*
X1042968D02*
Y1268032D01*
X1047032D01*
Y1263968D01*
X1042968D01*
X1072968Y1278968D02*
Y1283032D01*
X1077032D01*
Y1278968D01*
X1072968D01*
X1052968D02*
Y1283032D01*
X1057032D01*
Y1278968D01*
X1052968D01*
X1032968D02*
Y1283032D01*
X1037032D01*
Y1278968D01*
X1032968D01*
Y1298968D02*
Y1303032D01*
X1037032D01*
Y1298968D01*
X1032968D01*
X1042968Y1288968D02*
Y1293032D01*
X1047032D01*
Y1288968D01*
X1042968D01*
Y1358968D02*
Y1363032D01*
X1047032D01*
Y1358968D01*
X1042968D01*
X1032968Y1348968D02*
Y1353032D01*
X1037032D01*
Y1348968D01*
X1032968D01*
Y1368968D02*
Y1373032D01*
X1037032D01*
Y1368968D01*
X1032968D01*
X1052968D02*
Y1373032D01*
X1057032D01*
Y1368968D01*
X1052968D01*
X1072968D02*
Y1373032D01*
X1077032D01*
Y1368968D01*
X1072968D01*
X1042968Y1383968D02*
Y1388032D01*
X1047032D01*
Y1383968D01*
X1042968D01*
X1062968D02*
Y1388032D01*
X1067032D01*
Y1383968D01*
X1062968D01*
X1082968D02*
Y1388032D01*
X1087032D01*
Y1383968D01*
X1082968D01*
Y1113968D02*
Y1118032D01*
X1087032D01*
Y1113968D01*
X1082968D01*
X1062968D02*
Y1118032D01*
X1067032D01*
Y1113968D01*
X1062968D01*
X1042968D02*
Y1118032D01*
X1047032D01*
Y1113968D01*
X1042968D01*
X1072968Y1128968D02*
Y1133032D01*
X1077032D01*
Y1128968D01*
X1072968D01*
X1052968D02*
Y1133032D01*
X1057032D01*
Y1128968D01*
X1052968D01*
X1032968D02*
Y1133032D01*
X1037032D01*
Y1128968D01*
X1032968D01*
Y1148968D02*
Y1153032D01*
X1037032D01*
Y1148968D01*
X1032968D01*
X1042968Y1138968D02*
Y1143032D01*
X1047032D01*
Y1138968D01*
X1042968D01*
Y1208968D02*
Y1213032D01*
X1047032D01*
Y1208968D01*
X1042968D01*
X1032968Y1198968D02*
Y1203032D01*
X1037032D01*
Y1198968D01*
X1032968D01*
Y1218968D02*
Y1223032D01*
X1037032D01*
Y1218968D01*
X1032968D01*
X1052968D02*
Y1223032D01*
X1057032D01*
Y1218968D01*
X1052968D01*
X1072968D02*
Y1223032D01*
X1077032D01*
Y1218968D01*
X1072968D01*
X1042968Y1233968D02*
Y1238032D01*
X1047032D01*
Y1233968D01*
X1042968D01*
X1062968D02*
Y1238032D01*
X1067032D01*
Y1233968D01*
X1062968D01*
X1082968D02*
Y1238032D01*
X1087032D01*
Y1233968D01*
X1082968D01*
Y963968D02*
Y968032D01*
X1087032D01*
Y963968D01*
X1082968D01*
X1062968D02*
Y968032D01*
X1067032D01*
Y963968D01*
X1062968D01*
X1042968D02*
Y968032D01*
X1047032D01*
Y963968D01*
X1042968D01*
X1072968Y978968D02*
Y983032D01*
X1077032D01*
Y978968D01*
X1072968D01*
X1052968D02*
Y983032D01*
X1057032D01*
Y978968D01*
X1052968D01*
X1032968D02*
Y983032D01*
X1037032D01*
Y978968D01*
X1032968D01*
Y998968D02*
Y1003032D01*
X1037032D01*
Y998968D01*
X1032968D01*
X1042968Y988968D02*
Y993032D01*
X1047032D01*
Y988968D01*
X1042968D01*
Y1058968D02*
Y1063032D01*
X1047032D01*
Y1058968D01*
X1042968D01*
X1032968Y1048968D02*
Y1053032D01*
X1037032D01*
Y1048968D01*
X1032968D01*
Y1068968D02*
Y1073032D01*
X1037032D01*
Y1068968D01*
X1032968D01*
X1052968D02*
Y1073032D01*
X1057032D01*
Y1068968D01*
X1052968D01*
X1072968D02*
Y1073032D01*
X1077032D01*
Y1068968D01*
X1072968D01*
X1042968Y1083968D02*
Y1088032D01*
X1047032D01*
Y1083968D01*
X1042968D01*
X1062968D02*
Y1088032D01*
X1067032D01*
Y1083968D01*
X1062968D01*
X1082968D02*
Y1088032D01*
X1087032D01*
Y1083968D01*
X1082968D01*
X12968Y1382968D02*
Y1387032D01*
X17032D01*
Y1382968D01*
X12968D01*
X32968D02*
Y1387032D01*
X37032D01*
Y1382968D01*
X32968D01*
X52968D02*
Y1387032D01*
X57032D01*
Y1382968D01*
X52968D01*
X22968Y1367968D02*
Y1372032D01*
X27032D01*
Y1367968D01*
X22968D01*
X42968D02*
Y1372032D01*
X47032D01*
Y1367968D01*
X42968D01*
X62968D02*
Y1372032D01*
X67032D01*
Y1367968D01*
X62968D01*
Y1347968D02*
Y1352032D01*
X67032D01*
Y1347968D01*
X62968D01*
X52968Y1357968D02*
Y1362032D01*
X57032D01*
Y1357968D01*
X52968D01*
Y1287968D02*
Y1292032D01*
X57032D01*
Y1287968D01*
X52968D01*
X62968Y1297968D02*
Y1302032D01*
X67032D01*
Y1297968D01*
X62968D01*
Y1277968D02*
Y1282032D01*
X67032D01*
Y1277968D01*
X62968D01*
X42968D02*
Y1282032D01*
X47032D01*
Y1277968D01*
X42968D01*
X22968D02*
Y1282032D01*
X27032D01*
Y1277968D01*
X22968D01*
X52968Y1262968D02*
Y1267032D01*
X57032D01*
Y1262968D01*
X52968D01*
X32968D02*
Y1267032D01*
X37032D01*
Y1262968D01*
X32968D01*
X12968D02*
Y1267032D01*
X17032D01*
Y1262968D01*
X12968D01*
Y1232968D02*
Y1237032D01*
X17032D01*
Y1232968D01*
X12968D01*
X32968D02*
Y1237032D01*
X37032D01*
Y1232968D01*
X32968D01*
X52968D02*
Y1237032D01*
X57032D01*
Y1232968D01*
X52968D01*
X22968Y1217968D02*
Y1222032D01*
X27032D01*
Y1217968D01*
X22968D01*
X42968D02*
Y1222032D01*
X47032D01*
Y1217968D01*
X42968D01*
X62968D02*
Y1222032D01*
X67032D01*
Y1217968D01*
X62968D01*
Y1197968D02*
Y1202032D01*
X67032D01*
Y1197968D01*
X62968D01*
X52968Y1207968D02*
Y1212032D01*
X57032D01*
Y1207968D01*
X52968D01*
Y1137968D02*
Y1142032D01*
X57032D01*
Y1137968D01*
X52968D01*
X62968Y1147968D02*
Y1152032D01*
X67032D01*
Y1147968D01*
X62968D01*
Y1127968D02*
Y1132032D01*
X67032D01*
Y1127968D01*
X62968D01*
X42968D02*
Y1132032D01*
X47032D01*
Y1127968D01*
X42968D01*
X22968D02*
Y1132032D01*
X27032D01*
Y1127968D01*
X22968D01*
X52968Y1112968D02*
Y1117032D01*
X57032D01*
Y1112968D01*
X52968D01*
X32968D02*
Y1117032D01*
X37032D01*
Y1112968D01*
X32968D01*
X12968D02*
Y1117032D01*
X17032D01*
Y1112968D01*
X12968D01*
Y1082968D02*
Y1087032D01*
X17032D01*
Y1082968D01*
X12968D01*
X32968D02*
Y1087032D01*
X37032D01*
Y1082968D01*
X32968D01*
X52968D02*
Y1087032D01*
X57032D01*
Y1082968D01*
X52968D01*
X22968Y1067968D02*
Y1072032D01*
X27032D01*
Y1067968D01*
X22968D01*
X42968D02*
Y1072032D01*
X47032D01*
Y1067968D01*
X42968D01*
X62968D02*
Y1072032D01*
X67032D01*
Y1067968D01*
X62968D01*
Y1047968D02*
Y1052032D01*
X67032D01*
Y1047968D01*
X62968D01*
X52968Y1057968D02*
Y1062032D01*
X57032D01*
Y1057968D01*
X52968D01*
Y987968D02*
Y992032D01*
X57032D01*
Y987968D01*
X52968D01*
X62968Y997968D02*
Y1002032D01*
X67032D01*
Y997968D01*
X62968D01*
Y977968D02*
Y982032D01*
X67032D01*
Y977968D01*
X62968D01*
X42968D02*
Y982032D01*
X47032D01*
Y977968D01*
X42968D01*
X22968D02*
Y982032D01*
X27032D01*
Y977968D01*
X22968D01*
X52968Y962968D02*
Y967032D01*
X57032D01*
Y962968D01*
X52968D01*
X32968D02*
Y967032D01*
X37032D01*
Y962968D01*
X32968D01*
X12968D02*
Y967032D01*
X17032D01*
Y962968D01*
X12968D01*
X1082968Y588968D02*
Y593032D01*
X1087032D01*
Y588968D01*
X1082968D01*
X1062968D02*
Y593032D01*
X1067032D01*
Y588968D01*
X1062968D01*
X1042968D02*
Y593032D01*
X1047032D01*
Y588968D01*
X1042968D01*
X1072968Y603968D02*
Y608032D01*
X1077032D01*
Y603968D01*
X1072968D01*
X1052968D02*
Y608032D01*
X1057032D01*
Y603968D01*
X1052968D01*
X1032968D02*
Y608032D01*
X1037032D01*
Y603968D01*
X1032968D01*
Y623968D02*
Y628032D01*
X1037032D01*
Y623968D01*
X1032968D01*
X1042968Y613968D02*
Y618032D01*
X1047032D01*
Y613968D01*
X1042968D01*
Y683968D02*
Y688032D01*
X1047032D01*
Y683968D01*
X1042968D01*
X1032968Y673968D02*
Y678032D01*
X1037032D01*
Y673968D01*
X1032968D01*
Y693968D02*
Y698032D01*
X1037032D01*
Y693968D01*
X1032968D01*
X1052968D02*
Y698032D01*
X1057032D01*
Y693968D01*
X1052968D01*
X1072968D02*
Y698032D01*
X1077032D01*
Y693968D01*
X1072968D01*
X1042968Y708968D02*
Y713032D01*
X1047032D01*
Y708968D01*
X1042968D01*
X1062968D02*
Y713032D01*
X1067032D01*
Y708968D01*
X1062968D01*
X1082968D02*
Y713032D01*
X1087032D01*
Y708968D01*
X1082968D01*
X1042968Y663968D02*
Y668032D01*
X1047032D01*
Y663968D01*
X1042968D01*
Y633968D02*
Y638032D01*
X1047032D01*
Y633968D01*
X1042968D01*
X1082968Y788968D02*
Y793032D01*
X1087032D01*
Y788968D01*
X1082968D01*
X1062968D02*
Y793032D01*
X1067032D01*
Y788968D01*
X1062968D01*
X1042968D02*
Y793032D01*
X1047032D01*
Y788968D01*
X1042968D01*
X1072968Y803968D02*
Y808032D01*
X1077032D01*
Y803968D01*
X1072968D01*
X1052968D02*
Y808032D01*
X1057032D01*
Y803968D01*
X1052968D01*
X1032968D02*
Y808032D01*
X1037032D01*
Y803968D01*
X1032968D01*
Y823968D02*
Y828032D01*
X1037032D01*
Y823968D01*
X1032968D01*
X1042968Y813968D02*
Y818032D01*
X1047032D01*
Y813968D01*
X1042968D01*
Y883968D02*
Y888032D01*
X1047032D01*
Y883968D01*
X1042968D01*
X1032968Y873968D02*
Y878032D01*
X1037032D01*
Y873968D01*
X1032968D01*
Y893968D02*
Y898032D01*
X1037032D01*
Y893968D01*
X1032968D01*
X1052968D02*
Y898032D01*
X1057032D01*
Y893968D01*
X1052968D01*
X1072968D02*
Y898032D01*
X1077032D01*
Y893968D01*
X1072968D01*
X1042968Y908968D02*
Y913032D01*
X1047032D01*
Y908968D01*
X1042968D01*
X1062968D02*
Y913032D01*
X1067032D01*
Y908968D01*
X1062968D01*
X1082968D02*
Y913032D01*
X1087032D01*
Y908968D01*
X1082968D01*
X1042968Y863968D02*
Y868032D01*
X1047032D01*
Y863968D01*
X1042968D01*
Y833968D02*
Y838032D01*
X1047032D01*
Y833968D01*
X1042968D01*
X13968Y787968D02*
Y792032D01*
X18032D01*
Y787968D01*
X13968D01*
X33968D02*
Y792032D01*
X38032D01*
Y787968D01*
X33968D01*
X53968D02*
Y792032D01*
X58032D01*
Y787968D01*
X53968D01*
X23968Y802968D02*
Y807032D01*
X28032D01*
Y802968D01*
X23968D01*
X43968D02*
Y807032D01*
X48032D01*
Y802968D01*
X43968D01*
X63968D02*
Y807032D01*
X68032D01*
Y802968D01*
X63968D01*
Y822968D02*
Y827032D01*
X68032D01*
Y822968D01*
X63968D01*
X53968Y812968D02*
Y817032D01*
X58032D01*
Y812968D01*
X53968D01*
Y882968D02*
Y887032D01*
X58032D01*
Y882968D01*
X53968D01*
X63968Y872968D02*
Y877032D01*
X68032D01*
Y872968D01*
X63968D01*
Y892968D02*
Y897032D01*
X68032D01*
Y892968D01*
X63968D01*
X43968D02*
Y897032D01*
X48032D01*
Y892968D01*
X43968D01*
X23968D02*
Y897032D01*
X28032D01*
Y892968D01*
X23968D01*
X53968Y907968D02*
Y912032D01*
X58032D01*
Y907968D01*
X53968D01*
X33968D02*
Y912032D01*
X38032D01*
Y907968D01*
X33968D01*
X13968D02*
Y912032D01*
X18032D01*
Y907968D01*
X13968D01*
X53968Y862968D02*
Y867032D01*
X58032D01*
Y862968D01*
X53968D01*
Y832968D02*
Y837032D01*
X58032D01*
Y832968D01*
X53968D01*
X13968Y587968D02*
Y592032D01*
X18032D01*
Y587968D01*
X13968D01*
X33968D02*
Y592032D01*
X38032D01*
Y587968D01*
X33968D01*
X53968D02*
Y592032D01*
X58032D01*
Y587968D01*
X53968D01*
X23968Y602968D02*
Y607032D01*
X28032D01*
Y602968D01*
X23968D01*
X43968D02*
Y607032D01*
X48032D01*
Y602968D01*
X43968D01*
X63968D02*
Y607032D01*
X68032D01*
Y602968D01*
X63968D01*
Y622968D02*
Y627032D01*
X68032D01*
Y622968D01*
X63968D01*
X53968Y612968D02*
Y617032D01*
X58032D01*
Y612968D01*
X53968D01*
Y682968D02*
Y687032D01*
X58032D01*
Y682968D01*
X53968D01*
X63968Y672968D02*
Y677032D01*
X68032D01*
Y672968D01*
X63968D01*
Y692968D02*
Y697032D01*
X68032D01*
Y692968D01*
X63968D01*
X43968D02*
Y697032D01*
X48032D01*
Y692968D01*
X43968D01*
X23968D02*
Y697032D01*
X28032D01*
Y692968D01*
X23968D01*
X53968Y707968D02*
Y712032D01*
X58032D01*
Y707968D01*
X53968D01*
X33968D02*
Y712032D01*
X38032D01*
Y707968D01*
X33968D01*
X13968D02*
Y712032D01*
X18032D01*
Y707968D01*
X13968D01*
X53968Y662968D02*
Y667032D01*
X58032D01*
Y662968D01*
X53968D01*
Y632968D02*
Y637032D01*
X58032D01*
Y632968D01*
X53968D01*
X13968Y387968D02*
Y392032D01*
X18032D01*
Y387968D01*
X13968D01*
X33968D02*
Y392032D01*
X38032D01*
Y387968D01*
X33968D01*
X53968D02*
Y392032D01*
X58032D01*
Y387968D01*
X53968D01*
X23968Y402968D02*
Y407032D01*
X28032D01*
Y402968D01*
X23968D01*
X43968D02*
Y407032D01*
X48032D01*
Y402968D01*
X43968D01*
X63968D02*
Y407032D01*
X68032D01*
Y402968D01*
X63968D01*
Y422968D02*
Y427032D01*
X68032D01*
Y422968D01*
X63968D01*
X53968Y412968D02*
Y417032D01*
X58032D01*
Y412968D01*
X53968D01*
Y482968D02*
Y487032D01*
X58032D01*
Y482968D01*
X53968D01*
X63968Y472968D02*
Y477032D01*
X68032D01*
Y472968D01*
X63968D01*
Y492968D02*
Y497032D01*
X68032D01*
Y492968D01*
X63968D01*
X43968D02*
Y497032D01*
X48032D01*
Y492968D01*
X43968D01*
X23968D02*
Y497032D01*
X28032D01*
Y492968D01*
X23968D01*
X53968Y507968D02*
Y512032D01*
X58032D01*
Y507968D01*
X53968D01*
X33968D02*
Y512032D01*
X38032D01*
Y507968D01*
X33968D01*
X13968D02*
Y512032D01*
X18032D01*
Y507968D01*
X13968D01*
X53968Y462968D02*
Y467032D01*
X58032D01*
Y462968D01*
X53968D01*
Y432968D02*
Y437032D01*
X58032D01*
Y432968D01*
X53968D01*
X13968Y187968D02*
Y192032D01*
X18032D01*
Y187968D01*
X13968D01*
X33968D02*
Y192032D01*
X38032D01*
Y187968D01*
X33968D01*
X53968D02*
Y192032D01*
X58032D01*
Y187968D01*
X53968D01*
X23968Y202968D02*
Y207032D01*
X28032D01*
Y202968D01*
X23968D01*
X43968D02*
Y207032D01*
X48032D01*
Y202968D01*
X43968D01*
X63968D02*
Y207032D01*
X68032D01*
Y202968D01*
X63968D01*
Y222968D02*
Y227032D01*
X68032D01*
Y222968D01*
X63968D01*
X53968Y212968D02*
Y217032D01*
X58032D01*
Y212968D01*
X53968D01*
Y282968D02*
Y287032D01*
X58032D01*
Y282968D01*
X53968D01*
X63968Y272968D02*
Y277032D01*
X68032D01*
Y272968D01*
X63968D01*
Y292968D02*
Y297032D01*
X68032D01*
Y292968D01*
X63968D01*
X43968D02*
Y297032D01*
X48032D01*
Y292968D01*
X43968D01*
X23968D02*
Y297032D01*
X28032D01*
Y292968D01*
X23968D01*
X53968Y307968D02*
Y312032D01*
X58032D01*
Y307968D01*
X53968D01*
X33968D02*
Y312032D01*
X38032D01*
Y307968D01*
X33968D01*
X13968D02*
Y312032D01*
X18032D01*
Y307968D01*
X13968D01*
X53968Y262968D02*
Y267032D01*
X58032D01*
Y262968D01*
X53968D01*
Y232968D02*
Y237032D01*
X58032D01*
Y232968D01*
X53968D01*
X1082968Y188968D02*
Y193032D01*
X1087032D01*
Y188968D01*
X1082968D01*
X1062968D02*
Y193032D01*
X1067032D01*
Y188968D01*
X1062968D01*
X1042968D02*
Y193032D01*
X1047032D01*
Y188968D01*
X1042968D01*
X1072968Y203968D02*
Y208032D01*
X1077032D01*
Y203968D01*
X1072968D01*
X1052968D02*
Y208032D01*
X1057032D01*
Y203968D01*
X1052968D01*
X1032968D02*
Y208032D01*
X1037032D01*
Y203968D01*
X1032968D01*
Y223968D02*
Y228032D01*
X1037032D01*
Y223968D01*
X1032968D01*
X1042968Y213968D02*
Y218032D01*
X1047032D01*
Y213968D01*
X1042968D01*
Y283968D02*
Y288032D01*
X1047032D01*
Y283968D01*
X1042968D01*
X1032968Y273968D02*
Y278032D01*
X1037032D01*
Y273968D01*
X1032968D01*
Y293968D02*
Y298032D01*
X1037032D01*
Y293968D01*
X1032968D01*
X1052968D02*
Y298032D01*
X1057032D01*
Y293968D01*
X1052968D01*
X1072968D02*
Y298032D01*
X1077032D01*
Y293968D01*
X1072968D01*
X1042968Y308968D02*
Y313032D01*
X1047032D01*
Y308968D01*
X1042968D01*
X1062968D02*
Y313032D01*
X1067032D01*
Y308968D01*
X1062968D01*
X1082968D02*
Y313032D01*
X1087032D01*
Y308968D01*
X1082968D01*
X1042968Y263968D02*
Y268032D01*
X1047032D01*
Y263968D01*
X1042968D01*
Y233968D02*
Y238032D01*
X1047032D01*
Y233968D01*
X1042968D01*
Y433968D02*
Y438032D01*
X1047032D01*
Y433968D01*
X1042968D01*
Y463968D02*
Y468032D01*
X1047032D01*
Y463968D01*
X1042968D01*
X1082968Y508968D02*
Y513032D01*
X1087032D01*
Y508968D01*
X1082968D01*
X1062968D02*
Y513032D01*
X1067032D01*
Y508968D01*
X1062968D01*
X1042968D02*
Y513032D01*
X1047032D01*
Y508968D01*
X1042968D01*
X1072968Y493968D02*
Y498032D01*
X1077032D01*
Y493968D01*
X1072968D01*
X1052968D02*
Y498032D01*
X1057032D01*
Y493968D01*
X1052968D01*
X1032968D02*
Y498032D01*
X1037032D01*
Y493968D01*
X1032968D01*
Y473968D02*
Y478032D01*
X1037032D01*
Y473968D01*
X1032968D01*
X1042968Y483968D02*
Y488032D01*
X1047032D01*
Y483968D01*
X1042968D01*
Y413968D02*
Y418032D01*
X1047032D01*
Y413968D01*
X1042968D01*
X1032968Y423968D02*
Y428032D01*
X1037032D01*
Y423968D01*
X1032968D01*
Y403968D02*
Y408032D01*
X1037032D01*
Y403968D01*
X1032968D01*
X1052968D02*
Y408032D01*
X1057032D01*
Y403968D01*
X1052968D01*
X1072968D02*
Y408032D01*
X1077032D01*
Y403968D01*
X1072968D01*
X1042968Y388968D02*
Y393032D01*
X1047032D01*
Y388968D01*
X1042968D01*
X1062968D02*
Y393032D01*
X1067032D01*
Y388968D01*
X1062968D01*
X1082968D02*
Y393032D01*
X1087032D01*
Y388968D01*
X1082968D01*
Y132968D02*
Y137032D01*
X1087032D01*
Y132968D01*
X1082968D01*
X1062968D02*
Y137032D01*
X1067032D01*
Y132968D01*
X1062968D01*
X1042968D02*
Y137032D01*
X1047032D01*
Y132968D01*
X1042968D01*
X1072968Y117968D02*
Y122032D01*
X1077032D01*
Y117968D01*
X1072968D01*
X1052968D02*
Y122032D01*
X1057032D01*
Y117968D01*
X1052968D01*
X1032968D02*
Y122032D01*
X1037032D01*
Y117968D01*
X1032968D01*
Y97968D02*
Y102032D01*
X1037032D01*
Y97968D01*
X1032968D01*
X1042968Y107968D02*
Y112032D01*
X1047032D01*
Y107968D01*
X1042968D01*
Y37968D02*
Y42032D01*
X1047032D01*
Y37968D01*
X1042968D01*
X1032968Y47968D02*
Y52032D01*
X1037032D01*
Y47968D01*
X1032968D01*
Y27968D02*
Y32032D01*
X1037032D01*
Y27968D01*
X1032968D01*
X1052968D02*
Y32032D01*
X1057032D01*
Y27968D01*
X1052968D01*
X1072968D02*
Y32032D01*
X1077032D01*
Y27968D01*
X1072968D01*
X1042968Y12968D02*
Y17032D01*
X1047032D01*
Y12968D01*
X1042968D01*
X1062968D02*
Y17032D01*
X1067032D01*
Y12968D01*
X1062968D01*
X1082968D02*
Y17032D01*
X1087032D01*
Y12968D01*
X1082968D01*
X12968D02*
Y17032D01*
X17032D01*
Y12968D01*
X12968D01*
X32968D02*
Y17032D01*
X37032D01*
Y12968D01*
X32968D01*
X52968D02*
Y17032D01*
X57032D01*
Y12968D01*
X52968D01*
X22968Y27968D02*
Y32032D01*
X27032D01*
Y27968D01*
X22968D01*
X42968D02*
Y32032D01*
X47032D01*
Y27968D01*
X42968D01*
X62968D02*
Y32032D01*
X67032D01*
Y27968D01*
X62968D01*
Y47968D02*
Y52032D01*
X67032D01*
Y47968D01*
X62968D01*
X52968Y37968D02*
Y42032D01*
X57032D01*
Y37968D01*
X52968D01*
Y107968D02*
Y112032D01*
X57032D01*
Y107968D01*
X52968D01*
X62968Y97968D02*
Y102032D01*
X67032D01*
Y97968D01*
X62968D01*
Y117968D02*
Y122032D01*
X67032D01*
Y117968D01*
X62968D01*
X42968D02*
Y122032D01*
X47032D01*
Y117968D01*
X42968D01*
X22968D02*
Y122032D01*
X27032D01*
Y117968D01*
X22968D01*
X52968Y132968D02*
Y137032D01*
X57032D01*
Y132968D01*
X52968D01*
X32968D02*
Y137032D01*
X37032D01*
Y132968D01*
X32968D01*
X12968D02*
Y137032D01*
X17032D01*
Y132968D01*
X12968D01*
M02*
