G04*
G04 #@! TF.GenerationSoftware,Altium Limited,Altium Designer,26.3.0 (6)*
G04*
G04 Layer_Color=16711935*
%FSLAX44Y44*%
%MOMM*%
G71*
G04*
G04 #@! TF.SameCoordinates,CC5576EB-6972-46C7-92A3-5A6C56D054FB*
G04*
G04*
G04 #@! TF.FilePolarity,Positive*
G04*
G01*
G75*
%ADD13C,0.2000*%
%ADD28C,0.3810*%
%ADD29C,0.0254*%
%ADD30C,0.2540*%
G36*
X1187143Y1265978D02*
X1187476Y1265941D01*
X1187884Y1265904D01*
X1188291Y1265867D01*
X1188772Y1265756D01*
X1189772Y1265534D01*
X1190883Y1265201D01*
X1191439Y1264978D01*
X1191957Y1264719D01*
X1192476Y1264386D01*
X1192994Y1264053D01*
X1193031Y1264016D01*
X1193105Y1263979D01*
X1193253Y1263867D01*
X1193439Y1263682D01*
X1193624Y1263497D01*
X1193883Y1263238D01*
X1194142Y1262942D01*
X1194438Y1262645D01*
X1194735Y1262275D01*
X1195031Y1261831D01*
X1195364Y1261386D01*
X1195661Y1260905D01*
X1195920Y1260349D01*
X1196216Y1259794D01*
X1196438Y1259201D01*
X1196661Y1258535D01*
X1193327Y1257757D01*
Y1257794D01*
X1193290Y1257868D01*
X1193216Y1258016D01*
X1193142Y1258201D01*
X1193068Y1258423D01*
X1192957Y1258720D01*
X1192661Y1259312D01*
X1192291Y1259979D01*
X1191846Y1260646D01*
X1191291Y1261275D01*
X1190698Y1261831D01*
X1190624Y1261905D01*
X1190402Y1262053D01*
X1190032Y1262238D01*
X1189550Y1262497D01*
X1188921Y1262719D01*
X1188217Y1262942D01*
X1187365Y1263090D01*
X1186439Y1263127D01*
X1186143D01*
X1185958Y1263090D01*
X1185699D01*
X1185402Y1263053D01*
X1184699Y1262942D01*
X1183921Y1262793D01*
X1183106Y1262534D01*
X1182255Y1262164D01*
X1181477Y1261682D01*
X1181440D01*
X1181403Y1261608D01*
X1181144Y1261423D01*
X1180810Y1261127D01*
X1180403Y1260683D01*
X1179921Y1260127D01*
X1179477Y1259498D01*
X1179070Y1258720D01*
X1178699Y1257868D01*
Y1257831D01*
X1178662Y1257757D01*
X1178625Y1257646D01*
X1178588Y1257461D01*
X1178514Y1257238D01*
X1178440Y1256979D01*
X1178329Y1256350D01*
X1178181Y1255609D01*
X1178033Y1254794D01*
X1177959Y1253905D01*
X1177922Y1252943D01*
Y1252906D01*
Y1252794D01*
Y1252609D01*
Y1252387D01*
X1177959Y1252128D01*
Y1251795D01*
X1177996Y1251424D01*
X1178033Y1251017D01*
X1178144Y1250128D01*
X1178329Y1249165D01*
X1178551Y1248202D01*
X1178848Y1247240D01*
Y1247202D01*
X1178885Y1247128D01*
X1178959Y1247017D01*
X1179033Y1246832D01*
X1179255Y1246388D01*
X1179588Y1245869D01*
X1179995Y1245277D01*
X1180514Y1244647D01*
X1181106Y1244092D01*
X1181810Y1243573D01*
X1181847D01*
X1181921Y1243536D01*
X1182032Y1243462D01*
X1182180Y1243388D01*
X1182366Y1243314D01*
X1182588Y1243203D01*
X1183106Y1242981D01*
X1183773Y1242758D01*
X1184514Y1242573D01*
X1185328Y1242425D01*
X1186180Y1242388D01*
X1186439D01*
X1186662Y1242425D01*
X1186921D01*
X1187180Y1242462D01*
X1187847Y1242610D01*
X1188624Y1242795D01*
X1189402Y1243092D01*
X1190217Y1243499D01*
X1190624Y1243721D01*
X1190994Y1244018D01*
X1191031Y1244055D01*
X1191068Y1244092D01*
X1191180Y1244203D01*
X1191328Y1244314D01*
X1191476Y1244499D01*
X1191661Y1244721D01*
X1191883Y1244943D01*
X1192068Y1245240D01*
X1192291Y1245573D01*
X1192550Y1245943D01*
X1192772Y1246314D01*
X1192994Y1246758D01*
X1193179Y1247240D01*
X1193364Y1247758D01*
X1193550Y1248313D01*
X1193698Y1248906D01*
X1197105Y1248054D01*
Y1248017D01*
X1197068Y1247869D01*
X1196994Y1247647D01*
X1196883Y1247351D01*
X1196772Y1247017D01*
X1196623Y1246610D01*
X1196438Y1246165D01*
X1196216Y1245684D01*
X1195698Y1244647D01*
X1195031Y1243610D01*
X1194624Y1243092D01*
X1194216Y1242573D01*
X1193772Y1242129D01*
X1193253Y1241684D01*
X1193216Y1241647D01*
X1193142Y1241573D01*
X1192957Y1241499D01*
X1192772Y1241351D01*
X1192476Y1241166D01*
X1192179Y1240981D01*
X1191772Y1240796D01*
X1191365Y1240611D01*
X1190883Y1240388D01*
X1190365Y1240203D01*
X1189809Y1240018D01*
X1189217Y1239833D01*
X1188587Y1239685D01*
X1187921Y1239611D01*
X1187217Y1239537D01*
X1186476Y1239500D01*
X1186069D01*
X1185773Y1239537D01*
X1185439D01*
X1185032Y1239574D01*
X1184588Y1239648D01*
X1184069Y1239722D01*
X1182995Y1239907D01*
X1181884Y1240203D01*
X1180773Y1240611D01*
X1180255Y1240870D01*
X1179736Y1241166D01*
X1179699Y1241203D01*
X1179625Y1241240D01*
X1179477Y1241351D01*
X1179329Y1241499D01*
X1179107Y1241647D01*
X1178848Y1241870D01*
X1178551Y1242129D01*
X1178255Y1242425D01*
X1177959Y1242758D01*
X1177625Y1243092D01*
X1176959Y1243943D01*
X1176329Y1244943D01*
X1175774Y1246054D01*
Y1246091D01*
X1175700Y1246202D01*
X1175663Y1246388D01*
X1175552Y1246610D01*
X1175478Y1246906D01*
X1175366Y1247277D01*
X1175218Y1247684D01*
X1175107Y1248128D01*
X1174996Y1248610D01*
X1174848Y1249165D01*
X1174663Y1250313D01*
X1174515Y1251609D01*
X1174441Y1252943D01*
Y1252980D01*
Y1253128D01*
Y1253350D01*
X1174478Y1253609D01*
Y1253979D01*
X1174515Y1254350D01*
X1174552Y1254831D01*
X1174626Y1255313D01*
X1174811Y1256387D01*
X1175070Y1257572D01*
X1175440Y1258757D01*
X1175959Y1259905D01*
X1175996Y1259942D01*
X1176033Y1260053D01*
X1176107Y1260201D01*
X1176255Y1260386D01*
X1176403Y1260646D01*
X1176589Y1260942D01*
X1177070Y1261608D01*
X1177700Y1262349D01*
X1178440Y1263090D01*
X1179292Y1263830D01*
X1180292Y1264460D01*
X1180329Y1264497D01*
X1180440Y1264534D01*
X1180588Y1264608D01*
X1180773Y1264719D01*
X1181069Y1264830D01*
X1181366Y1264941D01*
X1181736Y1265089D01*
X1182143Y1265238D01*
X1182588Y1265386D01*
X1183069Y1265534D01*
X1184106Y1265756D01*
X1185291Y1265941D01*
X1186513Y1266015D01*
X1186884D01*
X1187143Y1265978D01*
D02*
G37*
G36*
X1171589Y1247647D02*
X1161849D01*
Y1250795D01*
X1171589D01*
Y1247647D01*
D02*
G37*
G36*
X1150443Y1239944D02*
X1146888D01*
X1136963Y1265571D01*
X1140666D01*
X1147332Y1246943D01*
Y1246906D01*
X1147369Y1246832D01*
X1147406Y1246721D01*
X1147480Y1246573D01*
X1147517Y1246351D01*
X1147591Y1246128D01*
X1147777Y1245573D01*
X1147999Y1244943D01*
X1148221Y1244240D01*
X1148665Y1242758D01*
Y1242795D01*
X1148702Y1242869D01*
X1148739Y1242981D01*
X1148776Y1243129D01*
X1148888Y1243536D01*
X1149073Y1244092D01*
X1149258Y1244721D01*
X1149480Y1245425D01*
X1149739Y1246165D01*
X1150036Y1246943D01*
X1156998Y1265571D01*
X1160442D01*
X1150443Y1239944D01*
D02*
G37*
G36*
X1215881Y1239944D02*
X1213066D01*
Y1242647D01*
X1213029Y1242610D01*
X1212955Y1242499D01*
X1212844Y1242351D01*
X1212659Y1242166D01*
X1212437Y1241944D01*
X1212177Y1241647D01*
X1211881Y1241388D01*
X1211511Y1241092D01*
X1211103Y1240796D01*
X1210659Y1240536D01*
X1210178Y1240277D01*
X1209659Y1240018D01*
X1209067Y1239833D01*
X1208474Y1239685D01*
X1207807Y1239574D01*
X1207141Y1239537D01*
X1206882D01*
X1206548Y1239574D01*
X1206141Y1239611D01*
X1205659Y1239685D01*
X1205141Y1239796D01*
X1204623Y1239944D01*
X1204067Y1240166D01*
X1203993Y1240203D01*
X1203845Y1240277D01*
X1203586Y1240425D01*
X1203289Y1240611D01*
X1202919Y1240833D01*
X1202586Y1241092D01*
X1202253Y1241388D01*
X1201956Y1241721D01*
X1201919Y1241759D01*
X1201845Y1241907D01*
X1201734Y1242092D01*
X1201586Y1242388D01*
X1201401Y1242721D01*
X1201253Y1243129D01*
X1201105Y1243573D01*
X1200993Y1244055D01*
Y1244092D01*
X1200956Y1244240D01*
X1200919Y1244462D01*
Y1244758D01*
X1200882Y1245203D01*
X1200845Y1245684D01*
X1200808Y1246314D01*
Y1247017D01*
Y1258535D01*
X1203956D01*
Y1248202D01*
Y1248165D01*
Y1248091D01*
Y1247980D01*
Y1247795D01*
Y1247388D01*
X1203993Y1246869D01*
Y1246314D01*
X1204030Y1245758D01*
X1204067Y1245277D01*
X1204141Y1244869D01*
Y1244832D01*
X1204215Y1244684D01*
X1204289Y1244462D01*
X1204400Y1244166D01*
X1204586Y1243869D01*
X1204808Y1243536D01*
X1205067Y1243240D01*
X1205400Y1242944D01*
X1205437Y1242907D01*
X1205585Y1242832D01*
X1205771Y1242721D01*
X1206067Y1242610D01*
X1206400Y1242462D01*
X1206808Y1242351D01*
X1207252Y1242277D01*
X1207770Y1242240D01*
X1208030D01*
X1208289Y1242277D01*
X1208622Y1242314D01*
X1209030Y1242425D01*
X1209474Y1242536D01*
X1209955Y1242721D01*
X1210437Y1242944D01*
X1210511Y1242981D01*
X1210659Y1243092D01*
X1210881Y1243240D01*
X1211141Y1243462D01*
X1211437Y1243758D01*
X1211733Y1244092D01*
X1211992Y1244462D01*
X1212214Y1244906D01*
X1212251Y1244980D01*
X1212289Y1245129D01*
X1212363Y1245425D01*
X1212474Y1245832D01*
X1212585Y1246351D01*
X1212659Y1246980D01*
X1212696Y1247721D01*
X1212733Y1248573D01*
Y1258535D01*
X1215881D01*
Y1239944D01*
D02*
G37*
G36*
X1224472Y1258535D02*
X1227657D01*
Y1256090D01*
X1224472D01*
Y1245166D01*
Y1245092D01*
Y1244943D01*
Y1244721D01*
X1224509Y1244462D01*
X1224547Y1243869D01*
X1224584Y1243610D01*
X1224621Y1243425D01*
X1224658Y1243351D01*
X1224769Y1243203D01*
X1224917Y1243018D01*
X1225176Y1242832D01*
X1225250Y1242795D01*
X1225435Y1242721D01*
X1225769Y1242647D01*
X1226250Y1242610D01*
X1226620D01*
X1226805Y1242647D01*
X1227065D01*
X1227361Y1242684D01*
X1227657Y1242721D01*
X1228065Y1239944D01*
X1227991D01*
X1227842Y1239907D01*
X1227583Y1239870D01*
X1227250Y1239833D01*
X1226880Y1239759D01*
X1226472Y1239722D01*
X1225658Y1239685D01*
X1225361D01*
X1225065Y1239722D01*
X1224695Y1239759D01*
X1224250Y1239796D01*
X1223806Y1239907D01*
X1223398Y1240018D01*
X1222991Y1240203D01*
X1222954Y1240240D01*
X1222843Y1240314D01*
X1222695Y1240425D01*
X1222473Y1240611D01*
X1222287Y1240796D01*
X1222065Y1241055D01*
X1221843Y1241314D01*
X1221695Y1241647D01*
Y1241684D01*
X1221621Y1241833D01*
X1221584Y1242092D01*
X1221510Y1242462D01*
X1221436Y1242944D01*
X1221399Y1243240D01*
Y1243573D01*
X1221362Y1243981D01*
X1221325Y1244388D01*
Y1244832D01*
Y1245351D01*
Y1256090D01*
X1218991D01*
Y1258535D01*
X1221325D01*
Y1263127D01*
X1224472Y1265015D01*
Y1258535D01*
D02*
G37*
G36*
X231124Y-118855D02*
X231383D01*
X231680Y-118892D01*
X232383Y-119040D01*
X233161Y-119225D01*
X233976Y-119522D01*
X234790Y-119966D01*
X235198Y-120225D01*
X235568Y-120521D01*
X235605Y-120559D01*
X235642Y-120596D01*
X235753Y-120707D01*
X235865Y-120818D01*
X236050Y-121003D01*
X236198Y-121225D01*
X236605Y-121744D01*
X237013Y-122410D01*
X237383Y-123225D01*
X237716Y-124151D01*
X237938Y-125188D01*
X234790Y-125447D01*
Y-125410D01*
X234753Y-125373D01*
X234716Y-125151D01*
X234605Y-124817D01*
X234457Y-124410D01*
X234309Y-123966D01*
X234087Y-123521D01*
X233828Y-123114D01*
X233568Y-122781D01*
X233494Y-122706D01*
X233346Y-122558D01*
X233087Y-122336D01*
X232717Y-122077D01*
X232235Y-121855D01*
X231717Y-121632D01*
X231087Y-121484D01*
X230421Y-121410D01*
X230161D01*
X229865Y-121447D01*
X229532Y-121521D01*
X229087Y-121632D01*
X228643Y-121781D01*
X228199Y-121966D01*
X227754Y-122262D01*
X227680Y-122299D01*
X227495Y-122447D01*
X227236Y-122706D01*
X226902Y-123077D01*
X226532Y-123521D01*
X226125Y-124040D01*
X225754Y-124706D01*
X225384Y-125447D01*
Y-125484D01*
X225347Y-125558D01*
X225310Y-125669D01*
X225236Y-125817D01*
X225199Y-126039D01*
X225125Y-126299D01*
X225051Y-126595D01*
X224977Y-126965D01*
X224866Y-127373D01*
X224792Y-127817D01*
X224718Y-128299D01*
X224680Y-128817D01*
X224606Y-129410D01*
X224569Y-130002D01*
X224532Y-130669D01*
Y-131335D01*
X224569Y-131298D01*
X224718Y-131076D01*
X224977Y-130780D01*
X225310Y-130409D01*
X225680Y-129965D01*
X226162Y-129558D01*
X226680Y-129150D01*
X227273Y-128780D01*
X227310D01*
X227347Y-128743D01*
X227569Y-128632D01*
X227902Y-128521D01*
X228347Y-128336D01*
X228865Y-128187D01*
X229458Y-128076D01*
X230087Y-127965D01*
X230754Y-127928D01*
X231050D01*
X231272Y-127965D01*
X231569Y-128002D01*
X231865Y-128039D01*
X232235Y-128113D01*
X232605Y-128224D01*
X233457Y-128484D01*
X233902Y-128669D01*
X234346Y-128928D01*
X234790Y-129187D01*
X235272Y-129483D01*
X235716Y-129854D01*
X236124Y-130261D01*
X236161Y-130298D01*
X236235Y-130372D01*
X236346Y-130483D01*
X236457Y-130669D01*
X236642Y-130928D01*
X236827Y-131187D01*
X237013Y-131520D01*
X237235Y-131891D01*
X237457Y-132298D01*
X237642Y-132743D01*
X237827Y-133261D01*
X238012Y-133779D01*
X238123Y-134335D01*
X238235Y-134964D01*
X238309Y-135594D01*
X238346Y-136261D01*
Y-136298D01*
Y-136372D01*
Y-136483D01*
Y-136668D01*
X238309Y-136890D01*
Y-137112D01*
X238197Y-137705D01*
X238086Y-138408D01*
X237901Y-139149D01*
X237642Y-139964D01*
X237272Y-140742D01*
Y-140779D01*
X237235Y-140816D01*
X237161Y-140927D01*
X237087Y-141075D01*
X236864Y-141445D01*
X236531Y-141927D01*
X236124Y-142445D01*
X235642Y-142964D01*
X235050Y-143482D01*
X234420Y-143926D01*
X234383D01*
X234346Y-143963D01*
X234235Y-144038D01*
X234087Y-144075D01*
X233717Y-144260D01*
X233235Y-144445D01*
X232605Y-144667D01*
X231902Y-144815D01*
X231124Y-144963D01*
X230272Y-145000D01*
X230087D01*
X229902Y-144963D01*
X229606D01*
X229272Y-144926D01*
X228902Y-144852D01*
X228458Y-144741D01*
X228013Y-144630D01*
X227495Y-144482D01*
X226977Y-144297D01*
X226458Y-144075D01*
X225903Y-143778D01*
X225384Y-143445D01*
X224866Y-143075D01*
X224347Y-142630D01*
X223866Y-142112D01*
X223829Y-142075D01*
X223755Y-141964D01*
X223643Y-141816D01*
X223495Y-141556D01*
X223273Y-141223D01*
X223088Y-140853D01*
X222866Y-140371D01*
X222644Y-139853D01*
X222384Y-139223D01*
X222162Y-138520D01*
X221977Y-137742D01*
X221792Y-136890D01*
X221607Y-135927D01*
X221496Y-134890D01*
X221422Y-133779D01*
X221385Y-132594D01*
Y-132557D01*
Y-132520D01*
Y-132409D01*
Y-132261D01*
X221422Y-131891D01*
Y-131372D01*
X221458Y-130780D01*
X221533Y-130076D01*
X221607Y-129298D01*
X221718Y-128447D01*
X221866Y-127595D01*
X222051Y-126669D01*
X222273Y-125780D01*
X222533Y-124891D01*
X222866Y-124040D01*
X223236Y-123225D01*
X223643Y-122447D01*
X224125Y-121781D01*
X224162Y-121744D01*
X224236Y-121670D01*
X224384Y-121521D01*
X224569Y-121299D01*
X224792Y-121077D01*
X225088Y-120855D01*
X225458Y-120559D01*
X225828Y-120299D01*
X226273Y-120040D01*
X226754Y-119744D01*
X227310Y-119522D01*
X227865Y-119262D01*
X228495Y-119077D01*
X229161Y-118929D01*
X229865Y-118855D01*
X230606Y-118818D01*
X230902D01*
X231124Y-118855D01*
D02*
G37*
G36*
X133579Y-118855D02*
X133838D01*
X134134Y-118892D01*
X134838Y-119040D01*
X135616Y-119225D01*
X136430Y-119522D01*
X137245Y-119966D01*
X137652Y-120225D01*
X138023Y-120521D01*
X138060Y-120559D01*
X138097Y-120596D01*
X138208Y-120707D01*
X138319Y-120818D01*
X138504Y-121003D01*
X138652Y-121225D01*
X139060Y-121744D01*
X139467Y-122410D01*
X139837Y-123225D01*
X140171Y-124151D01*
X140393Y-125188D01*
X137245Y-125447D01*
Y-125410D01*
X137208Y-125373D01*
X137171Y-125151D01*
X137060Y-124817D01*
X136912Y-124410D01*
X136764Y-123966D01*
X136541Y-123521D01*
X136282Y-123114D01*
X136023Y-122781D01*
X135949Y-122706D01*
X135801Y-122558D01*
X135541Y-122336D01*
X135171Y-122077D01*
X134690Y-121855D01*
X134171Y-121632D01*
X133542Y-121484D01*
X132875Y-121410D01*
X132616D01*
X132320Y-121447D01*
X131986Y-121521D01*
X131542Y-121632D01*
X131097Y-121781D01*
X130653Y-121966D01*
X130209Y-122262D01*
X130135Y-122299D01*
X129950Y-122447D01*
X129690Y-122706D01*
X129357Y-123077D01*
X128987Y-123521D01*
X128579Y-124040D01*
X128209Y-124706D01*
X127839Y-125447D01*
Y-125484D01*
X127802Y-125558D01*
X127765Y-125669D01*
X127690Y-125817D01*
X127653Y-126039D01*
X127579Y-126299D01*
X127505Y-126595D01*
X127431Y-126965D01*
X127320Y-127373D01*
X127246Y-127817D01*
X127172Y-128299D01*
X127135Y-128817D01*
X127061Y-129410D01*
X127024Y-130002D01*
X126987Y-130669D01*
Y-131335D01*
X127024Y-131298D01*
X127172Y-131076D01*
X127431Y-130780D01*
X127765Y-130409D01*
X128135Y-129965D01*
X128616Y-129558D01*
X129135Y-129150D01*
X129727Y-128780D01*
X129764D01*
X129801Y-128743D01*
X130024Y-128632D01*
X130357Y-128521D01*
X130801Y-128336D01*
X131320Y-128187D01*
X131912Y-128076D01*
X132542Y-127965D01*
X133208Y-127928D01*
X133505D01*
X133727Y-127965D01*
X134023Y-128002D01*
X134319Y-128039D01*
X134690Y-128113D01*
X135060Y-128224D01*
X135912Y-128484D01*
X136356Y-128669D01*
X136801Y-128928D01*
X137245Y-129187D01*
X137726Y-129484D01*
X138171Y-129854D01*
X138578Y-130261D01*
X138615Y-130298D01*
X138689Y-130372D01*
X138800Y-130484D01*
X138912Y-130669D01*
X139097Y-130928D01*
X139282Y-131187D01*
X139467Y-131520D01*
X139689Y-131891D01*
X139911Y-132298D01*
X140097Y-132743D01*
X140282Y-133261D01*
X140467Y-133779D01*
X140578Y-134335D01*
X140689Y-134965D01*
X140763Y-135594D01*
X140800Y-136261D01*
Y-136298D01*
Y-136372D01*
Y-136483D01*
Y-136668D01*
X140763Y-136890D01*
Y-137112D01*
X140652Y-137705D01*
X140541Y-138409D01*
X140356Y-139149D01*
X140097Y-139964D01*
X139726Y-140742D01*
Y-140779D01*
X139689Y-140816D01*
X139615Y-140927D01*
X139541Y-141075D01*
X139319Y-141445D01*
X138986Y-141927D01*
X138578Y-142445D01*
X138097Y-142964D01*
X137504Y-143482D01*
X136875Y-143926D01*
X136838D01*
X136801Y-143963D01*
X136690Y-144038D01*
X136541Y-144075D01*
X136171Y-144260D01*
X135690Y-144445D01*
X135060Y-144667D01*
X134356Y-144815D01*
X133579Y-144963D01*
X132727Y-145000D01*
X132542D01*
X132357Y-144963D01*
X132060D01*
X131727Y-144926D01*
X131357Y-144852D01*
X130912Y-144741D01*
X130468Y-144630D01*
X129950Y-144482D01*
X129431Y-144297D01*
X128913Y-144075D01*
X128357Y-143778D01*
X127839Y-143445D01*
X127320Y-143075D01*
X126802Y-142630D01*
X126320Y-142112D01*
X126283Y-142075D01*
X126209Y-141964D01*
X126098Y-141816D01*
X125950Y-141556D01*
X125728Y-141223D01*
X125542Y-140853D01*
X125320Y-140371D01*
X125098Y-139853D01*
X124839Y-139223D01*
X124617Y-138520D01*
X124432Y-137742D01*
X124246Y-136890D01*
X124061Y-135927D01*
X123950Y-134890D01*
X123876Y-133779D01*
X123839Y-132594D01*
Y-132557D01*
Y-132520D01*
Y-132409D01*
Y-132261D01*
X123876Y-131891D01*
Y-131372D01*
X123913Y-130780D01*
X123987Y-130076D01*
X124061Y-129298D01*
X124172Y-128447D01*
X124320Y-127595D01*
X124506Y-126669D01*
X124728Y-125780D01*
X124987Y-124891D01*
X125320Y-124040D01*
X125691Y-123225D01*
X126098Y-122447D01*
X126580Y-121781D01*
X126616Y-121744D01*
X126691Y-121670D01*
X126839Y-121521D01*
X127024Y-121299D01*
X127246Y-121077D01*
X127542Y-120855D01*
X127913Y-120559D01*
X128283Y-120299D01*
X128727Y-120040D01*
X129209Y-119744D01*
X129764Y-119522D01*
X130320Y-119262D01*
X130949Y-119077D01*
X131616Y-118929D01*
X132320Y-118855D01*
X133060Y-118818D01*
X133357D01*
X133579Y-118855D01*
D02*
G37*
G36*
X51365Y-118522D02*
X51698Y-118559D01*
X52106Y-118596D01*
X52513Y-118633D01*
X52994Y-118744D01*
X53994Y-118966D01*
X55105Y-119299D01*
X55661Y-119522D01*
X56179Y-119781D01*
X56698Y-120114D01*
X57216Y-120448D01*
X57253Y-120485D01*
X57327Y-120522D01*
X57476Y-120633D01*
X57661Y-120818D01*
X57846Y-121003D01*
X58105Y-121262D01*
X58364Y-121559D01*
X58661Y-121855D01*
X58957Y-122225D01*
X59253Y-122669D01*
X59586Y-123114D01*
X59883Y-123595D01*
X60142Y-124151D01*
X60438Y-124706D01*
X60660Y-125299D01*
X60883Y-125965D01*
X57550Y-126743D01*
Y-126706D01*
X57513Y-126632D01*
X57439Y-126484D01*
X57364Y-126299D01*
X57290Y-126076D01*
X57179Y-125780D01*
X56883Y-125188D01*
X56513Y-124521D01*
X56068Y-123855D01*
X55513Y-123225D01*
X54920Y-122669D01*
X54846Y-122595D01*
X54624Y-122447D01*
X54254Y-122262D01*
X53772Y-122003D01*
X53143Y-121781D01*
X52439Y-121559D01*
X51587Y-121410D01*
X50661Y-121373D01*
X50365D01*
X50180Y-121410D01*
X49921D01*
X49625Y-121447D01*
X48921Y-121559D01*
X48143Y-121707D01*
X47328Y-121966D01*
X46477Y-122336D01*
X45699Y-122818D01*
X45662D01*
X45625Y-122892D01*
X45366Y-123077D01*
X45032Y-123373D01*
X44625Y-123818D01*
X44144Y-124373D01*
X43699Y-125003D01*
X43292Y-125780D01*
X42922Y-126632D01*
Y-126669D01*
X42884Y-126743D01*
X42847Y-126854D01*
X42810Y-127039D01*
X42736Y-127262D01*
X42662Y-127521D01*
X42551Y-128150D01*
X42403Y-128891D01*
X42255Y-129706D01*
X42181Y-130595D01*
X42144Y-131557D01*
Y-131594D01*
Y-131706D01*
Y-131891D01*
Y-132113D01*
X42181Y-132372D01*
Y-132705D01*
X42218Y-133076D01*
X42255Y-133483D01*
X42366Y-134372D01*
X42551Y-135335D01*
X42773Y-136298D01*
X43070Y-137261D01*
Y-137298D01*
X43107Y-137372D01*
X43181Y-137483D01*
X43255Y-137668D01*
X43477Y-138112D01*
X43810Y-138631D01*
X44218Y-139223D01*
X44736Y-139853D01*
X45329Y-140408D01*
X46032Y-140927D01*
X46069D01*
X46143Y-140964D01*
X46255Y-141038D01*
X46403Y-141112D01*
X46588Y-141186D01*
X46810Y-141297D01*
X47328Y-141519D01*
X47995Y-141742D01*
X48736Y-141927D01*
X49550Y-142075D01*
X50402Y-142112D01*
X50661D01*
X50884Y-142075D01*
X51143D01*
X51402Y-142038D01*
X52069Y-141890D01*
X52846Y-141705D01*
X53624Y-141408D01*
X54439Y-141001D01*
X54846Y-140779D01*
X55216Y-140482D01*
X55254Y-140445D01*
X55291Y-140408D01*
X55402Y-140297D01*
X55550Y-140186D01*
X55698Y-140001D01*
X55883Y-139779D01*
X56105Y-139557D01*
X56290Y-139260D01*
X56513Y-138927D01*
X56772Y-138557D01*
X56994Y-138186D01*
X57216Y-137742D01*
X57401Y-137261D01*
X57587Y-136742D01*
X57772Y-136187D01*
X57920Y-135594D01*
X61327Y-136446D01*
Y-136483D01*
X61290Y-136631D01*
X61216Y-136853D01*
X61105Y-137149D01*
X60994Y-137483D01*
X60845Y-137890D01*
X60660Y-138335D01*
X60438Y-138816D01*
X59920Y-139853D01*
X59253Y-140890D01*
X58846Y-141408D01*
X58438Y-141927D01*
X57994Y-142371D01*
X57476Y-142816D01*
X57439Y-142853D01*
X57364Y-142927D01*
X57179Y-143001D01*
X56994Y-143149D01*
X56698Y-143334D01*
X56402Y-143519D01*
X55994Y-143704D01*
X55587Y-143890D01*
X55105Y-144112D01*
X54587Y-144297D01*
X54031Y-144482D01*
X53439Y-144667D01*
X52809Y-144815D01*
X52143Y-144889D01*
X51439Y-144964D01*
X50698Y-145000D01*
X50291D01*
X49995Y-144964D01*
X49661D01*
X49254Y-144926D01*
X48810Y-144852D01*
X48291Y-144778D01*
X47217Y-144593D01*
X46106Y-144297D01*
X44995Y-143890D01*
X44477Y-143630D01*
X43958Y-143334D01*
X43921Y-143297D01*
X43847Y-143260D01*
X43699Y-143149D01*
X43551Y-143001D01*
X43329Y-142853D01*
X43070Y-142630D01*
X42773Y-142371D01*
X42477Y-142075D01*
X42181Y-141742D01*
X41848Y-141408D01*
X41181Y-140556D01*
X40551Y-139557D01*
X39996Y-138446D01*
Y-138409D01*
X39922Y-138298D01*
X39885Y-138112D01*
X39774Y-137890D01*
X39700Y-137594D01*
X39588Y-137224D01*
X39440Y-136816D01*
X39329Y-136372D01*
X39218Y-135890D01*
X39070Y-135335D01*
X38885Y-134187D01*
X38737Y-132891D01*
X38663Y-131557D01*
Y-131520D01*
Y-131372D01*
Y-131150D01*
X38700Y-130891D01*
Y-130520D01*
X38737Y-130150D01*
X38774Y-129669D01*
X38848Y-129187D01*
X39033Y-128113D01*
X39292Y-126928D01*
X39663Y-125743D01*
X40181Y-124595D01*
X40218Y-124558D01*
X40255Y-124447D01*
X40329Y-124299D01*
X40477Y-124114D01*
X40625Y-123855D01*
X40811Y-123558D01*
X41292Y-122892D01*
X41922Y-122151D01*
X42662Y-121410D01*
X43514Y-120670D01*
X44514Y-120040D01*
X44551Y-120003D01*
X44662Y-119966D01*
X44810Y-119892D01*
X44995Y-119781D01*
X45292Y-119670D01*
X45588Y-119559D01*
X45958Y-119411D01*
X46366Y-119262D01*
X46810Y-119114D01*
X47291Y-118966D01*
X48328Y-118744D01*
X49513Y-118559D01*
X50736Y-118485D01*
X51106D01*
X51365Y-118522D01*
D02*
G37*
G36*
X185314Y-144556D02*
X181907D01*
Y-132483D01*
X168649D01*
Y-144556D01*
X165242D01*
Y-118929D01*
X168649D01*
Y-129446D01*
X181907D01*
Y-118929D01*
X185314D01*
Y-144556D01*
D02*
G37*
G36*
X199053Y-136853D02*
X189314D01*
Y-133705D01*
X199053D01*
Y-136853D01*
D02*
G37*
G36*
X14184Y-136409D02*
Y-136446D01*
Y-136557D01*
Y-136705D01*
Y-136927D01*
X14147Y-137224D01*
Y-137520D01*
X14073Y-138223D01*
X13999Y-139038D01*
X13850Y-139890D01*
X13628Y-140668D01*
X13369Y-141408D01*
Y-141445D01*
X13332Y-141482D01*
X13221Y-141705D01*
X13036Y-142001D01*
X12776Y-142408D01*
X12406Y-142816D01*
X11999Y-143260D01*
X11480Y-143704D01*
X10888Y-144075D01*
X10814Y-144112D01*
X10591Y-144223D01*
X10258Y-144371D01*
X9777Y-144519D01*
X9184Y-144704D01*
X8518Y-144852D01*
X7777Y-144964D01*
X6962Y-145000D01*
X6629D01*
X6407Y-144964D01*
X6111Y-144926D01*
X5814Y-144889D01*
X5037Y-144741D01*
X4222Y-144519D01*
X3370Y-144186D01*
X2926Y-143964D01*
X2518Y-143704D01*
X2148Y-143408D01*
X1778Y-143075D01*
X1741Y-143038D01*
X1704Y-143001D01*
X1629Y-142853D01*
X1518Y-142704D01*
X1370Y-142519D01*
X1222Y-142260D01*
X1074Y-141964D01*
X889Y-141630D01*
X741Y-141260D01*
X593Y-140816D01*
X444Y-140371D01*
X296Y-139853D01*
X222Y-139297D01*
X111Y-138668D01*
X74Y-138038D01*
Y-137335D01*
X3148Y-136890D01*
Y-136927D01*
Y-137001D01*
Y-137149D01*
X3185Y-137372D01*
X3222Y-137594D01*
Y-137853D01*
X3333Y-138483D01*
X3444Y-139149D01*
X3666Y-139816D01*
X3889Y-140408D01*
X4037Y-140668D01*
X4222Y-140890D01*
X4259Y-140927D01*
X4407Y-141038D01*
X4629Y-141223D01*
X4925Y-141408D01*
X5333Y-141630D01*
X5777Y-141779D01*
X6333Y-141927D01*
X6925Y-141964D01*
X7147D01*
X7370Y-141927D01*
X7703Y-141890D01*
X8036Y-141816D01*
X8407Y-141742D01*
X8777Y-141593D01*
X9147Y-141408D01*
X9184Y-141371D01*
X9295Y-141297D01*
X9444Y-141149D01*
X9666Y-141001D01*
X9851Y-140742D01*
X10073Y-140482D01*
X10258Y-140186D01*
X10406Y-139816D01*
Y-139779D01*
X10480Y-139631D01*
X10517Y-139372D01*
X10591Y-139038D01*
X10666Y-138594D01*
X10703Y-138038D01*
X10777Y-137372D01*
Y-136594D01*
Y-118929D01*
X14184D01*
Y-136409D01*
D02*
G37*
G36*
X250567Y-118855D02*
X250863Y-118892D01*
X251233Y-118929D01*
X251641Y-119003D01*
X252048Y-119077D01*
X253011Y-119336D01*
X253974Y-119707D01*
X254455Y-119929D01*
X254937Y-120188D01*
X255381Y-120521D01*
X255788Y-120892D01*
X255825Y-120929D01*
X255899Y-120966D01*
X255973Y-121114D01*
X256122Y-121262D01*
X256307Y-121447D01*
X256492Y-121707D01*
X256677Y-121966D01*
X256899Y-122299D01*
X257270Y-123003D01*
X257640Y-123891D01*
X257788Y-124336D01*
X257862Y-124854D01*
X257936Y-125373D01*
X257973Y-125928D01*
Y-126002D01*
Y-126188D01*
X257936Y-126484D01*
X257899Y-126891D01*
X257825Y-127336D01*
X257677Y-127854D01*
X257529Y-128410D01*
X257307Y-128965D01*
X257270Y-129039D01*
X257196Y-129224D01*
X257047Y-129521D01*
X256825Y-129928D01*
X256529Y-130372D01*
X256159Y-130928D01*
X255714Y-131483D01*
X255196Y-132113D01*
X255122Y-132187D01*
X254937Y-132409D01*
X254751Y-132594D01*
X254566Y-132780D01*
X254344Y-133002D01*
X254048Y-133298D01*
X253752Y-133594D01*
X253381Y-133927D01*
X253011Y-134298D01*
X252566Y-134705D01*
X252085Y-135113D01*
X251567Y-135594D01*
X250974Y-136075D01*
X250382Y-136594D01*
X250344Y-136631D01*
X250270Y-136705D01*
X250122Y-136816D01*
X249937Y-136964D01*
X249715Y-137186D01*
X249456Y-137409D01*
X248863Y-137890D01*
X248234Y-138446D01*
X247641Y-139001D01*
X247122Y-139482D01*
X246900Y-139668D01*
X246715Y-139853D01*
X246678Y-139890D01*
X246567Y-140001D01*
X246419Y-140149D01*
X246234Y-140371D01*
X246049Y-140631D01*
X245826Y-140890D01*
X245382Y-141519D01*
X258010D01*
Y-144556D01*
X241012D01*
Y-144519D01*
Y-144371D01*
Y-144149D01*
X241049Y-143852D01*
X241086Y-143519D01*
X241160Y-143149D01*
X241234Y-142779D01*
X241382Y-142371D01*
Y-142334D01*
X241419Y-142297D01*
X241493Y-142075D01*
X241642Y-141742D01*
X241864Y-141297D01*
X242160Y-140779D01*
X242530Y-140186D01*
X242938Y-139594D01*
X243456Y-138964D01*
Y-138927D01*
X243530Y-138890D01*
X243715Y-138668D01*
X244049Y-138335D01*
X244530Y-137853D01*
X245086Y-137297D01*
X245789Y-136631D01*
X246641Y-135890D01*
X247567Y-135113D01*
X247604Y-135076D01*
X247752Y-134964D01*
X247974Y-134779D01*
X248234Y-134557D01*
X248567Y-134261D01*
X248974Y-133927D01*
X249382Y-133557D01*
X249863Y-133150D01*
X250789Y-132261D01*
X251715Y-131372D01*
X252159Y-130928D01*
X252566Y-130483D01*
X252937Y-130076D01*
X253233Y-129669D01*
Y-129632D01*
X253307Y-129595D01*
X253381Y-129483D01*
X253455Y-129335D01*
X253715Y-128928D01*
X254011Y-128447D01*
X254270Y-127854D01*
X254529Y-127225D01*
X254677Y-126521D01*
X254751Y-125854D01*
Y-125817D01*
Y-125780D01*
X254714Y-125558D01*
X254677Y-125188D01*
X254566Y-124780D01*
X254418Y-124262D01*
X254159Y-123743D01*
X253826Y-123225D01*
X253381Y-122706D01*
X253307Y-122632D01*
X253122Y-122484D01*
X252863Y-122299D01*
X252455Y-122040D01*
X251937Y-121818D01*
X251344Y-121595D01*
X250641Y-121447D01*
X249863Y-121410D01*
X249641D01*
X249493Y-121447D01*
X249048Y-121484D01*
X248530Y-121595D01*
X247974Y-121744D01*
X247345Y-122003D01*
X246752Y-122336D01*
X246197Y-122781D01*
X246123Y-122855D01*
X245975Y-123040D01*
X245752Y-123336D01*
X245530Y-123780D01*
X245271Y-124299D01*
X245049Y-124965D01*
X244901Y-125706D01*
X244827Y-126558D01*
X241605Y-126225D01*
Y-126188D01*
X241642Y-126076D01*
Y-125891D01*
X241679Y-125632D01*
X241753Y-125336D01*
X241827Y-125002D01*
X241938Y-124595D01*
X242049Y-124188D01*
X242345Y-123299D01*
X242790Y-122410D01*
X243049Y-121966D01*
X243382Y-121521D01*
X243715Y-121114D01*
X244086Y-120744D01*
X244123Y-120707D01*
X244197Y-120670D01*
X244308Y-120559D01*
X244493Y-120447D01*
X244715Y-120299D01*
X244975Y-120151D01*
X245271Y-119966D01*
X245641Y-119781D01*
X246049Y-119596D01*
X246493Y-119410D01*
X246974Y-119262D01*
X247493Y-119114D01*
X248048Y-119003D01*
X248641Y-118892D01*
X249270Y-118855D01*
X249937Y-118818D01*
X250307D01*
X250567Y-118855D01*
D02*
G37*
G36*
X218422Y-121744D02*
X218385Y-121781D01*
X218311Y-121855D01*
X218163Y-122003D01*
X218014Y-122225D01*
X217792Y-122484D01*
X217496Y-122781D01*
X217200Y-123151D01*
X216866Y-123595D01*
X216533Y-124040D01*
X216126Y-124558D01*
X215718Y-125151D01*
X215311Y-125743D01*
X214867Y-126410D01*
X214422Y-127113D01*
X213978Y-127891D01*
X213533Y-128669D01*
X213496Y-128706D01*
X213422Y-128854D01*
X213311Y-129076D01*
X213126Y-129410D01*
X212941Y-129817D01*
X212719Y-130261D01*
X212460Y-130780D01*
X212200Y-131372D01*
X211904Y-132039D01*
X211571Y-132705D01*
X211274Y-133446D01*
X210978Y-134224D01*
X210386Y-135816D01*
X209830Y-137520D01*
Y-137557D01*
X209793Y-137668D01*
X209756Y-137853D01*
X209682Y-138075D01*
X209608Y-138371D01*
X209534Y-138742D01*
X209423Y-139149D01*
X209349Y-139594D01*
X209238Y-140112D01*
X209126Y-140668D01*
X208941Y-141853D01*
X208756Y-143149D01*
X208645Y-144556D01*
X205423D01*
Y-144519D01*
Y-144408D01*
Y-144260D01*
X205460Y-144038D01*
Y-143741D01*
X205497Y-143371D01*
X205534Y-142964D01*
X205571Y-142519D01*
X205645Y-142001D01*
X205719Y-141482D01*
X205830Y-140853D01*
X205942Y-140223D01*
X206053Y-139557D01*
X206201Y-138816D01*
X206571Y-137298D01*
Y-137261D01*
X206608Y-137112D01*
X206682Y-136890D01*
X206793Y-136557D01*
X206905Y-136187D01*
X207053Y-135742D01*
X207201Y-135224D01*
X207423Y-134668D01*
X207645Y-134039D01*
X207867Y-133409D01*
X208423Y-132002D01*
X209089Y-130520D01*
X209830Y-129039D01*
X209867Y-129002D01*
X209941Y-128854D01*
X210052Y-128669D01*
X210200Y-128373D01*
X210386Y-128039D01*
X210645Y-127632D01*
X210904Y-127188D01*
X211200Y-126706D01*
X211904Y-125632D01*
X212645Y-124521D01*
X213496Y-123373D01*
X214385Y-122299D01*
X201831D01*
Y-119262D01*
X218422Y-119262D01*
Y-121744D01*
D02*
G37*
G36*
X155762Y-144556D02*
X152614D01*
Y-124521D01*
X152577Y-124558D01*
X152392Y-124706D01*
X152169Y-124929D01*
X151799Y-125188D01*
X151392Y-125521D01*
X150873Y-125891D01*
X150281Y-126299D01*
X149614Y-126706D01*
X149577D01*
X149540Y-126743D01*
X149318Y-126891D01*
X148947Y-127076D01*
X148503Y-127299D01*
X147985Y-127558D01*
X147429Y-127817D01*
X146874Y-128076D01*
X146318Y-128299D01*
Y-125262D01*
X146355D01*
X146429Y-125188D01*
X146577Y-125151D01*
X146763Y-125040D01*
X146985Y-124929D01*
X147244Y-124780D01*
X147874Y-124410D01*
X148614Y-124003D01*
X149355Y-123484D01*
X150133Y-122892D01*
X150910Y-122262D01*
X150947Y-122225D01*
X150984Y-122188D01*
X151096Y-122077D01*
X151244Y-121966D01*
X151577Y-121595D01*
X152021Y-121151D01*
X152466Y-120633D01*
X152947Y-120040D01*
X153355Y-119448D01*
X153725Y-118818D01*
X155762D01*
Y-144556D01*
D02*
G37*
G36*
X115914D02*
X112766D01*
Y-124521D01*
X112729Y-124558D01*
X112544Y-124706D01*
X112322Y-124929D01*
X111951Y-125188D01*
X111544Y-125521D01*
X111025Y-125891D01*
X110433Y-126299D01*
X109766Y-126706D01*
X109729D01*
X109692Y-126743D01*
X109470Y-126891D01*
X109100Y-127076D01*
X108655Y-127299D01*
X108137Y-127558D01*
X107581Y-127817D01*
X107026Y-128076D01*
X106470Y-128299D01*
Y-125262D01*
X106508D01*
X106581Y-125188D01*
X106730Y-125151D01*
X106915Y-125040D01*
X107137Y-124929D01*
X107396Y-124780D01*
X108026Y-124410D01*
X108766Y-124003D01*
X109507Y-123484D01*
X110285Y-122892D01*
X111063Y-122262D01*
X111100Y-122225D01*
X111137Y-122188D01*
X111248Y-122077D01*
X111396Y-121966D01*
X111729Y-121595D01*
X112174Y-121151D01*
X112618Y-120633D01*
X113099Y-120040D01*
X113507Y-119448D01*
X113877Y-118818D01*
X115914D01*
Y-144556D01*
D02*
G37*
G36*
X97360Y-135520D02*
X100841D01*
Y-138409D01*
X97360D01*
Y-144556D01*
X94213D01*
Y-138409D01*
X83066D01*
Y-135520D01*
X94805Y-118929D01*
X97360D01*
Y-135520D01*
D02*
G37*
G36*
X22998Y-141519D02*
X35626D01*
Y-144556D01*
X19591D01*
Y-118929D01*
X22998D01*
Y-141519D01*
D02*
G37*
G36*
X270268Y-118855D02*
X270565Y-118892D01*
X270898Y-118929D01*
X271268Y-118966D01*
X271639Y-119077D01*
X272527Y-119299D01*
X273416Y-119633D01*
X273860Y-119855D01*
X274305Y-120114D01*
X274712Y-120447D01*
X275120Y-120781D01*
X275157Y-120818D01*
X275194Y-120855D01*
X275305Y-120966D01*
X275453Y-121114D01*
X275601Y-121336D01*
X275786Y-121558D01*
X276157Y-122114D01*
X276527Y-122818D01*
X276860Y-123632D01*
X277119Y-124558D01*
X277157Y-125040D01*
X277194Y-125558D01*
Y-125595D01*
Y-125632D01*
Y-125854D01*
X277157Y-126188D01*
X277082Y-126595D01*
X276971Y-127113D01*
X276786Y-127632D01*
X276564Y-128150D01*
X276231Y-128669D01*
X276194Y-128743D01*
X276045Y-128891D01*
X275823Y-129113D01*
X275527Y-129410D01*
X275120Y-129743D01*
X274638Y-130076D01*
X274083Y-130409D01*
X273416Y-130706D01*
X273453D01*
X273527Y-130743D01*
X273638Y-130780D01*
X273786Y-130854D01*
X274231Y-131039D01*
X274749Y-131298D01*
X275305Y-131669D01*
X275897Y-132076D01*
X276453Y-132594D01*
X276971Y-133187D01*
Y-133224D01*
X277008Y-133261D01*
X277157Y-133483D01*
X277379Y-133854D01*
X277601Y-134335D01*
X277823Y-134927D01*
X278045Y-135631D01*
X278193Y-136409D01*
X278230Y-137261D01*
Y-137297D01*
Y-137409D01*
Y-137594D01*
X278193Y-137816D01*
X278156Y-138075D01*
X278119Y-138408D01*
X278045Y-138779D01*
X277934Y-139186D01*
X277675Y-140038D01*
X277490Y-140519D01*
X277230Y-140964D01*
X276971Y-141445D01*
X276675Y-141890D01*
X276305Y-142334D01*
X275897Y-142779D01*
X275860Y-142816D01*
X275786Y-142890D01*
X275675Y-143001D01*
X275490Y-143112D01*
X275231Y-143297D01*
X274972Y-143482D01*
X274638Y-143667D01*
X274268Y-143890D01*
X273860Y-144112D01*
X273379Y-144297D01*
X272861Y-144482D01*
X272342Y-144667D01*
X271750Y-144778D01*
X271120Y-144889D01*
X270490Y-144963D01*
X269787Y-145000D01*
X269417D01*
X269157Y-144963D01*
X268824Y-144926D01*
X268454Y-144889D01*
X268046Y-144815D01*
X267602Y-144704D01*
X266602Y-144445D01*
X266084Y-144260D01*
X265602Y-144075D01*
X265084Y-143815D01*
X264565Y-143519D01*
X264084Y-143186D01*
X263639Y-142779D01*
X263602Y-142741D01*
X263528Y-142667D01*
X263417Y-142556D01*
X263269Y-142371D01*
X263121Y-142149D01*
X262899Y-141890D01*
X262714Y-141593D01*
X262491Y-141223D01*
X262269Y-140853D01*
X262084Y-140408D01*
X261714Y-139482D01*
X261565Y-138927D01*
X261454Y-138371D01*
X261380Y-137779D01*
X261343Y-137186D01*
Y-137149D01*
Y-137075D01*
Y-136927D01*
X261380Y-136779D01*
Y-136557D01*
X261417Y-136298D01*
X261491Y-135705D01*
X261640Y-135038D01*
X261862Y-134372D01*
X262195Y-133668D01*
X262602Y-133002D01*
Y-132965D01*
X262677Y-132928D01*
X262825Y-132743D01*
X263121Y-132446D01*
X263528Y-132076D01*
X264047Y-131706D01*
X264676Y-131298D01*
X265380Y-130965D01*
X266232Y-130706D01*
X266195D01*
X266158Y-130669D01*
X266047Y-130632D01*
X265898Y-130557D01*
X265565Y-130409D01*
X265121Y-130187D01*
X264639Y-129891D01*
X264158Y-129521D01*
X263713Y-129113D01*
X263306Y-128669D01*
X263269Y-128595D01*
X263158Y-128447D01*
X263010Y-128150D01*
X262862Y-127780D01*
X262677Y-127299D01*
X262528Y-126743D01*
X262417Y-126114D01*
X262380Y-125447D01*
Y-125410D01*
Y-125336D01*
Y-125188D01*
X262417Y-124965D01*
X262454Y-124743D01*
X262491Y-124447D01*
X262640Y-123818D01*
X262862Y-123077D01*
X263232Y-122299D01*
X263454Y-121892D01*
X263713Y-121484D01*
X264047Y-121114D01*
X264380Y-120744D01*
X264417Y-120707D01*
X264491Y-120670D01*
X264602Y-120559D01*
X264750Y-120447D01*
X264935Y-120299D01*
X265195Y-120151D01*
X265491Y-119966D01*
X265787Y-119781D01*
X266158Y-119596D01*
X266565Y-119410D01*
X267009Y-119262D01*
X267491Y-119114D01*
X268528Y-118892D01*
X269120Y-118855D01*
X269713Y-118818D01*
X270046D01*
X270268Y-118855D01*
D02*
G37*
G36*
X73326Y-118855D02*
X73807Y-118929D01*
X74363Y-119040D01*
X74955Y-119188D01*
X75585Y-119374D01*
X76177Y-119670D01*
X76214D01*
X76251Y-119707D01*
X76437Y-119818D01*
X76733Y-120003D01*
X77103Y-120262D01*
X77510Y-120633D01*
X77955Y-121040D01*
X78362Y-121521D01*
X78770Y-122077D01*
X78807Y-122151D01*
X78955Y-122336D01*
X79103Y-122669D01*
X79362Y-123151D01*
X79584Y-123706D01*
X79881Y-124336D01*
X80140Y-125077D01*
X80362Y-125891D01*
Y-125928D01*
X80399Y-126002D01*
X80436Y-126114D01*
X80473Y-126299D01*
X80510Y-126521D01*
X80547Y-126780D01*
X80621Y-127113D01*
X80658Y-127484D01*
X80732Y-127891D01*
X80769Y-128336D01*
X80806Y-128854D01*
X80880Y-129373D01*
X80918Y-129965D01*
Y-130557D01*
X80955Y-131224D01*
Y-131928D01*
Y-131965D01*
Y-132113D01*
Y-132372D01*
Y-132668D01*
X80918Y-133076D01*
Y-133520D01*
X80880Y-134002D01*
X80843Y-134520D01*
X80732Y-135705D01*
X80547Y-136927D01*
X80325Y-138112D01*
X80177Y-138668D01*
X79992Y-139223D01*
Y-139260D01*
X79955Y-139334D01*
X79881Y-139482D01*
X79806Y-139668D01*
X79732Y-139927D01*
X79584Y-140186D01*
X79288Y-140816D01*
X78918Y-141482D01*
X78436Y-142223D01*
X77881Y-142890D01*
X77214Y-143519D01*
X77177D01*
X77140Y-143593D01*
X77029Y-143667D01*
X76881Y-143741D01*
X76696Y-143852D01*
X76511Y-144001D01*
X75955Y-144260D01*
X75289Y-144519D01*
X74511Y-144778D01*
X73585Y-144926D01*
X72585Y-145000D01*
X72215D01*
X71955Y-144964D01*
X71659Y-144926D01*
X71289Y-144852D01*
X70882Y-144778D01*
X70437Y-144667D01*
X69993Y-144519D01*
X69511Y-144371D01*
X69030Y-144149D01*
X68548Y-143890D01*
X68067Y-143593D01*
X67586Y-143223D01*
X67141Y-142816D01*
X66734Y-142371D01*
X66697Y-142334D01*
X66623Y-142223D01*
X66512Y-142038D01*
X66326Y-141742D01*
X66141Y-141408D01*
X65956Y-140964D01*
X65697Y-140445D01*
X65475Y-139853D01*
X65252Y-139186D01*
X65030Y-138409D01*
X64808Y-137557D01*
X64623Y-136594D01*
X64438Y-135557D01*
X64327Y-134446D01*
X64253Y-133224D01*
X64216Y-131928D01*
Y-131891D01*
Y-131743D01*
Y-131483D01*
Y-131187D01*
X64253Y-130780D01*
Y-130335D01*
X64290Y-129854D01*
X64327Y-129298D01*
X64438Y-128150D01*
X64623Y-126928D01*
X64845Y-125706D01*
X64993Y-125151D01*
X65141Y-124595D01*
Y-124558D01*
X65178Y-124484D01*
X65252Y-124336D01*
X65327Y-124151D01*
X65401Y-123892D01*
X65549Y-123632D01*
X65845Y-123003D01*
X66215Y-122336D01*
X66697Y-121632D01*
X67252Y-120929D01*
X67919Y-120336D01*
X67956D01*
X67993Y-120262D01*
X68104Y-120188D01*
X68252Y-120114D01*
X68437Y-119966D01*
X68660Y-119855D01*
X69215Y-119559D01*
X69882Y-119299D01*
X70659Y-119040D01*
X71585Y-118892D01*
X72585Y-118818D01*
X72918Y-118818D01*
X73326Y-118855D01*
D02*
G37*
G36*
X1187143Y2015978D02*
X1187476Y2015941D01*
X1187884Y2015904D01*
X1188291Y2015867D01*
X1188772Y2015756D01*
X1189772Y2015534D01*
X1190883Y2015201D01*
X1191439Y2014978D01*
X1191957Y2014719D01*
X1192476Y2014386D01*
X1192994Y2014052D01*
X1193031Y2014016D01*
X1193105Y2013978D01*
X1193253Y2013867D01*
X1193439Y2013682D01*
X1193624Y2013497D01*
X1193883Y2013238D01*
X1194142Y2012941D01*
X1194438Y2012645D01*
X1194735Y2012275D01*
X1195031Y2011830D01*
X1195364Y2011386D01*
X1195661Y2010905D01*
X1195920Y2010349D01*
X1196216Y2009794D01*
X1196438Y2009201D01*
X1196661Y2008535D01*
X1193327Y2007757D01*
Y2007794D01*
X1193290Y2007868D01*
X1193216Y2008016D01*
X1193142Y2008201D01*
X1193068Y2008423D01*
X1192957Y2008720D01*
X1192661Y2009312D01*
X1192291Y2009979D01*
X1191846Y2010645D01*
X1191291Y2011275D01*
X1190698Y2011830D01*
X1190624Y2011905D01*
X1190402Y2012053D01*
X1190032Y2012238D01*
X1189550Y2012497D01*
X1188921Y2012719D01*
X1188217Y2012941D01*
X1187365Y2013090D01*
X1186439Y2013127D01*
X1186143D01*
X1185958Y2013090D01*
X1185699D01*
X1185402Y2013053D01*
X1184699Y2012941D01*
X1183921Y2012793D01*
X1183106Y2012534D01*
X1182255Y2012164D01*
X1181477Y2011682D01*
X1181440D01*
X1181403Y2011608D01*
X1181144Y2011423D01*
X1180810Y2011127D01*
X1180403Y2010683D01*
X1179921Y2010127D01*
X1179477Y2009498D01*
X1179070Y2008720D01*
X1178699Y2007868D01*
Y2007831D01*
X1178662Y2007757D01*
X1178625Y2007646D01*
X1178588Y2007461D01*
X1178514Y2007238D01*
X1178440Y2006979D01*
X1178329Y2006350D01*
X1178181Y2005609D01*
X1178033Y2004794D01*
X1177959Y2003905D01*
X1177922Y2002943D01*
Y2002905D01*
Y2002794D01*
Y2002609D01*
Y2002387D01*
X1177959Y2002128D01*
Y2001794D01*
X1177996Y2001424D01*
X1178033Y2001017D01*
X1178144Y2000128D01*
X1178329Y1999165D01*
X1178551Y1998202D01*
X1178848Y1997240D01*
Y1997202D01*
X1178885Y1997128D01*
X1178959Y1997017D01*
X1179033Y1996832D01*
X1179255Y1996388D01*
X1179588Y1995869D01*
X1179995Y1995277D01*
X1180514Y1994647D01*
X1181106Y1994092D01*
X1181810Y1993573D01*
X1181847D01*
X1181921Y1993536D01*
X1182032Y1993462D01*
X1182180Y1993388D01*
X1182366Y1993314D01*
X1182588Y1993203D01*
X1183106Y1992981D01*
X1183773Y1992758D01*
X1184514Y1992573D01*
X1185328Y1992425D01*
X1186180Y1992388D01*
X1186439D01*
X1186662Y1992425D01*
X1186921D01*
X1187180Y1992462D01*
X1187847Y1992610D01*
X1188624Y1992796D01*
X1189402Y1993092D01*
X1190217Y1993499D01*
X1190624Y1993721D01*
X1190994Y1994018D01*
X1191031Y1994055D01*
X1191068Y1994092D01*
X1191180Y1994203D01*
X1191328Y1994314D01*
X1191476Y1994499D01*
X1191661Y1994721D01*
X1191883Y1994943D01*
X1192068Y1995240D01*
X1192291Y1995573D01*
X1192550Y1995943D01*
X1192772Y1996314D01*
X1192994Y1996758D01*
X1193179Y1997240D01*
X1193364Y1997758D01*
X1193550Y1998313D01*
X1193698Y1998906D01*
X1197105Y1998054D01*
Y1998017D01*
X1197068Y1997869D01*
X1196994Y1997647D01*
X1196883Y1997351D01*
X1196772Y1997017D01*
X1196623Y1996610D01*
X1196438Y1996165D01*
X1196216Y1995684D01*
X1195698Y1994647D01*
X1195031Y1993610D01*
X1194624Y1993092D01*
X1194216Y1992573D01*
X1193772Y1992129D01*
X1193253Y1991685D01*
X1193216Y1991647D01*
X1193142Y1991573D01*
X1192957Y1991499D01*
X1192772Y1991351D01*
X1192476Y1991166D01*
X1192179Y1990981D01*
X1191772Y1990796D01*
X1191365Y1990611D01*
X1190883Y1990388D01*
X1190365Y1990203D01*
X1189809Y1990018D01*
X1189217Y1989833D01*
X1188587Y1989685D01*
X1187921Y1989611D01*
X1187217Y1989537D01*
X1186476Y1989500D01*
X1186069D01*
X1185773Y1989537D01*
X1185439D01*
X1185032Y1989574D01*
X1184588Y1989648D01*
X1184069Y1989722D01*
X1182995Y1989907D01*
X1181884Y1990203D01*
X1180773Y1990611D01*
X1180255Y1990870D01*
X1179736Y1991166D01*
X1179699Y1991203D01*
X1179625Y1991240D01*
X1179477Y1991351D01*
X1179329Y1991499D01*
X1179107Y1991647D01*
X1178848Y1991870D01*
X1178551Y1992129D01*
X1178255Y1992425D01*
X1177959Y1992758D01*
X1177625Y1993092D01*
X1176959Y1993943D01*
X1176329Y1994943D01*
X1175774Y1996054D01*
Y1996091D01*
X1175700Y1996203D01*
X1175663Y1996388D01*
X1175552Y1996610D01*
X1175478Y1996906D01*
X1175366Y1997276D01*
X1175218Y1997684D01*
X1175107Y1998128D01*
X1174996Y1998610D01*
X1174848Y1999165D01*
X1174663Y2000313D01*
X1174515Y2001609D01*
X1174441Y2002943D01*
Y2002980D01*
Y2003128D01*
Y2003350D01*
X1174478Y2003609D01*
Y2003979D01*
X1174515Y2004350D01*
X1174552Y2004831D01*
X1174626Y2005313D01*
X1174811Y2006387D01*
X1175070Y2007572D01*
X1175440Y2008757D01*
X1175959Y2009905D01*
X1175996Y2009942D01*
X1176033Y2010053D01*
X1176107Y2010201D01*
X1176255Y2010386D01*
X1176403Y2010645D01*
X1176589Y2010942D01*
X1177070Y2011608D01*
X1177700Y2012349D01*
X1178440Y2013090D01*
X1179292Y2013830D01*
X1180292Y2014460D01*
X1180329Y2014497D01*
X1180440Y2014534D01*
X1180588Y2014608D01*
X1180773Y2014719D01*
X1181069Y2014830D01*
X1181366Y2014941D01*
X1181736Y2015090D01*
X1182143Y2015238D01*
X1182588Y2015386D01*
X1183069Y2015534D01*
X1184106Y2015756D01*
X1185291Y2015941D01*
X1186513Y2016015D01*
X1186884D01*
X1187143Y2015978D01*
D02*
G37*
G36*
X1171589Y1997647D02*
X1161849D01*
Y2000795D01*
X1171589D01*
Y1997647D01*
D02*
G37*
G36*
X1150443Y1989944D02*
X1146888D01*
X1136963Y2015571D01*
X1140666D01*
X1147332Y1996943D01*
Y1996906D01*
X1147369Y1996832D01*
X1147406Y1996721D01*
X1147480Y1996573D01*
X1147517Y1996351D01*
X1147591Y1996129D01*
X1147777Y1995573D01*
X1147999Y1994943D01*
X1148221Y1994240D01*
X1148665Y1992758D01*
Y1992796D01*
X1148702Y1992870D01*
X1148739Y1992981D01*
X1148776Y1993129D01*
X1148888Y1993536D01*
X1149073Y1994092D01*
X1149258Y1994721D01*
X1149480Y1995425D01*
X1149739Y1996165D01*
X1150036Y1996943D01*
X1156998Y2015571D01*
X1160442D01*
X1150443Y1989944D01*
D02*
G37*
G36*
X1215881Y1989944D02*
X1213066D01*
Y1992647D01*
X1213029Y1992610D01*
X1212955Y1992499D01*
X1212844Y1992351D01*
X1212659Y1992166D01*
X1212437Y1991944D01*
X1212177Y1991647D01*
X1211881Y1991388D01*
X1211511Y1991092D01*
X1211103Y1990796D01*
X1210659Y1990536D01*
X1210178Y1990277D01*
X1209659Y1990018D01*
X1209067Y1989833D01*
X1208474Y1989685D01*
X1207807Y1989574D01*
X1207141Y1989537D01*
X1206882D01*
X1206548Y1989574D01*
X1206141Y1989611D01*
X1205659Y1989685D01*
X1205141Y1989796D01*
X1204623Y1989944D01*
X1204067Y1990166D01*
X1203993Y1990203D01*
X1203845Y1990277D01*
X1203586Y1990425D01*
X1203289Y1990611D01*
X1202919Y1990833D01*
X1202586Y1991092D01*
X1202253Y1991388D01*
X1201956Y1991721D01*
X1201919Y1991759D01*
X1201845Y1991907D01*
X1201734Y1992092D01*
X1201586Y1992388D01*
X1201401Y1992721D01*
X1201253Y1993129D01*
X1201105Y1993573D01*
X1200993Y1994055D01*
Y1994092D01*
X1200956Y1994240D01*
X1200919Y1994462D01*
Y1994758D01*
X1200882Y1995203D01*
X1200845Y1995684D01*
X1200808Y1996314D01*
Y1997017D01*
Y2008535D01*
X1203956D01*
Y1998202D01*
Y1998165D01*
Y1998091D01*
Y1997980D01*
Y1997795D01*
Y1997388D01*
X1203993Y1996869D01*
Y1996314D01*
X1204030Y1995758D01*
X1204067Y1995277D01*
X1204141Y1994869D01*
Y1994832D01*
X1204215Y1994684D01*
X1204289Y1994462D01*
X1204400Y1994166D01*
X1204586Y1993869D01*
X1204808Y1993536D01*
X1205067Y1993240D01*
X1205400Y1992944D01*
X1205437Y1992907D01*
X1205585Y1992832D01*
X1205771Y1992721D01*
X1206067Y1992610D01*
X1206400Y1992462D01*
X1206808Y1992351D01*
X1207252Y1992277D01*
X1207770Y1992240D01*
X1208030D01*
X1208289Y1992277D01*
X1208622Y1992314D01*
X1209030Y1992425D01*
X1209474Y1992536D01*
X1209955Y1992721D01*
X1210437Y1992944D01*
X1210511Y1992981D01*
X1210659Y1993092D01*
X1210881Y1993240D01*
X1211141Y1993462D01*
X1211437Y1993758D01*
X1211733Y1994092D01*
X1211992Y1994462D01*
X1212214Y1994906D01*
X1212251Y1994980D01*
X1212289Y1995129D01*
X1212363Y1995425D01*
X1212474Y1995832D01*
X1212585Y1996351D01*
X1212659Y1996980D01*
X1212696Y1997721D01*
X1212733Y1998573D01*
Y2008535D01*
X1215881D01*
Y1989944D01*
D02*
G37*
G36*
X1224472Y2008535D02*
X1227657D01*
Y2006090D01*
X1224472D01*
Y1995166D01*
Y1995092D01*
Y1994943D01*
Y1994721D01*
X1224509Y1994462D01*
X1224547Y1993869D01*
X1224584Y1993610D01*
X1224621Y1993425D01*
X1224658Y1993351D01*
X1224769Y1993203D01*
X1224917Y1993018D01*
X1225176Y1992832D01*
X1225250Y1992796D01*
X1225435Y1992721D01*
X1225769Y1992647D01*
X1226250Y1992610D01*
X1226620D01*
X1226805Y1992647D01*
X1227065D01*
X1227361Y1992684D01*
X1227657Y1992721D01*
X1228065Y1989944D01*
X1227991D01*
X1227842Y1989907D01*
X1227583Y1989870D01*
X1227250Y1989833D01*
X1226880Y1989759D01*
X1226472Y1989722D01*
X1225658Y1989685D01*
X1225361D01*
X1225065Y1989722D01*
X1224695Y1989759D01*
X1224250Y1989796D01*
X1223806Y1989907D01*
X1223398Y1990018D01*
X1222991Y1990203D01*
X1222954Y1990240D01*
X1222843Y1990314D01*
X1222695Y1990425D01*
X1222473Y1990611D01*
X1222287Y1990796D01*
X1222065Y1991055D01*
X1221843Y1991314D01*
X1221695Y1991647D01*
Y1991685D01*
X1221621Y1991833D01*
X1221584Y1992092D01*
X1221510Y1992462D01*
X1221436Y1992944D01*
X1221399Y1993240D01*
Y1993573D01*
X1221362Y1993981D01*
X1221325Y1994388D01*
Y1994832D01*
Y1995351D01*
Y2006090D01*
X1218991D01*
Y2008535D01*
X1221325D01*
Y2013127D01*
X1224472Y2015015D01*
Y2008535D01*
D02*
G37*
G36*
X1187143Y1615978D02*
X1187476Y1615941D01*
X1187884Y1615904D01*
X1188291Y1615867D01*
X1188772Y1615756D01*
X1189772Y1615534D01*
X1190883Y1615201D01*
X1191439Y1614978D01*
X1191957Y1614719D01*
X1192476Y1614386D01*
X1192994Y1614053D01*
X1193031Y1614016D01*
X1193105Y1613978D01*
X1193253Y1613867D01*
X1193439Y1613682D01*
X1193624Y1613497D01*
X1193883Y1613238D01*
X1194142Y1612942D01*
X1194438Y1612645D01*
X1194735Y1612275D01*
X1195031Y1611831D01*
X1195364Y1611386D01*
X1195661Y1610905D01*
X1195920Y1610349D01*
X1196216Y1609794D01*
X1196438Y1609201D01*
X1196661Y1608535D01*
X1193327Y1607757D01*
Y1607794D01*
X1193290Y1607868D01*
X1193216Y1608016D01*
X1193142Y1608201D01*
X1193068Y1608423D01*
X1192957Y1608720D01*
X1192661Y1609312D01*
X1192291Y1609979D01*
X1191846Y1610645D01*
X1191291Y1611275D01*
X1190698Y1611831D01*
X1190624Y1611905D01*
X1190402Y1612053D01*
X1190032Y1612238D01*
X1189550Y1612497D01*
X1188921Y1612719D01*
X1188217Y1612942D01*
X1187365Y1613090D01*
X1186439Y1613127D01*
X1186143D01*
X1185958Y1613090D01*
X1185699D01*
X1185402Y1613053D01*
X1184699Y1612942D01*
X1183921Y1612793D01*
X1183106Y1612534D01*
X1182255Y1612164D01*
X1181477Y1611682D01*
X1181440D01*
X1181403Y1611608D01*
X1181144Y1611423D01*
X1180810Y1611127D01*
X1180403Y1610683D01*
X1179921Y1610127D01*
X1179477Y1609498D01*
X1179070Y1608720D01*
X1178699Y1607868D01*
Y1607831D01*
X1178662Y1607757D01*
X1178625Y1607646D01*
X1178588Y1607461D01*
X1178514Y1607238D01*
X1178440Y1606979D01*
X1178329Y1606350D01*
X1178181Y1605609D01*
X1178033Y1604794D01*
X1177959Y1603905D01*
X1177922Y1602943D01*
Y1602906D01*
Y1602794D01*
Y1602609D01*
Y1602387D01*
X1177959Y1602128D01*
Y1601795D01*
X1177996Y1601424D01*
X1178033Y1601017D01*
X1178144Y1600128D01*
X1178329Y1599165D01*
X1178551Y1598202D01*
X1178848Y1597240D01*
Y1597202D01*
X1178885Y1597128D01*
X1178959Y1597017D01*
X1179033Y1596832D01*
X1179255Y1596388D01*
X1179588Y1595869D01*
X1179995Y1595277D01*
X1180514Y1594647D01*
X1181106Y1594092D01*
X1181810Y1593573D01*
X1181847D01*
X1181921Y1593536D01*
X1182032Y1593462D01*
X1182180Y1593388D01*
X1182366Y1593314D01*
X1182588Y1593203D01*
X1183106Y1592981D01*
X1183773Y1592758D01*
X1184514Y1592573D01*
X1185328Y1592425D01*
X1186180Y1592388D01*
X1186439D01*
X1186662Y1592425D01*
X1186921D01*
X1187180Y1592462D01*
X1187847Y1592610D01*
X1188624Y1592796D01*
X1189402Y1593092D01*
X1190217Y1593499D01*
X1190624Y1593721D01*
X1190994Y1594018D01*
X1191031Y1594055D01*
X1191068Y1594092D01*
X1191180Y1594203D01*
X1191328Y1594314D01*
X1191476Y1594499D01*
X1191661Y1594721D01*
X1191883Y1594943D01*
X1192068Y1595240D01*
X1192291Y1595573D01*
X1192550Y1595943D01*
X1192772Y1596314D01*
X1192994Y1596758D01*
X1193179Y1597240D01*
X1193364Y1597758D01*
X1193550Y1598313D01*
X1193698Y1598906D01*
X1197105Y1598054D01*
Y1598017D01*
X1197068Y1597869D01*
X1196994Y1597647D01*
X1196883Y1597351D01*
X1196772Y1597017D01*
X1196623Y1596610D01*
X1196438Y1596165D01*
X1196216Y1595684D01*
X1195698Y1594647D01*
X1195031Y1593610D01*
X1194624Y1593092D01*
X1194216Y1592573D01*
X1193772Y1592129D01*
X1193253Y1591685D01*
X1193216Y1591647D01*
X1193142Y1591573D01*
X1192957Y1591499D01*
X1192772Y1591351D01*
X1192476Y1591166D01*
X1192179Y1590981D01*
X1191772Y1590796D01*
X1191365Y1590611D01*
X1190883Y1590388D01*
X1190365Y1590203D01*
X1189809Y1590018D01*
X1189217Y1589833D01*
X1188587Y1589685D01*
X1187921Y1589611D01*
X1187217Y1589537D01*
X1186476Y1589500D01*
X1186069D01*
X1185773Y1589537D01*
X1185439D01*
X1185032Y1589574D01*
X1184588Y1589648D01*
X1184069Y1589722D01*
X1182995Y1589907D01*
X1181884Y1590203D01*
X1180773Y1590611D01*
X1180255Y1590870D01*
X1179736Y1591166D01*
X1179699Y1591203D01*
X1179625Y1591240D01*
X1179477Y1591351D01*
X1179329Y1591499D01*
X1179107Y1591647D01*
X1178848Y1591870D01*
X1178551Y1592129D01*
X1178255Y1592425D01*
X1177959Y1592758D01*
X1177625Y1593092D01*
X1176959Y1593943D01*
X1176329Y1594943D01*
X1175774Y1596054D01*
Y1596091D01*
X1175700Y1596203D01*
X1175663Y1596388D01*
X1175552Y1596610D01*
X1175478Y1596906D01*
X1175366Y1597276D01*
X1175218Y1597684D01*
X1175107Y1598128D01*
X1174996Y1598610D01*
X1174848Y1599165D01*
X1174663Y1600313D01*
X1174515Y1601609D01*
X1174441Y1602943D01*
Y1602980D01*
Y1603128D01*
Y1603350D01*
X1174478Y1603609D01*
Y1603979D01*
X1174515Y1604350D01*
X1174552Y1604831D01*
X1174626Y1605313D01*
X1174811Y1606387D01*
X1175070Y1607572D01*
X1175440Y1608757D01*
X1175959Y1609905D01*
X1175996Y1609942D01*
X1176033Y1610053D01*
X1176107Y1610201D01*
X1176255Y1610386D01*
X1176403Y1610645D01*
X1176589Y1610942D01*
X1177070Y1611608D01*
X1177700Y1612349D01*
X1178440Y1613090D01*
X1179292Y1613830D01*
X1180292Y1614460D01*
X1180329Y1614497D01*
X1180440Y1614534D01*
X1180588Y1614608D01*
X1180773Y1614719D01*
X1181069Y1614830D01*
X1181366Y1614941D01*
X1181736Y1615090D01*
X1182143Y1615238D01*
X1182588Y1615386D01*
X1183069Y1615534D01*
X1184106Y1615756D01*
X1185291Y1615941D01*
X1186513Y1616015D01*
X1186884D01*
X1187143Y1615978D01*
D02*
G37*
G36*
X1171589Y1597647D02*
X1161849D01*
Y1600795D01*
X1171589D01*
Y1597647D01*
D02*
G37*
G36*
X1150443Y1589944D02*
X1146888D01*
X1136963Y1615571D01*
X1140666D01*
X1147332Y1596943D01*
Y1596906D01*
X1147369Y1596832D01*
X1147406Y1596721D01*
X1147480Y1596573D01*
X1147517Y1596351D01*
X1147591Y1596129D01*
X1147777Y1595573D01*
X1147999Y1594943D01*
X1148221Y1594240D01*
X1148665Y1592758D01*
Y1592796D01*
X1148702Y1592870D01*
X1148739Y1592981D01*
X1148776Y1593129D01*
X1148888Y1593536D01*
X1149073Y1594092D01*
X1149258Y1594721D01*
X1149480Y1595425D01*
X1149739Y1596165D01*
X1150036Y1596943D01*
X1156998Y1615571D01*
X1160442D01*
X1150443Y1589944D01*
D02*
G37*
G36*
X1215881Y1589944D02*
X1213066D01*
Y1592647D01*
X1213029Y1592610D01*
X1212955Y1592499D01*
X1212844Y1592351D01*
X1212659Y1592166D01*
X1212437Y1591944D01*
X1212177Y1591647D01*
X1211881Y1591388D01*
X1211511Y1591092D01*
X1211103Y1590796D01*
X1210659Y1590536D01*
X1210178Y1590277D01*
X1209659Y1590018D01*
X1209067Y1589833D01*
X1208474Y1589685D01*
X1207807Y1589574D01*
X1207141Y1589537D01*
X1206882D01*
X1206548Y1589574D01*
X1206141Y1589611D01*
X1205659Y1589685D01*
X1205141Y1589796D01*
X1204623Y1589944D01*
X1204067Y1590166D01*
X1203993Y1590203D01*
X1203845Y1590277D01*
X1203586Y1590425D01*
X1203289Y1590611D01*
X1202919Y1590833D01*
X1202586Y1591092D01*
X1202253Y1591388D01*
X1201956Y1591721D01*
X1201919Y1591759D01*
X1201845Y1591907D01*
X1201734Y1592092D01*
X1201586Y1592388D01*
X1201401Y1592721D01*
X1201253Y1593129D01*
X1201105Y1593573D01*
X1200993Y1594055D01*
Y1594092D01*
X1200956Y1594240D01*
X1200919Y1594462D01*
Y1594758D01*
X1200882Y1595203D01*
X1200845Y1595684D01*
X1200808Y1596314D01*
Y1597017D01*
Y1608535D01*
X1203956D01*
Y1598202D01*
Y1598165D01*
Y1598091D01*
Y1597980D01*
Y1597795D01*
Y1597388D01*
X1203993Y1596869D01*
Y1596314D01*
X1204030Y1595758D01*
X1204067Y1595277D01*
X1204141Y1594869D01*
Y1594832D01*
X1204215Y1594684D01*
X1204289Y1594462D01*
X1204400Y1594166D01*
X1204586Y1593869D01*
X1204808Y1593536D01*
X1205067Y1593240D01*
X1205400Y1592944D01*
X1205437Y1592907D01*
X1205585Y1592832D01*
X1205771Y1592721D01*
X1206067Y1592610D01*
X1206400Y1592462D01*
X1206808Y1592351D01*
X1207252Y1592277D01*
X1207770Y1592240D01*
X1208030D01*
X1208289Y1592277D01*
X1208622Y1592314D01*
X1209030Y1592425D01*
X1209474Y1592536D01*
X1209955Y1592722D01*
X1210437Y1592944D01*
X1210511Y1592981D01*
X1210659Y1593092D01*
X1210881Y1593240D01*
X1211141Y1593462D01*
X1211437Y1593758D01*
X1211733Y1594092D01*
X1211992Y1594462D01*
X1212214Y1594906D01*
X1212251Y1594980D01*
X1212289Y1595129D01*
X1212363Y1595425D01*
X1212474Y1595832D01*
X1212585Y1596351D01*
X1212659Y1596980D01*
X1212696Y1597721D01*
X1212733Y1598573D01*
Y1608535D01*
X1215881D01*
Y1589944D01*
D02*
G37*
G36*
X1224472Y1608535D02*
X1227657D01*
Y1606090D01*
X1224472D01*
Y1595166D01*
Y1595092D01*
Y1594943D01*
Y1594721D01*
X1224509Y1594462D01*
X1224547Y1593869D01*
X1224584Y1593610D01*
X1224621Y1593425D01*
X1224658Y1593351D01*
X1224769Y1593203D01*
X1224917Y1593018D01*
X1225176Y1592833D01*
X1225250Y1592796D01*
X1225435Y1592722D01*
X1225769Y1592647D01*
X1226250Y1592610D01*
X1226620D01*
X1226805Y1592647D01*
X1227065D01*
X1227361Y1592684D01*
X1227657Y1592722D01*
X1228065Y1589944D01*
X1227991D01*
X1227842Y1589907D01*
X1227583Y1589870D01*
X1227250Y1589833D01*
X1226880Y1589759D01*
X1226472Y1589722D01*
X1225658Y1589685D01*
X1225361D01*
X1225065Y1589722D01*
X1224695Y1589759D01*
X1224250Y1589796D01*
X1223806Y1589907D01*
X1223398Y1590018D01*
X1222991Y1590203D01*
X1222954Y1590240D01*
X1222843Y1590314D01*
X1222695Y1590425D01*
X1222473Y1590611D01*
X1222287Y1590796D01*
X1222065Y1591055D01*
X1221843Y1591314D01*
X1221695Y1591647D01*
Y1591685D01*
X1221621Y1591833D01*
X1221584Y1592092D01*
X1221510Y1592462D01*
X1221436Y1592944D01*
X1221399Y1593240D01*
Y1593573D01*
X1221362Y1593981D01*
X1221325Y1594388D01*
Y1594832D01*
Y1595351D01*
Y1606090D01*
X1218991D01*
Y1608535D01*
X1221325D01*
Y1613127D01*
X1224472Y1615015D01*
Y1608535D01*
D02*
G37*
G36*
X1187143Y765978D02*
X1187476Y765941D01*
X1187884Y765904D01*
X1188291Y765867D01*
X1188772Y765756D01*
X1189772Y765534D01*
X1190883Y765201D01*
X1191439Y764978D01*
X1191957Y764719D01*
X1192476Y764386D01*
X1192994Y764053D01*
X1193031Y764016D01*
X1193105Y763979D01*
X1193253Y763867D01*
X1193439Y763682D01*
X1193624Y763497D01*
X1193883Y763238D01*
X1194142Y762942D01*
X1194438Y762645D01*
X1194735Y762275D01*
X1195031Y761831D01*
X1195364Y761386D01*
X1195661Y760905D01*
X1195920Y760349D01*
X1196216Y759794D01*
X1196438Y759201D01*
X1196661Y758535D01*
X1193327Y757757D01*
Y757794D01*
X1193290Y757868D01*
X1193216Y758016D01*
X1193142Y758201D01*
X1193068Y758423D01*
X1192957Y758720D01*
X1192661Y759312D01*
X1192291Y759979D01*
X1191846Y760646D01*
X1191291Y761275D01*
X1190698Y761831D01*
X1190624Y761905D01*
X1190402Y762053D01*
X1190032Y762238D01*
X1189550Y762497D01*
X1188921Y762719D01*
X1188217Y762942D01*
X1187365Y763090D01*
X1186439Y763127D01*
X1186143D01*
X1185958Y763090D01*
X1185699D01*
X1185402Y763053D01*
X1184699Y762942D01*
X1183921Y762793D01*
X1183106Y762534D01*
X1182255Y762164D01*
X1181477Y761682D01*
X1181440D01*
X1181403Y761608D01*
X1181144Y761423D01*
X1180810Y761127D01*
X1180403Y760683D01*
X1179921Y760127D01*
X1179477Y759498D01*
X1179070Y758720D01*
X1178699Y757868D01*
Y757831D01*
X1178662Y757757D01*
X1178625Y757646D01*
X1178588Y757461D01*
X1178514Y757238D01*
X1178440Y756979D01*
X1178329Y756350D01*
X1178181Y755609D01*
X1178033Y754794D01*
X1177959Y753905D01*
X1177922Y752943D01*
Y752906D01*
Y752794D01*
Y752609D01*
Y752387D01*
X1177959Y752128D01*
Y751795D01*
X1177996Y751424D01*
X1178033Y751017D01*
X1178144Y750128D01*
X1178329Y749165D01*
X1178551Y748202D01*
X1178848Y747240D01*
Y747202D01*
X1178885Y747128D01*
X1178959Y747017D01*
X1179033Y746832D01*
X1179255Y746388D01*
X1179588Y745869D01*
X1179995Y745277D01*
X1180514Y744647D01*
X1181106Y744092D01*
X1181810Y743573D01*
X1181847D01*
X1181921Y743536D01*
X1182032Y743462D01*
X1182180Y743388D01*
X1182366Y743314D01*
X1182588Y743203D01*
X1183106Y742981D01*
X1183773Y742758D01*
X1184514Y742573D01*
X1185328Y742425D01*
X1186180Y742388D01*
X1186439D01*
X1186662Y742425D01*
X1186921D01*
X1187180Y742462D01*
X1187847Y742610D01*
X1188624Y742795D01*
X1189402Y743092D01*
X1190217Y743499D01*
X1190624Y743721D01*
X1190994Y744018D01*
X1191031Y744055D01*
X1191068Y744092D01*
X1191180Y744203D01*
X1191328Y744314D01*
X1191476Y744499D01*
X1191661Y744721D01*
X1191883Y744943D01*
X1192068Y745240D01*
X1192291Y745573D01*
X1192550Y745943D01*
X1192772Y746314D01*
X1192994Y746758D01*
X1193179Y747240D01*
X1193364Y747758D01*
X1193550Y748313D01*
X1193698Y748906D01*
X1197105Y748054D01*
Y748017D01*
X1197068Y747869D01*
X1196994Y747647D01*
X1196883Y747351D01*
X1196772Y747017D01*
X1196623Y746610D01*
X1196438Y746165D01*
X1196216Y745684D01*
X1195698Y744647D01*
X1195031Y743610D01*
X1194624Y743092D01*
X1194216Y742573D01*
X1193772Y742129D01*
X1193253Y741684D01*
X1193216Y741647D01*
X1193142Y741573D01*
X1192957Y741499D01*
X1192772Y741351D01*
X1192476Y741166D01*
X1192179Y740981D01*
X1191772Y740796D01*
X1191365Y740611D01*
X1190883Y740388D01*
X1190365Y740203D01*
X1189809Y740018D01*
X1189217Y739833D01*
X1188587Y739685D01*
X1187921Y739611D01*
X1187217Y739537D01*
X1186476Y739500D01*
X1186069D01*
X1185773Y739537D01*
X1185439D01*
X1185032Y739574D01*
X1184588Y739648D01*
X1184069Y739722D01*
X1182995Y739907D01*
X1181884Y740203D01*
X1180773Y740611D01*
X1180255Y740870D01*
X1179736Y741166D01*
X1179699Y741203D01*
X1179625Y741240D01*
X1179477Y741351D01*
X1179329Y741499D01*
X1179107Y741647D01*
X1178848Y741870D01*
X1178551Y742129D01*
X1178255Y742425D01*
X1177959Y742758D01*
X1177625Y743092D01*
X1176959Y743943D01*
X1176329Y744943D01*
X1175774Y746054D01*
Y746091D01*
X1175700Y746202D01*
X1175663Y746388D01*
X1175552Y746610D01*
X1175478Y746906D01*
X1175366Y747277D01*
X1175218Y747684D01*
X1175107Y748128D01*
X1174996Y748610D01*
X1174848Y749165D01*
X1174663Y750313D01*
X1174515Y751609D01*
X1174441Y752943D01*
Y752980D01*
Y753128D01*
Y753350D01*
X1174478Y753609D01*
Y753979D01*
X1174515Y754350D01*
X1174552Y754831D01*
X1174626Y755313D01*
X1174811Y756387D01*
X1175070Y757572D01*
X1175440Y758757D01*
X1175959Y759905D01*
X1175996Y759942D01*
X1176033Y760053D01*
X1176107Y760201D01*
X1176255Y760386D01*
X1176403Y760646D01*
X1176589Y760942D01*
X1177070Y761608D01*
X1177700Y762349D01*
X1178440Y763090D01*
X1179292Y763830D01*
X1180292Y764460D01*
X1180329Y764497D01*
X1180440Y764534D01*
X1180588Y764608D01*
X1180773Y764719D01*
X1181069Y764830D01*
X1181366Y764941D01*
X1181736Y765089D01*
X1182143Y765238D01*
X1182588Y765386D01*
X1183069Y765534D01*
X1184106Y765756D01*
X1185291Y765941D01*
X1186513Y766015D01*
X1186884D01*
X1187143Y765978D01*
D02*
G37*
G36*
X1171589Y747647D02*
X1161849D01*
Y750795D01*
X1171589D01*
Y747647D01*
D02*
G37*
G36*
X1150443Y739944D02*
X1146888D01*
X1136963Y765571D01*
X1140666D01*
X1147332Y746943D01*
Y746906D01*
X1147369Y746832D01*
X1147406Y746721D01*
X1147480Y746573D01*
X1147517Y746351D01*
X1147591Y746128D01*
X1147777Y745573D01*
X1147999Y744943D01*
X1148221Y744240D01*
X1148665Y742758D01*
Y742795D01*
X1148702Y742870D01*
X1148739Y742981D01*
X1148776Y743129D01*
X1148888Y743536D01*
X1149073Y744092D01*
X1149258Y744721D01*
X1149480Y745425D01*
X1149739Y746165D01*
X1150036Y746943D01*
X1156998Y765571D01*
X1160442D01*
X1150443Y739944D01*
D02*
G37*
G36*
X1215881Y739944D02*
X1213066D01*
Y742647D01*
X1213029Y742610D01*
X1212955Y742499D01*
X1212844Y742351D01*
X1212659Y742166D01*
X1212437Y741944D01*
X1212177Y741647D01*
X1211881Y741388D01*
X1211511Y741092D01*
X1211103Y740796D01*
X1210659Y740536D01*
X1210178Y740277D01*
X1209659Y740018D01*
X1209067Y739833D01*
X1208474Y739685D01*
X1207807Y739574D01*
X1207141Y739537D01*
X1206882D01*
X1206548Y739574D01*
X1206141Y739611D01*
X1205659Y739685D01*
X1205141Y739796D01*
X1204623Y739944D01*
X1204067Y740166D01*
X1203993Y740203D01*
X1203845Y740277D01*
X1203586Y740425D01*
X1203289Y740611D01*
X1202919Y740833D01*
X1202586Y741092D01*
X1202253Y741388D01*
X1201956Y741721D01*
X1201919Y741759D01*
X1201845Y741907D01*
X1201734Y742092D01*
X1201586Y742388D01*
X1201401Y742721D01*
X1201253Y743129D01*
X1201105Y743573D01*
X1200993Y744055D01*
Y744092D01*
X1200956Y744240D01*
X1200919Y744462D01*
Y744758D01*
X1200882Y745203D01*
X1200845Y745684D01*
X1200808Y746314D01*
Y747017D01*
Y758535D01*
X1203956D01*
Y748202D01*
Y748165D01*
Y748091D01*
Y747980D01*
Y747795D01*
Y747388D01*
X1203993Y746869D01*
Y746314D01*
X1204030Y745758D01*
X1204067Y745277D01*
X1204141Y744869D01*
Y744832D01*
X1204215Y744684D01*
X1204289Y744462D01*
X1204400Y744166D01*
X1204586Y743869D01*
X1204808Y743536D01*
X1205067Y743240D01*
X1205400Y742944D01*
X1205437Y742907D01*
X1205585Y742832D01*
X1205771Y742721D01*
X1206067Y742610D01*
X1206400Y742462D01*
X1206808Y742351D01*
X1207252Y742277D01*
X1207770Y742240D01*
X1208030D01*
X1208289Y742277D01*
X1208622Y742314D01*
X1209030Y742425D01*
X1209474Y742536D01*
X1209955Y742721D01*
X1210437Y742944D01*
X1210511Y742981D01*
X1210659Y743092D01*
X1210881Y743240D01*
X1211141Y743462D01*
X1211437Y743758D01*
X1211733Y744092D01*
X1211992Y744462D01*
X1212214Y744906D01*
X1212251Y744980D01*
X1212289Y745129D01*
X1212363Y745425D01*
X1212474Y745832D01*
X1212585Y746351D01*
X1212659Y746980D01*
X1212696Y747721D01*
X1212733Y748573D01*
Y758535D01*
X1215881D01*
Y739944D01*
D02*
G37*
G36*
X1224472Y758535D02*
X1227657D01*
Y756090D01*
X1224472D01*
Y745166D01*
Y745092D01*
Y744943D01*
Y744721D01*
X1224509Y744462D01*
X1224547Y743869D01*
X1224584Y743610D01*
X1224621Y743425D01*
X1224658Y743351D01*
X1224769Y743203D01*
X1224917Y743018D01*
X1225176Y742833D01*
X1225250Y742795D01*
X1225435Y742721D01*
X1225769Y742647D01*
X1226250Y742610D01*
X1226620D01*
X1226805Y742647D01*
X1227065D01*
X1227361Y742684D01*
X1227657Y742721D01*
X1228065Y739944D01*
X1227991D01*
X1227842Y739907D01*
X1227583Y739870D01*
X1227250Y739833D01*
X1226880Y739759D01*
X1226472Y739722D01*
X1225658Y739685D01*
X1225361D01*
X1225065Y739722D01*
X1224695Y739759D01*
X1224250Y739796D01*
X1223806Y739907D01*
X1223398Y740018D01*
X1222991Y740203D01*
X1222954Y740240D01*
X1222843Y740314D01*
X1222695Y740425D01*
X1222473Y740611D01*
X1222287Y740796D01*
X1222065Y741055D01*
X1221843Y741314D01*
X1221695Y741647D01*
Y741684D01*
X1221621Y741833D01*
X1221584Y742092D01*
X1221510Y742462D01*
X1221436Y742944D01*
X1221399Y743240D01*
Y743573D01*
X1221362Y743981D01*
X1221325Y744388D01*
Y744832D01*
Y745351D01*
Y756090D01*
X1218991D01*
Y758535D01*
X1221325D01*
Y763127D01*
X1224472Y765015D01*
Y758535D01*
D02*
G37*
G36*
X1187143Y165978D02*
X1187476Y165941D01*
X1187884Y165904D01*
X1188291Y165867D01*
X1188772Y165756D01*
X1189772Y165534D01*
X1190883Y165201D01*
X1191439Y164978D01*
X1191957Y164719D01*
X1192476Y164386D01*
X1192994Y164053D01*
X1193031Y164016D01*
X1193105Y163979D01*
X1193253Y163867D01*
X1193439Y163682D01*
X1193624Y163497D01*
X1193883Y163238D01*
X1194142Y162942D01*
X1194438Y162645D01*
X1194735Y162275D01*
X1195031Y161831D01*
X1195364Y161386D01*
X1195661Y160905D01*
X1195920Y160349D01*
X1196216Y159794D01*
X1196438Y159201D01*
X1196661Y158535D01*
X1193327Y157757D01*
Y157794D01*
X1193290Y157868D01*
X1193216Y158016D01*
X1193142Y158201D01*
X1193068Y158424D01*
X1192957Y158720D01*
X1192661Y159312D01*
X1192291Y159979D01*
X1191846Y160646D01*
X1191291Y161275D01*
X1190698Y161831D01*
X1190624Y161905D01*
X1190402Y162053D01*
X1190032Y162238D01*
X1189550Y162497D01*
X1188921Y162719D01*
X1188217Y162942D01*
X1187365Y163090D01*
X1186439Y163127D01*
X1186143D01*
X1185958Y163090D01*
X1185699D01*
X1185402Y163053D01*
X1184699Y162942D01*
X1183921Y162793D01*
X1183106Y162534D01*
X1182255Y162164D01*
X1181477Y161682D01*
X1181440D01*
X1181403Y161608D01*
X1181144Y161423D01*
X1180810Y161127D01*
X1180403Y160683D01*
X1179921Y160127D01*
X1179477Y159497D01*
X1179070Y158720D01*
X1178699Y157868D01*
Y157831D01*
X1178662Y157757D01*
X1178625Y157646D01*
X1178588Y157461D01*
X1178514Y157238D01*
X1178440Y156979D01*
X1178329Y156350D01*
X1178181Y155609D01*
X1178033Y154794D01*
X1177959Y153905D01*
X1177922Y152943D01*
Y152906D01*
Y152795D01*
Y152609D01*
Y152387D01*
X1177959Y152128D01*
Y151795D01*
X1177996Y151424D01*
X1178033Y151017D01*
X1178144Y150128D01*
X1178329Y149165D01*
X1178551Y148202D01*
X1178848Y147240D01*
Y147202D01*
X1178885Y147128D01*
X1178959Y147017D01*
X1179033Y146832D01*
X1179255Y146388D01*
X1179588Y145869D01*
X1179995Y145277D01*
X1180514Y144647D01*
X1181106Y144092D01*
X1181810Y143573D01*
X1181847D01*
X1181921Y143536D01*
X1182032Y143462D01*
X1182180Y143388D01*
X1182366Y143314D01*
X1182588Y143203D01*
X1183106Y142981D01*
X1183773Y142759D01*
X1184514Y142573D01*
X1185328Y142425D01*
X1186180Y142388D01*
X1186439D01*
X1186662Y142425D01*
X1186921D01*
X1187180Y142462D01*
X1187847Y142610D01*
X1188624Y142795D01*
X1189402Y143092D01*
X1190217Y143499D01*
X1190624Y143721D01*
X1190994Y144018D01*
X1191031Y144055D01*
X1191068Y144092D01*
X1191180Y144203D01*
X1191328Y144314D01*
X1191476Y144499D01*
X1191661Y144721D01*
X1191883Y144943D01*
X1192068Y145240D01*
X1192291Y145573D01*
X1192550Y145943D01*
X1192772Y146314D01*
X1192994Y146758D01*
X1193179Y147240D01*
X1193364Y147758D01*
X1193550Y148313D01*
X1193698Y148906D01*
X1197105Y148054D01*
Y148017D01*
X1197068Y147869D01*
X1196994Y147647D01*
X1196883Y147351D01*
X1196772Y147017D01*
X1196623Y146610D01*
X1196438Y146166D01*
X1196216Y145684D01*
X1195698Y144647D01*
X1195031Y143610D01*
X1194624Y143092D01*
X1194216Y142573D01*
X1193772Y142129D01*
X1193253Y141685D01*
X1193216Y141648D01*
X1193142Y141573D01*
X1192957Y141499D01*
X1192772Y141351D01*
X1192476Y141166D01*
X1192179Y140981D01*
X1191772Y140796D01*
X1191365Y140611D01*
X1190883Y140388D01*
X1190365Y140203D01*
X1189809Y140018D01*
X1189217Y139833D01*
X1188587Y139685D01*
X1187921Y139611D01*
X1187217Y139537D01*
X1186476Y139500D01*
X1186069D01*
X1185773Y139537D01*
X1185439D01*
X1185032Y139574D01*
X1184588Y139648D01*
X1184069Y139722D01*
X1182995Y139907D01*
X1181884Y140203D01*
X1180773Y140611D01*
X1180255Y140870D01*
X1179736Y141166D01*
X1179699Y141203D01*
X1179625Y141240D01*
X1179477Y141351D01*
X1179329Y141499D01*
X1179107Y141648D01*
X1178848Y141870D01*
X1178551Y142129D01*
X1178255Y142425D01*
X1177959Y142759D01*
X1177625Y143092D01*
X1176959Y143944D01*
X1176329Y144943D01*
X1175774Y146054D01*
Y146091D01*
X1175700Y146203D01*
X1175663Y146388D01*
X1175552Y146610D01*
X1175478Y146906D01*
X1175366Y147276D01*
X1175218Y147684D01*
X1175107Y148128D01*
X1174996Y148610D01*
X1174848Y149165D01*
X1174663Y150313D01*
X1174515Y151609D01*
X1174441Y152943D01*
Y152980D01*
Y153128D01*
Y153350D01*
X1174478Y153609D01*
Y153980D01*
X1174515Y154350D01*
X1174552Y154831D01*
X1174626Y155313D01*
X1174811Y156387D01*
X1175070Y157572D01*
X1175440Y158757D01*
X1175959Y159905D01*
X1175996Y159942D01*
X1176033Y160053D01*
X1176107Y160201D01*
X1176255Y160386D01*
X1176403Y160646D01*
X1176589Y160942D01*
X1177070Y161608D01*
X1177700Y162349D01*
X1178440Y163090D01*
X1179292Y163830D01*
X1180292Y164460D01*
X1180329Y164497D01*
X1180440Y164534D01*
X1180588Y164608D01*
X1180773Y164719D01*
X1181069Y164830D01*
X1181366Y164941D01*
X1181736Y165089D01*
X1182143Y165238D01*
X1182588Y165386D01*
X1183069Y165534D01*
X1184106Y165756D01*
X1185291Y165941D01*
X1186513Y166015D01*
X1186884D01*
X1187143Y165978D01*
D02*
G37*
G36*
X1171589Y147647D02*
X1161849D01*
Y150795D01*
X1171589D01*
Y147647D01*
D02*
G37*
G36*
X1150443Y139944D02*
X1146888D01*
X1136963Y165571D01*
X1140666D01*
X1147332Y146943D01*
Y146906D01*
X1147369Y146832D01*
X1147406Y146721D01*
X1147480Y146573D01*
X1147517Y146351D01*
X1147591Y146129D01*
X1147777Y145573D01*
X1147999Y144943D01*
X1148221Y144240D01*
X1148665Y142759D01*
Y142795D01*
X1148702Y142870D01*
X1148739Y142981D01*
X1148776Y143129D01*
X1148888Y143536D01*
X1149073Y144092D01*
X1149258Y144721D01*
X1149480Y145425D01*
X1149739Y146166D01*
X1150036Y146943D01*
X1156998Y165571D01*
X1160442D01*
X1150443Y139944D01*
D02*
G37*
G36*
X1215881Y139944D02*
X1213066D01*
Y142647D01*
X1213029Y142610D01*
X1212955Y142499D01*
X1212844Y142351D01*
X1212659Y142166D01*
X1212437Y141944D01*
X1212177Y141648D01*
X1211881Y141388D01*
X1211511Y141092D01*
X1211103Y140796D01*
X1210659Y140536D01*
X1210178Y140277D01*
X1209659Y140018D01*
X1209067Y139833D01*
X1208474Y139685D01*
X1207807Y139574D01*
X1207141Y139537D01*
X1206882D01*
X1206548Y139574D01*
X1206141Y139611D01*
X1205659Y139685D01*
X1205141Y139796D01*
X1204623Y139944D01*
X1204067Y140166D01*
X1203993Y140203D01*
X1203845Y140277D01*
X1203586Y140425D01*
X1203289Y140611D01*
X1202919Y140833D01*
X1202586Y141092D01*
X1202253Y141388D01*
X1201956Y141721D01*
X1201919Y141759D01*
X1201845Y141907D01*
X1201734Y142092D01*
X1201586Y142388D01*
X1201401Y142721D01*
X1201253Y143129D01*
X1201105Y143573D01*
X1200993Y144055D01*
Y144092D01*
X1200956Y144240D01*
X1200919Y144462D01*
Y144758D01*
X1200882Y145203D01*
X1200845Y145684D01*
X1200808Y146314D01*
Y147017D01*
Y158535D01*
X1203956D01*
Y148202D01*
Y148165D01*
Y148091D01*
Y147980D01*
Y147795D01*
Y147388D01*
X1203993Y146869D01*
Y146314D01*
X1204030Y145758D01*
X1204067Y145277D01*
X1204141Y144869D01*
Y144832D01*
X1204215Y144684D01*
X1204289Y144462D01*
X1204400Y144166D01*
X1204586Y143869D01*
X1204808Y143536D01*
X1205067Y143240D01*
X1205400Y142944D01*
X1205437Y142907D01*
X1205585Y142832D01*
X1205771Y142721D01*
X1206067Y142610D01*
X1206400Y142462D01*
X1206808Y142351D01*
X1207252Y142277D01*
X1207770Y142240D01*
X1208030D01*
X1208289Y142277D01*
X1208622Y142314D01*
X1209030Y142425D01*
X1209474Y142536D01*
X1209955Y142722D01*
X1210437Y142944D01*
X1210511Y142981D01*
X1210659Y143092D01*
X1210881Y143240D01*
X1211141Y143462D01*
X1211437Y143758D01*
X1211733Y144092D01*
X1211992Y144462D01*
X1212214Y144906D01*
X1212251Y144980D01*
X1212289Y145129D01*
X1212363Y145425D01*
X1212474Y145832D01*
X1212585Y146351D01*
X1212659Y146980D01*
X1212696Y147721D01*
X1212733Y148573D01*
Y158535D01*
X1215881D01*
Y139944D01*
D02*
G37*
G36*
X1224472Y158535D02*
X1227657D01*
Y156090D01*
X1224472D01*
Y145166D01*
Y145092D01*
Y144943D01*
Y144721D01*
X1224509Y144462D01*
X1224547Y143869D01*
X1224584Y143610D01*
X1224621Y143425D01*
X1224658Y143351D01*
X1224769Y143203D01*
X1224917Y143018D01*
X1225176Y142833D01*
X1225250Y142795D01*
X1225435Y142722D01*
X1225769Y142647D01*
X1226250Y142610D01*
X1226620D01*
X1226805Y142647D01*
X1227065D01*
X1227361Y142684D01*
X1227657Y142722D01*
X1228065Y139944D01*
X1227991D01*
X1227842Y139907D01*
X1227583Y139870D01*
X1227250Y139833D01*
X1226880Y139759D01*
X1226472Y139722D01*
X1225658Y139685D01*
X1225361D01*
X1225065Y139722D01*
X1224695Y139759D01*
X1224250Y139796D01*
X1223806Y139907D01*
X1223398Y140018D01*
X1222991Y140203D01*
X1222954Y140240D01*
X1222843Y140314D01*
X1222695Y140425D01*
X1222473Y140611D01*
X1222287Y140796D01*
X1222065Y141055D01*
X1221843Y141314D01*
X1221695Y141648D01*
Y141685D01*
X1221621Y141833D01*
X1221584Y142092D01*
X1221510Y142462D01*
X1221436Y142944D01*
X1221399Y143240D01*
Y143573D01*
X1221362Y143981D01*
X1221325Y144388D01*
Y144832D01*
Y145351D01*
Y156090D01*
X1218991D01*
Y158535D01*
X1221325D01*
Y163127D01*
X1224472Y165015D01*
Y158535D01*
D02*
G37*
G36*
X1187143Y965978D02*
X1187476Y965941D01*
X1187884Y965904D01*
X1188291Y965867D01*
X1188772Y965756D01*
X1189772Y965534D01*
X1190883Y965201D01*
X1191439Y964978D01*
X1191957Y964719D01*
X1192476Y964386D01*
X1192994Y964053D01*
X1193031Y964016D01*
X1193105Y963979D01*
X1193253Y963867D01*
X1193439Y963682D01*
X1193624Y963497D01*
X1193883Y963238D01*
X1194142Y962942D01*
X1194438Y962645D01*
X1194735Y962275D01*
X1195031Y961831D01*
X1195364Y961386D01*
X1195661Y960905D01*
X1195920Y960349D01*
X1196216Y959794D01*
X1196438Y959201D01*
X1196661Y958535D01*
X1193327Y957757D01*
Y957794D01*
X1193290Y957868D01*
X1193216Y958016D01*
X1193142Y958201D01*
X1193068Y958423D01*
X1192957Y958720D01*
X1192661Y959312D01*
X1192291Y959979D01*
X1191846Y960646D01*
X1191291Y961275D01*
X1190698Y961831D01*
X1190624Y961905D01*
X1190402Y962053D01*
X1190032Y962238D01*
X1189550Y962497D01*
X1188921Y962719D01*
X1188217Y962942D01*
X1187365Y963090D01*
X1186439Y963127D01*
X1186143D01*
X1185958Y963090D01*
X1185699D01*
X1185402Y963053D01*
X1184699Y962942D01*
X1183921Y962793D01*
X1183106Y962534D01*
X1182255Y962164D01*
X1181477Y961682D01*
X1181440D01*
X1181403Y961608D01*
X1181144Y961423D01*
X1180810Y961127D01*
X1180403Y960683D01*
X1179921Y960127D01*
X1179477Y959498D01*
X1179070Y958720D01*
X1178699Y957868D01*
Y957831D01*
X1178662Y957757D01*
X1178625Y957646D01*
X1178588Y957461D01*
X1178514Y957238D01*
X1178440Y956979D01*
X1178329Y956350D01*
X1178181Y955609D01*
X1178033Y954794D01*
X1177959Y953905D01*
X1177922Y952943D01*
Y952906D01*
Y952794D01*
Y952609D01*
Y952387D01*
X1177959Y952128D01*
Y951795D01*
X1177996Y951424D01*
X1178033Y951017D01*
X1178144Y950128D01*
X1178329Y949165D01*
X1178551Y948202D01*
X1178848Y947240D01*
Y947202D01*
X1178885Y947128D01*
X1178959Y947017D01*
X1179033Y946832D01*
X1179255Y946388D01*
X1179588Y945869D01*
X1179995Y945277D01*
X1180514Y944647D01*
X1181106Y944092D01*
X1181810Y943573D01*
X1181847D01*
X1181921Y943536D01*
X1182032Y943462D01*
X1182180Y943388D01*
X1182366Y943314D01*
X1182588Y943203D01*
X1183106Y942981D01*
X1183773Y942758D01*
X1184514Y942573D01*
X1185328Y942425D01*
X1186180Y942388D01*
X1186439D01*
X1186662Y942425D01*
X1186921D01*
X1187180Y942462D01*
X1187847Y942610D01*
X1188624Y942795D01*
X1189402Y943092D01*
X1190217Y943499D01*
X1190624Y943721D01*
X1190994Y944018D01*
X1191031Y944055D01*
X1191068Y944092D01*
X1191180Y944203D01*
X1191328Y944314D01*
X1191476Y944499D01*
X1191661Y944721D01*
X1191883Y944943D01*
X1192068Y945240D01*
X1192291Y945573D01*
X1192550Y945943D01*
X1192772Y946314D01*
X1192994Y946758D01*
X1193179Y947240D01*
X1193364Y947758D01*
X1193550Y948313D01*
X1193698Y948906D01*
X1197105Y948054D01*
Y948017D01*
X1197068Y947869D01*
X1196994Y947647D01*
X1196883Y947351D01*
X1196772Y947017D01*
X1196623Y946610D01*
X1196438Y946165D01*
X1196216Y945684D01*
X1195698Y944647D01*
X1195031Y943610D01*
X1194624Y943092D01*
X1194216Y942573D01*
X1193772Y942129D01*
X1193253Y941684D01*
X1193216Y941647D01*
X1193142Y941573D01*
X1192957Y941499D01*
X1192772Y941351D01*
X1192476Y941166D01*
X1192179Y940981D01*
X1191772Y940796D01*
X1191365Y940611D01*
X1190883Y940388D01*
X1190365Y940203D01*
X1189809Y940018D01*
X1189217Y939833D01*
X1188587Y939685D01*
X1187921Y939611D01*
X1187217Y939537D01*
X1186476Y939500D01*
X1186069D01*
X1185773Y939537D01*
X1185439D01*
X1185032Y939574D01*
X1184588Y939648D01*
X1184069Y939722D01*
X1182995Y939907D01*
X1181884Y940203D01*
X1180773Y940611D01*
X1180255Y940870D01*
X1179736Y941166D01*
X1179699Y941203D01*
X1179625Y941240D01*
X1179477Y941351D01*
X1179329Y941499D01*
X1179107Y941647D01*
X1178848Y941870D01*
X1178551Y942129D01*
X1178255Y942425D01*
X1177959Y942758D01*
X1177625Y943092D01*
X1176959Y943943D01*
X1176329Y944943D01*
X1175774Y946054D01*
Y946092D01*
X1175700Y946203D01*
X1175663Y946388D01*
X1175552Y946610D01*
X1175478Y946906D01*
X1175366Y947277D01*
X1175218Y947684D01*
X1175107Y948128D01*
X1174996Y948610D01*
X1174848Y949165D01*
X1174663Y950313D01*
X1174515Y951609D01*
X1174441Y952943D01*
Y952980D01*
Y953128D01*
Y953350D01*
X1174478Y953609D01*
Y953979D01*
X1174515Y954350D01*
X1174552Y954831D01*
X1174626Y955313D01*
X1174811Y956387D01*
X1175070Y957572D01*
X1175440Y958757D01*
X1175959Y959905D01*
X1175996Y959942D01*
X1176033Y960053D01*
X1176107Y960201D01*
X1176255Y960386D01*
X1176403Y960646D01*
X1176589Y960942D01*
X1177070Y961608D01*
X1177700Y962349D01*
X1178440Y963090D01*
X1179292Y963830D01*
X1180292Y964460D01*
X1180329Y964497D01*
X1180440Y964534D01*
X1180588Y964608D01*
X1180773Y964719D01*
X1181069Y964830D01*
X1181366Y964941D01*
X1181736Y965089D01*
X1182143Y965238D01*
X1182588Y965386D01*
X1183069Y965534D01*
X1184106Y965756D01*
X1185291Y965941D01*
X1186513Y966015D01*
X1186884D01*
X1187143Y965978D01*
D02*
G37*
G36*
X1171589Y947647D02*
X1161849D01*
Y950795D01*
X1171589D01*
Y947647D01*
D02*
G37*
G36*
X1150443Y939944D02*
X1146888D01*
X1136963Y965571D01*
X1140666D01*
X1147332Y946943D01*
Y946906D01*
X1147369Y946832D01*
X1147406Y946721D01*
X1147480Y946573D01*
X1147517Y946351D01*
X1147591Y946128D01*
X1147777Y945573D01*
X1147999Y944943D01*
X1148221Y944240D01*
X1148665Y942758D01*
Y942795D01*
X1148702Y942870D01*
X1148739Y942981D01*
X1148776Y943129D01*
X1148888Y943536D01*
X1149073Y944092D01*
X1149258Y944721D01*
X1149480Y945425D01*
X1149739Y946165D01*
X1150036Y946943D01*
X1156998Y965571D01*
X1160442D01*
X1150443Y939944D01*
D02*
G37*
G36*
X1215881Y939944D02*
X1213066D01*
Y942647D01*
X1213029Y942610D01*
X1212955Y942499D01*
X1212844Y942351D01*
X1212659Y942166D01*
X1212437Y941944D01*
X1212177Y941647D01*
X1211881Y941388D01*
X1211511Y941092D01*
X1211103Y940796D01*
X1210659Y940536D01*
X1210178Y940277D01*
X1209659Y940018D01*
X1209067Y939833D01*
X1208474Y939685D01*
X1207807Y939574D01*
X1207141Y939537D01*
X1206882D01*
X1206548Y939574D01*
X1206141Y939611D01*
X1205659Y939685D01*
X1205141Y939796D01*
X1204623Y939944D01*
X1204067Y940166D01*
X1203993Y940203D01*
X1203845Y940277D01*
X1203586Y940425D01*
X1203289Y940611D01*
X1202919Y940833D01*
X1202586Y941092D01*
X1202253Y941388D01*
X1201956Y941721D01*
X1201919Y941759D01*
X1201845Y941907D01*
X1201734Y942092D01*
X1201586Y942388D01*
X1201401Y942721D01*
X1201253Y943129D01*
X1201105Y943573D01*
X1200993Y944055D01*
Y944092D01*
X1200956Y944240D01*
X1200919Y944462D01*
Y944758D01*
X1200882Y945203D01*
X1200845Y945684D01*
X1200808Y946314D01*
Y947017D01*
Y958535D01*
X1203956D01*
Y948202D01*
Y948165D01*
Y948091D01*
Y947980D01*
Y947795D01*
Y947388D01*
X1203993Y946869D01*
Y946314D01*
X1204030Y945758D01*
X1204067Y945277D01*
X1204141Y944869D01*
Y944832D01*
X1204215Y944684D01*
X1204289Y944462D01*
X1204400Y944166D01*
X1204586Y943869D01*
X1204808Y943536D01*
X1205067Y943240D01*
X1205400Y942944D01*
X1205437Y942907D01*
X1205585Y942832D01*
X1205771Y942721D01*
X1206067Y942610D01*
X1206400Y942462D01*
X1206808Y942351D01*
X1207252Y942277D01*
X1207770Y942240D01*
X1208030D01*
X1208289Y942277D01*
X1208622Y942314D01*
X1209030Y942425D01*
X1209474Y942536D01*
X1209955Y942721D01*
X1210437Y942944D01*
X1210511Y942981D01*
X1210659Y943092D01*
X1210881Y943240D01*
X1211141Y943462D01*
X1211437Y943758D01*
X1211733Y944092D01*
X1211992Y944462D01*
X1212214Y944906D01*
X1212251Y944980D01*
X1212289Y945129D01*
X1212363Y945425D01*
X1212474Y945832D01*
X1212585Y946351D01*
X1212659Y946980D01*
X1212696Y947721D01*
X1212733Y948573D01*
Y958535D01*
X1215881D01*
Y939944D01*
D02*
G37*
G36*
X1224472Y958535D02*
X1227657D01*
Y956090D01*
X1224472D01*
Y945166D01*
Y945092D01*
Y944943D01*
Y944721D01*
X1224509Y944462D01*
X1224547Y943869D01*
X1224584Y943610D01*
X1224621Y943425D01*
X1224658Y943351D01*
X1224769Y943203D01*
X1224917Y943018D01*
X1225176Y942833D01*
X1225250Y942795D01*
X1225435Y942721D01*
X1225769Y942647D01*
X1226250Y942610D01*
X1226620D01*
X1226805Y942647D01*
X1227065D01*
X1227361Y942684D01*
X1227657Y942721D01*
X1228065Y939944D01*
X1227991D01*
X1227842Y939907D01*
X1227583Y939870D01*
X1227250Y939833D01*
X1226880Y939759D01*
X1226472Y939722D01*
X1225658Y939685D01*
X1225361D01*
X1225065Y939722D01*
X1224695Y939759D01*
X1224250Y939796D01*
X1223806Y939907D01*
X1223398Y940018D01*
X1222991Y940203D01*
X1222954Y940240D01*
X1222843Y940314D01*
X1222695Y940425D01*
X1222473Y940611D01*
X1222287Y940796D01*
X1222065Y941055D01*
X1221843Y941314D01*
X1221695Y941647D01*
Y941684D01*
X1221621Y941833D01*
X1221584Y942092D01*
X1221510Y942462D01*
X1221436Y942944D01*
X1221399Y943240D01*
Y943573D01*
X1221362Y943981D01*
X1221325Y944388D01*
Y944832D01*
Y945351D01*
Y956090D01*
X1218991D01*
Y958535D01*
X1221325D01*
Y963127D01*
X1224472Y965015D01*
Y958535D01*
D02*
G37*
G36*
X1187143Y1115978D02*
X1187476Y1115941D01*
X1187884Y1115904D01*
X1188291Y1115867D01*
X1188772Y1115756D01*
X1189772Y1115534D01*
X1190883Y1115201D01*
X1191439Y1114978D01*
X1191957Y1114719D01*
X1192476Y1114386D01*
X1192994Y1114053D01*
X1193031Y1114016D01*
X1193105Y1113979D01*
X1193253Y1113867D01*
X1193439Y1113682D01*
X1193624Y1113497D01*
X1193883Y1113238D01*
X1194142Y1112942D01*
X1194438Y1112645D01*
X1194735Y1112275D01*
X1195031Y1111831D01*
X1195364Y1111386D01*
X1195661Y1110905D01*
X1195920Y1110349D01*
X1196216Y1109794D01*
X1196438Y1109201D01*
X1196661Y1108535D01*
X1193327Y1107757D01*
Y1107794D01*
X1193290Y1107868D01*
X1193216Y1108016D01*
X1193142Y1108201D01*
X1193068Y1108423D01*
X1192957Y1108720D01*
X1192661Y1109312D01*
X1192291Y1109979D01*
X1191846Y1110646D01*
X1191291Y1111275D01*
X1190698Y1111831D01*
X1190624Y1111905D01*
X1190402Y1112053D01*
X1190032Y1112238D01*
X1189550Y1112497D01*
X1188921Y1112719D01*
X1188217Y1112942D01*
X1187365Y1113090D01*
X1186439Y1113127D01*
X1186143D01*
X1185958Y1113090D01*
X1185699D01*
X1185402Y1113053D01*
X1184699Y1112942D01*
X1183921Y1112793D01*
X1183106Y1112534D01*
X1182255Y1112164D01*
X1181477Y1111682D01*
X1181440D01*
X1181403Y1111608D01*
X1181144Y1111423D01*
X1180810Y1111127D01*
X1180403Y1110683D01*
X1179921Y1110127D01*
X1179477Y1109498D01*
X1179070Y1108720D01*
X1178699Y1107868D01*
Y1107831D01*
X1178662Y1107757D01*
X1178625Y1107646D01*
X1178588Y1107461D01*
X1178514Y1107238D01*
X1178440Y1106979D01*
X1178329Y1106350D01*
X1178181Y1105609D01*
X1178033Y1104794D01*
X1177959Y1103905D01*
X1177922Y1102943D01*
Y1102906D01*
Y1102794D01*
Y1102609D01*
Y1102387D01*
X1177959Y1102128D01*
Y1101795D01*
X1177996Y1101424D01*
X1178033Y1101017D01*
X1178144Y1100128D01*
X1178329Y1099165D01*
X1178551Y1098202D01*
X1178848Y1097240D01*
Y1097203D01*
X1178885Y1097128D01*
X1178959Y1097017D01*
X1179033Y1096832D01*
X1179255Y1096388D01*
X1179588Y1095869D01*
X1179995Y1095277D01*
X1180514Y1094647D01*
X1181106Y1094092D01*
X1181810Y1093573D01*
X1181847D01*
X1181921Y1093536D01*
X1182032Y1093462D01*
X1182180Y1093388D01*
X1182366Y1093314D01*
X1182588Y1093203D01*
X1183106Y1092981D01*
X1183773Y1092758D01*
X1184514Y1092573D01*
X1185328Y1092425D01*
X1186180Y1092388D01*
X1186439D01*
X1186662Y1092425D01*
X1186921D01*
X1187180Y1092462D01*
X1187847Y1092610D01*
X1188624Y1092795D01*
X1189402Y1093092D01*
X1190217Y1093499D01*
X1190624Y1093721D01*
X1190994Y1094018D01*
X1191031Y1094055D01*
X1191068Y1094092D01*
X1191180Y1094203D01*
X1191328Y1094314D01*
X1191476Y1094499D01*
X1191661Y1094721D01*
X1191883Y1094943D01*
X1192068Y1095240D01*
X1192291Y1095573D01*
X1192550Y1095943D01*
X1192772Y1096314D01*
X1192994Y1096758D01*
X1193179Y1097240D01*
X1193364Y1097758D01*
X1193550Y1098313D01*
X1193698Y1098906D01*
X1197105Y1098054D01*
Y1098017D01*
X1197068Y1097869D01*
X1196994Y1097647D01*
X1196883Y1097351D01*
X1196772Y1097017D01*
X1196623Y1096610D01*
X1196438Y1096165D01*
X1196216Y1095684D01*
X1195698Y1094647D01*
X1195031Y1093610D01*
X1194624Y1093092D01*
X1194216Y1092573D01*
X1193772Y1092129D01*
X1193253Y1091684D01*
X1193216Y1091647D01*
X1193142Y1091573D01*
X1192957Y1091499D01*
X1192772Y1091351D01*
X1192476Y1091166D01*
X1192179Y1090981D01*
X1191772Y1090796D01*
X1191365Y1090611D01*
X1190883Y1090388D01*
X1190365Y1090203D01*
X1189809Y1090018D01*
X1189217Y1089833D01*
X1188587Y1089685D01*
X1187921Y1089611D01*
X1187217Y1089537D01*
X1186476Y1089500D01*
X1186069D01*
X1185773Y1089537D01*
X1185439D01*
X1185032Y1089574D01*
X1184588Y1089648D01*
X1184069Y1089722D01*
X1182995Y1089907D01*
X1181884Y1090203D01*
X1180773Y1090611D01*
X1180255Y1090870D01*
X1179736Y1091166D01*
X1179699Y1091203D01*
X1179625Y1091240D01*
X1179477Y1091351D01*
X1179329Y1091499D01*
X1179107Y1091647D01*
X1178848Y1091870D01*
X1178551Y1092129D01*
X1178255Y1092425D01*
X1177959Y1092758D01*
X1177625Y1093092D01*
X1176959Y1093943D01*
X1176329Y1094943D01*
X1175774Y1096054D01*
Y1096092D01*
X1175700Y1096203D01*
X1175663Y1096388D01*
X1175552Y1096610D01*
X1175478Y1096906D01*
X1175366Y1097277D01*
X1175218Y1097684D01*
X1175107Y1098128D01*
X1174996Y1098610D01*
X1174848Y1099165D01*
X1174663Y1100313D01*
X1174515Y1101609D01*
X1174441Y1102943D01*
Y1102980D01*
Y1103128D01*
Y1103350D01*
X1174478Y1103609D01*
Y1103979D01*
X1174515Y1104350D01*
X1174552Y1104831D01*
X1174626Y1105313D01*
X1174811Y1106387D01*
X1175070Y1107572D01*
X1175440Y1108757D01*
X1175959Y1109905D01*
X1175996Y1109942D01*
X1176033Y1110053D01*
X1176107Y1110201D01*
X1176255Y1110386D01*
X1176403Y1110646D01*
X1176589Y1110942D01*
X1177070Y1111608D01*
X1177700Y1112349D01*
X1178440Y1113090D01*
X1179292Y1113830D01*
X1180292Y1114460D01*
X1180329Y1114497D01*
X1180440Y1114534D01*
X1180588Y1114608D01*
X1180773Y1114719D01*
X1181069Y1114830D01*
X1181366Y1114941D01*
X1181736Y1115089D01*
X1182143Y1115238D01*
X1182588Y1115386D01*
X1183069Y1115534D01*
X1184106Y1115756D01*
X1185291Y1115941D01*
X1186513Y1116015D01*
X1186884D01*
X1187143Y1115978D01*
D02*
G37*
G36*
X1171589Y1097647D02*
X1161849D01*
Y1100795D01*
X1171589D01*
Y1097647D01*
D02*
G37*
G36*
X1150443Y1089944D02*
X1146888D01*
X1136963Y1115571D01*
X1140666D01*
X1147332Y1096943D01*
Y1096906D01*
X1147369Y1096832D01*
X1147406Y1096721D01*
X1147480Y1096573D01*
X1147517Y1096351D01*
X1147591Y1096128D01*
X1147777Y1095573D01*
X1147999Y1094943D01*
X1148221Y1094240D01*
X1148665Y1092758D01*
Y1092795D01*
X1148702Y1092870D01*
X1148739Y1092981D01*
X1148776Y1093129D01*
X1148888Y1093536D01*
X1149073Y1094092D01*
X1149258Y1094721D01*
X1149480Y1095425D01*
X1149739Y1096165D01*
X1150036Y1096943D01*
X1156998Y1115571D01*
X1160442D01*
X1150443Y1089944D01*
D02*
G37*
G36*
X1215881Y1089944D02*
X1213066D01*
Y1092647D01*
X1213029Y1092610D01*
X1212955Y1092499D01*
X1212844Y1092351D01*
X1212659Y1092166D01*
X1212437Y1091944D01*
X1212177Y1091647D01*
X1211881Y1091388D01*
X1211511Y1091092D01*
X1211103Y1090796D01*
X1210659Y1090536D01*
X1210178Y1090277D01*
X1209659Y1090018D01*
X1209067Y1089833D01*
X1208474Y1089685D01*
X1207807Y1089574D01*
X1207141Y1089537D01*
X1206882D01*
X1206548Y1089574D01*
X1206141Y1089611D01*
X1205659Y1089685D01*
X1205141Y1089796D01*
X1204623Y1089944D01*
X1204067Y1090166D01*
X1203993Y1090203D01*
X1203845Y1090277D01*
X1203586Y1090425D01*
X1203289Y1090611D01*
X1202919Y1090833D01*
X1202586Y1091092D01*
X1202253Y1091388D01*
X1201956Y1091721D01*
X1201919Y1091759D01*
X1201845Y1091907D01*
X1201734Y1092092D01*
X1201586Y1092388D01*
X1201401Y1092721D01*
X1201253Y1093129D01*
X1201105Y1093573D01*
X1200993Y1094055D01*
Y1094092D01*
X1200956Y1094240D01*
X1200919Y1094462D01*
Y1094758D01*
X1200882Y1095203D01*
X1200845Y1095684D01*
X1200808Y1096314D01*
Y1097017D01*
Y1108535D01*
X1203956D01*
Y1098202D01*
Y1098165D01*
Y1098091D01*
Y1097980D01*
Y1097795D01*
Y1097388D01*
X1203993Y1096869D01*
Y1096314D01*
X1204030Y1095758D01*
X1204067Y1095277D01*
X1204141Y1094869D01*
Y1094832D01*
X1204215Y1094684D01*
X1204289Y1094462D01*
X1204400Y1094166D01*
X1204586Y1093869D01*
X1204808Y1093536D01*
X1205067Y1093240D01*
X1205400Y1092944D01*
X1205437Y1092907D01*
X1205585Y1092832D01*
X1205771Y1092721D01*
X1206067Y1092610D01*
X1206400Y1092462D01*
X1206808Y1092351D01*
X1207252Y1092277D01*
X1207770Y1092240D01*
X1208030D01*
X1208289Y1092277D01*
X1208622Y1092314D01*
X1209030Y1092425D01*
X1209474Y1092536D01*
X1209955Y1092721D01*
X1210437Y1092944D01*
X1210511Y1092981D01*
X1210659Y1093092D01*
X1210881Y1093240D01*
X1211141Y1093462D01*
X1211437Y1093758D01*
X1211733Y1094092D01*
X1211992Y1094462D01*
X1212214Y1094906D01*
X1212251Y1094980D01*
X1212289Y1095129D01*
X1212363Y1095425D01*
X1212474Y1095832D01*
X1212585Y1096351D01*
X1212659Y1096980D01*
X1212696Y1097721D01*
X1212733Y1098573D01*
Y1108535D01*
X1215881D01*
Y1089944D01*
D02*
G37*
G36*
X1224472Y1108535D02*
X1227657D01*
Y1106090D01*
X1224472D01*
Y1095166D01*
Y1095092D01*
Y1094943D01*
Y1094721D01*
X1224509Y1094462D01*
X1224547Y1093869D01*
X1224584Y1093610D01*
X1224621Y1093425D01*
X1224658Y1093351D01*
X1224769Y1093203D01*
X1224917Y1093018D01*
X1225176Y1092833D01*
X1225250Y1092795D01*
X1225435Y1092721D01*
X1225769Y1092647D01*
X1226250Y1092610D01*
X1226620D01*
X1226805Y1092647D01*
X1227065D01*
X1227361Y1092684D01*
X1227657Y1092721D01*
X1228065Y1089944D01*
X1227991D01*
X1227842Y1089907D01*
X1227583Y1089870D01*
X1227250Y1089833D01*
X1226880Y1089759D01*
X1226472Y1089722D01*
X1225658Y1089685D01*
X1225361D01*
X1225065Y1089722D01*
X1224695Y1089759D01*
X1224250Y1089796D01*
X1223806Y1089907D01*
X1223398Y1090018D01*
X1222991Y1090203D01*
X1222954Y1090240D01*
X1222843Y1090314D01*
X1222695Y1090425D01*
X1222473Y1090611D01*
X1222287Y1090796D01*
X1222065Y1091055D01*
X1221843Y1091314D01*
X1221695Y1091647D01*
Y1091684D01*
X1221621Y1091833D01*
X1221584Y1092092D01*
X1221510Y1092462D01*
X1221436Y1092944D01*
X1221399Y1093240D01*
Y1093573D01*
X1221362Y1093981D01*
X1221325Y1094388D01*
Y1094832D01*
Y1095351D01*
Y1106090D01*
X1218991D01*
Y1108535D01*
X1221325D01*
Y1113127D01*
X1224472Y1115015D01*
Y1108535D01*
D02*
G37*
G36*
X1187143Y1415978D02*
X1187476Y1415941D01*
X1187884Y1415904D01*
X1188291Y1415867D01*
X1188772Y1415756D01*
X1189772Y1415534D01*
X1190883Y1415201D01*
X1191439Y1414978D01*
X1191957Y1414719D01*
X1192476Y1414386D01*
X1192994Y1414052D01*
X1193031Y1414016D01*
X1193105Y1413978D01*
X1193253Y1413867D01*
X1193439Y1413682D01*
X1193624Y1413497D01*
X1193883Y1413238D01*
X1194142Y1412941D01*
X1194438Y1412645D01*
X1194735Y1412275D01*
X1195031Y1411831D01*
X1195364Y1411386D01*
X1195661Y1410905D01*
X1195920Y1410349D01*
X1196216Y1409794D01*
X1196438Y1409201D01*
X1196661Y1408535D01*
X1193327Y1407757D01*
Y1407794D01*
X1193290Y1407868D01*
X1193216Y1408016D01*
X1193142Y1408201D01*
X1193068Y1408423D01*
X1192957Y1408720D01*
X1192661Y1409312D01*
X1192291Y1409979D01*
X1191846Y1410645D01*
X1191291Y1411275D01*
X1190698Y1411831D01*
X1190624Y1411905D01*
X1190402Y1412053D01*
X1190032Y1412238D01*
X1189550Y1412497D01*
X1188921Y1412719D01*
X1188217Y1412941D01*
X1187365Y1413090D01*
X1186439Y1413127D01*
X1186143D01*
X1185958Y1413090D01*
X1185699D01*
X1185402Y1413053D01*
X1184699Y1412941D01*
X1183921Y1412793D01*
X1183106Y1412534D01*
X1182255Y1412164D01*
X1181477Y1411682D01*
X1181440D01*
X1181403Y1411608D01*
X1181144Y1411423D01*
X1180810Y1411127D01*
X1180403Y1410683D01*
X1179921Y1410127D01*
X1179477Y1409498D01*
X1179070Y1408720D01*
X1178699Y1407868D01*
Y1407831D01*
X1178662Y1407757D01*
X1178625Y1407646D01*
X1178588Y1407461D01*
X1178514Y1407238D01*
X1178440Y1406979D01*
X1178329Y1406350D01*
X1178181Y1405609D01*
X1178033Y1404794D01*
X1177959Y1403905D01*
X1177922Y1402943D01*
Y1402906D01*
Y1402794D01*
Y1402609D01*
Y1402387D01*
X1177959Y1402128D01*
Y1401795D01*
X1177996Y1401424D01*
X1178033Y1401017D01*
X1178144Y1400128D01*
X1178329Y1399165D01*
X1178551Y1398202D01*
X1178848Y1397240D01*
Y1397202D01*
X1178885Y1397128D01*
X1178959Y1397017D01*
X1179033Y1396832D01*
X1179255Y1396388D01*
X1179588Y1395869D01*
X1179995Y1395277D01*
X1180514Y1394647D01*
X1181106Y1394092D01*
X1181810Y1393573D01*
X1181847D01*
X1181921Y1393536D01*
X1182032Y1393462D01*
X1182180Y1393388D01*
X1182366Y1393314D01*
X1182588Y1393203D01*
X1183106Y1392981D01*
X1183773Y1392758D01*
X1184514Y1392573D01*
X1185328Y1392425D01*
X1186180Y1392388D01*
X1186439D01*
X1186662Y1392425D01*
X1186921D01*
X1187180Y1392462D01*
X1187847Y1392610D01*
X1188624Y1392796D01*
X1189402Y1393092D01*
X1190217Y1393499D01*
X1190624Y1393721D01*
X1190994Y1394018D01*
X1191031Y1394055D01*
X1191068Y1394092D01*
X1191180Y1394203D01*
X1191328Y1394314D01*
X1191476Y1394499D01*
X1191661Y1394721D01*
X1191883Y1394943D01*
X1192068Y1395240D01*
X1192291Y1395573D01*
X1192550Y1395943D01*
X1192772Y1396314D01*
X1192994Y1396758D01*
X1193179Y1397240D01*
X1193364Y1397758D01*
X1193550Y1398313D01*
X1193698Y1398906D01*
X1197105Y1398054D01*
Y1398017D01*
X1197068Y1397869D01*
X1196994Y1397647D01*
X1196883Y1397351D01*
X1196772Y1397017D01*
X1196623Y1396610D01*
X1196438Y1396165D01*
X1196216Y1395684D01*
X1195698Y1394647D01*
X1195031Y1393610D01*
X1194624Y1393092D01*
X1194216Y1392573D01*
X1193772Y1392129D01*
X1193253Y1391685D01*
X1193216Y1391647D01*
X1193142Y1391573D01*
X1192957Y1391499D01*
X1192772Y1391351D01*
X1192476Y1391166D01*
X1192179Y1390981D01*
X1191772Y1390796D01*
X1191365Y1390611D01*
X1190883Y1390388D01*
X1190365Y1390203D01*
X1189809Y1390018D01*
X1189217Y1389833D01*
X1188587Y1389685D01*
X1187921Y1389611D01*
X1187217Y1389537D01*
X1186476Y1389500D01*
X1186069D01*
X1185773Y1389537D01*
X1185439D01*
X1185032Y1389574D01*
X1184588Y1389648D01*
X1184069Y1389722D01*
X1182995Y1389907D01*
X1181884Y1390203D01*
X1180773Y1390611D01*
X1180255Y1390870D01*
X1179736Y1391166D01*
X1179699Y1391203D01*
X1179625Y1391240D01*
X1179477Y1391351D01*
X1179329Y1391499D01*
X1179107Y1391647D01*
X1178848Y1391870D01*
X1178551Y1392129D01*
X1178255Y1392425D01*
X1177959Y1392758D01*
X1177625Y1393092D01*
X1176959Y1393943D01*
X1176329Y1394943D01*
X1175774Y1396054D01*
Y1396091D01*
X1175700Y1396203D01*
X1175663Y1396388D01*
X1175552Y1396610D01*
X1175478Y1396906D01*
X1175366Y1397276D01*
X1175218Y1397684D01*
X1175107Y1398128D01*
X1174996Y1398610D01*
X1174848Y1399165D01*
X1174663Y1400313D01*
X1174515Y1401609D01*
X1174441Y1402943D01*
Y1402980D01*
Y1403128D01*
Y1403350D01*
X1174478Y1403609D01*
Y1403979D01*
X1174515Y1404350D01*
X1174552Y1404831D01*
X1174626Y1405313D01*
X1174811Y1406387D01*
X1175070Y1407572D01*
X1175440Y1408757D01*
X1175959Y1409905D01*
X1175996Y1409942D01*
X1176033Y1410053D01*
X1176107Y1410201D01*
X1176255Y1410386D01*
X1176403Y1410645D01*
X1176589Y1410942D01*
X1177070Y1411608D01*
X1177700Y1412349D01*
X1178440Y1413090D01*
X1179292Y1413830D01*
X1180292Y1414460D01*
X1180329Y1414497D01*
X1180440Y1414534D01*
X1180588Y1414608D01*
X1180773Y1414719D01*
X1181069Y1414830D01*
X1181366Y1414941D01*
X1181736Y1415090D01*
X1182143Y1415238D01*
X1182588Y1415386D01*
X1183069Y1415534D01*
X1184106Y1415756D01*
X1185291Y1415941D01*
X1186513Y1416015D01*
X1186884D01*
X1187143Y1415978D01*
D02*
G37*
G36*
X1171589Y1397647D02*
X1161849D01*
Y1400795D01*
X1171589D01*
Y1397647D01*
D02*
G37*
G36*
X1150443Y1389944D02*
X1146888D01*
X1136963Y1415571D01*
X1140666D01*
X1147332Y1396943D01*
Y1396906D01*
X1147369Y1396832D01*
X1147406Y1396721D01*
X1147480Y1396573D01*
X1147517Y1396351D01*
X1147591Y1396129D01*
X1147777Y1395573D01*
X1147999Y1394943D01*
X1148221Y1394240D01*
X1148665Y1392758D01*
Y1392796D01*
X1148702Y1392870D01*
X1148739Y1392981D01*
X1148776Y1393129D01*
X1148888Y1393536D01*
X1149073Y1394092D01*
X1149258Y1394721D01*
X1149480Y1395425D01*
X1149739Y1396165D01*
X1150036Y1396943D01*
X1156998Y1415571D01*
X1160442D01*
X1150443Y1389944D01*
D02*
G37*
G36*
X1215881Y1389944D02*
X1213066D01*
Y1392647D01*
X1213029Y1392610D01*
X1212955Y1392499D01*
X1212844Y1392351D01*
X1212659Y1392166D01*
X1212437Y1391944D01*
X1212177Y1391647D01*
X1211881Y1391388D01*
X1211511Y1391092D01*
X1211103Y1390796D01*
X1210659Y1390536D01*
X1210178Y1390277D01*
X1209659Y1390018D01*
X1209067Y1389833D01*
X1208474Y1389685D01*
X1207807Y1389574D01*
X1207141Y1389537D01*
X1206882D01*
X1206548Y1389574D01*
X1206141Y1389611D01*
X1205659Y1389685D01*
X1205141Y1389796D01*
X1204623Y1389944D01*
X1204067Y1390166D01*
X1203993Y1390203D01*
X1203845Y1390277D01*
X1203586Y1390425D01*
X1203289Y1390611D01*
X1202919Y1390833D01*
X1202586Y1391092D01*
X1202253Y1391388D01*
X1201956Y1391721D01*
X1201919Y1391759D01*
X1201845Y1391907D01*
X1201734Y1392092D01*
X1201586Y1392388D01*
X1201401Y1392721D01*
X1201253Y1393129D01*
X1201105Y1393573D01*
X1200993Y1394055D01*
Y1394092D01*
X1200956Y1394240D01*
X1200919Y1394462D01*
Y1394758D01*
X1200882Y1395203D01*
X1200845Y1395684D01*
X1200808Y1396314D01*
Y1397017D01*
Y1408535D01*
X1203956D01*
Y1398202D01*
Y1398165D01*
Y1398091D01*
Y1397980D01*
Y1397795D01*
Y1397388D01*
X1203993Y1396869D01*
Y1396314D01*
X1204030Y1395758D01*
X1204067Y1395277D01*
X1204141Y1394869D01*
Y1394832D01*
X1204215Y1394684D01*
X1204289Y1394462D01*
X1204400Y1394166D01*
X1204586Y1393869D01*
X1204808Y1393536D01*
X1205067Y1393240D01*
X1205400Y1392944D01*
X1205437Y1392907D01*
X1205585Y1392832D01*
X1205771Y1392721D01*
X1206067Y1392610D01*
X1206400Y1392462D01*
X1206808Y1392351D01*
X1207252Y1392277D01*
X1207770Y1392240D01*
X1208030D01*
X1208289Y1392277D01*
X1208622Y1392314D01*
X1209030Y1392425D01*
X1209474Y1392536D01*
X1209955Y1392721D01*
X1210437Y1392944D01*
X1210511Y1392981D01*
X1210659Y1393092D01*
X1210881Y1393240D01*
X1211141Y1393462D01*
X1211437Y1393758D01*
X1211733Y1394092D01*
X1211992Y1394462D01*
X1212214Y1394906D01*
X1212251Y1394980D01*
X1212289Y1395129D01*
X1212363Y1395425D01*
X1212474Y1395832D01*
X1212585Y1396351D01*
X1212659Y1396980D01*
X1212696Y1397721D01*
X1212733Y1398573D01*
Y1408535D01*
X1215881D01*
Y1389944D01*
D02*
G37*
G36*
X1224472Y1408535D02*
X1227657D01*
Y1406090D01*
X1224472D01*
Y1395166D01*
Y1395092D01*
Y1394943D01*
Y1394721D01*
X1224509Y1394462D01*
X1224547Y1393869D01*
X1224584Y1393610D01*
X1224621Y1393425D01*
X1224658Y1393351D01*
X1224769Y1393203D01*
X1224917Y1393018D01*
X1225176Y1392832D01*
X1225250Y1392796D01*
X1225435Y1392721D01*
X1225769Y1392647D01*
X1226250Y1392610D01*
X1226620D01*
X1226805Y1392647D01*
X1227065D01*
X1227361Y1392684D01*
X1227657Y1392721D01*
X1228065Y1389944D01*
X1227991D01*
X1227842Y1389907D01*
X1227583Y1389870D01*
X1227250Y1389833D01*
X1226880Y1389759D01*
X1226472Y1389722D01*
X1225658Y1389685D01*
X1225361D01*
X1225065Y1389722D01*
X1224695Y1389759D01*
X1224250Y1389796D01*
X1223806Y1389907D01*
X1223398Y1390018D01*
X1222991Y1390203D01*
X1222954Y1390240D01*
X1222843Y1390314D01*
X1222695Y1390425D01*
X1222473Y1390611D01*
X1222287Y1390796D01*
X1222065Y1391055D01*
X1221843Y1391314D01*
X1221695Y1391647D01*
Y1391685D01*
X1221621Y1391833D01*
X1221584Y1392092D01*
X1221510Y1392462D01*
X1221436Y1392944D01*
X1221399Y1393240D01*
Y1393573D01*
X1221362Y1393981D01*
X1221325Y1394388D01*
Y1394832D01*
Y1395351D01*
Y1406090D01*
X1218991D01*
Y1408535D01*
X1221325D01*
Y1413127D01*
X1224472Y1415015D01*
Y1408535D01*
D02*
G37*
G36*
X1187143Y1815978D02*
X1187476Y1815941D01*
X1187884Y1815904D01*
X1188291Y1815867D01*
X1188772Y1815756D01*
X1189772Y1815534D01*
X1190883Y1815201D01*
X1191439Y1814978D01*
X1191957Y1814719D01*
X1192476Y1814386D01*
X1192994Y1814053D01*
X1193031Y1814016D01*
X1193105Y1813978D01*
X1193253Y1813867D01*
X1193439Y1813682D01*
X1193624Y1813497D01*
X1193883Y1813238D01*
X1194142Y1812942D01*
X1194438Y1812645D01*
X1194735Y1812275D01*
X1195031Y1811831D01*
X1195364Y1811386D01*
X1195661Y1810905D01*
X1195920Y1810349D01*
X1196216Y1809794D01*
X1196438Y1809201D01*
X1196661Y1808535D01*
X1193327Y1807757D01*
Y1807794D01*
X1193290Y1807868D01*
X1193216Y1808016D01*
X1193142Y1808201D01*
X1193068Y1808423D01*
X1192957Y1808720D01*
X1192661Y1809312D01*
X1192291Y1809979D01*
X1191846Y1810645D01*
X1191291Y1811275D01*
X1190698Y1811831D01*
X1190624Y1811905D01*
X1190402Y1812053D01*
X1190032Y1812238D01*
X1189550Y1812497D01*
X1188921Y1812719D01*
X1188217Y1812942D01*
X1187365Y1813090D01*
X1186439Y1813127D01*
X1186143D01*
X1185958Y1813090D01*
X1185699D01*
X1185402Y1813053D01*
X1184699Y1812942D01*
X1183921Y1812793D01*
X1183106Y1812534D01*
X1182255Y1812164D01*
X1181477Y1811682D01*
X1181440D01*
X1181403Y1811608D01*
X1181144Y1811423D01*
X1180810Y1811127D01*
X1180403Y1810683D01*
X1179921Y1810127D01*
X1179477Y1809498D01*
X1179070Y1808720D01*
X1178699Y1807868D01*
Y1807831D01*
X1178662Y1807757D01*
X1178625Y1807646D01*
X1178588Y1807461D01*
X1178514Y1807238D01*
X1178440Y1806979D01*
X1178329Y1806350D01*
X1178181Y1805609D01*
X1178033Y1804794D01*
X1177959Y1803905D01*
X1177922Y1802943D01*
Y1802906D01*
Y1802794D01*
Y1802609D01*
Y1802387D01*
X1177959Y1802128D01*
Y1801795D01*
X1177996Y1801424D01*
X1178033Y1801017D01*
X1178144Y1800128D01*
X1178329Y1799165D01*
X1178551Y1798202D01*
X1178848Y1797240D01*
Y1797202D01*
X1178885Y1797128D01*
X1178959Y1797017D01*
X1179033Y1796832D01*
X1179255Y1796388D01*
X1179588Y1795869D01*
X1179995Y1795277D01*
X1180514Y1794647D01*
X1181106Y1794092D01*
X1181810Y1793573D01*
X1181847D01*
X1181921Y1793536D01*
X1182032Y1793462D01*
X1182180Y1793388D01*
X1182366Y1793314D01*
X1182588Y1793203D01*
X1183106Y1792981D01*
X1183773Y1792758D01*
X1184514Y1792573D01*
X1185328Y1792425D01*
X1186180Y1792388D01*
X1186439D01*
X1186662Y1792425D01*
X1186921D01*
X1187180Y1792462D01*
X1187847Y1792610D01*
X1188624Y1792796D01*
X1189402Y1793092D01*
X1190217Y1793499D01*
X1190624Y1793721D01*
X1190994Y1794018D01*
X1191031Y1794055D01*
X1191068Y1794092D01*
X1191180Y1794203D01*
X1191328Y1794314D01*
X1191476Y1794499D01*
X1191661Y1794721D01*
X1191883Y1794943D01*
X1192068Y1795240D01*
X1192291Y1795573D01*
X1192550Y1795943D01*
X1192772Y1796314D01*
X1192994Y1796758D01*
X1193179Y1797240D01*
X1193364Y1797758D01*
X1193550Y1798313D01*
X1193698Y1798906D01*
X1197105Y1798054D01*
Y1798017D01*
X1197068Y1797869D01*
X1196994Y1797647D01*
X1196883Y1797351D01*
X1196772Y1797017D01*
X1196623Y1796610D01*
X1196438Y1796165D01*
X1196216Y1795684D01*
X1195698Y1794647D01*
X1195031Y1793610D01*
X1194624Y1793092D01*
X1194216Y1792573D01*
X1193772Y1792129D01*
X1193253Y1791685D01*
X1193216Y1791647D01*
X1193142Y1791573D01*
X1192957Y1791499D01*
X1192772Y1791351D01*
X1192476Y1791166D01*
X1192179Y1790981D01*
X1191772Y1790796D01*
X1191365Y1790611D01*
X1190883Y1790388D01*
X1190365Y1790203D01*
X1189809Y1790018D01*
X1189217Y1789833D01*
X1188587Y1789685D01*
X1187921Y1789611D01*
X1187217Y1789537D01*
X1186476Y1789500D01*
X1186069D01*
X1185773Y1789537D01*
X1185439D01*
X1185032Y1789574D01*
X1184588Y1789648D01*
X1184069Y1789722D01*
X1182995Y1789907D01*
X1181884Y1790203D01*
X1180773Y1790611D01*
X1180255Y1790870D01*
X1179736Y1791166D01*
X1179699Y1791203D01*
X1179625Y1791240D01*
X1179477Y1791351D01*
X1179329Y1791499D01*
X1179107Y1791647D01*
X1178848Y1791870D01*
X1178551Y1792129D01*
X1178255Y1792425D01*
X1177959Y1792758D01*
X1177625Y1793092D01*
X1176959Y1793943D01*
X1176329Y1794943D01*
X1175774Y1796054D01*
Y1796091D01*
X1175700Y1796203D01*
X1175663Y1796388D01*
X1175552Y1796610D01*
X1175478Y1796906D01*
X1175366Y1797276D01*
X1175218Y1797684D01*
X1175107Y1798128D01*
X1174996Y1798610D01*
X1174848Y1799165D01*
X1174663Y1800313D01*
X1174515Y1801609D01*
X1174441Y1802943D01*
Y1802980D01*
Y1803128D01*
Y1803350D01*
X1174478Y1803609D01*
Y1803979D01*
X1174515Y1804350D01*
X1174552Y1804831D01*
X1174626Y1805313D01*
X1174811Y1806387D01*
X1175070Y1807572D01*
X1175440Y1808757D01*
X1175959Y1809905D01*
X1175996Y1809942D01*
X1176033Y1810053D01*
X1176107Y1810201D01*
X1176255Y1810386D01*
X1176403Y1810645D01*
X1176589Y1810942D01*
X1177070Y1811608D01*
X1177700Y1812349D01*
X1178440Y1813090D01*
X1179292Y1813830D01*
X1180292Y1814460D01*
X1180329Y1814497D01*
X1180440Y1814534D01*
X1180588Y1814608D01*
X1180773Y1814719D01*
X1181069Y1814830D01*
X1181366Y1814941D01*
X1181736Y1815090D01*
X1182143Y1815238D01*
X1182588Y1815386D01*
X1183069Y1815534D01*
X1184106Y1815756D01*
X1185291Y1815941D01*
X1186513Y1816015D01*
X1186884D01*
X1187143Y1815978D01*
D02*
G37*
G36*
X1171589Y1797647D02*
X1161849D01*
Y1800795D01*
X1171589D01*
Y1797647D01*
D02*
G37*
G36*
X1150443Y1789944D02*
X1146888D01*
X1136963Y1815571D01*
X1140666D01*
X1147332Y1796943D01*
Y1796906D01*
X1147369Y1796832D01*
X1147406Y1796721D01*
X1147480Y1796573D01*
X1147517Y1796351D01*
X1147591Y1796129D01*
X1147777Y1795573D01*
X1147999Y1794943D01*
X1148221Y1794240D01*
X1148665Y1792758D01*
Y1792796D01*
X1148702Y1792870D01*
X1148739Y1792981D01*
X1148776Y1793129D01*
X1148888Y1793536D01*
X1149073Y1794092D01*
X1149258Y1794721D01*
X1149480Y1795425D01*
X1149739Y1796165D01*
X1150036Y1796943D01*
X1156998Y1815571D01*
X1160442D01*
X1150443Y1789944D01*
D02*
G37*
G36*
X1215881Y1789944D02*
X1213066D01*
Y1792647D01*
X1213029Y1792610D01*
X1212955Y1792499D01*
X1212844Y1792351D01*
X1212659Y1792166D01*
X1212437Y1791944D01*
X1212177Y1791647D01*
X1211881Y1791388D01*
X1211511Y1791092D01*
X1211103Y1790796D01*
X1210659Y1790536D01*
X1210178Y1790277D01*
X1209659Y1790018D01*
X1209067Y1789833D01*
X1208474Y1789685D01*
X1207807Y1789574D01*
X1207141Y1789537D01*
X1206882D01*
X1206548Y1789574D01*
X1206141Y1789611D01*
X1205659Y1789685D01*
X1205141Y1789796D01*
X1204623Y1789944D01*
X1204067Y1790166D01*
X1203993Y1790203D01*
X1203845Y1790277D01*
X1203586Y1790425D01*
X1203289Y1790611D01*
X1202919Y1790833D01*
X1202586Y1791092D01*
X1202253Y1791388D01*
X1201956Y1791721D01*
X1201919Y1791759D01*
X1201845Y1791907D01*
X1201734Y1792092D01*
X1201586Y1792388D01*
X1201401Y1792721D01*
X1201253Y1793129D01*
X1201105Y1793573D01*
X1200993Y1794055D01*
Y1794092D01*
X1200956Y1794240D01*
X1200919Y1794462D01*
Y1794758D01*
X1200882Y1795203D01*
X1200845Y1795684D01*
X1200808Y1796314D01*
Y1797017D01*
Y1808535D01*
X1203956D01*
Y1798202D01*
Y1798165D01*
Y1798091D01*
Y1797980D01*
Y1797795D01*
Y1797388D01*
X1203993Y1796869D01*
Y1796314D01*
X1204030Y1795758D01*
X1204067Y1795277D01*
X1204141Y1794869D01*
Y1794832D01*
X1204215Y1794684D01*
X1204289Y1794462D01*
X1204400Y1794166D01*
X1204586Y1793869D01*
X1204808Y1793536D01*
X1205067Y1793240D01*
X1205400Y1792944D01*
X1205437Y1792907D01*
X1205585Y1792832D01*
X1205771Y1792721D01*
X1206067Y1792610D01*
X1206400Y1792462D01*
X1206808Y1792351D01*
X1207252Y1792277D01*
X1207770Y1792240D01*
X1208030D01*
X1208289Y1792277D01*
X1208622Y1792314D01*
X1209030Y1792425D01*
X1209474Y1792536D01*
X1209955Y1792722D01*
X1210437Y1792944D01*
X1210511Y1792981D01*
X1210659Y1793092D01*
X1210881Y1793240D01*
X1211141Y1793462D01*
X1211437Y1793758D01*
X1211733Y1794092D01*
X1211992Y1794462D01*
X1212214Y1794906D01*
X1212251Y1794980D01*
X1212289Y1795129D01*
X1212363Y1795425D01*
X1212474Y1795832D01*
X1212585Y1796351D01*
X1212659Y1796980D01*
X1212696Y1797721D01*
X1212733Y1798573D01*
Y1808535D01*
X1215881D01*
Y1789944D01*
D02*
G37*
G36*
X1224472Y1808535D02*
X1227657D01*
Y1806090D01*
X1224472D01*
Y1795166D01*
Y1795092D01*
Y1794944D01*
Y1794721D01*
X1224509Y1794462D01*
X1224547Y1793869D01*
X1224584Y1793610D01*
X1224621Y1793425D01*
X1224658Y1793351D01*
X1224769Y1793203D01*
X1224917Y1793018D01*
X1225176Y1792833D01*
X1225250Y1792796D01*
X1225435Y1792722D01*
X1225769Y1792647D01*
X1226250Y1792610D01*
X1226620D01*
X1226805Y1792647D01*
X1227065D01*
X1227361Y1792684D01*
X1227657Y1792722D01*
X1228065Y1789944D01*
X1227991D01*
X1227842Y1789907D01*
X1227583Y1789870D01*
X1227250Y1789833D01*
X1226880Y1789759D01*
X1226472Y1789722D01*
X1225658Y1789685D01*
X1225361D01*
X1225065Y1789722D01*
X1224695Y1789759D01*
X1224250Y1789796D01*
X1223806Y1789907D01*
X1223398Y1790018D01*
X1222991Y1790203D01*
X1222954Y1790240D01*
X1222843Y1790314D01*
X1222695Y1790425D01*
X1222473Y1790611D01*
X1222287Y1790796D01*
X1222065Y1791055D01*
X1221843Y1791314D01*
X1221695Y1791647D01*
Y1791685D01*
X1221621Y1791833D01*
X1221584Y1792092D01*
X1221510Y1792462D01*
X1221436Y1792944D01*
X1221399Y1793240D01*
Y1793573D01*
X1221362Y1793981D01*
X1221325Y1794388D01*
Y1794832D01*
Y1795351D01*
Y1806090D01*
X1218991D01*
Y1808535D01*
X1221325D01*
Y1813127D01*
X1224472Y1815015D01*
Y1808535D01*
D02*
G37*
G36*
X1187143Y565978D02*
X1187476Y565941D01*
X1187884Y565904D01*
X1188291Y565867D01*
X1188772Y565756D01*
X1189772Y565534D01*
X1190883Y565201D01*
X1191439Y564978D01*
X1191957Y564719D01*
X1192476Y564386D01*
X1192994Y564053D01*
X1193031Y564016D01*
X1193105Y563979D01*
X1193253Y563867D01*
X1193439Y563682D01*
X1193624Y563497D01*
X1193883Y563238D01*
X1194142Y562942D01*
X1194438Y562645D01*
X1194735Y562275D01*
X1195031Y561831D01*
X1195364Y561386D01*
X1195661Y560905D01*
X1195920Y560349D01*
X1196216Y559794D01*
X1196438Y559201D01*
X1196661Y558535D01*
X1193327Y557757D01*
Y557794D01*
X1193290Y557868D01*
X1193216Y558016D01*
X1193142Y558201D01*
X1193068Y558424D01*
X1192957Y558720D01*
X1192661Y559312D01*
X1192291Y559979D01*
X1191846Y560645D01*
X1191291Y561275D01*
X1190698Y561831D01*
X1190624Y561905D01*
X1190402Y562053D01*
X1190032Y562238D01*
X1189550Y562497D01*
X1188921Y562719D01*
X1188217Y562942D01*
X1187365Y563090D01*
X1186439Y563127D01*
X1186143D01*
X1185958Y563090D01*
X1185699D01*
X1185402Y563053D01*
X1184699Y562942D01*
X1183921Y562793D01*
X1183106Y562534D01*
X1182255Y562164D01*
X1181477Y561682D01*
X1181440D01*
X1181403Y561608D01*
X1181144Y561423D01*
X1180810Y561127D01*
X1180403Y560682D01*
X1179921Y560127D01*
X1179477Y559497D01*
X1179070Y558720D01*
X1178699Y557868D01*
Y557831D01*
X1178662Y557757D01*
X1178625Y557646D01*
X1178588Y557461D01*
X1178514Y557238D01*
X1178440Y556979D01*
X1178329Y556350D01*
X1178181Y555609D01*
X1178033Y554794D01*
X1177959Y553905D01*
X1177922Y552943D01*
Y552906D01*
Y552794D01*
Y552609D01*
Y552387D01*
X1177959Y552128D01*
Y551795D01*
X1177996Y551424D01*
X1178033Y551017D01*
X1178144Y550128D01*
X1178329Y549165D01*
X1178551Y548202D01*
X1178848Y547239D01*
Y547202D01*
X1178885Y547128D01*
X1178959Y547017D01*
X1179033Y546832D01*
X1179255Y546388D01*
X1179588Y545869D01*
X1179995Y545277D01*
X1180514Y544647D01*
X1181106Y544092D01*
X1181810Y543573D01*
X1181847D01*
X1181921Y543536D01*
X1182032Y543462D01*
X1182180Y543388D01*
X1182366Y543314D01*
X1182588Y543203D01*
X1183106Y542981D01*
X1183773Y542758D01*
X1184514Y542573D01*
X1185328Y542425D01*
X1186180Y542388D01*
X1186439D01*
X1186662Y542425D01*
X1186921D01*
X1187180Y542462D01*
X1187847Y542610D01*
X1188624Y542795D01*
X1189402Y543092D01*
X1190217Y543499D01*
X1190624Y543721D01*
X1190994Y544018D01*
X1191031Y544055D01*
X1191068Y544092D01*
X1191180Y544203D01*
X1191328Y544314D01*
X1191476Y544499D01*
X1191661Y544721D01*
X1191883Y544943D01*
X1192068Y545240D01*
X1192291Y545573D01*
X1192550Y545943D01*
X1192772Y546314D01*
X1192994Y546758D01*
X1193179Y547239D01*
X1193364Y547758D01*
X1193550Y548313D01*
X1193698Y548906D01*
X1197105Y548054D01*
Y548017D01*
X1197068Y547869D01*
X1196994Y547647D01*
X1196883Y547351D01*
X1196772Y547017D01*
X1196623Y546610D01*
X1196438Y546166D01*
X1196216Y545684D01*
X1195698Y544647D01*
X1195031Y543610D01*
X1194624Y543092D01*
X1194216Y542573D01*
X1193772Y542129D01*
X1193253Y541684D01*
X1193216Y541647D01*
X1193142Y541573D01*
X1192957Y541499D01*
X1192772Y541351D01*
X1192476Y541166D01*
X1192179Y540981D01*
X1191772Y540796D01*
X1191365Y540611D01*
X1190883Y540388D01*
X1190365Y540203D01*
X1189809Y540018D01*
X1189217Y539833D01*
X1188587Y539685D01*
X1187921Y539611D01*
X1187217Y539537D01*
X1186476Y539500D01*
X1186069D01*
X1185773Y539537D01*
X1185439D01*
X1185032Y539574D01*
X1184588Y539648D01*
X1184069Y539722D01*
X1182995Y539907D01*
X1181884Y540203D01*
X1180773Y540611D01*
X1180255Y540870D01*
X1179736Y541166D01*
X1179699Y541203D01*
X1179625Y541240D01*
X1179477Y541351D01*
X1179329Y541499D01*
X1179107Y541647D01*
X1178848Y541870D01*
X1178551Y542129D01*
X1178255Y542425D01*
X1177959Y542758D01*
X1177625Y543092D01*
X1176959Y543943D01*
X1176329Y544943D01*
X1175774Y546054D01*
Y546091D01*
X1175700Y546203D01*
X1175663Y546388D01*
X1175552Y546610D01*
X1175478Y546906D01*
X1175366Y547276D01*
X1175218Y547684D01*
X1175107Y548128D01*
X1174996Y548610D01*
X1174848Y549165D01*
X1174663Y550313D01*
X1174515Y551609D01*
X1174441Y552943D01*
Y552980D01*
Y553128D01*
Y553350D01*
X1174478Y553609D01*
Y553979D01*
X1174515Y554350D01*
X1174552Y554831D01*
X1174626Y555313D01*
X1174811Y556387D01*
X1175070Y557572D01*
X1175440Y558757D01*
X1175959Y559905D01*
X1175996Y559942D01*
X1176033Y560053D01*
X1176107Y560201D01*
X1176255Y560386D01*
X1176403Y560645D01*
X1176589Y560942D01*
X1177070Y561608D01*
X1177700Y562349D01*
X1178440Y563090D01*
X1179292Y563830D01*
X1180292Y564460D01*
X1180329Y564497D01*
X1180440Y564534D01*
X1180588Y564608D01*
X1180773Y564719D01*
X1181069Y564830D01*
X1181366Y564941D01*
X1181736Y565089D01*
X1182143Y565238D01*
X1182588Y565386D01*
X1183069Y565534D01*
X1184106Y565756D01*
X1185291Y565941D01*
X1186513Y566015D01*
X1186884D01*
X1187143Y565978D01*
D02*
G37*
G36*
X1171589Y547647D02*
X1161849D01*
Y550795D01*
X1171589D01*
Y547647D01*
D02*
G37*
G36*
X1150443Y539944D02*
X1146888D01*
X1136963Y565571D01*
X1140666D01*
X1147332Y546943D01*
Y546906D01*
X1147369Y546832D01*
X1147406Y546721D01*
X1147480Y546573D01*
X1147517Y546351D01*
X1147591Y546129D01*
X1147777Y545573D01*
X1147999Y544943D01*
X1148221Y544240D01*
X1148665Y542758D01*
Y542795D01*
X1148702Y542870D01*
X1148739Y542981D01*
X1148776Y543129D01*
X1148888Y543536D01*
X1149073Y544092D01*
X1149258Y544721D01*
X1149480Y545425D01*
X1149739Y546166D01*
X1150036Y546943D01*
X1156998Y565571D01*
X1160442D01*
X1150443Y539944D01*
D02*
G37*
G36*
X1215881Y539944D02*
X1213066D01*
Y542647D01*
X1213029Y542610D01*
X1212955Y542499D01*
X1212844Y542351D01*
X1212659Y542166D01*
X1212437Y541944D01*
X1212177Y541647D01*
X1211881Y541388D01*
X1211511Y541092D01*
X1211103Y540796D01*
X1210659Y540536D01*
X1210178Y540277D01*
X1209659Y540018D01*
X1209067Y539833D01*
X1208474Y539685D01*
X1207807Y539574D01*
X1207141Y539537D01*
X1206882D01*
X1206548Y539574D01*
X1206141Y539611D01*
X1205659Y539685D01*
X1205141Y539796D01*
X1204623Y539944D01*
X1204067Y540166D01*
X1203993Y540203D01*
X1203845Y540277D01*
X1203586Y540425D01*
X1203289Y540611D01*
X1202919Y540833D01*
X1202586Y541092D01*
X1202253Y541388D01*
X1201956Y541721D01*
X1201919Y541759D01*
X1201845Y541907D01*
X1201734Y542092D01*
X1201586Y542388D01*
X1201401Y542721D01*
X1201253Y543129D01*
X1201105Y543573D01*
X1200993Y544055D01*
Y544092D01*
X1200956Y544240D01*
X1200919Y544462D01*
Y544758D01*
X1200882Y545203D01*
X1200845Y545684D01*
X1200808Y546314D01*
Y547017D01*
Y558535D01*
X1203956D01*
Y548202D01*
Y548165D01*
Y548091D01*
Y547980D01*
Y547795D01*
Y547388D01*
X1203993Y546869D01*
Y546314D01*
X1204030Y545758D01*
X1204067Y545277D01*
X1204141Y544869D01*
Y544832D01*
X1204215Y544684D01*
X1204289Y544462D01*
X1204400Y544166D01*
X1204586Y543869D01*
X1204808Y543536D01*
X1205067Y543240D01*
X1205400Y542944D01*
X1205437Y542907D01*
X1205585Y542832D01*
X1205771Y542721D01*
X1206067Y542610D01*
X1206400Y542462D01*
X1206808Y542351D01*
X1207252Y542277D01*
X1207770Y542240D01*
X1208030D01*
X1208289Y542277D01*
X1208622Y542314D01*
X1209030Y542425D01*
X1209474Y542536D01*
X1209955Y542721D01*
X1210437Y542944D01*
X1210511Y542981D01*
X1210659Y543092D01*
X1210881Y543240D01*
X1211141Y543462D01*
X1211437Y543758D01*
X1211733Y544092D01*
X1211992Y544462D01*
X1212214Y544906D01*
X1212251Y544981D01*
X1212289Y545129D01*
X1212363Y545425D01*
X1212474Y545832D01*
X1212585Y546351D01*
X1212659Y546980D01*
X1212696Y547721D01*
X1212733Y548573D01*
Y558535D01*
X1215881D01*
Y539944D01*
D02*
G37*
G36*
X1224472Y558535D02*
X1227657D01*
Y556090D01*
X1224472D01*
Y545166D01*
Y545092D01*
Y544943D01*
Y544721D01*
X1224509Y544462D01*
X1224547Y543870D01*
X1224584Y543610D01*
X1224621Y543425D01*
X1224658Y543351D01*
X1224769Y543203D01*
X1224917Y543018D01*
X1225176Y542832D01*
X1225250Y542795D01*
X1225435Y542721D01*
X1225769Y542647D01*
X1226250Y542610D01*
X1226620D01*
X1226805Y542647D01*
X1227065D01*
X1227361Y542684D01*
X1227657Y542721D01*
X1228065Y539944D01*
X1227991D01*
X1227842Y539907D01*
X1227583Y539870D01*
X1227250Y539833D01*
X1226880Y539759D01*
X1226472Y539722D01*
X1225658Y539685D01*
X1225361D01*
X1225065Y539722D01*
X1224695Y539759D01*
X1224250Y539796D01*
X1223806Y539907D01*
X1223398Y540018D01*
X1222991Y540203D01*
X1222954Y540240D01*
X1222843Y540314D01*
X1222695Y540425D01*
X1222473Y540611D01*
X1222287Y540796D01*
X1222065Y541055D01*
X1221843Y541314D01*
X1221695Y541647D01*
Y541684D01*
X1221621Y541833D01*
X1221584Y542092D01*
X1221510Y542462D01*
X1221436Y542944D01*
X1221399Y543240D01*
Y543573D01*
X1221362Y543981D01*
X1221325Y544388D01*
Y544832D01*
Y545351D01*
Y556090D01*
X1218991D01*
Y558535D01*
X1221325D01*
Y563127D01*
X1224472Y565015D01*
Y558535D01*
D02*
G37*
G36*
X1187143Y2415978D02*
X1187476Y2415941D01*
X1187884Y2415904D01*
X1188291Y2415867D01*
X1188772Y2415756D01*
X1189772Y2415534D01*
X1190883Y2415201D01*
X1191439Y2414978D01*
X1191957Y2414719D01*
X1192476Y2414386D01*
X1192994Y2414053D01*
X1193031Y2414016D01*
X1193105Y2413978D01*
X1193253Y2413867D01*
X1193439Y2413682D01*
X1193624Y2413497D01*
X1193883Y2413238D01*
X1194142Y2412942D01*
X1194438Y2412645D01*
X1194735Y2412275D01*
X1195031Y2411831D01*
X1195364Y2411386D01*
X1195661Y2410905D01*
X1195920Y2410349D01*
X1196216Y2409794D01*
X1196438Y2409201D01*
X1196661Y2408535D01*
X1193327Y2407757D01*
Y2407794D01*
X1193290Y2407868D01*
X1193216Y2408016D01*
X1193142Y2408201D01*
X1193068Y2408423D01*
X1192957Y2408720D01*
X1192661Y2409312D01*
X1192291Y2409979D01*
X1191846Y2410645D01*
X1191291Y2411275D01*
X1190698Y2411831D01*
X1190624Y2411905D01*
X1190402Y2412053D01*
X1190032Y2412238D01*
X1189550Y2412497D01*
X1188921Y2412719D01*
X1188217Y2412942D01*
X1187365Y2413090D01*
X1186439Y2413127D01*
X1186143D01*
X1185958Y2413090D01*
X1185699D01*
X1185402Y2413053D01*
X1184699Y2412942D01*
X1183921Y2412793D01*
X1183106Y2412534D01*
X1182255Y2412164D01*
X1181477Y2411682D01*
X1181440D01*
X1181403Y2411608D01*
X1181144Y2411423D01*
X1180810Y2411127D01*
X1180403Y2410683D01*
X1179921Y2410127D01*
X1179477Y2409498D01*
X1179070Y2408720D01*
X1178699Y2407868D01*
Y2407831D01*
X1178662Y2407757D01*
X1178625Y2407646D01*
X1178588Y2407461D01*
X1178514Y2407238D01*
X1178440Y2406979D01*
X1178329Y2406350D01*
X1178181Y2405609D01*
X1178033Y2404794D01*
X1177959Y2403905D01*
X1177922Y2402943D01*
Y2402906D01*
Y2402794D01*
Y2402609D01*
Y2402387D01*
X1177959Y2402128D01*
Y2401795D01*
X1177996Y2401424D01*
X1178033Y2401017D01*
X1178144Y2400128D01*
X1178329Y2399165D01*
X1178551Y2398202D01*
X1178848Y2397240D01*
Y2397202D01*
X1178885Y2397128D01*
X1178959Y2397017D01*
X1179033Y2396832D01*
X1179255Y2396388D01*
X1179588Y2395869D01*
X1179995Y2395277D01*
X1180514Y2394647D01*
X1181106Y2394092D01*
X1181810Y2393573D01*
X1181847D01*
X1181921Y2393536D01*
X1182032Y2393462D01*
X1182180Y2393388D01*
X1182366Y2393314D01*
X1182588Y2393203D01*
X1183106Y2392981D01*
X1183773Y2392758D01*
X1184514Y2392573D01*
X1185328Y2392425D01*
X1186180Y2392388D01*
X1186439D01*
X1186662Y2392425D01*
X1186921D01*
X1187180Y2392462D01*
X1187847Y2392610D01*
X1188624Y2392796D01*
X1189402Y2393092D01*
X1190217Y2393499D01*
X1190624Y2393721D01*
X1190994Y2394018D01*
X1191031Y2394055D01*
X1191068Y2394092D01*
X1191180Y2394203D01*
X1191328Y2394314D01*
X1191476Y2394499D01*
X1191661Y2394721D01*
X1191883Y2394943D01*
X1192068Y2395240D01*
X1192291Y2395573D01*
X1192550Y2395943D01*
X1192772Y2396314D01*
X1192994Y2396758D01*
X1193179Y2397240D01*
X1193364Y2397758D01*
X1193550Y2398313D01*
X1193698Y2398906D01*
X1197105Y2398054D01*
Y2398017D01*
X1197068Y2397869D01*
X1196994Y2397647D01*
X1196883Y2397351D01*
X1196772Y2397017D01*
X1196623Y2396610D01*
X1196438Y2396165D01*
X1196216Y2395684D01*
X1195698Y2394647D01*
X1195031Y2393610D01*
X1194624Y2393092D01*
X1194216Y2392573D01*
X1193772Y2392129D01*
X1193253Y2391685D01*
X1193216Y2391647D01*
X1193142Y2391573D01*
X1192957Y2391499D01*
X1192772Y2391351D01*
X1192476Y2391166D01*
X1192179Y2390981D01*
X1191772Y2390796D01*
X1191365Y2390611D01*
X1190883Y2390388D01*
X1190365Y2390203D01*
X1189809Y2390018D01*
X1189217Y2389833D01*
X1188587Y2389685D01*
X1187921Y2389611D01*
X1187217Y2389537D01*
X1186476Y2389500D01*
X1186069D01*
X1185773Y2389537D01*
X1185439D01*
X1185032Y2389574D01*
X1184588Y2389648D01*
X1184069Y2389722D01*
X1182995Y2389907D01*
X1181884Y2390203D01*
X1180773Y2390611D01*
X1180255Y2390870D01*
X1179736Y2391166D01*
X1179699Y2391203D01*
X1179625Y2391240D01*
X1179477Y2391351D01*
X1179329Y2391499D01*
X1179107Y2391647D01*
X1178848Y2391870D01*
X1178551Y2392129D01*
X1178255Y2392425D01*
X1177959Y2392758D01*
X1177625Y2393092D01*
X1176959Y2393943D01*
X1176329Y2394943D01*
X1175774Y2396054D01*
Y2396091D01*
X1175700Y2396203D01*
X1175663Y2396388D01*
X1175552Y2396610D01*
X1175478Y2396906D01*
X1175366Y2397276D01*
X1175218Y2397684D01*
X1175107Y2398128D01*
X1174996Y2398610D01*
X1174848Y2399165D01*
X1174663Y2400313D01*
X1174515Y2401609D01*
X1174441Y2402943D01*
Y2402980D01*
Y2403128D01*
Y2403350D01*
X1174478Y2403609D01*
Y2403979D01*
X1174515Y2404350D01*
X1174552Y2404831D01*
X1174626Y2405313D01*
X1174811Y2406387D01*
X1175070Y2407572D01*
X1175440Y2408757D01*
X1175959Y2409905D01*
X1175996Y2409942D01*
X1176033Y2410053D01*
X1176107Y2410201D01*
X1176255Y2410386D01*
X1176403Y2410645D01*
X1176589Y2410942D01*
X1177070Y2411608D01*
X1177700Y2412349D01*
X1178440Y2413090D01*
X1179292Y2413830D01*
X1180292Y2414460D01*
X1180329Y2414497D01*
X1180440Y2414534D01*
X1180588Y2414608D01*
X1180773Y2414719D01*
X1181069Y2414830D01*
X1181366Y2414941D01*
X1181736Y2415090D01*
X1182143Y2415238D01*
X1182588Y2415386D01*
X1183069Y2415534D01*
X1184106Y2415756D01*
X1185291Y2415941D01*
X1186513Y2416015D01*
X1186884D01*
X1187143Y2415978D01*
D02*
G37*
G36*
X1171589Y2397647D02*
X1161849D01*
Y2400795D01*
X1171589D01*
Y2397647D01*
D02*
G37*
G36*
X1150443Y2389944D02*
X1146888D01*
X1136963Y2415571D01*
X1140666D01*
X1147332Y2396943D01*
Y2396906D01*
X1147369Y2396832D01*
X1147406Y2396721D01*
X1147480Y2396573D01*
X1147517Y2396351D01*
X1147591Y2396129D01*
X1147777Y2395573D01*
X1147999Y2394943D01*
X1148221Y2394240D01*
X1148665Y2392758D01*
Y2392796D01*
X1148702Y2392870D01*
X1148739Y2392981D01*
X1148776Y2393129D01*
X1148888Y2393536D01*
X1149073Y2394092D01*
X1149258Y2394721D01*
X1149480Y2395425D01*
X1149739Y2396165D01*
X1150036Y2396943D01*
X1156998Y2415571D01*
X1160442D01*
X1150443Y2389944D01*
D02*
G37*
G36*
X1215881Y2389944D02*
X1213066D01*
Y2392647D01*
X1213029Y2392610D01*
X1212955Y2392499D01*
X1212844Y2392351D01*
X1212659Y2392166D01*
X1212437Y2391944D01*
X1212177Y2391647D01*
X1211881Y2391388D01*
X1211511Y2391092D01*
X1211103Y2390796D01*
X1210659Y2390536D01*
X1210178Y2390277D01*
X1209659Y2390018D01*
X1209067Y2389833D01*
X1208474Y2389685D01*
X1207807Y2389574D01*
X1207141Y2389537D01*
X1206882D01*
X1206548Y2389574D01*
X1206141Y2389611D01*
X1205659Y2389685D01*
X1205141Y2389796D01*
X1204623Y2389944D01*
X1204067Y2390166D01*
X1203993Y2390203D01*
X1203845Y2390277D01*
X1203586Y2390425D01*
X1203289Y2390611D01*
X1202919Y2390833D01*
X1202586Y2391092D01*
X1202253Y2391388D01*
X1201956Y2391721D01*
X1201919Y2391759D01*
X1201845Y2391907D01*
X1201734Y2392092D01*
X1201586Y2392388D01*
X1201401Y2392721D01*
X1201253Y2393129D01*
X1201105Y2393573D01*
X1200993Y2394055D01*
Y2394092D01*
X1200956Y2394240D01*
X1200919Y2394462D01*
Y2394758D01*
X1200882Y2395203D01*
X1200845Y2395684D01*
X1200808Y2396314D01*
Y2397017D01*
Y2408535D01*
X1203956D01*
Y2398202D01*
Y2398165D01*
Y2398091D01*
Y2397980D01*
Y2397795D01*
Y2397388D01*
X1203993Y2396869D01*
Y2396314D01*
X1204030Y2395758D01*
X1204067Y2395277D01*
X1204141Y2394869D01*
Y2394832D01*
X1204215Y2394684D01*
X1204289Y2394462D01*
X1204400Y2394166D01*
X1204586Y2393869D01*
X1204808Y2393536D01*
X1205067Y2393240D01*
X1205400Y2392944D01*
X1205437Y2392907D01*
X1205585Y2392832D01*
X1205771Y2392721D01*
X1206067Y2392610D01*
X1206400Y2392462D01*
X1206808Y2392351D01*
X1207252Y2392277D01*
X1207770Y2392240D01*
X1208030D01*
X1208289Y2392277D01*
X1208622Y2392314D01*
X1209030Y2392425D01*
X1209474Y2392536D01*
X1209955Y2392722D01*
X1210437Y2392944D01*
X1210511Y2392981D01*
X1210659Y2393092D01*
X1210881Y2393240D01*
X1211141Y2393462D01*
X1211437Y2393758D01*
X1211733Y2394092D01*
X1211992Y2394462D01*
X1212214Y2394906D01*
X1212251Y2394980D01*
X1212289Y2395129D01*
X1212363Y2395425D01*
X1212474Y2395832D01*
X1212585Y2396351D01*
X1212659Y2396980D01*
X1212696Y2397721D01*
X1212733Y2398573D01*
Y2408535D01*
X1215881D01*
Y2389944D01*
D02*
G37*
G36*
X1224472Y2408535D02*
X1227657D01*
Y2406090D01*
X1224472D01*
Y2395166D01*
Y2395092D01*
Y2394943D01*
Y2394721D01*
X1224509Y2394462D01*
X1224547Y2393869D01*
X1224584Y2393610D01*
X1224621Y2393425D01*
X1224658Y2393351D01*
X1224769Y2393203D01*
X1224917Y2393018D01*
X1225176Y2392833D01*
X1225250Y2392796D01*
X1225435Y2392722D01*
X1225769Y2392647D01*
X1226250Y2392610D01*
X1226620D01*
X1226805Y2392647D01*
X1227065D01*
X1227361Y2392684D01*
X1227657Y2392722D01*
X1228065Y2389944D01*
X1227991D01*
X1227842Y2389907D01*
X1227583Y2389870D01*
X1227250Y2389833D01*
X1226880Y2389759D01*
X1226472Y2389722D01*
X1225658Y2389685D01*
X1225361D01*
X1225065Y2389722D01*
X1224695Y2389759D01*
X1224250Y2389796D01*
X1223806Y2389907D01*
X1223398Y2390018D01*
X1222991Y2390203D01*
X1222954Y2390240D01*
X1222843Y2390314D01*
X1222695Y2390425D01*
X1222473Y2390611D01*
X1222287Y2390796D01*
X1222065Y2391055D01*
X1221843Y2391314D01*
X1221695Y2391647D01*
Y2391685D01*
X1221621Y2391833D01*
X1221584Y2392092D01*
X1221510Y2392462D01*
X1221436Y2392944D01*
X1221399Y2393240D01*
Y2393573D01*
X1221362Y2393981D01*
X1221325Y2394388D01*
Y2394832D01*
Y2395351D01*
Y2406090D01*
X1218991D01*
Y2408535D01*
X1221325D01*
Y2413127D01*
X1224472Y2415015D01*
Y2408535D01*
D02*
G37*
G36*
X1187143Y365978D02*
X1187476Y365941D01*
X1187884Y365904D01*
X1188291Y365867D01*
X1188772Y365756D01*
X1189772Y365534D01*
X1190883Y365201D01*
X1191439Y364978D01*
X1191957Y364719D01*
X1192476Y364386D01*
X1192994Y364053D01*
X1193031Y364016D01*
X1193105Y363979D01*
X1193253Y363867D01*
X1193439Y363682D01*
X1193624Y363497D01*
X1193883Y363238D01*
X1194142Y362942D01*
X1194438Y362645D01*
X1194735Y362275D01*
X1195031Y361831D01*
X1195364Y361386D01*
X1195661Y360905D01*
X1195920Y360349D01*
X1196216Y359794D01*
X1196438Y359201D01*
X1196661Y358535D01*
X1193327Y357757D01*
Y357794D01*
X1193290Y357868D01*
X1193216Y358016D01*
X1193142Y358201D01*
X1193068Y358424D01*
X1192957Y358720D01*
X1192661Y359312D01*
X1192291Y359979D01*
X1191846Y360645D01*
X1191291Y361275D01*
X1190698Y361831D01*
X1190624Y361905D01*
X1190402Y362053D01*
X1190032Y362238D01*
X1189550Y362497D01*
X1188921Y362719D01*
X1188217Y362942D01*
X1187365Y363090D01*
X1186439Y363127D01*
X1186143D01*
X1185958Y363090D01*
X1185699D01*
X1185402Y363053D01*
X1184699Y362942D01*
X1183921Y362793D01*
X1183106Y362534D01*
X1182255Y362164D01*
X1181477Y361682D01*
X1181440D01*
X1181403Y361608D01*
X1181144Y361423D01*
X1180810Y361127D01*
X1180403Y360682D01*
X1179921Y360127D01*
X1179477Y359497D01*
X1179070Y358720D01*
X1178699Y357868D01*
Y357831D01*
X1178662Y357757D01*
X1178625Y357646D01*
X1178588Y357461D01*
X1178514Y357239D01*
X1178440Y356979D01*
X1178329Y356350D01*
X1178181Y355609D01*
X1178033Y354794D01*
X1177959Y353905D01*
X1177922Y352943D01*
Y352906D01*
Y352794D01*
Y352609D01*
Y352387D01*
X1177959Y352128D01*
Y351795D01*
X1177996Y351424D01*
X1178033Y351017D01*
X1178144Y350128D01*
X1178329Y349165D01*
X1178551Y348202D01*
X1178848Y347239D01*
Y347202D01*
X1178885Y347128D01*
X1178959Y347017D01*
X1179033Y346832D01*
X1179255Y346388D01*
X1179588Y345869D01*
X1179995Y345277D01*
X1180514Y344647D01*
X1181106Y344092D01*
X1181810Y343573D01*
X1181847D01*
X1181921Y343536D01*
X1182032Y343462D01*
X1182180Y343388D01*
X1182366Y343314D01*
X1182588Y343203D01*
X1183106Y342981D01*
X1183773Y342758D01*
X1184514Y342573D01*
X1185328Y342425D01*
X1186180Y342388D01*
X1186439D01*
X1186662Y342425D01*
X1186921D01*
X1187180Y342462D01*
X1187847Y342610D01*
X1188624Y342795D01*
X1189402Y343092D01*
X1190217Y343499D01*
X1190624Y343721D01*
X1190994Y344018D01*
X1191031Y344055D01*
X1191068Y344092D01*
X1191180Y344203D01*
X1191328Y344314D01*
X1191476Y344499D01*
X1191661Y344721D01*
X1191883Y344943D01*
X1192068Y345240D01*
X1192291Y345573D01*
X1192550Y345943D01*
X1192772Y346314D01*
X1192994Y346758D01*
X1193179Y347239D01*
X1193364Y347758D01*
X1193550Y348313D01*
X1193698Y348906D01*
X1197105Y348054D01*
Y348017D01*
X1197068Y347869D01*
X1196994Y347647D01*
X1196883Y347351D01*
X1196772Y347017D01*
X1196623Y346610D01*
X1196438Y346166D01*
X1196216Y345684D01*
X1195698Y344647D01*
X1195031Y343610D01*
X1194624Y343092D01*
X1194216Y342573D01*
X1193772Y342129D01*
X1193253Y341684D01*
X1193216Y341647D01*
X1193142Y341573D01*
X1192957Y341499D01*
X1192772Y341351D01*
X1192476Y341166D01*
X1192179Y340981D01*
X1191772Y340796D01*
X1191365Y340611D01*
X1190883Y340388D01*
X1190365Y340203D01*
X1189809Y340018D01*
X1189217Y339833D01*
X1188587Y339685D01*
X1187921Y339611D01*
X1187217Y339537D01*
X1186476Y339500D01*
X1186069D01*
X1185773Y339537D01*
X1185439D01*
X1185032Y339574D01*
X1184588Y339648D01*
X1184069Y339722D01*
X1182995Y339907D01*
X1181884Y340203D01*
X1180773Y340611D01*
X1180255Y340870D01*
X1179736Y341166D01*
X1179699Y341203D01*
X1179625Y341240D01*
X1179477Y341351D01*
X1179329Y341499D01*
X1179107Y341647D01*
X1178848Y341870D01*
X1178551Y342129D01*
X1178255Y342425D01*
X1177959Y342758D01*
X1177625Y343092D01*
X1176959Y343943D01*
X1176329Y344943D01*
X1175774Y346054D01*
Y346091D01*
X1175700Y346203D01*
X1175663Y346388D01*
X1175552Y346610D01*
X1175478Y346906D01*
X1175366Y347276D01*
X1175218Y347684D01*
X1175107Y348128D01*
X1174996Y348610D01*
X1174848Y349165D01*
X1174663Y350313D01*
X1174515Y351609D01*
X1174441Y352943D01*
Y352980D01*
Y353128D01*
Y353350D01*
X1174478Y353609D01*
Y353979D01*
X1174515Y354350D01*
X1174552Y354831D01*
X1174626Y355313D01*
X1174811Y356387D01*
X1175070Y357572D01*
X1175440Y358757D01*
X1175959Y359905D01*
X1175996Y359942D01*
X1176033Y360053D01*
X1176107Y360201D01*
X1176255Y360386D01*
X1176403Y360645D01*
X1176589Y360942D01*
X1177070Y361608D01*
X1177700Y362349D01*
X1178440Y363090D01*
X1179292Y363830D01*
X1180292Y364460D01*
X1180329Y364497D01*
X1180440Y364534D01*
X1180588Y364608D01*
X1180773Y364719D01*
X1181069Y364830D01*
X1181366Y364941D01*
X1181736Y365089D01*
X1182143Y365238D01*
X1182588Y365386D01*
X1183069Y365534D01*
X1184106Y365756D01*
X1185291Y365941D01*
X1186513Y366015D01*
X1186884D01*
X1187143Y365978D01*
D02*
G37*
G36*
X1171589Y347647D02*
X1161849D01*
Y350795D01*
X1171589D01*
Y347647D01*
D02*
G37*
G36*
X1150443Y339944D02*
X1146888D01*
X1136963Y365571D01*
X1140666D01*
X1147332Y346943D01*
Y346906D01*
X1147369Y346832D01*
X1147406Y346721D01*
X1147480Y346573D01*
X1147517Y346351D01*
X1147591Y346129D01*
X1147777Y345573D01*
X1147999Y344943D01*
X1148221Y344240D01*
X1148665Y342758D01*
Y342795D01*
X1148702Y342870D01*
X1148739Y342981D01*
X1148776Y343129D01*
X1148888Y343536D01*
X1149073Y344092D01*
X1149258Y344721D01*
X1149480Y345425D01*
X1149739Y346166D01*
X1150036Y346943D01*
X1156998Y365571D01*
X1160442D01*
X1150443Y339944D01*
D02*
G37*
G36*
X1215881Y339944D02*
X1213066D01*
Y342647D01*
X1213029Y342610D01*
X1212955Y342499D01*
X1212844Y342351D01*
X1212659Y342166D01*
X1212437Y341944D01*
X1212177Y341647D01*
X1211881Y341388D01*
X1211511Y341092D01*
X1211103Y340796D01*
X1210659Y340536D01*
X1210178Y340277D01*
X1209659Y340018D01*
X1209067Y339833D01*
X1208474Y339685D01*
X1207807Y339574D01*
X1207141Y339537D01*
X1206882D01*
X1206548Y339574D01*
X1206141Y339611D01*
X1205659Y339685D01*
X1205141Y339796D01*
X1204623Y339944D01*
X1204067Y340166D01*
X1203993Y340203D01*
X1203845Y340277D01*
X1203586Y340425D01*
X1203289Y340611D01*
X1202919Y340833D01*
X1202586Y341092D01*
X1202253Y341388D01*
X1201956Y341721D01*
X1201919Y341759D01*
X1201845Y341907D01*
X1201734Y342092D01*
X1201586Y342388D01*
X1201401Y342721D01*
X1201253Y343129D01*
X1201105Y343573D01*
X1200993Y344055D01*
Y344092D01*
X1200956Y344240D01*
X1200919Y344462D01*
Y344758D01*
X1200882Y345203D01*
X1200845Y345684D01*
X1200808Y346314D01*
Y347017D01*
Y358535D01*
X1203956D01*
Y348202D01*
Y348165D01*
Y348091D01*
Y347980D01*
Y347795D01*
Y347388D01*
X1203993Y346869D01*
Y346314D01*
X1204030Y345758D01*
X1204067Y345277D01*
X1204141Y344869D01*
Y344832D01*
X1204215Y344684D01*
X1204289Y344462D01*
X1204400Y344166D01*
X1204586Y343870D01*
X1204808Y343536D01*
X1205067Y343240D01*
X1205400Y342944D01*
X1205437Y342907D01*
X1205585Y342832D01*
X1205771Y342721D01*
X1206067Y342610D01*
X1206400Y342462D01*
X1206808Y342351D01*
X1207252Y342277D01*
X1207770Y342240D01*
X1208030D01*
X1208289Y342277D01*
X1208622Y342314D01*
X1209030Y342425D01*
X1209474Y342536D01*
X1209955Y342721D01*
X1210437Y342944D01*
X1210511Y342981D01*
X1210659Y343092D01*
X1210881Y343240D01*
X1211141Y343462D01*
X1211437Y343758D01*
X1211733Y344092D01*
X1211992Y344462D01*
X1212214Y344906D01*
X1212251Y344981D01*
X1212289Y345129D01*
X1212363Y345425D01*
X1212474Y345832D01*
X1212585Y346351D01*
X1212659Y346980D01*
X1212696Y347721D01*
X1212733Y348573D01*
Y358535D01*
X1215881D01*
Y339944D01*
D02*
G37*
G36*
X1224472Y358535D02*
X1227657D01*
Y356090D01*
X1224472D01*
Y345166D01*
Y345092D01*
Y344944D01*
Y344721D01*
X1224509Y344462D01*
X1224547Y343870D01*
X1224584Y343610D01*
X1224621Y343425D01*
X1224658Y343351D01*
X1224769Y343203D01*
X1224917Y343018D01*
X1225176Y342833D01*
X1225250Y342795D01*
X1225435Y342721D01*
X1225769Y342647D01*
X1226250Y342610D01*
X1226620D01*
X1226805Y342647D01*
X1227065D01*
X1227361Y342684D01*
X1227657Y342721D01*
X1228065Y339944D01*
X1227991D01*
X1227842Y339907D01*
X1227583Y339870D01*
X1227250Y339833D01*
X1226880Y339759D01*
X1226472Y339722D01*
X1225658Y339685D01*
X1225361D01*
X1225065Y339722D01*
X1224695Y339759D01*
X1224250Y339796D01*
X1223806Y339907D01*
X1223398Y340018D01*
X1222991Y340203D01*
X1222954Y340240D01*
X1222843Y340314D01*
X1222695Y340425D01*
X1222473Y340611D01*
X1222287Y340796D01*
X1222065Y341055D01*
X1221843Y341314D01*
X1221695Y341647D01*
Y341684D01*
X1221621Y341833D01*
X1221584Y342092D01*
X1221510Y342462D01*
X1221436Y342944D01*
X1221399Y343240D01*
Y343573D01*
X1221362Y343981D01*
X1221325Y344388D01*
Y344832D01*
Y345351D01*
Y356090D01*
X1218991D01*
Y358535D01*
X1221325D01*
Y363127D01*
X1224472Y365015D01*
Y358535D01*
D02*
G37*
G36*
X1187143Y2215978D02*
X1187476Y2215941D01*
X1187884Y2215904D01*
X1188291Y2215867D01*
X1188772Y2215756D01*
X1189772Y2215534D01*
X1190883Y2215201D01*
X1191439Y2214978D01*
X1191957Y2214719D01*
X1192476Y2214386D01*
X1192994Y2214052D01*
X1193031Y2214016D01*
X1193105Y2213978D01*
X1193253Y2213867D01*
X1193439Y2213682D01*
X1193624Y2213497D01*
X1193883Y2213238D01*
X1194142Y2212941D01*
X1194438Y2212645D01*
X1194735Y2212275D01*
X1195031Y2211831D01*
X1195364Y2211386D01*
X1195661Y2210905D01*
X1195920Y2210349D01*
X1196216Y2209794D01*
X1196438Y2209201D01*
X1196661Y2208535D01*
X1193327Y2207757D01*
Y2207794D01*
X1193290Y2207868D01*
X1193216Y2208016D01*
X1193142Y2208201D01*
X1193068Y2208423D01*
X1192957Y2208720D01*
X1192661Y2209312D01*
X1192291Y2209979D01*
X1191846Y2210645D01*
X1191291Y2211275D01*
X1190698Y2211831D01*
X1190624Y2211905D01*
X1190402Y2212053D01*
X1190032Y2212238D01*
X1189550Y2212497D01*
X1188921Y2212719D01*
X1188217Y2212941D01*
X1187365Y2213090D01*
X1186439Y2213127D01*
X1186143D01*
X1185958Y2213090D01*
X1185699D01*
X1185402Y2213053D01*
X1184699Y2212941D01*
X1183921Y2212793D01*
X1183106Y2212534D01*
X1182255Y2212164D01*
X1181477Y2211682D01*
X1181440D01*
X1181403Y2211608D01*
X1181144Y2211423D01*
X1180810Y2211127D01*
X1180403Y2210683D01*
X1179921Y2210127D01*
X1179477Y2209498D01*
X1179070Y2208720D01*
X1178699Y2207868D01*
Y2207831D01*
X1178662Y2207757D01*
X1178625Y2207646D01*
X1178588Y2207461D01*
X1178514Y2207238D01*
X1178440Y2206979D01*
X1178329Y2206350D01*
X1178181Y2205609D01*
X1178033Y2204794D01*
X1177959Y2203905D01*
X1177922Y2202943D01*
Y2202906D01*
Y2202794D01*
Y2202609D01*
Y2202387D01*
X1177959Y2202128D01*
Y2201795D01*
X1177996Y2201424D01*
X1178033Y2201017D01*
X1178144Y2200128D01*
X1178329Y2199165D01*
X1178551Y2198202D01*
X1178848Y2197240D01*
Y2197202D01*
X1178885Y2197128D01*
X1178959Y2197017D01*
X1179033Y2196832D01*
X1179255Y2196388D01*
X1179588Y2195869D01*
X1179995Y2195277D01*
X1180514Y2194647D01*
X1181106Y2194092D01*
X1181810Y2193573D01*
X1181847D01*
X1181921Y2193536D01*
X1182032Y2193462D01*
X1182180Y2193388D01*
X1182366Y2193314D01*
X1182588Y2193203D01*
X1183106Y2192981D01*
X1183773Y2192758D01*
X1184514Y2192573D01*
X1185328Y2192425D01*
X1186180Y2192388D01*
X1186439D01*
X1186662Y2192425D01*
X1186921D01*
X1187180Y2192462D01*
X1187847Y2192610D01*
X1188624Y2192796D01*
X1189402Y2193092D01*
X1190217Y2193499D01*
X1190624Y2193721D01*
X1190994Y2194018D01*
X1191031Y2194055D01*
X1191068Y2194092D01*
X1191180Y2194203D01*
X1191328Y2194314D01*
X1191476Y2194499D01*
X1191661Y2194721D01*
X1191883Y2194943D01*
X1192068Y2195240D01*
X1192291Y2195573D01*
X1192550Y2195943D01*
X1192772Y2196314D01*
X1192994Y2196758D01*
X1193179Y2197240D01*
X1193364Y2197758D01*
X1193550Y2198313D01*
X1193698Y2198906D01*
X1197105Y2198054D01*
Y2198017D01*
X1197068Y2197869D01*
X1196994Y2197647D01*
X1196883Y2197351D01*
X1196772Y2197017D01*
X1196623Y2196610D01*
X1196438Y2196165D01*
X1196216Y2195684D01*
X1195698Y2194647D01*
X1195031Y2193610D01*
X1194624Y2193092D01*
X1194216Y2192573D01*
X1193772Y2192129D01*
X1193253Y2191685D01*
X1193216Y2191647D01*
X1193142Y2191573D01*
X1192957Y2191499D01*
X1192772Y2191351D01*
X1192476Y2191166D01*
X1192179Y2190981D01*
X1191772Y2190796D01*
X1191365Y2190611D01*
X1190883Y2190388D01*
X1190365Y2190203D01*
X1189809Y2190018D01*
X1189217Y2189833D01*
X1188587Y2189685D01*
X1187921Y2189611D01*
X1187217Y2189537D01*
X1186476Y2189500D01*
X1186069D01*
X1185773Y2189537D01*
X1185439D01*
X1185032Y2189574D01*
X1184588Y2189648D01*
X1184069Y2189722D01*
X1182995Y2189907D01*
X1181884Y2190203D01*
X1180773Y2190611D01*
X1180255Y2190870D01*
X1179736Y2191166D01*
X1179699Y2191203D01*
X1179625Y2191240D01*
X1179477Y2191351D01*
X1179329Y2191499D01*
X1179107Y2191647D01*
X1178848Y2191870D01*
X1178551Y2192129D01*
X1178255Y2192425D01*
X1177959Y2192758D01*
X1177625Y2193092D01*
X1176959Y2193943D01*
X1176329Y2194943D01*
X1175774Y2196054D01*
Y2196091D01*
X1175700Y2196203D01*
X1175663Y2196388D01*
X1175552Y2196610D01*
X1175478Y2196906D01*
X1175366Y2197276D01*
X1175218Y2197684D01*
X1175107Y2198128D01*
X1174996Y2198610D01*
X1174848Y2199165D01*
X1174663Y2200313D01*
X1174515Y2201609D01*
X1174441Y2202943D01*
Y2202980D01*
Y2203128D01*
Y2203350D01*
X1174478Y2203609D01*
Y2203979D01*
X1174515Y2204350D01*
X1174552Y2204831D01*
X1174626Y2205313D01*
X1174811Y2206387D01*
X1175070Y2207572D01*
X1175440Y2208757D01*
X1175959Y2209905D01*
X1175996Y2209942D01*
X1176033Y2210053D01*
X1176107Y2210201D01*
X1176255Y2210386D01*
X1176403Y2210645D01*
X1176589Y2210942D01*
X1177070Y2211608D01*
X1177700Y2212349D01*
X1178440Y2213090D01*
X1179292Y2213830D01*
X1180292Y2214460D01*
X1180329Y2214497D01*
X1180440Y2214534D01*
X1180588Y2214608D01*
X1180773Y2214719D01*
X1181069Y2214830D01*
X1181366Y2214941D01*
X1181736Y2215090D01*
X1182143Y2215238D01*
X1182588Y2215386D01*
X1183069Y2215534D01*
X1184106Y2215756D01*
X1185291Y2215941D01*
X1186513Y2216015D01*
X1186884D01*
X1187143Y2215978D01*
D02*
G37*
G36*
X1171589Y2197647D02*
X1161849D01*
Y2200795D01*
X1171589D01*
Y2197647D01*
D02*
G37*
G36*
X1150443Y2189944D02*
X1146888D01*
X1136963Y2215571D01*
X1140666D01*
X1147332Y2196943D01*
Y2196906D01*
X1147369Y2196832D01*
X1147406Y2196721D01*
X1147480Y2196573D01*
X1147517Y2196351D01*
X1147591Y2196129D01*
X1147777Y2195573D01*
X1147999Y2194943D01*
X1148221Y2194240D01*
X1148665Y2192758D01*
Y2192796D01*
X1148702Y2192870D01*
X1148739Y2192981D01*
X1148776Y2193129D01*
X1148888Y2193536D01*
X1149073Y2194092D01*
X1149258Y2194721D01*
X1149480Y2195425D01*
X1149739Y2196165D01*
X1150036Y2196943D01*
X1156998Y2215571D01*
X1160442D01*
X1150443Y2189944D01*
D02*
G37*
G36*
X1215881Y2189944D02*
X1213066D01*
Y2192647D01*
X1213029Y2192610D01*
X1212955Y2192499D01*
X1212844Y2192351D01*
X1212659Y2192166D01*
X1212437Y2191944D01*
X1212177Y2191647D01*
X1211881Y2191388D01*
X1211511Y2191092D01*
X1211103Y2190796D01*
X1210659Y2190536D01*
X1210178Y2190277D01*
X1209659Y2190018D01*
X1209067Y2189833D01*
X1208474Y2189685D01*
X1207807Y2189574D01*
X1207141Y2189537D01*
X1206882D01*
X1206548Y2189574D01*
X1206141Y2189611D01*
X1205659Y2189685D01*
X1205141Y2189796D01*
X1204623Y2189944D01*
X1204067Y2190166D01*
X1203993Y2190203D01*
X1203845Y2190277D01*
X1203586Y2190425D01*
X1203289Y2190611D01*
X1202919Y2190833D01*
X1202586Y2191092D01*
X1202253Y2191388D01*
X1201956Y2191721D01*
X1201919Y2191759D01*
X1201845Y2191907D01*
X1201734Y2192092D01*
X1201586Y2192388D01*
X1201401Y2192721D01*
X1201253Y2193129D01*
X1201105Y2193573D01*
X1200993Y2194055D01*
Y2194092D01*
X1200956Y2194240D01*
X1200919Y2194462D01*
Y2194758D01*
X1200882Y2195203D01*
X1200845Y2195684D01*
X1200808Y2196314D01*
Y2197017D01*
Y2208535D01*
X1203956D01*
Y2198202D01*
Y2198165D01*
Y2198091D01*
Y2197980D01*
Y2197795D01*
Y2197388D01*
X1203993Y2196869D01*
Y2196314D01*
X1204030Y2195758D01*
X1204067Y2195277D01*
X1204141Y2194869D01*
Y2194832D01*
X1204215Y2194684D01*
X1204289Y2194462D01*
X1204400Y2194166D01*
X1204586Y2193869D01*
X1204808Y2193536D01*
X1205067Y2193240D01*
X1205400Y2192944D01*
X1205437Y2192907D01*
X1205585Y2192832D01*
X1205771Y2192721D01*
X1206067Y2192610D01*
X1206400Y2192462D01*
X1206808Y2192351D01*
X1207252Y2192277D01*
X1207770Y2192240D01*
X1208030D01*
X1208289Y2192277D01*
X1208622Y2192314D01*
X1209030Y2192425D01*
X1209474Y2192536D01*
X1209955Y2192721D01*
X1210437Y2192944D01*
X1210511Y2192981D01*
X1210659Y2193092D01*
X1210881Y2193240D01*
X1211141Y2193462D01*
X1211437Y2193758D01*
X1211733Y2194092D01*
X1211992Y2194462D01*
X1212214Y2194906D01*
X1212251Y2194980D01*
X1212289Y2195129D01*
X1212363Y2195425D01*
X1212474Y2195832D01*
X1212585Y2196351D01*
X1212659Y2196980D01*
X1212696Y2197721D01*
X1212733Y2198573D01*
Y2208535D01*
X1215881D01*
Y2189944D01*
D02*
G37*
G36*
X1224472Y2208535D02*
X1227657D01*
Y2206090D01*
X1224472D01*
Y2195166D01*
Y2195092D01*
Y2194943D01*
Y2194721D01*
X1224509Y2194462D01*
X1224547Y2193869D01*
X1224584Y2193610D01*
X1224621Y2193425D01*
X1224658Y2193351D01*
X1224769Y2193203D01*
X1224917Y2193018D01*
X1225176Y2192832D01*
X1225250Y2192796D01*
X1225435Y2192721D01*
X1225769Y2192647D01*
X1226250Y2192610D01*
X1226620D01*
X1226805Y2192647D01*
X1227065D01*
X1227361Y2192684D01*
X1227657Y2192721D01*
X1228065Y2189944D01*
X1227991D01*
X1227842Y2189907D01*
X1227583Y2189870D01*
X1227250Y2189833D01*
X1226880Y2189759D01*
X1226472Y2189722D01*
X1225658Y2189685D01*
X1225361D01*
X1225065Y2189722D01*
X1224695Y2189759D01*
X1224250Y2189796D01*
X1223806Y2189907D01*
X1223398Y2190018D01*
X1222991Y2190203D01*
X1222954Y2190240D01*
X1222843Y2190314D01*
X1222695Y2190425D01*
X1222473Y2190611D01*
X1222287Y2190796D01*
X1222065Y2191055D01*
X1221843Y2191314D01*
X1221695Y2191647D01*
Y2191685D01*
X1221621Y2191833D01*
X1221584Y2192092D01*
X1221510Y2192462D01*
X1221436Y2192944D01*
X1221399Y2193240D01*
Y2193573D01*
X1221362Y2193981D01*
X1221325Y2194388D01*
Y2194832D01*
Y2195351D01*
Y2206090D01*
X1218991D01*
Y2208535D01*
X1221325D01*
Y2213127D01*
X1224472Y2215015D01*
Y2208535D01*
D02*
G37*
%LPC*%
G36*
X230124Y-130706D02*
X229902D01*
X229754Y-130743D01*
X229384Y-130780D01*
X228865Y-130891D01*
X228310Y-131076D01*
X227680Y-131372D01*
X227088Y-131743D01*
X226495Y-132261D01*
X226421Y-132335D01*
X226273Y-132520D01*
X226014Y-132854D01*
X225754Y-133335D01*
X225495Y-133890D01*
X225236Y-134594D01*
X225088Y-135372D01*
X225014Y-136261D01*
Y-136335D01*
Y-136520D01*
X225051Y-136853D01*
X225088Y-137261D01*
X225162Y-137742D01*
X225310Y-138260D01*
X225458Y-138816D01*
X225680Y-139371D01*
X225717Y-139445D01*
X225828Y-139631D01*
X225977Y-139890D01*
X226199Y-140223D01*
X226458Y-140556D01*
X226791Y-140964D01*
X227162Y-141297D01*
X227606Y-141630D01*
X227680Y-141667D01*
X227828Y-141742D01*
X228088Y-141890D01*
X228421Y-142001D01*
X228791Y-142149D01*
X229235Y-142297D01*
X229717Y-142371D01*
X230235Y-142408D01*
X230421D01*
X230569Y-142371D01*
X230939Y-142334D01*
X231420Y-142223D01*
X231939Y-142001D01*
X232532Y-141742D01*
X233124Y-141334D01*
X233420Y-141112D01*
X233680Y-140816D01*
Y-140779D01*
X233754Y-140742D01*
X233902Y-140519D01*
X234124Y-140149D01*
X234420Y-139668D01*
X234679Y-139038D01*
X234902Y-138297D01*
X235050Y-137446D01*
X235124Y-136446D01*
Y-136409D01*
Y-136335D01*
Y-136187D01*
X235087Y-136001D01*
Y-135779D01*
X235050Y-135520D01*
X234939Y-134927D01*
X234790Y-134261D01*
X234531Y-133557D01*
X234161Y-132891D01*
X233680Y-132261D01*
X233605Y-132187D01*
X233420Y-132002D01*
X233124Y-131780D01*
X232717Y-131483D01*
X232198Y-131187D01*
X231606Y-130965D01*
X230902Y-130780D01*
X230124Y-130706D01*
D02*
G37*
G36*
X132579Y-130706D02*
X132357D01*
X132208Y-130743D01*
X131838Y-130780D01*
X131320Y-130891D01*
X130764Y-131076D01*
X130135Y-131372D01*
X129542Y-131743D01*
X128950Y-132261D01*
X128876Y-132335D01*
X128727Y-132520D01*
X128468Y-132854D01*
X128209Y-133335D01*
X127950Y-133890D01*
X127690Y-134594D01*
X127542Y-135372D01*
X127468Y-136261D01*
Y-136335D01*
Y-136520D01*
X127505Y-136853D01*
X127542Y-137261D01*
X127616Y-137742D01*
X127765Y-138260D01*
X127913Y-138816D01*
X128135Y-139371D01*
X128172Y-139445D01*
X128283Y-139631D01*
X128431Y-139890D01*
X128653Y-140223D01*
X128913Y-140556D01*
X129246Y-140964D01*
X129616Y-141297D01*
X130061Y-141630D01*
X130135Y-141667D01*
X130283Y-141742D01*
X130542Y-141890D01*
X130875Y-142001D01*
X131246Y-142149D01*
X131690Y-142297D01*
X132171Y-142371D01*
X132690Y-142408D01*
X132875D01*
X133023Y-142371D01*
X133394Y-142334D01*
X133875Y-142223D01*
X134394Y-142001D01*
X134986Y-141742D01*
X135578Y-141334D01*
X135875Y-141112D01*
X136134Y-140816D01*
Y-140779D01*
X136208Y-140742D01*
X136356Y-140520D01*
X136578Y-140149D01*
X136875Y-139668D01*
X137134Y-139038D01*
X137356Y-138298D01*
X137504Y-137446D01*
X137578Y-136446D01*
Y-136409D01*
Y-136335D01*
Y-136187D01*
X137541Y-136001D01*
Y-135779D01*
X137504Y-135520D01*
X137393Y-134927D01*
X137245Y-134261D01*
X136986Y-133557D01*
X136615Y-132891D01*
X136134Y-132261D01*
X136060Y-132187D01*
X135875Y-132002D01*
X135578Y-131780D01*
X135171Y-131483D01*
X134653Y-131187D01*
X134060Y-130965D01*
X133357Y-130780D01*
X132579Y-130706D01*
D02*
G37*
G36*
X94213Y-124040D02*
X86139Y-135520D01*
X94213D01*
Y-124040D01*
D02*
G37*
G36*
X269787Y-121410D02*
X269491D01*
X269157Y-121484D01*
X268713Y-121558D01*
X268232Y-121707D01*
X267713Y-121892D01*
X267232Y-122188D01*
X266750Y-122595D01*
X266713Y-122632D01*
X266565Y-122781D01*
X266380Y-123040D01*
X266195Y-123373D01*
X265972Y-123780D01*
X265787Y-124262D01*
X265639Y-124780D01*
X265602Y-125373D01*
Y-125410D01*
Y-125447D01*
X265639Y-125669D01*
X265676Y-126002D01*
X265750Y-126410D01*
X265898Y-126891D01*
X266084Y-127373D01*
X266380Y-127891D01*
X266750Y-128336D01*
X266787Y-128372D01*
X266972Y-128521D01*
X267232Y-128706D01*
X267565Y-128891D01*
X268009Y-129113D01*
X268528Y-129298D01*
X269120Y-129446D01*
X269787Y-129483D01*
X269861D01*
X270083Y-129446D01*
X270416Y-129410D01*
X270861Y-129335D01*
X271342Y-129187D01*
X271824Y-129002D01*
X272342Y-128706D01*
X272787Y-128336D01*
X272824Y-128299D01*
X272972Y-128113D01*
X273157Y-127891D01*
X273379Y-127558D01*
X273601Y-127150D01*
X273786Y-126669D01*
X273935Y-126114D01*
X273972Y-125521D01*
Y-125484D01*
Y-125447D01*
Y-125225D01*
X273897Y-124891D01*
X273824Y-124484D01*
X273675Y-124040D01*
X273453Y-123558D01*
X273157Y-123077D01*
X272750Y-122595D01*
X272712Y-122558D01*
X272527Y-122410D01*
X272268Y-122225D01*
X271935Y-122003D01*
X271490Y-121781D01*
X271009Y-121595D01*
X270416Y-121447D01*
X269787Y-121410D01*
D02*
G37*
G36*
X269676Y-132039D02*
X269454D01*
X269305Y-132076D01*
X268898Y-132113D01*
X268380Y-132224D01*
X267787Y-132409D01*
X267194Y-132668D01*
X266565Y-133039D01*
X266010Y-133520D01*
X265935Y-133594D01*
X265787Y-133779D01*
X265565Y-134113D01*
X265306Y-134520D01*
X265010Y-135076D01*
X264787Y-135705D01*
X264639Y-136409D01*
X264565Y-137186D01*
Y-137261D01*
Y-137409D01*
X264602Y-137668D01*
X264639Y-138001D01*
X264713Y-138408D01*
X264824Y-138853D01*
X264972Y-139297D01*
X265158Y-139779D01*
X265195Y-139816D01*
X265269Y-140001D01*
X265417Y-140223D01*
X265639Y-140482D01*
X265898Y-140816D01*
X266232Y-141149D01*
X266602Y-141445D01*
X267046Y-141742D01*
X267120Y-141779D01*
X267269Y-141853D01*
X267528Y-141964D01*
X267861Y-142075D01*
X268269Y-142186D01*
X268750Y-142297D01*
X269268Y-142371D01*
X269787Y-142408D01*
X270009D01*
X270157Y-142371D01*
X270602Y-142334D01*
X271120Y-142223D01*
X271713Y-142038D01*
X272342Y-141816D01*
X272935Y-141445D01*
X273527Y-140964D01*
X273601Y-140890D01*
X273749Y-140705D01*
X274009Y-140371D01*
X274268Y-139964D01*
X274527Y-139445D01*
X274786Y-138816D01*
X274935Y-138075D01*
X275009Y-137297D01*
Y-137261D01*
Y-137186D01*
Y-137075D01*
X274972Y-136927D01*
X274935Y-136520D01*
X274823Y-135964D01*
X274638Y-135409D01*
X274379Y-134779D01*
X274009Y-134150D01*
X273490Y-133557D01*
X273416Y-133483D01*
X273231Y-133335D01*
X272898Y-133076D01*
X272453Y-132780D01*
X271898Y-132520D01*
X271231Y-132261D01*
X270490Y-132113D01*
X269676Y-132039D01*
D02*
G37*
G36*
X72548Y-121410D02*
X72326D01*
X72178Y-121447D01*
X71770Y-121521D01*
X71289Y-121632D01*
X70733Y-121855D01*
X70141Y-122188D01*
X69845Y-122410D01*
X69548Y-122632D01*
X69289Y-122929D01*
X69030Y-123262D01*
Y-123299D01*
X68956Y-123373D01*
X68882Y-123521D01*
X68771Y-123706D01*
X68660Y-124003D01*
X68511Y-124336D01*
X68400Y-124743D01*
X68252Y-125225D01*
X68104Y-125780D01*
X67956Y-126410D01*
X67808Y-127114D01*
X67697Y-127891D01*
X67586Y-128780D01*
X67512Y-129743D01*
X67474Y-130780D01*
X67438Y-131928D01*
Y-132002D01*
Y-132187D01*
Y-132520D01*
X67474Y-132965D01*
Y-133446D01*
X67512Y-134039D01*
X67549Y-134668D01*
X67623Y-135335D01*
X67808Y-136779D01*
X67919Y-137483D01*
X68067Y-138149D01*
X68215Y-138779D01*
X68437Y-139372D01*
X68660Y-139890D01*
X68919Y-140334D01*
Y-140371D01*
X68993Y-140408D01*
X69178Y-140668D01*
X69511Y-141001D01*
X69919Y-141371D01*
X70474Y-141742D01*
X71104Y-142075D01*
X71807Y-142334D01*
X72178Y-142371D01*
X72585Y-142408D01*
X72807Y-142408D01*
X72955Y-142371D01*
X73326Y-142297D01*
X73844Y-142149D01*
X74400Y-141890D01*
X75029Y-141519D01*
X75325Y-141297D01*
X75622Y-141001D01*
X75918Y-140705D01*
X76214Y-140334D01*
Y-140297D01*
X76288Y-140223D01*
X76363Y-140112D01*
X76437Y-139927D01*
X76585Y-139668D01*
X76696Y-139334D01*
X76844Y-138964D01*
X76992Y-138520D01*
X77103Y-137964D01*
X77251Y-137372D01*
X77399Y-136668D01*
X77510Y-135927D01*
X77585Y-135038D01*
X77659Y-134113D01*
X77733Y-133076D01*
Y-131928D01*
Y-131891D01*
Y-131854D01*
Y-131669D01*
Y-131335D01*
X77696Y-130891D01*
Y-130409D01*
X77659Y-129817D01*
X77622Y-129187D01*
X77547Y-128484D01*
X77362Y-127076D01*
X77251Y-126373D01*
X77103Y-125706D01*
X76955Y-125077D01*
X76733Y-124484D01*
X76511Y-123966D01*
X76251Y-123521D01*
Y-123484D01*
X76177Y-123447D01*
X76103Y-123336D01*
X75992Y-123188D01*
X75659Y-122855D01*
X75251Y-122447D01*
X74696Y-122077D01*
X74066Y-121744D01*
X73733Y-121595D01*
X73363Y-121484D01*
X72955Y-121447D01*
X72548Y-121410D01*
D02*
G37*
%LPD*%
D13*
X1100000Y0D02*
Y2600000D01*
X0Y0D02*
Y2600000D01*
Y2599999D02*
X1100000D01*
X0Y-0D02*
X1100000D01*
X0Y2400000D02*
X1100000D01*
X1105000D02*
X1135000Y2400000D01*
X0Y2200000D02*
X1100000D01*
X1105000D02*
X1135000Y2200000D01*
X0Y2000000D02*
X1100000D01*
X1105000D02*
X1135000Y2000000D01*
X0Y1800000D02*
X1100000D01*
X1105000D02*
X1135000Y1800000D01*
X0Y1600000D02*
X1100000D01*
X1105000D02*
X1135000Y1600000D01*
X0Y1400000D02*
X1100000D01*
X1105000D02*
X1135000Y1400000D01*
X0Y1249999D02*
X1100000D01*
X1105000D02*
X1135000Y1249999D01*
X0Y1099999D02*
X1100000D01*
X1105000D02*
X1135000Y1100000D01*
X0Y949999D02*
X1100000D01*
X1105000D02*
X1135000Y949999D01*
X0Y749999D02*
X1100000D01*
X1105000D02*
X1135000Y749999D01*
X0Y550000D02*
X1100000D01*
X1105000D02*
X1135000Y550000D01*
X0Y350000D02*
X1100000D01*
X1105000D02*
X1135000Y350000D01*
X1105000Y150000D02*
X1135000Y150000D01*
X0Y150000D02*
X1100000D01*
D28*
X1157343Y-538920D02*
Y-173160D01*
X872944Y-234120D02*
X1157343D01*
X872944Y-264600D02*
X1157343D01*
X872944Y-295080D02*
X1157343D01*
X872944Y-325560D02*
X1157343D01*
X872944Y-356040D02*
X1157343D01*
X872944Y-386520D02*
X1157343D01*
X872944Y-417000D02*
X1157343D01*
X872944Y-447480D02*
X1157343D01*
X872944Y-477960D02*
X1157343D01*
X872944Y-508440D02*
X1157343D01*
X872944Y-538920D02*
X1157343D01*
X872944D02*
Y-173160D01*
X728199Y-234120D02*
X872944D01*
X728199Y-264600D02*
X872944D01*
X728199Y-295080D02*
X872944D01*
X728199Y-325560D02*
X872944D01*
X728199Y-356040D02*
X872944D01*
X728199Y-386520D02*
X872944D01*
X728199Y-417000D02*
X872944D01*
X728199Y-447480D02*
X872944D01*
X728199Y-477960D02*
X872944D01*
X728199Y-508440D02*
X872944D01*
X728199Y-538920D02*
X872944D01*
X728199D02*
Y-173160D01*
X563141Y-234120D02*
X728199D01*
X563141Y-264600D02*
X728199D01*
X563141Y-295080D02*
X728199D01*
X563141Y-325560D02*
X728199D01*
X563141Y-356040D02*
X728199D01*
X563141Y-386520D02*
X728199D01*
X563141Y-417000D02*
X728199D01*
X563141Y-447480D02*
X728199D01*
X563141Y-477960D02*
X728199D01*
X563141Y-508440D02*
X728199D01*
X563141Y-538920D02*
X728199D01*
X563141D02*
Y-173160D01*
X344760Y-234120D02*
X563141D01*
X344760Y-264600D02*
X563141D01*
X344760Y-295080D02*
X563141D01*
X344760Y-325560D02*
X563141D01*
X344760Y-356040D02*
X563141D01*
X344760Y-386520D02*
X563141D01*
X344760Y-417000D02*
X563141D01*
X344760Y-447480D02*
X563141D01*
X344760Y-477960D02*
X563141D01*
X344760Y-508440D02*
X563141D01*
X344760Y-538920D02*
X563141D01*
X344760D02*
Y-173160D01*
X108605Y-234120D02*
X344760D01*
X108605Y-264600D02*
X344760D01*
X108605Y-295080D02*
X344760D01*
X108605Y-325560D02*
X344760D01*
X108605Y-356040D02*
X344760D01*
X108605Y-386520D02*
X344760D01*
X108605Y-417000D02*
X344760D01*
X108605Y-447480D02*
X344760D01*
X108605Y-477960D02*
X344760D01*
X108605Y-508440D02*
X344760D01*
X108605Y-538920D02*
X344760D01*
X108605D02*
Y-173160D01*
X4487Y-234120D02*
X108605D01*
X4487Y-264600D02*
X108605D01*
X4487Y-295080D02*
X108605D01*
X4487Y-325560D02*
X108605D01*
X4487Y-356040D02*
X108605D01*
X4487Y-386520D02*
X108605D01*
X4487Y-417000D02*
X108605D01*
X4487Y-447480D02*
X108605D01*
X4487Y-477960D02*
X108605D01*
X4487Y-508440D02*
X108605D01*
X4487Y-538920D02*
X108605D01*
X4487D02*
Y-173160D01*
X1157343D01*
X4487Y-203640D02*
X1157343D01*
D29*
X872944Y-213720D02*
X883023Y-203640D01*
X872944Y-228960D02*
X898263Y-203640D01*
X883023Y-234120D02*
X913503Y-203640D01*
X898263Y-234120D02*
X928743Y-203640D01*
X913503Y-234120D02*
X943983Y-203640D01*
X928743Y-234120D02*
X959223Y-203640D01*
X943983Y-234120D02*
X974463Y-203640D01*
X959223Y-234120D02*
X989703Y-203640D01*
X974463Y-234120D02*
X1004943Y-203640D01*
X989703Y-234120D02*
X1020183Y-203640D01*
X1004943Y-234120D02*
X1035423Y-203640D01*
X1020183Y-234120D02*
X1050663Y-203640D01*
X1035423Y-234120D02*
X1065903Y-203640D01*
X1050663Y-234120D02*
X1081143Y-203640D01*
X1065903Y-234120D02*
X1096383Y-203640D01*
X1081143Y-234120D02*
X1111623Y-203640D01*
X1096383Y-234120D02*
X1126863Y-203640D01*
X1111623Y-234120D02*
X1142103Y-203640D01*
X1126863Y-234120D02*
X1157343Y-203640D01*
X1142103Y-234120D02*
X1157343Y-218880D01*
X872944Y-244200D02*
X883023Y-234120D01*
X872944Y-259440D02*
X898263Y-234120D01*
X883023Y-264600D02*
X913503Y-234120D01*
X898263Y-264600D02*
X928743Y-234120D01*
X913503Y-264600D02*
X943983Y-234120D01*
X928743Y-264600D02*
X959223Y-234120D01*
X943983Y-264600D02*
X974463Y-234120D01*
X959223Y-264600D02*
X989703Y-234120D01*
X974463Y-264600D02*
X1004943Y-234120D01*
X989703Y-264600D02*
X1020183Y-234120D01*
X1004943Y-264600D02*
X1035423Y-234120D01*
X1020183Y-264600D02*
X1050663Y-234120D01*
X1035423Y-264600D02*
X1065903Y-234120D01*
X1050663Y-264600D02*
X1081143Y-234120D01*
X1065903Y-264600D02*
X1096383Y-234120D01*
X1081143Y-264600D02*
X1111623Y-234120D01*
X1096383Y-264600D02*
X1126863Y-234120D01*
X1111623Y-264600D02*
X1142103Y-234120D01*
X1126863Y-264600D02*
X1157343Y-234120D01*
X1142103Y-264600D02*
X1157343Y-249360D01*
X872944Y-274680D02*
X883023Y-264600D01*
X872944Y-289919D02*
X898263Y-264600D01*
X883023Y-295080D02*
X913503Y-264600D01*
X898263Y-295080D02*
X928743Y-264600D01*
X913503Y-295080D02*
X943983Y-264600D01*
X928743Y-295080D02*
X959223Y-264600D01*
X943983Y-295080D02*
X974463Y-264600D01*
X959223Y-295080D02*
X989703Y-264600D01*
X974463Y-295080D02*
X1004943Y-264600D01*
X989703Y-295080D02*
X1020183Y-264600D01*
X1004943Y-295080D02*
X1035423Y-264600D01*
X1020183Y-295080D02*
X1050663Y-264600D01*
X1035423Y-295080D02*
X1065903Y-264600D01*
X1050663Y-295080D02*
X1081143Y-264600D01*
X1065903Y-295080D02*
X1096383Y-264600D01*
X1081143Y-295080D02*
X1111623Y-264600D01*
X1096383Y-295080D02*
X1126863Y-264600D01*
X1111623Y-295080D02*
X1142103Y-264600D01*
X1126863Y-295080D02*
X1157343Y-264600D01*
X1142103Y-295080D02*
X1157343Y-279840D01*
X872944Y-305159D02*
X883023Y-295080D01*
X872944Y-320400D02*
X898263Y-295080D01*
X883023Y-325560D02*
X913503Y-295080D01*
X898263Y-325560D02*
X928743Y-295080D01*
X913503Y-325560D02*
X943983Y-295080D01*
X928743Y-325560D02*
X959223Y-295080D01*
X943983Y-325560D02*
X974463Y-295080D01*
X959223Y-325560D02*
X989703Y-295080D01*
X974463Y-325560D02*
X1004943Y-295080D01*
X989703Y-325560D02*
X1020183Y-295080D01*
X1004943Y-325560D02*
X1035423Y-295080D01*
X1020183Y-325560D02*
X1050663Y-295080D01*
X1035423Y-325560D02*
X1065903Y-295080D01*
X1050663Y-325560D02*
X1081143Y-295080D01*
X1065903Y-325560D02*
X1096383Y-295080D01*
X1081143Y-325560D02*
X1111623Y-295080D01*
X1096383Y-325560D02*
X1126863Y-295080D01*
X1111623Y-325560D02*
X1142103Y-295080D01*
X1126863Y-325560D02*
X1157343Y-295080D01*
X1142103Y-325560D02*
X1157343Y-310320D01*
X872944Y-335639D02*
X883023Y-325560D01*
X872944Y-350880D02*
X898263Y-325560D01*
X883023Y-356040D02*
X913503Y-325560D01*
X898263Y-356040D02*
X928743Y-325560D01*
X913503Y-356040D02*
X943983Y-325560D01*
X928743Y-356040D02*
X959223Y-325560D01*
X943983Y-356040D02*
X974463Y-325560D01*
X959223Y-356040D02*
X989703Y-325560D01*
X974463Y-356040D02*
X1004943Y-325560D01*
X989703Y-356040D02*
X1020183Y-325560D01*
X1004943Y-356040D02*
X1035423Y-325560D01*
X1020183Y-356040D02*
X1050663Y-325560D01*
X1035423Y-356040D02*
X1065903Y-325560D01*
X1050663Y-356040D02*
X1081143Y-325560D01*
X1065903Y-356040D02*
X1096383Y-325560D01*
X1081143Y-356040D02*
X1111623Y-325560D01*
X1096383Y-356040D02*
X1126863Y-325560D01*
X1111623Y-356040D02*
X1142103Y-325560D01*
X1126863Y-356040D02*
X1157343Y-325560D01*
X1142103Y-356040D02*
X1157343Y-340800D01*
X872944Y-366119D02*
X883023Y-356040D01*
X872944Y-381359D02*
X898263Y-356040D01*
X883023Y-386520D02*
X913503Y-356040D01*
X898263Y-386520D02*
X928743Y-356040D01*
X913503Y-386520D02*
X943983Y-356040D01*
X928743Y-386520D02*
X959223Y-356040D01*
X943983Y-386520D02*
X974463Y-356040D01*
X959223Y-386520D02*
X989703Y-356040D01*
X974463Y-386520D02*
X1004943Y-356040D01*
X989703Y-386520D02*
X1020183Y-356040D01*
X1004943Y-386520D02*
X1035423Y-356040D01*
X1020183Y-386520D02*
X1050663Y-356040D01*
X1035423Y-386520D02*
X1065903Y-356040D01*
X1050663Y-386520D02*
X1081143Y-356040D01*
X1065903Y-386520D02*
X1096383Y-356040D01*
X1081143Y-386520D02*
X1111623Y-356040D01*
X1096383Y-386520D02*
X1126863Y-356040D01*
X1111623Y-386520D02*
X1142103Y-356040D01*
X1126863Y-386520D02*
X1157343Y-356040D01*
X1142103Y-386520D02*
X1157343Y-371280D01*
X872944Y-396600D02*
X883023Y-386520D01*
X872944Y-411839D02*
X898263Y-386520D01*
X883023Y-417000D02*
X913503Y-386520D01*
X898263Y-417000D02*
X928743Y-386520D01*
X913503Y-417000D02*
X943983Y-386520D01*
X928743Y-417000D02*
X959223Y-386520D01*
X943983Y-417000D02*
X974463Y-386520D01*
X959223Y-417000D02*
X989703Y-386520D01*
X974463Y-417000D02*
X1004943Y-386520D01*
X989703Y-417000D02*
X1020183Y-386520D01*
X1004943Y-417000D02*
X1035423Y-386520D01*
X1020183Y-417000D02*
X1050663Y-386520D01*
X1035423Y-417000D02*
X1065903Y-386520D01*
X1050663Y-417000D02*
X1081143Y-386520D01*
X1065903Y-417000D02*
X1096383Y-386520D01*
X1081143Y-417000D02*
X1111623Y-386520D01*
X1096383Y-417000D02*
X1126863Y-386520D01*
X1111623Y-417000D02*
X1142103Y-386520D01*
X1126863Y-417000D02*
X1157343Y-386520D01*
X1142103Y-417000D02*
X1157343Y-401760D01*
X872944Y-427080D02*
X883023Y-417000D01*
X872944Y-442319D02*
X898263Y-417000D01*
X883023Y-447480D02*
X913503Y-417000D01*
X898263Y-447480D02*
X928743Y-417000D01*
X913503Y-447480D02*
X943983Y-417000D01*
X928743Y-447480D02*
X959223Y-417000D01*
X943983Y-447480D02*
X974463Y-417000D01*
X959223Y-447480D02*
X989703Y-417000D01*
X974463Y-447480D02*
X1004943Y-417000D01*
X989703Y-447480D02*
X1020183Y-417000D01*
X1004943Y-447480D02*
X1035423Y-417000D01*
X1020183Y-447480D02*
X1050663Y-417000D01*
X1035423Y-447480D02*
X1065903Y-417000D01*
X1050663Y-447480D02*
X1081143Y-417000D01*
X1065903Y-447480D02*
X1096383Y-417000D01*
X1081143Y-447480D02*
X1111623Y-417000D01*
X1096383Y-447480D02*
X1126863Y-417000D01*
X1111623Y-447480D02*
X1142103Y-417000D01*
X1126863Y-447480D02*
X1157343Y-417000D01*
X1142103Y-447480D02*
X1157343Y-432240D01*
X872944Y-457560D02*
X883023Y-447480D01*
X872944Y-472799D02*
X898263Y-447480D01*
X883023Y-477960D02*
X913503Y-447480D01*
X898263Y-477960D02*
X928743Y-447480D01*
X913503Y-477960D02*
X943983Y-447480D01*
X928743Y-477960D02*
X959223Y-447480D01*
X943983Y-477960D02*
X974463Y-447480D01*
X959223Y-477960D02*
X989703Y-447480D01*
X974463Y-477960D02*
X1004943Y-447480D01*
X989703Y-477960D02*
X1020183Y-447480D01*
X1004943Y-477960D02*
X1035423Y-447480D01*
X1020183Y-477960D02*
X1050663Y-447480D01*
X1035423Y-477960D02*
X1065903Y-447480D01*
X1050663Y-477960D02*
X1081143Y-447480D01*
X1065903Y-477960D02*
X1096383Y-447480D01*
X1081143Y-477960D02*
X1111623Y-447480D01*
X1096383Y-477960D02*
X1126863Y-447480D01*
X1111623Y-477960D02*
X1142103Y-447480D01*
X1126863Y-477960D02*
X1157343Y-447480D01*
X1142103Y-477960D02*
X1157343Y-462720D01*
X872944Y-488040D02*
X883023Y-477960D01*
X872944Y-503279D02*
X898263Y-477960D01*
X883023Y-508440D02*
X913503Y-477960D01*
X898263Y-508440D02*
X928743Y-477960D01*
X913503Y-508440D02*
X943983Y-477960D01*
X928743Y-508440D02*
X959223Y-477960D01*
X943983Y-508440D02*
X974463Y-477960D01*
X959223Y-508440D02*
X989703Y-477960D01*
X974463Y-508440D02*
X1004943Y-477960D01*
X989703Y-508440D02*
X1020183Y-477960D01*
X1004943Y-508440D02*
X1035423Y-477960D01*
X1020183Y-508440D02*
X1050663Y-477960D01*
X1035423Y-508440D02*
X1065903Y-477960D01*
X1050663Y-508440D02*
X1081143Y-477960D01*
X1065903Y-508440D02*
X1096383Y-477960D01*
X1081143Y-508440D02*
X1111623Y-477960D01*
X1096383Y-508440D02*
X1126863Y-477960D01*
X1111623Y-508440D02*
X1142103Y-477960D01*
X1126863Y-508440D02*
X1157343Y-477960D01*
X1142103Y-508440D02*
X1157343Y-493200D01*
X872944Y-518520D02*
X883023Y-508440D01*
X872944Y-533759D02*
X898263Y-508440D01*
X883023Y-538920D02*
X913503Y-508440D01*
X898263Y-538920D02*
X928743Y-508440D01*
X913503Y-538920D02*
X943983Y-508440D01*
X928743Y-538920D02*
X959223Y-508440D01*
X943983Y-538920D02*
X974463Y-508440D01*
X959223Y-538920D02*
X989703Y-508440D01*
X974463Y-538920D02*
X1004943Y-508440D01*
X989703Y-538920D02*
X1020183Y-508440D01*
X1004943Y-538920D02*
X1035423Y-508440D01*
X1020183Y-538920D02*
X1050663Y-508440D01*
X1035423Y-538920D02*
X1065903Y-508440D01*
X1050663Y-538920D02*
X1081143Y-508440D01*
X1065903Y-538920D02*
X1096383Y-508440D01*
X1081143Y-538920D02*
X1111623Y-508440D01*
X1096383Y-538920D02*
X1126863Y-508440D01*
X1111623Y-538920D02*
X1142103Y-508440D01*
X1126863Y-538920D02*
X1157343Y-508440D01*
X1142103Y-538920D02*
X1157343Y-523680D01*
D30*
X580921Y-561780D02*
X585999D01*
X583460D01*
Y-546545D01*
X580921Y-549084D01*
X593617Y-561780D02*
Y-559241D01*
X596156D01*
Y-561780D01*
X593617D01*
X616469Y-546545D02*
X611391Y-549084D01*
X606313Y-554162D01*
Y-559241D01*
X608852Y-561780D01*
X613930D01*
X616469Y-559241D01*
Y-556702D01*
X613930Y-554162D01*
X606313D01*
X629165Y-561780D02*
Y-546545D01*
X621548Y-554162D01*
X631704D01*
X636783Y-546545D02*
X646939D01*
Y-549084D01*
X636783Y-559241D01*
Y-561780D01*
X652018D02*
Y-551623D01*
X654557D01*
X657096Y-554162D01*
Y-561780D01*
Y-554162D01*
X659635Y-551623D01*
X662175Y-554162D01*
Y-561780D01*
X667253D02*
Y-551623D01*
X669792D01*
X672331Y-554162D01*
Y-561780D01*
Y-554162D01*
X674870Y-551623D01*
X677410Y-554162D01*
Y-561780D01*
X22267Y-546545D02*
X32424D01*
X27345D01*
Y-561780D01*
X40041D02*
X45120D01*
X47659Y-559241D01*
Y-554162D01*
X45120Y-551623D01*
X40041D01*
X37502Y-554162D01*
Y-559241D01*
X40041Y-561780D01*
X55276Y-549084D02*
Y-551623D01*
X52737D01*
X57816D01*
X55276D01*
Y-559241D01*
X57816Y-561780D01*
X67972Y-551623D02*
X73051D01*
X75590Y-554162D01*
Y-561780D01*
X67972D01*
X65433Y-559241D01*
X67972Y-556702D01*
X75590D01*
X80668Y-561780D02*
X85746D01*
X83207D01*
Y-546545D01*
X80668D01*
X108599D02*
Y-561780D01*
X116217D01*
X118756Y-559241D01*
Y-556702D01*
Y-554162D01*
X116217Y-551623D01*
X108599D01*
X126373Y-561780D02*
X131452D01*
X133991Y-559241D01*
Y-554162D01*
X131452Y-551623D01*
X126373D01*
X123834Y-554162D01*
Y-559241D01*
X126373Y-561780D01*
X141608Y-551623D02*
X146687D01*
X149226Y-554162D01*
Y-561780D01*
X141608D01*
X139069Y-559241D01*
X141608Y-556702D01*
X149226D01*
X154304Y-551623D02*
Y-561780D01*
Y-556702D01*
X156844Y-554162D01*
X159383Y-551623D01*
X161922D01*
X179696Y-546545D02*
Y-561780D01*
X172079D01*
X169539Y-559241D01*
Y-554162D01*
X172079Y-551623D01*
X179696D01*
X202549Y-549084D02*
Y-551623D01*
X200010D01*
X205088D01*
X202549D01*
Y-559241D01*
X205088Y-561780D01*
X212705Y-546545D02*
Y-561780D01*
Y-554162D01*
X215245Y-551623D01*
X220323D01*
X222862Y-554162D01*
Y-561780D01*
X227941D02*
X233019D01*
X230480D01*
Y-551623D01*
X227941D01*
X250793D02*
X243176D01*
X240636Y-554162D01*
Y-559241D01*
X243176Y-561780D01*
X250793D01*
X255872D02*
Y-546545D01*
Y-556702D02*
X263489Y-551623D01*
X255872Y-556702D02*
X263489Y-561780D01*
X271106D02*
Y-551623D01*
X278724D01*
X281263Y-554162D01*
Y-561780D01*
X293959D02*
X288881D01*
X286342Y-559241D01*
Y-554162D01*
X288881Y-551623D01*
X293959D01*
X296498Y-554162D01*
Y-556702D01*
X286342D01*
X301577Y-561780D02*
X309194D01*
X311733Y-559241D01*
X309194Y-556702D01*
X304116D01*
X301577Y-554162D01*
X304116Y-551623D01*
X311733D01*
X316812Y-561780D02*
X324429D01*
X326968Y-559241D01*
X324429Y-556702D01*
X319351D01*
X316812Y-554162D01*
X319351Y-551623D01*
X326968D01*
X332047D02*
X334586D01*
Y-554162D01*
X332047D01*
Y-551623D01*
Y-559241D02*
X334586D01*
Y-561780D01*
X332047D01*
Y-559241D01*
X890724Y-180785D02*
Y-196020D01*
X898341D01*
X900880Y-193481D01*
Y-190942D01*
X898341Y-188403D01*
X890724D01*
X898341D01*
X900880Y-185863D01*
Y-183324D01*
X898341Y-180785D01*
X890724D01*
X908498Y-196020D02*
X913576D01*
X916115Y-193481D01*
Y-188403D01*
X913576Y-185863D01*
X908498D01*
X905959Y-188403D01*
Y-193481D01*
X908498Y-196020D01*
X923733Y-185863D02*
X928811D01*
X931350Y-188403D01*
Y-196020D01*
X923733D01*
X921194Y-193481D01*
X923733Y-190942D01*
X931350D01*
X936429Y-185863D02*
Y-196020D01*
Y-190942D01*
X938968Y-188403D01*
X941507Y-185863D01*
X944046D01*
X961821Y-180785D02*
Y-196020D01*
X954203D01*
X951664Y-193481D01*
Y-188403D01*
X954203Y-185863D01*
X961821D01*
X982134Y-180785D02*
Y-196020D01*
X992291D01*
X999908Y-185863D02*
X1004987D01*
X1007526Y-188403D01*
Y-196020D01*
X999908D01*
X997369Y-193481D01*
X999908Y-190942D01*
X1007526D01*
X1012604Y-185863D02*
Y-193481D01*
X1015143Y-196020D01*
X1022761D01*
Y-198559D01*
X1020222Y-201098D01*
X1017682D01*
X1022761Y-196020D02*
Y-185863D01*
X1035457Y-196020D02*
X1030378D01*
X1027839Y-193481D01*
Y-188403D01*
X1030378Y-185863D01*
X1035457D01*
X1037996Y-188403D01*
Y-190942D01*
X1027839D01*
X1043074Y-185863D02*
Y-196020D01*
Y-190942D01*
X1045613Y-188403D01*
X1048153Y-185863D01*
X1050692D01*
X1083701Y-183324D02*
X1081162Y-180785D01*
X1076084D01*
X1073544Y-183324D01*
Y-185863D01*
X1076084Y-188403D01*
X1081162D01*
X1083701Y-190942D01*
Y-193481D01*
X1081162Y-196020D01*
X1076084D01*
X1073544Y-193481D01*
X1091319Y-183324D02*
Y-185863D01*
X1088780D01*
X1093858D01*
X1091319D01*
Y-193481D01*
X1093858Y-196020D01*
X1104015Y-185863D02*
X1109093D01*
X1111632Y-188403D01*
Y-196020D01*
X1104015D01*
X1101475Y-193481D01*
X1104015Y-190942D01*
X1111632D01*
X1126867Y-185863D02*
X1119250D01*
X1116711Y-188403D01*
Y-193481D01*
X1119250Y-196020D01*
X1126867D01*
X1131946D02*
Y-180785D01*
Y-190942D02*
X1139563Y-185863D01*
X1131946Y-190942D02*
X1139563Y-196020D01*
X745979Y-244284D02*
X748518Y-241745D01*
X753596D01*
X756136Y-244284D01*
Y-246823D01*
X753596Y-249363D01*
X751057D01*
X753596D01*
X756136Y-251902D01*
Y-254441D01*
X753596Y-256980D01*
X748518D01*
X745979Y-254441D01*
X761214Y-256980D02*
Y-254441D01*
X763753D01*
Y-256980D01*
X761214D01*
X773910Y-244284D02*
X776449Y-241745D01*
X781527D01*
X784067Y-244284D01*
Y-246823D01*
X781527Y-249363D01*
X784067Y-251902D01*
Y-254441D01*
X781527Y-256980D01*
X776449D01*
X773910Y-254441D01*
Y-251902D01*
X776449Y-249363D01*
X773910Y-246823D01*
Y-244284D01*
X776449Y-249363D02*
X781527D01*
X753596Y-317940D02*
Y-302705D01*
X745979Y-310322D01*
X756136D01*
X761214Y-317940D02*
Y-315401D01*
X763753D01*
Y-317940D01*
X761214D01*
X781527D02*
Y-302705D01*
X773910Y-310322D01*
X784067D01*
X753596Y-378900D02*
Y-363665D01*
X745979Y-371283D01*
X756136D01*
X761214Y-378900D02*
Y-376361D01*
X763753D01*
Y-378900D01*
X761214D01*
X784067Y-363665D02*
X778988Y-366204D01*
X773910Y-371283D01*
Y-376361D01*
X776449Y-378900D01*
X781527D01*
X784067Y-376361D01*
Y-373822D01*
X781527Y-371283D01*
X773910D01*
X753596Y-439860D02*
Y-424625D01*
X745979Y-432243D01*
X756136D01*
X761214Y-439860D02*
Y-437321D01*
X763753D01*
Y-439860D01*
X761214D01*
X781527D02*
Y-424625D01*
X773910Y-432243D01*
X784067D01*
X745979Y-488124D02*
X748518Y-485585D01*
X753596D01*
X756136Y-488124D01*
Y-490663D01*
X753596Y-493203D01*
X751057D01*
X753596D01*
X756136Y-495742D01*
Y-498281D01*
X753596Y-500820D01*
X748518D01*
X745979Y-498281D01*
X761214Y-500820D02*
Y-498281D01*
X763753D01*
Y-500820D01*
X761214D01*
X773910Y-488124D02*
X776449Y-485585D01*
X781527D01*
X784067Y-488124D01*
Y-490663D01*
X781527Y-493203D01*
X784067Y-495742D01*
Y-498281D01*
X781527Y-500820D01*
X776449D01*
X773910Y-498281D01*
Y-495742D01*
X776449Y-493203D01*
X773910Y-490663D01*
Y-488124D01*
X776449Y-493203D02*
X781527D01*
X756136Y-183324D02*
X753596Y-180785D01*
X748518D01*
X745979Y-183324D01*
Y-193481D01*
X748518Y-196020D01*
X753596D01*
X756136Y-193481D01*
X763753Y-196020D02*
X768832D01*
X771371Y-193481D01*
Y-188403D01*
X768832Y-185863D01*
X763753D01*
X761214Y-188403D01*
Y-193481D01*
X763753Y-196020D01*
X776449D02*
Y-185863D01*
X784067D01*
X786606Y-188403D01*
Y-196020D01*
X791684D02*
X799302D01*
X801841Y-193481D01*
X799302Y-190942D01*
X794223D01*
X791684Y-188403D01*
X794223Y-185863D01*
X801841D01*
X809458Y-183324D02*
Y-185863D01*
X806919D01*
X811998D01*
X809458D01*
Y-193481D01*
X811998Y-196020D01*
X822154Y-185863D02*
X827233D01*
X829772Y-188403D01*
Y-196020D01*
X822154D01*
X819615Y-193481D01*
X822154Y-190942D01*
X829772D01*
X834850Y-196020D02*
Y-185863D01*
X842468D01*
X845007Y-188403D01*
Y-196020D01*
X852625Y-183324D02*
Y-185863D01*
X850085D01*
X855164D01*
X852625D01*
Y-193481D01*
X855164Y-196020D01*
X580921Y-244284D02*
X583460Y-241745D01*
X588538D01*
X591078Y-244284D01*
Y-254441D01*
X588538Y-256980D01*
X583460D01*
X580921Y-254441D01*
Y-244284D01*
X596156Y-256980D02*
Y-254441D01*
X598695D01*
Y-256980D01*
X596156D01*
X608852Y-244284D02*
X611391Y-241745D01*
X616469D01*
X619008Y-244284D01*
Y-254441D01*
X616469Y-256980D01*
X611391D01*
X608852Y-254441D01*
Y-244284D01*
X624087D02*
X626626Y-241745D01*
X631704D01*
X634244Y-244284D01*
Y-246823D01*
X631704Y-249363D01*
X629165D01*
X631704D01*
X634244Y-251902D01*
Y-254441D01*
X631704Y-256980D01*
X626626D01*
X624087Y-254441D01*
X639322Y-244284D02*
X641861Y-241745D01*
X646939D01*
X649479Y-244284D01*
Y-254441D01*
X646939Y-256980D01*
X641861D01*
X639322Y-254441D01*
Y-244284D01*
X654557Y-256980D02*
Y-246823D01*
X657096D01*
X659635Y-249363D01*
Y-256980D01*
Y-249363D01*
X662175Y-246823D01*
X664714Y-249363D01*
Y-256980D01*
X669792D02*
Y-246823D01*
X672331D01*
X674870Y-249363D01*
Y-256980D01*
Y-249363D01*
X677410Y-246823D01*
X679949Y-249363D01*
Y-256980D01*
X580921Y-274764D02*
X583460Y-272225D01*
X588538D01*
X591078Y-274764D01*
Y-284921D01*
X588538Y-287460D01*
X583460D01*
X580921Y-284921D01*
Y-274764D01*
X596156Y-287460D02*
Y-284921D01*
X598695D01*
Y-287460D01*
X596156D01*
X608852Y-274764D02*
X611391Y-272225D01*
X616469D01*
X619008Y-274764D01*
Y-284921D01*
X616469Y-287460D01*
X611391D01*
X608852Y-284921D01*
Y-274764D01*
X624087D02*
X626626Y-272225D01*
X631704D01*
X634244Y-274764D01*
Y-277303D01*
X631704Y-279842D01*
X629165D01*
X631704D01*
X634244Y-282382D01*
Y-284921D01*
X631704Y-287460D01*
X626626D01*
X624087Y-284921D01*
X649479Y-272225D02*
X639322D01*
Y-279842D01*
X644400Y-277303D01*
X646939D01*
X649479Y-279842D01*
Y-284921D01*
X646939Y-287460D01*
X641861D01*
X639322Y-284921D01*
X654557Y-287460D02*
Y-277303D01*
X657096D01*
X659635Y-279842D01*
Y-287460D01*
Y-279842D01*
X662175Y-277303D01*
X664714Y-279842D01*
Y-287460D01*
X669792D02*
Y-277303D01*
X672331D01*
X674870Y-279842D01*
Y-287460D01*
Y-279842D01*
X677410Y-277303D01*
X679949Y-279842D01*
Y-287460D01*
X580921Y-305244D02*
X583460Y-302705D01*
X588538D01*
X591078Y-305244D01*
Y-315401D01*
X588538Y-317940D01*
X583460D01*
X580921Y-315401D01*
Y-305244D01*
X596156Y-317940D02*
Y-315401D01*
X598695D01*
Y-317940D01*
X596156D01*
X619008D02*
X608852D01*
X619008Y-307783D01*
Y-305244D01*
X616469Y-302705D01*
X611391D01*
X608852Y-305244D01*
X624087Y-317940D02*
X629165D01*
X626626D01*
Y-302705D01*
X624087Y-305244D01*
X636783D02*
X639322Y-302705D01*
X644400D01*
X646939Y-305244D01*
Y-315401D01*
X644400Y-317940D01*
X639322D01*
X636783Y-315401D01*
Y-305244D01*
X652018Y-317940D02*
Y-307783D01*
X654557D01*
X657096Y-310322D01*
Y-317940D01*
Y-310322D01*
X659635Y-307783D01*
X662175Y-310322D01*
Y-317940D01*
X667253D02*
Y-307783D01*
X669792D01*
X672331Y-310322D01*
Y-317940D01*
Y-310322D01*
X674870Y-307783D01*
X677410Y-310322D01*
Y-317940D01*
X580921Y-335724D02*
X583460Y-333185D01*
X588538D01*
X591078Y-335724D01*
Y-345881D01*
X588538Y-348420D01*
X583460D01*
X580921Y-345881D01*
Y-335724D01*
X596156Y-348420D02*
Y-345881D01*
X598695D01*
Y-348420D01*
X596156D01*
X608852Y-335724D02*
X611391Y-333185D01*
X616469D01*
X619008Y-335724D01*
Y-345881D01*
X616469Y-348420D01*
X611391D01*
X608852Y-345881D01*
Y-335724D01*
X624087Y-348420D02*
X629165D01*
X626626D01*
Y-333185D01*
X624087Y-335724D01*
X646939Y-333185D02*
X636783D01*
Y-340802D01*
X641861Y-338263D01*
X644400D01*
X646939Y-340802D01*
Y-345881D01*
X644400Y-348420D01*
X639322D01*
X636783Y-345881D01*
X652018Y-348420D02*
Y-338263D01*
X654557D01*
X657096Y-340802D01*
Y-348420D01*
Y-340802D01*
X659635Y-338263D01*
X662175Y-340802D01*
Y-348420D01*
X667253D02*
Y-338263D01*
X669792D01*
X672331Y-340802D01*
Y-348420D01*
Y-340802D01*
X674870Y-338263D01*
X677410Y-340802D01*
Y-348420D01*
X580921Y-378900D02*
X585999D01*
X583460D01*
Y-363665D01*
X580921Y-366204D01*
X593617Y-378900D02*
Y-376361D01*
X596156D01*
Y-378900D01*
X593617D01*
X606313Y-366204D02*
X608852Y-363665D01*
X613930D01*
X616469Y-366204D01*
Y-376361D01*
X613930Y-378900D01*
X608852D01*
X606313Y-376361D01*
Y-366204D01*
X631704Y-363665D02*
X626626Y-366204D01*
X621548Y-371283D01*
Y-376361D01*
X624087Y-378900D01*
X629165D01*
X631704Y-376361D01*
Y-373822D01*
X629165Y-371283D01*
X621548D01*
X646939Y-363665D02*
X636783D01*
Y-371283D01*
X641861Y-368743D01*
X644400D01*
X646939Y-371283D01*
Y-376361D01*
X644400Y-378900D01*
X639322D01*
X636783Y-376361D01*
X652018Y-378900D02*
Y-368743D01*
X654557D01*
X657096Y-371283D01*
Y-378900D01*
Y-371283D01*
X659635Y-368743D01*
X662175Y-371283D01*
Y-378900D01*
X667253D02*
Y-368743D01*
X669792D01*
X672331Y-371283D01*
Y-378900D01*
Y-371283D01*
X674870Y-368743D01*
X677410Y-371283D01*
Y-378900D01*
X580921Y-396684D02*
X583460Y-394145D01*
X588538D01*
X591078Y-396684D01*
Y-406841D01*
X588538Y-409380D01*
X583460D01*
X580921Y-406841D01*
Y-396684D01*
X596156Y-409380D02*
Y-406841D01*
X598695D01*
Y-409380D01*
X596156D01*
X608852Y-396684D02*
X611391Y-394145D01*
X616469D01*
X619008Y-396684D01*
Y-406841D01*
X616469Y-409380D01*
X611391D01*
X608852Y-406841D01*
Y-396684D01*
X624087Y-409380D02*
X629165D01*
X626626D01*
Y-394145D01*
X624087Y-396684D01*
X646939Y-394145D02*
X636783D01*
Y-401763D01*
X641861Y-399223D01*
X644400D01*
X646939Y-401763D01*
Y-406841D01*
X644400Y-409380D01*
X639322D01*
X636783Y-406841D01*
X652018Y-409380D02*
Y-399223D01*
X654557D01*
X657096Y-401763D01*
Y-409380D01*
Y-401763D01*
X659635Y-399223D01*
X662175Y-401763D01*
Y-409380D01*
X667253D02*
Y-399223D01*
X669792D01*
X672331Y-401763D01*
Y-409380D01*
Y-401763D01*
X674870Y-399223D01*
X677410Y-401763D01*
Y-409380D01*
X580921Y-427164D02*
X583460Y-424625D01*
X588538D01*
X591078Y-427164D01*
Y-437321D01*
X588538Y-439860D01*
X583460D01*
X580921Y-437321D01*
Y-427164D01*
X596156Y-439860D02*
Y-437321D01*
X598695D01*
Y-439860D01*
X596156D01*
X619008D02*
X608852D01*
X619008Y-429703D01*
Y-427164D01*
X616469Y-424625D01*
X611391D01*
X608852Y-427164D01*
X624087Y-439860D02*
X629165D01*
X626626D01*
Y-424625D01*
X624087Y-427164D01*
X636783D02*
X639322Y-424625D01*
X644400D01*
X646939Y-427164D01*
Y-437321D01*
X644400Y-439860D01*
X639322D01*
X636783Y-437321D01*
Y-427164D01*
X652018Y-439860D02*
Y-429703D01*
X654557D01*
X657096Y-432243D01*
Y-439860D01*
Y-432243D01*
X659635Y-429703D01*
X662175Y-432243D01*
Y-439860D01*
X667253D02*
Y-429703D01*
X669792D01*
X672331Y-432243D01*
Y-439860D01*
Y-432243D01*
X674870Y-429703D01*
X677410Y-432243D01*
Y-439860D01*
X580921Y-457644D02*
X583460Y-455105D01*
X588538D01*
X591078Y-457644D01*
Y-467801D01*
X588538Y-470340D01*
X583460D01*
X580921Y-467801D01*
Y-457644D01*
X596156Y-470340D02*
Y-467801D01*
X598695D01*
Y-470340D01*
X596156D01*
X608852Y-457644D02*
X611391Y-455105D01*
X616469D01*
X619008Y-457644D01*
Y-467801D01*
X616469Y-470340D01*
X611391D01*
X608852Y-467801D01*
Y-457644D01*
X624087D02*
X626626Y-455105D01*
X631704D01*
X634244Y-457644D01*
Y-460183D01*
X631704Y-462723D01*
X629165D01*
X631704D01*
X634244Y-465262D01*
Y-467801D01*
X631704Y-470340D01*
X626626D01*
X624087Y-467801D01*
X649479Y-455105D02*
X639322D01*
Y-462723D01*
X644400Y-460183D01*
X646939D01*
X649479Y-462723D01*
Y-467801D01*
X646939Y-470340D01*
X641861D01*
X639322Y-467801D01*
X654557Y-470340D02*
Y-460183D01*
X657096D01*
X659635Y-462723D01*
Y-470340D01*
Y-462723D01*
X662175Y-460183D01*
X664714Y-462723D01*
Y-470340D01*
X669792D02*
Y-460183D01*
X672331D01*
X674870Y-462723D01*
Y-470340D01*
Y-462723D01*
X677410Y-460183D01*
X679949Y-462723D01*
Y-470340D01*
X580921Y-488124D02*
X583460Y-485585D01*
X588538D01*
X591078Y-488124D01*
Y-498281D01*
X588538Y-500820D01*
X583460D01*
X580921Y-498281D01*
Y-488124D01*
X596156Y-500820D02*
Y-498281D01*
X598695D01*
Y-500820D01*
X596156D01*
X608852Y-488124D02*
X611391Y-485585D01*
X616469D01*
X619008Y-488124D01*
Y-498281D01*
X616469Y-500820D01*
X611391D01*
X608852Y-498281D01*
Y-488124D01*
X624087D02*
X626626Y-485585D01*
X631704D01*
X634244Y-488124D01*
Y-490663D01*
X631704Y-493203D01*
X629165D01*
X631704D01*
X634244Y-495742D01*
Y-498281D01*
X631704Y-500820D01*
X626626D01*
X624087Y-498281D01*
X639322Y-488124D02*
X641861Y-485585D01*
X646939D01*
X649479Y-488124D01*
Y-498281D01*
X646939Y-500820D01*
X641861D01*
X639322Y-498281D01*
Y-488124D01*
X654557Y-500820D02*
Y-490663D01*
X657096D01*
X659635Y-493203D01*
Y-500820D01*
Y-493203D01*
X662175Y-490663D01*
X664714Y-493203D01*
Y-500820D01*
X669792D02*
Y-490663D01*
X672331D01*
X674870Y-493203D01*
Y-500820D01*
Y-493203D01*
X677410Y-490663D01*
X679949Y-493203D01*
Y-500820D01*
X580921Y-180785D02*
X591078D01*
X585999D01*
Y-196020D01*
X596156Y-180785D02*
Y-196020D01*
Y-188403D01*
X598695Y-185863D01*
X603773D01*
X606313Y-188403D01*
Y-196020D01*
X611391D02*
X616469D01*
X613930D01*
Y-185863D01*
X611391D01*
X634244D02*
X626626D01*
X624087Y-188403D01*
Y-193481D01*
X626626Y-196020D01*
X634244D01*
X639322D02*
Y-180785D01*
Y-190942D02*
X646939Y-185863D01*
X639322Y-190942D02*
X646939Y-196020D01*
X654557D02*
Y-185863D01*
X662175D01*
X664714Y-188403D01*
Y-196020D01*
X677410D02*
X672331D01*
X669792Y-193481D01*
Y-188403D01*
X672331Y-185863D01*
X677410D01*
X679949Y-188403D01*
Y-190942D01*
X669792D01*
X685027Y-196020D02*
X692645D01*
X695184Y-193481D01*
X692645Y-190942D01*
X687566D01*
X685027Y-188403D01*
X687566Y-185863D01*
X695184D01*
X700262Y-196020D02*
X707880D01*
X710419Y-193481D01*
X707880Y-190942D01*
X702801D01*
X700262Y-188403D01*
X702801Y-185863D01*
X710419D01*
X372697Y-244284D02*
X370158Y-241745D01*
X365079D01*
X362540Y-244284D01*
Y-246823D01*
X365079Y-249363D01*
X370158D01*
X372697Y-251902D01*
Y-254441D01*
X370158Y-256980D01*
X365079D01*
X362540Y-254441D01*
X380314Y-256980D02*
X385393D01*
X387932Y-254441D01*
Y-249363D01*
X385393Y-246823D01*
X380314D01*
X377775Y-249363D01*
Y-254441D01*
X380314Y-256980D01*
X393010D02*
X398088D01*
X395549D01*
Y-241745D01*
X393010D01*
X415863D02*
Y-256980D01*
X408245D01*
X405706Y-254441D01*
Y-249363D01*
X408245Y-246823D01*
X415863D01*
X428559Y-256980D02*
X423480D01*
X420941Y-254441D01*
Y-249363D01*
X423480Y-246823D01*
X428559D01*
X431098Y-249363D01*
Y-251902D01*
X420941D01*
X436176Y-246823D02*
Y-256980D01*
Y-251902D01*
X438715Y-249363D01*
X441255Y-246823D01*
X443794D01*
X466646Y-256980D02*
Y-241745D01*
X474264D01*
X476803Y-244284D01*
Y-249363D01*
X474264Y-251902D01*
X466646D01*
X471725D02*
X476803Y-256980D01*
X489499D02*
X484421D01*
X481881Y-254441D01*
Y-249363D01*
X484421Y-246823D01*
X489499D01*
X492038Y-249363D01*
Y-251902D01*
X481881D01*
X497117Y-256980D02*
X504734D01*
X507273Y-254441D01*
X504734Y-251902D01*
X499656D01*
X497117Y-249363D01*
X499656Y-246823D01*
X507273D01*
X512351Y-256980D02*
X517430D01*
X514891D01*
Y-246823D01*
X512351D01*
X525047Y-256980D02*
X532665D01*
X535204Y-254441D01*
X532665Y-251902D01*
X527587D01*
X525047Y-249363D01*
X527587Y-246823D01*
X535204D01*
X542822Y-244284D02*
Y-246823D01*
X540283D01*
X545361D01*
X542822D01*
Y-254441D01*
X545361Y-256980D01*
X372697Y-274764D02*
X370158Y-272225D01*
X365079D01*
X362540Y-274764D01*
Y-284921D01*
X365079Y-287460D01*
X370158D01*
X372697Y-284921D01*
X387932Y-272225D02*
X377775D01*
Y-279842D01*
X382853D01*
X377775D01*
Y-287460D01*
X393010Y-279842D02*
X403167D01*
X408245Y-274764D02*
X410784Y-272225D01*
X415863D01*
X418402Y-274764D01*
Y-284921D01*
X415863Y-287460D01*
X410784D01*
X408245Y-284921D01*
Y-274764D01*
X423480D02*
X426020Y-272225D01*
X431098D01*
X433637Y-274764D01*
Y-284921D01*
X431098Y-287460D01*
X426020D01*
X423480Y-284921D01*
Y-274764D01*
X446333Y-287460D02*
Y-272225D01*
X438715Y-279842D01*
X448872D01*
X362540Y-317940D02*
Y-302705D01*
X370158D01*
X372697Y-305244D01*
Y-310322D01*
X370158Y-312862D01*
X362540D01*
X377775Y-317940D02*
Y-302705D01*
X385393D01*
X387932Y-305244D01*
Y-310322D01*
X385393Y-312862D01*
X377775D01*
X393010Y-310322D02*
X403167D01*
X408245Y-305244D02*
X410784Y-302705D01*
X415863D01*
X418402Y-305244D01*
Y-315401D01*
X415863Y-317940D01*
X410784D01*
X408245Y-315401D01*
Y-305244D01*
X433637Y-317940D02*
X423480D01*
X433637Y-307783D01*
Y-305244D01*
X431098Y-302705D01*
X426020D01*
X423480Y-305244D01*
X438715D02*
X441255Y-302705D01*
X446333D01*
X448872Y-305244D01*
Y-307783D01*
X446333Y-310322D01*
X443794D01*
X446333D01*
X448872Y-312862D01*
Y-315401D01*
X446333Y-317940D01*
X441255D01*
X438715Y-315401D01*
X372697Y-363665D02*
X362540D01*
Y-371283D01*
X367618D01*
X362540D01*
Y-378900D01*
X377775D02*
Y-363665D01*
X385393D01*
X387932Y-366204D01*
Y-371283D01*
X385393Y-373822D01*
X377775D01*
X382853D02*
X387932Y-378900D01*
X393010Y-371283D02*
X403167D01*
X415863Y-378900D02*
Y-363665D01*
X408245Y-371283D01*
X418402D01*
X362540Y-439860D02*
Y-424625D01*
X370158D01*
X372697Y-427164D01*
Y-432243D01*
X370158Y-434782D01*
X362540D01*
X377775Y-439860D02*
Y-424625D01*
X385393D01*
X387932Y-427164D01*
Y-432243D01*
X385393Y-434782D01*
X377775D01*
X393010Y-432243D02*
X403167D01*
X408245Y-427164D02*
X410784Y-424625D01*
X415863D01*
X418402Y-427164D01*
Y-437321D01*
X415863Y-439860D01*
X410784D01*
X408245Y-437321D01*
Y-427164D01*
X433637Y-439860D02*
X423480D01*
X433637Y-429703D01*
Y-427164D01*
X431098Y-424625D01*
X426020D01*
X423480Y-427164D01*
X438715D02*
X441255Y-424625D01*
X446333D01*
X448872Y-427164D01*
Y-429703D01*
X446333Y-432243D01*
X443794D01*
X446333D01*
X448872Y-434782D01*
Y-437321D01*
X446333Y-439860D01*
X441255D01*
X438715Y-437321D01*
X372697Y-457644D02*
X370158Y-455105D01*
X365079D01*
X362540Y-457644D01*
Y-467801D01*
X365079Y-470340D01*
X370158D01*
X372697Y-467801D01*
X387932Y-455105D02*
X377775D01*
Y-462723D01*
X382853D01*
X377775D01*
Y-470340D01*
X393010Y-462723D02*
X403167D01*
X408245Y-457644D02*
X410784Y-455105D01*
X415863D01*
X418402Y-457644D01*
Y-467801D01*
X415863Y-470340D01*
X410784D01*
X408245Y-467801D01*
Y-457644D01*
X423480D02*
X426020Y-455105D01*
X431098D01*
X433637Y-457644D01*
Y-467801D01*
X431098Y-470340D01*
X426020D01*
X423480Y-467801D01*
Y-457644D01*
X446333Y-470340D02*
Y-455105D01*
X438715Y-462723D01*
X448872D01*
X372697Y-488124D02*
X370158Y-485585D01*
X365079D01*
X362540Y-488124D01*
Y-490663D01*
X365079Y-493203D01*
X370158D01*
X372697Y-495742D01*
Y-498281D01*
X370158Y-500820D01*
X365079D01*
X362540Y-498281D01*
X380314Y-500820D02*
X385393D01*
X387932Y-498281D01*
Y-493203D01*
X385393Y-490663D01*
X380314D01*
X377775Y-493203D01*
Y-498281D01*
X380314Y-500820D01*
X393010D02*
X398088D01*
X395549D01*
Y-485585D01*
X393010D01*
X415863D02*
Y-500820D01*
X408245D01*
X405706Y-498281D01*
Y-493203D01*
X408245Y-490663D01*
X415863D01*
X428559Y-500820D02*
X423480D01*
X420941Y-498281D01*
Y-493203D01*
X423480Y-490663D01*
X428559D01*
X431098Y-493203D01*
Y-495742D01*
X420941D01*
X436176Y-490663D02*
Y-500820D01*
Y-495742D01*
X438715Y-493203D01*
X441255Y-490663D01*
X443794D01*
X466646Y-500820D02*
Y-485585D01*
X474264D01*
X476803Y-488124D01*
Y-493203D01*
X474264Y-495742D01*
X466646D01*
X471725D02*
X476803Y-500820D01*
X489499D02*
X484421D01*
X481881Y-498281D01*
Y-493203D01*
X484421Y-490663D01*
X489499D01*
X492038Y-493203D01*
Y-495742D01*
X481881D01*
X497117Y-500820D02*
X504734D01*
X507273Y-498281D01*
X504734Y-495742D01*
X499656D01*
X497117Y-493203D01*
X499656Y-490663D01*
X507273D01*
X512351Y-500820D02*
X517430D01*
X514891D01*
Y-490663D01*
X512351D01*
X525047Y-500820D02*
X532665D01*
X535204Y-498281D01*
X532665Y-495742D01*
X527587D01*
X525047Y-493203D01*
X527587Y-490663D01*
X535204D01*
X542822Y-488124D02*
Y-490663D01*
X540283D01*
X545361D01*
X542822D01*
Y-498281D01*
X545361Y-500820D01*
X362540Y-196020D02*
Y-180785D01*
X367618Y-185863D01*
X372697Y-180785D01*
Y-196020D01*
X380314Y-185863D02*
X385393D01*
X387932Y-188403D01*
Y-196020D01*
X380314D01*
X377775Y-193481D01*
X380314Y-190942D01*
X387932D01*
X395549Y-183324D02*
Y-185863D01*
X393010D01*
X398088D01*
X395549D01*
Y-193481D01*
X398088Y-196020D01*
X413324D02*
X408245D01*
X405706Y-193481D01*
Y-188403D01*
X408245Y-185863D01*
X413324D01*
X415863Y-188403D01*
Y-190942D01*
X405706D01*
X420941Y-185863D02*
Y-196020D01*
Y-190942D01*
X423480Y-188403D01*
X426019Y-185863D01*
X428559D01*
X436176Y-196020D02*
X441255D01*
X438715D01*
Y-185863D01*
X436176D01*
X451411D02*
X456490D01*
X459029Y-188403D01*
Y-196020D01*
X451411D01*
X448872Y-193481D01*
X451411Y-190942D01*
X459029D01*
X464107Y-196020D02*
X469185D01*
X466646D01*
Y-180785D01*
X464107D01*
X126385Y-211265D02*
X136542D01*
X131463D01*
Y-226500D01*
X144159D02*
X149237D01*
X151777Y-223961D01*
Y-218883D01*
X149237Y-216343D01*
X144159D01*
X141620Y-218883D01*
Y-223961D01*
X144159Y-226500D01*
X156855Y-231578D02*
Y-216343D01*
X164473D01*
X167012Y-218883D01*
Y-223961D01*
X164473Y-226500D01*
X156855D01*
X194943Y-211265D02*
X189864D01*
X187325Y-213804D01*
Y-223961D01*
X189864Y-226500D01*
X194943D01*
X197482Y-223961D01*
Y-213804D01*
X194943Y-211265D01*
X202560Y-216343D02*
X207639Y-226500D01*
X212717Y-216343D01*
X225413Y-226500D02*
X220334D01*
X217795Y-223961D01*
Y-218883D01*
X220334Y-216343D01*
X225413D01*
X227952Y-218883D01*
Y-221422D01*
X217795D01*
X233030Y-216343D02*
Y-226500D01*
Y-221422D01*
X235570Y-218883D01*
X238109Y-216343D01*
X240648D01*
X248265Y-226500D02*
X253344D01*
X250805D01*
Y-211265D01*
X248265D01*
X263500Y-216343D02*
X268579D01*
X271118Y-218883D01*
Y-226500D01*
X263500D01*
X260961Y-223961D01*
X263500Y-221422D01*
X271118D01*
X276196Y-216343D02*
Y-223961D01*
X278736Y-226500D01*
X286353D01*
Y-229039D01*
X283814Y-231578D01*
X281275D01*
X286353Y-226500D02*
Y-216343D01*
X126385Y-241745D02*
X136542D01*
X131463D01*
Y-256980D01*
X144159D02*
X149237D01*
X151777Y-254441D01*
Y-249363D01*
X149237Y-246823D01*
X144159D01*
X141620Y-249363D01*
Y-254441D01*
X144159Y-256980D01*
X156855Y-262058D02*
Y-246823D01*
X164473D01*
X167012Y-249363D01*
Y-254441D01*
X164473Y-256980D01*
X156855D01*
X197482Y-244284D02*
X194943Y-241745D01*
X189864D01*
X187325Y-244284D01*
Y-246823D01*
X189864Y-249363D01*
X194943D01*
X197482Y-251902D01*
Y-254441D01*
X194943Y-256980D01*
X189864D01*
X187325Y-254441D01*
X205099Y-256980D02*
X210178D01*
X212717Y-254441D01*
Y-249363D01*
X210178Y-246823D01*
X205099D01*
X202560Y-249363D01*
Y-254441D01*
X205099Y-256980D01*
X217795D02*
X222874D01*
X220334D01*
Y-241745D01*
X217795D01*
X240648D02*
Y-256980D01*
X233030D01*
X230491Y-254441D01*
Y-249363D01*
X233030Y-246823D01*
X240648D01*
X253344Y-256980D02*
X248265D01*
X245726Y-254441D01*
Y-249363D01*
X248265Y-246823D01*
X253344D01*
X255883Y-249363D01*
Y-251902D01*
X245726D01*
X260961Y-246823D02*
Y-256980D01*
Y-251902D01*
X263500Y-249363D01*
X266040Y-246823D01*
X268579D01*
X126385Y-272225D02*
X136542D01*
X131463D01*
Y-287460D01*
X144159D02*
X149237D01*
X151777Y-284921D01*
Y-279842D01*
X149237Y-277303D01*
X144159D01*
X141620Y-279842D01*
Y-284921D01*
X144159Y-287460D01*
X156855Y-292538D02*
Y-277303D01*
X164473D01*
X167012Y-279842D01*
Y-284921D01*
X164473Y-287460D01*
X156855D01*
X187325Y-272225D02*
Y-287460D01*
X197482D01*
X205099Y-277303D02*
X210178D01*
X212717Y-279842D01*
Y-287460D01*
X205099D01*
X202560Y-284921D01*
X205099Y-282382D01*
X212717D01*
X217795Y-277303D02*
Y-284921D01*
X220334Y-287460D01*
X227952D01*
Y-289999D01*
X225413Y-292538D01*
X222874D01*
X227952Y-287460D02*
Y-277303D01*
X240648Y-287460D02*
X235570D01*
X233030Y-284921D01*
Y-279842D01*
X235570Y-277303D01*
X240648D01*
X243187Y-279842D01*
Y-282382D01*
X233030D01*
X248265Y-277303D02*
Y-287460D01*
Y-282382D01*
X250805Y-279842D01*
X253344Y-277303D01*
X255883D01*
X278736Y-287460D02*
X283814D01*
X281275D01*
Y-272225D01*
X278736Y-274764D01*
X126385Y-302705D02*
X136542D01*
Y-305244D01*
X126385Y-315401D01*
Y-317940D01*
X151777Y-302705D02*
X146698Y-305244D01*
X141620Y-310322D01*
Y-315401D01*
X144159Y-317940D01*
X149237D01*
X151777Y-315401D01*
Y-312862D01*
X149237Y-310322D01*
X141620D01*
X167012Y-317940D02*
X156855D01*
X167012Y-307783D01*
Y-305244D01*
X164473Y-302705D01*
X159394D01*
X156855Y-305244D01*
X172090D02*
X174629Y-302705D01*
X179708D01*
X182247Y-305244D01*
Y-307783D01*
X179708Y-310322D01*
X182247Y-312862D01*
Y-315401D01*
X179708Y-317940D01*
X174629D01*
X172090Y-315401D01*
Y-312862D01*
X174629Y-310322D01*
X172090Y-307783D01*
Y-305244D01*
X174629Y-310322D02*
X179708D01*
X187325D02*
X197482D01*
X202560Y-317940D02*
X207639D01*
X205099D01*
Y-302705D01*
X202560Y-305244D01*
X136542Y-335724D02*
X134002Y-333185D01*
X128924D01*
X126385Y-335724D01*
Y-345881D01*
X128924Y-348420D01*
X134002D01*
X136542Y-345881D01*
Y-340802D01*
X131463D01*
X141620Y-348420D02*
Y-333185D01*
X151777Y-348420D01*
Y-333185D01*
X156855D02*
Y-348420D01*
X164473D01*
X167012Y-345881D01*
Y-335724D01*
X164473Y-333185D01*
X156855D01*
X172090Y-348420D02*
X177169D01*
X174629D01*
Y-333185D01*
X172090Y-335724D01*
X126385Y-363665D02*
Y-378900D01*
X134002D01*
X136542Y-376361D01*
Y-366204D01*
X134002Y-363665D01*
X126385D01*
X141620Y-378900D02*
X146698D01*
X144159D01*
Y-368743D01*
X141620D01*
X161933Y-378900D02*
X156855D01*
X154316Y-376361D01*
Y-371283D01*
X156855Y-368743D01*
X161933D01*
X164473Y-371283D01*
Y-373822D01*
X154316D01*
X169551Y-378900D02*
X174629D01*
X172090D01*
Y-363665D01*
X169551D01*
X189864Y-378900D02*
X184786D01*
X182247Y-376361D01*
Y-371283D01*
X184786Y-368743D01*
X189864D01*
X192404Y-371283D01*
Y-373822D01*
X182247D01*
X207639Y-368743D02*
X200021D01*
X197482Y-371283D01*
Y-376361D01*
X200021Y-378900D01*
X207639D01*
X215256Y-366204D02*
Y-368743D01*
X212717D01*
X217795D01*
X215256D01*
Y-376361D01*
X217795Y-378900D01*
X225413Y-368743D02*
Y-378900D01*
Y-373822D01*
X227952Y-371283D01*
X230491Y-368743D01*
X233030D01*
X240648Y-378900D02*
X245726D01*
X243187D01*
Y-368743D01*
X240648D01*
X263500D02*
X255883D01*
X253344Y-371283D01*
Y-376361D01*
X255883Y-378900D01*
X263500D01*
X283814D02*
X288892D01*
X286353D01*
Y-363665D01*
X283814Y-366204D01*
X136542Y-396684D02*
X134002Y-394145D01*
X128924D01*
X126385Y-396684D01*
Y-399223D01*
X128924Y-401763D01*
X134002D01*
X136542Y-404302D01*
Y-406841D01*
X134002Y-409380D01*
X128924D01*
X126385Y-406841D01*
X141620Y-409380D02*
X146698D01*
X144159D01*
Y-399223D01*
X141620D01*
X159394Y-414458D02*
X161933D01*
X164473Y-411919D01*
Y-399223D01*
X156855D01*
X154316Y-401763D01*
Y-406841D01*
X156855Y-409380D01*
X164473D01*
X169551D02*
Y-399223D01*
X177169D01*
X179708Y-401763D01*
Y-409380D01*
X187325Y-399223D02*
X192404D01*
X194943Y-401763D01*
Y-409380D01*
X187325D01*
X184786Y-406841D01*
X187325Y-404302D01*
X194943D01*
X200021Y-409380D02*
X205099D01*
X202560D01*
Y-394145D01*
X200021D01*
X126385Y-424625D02*
X136542D01*
Y-427164D01*
X126385Y-437321D01*
Y-439860D01*
X151777Y-424625D02*
X146698Y-427164D01*
X141620Y-432243D01*
Y-437321D01*
X144159Y-439860D01*
X149237D01*
X151777Y-437321D01*
Y-434782D01*
X149237Y-432243D01*
X141620D01*
X167012Y-439860D02*
X156855D01*
X167012Y-429703D01*
Y-427164D01*
X164473Y-424625D01*
X159394D01*
X156855Y-427164D01*
X172090D02*
X174629Y-424625D01*
X179708D01*
X182247Y-427164D01*
Y-429703D01*
X179708Y-432243D01*
X182247Y-434782D01*
Y-437321D01*
X179708Y-439860D01*
X174629D01*
X172090Y-437321D01*
Y-434782D01*
X174629Y-432243D01*
X172090Y-429703D01*
Y-427164D01*
X174629Y-432243D02*
X179708D01*
X187325D02*
X197482D01*
X212717Y-439860D02*
X202560D01*
X212717Y-429703D01*
Y-427164D01*
X210178Y-424625D01*
X205099D01*
X202560Y-427164D01*
X126385Y-455105D02*
Y-470340D01*
X134002D01*
X136542Y-467801D01*
Y-465262D01*
X134002Y-462723D01*
X126385D01*
X134002D01*
X136542Y-460183D01*
Y-457644D01*
X134002Y-455105D01*
X126385D01*
X144159Y-470340D02*
X149237D01*
X151777Y-467801D01*
Y-462723D01*
X149237Y-460183D01*
X144159D01*
X141620Y-462723D01*
Y-467801D01*
X144159Y-470340D01*
X159394Y-457644D02*
Y-460183D01*
X156855D01*
X161933D01*
X159394D01*
Y-467801D01*
X161933Y-470340D01*
X172090Y-457644D02*
Y-460183D01*
X169551D01*
X174629D01*
X172090D01*
Y-467801D01*
X174629Y-470340D01*
X184786D02*
X189864D01*
X192404Y-467801D01*
Y-462723D01*
X189864Y-460183D01*
X184786D01*
X182247Y-462723D01*
Y-467801D01*
X184786Y-470340D01*
X197482D02*
Y-460183D01*
X200021D01*
X202560Y-462723D01*
Y-470340D01*
Y-462723D01*
X205099Y-460183D01*
X207639Y-462723D01*
Y-470340D01*
X227952Y-455105D02*
Y-470340D01*
X238109D01*
X245726Y-460183D02*
X250805D01*
X253344Y-462723D01*
Y-470340D01*
X245726D01*
X243187Y-467801D01*
X245726Y-465262D01*
X253344D01*
X258422Y-460183D02*
Y-467801D01*
X260961Y-470340D01*
X268579D01*
Y-472879D01*
X266040Y-475418D01*
X263500D01*
X268579Y-470340D02*
Y-460183D01*
X281275Y-470340D02*
X276196D01*
X273657Y-467801D01*
Y-462723D01*
X276196Y-460183D01*
X281275D01*
X283814Y-462723D01*
Y-465262D01*
X273657D01*
X288892Y-460183D02*
Y-470340D01*
Y-465262D01*
X291432Y-462723D01*
X293971Y-460183D01*
X296510D01*
X319363Y-470340D02*
X324441D01*
X321902D01*
Y-455105D01*
X319363Y-457644D01*
X126385Y-485585D02*
Y-500820D01*
X134002D01*
X136542Y-498281D01*
Y-495742D01*
X134002Y-493203D01*
X126385D01*
X134002D01*
X136542Y-490663D01*
Y-488124D01*
X134002Y-485585D01*
X126385D01*
X144159Y-500820D02*
X149237D01*
X151777Y-498281D01*
Y-493203D01*
X149237Y-490663D01*
X144159D01*
X141620Y-493203D01*
Y-498281D01*
X144159Y-500820D01*
X159394Y-488124D02*
Y-490663D01*
X156855D01*
X161933D01*
X159394D01*
Y-498281D01*
X161933Y-500820D01*
X172090Y-488124D02*
Y-490663D01*
X169551D01*
X174629D01*
X172090D01*
Y-498281D01*
X174629Y-500820D01*
X184786D02*
X189864D01*
X192404Y-498281D01*
Y-493203D01*
X189864Y-490663D01*
X184786D01*
X182247Y-493203D01*
Y-498281D01*
X184786Y-500820D01*
X197482D02*
Y-490663D01*
X200021D01*
X202560Y-493203D01*
Y-500820D01*
Y-493203D01*
X205099Y-490663D01*
X207639Y-493203D01*
Y-500820D01*
X238109Y-488124D02*
X235570Y-485585D01*
X230491D01*
X227952Y-488124D01*
Y-490663D01*
X230491Y-493203D01*
X235570D01*
X238109Y-495742D01*
Y-498281D01*
X235570Y-500820D01*
X230491D01*
X227952Y-498281D01*
X245726Y-500820D02*
X250805D01*
X253344Y-498281D01*
Y-493203D01*
X250805Y-490663D01*
X245726D01*
X243187Y-493203D01*
Y-498281D01*
X245726Y-500820D01*
X258422D02*
X263500D01*
X260961D01*
Y-485585D01*
X258422D01*
X281275D02*
Y-500820D01*
X273657D01*
X271118Y-498281D01*
Y-493203D01*
X273657Y-490663D01*
X281275D01*
X293971Y-500820D02*
X288892D01*
X286353Y-498281D01*
Y-493203D01*
X288892Y-490663D01*
X293971D01*
X296510Y-493203D01*
Y-495742D01*
X286353D01*
X301588Y-490663D02*
Y-500820D01*
Y-495742D01*
X304127Y-493203D01*
X306667Y-490663D01*
X309206D01*
X126385Y-516065D02*
Y-531300D01*
X134002D01*
X136542Y-528761D01*
Y-526222D01*
X134002Y-523683D01*
X126385D01*
X134002D01*
X136542Y-521143D01*
Y-518604D01*
X134002Y-516065D01*
X126385D01*
X144159Y-531300D02*
X149237D01*
X151777Y-528761D01*
Y-523683D01*
X149237Y-521143D01*
X144159D01*
X141620Y-523683D01*
Y-528761D01*
X144159Y-531300D01*
X159394Y-518604D02*
Y-521143D01*
X156855D01*
X161933D01*
X159394D01*
Y-528761D01*
X161933Y-531300D01*
X172090Y-518604D02*
Y-521143D01*
X169551D01*
X174629D01*
X172090D01*
Y-528761D01*
X174629Y-531300D01*
X184786D02*
X189864D01*
X192404Y-528761D01*
Y-523683D01*
X189864Y-521143D01*
X184786D01*
X182247Y-523683D01*
Y-528761D01*
X184786Y-531300D01*
X197482D02*
Y-521143D01*
X200021D01*
X202560Y-523683D01*
Y-531300D01*
Y-523683D01*
X205099Y-521143D01*
X207639Y-523683D01*
Y-531300D01*
X235570Y-516065D02*
X230491D01*
X227952Y-518604D01*
Y-528761D01*
X230491Y-531300D01*
X235570D01*
X238109Y-528761D01*
Y-518604D01*
X235570Y-516065D01*
X243187Y-521143D02*
X248265Y-531300D01*
X253344Y-521143D01*
X266040Y-531300D02*
X260961D01*
X258422Y-528761D01*
Y-523683D01*
X260961Y-521143D01*
X266040D01*
X268579Y-523683D01*
Y-526222D01*
X258422D01*
X273657Y-521143D02*
Y-531300D01*
Y-526222D01*
X276196Y-523683D01*
X278736Y-521143D01*
X281275D01*
X288892Y-531300D02*
X293971D01*
X291432D01*
Y-516065D01*
X288892D01*
X304127Y-521143D02*
X309206D01*
X311745Y-523683D01*
Y-531300D01*
X304127D01*
X301588Y-528761D01*
X304127Y-526222D01*
X311745D01*
X316823Y-521143D02*
Y-528761D01*
X319363Y-531300D01*
X326980D01*
Y-533839D01*
X324441Y-536378D01*
X321902D01*
X326980Y-531300D02*
Y-521143D01*
X126385Y-196020D02*
Y-180785D01*
X136542Y-196020D01*
Y-180785D01*
X144159Y-185863D02*
X149237D01*
X151777Y-188403D01*
Y-196020D01*
X144159D01*
X141620Y-193481D01*
X144159Y-190942D01*
X151777D01*
X156855Y-196020D02*
Y-185863D01*
X159394D01*
X161933Y-188403D01*
Y-196020D01*
Y-188403D01*
X164473Y-185863D01*
X167012Y-188403D01*
Y-196020D01*
X179708D02*
X174629D01*
X172090Y-193481D01*
Y-188403D01*
X174629Y-185863D01*
X179708D01*
X182247Y-188403D01*
Y-190942D01*
X172090D01*
X22267Y-287460D02*
X27345D01*
X24806D01*
Y-272225D01*
X22267Y-274764D01*
X32424Y-348420D02*
X22267D01*
X32424Y-338263D01*
Y-335724D01*
X29885Y-333185D01*
X24806D01*
X22267Y-335724D01*
Y-396684D02*
X24806Y-394145D01*
X29885D01*
X32424Y-396684D01*
Y-399223D01*
X29885Y-401763D01*
X27345D01*
X29885D01*
X32424Y-404302D01*
Y-406841D01*
X29885Y-409380D01*
X24806D01*
X22267Y-406841D01*
X29885Y-470340D02*
Y-455105D01*
X22267Y-462723D01*
X32424D01*
X22267Y-180785D02*
Y-196020D01*
X32424D01*
X40041Y-185863D02*
X45120D01*
X47659Y-188403D01*
Y-196020D01*
X40041D01*
X37502Y-193481D01*
X40041Y-190942D01*
X47659D01*
X52737Y-185863D02*
Y-193481D01*
X55276Y-196020D01*
X62894D01*
Y-198559D01*
X60355Y-201098D01*
X57816D01*
X62894Y-196020D02*
Y-185863D01*
X75590Y-196020D02*
X70511D01*
X67972Y-193481D01*
Y-188403D01*
X70511Y-185863D01*
X75590D01*
X78129Y-188403D01*
Y-190942D01*
X67972D01*
X83207Y-185863D02*
Y-196020D01*
Y-190942D01*
X85746Y-188403D01*
X88286Y-185863D01*
X90825D01*
M02*
