G04*
G04 #@! TF.GenerationSoftware,Altium Limited,Altium Designer,26.3.0 (6)*
G04*
G04 Layer_Physical_Order=1*
G04 Layer_Color=255*
%FSLAX44Y44*%
%MOMM*%
G71*
G04*
G04 #@! TF.SameCoordinates,CC5576EB-6972-46C7-92A3-5A6C56D054FB*
G04*
G04*
G04 #@! TF.FilePolarity,Positive*
G04*
G01*
G75*
%ADD10R,4.0000X1.5000*%
%ADD11R,0.7000X0.9000*%
%ADD12R,0.9000X0.7000*%
%ADD13C,0.2000*%
%ADD14C,1.5000*%
%ADD15C,0.1600*%
%ADD16C,0.3500*%
%ADD17C,0.2100*%
%ADD18C,0.2850*%
%ADD19C,0.6000*%
%ADD20C,0.7000*%
G36*
X1051460Y2534664D02*
Y2532100D01*
X1074000D01*
Y2529600D01*
X1076500D01*
Y2519560D01*
X1093882D01*
Y2491440D01*
X1076500D01*
Y2481400D01*
X1074000D01*
Y2478900D01*
X1051460D01*
Y2477336D01*
X1050190Y2476810D01*
X1046000Y2481000D01*
Y2531000D01*
X1050190Y2535190D01*
X1051460Y2534664D01*
D02*
G37*
G36*
X55000Y2530000D02*
Y2480000D01*
X50810Y2475810D01*
X49540Y2476336D01*
Y2477900D01*
X27000D01*
Y2480400D01*
X24500D01*
Y2490440D01*
X6118D01*
Y2518560D01*
X24500D01*
Y2528600D01*
X27000D01*
Y2531100D01*
X49540D01*
Y2533664D01*
X50810Y2534190D01*
X55000Y2530000D01*
D02*
G37*
G36*
X1051460Y2334664D02*
Y2332100D01*
X1074000D01*
Y2329600D01*
X1076500D01*
Y2319560D01*
X1093882D01*
Y2291440D01*
X1076500D01*
Y2281400D01*
X1074000D01*
Y2278900D01*
X1051460D01*
Y2277336D01*
X1050190Y2276810D01*
X1046000Y2281000D01*
Y2331000D01*
X1050190Y2335190D01*
X1051460Y2334664D01*
D02*
G37*
G36*
X55000Y2330000D02*
Y2280000D01*
X50810Y2275810D01*
X49540Y2276336D01*
Y2277900D01*
X27000D01*
Y2280400D01*
X24500D01*
Y2290440D01*
X6118D01*
Y2318560D01*
X24500D01*
Y2328600D01*
X27000D01*
Y2331100D01*
X49540D01*
Y2333664D01*
X50810Y2334190D01*
X55000Y2330000D01*
D02*
G37*
G36*
X1051460Y2134664D02*
Y2132100D01*
X1074000D01*
Y2129600D01*
X1076500D01*
Y2119560D01*
X1093882D01*
Y2091440D01*
X1076500D01*
Y2081400D01*
X1074000D01*
Y2078900D01*
X1051460D01*
Y2077336D01*
X1050190Y2076810D01*
X1046000Y2081000D01*
Y2131000D01*
X1050190Y2135190D01*
X1051460Y2134664D01*
D02*
G37*
G36*
X55000Y2130000D02*
Y2080000D01*
X50810Y2075810D01*
X49540Y2076336D01*
Y2077900D01*
X27000D01*
Y2080400D01*
X24500D01*
Y2090440D01*
X6118D01*
Y2118560D01*
X24500D01*
Y2128600D01*
X27000D01*
Y2131100D01*
X49540D01*
Y2133664D01*
X50810Y2134190D01*
X55000Y2130000D01*
D02*
G37*
G36*
X1051460Y1934664D02*
Y1932101D01*
X1074000D01*
Y1929601D01*
X1076500D01*
Y1919560D01*
X1093882D01*
Y1891440D01*
X1076500D01*
Y1881400D01*
X1074000D01*
Y1878900D01*
X1051460D01*
Y1877336D01*
X1050190Y1876810D01*
X1046000Y1881000D01*
Y1931000D01*
X1050190Y1935190D01*
X1051460Y1934664D01*
D02*
G37*
G36*
X55000Y1930000D02*
Y1880000D01*
X50810Y1875810D01*
X49540Y1876336D01*
Y1877900D01*
X27000D01*
Y1880400D01*
X24500D01*
Y1890440D01*
X6118D01*
Y1918560D01*
X24500D01*
Y1928600D01*
X27000D01*
Y1931100D01*
X49540D01*
Y1933664D01*
X50810Y1934190D01*
X55000Y1930000D01*
D02*
G37*
G36*
X1093882Y1791440D02*
X1076500D01*
Y1781400D01*
Y1771360D01*
X1093882D01*
Y1764500D01*
X1052000D01*
Y1748384D01*
X1038558Y1734942D01*
X1038116Y1734280D01*
X1037961Y1733500D01*
Y1708489D01*
X1026652D01*
X1026651Y1708489D01*
X62039D01*
Y1734500D01*
X61884Y1735280D01*
X61442Y1735942D01*
X61442Y1735942D01*
X49000Y1748384D01*
Y1764500D01*
X6118D01*
Y1770360D01*
X24500D01*
Y1780400D01*
Y1790440D01*
X6118D01*
Y1793882D01*
X1093882D01*
Y1791440D01*
D02*
G37*
G36*
X57961Y1733656D02*
Y1707387D01*
X58116Y1706607D01*
X58558Y1705945D01*
X58609Y1705895D01*
Y1704106D01*
X58558Y1704055D01*
X58116Y1703393D01*
X57961Y1702613D01*
Y1676345D01*
X46116Y1664500D01*
X6118D01*
Y1670360D01*
X24500D01*
Y1680400D01*
Y1690440D01*
X6118D01*
Y1718560D01*
X24500D01*
Y1728600D01*
Y1738640D01*
X6118D01*
Y1745500D01*
X46116D01*
X57961Y1733656D01*
D02*
G37*
G36*
X1093882Y1739640D02*
X1076500D01*
Y1729600D01*
Y1719560D01*
X1093882D01*
Y1691440D01*
X1076500D01*
Y1681400D01*
Y1671360D01*
X1093882D01*
Y1664500D01*
X1054884D01*
X1042039Y1677345D01*
Y1702613D01*
X1041884Y1703393D01*
X1041442Y1704055D01*
X1041442Y1704055D01*
X1041344Y1704153D01*
X1040513Y1705000D01*
X1041344Y1705848D01*
X1041442Y1705945D01*
X1041442Y1705945D01*
X1041884Y1706607D01*
X1042039Y1707387D01*
Y1732655D01*
X1054884Y1745500D01*
X1093882D01*
Y1739640D01*
D02*
G37*
G36*
X1025450Y1701511D02*
X1037961D01*
Y1676500D01*
X1038116Y1675720D01*
X1038558Y1675058D01*
X1052000Y1661616D01*
Y1645500D01*
X1093882D01*
Y1639640D01*
X1076500D01*
Y1629600D01*
Y1619560D01*
X1093882D01*
Y1606118D01*
X6118D01*
Y1618560D01*
X24500D01*
Y1628600D01*
Y1638640D01*
X6118D01*
Y1645500D01*
X49000D01*
Y1661616D01*
X61442Y1674058D01*
X61442Y1674058D01*
X61884Y1674720D01*
X62039Y1675500D01*
Y1701511D01*
X1025450D01*
X1025450Y1701511D01*
D02*
G37*
G36*
X1051460Y1534664D02*
Y1532100D01*
X1074000D01*
Y1529600D01*
X1076500D01*
Y1519560D01*
X1093882D01*
Y1491440D01*
X1076500D01*
Y1481400D01*
X1074000D01*
Y1478900D01*
X1051460D01*
Y1477336D01*
X1050190Y1476810D01*
X1046000Y1481000D01*
Y1531000D01*
X1050190Y1535190D01*
X1051460Y1534664D01*
D02*
G37*
G36*
X55000Y1530000D02*
Y1480000D01*
X50810Y1475810D01*
X49540Y1476336D01*
Y1477900D01*
X27000D01*
Y1480400D01*
X24500D01*
Y1490440D01*
X6118D01*
Y1518560D01*
X24500D01*
Y1528600D01*
X27000D01*
Y1531100D01*
X49540D01*
Y1533664D01*
X50810Y1534190D01*
X55000Y1530000D01*
D02*
G37*
G36*
X1093882Y1361440D02*
X1076500D01*
Y1351400D01*
X1074000D01*
Y1348900D01*
X1051460D01*
Y1346000D01*
X1030000D01*
Y1393883D01*
X1093882D01*
Y1361440D01*
D02*
G37*
G36*
X70000Y1345000D02*
X48540D01*
Y1347900D01*
X26000D01*
Y1350400D01*
X23500D01*
Y1360440D01*
X6118D01*
Y1393883D01*
X70000D01*
Y1345000D01*
D02*
G37*
G36*
X1051460Y1302101D02*
X1074000D01*
Y1299601D01*
X1076500D01*
Y1289560D01*
X1093882D01*
Y1256118D01*
X1030000D01*
Y1306000D01*
X1051460D01*
Y1302101D01*
D02*
G37*
G36*
X70000Y1256118D02*
X6118D01*
Y1288560D01*
X23500D01*
Y1298600D01*
X26000D01*
Y1301100D01*
X48540D01*
Y1305000D01*
X70000D01*
Y1256118D01*
D02*
G37*
G36*
X1093882Y1211440D02*
X1076500D01*
Y1201400D01*
X1074000D01*
Y1198900D01*
X1051460D01*
Y1196000D01*
X1030000D01*
Y1243883D01*
X1093882D01*
Y1211440D01*
D02*
G37*
G36*
X70000Y1195000D02*
X48540D01*
Y1197900D01*
X26000D01*
Y1200400D01*
X23500D01*
Y1210440D01*
X6118D01*
Y1243883D01*
X70000D01*
Y1195000D01*
D02*
G37*
G36*
X1051460Y1152100D02*
X1074000D01*
Y1149600D01*
X1076500D01*
Y1139560D01*
X1093882D01*
Y1106118D01*
X1030000D01*
Y1156000D01*
X1051460D01*
Y1152100D01*
D02*
G37*
G36*
X70000Y1106118D02*
X6118D01*
Y1138560D01*
X23500D01*
Y1148600D01*
X26000D01*
Y1151100D01*
X48540D01*
Y1155000D01*
X70000D01*
Y1106118D01*
D02*
G37*
G36*
X1093882Y1061440D02*
X1076500D01*
Y1051400D01*
X1074000D01*
Y1048900D01*
X1051460D01*
Y1046000D01*
X1030000D01*
Y1093883D01*
X1093882D01*
Y1061440D01*
D02*
G37*
G36*
X70000Y1045000D02*
X48540D01*
Y1047900D01*
X26000D01*
Y1050400D01*
X23500D01*
Y1060440D01*
X6118D01*
Y1093883D01*
X70000D01*
Y1045000D01*
D02*
G37*
G36*
X1051460Y1002100D02*
X1074000D01*
Y999600D01*
X1076500D01*
Y989560D01*
X1093882D01*
Y956117D01*
X1030000D01*
Y1006000D01*
X1051460D01*
Y1002100D01*
D02*
G37*
G36*
X70000Y956117D02*
X6118D01*
Y988560D01*
X23500D01*
Y998600D01*
X26000D01*
Y1001100D01*
X48540D01*
Y1005000D01*
X70000D01*
Y956117D01*
D02*
G37*
G36*
X1093882Y886440D02*
X1076500D01*
Y876400D01*
Y866360D01*
X1093882D01*
Y859500D01*
X1052000D01*
Y852293D01*
X1000500D01*
Y853230D01*
X989500D01*
Y852293D01*
X983231D01*
Y855499D01*
X971039D01*
X970231Y855499D01*
X968961Y855499D01*
X956769D01*
Y852293D01*
X950500D01*
Y853230D01*
X939500D01*
Y852293D01*
X933231D01*
Y855499D01*
X921039D01*
X920231Y855499D01*
X918961Y855499D01*
X906769D01*
Y852294D01*
X49000D01*
Y859500D01*
X6118D01*
Y865360D01*
X24500D01*
Y875400D01*
Y885440D01*
X6118D01*
Y943883D01*
X1093882D01*
X1093882Y886440D01*
D02*
G37*
G36*
X906769Y844499D02*
X918961D01*
X919769Y844499D01*
X921039Y844499D01*
X933231D01*
Y847705D01*
X939500D01*
Y840308D01*
X938960D01*
Y835768D01*
X945000D01*
X951040D01*
Y840308D01*
X950500D01*
Y847705D01*
X956769D01*
Y844499D01*
X968961D01*
X969769Y844499D01*
X971039Y844499D01*
X983231D01*
Y847705D01*
X989500D01*
Y840308D01*
X988960D01*
Y835768D01*
X995000D01*
X1001040D01*
Y840308D01*
X1000500D01*
Y847705D01*
X1052000D01*
Y840500D01*
X1093882D01*
Y834640D01*
X1076500D01*
Y824600D01*
Y814560D01*
X1093882D01*
Y756117D01*
X6118D01*
Y813560D01*
X24500D01*
Y823600D01*
Y833640D01*
X6118D01*
Y840500D01*
X49000D01*
Y847706D01*
X906769D01*
Y844499D01*
D02*
G37*
G36*
X1093882Y686440D02*
X1076500D01*
Y676400D01*
Y666360D01*
X1093882D01*
Y659500D01*
X1052000D01*
Y653492D01*
X995250D01*
X995125Y653467D01*
X995000Y653492D01*
X983231D01*
Y655500D01*
X971039D01*
X970231Y655500D01*
X968961Y655500D01*
X956769D01*
Y653492D01*
X933231D01*
Y655500D01*
X921039D01*
X920231Y655500D01*
X918961Y655500D01*
X906769D01*
Y653492D01*
X49000D01*
Y659500D01*
X6118D01*
Y665360D01*
X24500D01*
Y675400D01*
Y685440D01*
X6118D01*
Y743882D01*
X1093882D01*
Y686440D01*
D02*
G37*
G36*
X956769Y644500D02*
X968961D01*
X969769Y644500D01*
X971039Y644500D01*
X983231D01*
Y646508D01*
X989500D01*
Y640309D01*
X988960D01*
Y635769D01*
X995000D01*
X1001040D01*
Y640309D01*
X1000500D01*
Y646508D01*
X1052000D01*
Y640500D01*
X1093882D01*
Y634640D01*
X1076500D01*
Y624600D01*
Y614560D01*
X1093882D01*
X1093882Y556118D01*
X6118D01*
Y613560D01*
X24500D01*
Y623600D01*
Y633640D01*
X6118D01*
Y640500D01*
X49000D01*
Y646508D01*
X906769D01*
Y644500D01*
X918961D01*
X919769Y644500D01*
X921039Y644500D01*
X933231D01*
Y646508D01*
X939500D01*
Y640309D01*
X938960D01*
Y635769D01*
X945000D01*
X951040D01*
Y640309D01*
X950500D01*
Y646508D01*
X956769D01*
Y644500D01*
D02*
G37*
G36*
X1093882Y486440D02*
X1076500D01*
Y476400D01*
Y466360D01*
X1093882D01*
Y459500D01*
X1052000D01*
Y452294D01*
X49000D01*
Y459500D01*
X6118D01*
Y465360D01*
X24500D01*
Y475400D01*
Y485440D01*
X6118D01*
Y543882D01*
X1093882D01*
Y486440D01*
D02*
G37*
G36*
X1052000Y440500D02*
X1093882D01*
Y434640D01*
X1076500D01*
Y424600D01*
Y414560D01*
X1093882D01*
Y356118D01*
X6118D01*
Y413560D01*
X24500D01*
Y423600D01*
Y433640D01*
X6118D01*
Y440500D01*
X49000D01*
Y447706D01*
X1052000D01*
Y440500D01*
D02*
G37*
G36*
X1093882Y286440D02*
X1076500D01*
Y276400D01*
Y266360D01*
X1093882D01*
Y259500D01*
X1052000D01*
Y253492D01*
X49000D01*
Y259500D01*
X6118D01*
Y265360D01*
X24500D01*
Y275400D01*
Y285440D01*
X6118D01*
Y343882D01*
X1093882D01*
Y286440D01*
D02*
G37*
G36*
X1052000Y240500D02*
X1093882D01*
Y234640D01*
X1076500D01*
Y224600D01*
Y214560D01*
X1093882D01*
X1093883Y156117D01*
X6118D01*
Y213560D01*
X24500D01*
Y223600D01*
Y233640D01*
X6118D01*
Y240500D01*
X49000D01*
Y246508D01*
X1052000D01*
Y240500D01*
D02*
G37*
G36*
X1093883Y111440D02*
X1076500D01*
Y101400D01*
X1074000D01*
Y98900D01*
X1051460D01*
Y95000D01*
X1030000D01*
Y143882D01*
X1093883D01*
Y111440D01*
D02*
G37*
G36*
X70000Y95000D02*
X48540D01*
Y97900D01*
X26000D01*
Y100400D01*
X23500D01*
Y110440D01*
X6118D01*
Y143882D01*
X70000D01*
Y95000D01*
D02*
G37*
G36*
X1051460Y52100D02*
X1074000D01*
Y49600D01*
X1076500D01*
Y39560D01*
X1093883D01*
Y6118D01*
X1030000D01*
Y55000D01*
X1051460D01*
Y52100D01*
D02*
G37*
G36*
X70000Y6118D02*
X6118D01*
Y38560D01*
X23500D01*
Y48600D01*
X26000D01*
Y51100D01*
X48540D01*
Y55000D01*
X70000D01*
Y6118D01*
D02*
G37*
%LPC*%
G36*
X1071500Y2527100D02*
X1051460D01*
Y2519560D01*
X1071500D01*
Y2527100D01*
D02*
G37*
G36*
Y2491440D02*
X1051460D01*
Y2483900D01*
X1071500D01*
Y2491440D01*
D02*
G37*
G36*
X49540Y2526100D02*
X29500D01*
Y2518560D01*
X49540D01*
Y2526100D01*
D02*
G37*
G36*
Y2490440D02*
X29500D01*
Y2482900D01*
X49540D01*
Y2490440D01*
D02*
G37*
G36*
X1071500Y2327100D02*
X1051460D01*
Y2319560D01*
X1071500D01*
Y2327100D01*
D02*
G37*
G36*
Y2291440D02*
X1051460D01*
Y2283900D01*
X1071500D01*
Y2291440D01*
D02*
G37*
G36*
X49540Y2326100D02*
X29500D01*
Y2318560D01*
X49540D01*
Y2326100D01*
D02*
G37*
G36*
Y2290440D02*
X29500D01*
Y2282900D01*
X49540D01*
Y2290440D01*
D02*
G37*
G36*
X1071500Y2127100D02*
X1051460D01*
Y2119560D01*
X1071500D01*
Y2127100D01*
D02*
G37*
G36*
Y2091440D02*
X1051460D01*
Y2083900D01*
X1071500D01*
Y2091440D01*
D02*
G37*
G36*
X49540Y2126100D02*
X29500D01*
Y2118560D01*
X49540D01*
Y2126100D01*
D02*
G37*
G36*
Y2090440D02*
X29500D01*
Y2082900D01*
X49540D01*
Y2090440D01*
D02*
G37*
G36*
X1071500Y1927101D02*
X1051460D01*
Y1919560D01*
X1071500D01*
Y1927101D01*
D02*
G37*
G36*
Y1891440D02*
X1051460D01*
Y1883900D01*
X1071500D01*
Y1891440D01*
D02*
G37*
G36*
X49540Y1926100D02*
X29500D01*
Y1918560D01*
X49540D01*
Y1926100D01*
D02*
G37*
G36*
Y1890440D02*
X29500D01*
Y1882900D01*
X49540D01*
Y1890440D01*
D02*
G37*
G36*
X1071500Y1791440D02*
X1051460D01*
Y1783900D01*
X1071500D01*
Y1791440D01*
D02*
G37*
G36*
X49540Y1790440D02*
X29500D01*
Y1782900D01*
X49540D01*
Y1790440D01*
D02*
G37*
G36*
X1071500Y1778900D02*
X1051460D01*
Y1771360D01*
X1071500D01*
Y1778900D01*
D02*
G37*
G36*
X49540Y1777900D02*
X29500D01*
Y1770360D01*
X49540D01*
Y1777900D01*
D02*
G37*
G36*
Y1738640D02*
X29500D01*
Y1731100D01*
X49540D01*
Y1738640D01*
D02*
G37*
G36*
Y1726100D02*
X29500D01*
Y1718560D01*
X49540D01*
Y1726100D01*
D02*
G37*
G36*
Y1690440D02*
X29500D01*
Y1682900D01*
X49540D01*
Y1690440D01*
D02*
G37*
G36*
Y1677900D02*
X29500D01*
Y1670360D01*
X49540D01*
Y1677900D01*
D02*
G37*
G36*
X1071500Y1739640D02*
X1051460D01*
Y1732100D01*
X1071500D01*
Y1739640D01*
D02*
G37*
G36*
Y1727100D02*
X1051460D01*
Y1719560D01*
X1071500D01*
Y1727100D01*
D02*
G37*
G36*
Y1691440D02*
X1051460D01*
Y1683900D01*
X1071500D01*
Y1691440D01*
D02*
G37*
G36*
Y1678900D02*
X1051460D01*
Y1671360D01*
X1071500D01*
Y1678900D01*
D02*
G37*
G36*
Y1639640D02*
X1051460D01*
Y1632100D01*
X1071500D01*
Y1639640D01*
D02*
G37*
G36*
X49540Y1638640D02*
X29500D01*
Y1631100D01*
X49540D01*
Y1638640D01*
D02*
G37*
G36*
X1071500Y1627100D02*
X1051460D01*
Y1619560D01*
X1071500D01*
Y1627100D01*
D02*
G37*
G36*
X49540Y1626100D02*
X29500D01*
Y1618560D01*
X49540D01*
Y1626100D01*
D02*
G37*
G36*
X1071500Y1527100D02*
X1051460D01*
Y1519560D01*
X1071500D01*
Y1527100D01*
D02*
G37*
G36*
Y1491440D02*
X1051460D01*
Y1483900D01*
X1071500D01*
Y1491440D01*
D02*
G37*
G36*
X49540Y1526100D02*
X29500D01*
Y1518560D01*
X49540D01*
Y1526100D01*
D02*
G37*
G36*
Y1490440D02*
X29500D01*
Y1482900D01*
X49540D01*
Y1490440D01*
D02*
G37*
G36*
X1071500Y1361440D02*
X1051460D01*
Y1353900D01*
X1071500D01*
Y1361440D01*
D02*
G37*
G36*
X48540Y1360440D02*
X28500D01*
Y1352900D01*
X48540D01*
Y1360440D01*
D02*
G37*
G36*
X1071500Y1297101D02*
X1051460D01*
Y1289560D01*
X1071500D01*
Y1297101D01*
D02*
G37*
G36*
X48540Y1296100D02*
X28500D01*
Y1288560D01*
X48540D01*
Y1296100D01*
D02*
G37*
G36*
X1071500Y1211440D02*
X1051460D01*
Y1203900D01*
X1071500D01*
Y1211440D01*
D02*
G37*
G36*
X48540Y1210440D02*
X28500D01*
Y1202900D01*
X48540D01*
Y1210440D01*
D02*
G37*
G36*
X1071500Y1147100D02*
X1051460D01*
Y1139560D01*
X1071500D01*
Y1147100D01*
D02*
G37*
G36*
X48540Y1146100D02*
X28500D01*
Y1138560D01*
X48540D01*
Y1146100D01*
D02*
G37*
G36*
X1071500Y1061440D02*
X1051460D01*
Y1053900D01*
X1071500D01*
Y1061440D01*
D02*
G37*
G36*
X48540Y1060440D02*
X28500D01*
Y1052900D01*
X48540D01*
Y1060440D01*
D02*
G37*
G36*
X1071500Y997100D02*
X1051460D01*
Y989560D01*
X1071500D01*
Y997100D01*
D02*
G37*
G36*
X48540Y996100D02*
X28500D01*
Y988560D01*
X48540D01*
Y996100D01*
D02*
G37*
G36*
X1071500Y886440D02*
X1051460D01*
Y878900D01*
X1071500D01*
Y886440D01*
D02*
G37*
G36*
X49540Y885440D02*
X29500D01*
Y877900D01*
X49540D01*
Y885440D01*
D02*
G37*
G36*
X1071500Y873900D02*
X1051460D01*
Y866360D01*
X1071500D01*
Y873900D01*
D02*
G37*
G36*
X49540Y872900D02*
X29500D01*
Y865360D01*
X49540D01*
Y872900D01*
D02*
G37*
G36*
X1071500Y834640D02*
X1051460D01*
Y827100D01*
X1071500D01*
Y834640D01*
D02*
G37*
G36*
X1001040Y830768D02*
X997500D01*
Y826228D01*
X1001040D01*
Y830768D01*
D02*
G37*
G36*
X992500D02*
X988960D01*
Y826228D01*
X992500D01*
Y830768D01*
D02*
G37*
G36*
X951040D02*
X947500D01*
Y826228D01*
X951040D01*
Y830768D01*
D02*
G37*
G36*
X942500D02*
X938960D01*
Y826228D01*
X942500D01*
Y830768D01*
D02*
G37*
G36*
X49540Y833640D02*
X29500D01*
Y826100D01*
X49540D01*
Y833640D01*
D02*
G37*
G36*
X1071500Y822100D02*
X1051460D01*
Y814560D01*
X1071500D01*
Y822100D01*
D02*
G37*
G36*
X49540Y821100D02*
X29500D01*
Y813560D01*
X49540D01*
Y821100D01*
D02*
G37*
G36*
X1071500Y686440D02*
X1051460D01*
Y678900D01*
X1071500D01*
Y686440D01*
D02*
G37*
G36*
X49540Y685440D02*
X29500D01*
Y677900D01*
X49540D01*
Y685440D01*
D02*
G37*
G36*
X1071500Y673900D02*
X1051460D01*
Y666360D01*
X1071500D01*
Y673900D01*
D02*
G37*
G36*
X49540Y672900D02*
X29500D01*
Y665360D01*
X49540D01*
Y672900D01*
D02*
G37*
G36*
X1071500Y634640D02*
X1051460D01*
Y627100D01*
X1071500D01*
Y634640D01*
D02*
G37*
G36*
X1001040Y630769D02*
X997500D01*
Y626229D01*
X1001040D01*
Y630769D01*
D02*
G37*
G36*
X992500D02*
X988960D01*
Y626229D01*
X992500D01*
Y630769D01*
D02*
G37*
G36*
X951040D02*
X947500D01*
Y626229D01*
X951040D01*
Y630769D01*
D02*
G37*
G36*
X942500D02*
X938960D01*
Y626229D01*
X942500D01*
Y630769D01*
D02*
G37*
G36*
X49540Y633640D02*
X29500D01*
Y626100D01*
X49540D01*
Y633640D01*
D02*
G37*
G36*
X1071500Y622100D02*
X1051460D01*
Y614560D01*
X1071500D01*
Y622100D01*
D02*
G37*
G36*
X49540Y621100D02*
X29500D01*
Y613560D01*
X49540D01*
Y621100D01*
D02*
G37*
G36*
X1071500Y486440D02*
X1051460D01*
Y478900D01*
X1071500D01*
Y486440D01*
D02*
G37*
G36*
X49540Y485440D02*
X29500D01*
Y477900D01*
X49540D01*
Y485440D01*
D02*
G37*
G36*
X1071500Y473900D02*
X1051460D01*
Y466360D01*
X1071500D01*
Y473900D01*
D02*
G37*
G36*
X49540Y472900D02*
X29500D01*
Y465360D01*
X49540D01*
Y472900D01*
D02*
G37*
G36*
X1071500Y434640D02*
X1051460D01*
Y427100D01*
X1071500D01*
Y434640D01*
D02*
G37*
G36*
X49540Y433640D02*
X29500D01*
Y426100D01*
X49540D01*
Y433640D01*
D02*
G37*
G36*
X1071500Y422100D02*
X1051460D01*
Y414560D01*
X1071500D01*
Y422100D01*
D02*
G37*
G36*
X49540Y421100D02*
X29500D01*
Y413560D01*
X49540D01*
Y421100D01*
D02*
G37*
G36*
X1071500Y286440D02*
X1051460D01*
Y278900D01*
X1071500D01*
Y286440D01*
D02*
G37*
G36*
X49540Y285440D02*
X29500D01*
Y277900D01*
X49540D01*
Y285440D01*
D02*
G37*
G36*
X1071500Y273900D02*
X1051460D01*
Y266360D01*
X1071500D01*
Y273900D01*
D02*
G37*
G36*
X49540Y272900D02*
X29500D01*
Y265360D01*
X49540D01*
Y272900D01*
D02*
G37*
G36*
X1071500Y234640D02*
X1051460D01*
Y227100D01*
X1071500D01*
Y234640D01*
D02*
G37*
G36*
X49540Y233640D02*
X29500D01*
Y226100D01*
X49540D01*
Y233640D01*
D02*
G37*
G36*
X1071500Y222100D02*
X1051460D01*
Y214560D01*
X1071500D01*
Y222100D01*
D02*
G37*
G36*
X49540Y221100D02*
X29500D01*
Y213560D01*
X49540D01*
Y221100D01*
D02*
G37*
G36*
X1071500Y111440D02*
X1051460D01*
Y103900D01*
X1071500D01*
Y111440D01*
D02*
G37*
G36*
X48540Y110440D02*
X28500D01*
Y102900D01*
X48540D01*
Y110440D01*
D02*
G37*
G36*
X1071500Y47100D02*
X1051460D01*
Y39560D01*
X1071500D01*
Y47100D01*
D02*
G37*
G36*
X48540Y46100D02*
X28500D01*
Y38560D01*
X48540D01*
Y46100D01*
D02*
G37*
%LPD*%
D10*
X1074000Y2581400D02*
D03*
Y2529600D02*
D03*
Y2555000D02*
D03*
X27000Y2555000D02*
D03*
Y2580400D02*
D03*
Y2528600D02*
D03*
Y2455000D02*
D03*
Y2480400D02*
D03*
Y2428600D02*
D03*
X1074000Y2481400D02*
D03*
Y2429600D02*
D03*
Y2455000D02*
D03*
Y250000D02*
D03*
Y224600D02*
D03*
Y276400D02*
D03*
Y450000D02*
D03*
Y424600D02*
D03*
Y476400D02*
D03*
Y2055000D02*
D03*
Y2029600D02*
D03*
Y2081400D02*
D03*
Y2355000D02*
D03*
Y2329600D02*
D03*
Y2381400D02*
D03*
Y2155000D02*
D03*
Y2129600D02*
D03*
Y2181400D02*
D03*
Y1855000D02*
D03*
Y1829600D02*
D03*
Y1881400D02*
D03*
Y75000D02*
D03*
Y49600D02*
D03*
Y101400D02*
D03*
Y650000D02*
D03*
Y624600D02*
D03*
Y676400D02*
D03*
Y850000D02*
D03*
Y824600D02*
D03*
Y876400D02*
D03*
Y1025000D02*
D03*
Y999600D02*
D03*
Y1051400D02*
D03*
Y1175000D02*
D03*
Y1149600D02*
D03*
Y1201400D02*
D03*
Y1325000D02*
D03*
Y1299600D02*
D03*
Y1351400D02*
D03*
Y1455000D02*
D03*
Y1429600D02*
D03*
Y1481400D02*
D03*
Y1555000D02*
D03*
Y1529600D02*
D03*
Y1581400D02*
D03*
Y1655000D02*
D03*
Y1629600D02*
D03*
Y1681400D02*
D03*
Y1755000D02*
D03*
Y1729600D02*
D03*
Y1781400D02*
D03*
Y1955000D02*
D03*
Y1929600D02*
D03*
Y1981400D02*
D03*
Y2255000D02*
D03*
Y2229600D02*
D03*
Y2281400D02*
D03*
X27000Y2228600D02*
D03*
Y2280400D02*
D03*
Y2255000D02*
D03*
Y2328600D02*
D03*
Y2380400D02*
D03*
Y2355000D02*
D03*
Y2128600D02*
D03*
Y2180400D02*
D03*
Y2155000D02*
D03*
Y2028600D02*
D03*
Y2080400D02*
D03*
Y2055000D02*
D03*
Y1828600D02*
D03*
Y1880400D02*
D03*
Y1855000D02*
D03*
Y1928600D02*
D03*
Y1980400D02*
D03*
Y1955000D02*
D03*
Y1728600D02*
D03*
Y1780400D02*
D03*
Y1755000D02*
D03*
Y1628600D02*
D03*
Y1680400D02*
D03*
Y1655000D02*
D03*
Y1428600D02*
D03*
Y1480400D02*
D03*
Y1455000D02*
D03*
Y1528600D02*
D03*
Y1580400D02*
D03*
Y1555000D02*
D03*
X26000Y1298600D02*
D03*
Y1350400D02*
D03*
Y1325000D02*
D03*
Y1148600D02*
D03*
Y1200400D02*
D03*
Y1175000D02*
D03*
Y998600D02*
D03*
Y1050400D02*
D03*
Y1025000D02*
D03*
X27000Y823600D02*
D03*
Y875400D02*
D03*
Y850000D02*
D03*
Y623600D02*
D03*
Y675400D02*
D03*
Y650000D02*
D03*
Y423600D02*
D03*
Y475400D02*
D03*
Y450000D02*
D03*
X26000Y48600D02*
D03*
Y100400D02*
D03*
Y75000D02*
D03*
X27000Y223600D02*
D03*
Y275400D02*
D03*
Y250000D02*
D03*
D11*
X995000Y846730D02*
D03*
Y833268D02*
D03*
X945000Y846730D02*
D03*
Y833268D02*
D03*
X945000Y646731D02*
D03*
Y633269D02*
D03*
X995000Y646731D02*
D03*
Y633269D02*
D03*
D12*
X926731Y849999D02*
D03*
X913269D02*
D03*
X976731D02*
D03*
X963269D02*
D03*
X926731Y650000D02*
D03*
X913269D02*
D03*
X976731D02*
D03*
X963269D02*
D03*
D13*
X391492Y2298250D02*
X406742Y2283000D01*
X427776D02*
X444026Y2299250D01*
X406742Y2283000D02*
X427776D01*
X324641Y2281000D02*
X341675D01*
X302291Y2303350D02*
X324641Y2281000D01*
X341675D02*
X358925Y2298250D01*
X61172Y2303350D02*
X302291D01*
X358925Y2298250D02*
X391492D01*
X27000Y2555000D02*
X39500D01*
X27000Y2455000D02*
X39500D01*
X1025650Y2503350D02*
X1025650Y2503350D01*
X1027017Y2506650D02*
X1027017Y2506650D01*
X1061500Y2555000D02*
X1074000D01*
X1061500Y2455000D02*
X1074000D01*
X1040000Y2533500D02*
X1061500Y2555000D01*
X1040000Y2507822D02*
Y2533500D01*
X1027017Y2506650D02*
X1038828D01*
X1040000Y2507822D01*
Y2476500D02*
X1061500Y2455000D01*
X1038828Y2503350D02*
X1040000Y2502178D01*
X1025650Y2503350D02*
X1038828D01*
X1040000Y2476500D02*
Y2502178D01*
X61172Y2506650D02*
X1027017D01*
X39500Y2555000D02*
X60000Y2534500D01*
Y2507822D02*
X61172Y2506650D01*
X60000Y2507822D02*
Y2534500D01*
Y2502178D02*
X61172Y2503350D01*
X60000Y2475500D02*
Y2502178D01*
X39500Y2455000D02*
X60000Y2475500D01*
X61172Y2503350D02*
X1025650D01*
X739647Y2286500D02*
X767680D01*
X727396Y2298750D02*
X739647Y2286500D01*
X655546D02*
X683579D01*
X695829Y2298750D01*
X727396D01*
X642795Y2299250D02*
X655546Y2286500D01*
X784530Y2303350D02*
X1025650D01*
X767680Y2286500D02*
X784530Y2303350D01*
X800000Y1900500D02*
X802850Y1903350D01*
X800000Y1909500D02*
X802850Y1906650D01*
X1038828Y1906650D01*
X802850Y1903350D02*
X1038828Y1903350D01*
X803672Y2106650D02*
X1038828D01*
X800000Y2100500D02*
X800822D01*
X800822Y2109500D02*
X803672Y2106650D01*
Y2103350D02*
X1038828D01*
X800000Y2109500D02*
X800822D01*
X800822Y2100500D02*
X803672Y2103350D01*
X297695D02*
X300545Y2100500D01*
X301367D01*
X297695Y2106650D02*
X300545Y2109500D01*
X61172Y2103350D02*
X297695D01*
X61172Y2106650D02*
X297695D01*
X300545Y2109500D02*
X301367D01*
X61172Y1906650D02*
X297695D01*
X61172Y1903350D02*
X297695D01*
X300545Y1900500D01*
X300545Y1909500D02*
X301367D01*
X297695Y1906650D02*
X300545Y1909500D01*
X300545Y1900500D02*
X301367D01*
X61172Y2306650D02*
X1027017D01*
X39500Y2355000D02*
X60000Y2334500D01*
Y2307822D02*
X61172Y2306650D01*
X60000Y2307822D02*
Y2334500D01*
X444026Y2299250D02*
X642795D01*
X60000Y2302179D02*
X61172Y2303350D01*
X60000Y2275500D02*
Y2302179D01*
X39500Y2255000D02*
X60000Y2275500D01*
X1040000Y2333500D02*
X1061500Y2355000D01*
X1040000Y2307822D02*
Y2333500D01*
X1038828Y2306650D02*
X1040000Y2307822D01*
X1027017Y2306650D02*
X1038828D01*
X1040000Y2276500D02*
X1061500Y2255000D01*
X1038828Y2303350D02*
X1040000Y2302178D01*
Y2276500D02*
Y2302178D01*
X1025650Y2303350D02*
X1038828D01*
X1061500Y2255000D02*
X1074000D01*
X1061500Y2355000D02*
X1074000D01*
X1027017Y2306650D02*
X1027017Y2306650D01*
X1025650Y2303350D02*
X1025650Y2303350D01*
X27000Y2255000D02*
X39500D01*
X27000Y2355000D02*
X39500D01*
X1053500Y2061500D02*
X1067500D01*
X1040000Y2075000D02*
X1053500Y2061500D01*
X1040000Y2075000D02*
Y2102179D01*
X1067500Y2061500D02*
X1074000Y2055000D01*
X1040000Y2135000D02*
X1053500Y2148500D01*
X1067500D02*
X1074000Y2155000D01*
X1040000Y2107822D02*
Y2135000D01*
X1053500Y2148500D02*
X1067500D01*
X1038828Y2106650D02*
X1040000Y2107822D01*
X1038828Y2103350D02*
X1040000Y2102179D01*
X46500Y2148500D02*
X60000Y2135000D01*
X33500Y2148500D02*
X46500D01*
X60000Y2107822D02*
Y2135000D01*
X27000Y2155000D02*
X33500Y2148500D01*
X46500Y2061500D02*
X60000Y2075000D01*
X33500Y2061500D02*
X46500D01*
X27000Y2055000D02*
X33500Y2061500D01*
X60000Y2075000D02*
Y2102179D01*
Y2107822D02*
X61172Y2106650D01*
X60000Y2102179D02*
X61172Y2103350D01*
X46500Y1861500D02*
X60000Y1875000D01*
X27000Y1855000D02*
X33500Y1861500D01*
X60000Y1875000D02*
Y1902179D01*
X33500Y1861500D02*
X46500D01*
X46500Y1948500D02*
X60000Y1935000D01*
X33500Y1948500D02*
X46500D01*
X60000Y1907822D02*
Y1935000D01*
X27000Y1955000D02*
X33500Y1948500D01*
X60000Y1907822D02*
X61172Y1906650D01*
X60000Y1902179D02*
X61172Y1903350D01*
X1053500Y1948500D02*
X1067500D01*
X1074000Y1955000D01*
X1040000Y1907822D02*
Y1935000D01*
X1053500Y1948500D01*
X1038828Y1906650D02*
X1040000Y1907822D01*
X1067500Y1861500D02*
X1074000Y1855000D01*
X1053500Y1861500D02*
X1067500D01*
X1040000Y1875000D02*
X1053500Y1861500D01*
X1040000Y1875000D02*
Y1902179D01*
X1038828Y1903350D02*
X1040000Y1902179D01*
X61172Y1503350D02*
X1025650D01*
X39500Y1455000D02*
X60000Y1475500D01*
Y1502178D01*
X61172Y1503350D01*
X60000Y1507822D02*
Y1534500D01*
Y1507822D02*
X61172Y1506650D01*
X39500Y1555000D02*
X60000Y1534500D01*
X61172Y1506650D02*
X1027017D01*
X1040000Y1476500D02*
Y1502178D01*
X1025650Y1503350D02*
X1038828D01*
X1040000Y1502178D01*
Y1476500D02*
X1061500Y1455000D01*
X1038828Y1506650D02*
X1040000Y1507822D01*
X1027017Y1506650D02*
X1038828D01*
X1040000Y1507822D02*
Y1533500D01*
X1061500Y1555000D01*
Y1455000D02*
X1074000D01*
X1061500Y1555000D02*
X1074000D01*
X1027017Y1506650D02*
X1027017Y1506650D01*
X1025650Y1503350D02*
X1025650Y1503350D01*
X27000Y1455000D02*
X39500D01*
X27000Y1555000D02*
X39500D01*
D14*
X1021400Y2581400D02*
X1074000D01*
X1021400Y2429600D02*
X1074000D01*
X27000Y2580400D02*
X79600D01*
X27000Y2428600D02*
X79600D01*
X27000Y1428600D02*
X79600D01*
X27000Y1580400D02*
X79600D01*
X1020400Y2028600D02*
X1073000D01*
X1020400Y2180400D02*
X1073000D01*
X1020400Y2228600D02*
X1073000D01*
X1020400Y2380400D02*
X1073000D01*
X27000Y2228600D02*
X79600D01*
X27000Y2380400D02*
X79600D01*
X27000Y2028600D02*
X79600D01*
X27000Y2180400D02*
X79600D01*
X1020400Y1980400D02*
X1073000D01*
X1020400Y1828600D02*
X1073000D01*
X27000Y1980400D02*
X79600D01*
X27000Y1828600D02*
X79600D01*
X1020400Y1581400D02*
X1073000D01*
X1020400Y1429600D02*
X1073000D01*
D15*
X1040000Y1707387D02*
Y1733500D01*
X1039063Y1706450D02*
X1040000Y1707387D01*
Y1733500D02*
X1061500Y1755000D01*
X1026651Y1706450D02*
X1039063D01*
X1040000Y1676500D02*
Y1702613D01*
Y1676500D02*
X1061500Y1655000D01*
X1025450Y1703550D02*
X1039063D01*
X1040000Y1702613D01*
X60937Y1706450D02*
X1026651D01*
X60000Y1707387D02*
Y1734500D01*
X39500Y1755000D02*
X60000Y1734500D01*
Y1707387D02*
X60937Y1706450D01*
X60000Y1702613D02*
X60937Y1703550D01*
X39500Y1655000D02*
X60000Y1675500D01*
X60937Y1703550D02*
X1025450D01*
X60000Y1675500D02*
Y1702613D01*
X1061500Y1655000D02*
X1074000D01*
X1026651Y1706450D02*
X1026651Y1706450D01*
X1061500Y1755000D02*
X1074000D01*
X1025450Y1703550D02*
X1025450Y1703550D01*
X27000Y1655000D02*
X39500D01*
X27000Y1755000D02*
X39500D01*
D16*
X26000Y1325000D02*
X1074000D01*
X26000Y1175000D02*
X300000D01*
X800000D02*
X1074000D01*
X800000Y1025000D02*
X1074000D01*
X26000D02*
X300000D01*
X26000Y75000D02*
X1074000D01*
D17*
X995000Y849999D02*
X1073999D01*
X976731D02*
X995000D01*
Y846730D02*
Y849999D01*
X945000D02*
X963269D01*
X926731D02*
X945000D01*
Y846730D02*
Y849999D01*
X1073999D02*
X1074000Y850000D01*
X27000D02*
X913268D01*
X913269Y849999D01*
X27000Y450000D02*
X1074000D01*
D18*
X995250Y650000D02*
X1074000D01*
X976731D02*
X995000D01*
Y649500D02*
X995250Y649750D01*
X995000Y646731D02*
Y649500D01*
X976731Y650000D02*
X976731Y650000D01*
X945000Y650000D02*
X963269D01*
X926731D02*
X945000D01*
Y646731D02*
Y650000D01*
X913269Y650000D02*
X913269Y650000D01*
X27000Y650000D02*
X913269D01*
X27000Y250000D02*
X1074000D01*
D19*
X1056498Y771209D02*
D03*
X1026498D02*
D03*
X1011498Y921209D02*
D03*
X996498Y891209D02*
D03*
X1011498Y801209D02*
D03*
X996498Y771209D02*
D03*
X981498Y921209D02*
D03*
X966498Y891209D02*
D03*
X981498Y801209D02*
D03*
X966498Y771209D02*
D03*
X951498Y921209D02*
D03*
X936498Y891209D02*
D03*
X951498Y801209D02*
D03*
X936498Y771209D02*
D03*
X921498Y921209D02*
D03*
X906498Y891209D02*
D03*
X921498Y801209D02*
D03*
X906498Y771209D02*
D03*
X891498Y921209D02*
D03*
X876498Y891209D02*
D03*
X891498Y801209D02*
D03*
X876498Y771209D02*
D03*
X861498Y921209D02*
D03*
X846498Y891209D02*
D03*
X861498Y801209D02*
D03*
X846498Y771209D02*
D03*
X831498Y921209D02*
D03*
X816498Y891209D02*
D03*
X831498Y801209D02*
D03*
X816498Y771209D02*
D03*
X801498Y921209D02*
D03*
X786498Y891209D02*
D03*
X801498Y801209D02*
D03*
X786498Y771209D02*
D03*
X771498Y921209D02*
D03*
X756498Y891209D02*
D03*
X771498Y801209D02*
D03*
X756498Y771209D02*
D03*
X741498Y921209D02*
D03*
X726498Y891209D02*
D03*
X741498Y801209D02*
D03*
X726498Y771209D02*
D03*
X711498Y921209D02*
D03*
X696498Y891209D02*
D03*
X711498Y801209D02*
D03*
X696498Y771209D02*
D03*
X681498Y921209D02*
D03*
X666498Y891209D02*
D03*
X681498Y801209D02*
D03*
X666498Y771209D02*
D03*
X651498Y921209D02*
D03*
X636498Y891209D02*
D03*
X651498Y801209D02*
D03*
X636498Y771209D02*
D03*
X621498Y921209D02*
D03*
X606498Y891209D02*
D03*
X621498Y801209D02*
D03*
X606498Y771209D02*
D03*
X591498Y921209D02*
D03*
X576498Y891209D02*
D03*
X591498Y801209D02*
D03*
X576498Y771209D02*
D03*
X561498Y921209D02*
D03*
X546498Y891209D02*
D03*
X561498Y801209D02*
D03*
X546498Y771209D02*
D03*
X531498Y921209D02*
D03*
X516498Y891209D02*
D03*
X531498Y801209D02*
D03*
X516498Y771209D02*
D03*
X501498Y921209D02*
D03*
X486498Y891209D02*
D03*
X501498Y801209D02*
D03*
X486498Y771209D02*
D03*
X471498Y921209D02*
D03*
X456498Y891209D02*
D03*
X471498Y801209D02*
D03*
X456498Y771209D02*
D03*
X441498Y921209D02*
D03*
X426498Y891209D02*
D03*
X441498Y801209D02*
D03*
X426498Y771209D02*
D03*
X411498Y921209D02*
D03*
X396498Y891209D02*
D03*
X411498Y801209D02*
D03*
X396498Y771209D02*
D03*
X381498Y921209D02*
D03*
X366498Y891209D02*
D03*
X381498Y801209D02*
D03*
X366498Y771209D02*
D03*
X351498Y921209D02*
D03*
X336498Y891209D02*
D03*
X351498Y801209D02*
D03*
X336498Y771209D02*
D03*
X321498Y921209D02*
D03*
X306498Y891209D02*
D03*
X321498Y801209D02*
D03*
X306498Y771209D02*
D03*
X291498Y921209D02*
D03*
X276498Y891209D02*
D03*
X291498Y801209D02*
D03*
X276498Y771209D02*
D03*
X261498Y921209D02*
D03*
X246498Y891209D02*
D03*
X261498Y801209D02*
D03*
X246498Y771209D02*
D03*
X231498Y921209D02*
D03*
X216498Y891209D02*
D03*
X231498Y801209D02*
D03*
X216498Y771209D02*
D03*
X201498Y921209D02*
D03*
X186498Y891209D02*
D03*
X201498Y801209D02*
D03*
X186498Y771209D02*
D03*
X171498Y921209D02*
D03*
X156498Y891209D02*
D03*
X171498Y801209D02*
D03*
X156498Y771209D02*
D03*
X141498Y921209D02*
D03*
X126498Y891209D02*
D03*
X141498Y801209D02*
D03*
X126498Y771209D02*
D03*
X111498Y921209D02*
D03*
X96498Y891209D02*
D03*
X111498Y801209D02*
D03*
X96498Y771209D02*
D03*
X81498Y921209D02*
D03*
X66498Y771209D02*
D03*
X36498D02*
D03*
X1035433Y864248D02*
D03*
X1020433D02*
D03*
X1005433D02*
D03*
X990434D02*
D03*
X961672Y861094D02*
D03*
X982881Y832458D02*
D03*
X1010959Y835751D02*
D03*
X1025959D02*
D03*
X952216Y864856D02*
D03*
X937218Y865090D02*
D03*
X935924Y830469D02*
D03*
X965357Y833387D02*
D03*
X971163Y866165D02*
D03*
X62445Y835751D02*
D03*
X77445D02*
D03*
X92445D02*
D03*
X107445D02*
D03*
X122445D02*
D03*
X137445D02*
D03*
X152445D02*
D03*
X167445D02*
D03*
X182445D02*
D03*
X197445D02*
D03*
X212445D02*
D03*
X227445D02*
D03*
X242445D02*
D03*
X257445D02*
D03*
X272445D02*
D03*
X287445D02*
D03*
X302445D02*
D03*
X317445D02*
D03*
X332445D02*
D03*
X347445D02*
D03*
X362445D02*
D03*
X377445D02*
D03*
X392445D02*
D03*
X407445D02*
D03*
X422445D02*
D03*
X437445D02*
D03*
X452445D02*
D03*
X467445D02*
D03*
X482445D02*
D03*
X497445D02*
D03*
X512445D02*
D03*
X527445D02*
D03*
X542445D02*
D03*
X557445D02*
D03*
X572445D02*
D03*
X587445D02*
D03*
X602445D02*
D03*
X617445D02*
D03*
X632445D02*
D03*
X647445D02*
D03*
X662445D02*
D03*
X677445D02*
D03*
X692445D02*
D03*
X707445D02*
D03*
X722445D02*
D03*
X737445D02*
D03*
X752445D02*
D03*
X767445D02*
D03*
X782445D02*
D03*
X797445D02*
D03*
X812445D02*
D03*
X827445D02*
D03*
X842445D02*
D03*
X857445D02*
D03*
X872445D02*
D03*
X887445D02*
D03*
X902428Y835054D02*
D03*
X917335Y833387D02*
D03*
X919091Y866437D02*
D03*
X904112Y865641D02*
D03*
X889177Y864249D02*
D03*
X874177D02*
D03*
X859177D02*
D03*
X844177D02*
D03*
X829177D02*
D03*
X814177D02*
D03*
X799177D02*
D03*
X784177D02*
D03*
X769177D02*
D03*
X754177D02*
D03*
X739177D02*
D03*
X724177D02*
D03*
X709177D02*
D03*
X694177D02*
D03*
X679177D02*
D03*
X664177D02*
D03*
X649177D02*
D03*
X634177D02*
D03*
X619177D02*
D03*
X604177D02*
D03*
X589177D02*
D03*
X574177D02*
D03*
X559177D02*
D03*
X544177D02*
D03*
X529177D02*
D03*
X514177D02*
D03*
X499177D02*
D03*
X484177D02*
D03*
X469177D02*
D03*
X454177D02*
D03*
X439177D02*
D03*
X424177D02*
D03*
X409177D02*
D03*
X394177D02*
D03*
X379177D02*
D03*
X364177D02*
D03*
X349177D02*
D03*
X334177D02*
D03*
X319177D02*
D03*
X304177D02*
D03*
X289177D02*
D03*
X274177D02*
D03*
X259177D02*
D03*
X244177D02*
D03*
X229177D02*
D03*
X214177D02*
D03*
X199177D02*
D03*
X184177D02*
D03*
X169177D02*
D03*
X154177D02*
D03*
X139177D02*
D03*
X124177D02*
D03*
X109177D02*
D03*
X94177D02*
D03*
X79177D02*
D03*
X64177D02*
D03*
X1011498Y1761209D02*
D03*
X996498Y1731209D02*
D03*
Y1671209D02*
D03*
X1011498Y1641209D02*
D03*
X996498Y1611209D02*
D03*
X981498Y1761209D02*
D03*
X966498Y1731209D02*
D03*
Y1671209D02*
D03*
X981498Y1641209D02*
D03*
X966498Y1611209D02*
D03*
X951498Y1761209D02*
D03*
X936498Y1731209D02*
D03*
Y1671209D02*
D03*
X951498Y1641209D02*
D03*
X936498Y1611209D02*
D03*
X921498Y1761209D02*
D03*
X906498Y1731209D02*
D03*
Y1671209D02*
D03*
X921498Y1641209D02*
D03*
X906498Y1611209D02*
D03*
X891498Y1761209D02*
D03*
X876498Y1731209D02*
D03*
Y1671209D02*
D03*
X891498Y1641209D02*
D03*
X876498Y1611209D02*
D03*
X861498Y1761209D02*
D03*
X846498Y1731209D02*
D03*
Y1671209D02*
D03*
X861498Y1641209D02*
D03*
X846498Y1611209D02*
D03*
X831498Y1761209D02*
D03*
X816498Y1731209D02*
D03*
Y1671209D02*
D03*
X831498Y1641209D02*
D03*
X816498Y1611209D02*
D03*
X801498Y1761209D02*
D03*
X786498Y1731209D02*
D03*
Y1671209D02*
D03*
X801498Y1641209D02*
D03*
X786498Y1611209D02*
D03*
X771498Y1761209D02*
D03*
X756498Y1731209D02*
D03*
Y1671209D02*
D03*
X771498Y1641209D02*
D03*
X756498Y1611209D02*
D03*
X741498Y1761209D02*
D03*
X726498Y1731209D02*
D03*
Y1671209D02*
D03*
X741498Y1641209D02*
D03*
X726498Y1611209D02*
D03*
X711498Y1761209D02*
D03*
X696498Y1731209D02*
D03*
Y1671209D02*
D03*
X711498Y1641209D02*
D03*
X696498Y1611209D02*
D03*
X681498Y1761209D02*
D03*
X666498Y1731209D02*
D03*
Y1671209D02*
D03*
X681498Y1641209D02*
D03*
X666498Y1611209D02*
D03*
X651498Y1761209D02*
D03*
X636498Y1731209D02*
D03*
Y1671209D02*
D03*
X651498Y1641209D02*
D03*
X636498Y1611209D02*
D03*
X621498Y1761209D02*
D03*
X606498Y1731209D02*
D03*
Y1671209D02*
D03*
X621498Y1641209D02*
D03*
X606498Y1611209D02*
D03*
X591498Y1761209D02*
D03*
X576498Y1731209D02*
D03*
Y1671209D02*
D03*
X591498Y1641209D02*
D03*
X576498Y1611209D02*
D03*
X561498Y1761209D02*
D03*
X546498Y1731209D02*
D03*
Y1671209D02*
D03*
X561498Y1641209D02*
D03*
X546498Y1611209D02*
D03*
X531498Y1761209D02*
D03*
X516498Y1731209D02*
D03*
Y1671209D02*
D03*
X531498Y1641209D02*
D03*
X516498Y1611209D02*
D03*
X501498Y1761209D02*
D03*
X486498Y1731209D02*
D03*
Y1671209D02*
D03*
X501498Y1641209D02*
D03*
X486498Y1611209D02*
D03*
X471498Y1761209D02*
D03*
X456498Y1731209D02*
D03*
Y1671209D02*
D03*
X471498Y1641209D02*
D03*
X456498Y1611209D02*
D03*
X441498Y1761209D02*
D03*
X426498Y1731209D02*
D03*
Y1671209D02*
D03*
X441498Y1641209D02*
D03*
X426498Y1611209D02*
D03*
X411498Y1761209D02*
D03*
X396498Y1731209D02*
D03*
Y1671209D02*
D03*
X411498Y1641209D02*
D03*
X396498Y1611209D02*
D03*
X381498Y1761209D02*
D03*
X366498Y1731209D02*
D03*
Y1671209D02*
D03*
X381498Y1641209D02*
D03*
X366498Y1611209D02*
D03*
X351498Y1761209D02*
D03*
X336498Y1731209D02*
D03*
Y1671209D02*
D03*
X351498Y1641209D02*
D03*
X336498Y1611209D02*
D03*
X321498Y1761209D02*
D03*
X306498Y1731209D02*
D03*
Y1671209D02*
D03*
X321498Y1641209D02*
D03*
X306498Y1611209D02*
D03*
X291498Y1761209D02*
D03*
X276498Y1731209D02*
D03*
Y1671209D02*
D03*
X291498Y1641209D02*
D03*
X276498Y1611209D02*
D03*
X261498Y1761209D02*
D03*
X246498Y1731209D02*
D03*
Y1671209D02*
D03*
X261498Y1641209D02*
D03*
X246498Y1611209D02*
D03*
X231498Y1761209D02*
D03*
X216498Y1731209D02*
D03*
Y1671209D02*
D03*
X231498Y1641209D02*
D03*
X216498Y1611209D02*
D03*
X201498Y1761209D02*
D03*
X186498Y1731209D02*
D03*
Y1671209D02*
D03*
X201498Y1641209D02*
D03*
X186498Y1611209D02*
D03*
X171498Y1761209D02*
D03*
X156498Y1731209D02*
D03*
Y1671209D02*
D03*
X171498Y1641209D02*
D03*
X156498Y1611209D02*
D03*
X141498Y1761209D02*
D03*
X126498Y1731209D02*
D03*
Y1671209D02*
D03*
X141498Y1641209D02*
D03*
X126498Y1611209D02*
D03*
X111498Y1761209D02*
D03*
Y1641209D02*
D03*
X96498Y1611209D02*
D03*
X1056498Y561209D02*
D03*
X1026498D02*
D03*
X1011498Y711209D02*
D03*
X996498Y681209D02*
D03*
X1011498Y591209D02*
D03*
X996498Y561209D02*
D03*
X981498Y711209D02*
D03*
Y591209D02*
D03*
X966498Y561209D02*
D03*
X951498Y711209D02*
D03*
X936498Y681209D02*
D03*
X951498Y591209D02*
D03*
X936498Y561209D02*
D03*
X921498Y711209D02*
D03*
Y591209D02*
D03*
X906498Y561209D02*
D03*
X891498Y711209D02*
D03*
X876498Y681209D02*
D03*
X891498Y591209D02*
D03*
X876498Y561209D02*
D03*
X861498Y711209D02*
D03*
X846498Y681209D02*
D03*
X861498Y591209D02*
D03*
X846498Y561209D02*
D03*
X831498Y711209D02*
D03*
X816498Y681209D02*
D03*
X831498Y591209D02*
D03*
X816498Y561209D02*
D03*
X801498Y711209D02*
D03*
X786498Y681209D02*
D03*
X801498Y591209D02*
D03*
X786498Y561209D02*
D03*
X771498Y711209D02*
D03*
X756498Y681209D02*
D03*
X771498Y591209D02*
D03*
X756498Y561209D02*
D03*
X741498Y711209D02*
D03*
X726498Y681209D02*
D03*
X741498Y591209D02*
D03*
X726498Y561209D02*
D03*
X711498Y711209D02*
D03*
X696498Y681209D02*
D03*
X711498Y591209D02*
D03*
X696498Y561209D02*
D03*
X681498Y711209D02*
D03*
X666498Y681209D02*
D03*
X681498Y591209D02*
D03*
X666498Y561209D02*
D03*
X651498Y711209D02*
D03*
X636498Y681209D02*
D03*
X651498Y591209D02*
D03*
X636498Y561209D02*
D03*
X621498Y711209D02*
D03*
X606498Y681209D02*
D03*
X621498Y591209D02*
D03*
X606498Y561209D02*
D03*
X591498Y711209D02*
D03*
X576498Y681209D02*
D03*
X591498Y591209D02*
D03*
X576498Y561209D02*
D03*
X561498Y711209D02*
D03*
X546498Y681209D02*
D03*
X561498Y591209D02*
D03*
X546498Y561209D02*
D03*
X531498Y711209D02*
D03*
X516498Y681209D02*
D03*
X531498Y591209D02*
D03*
X516498Y561209D02*
D03*
X501498Y711209D02*
D03*
X486498Y681209D02*
D03*
X501498Y591209D02*
D03*
X486498Y561209D02*
D03*
X471498Y711209D02*
D03*
X456498Y681209D02*
D03*
X471498Y591209D02*
D03*
X456498Y561209D02*
D03*
X441498Y711209D02*
D03*
X426498Y681209D02*
D03*
X441498Y591209D02*
D03*
X426498Y561209D02*
D03*
X411498Y711209D02*
D03*
X396498Y681209D02*
D03*
X411498Y591209D02*
D03*
X396498Y561209D02*
D03*
X381498Y711209D02*
D03*
X366498Y681209D02*
D03*
X381498Y591209D02*
D03*
X366498Y561209D02*
D03*
X351498Y711209D02*
D03*
X336498Y681209D02*
D03*
X351498Y591209D02*
D03*
X336498Y561209D02*
D03*
X321498Y711209D02*
D03*
X306498Y681209D02*
D03*
X321498Y591209D02*
D03*
X306498Y561209D02*
D03*
X291498Y711209D02*
D03*
X276498Y681209D02*
D03*
X291498Y591209D02*
D03*
X276498Y561209D02*
D03*
X261498Y711209D02*
D03*
X246498Y681209D02*
D03*
X261498Y591209D02*
D03*
X246498Y561209D02*
D03*
X231498Y711209D02*
D03*
X216498Y681209D02*
D03*
X231498Y591209D02*
D03*
X216498Y561209D02*
D03*
X201498Y711209D02*
D03*
X186498Y681209D02*
D03*
X201498Y591209D02*
D03*
X186498Y561209D02*
D03*
X171498Y711209D02*
D03*
X156498Y681209D02*
D03*
X171498Y591209D02*
D03*
X156498Y561209D02*
D03*
X141498Y711209D02*
D03*
X126498Y681209D02*
D03*
X141498Y591209D02*
D03*
X126498Y561209D02*
D03*
X111498Y711209D02*
D03*
X96498Y681209D02*
D03*
X111498Y591209D02*
D03*
X96498Y561209D02*
D03*
X81498Y711209D02*
D03*
Y591209D02*
D03*
X66498Y561209D02*
D03*
X36498D02*
D03*
X1035844Y664654D02*
D03*
X1020844D02*
D03*
X1005844D02*
D03*
X990844D02*
D03*
X961907Y661400D02*
D03*
X982564Y632702D02*
D03*
X1010776Y635345D02*
D03*
X1025776D02*
D03*
X952216Y664857D02*
D03*
X937218Y665091D02*
D03*
X935924Y630470D02*
D03*
X965357Y633388D02*
D03*
X971162Y666165D02*
D03*
X62211Y635345D02*
D03*
X77211D02*
D03*
X92211D02*
D03*
X107211D02*
D03*
X122211D02*
D03*
X137211D02*
D03*
X152211D02*
D03*
X167211D02*
D03*
X182211D02*
D03*
X197211D02*
D03*
X212211D02*
D03*
X227211D02*
D03*
X242211D02*
D03*
X257211D02*
D03*
X272211D02*
D03*
X287211D02*
D03*
X302211D02*
D03*
X317211D02*
D03*
X332211D02*
D03*
X347211D02*
D03*
X362211D02*
D03*
X377211D02*
D03*
X392211D02*
D03*
X407211D02*
D03*
X422211D02*
D03*
X437211D02*
D03*
X452211D02*
D03*
X467211D02*
D03*
X482211D02*
D03*
X497211D02*
D03*
X512211D02*
D03*
X527211D02*
D03*
X542211D02*
D03*
X557211D02*
D03*
X572211D02*
D03*
X587211D02*
D03*
X602211D02*
D03*
X617211D02*
D03*
X632211D02*
D03*
X647211D02*
D03*
X662211D02*
D03*
X677211D02*
D03*
X692211D02*
D03*
X707211D02*
D03*
X722211D02*
D03*
X737211D02*
D03*
X752211D02*
D03*
X767211D02*
D03*
X782211D02*
D03*
X797211D02*
D03*
X812211D02*
D03*
X827211D02*
D03*
X842211D02*
D03*
X857211D02*
D03*
X872211D02*
D03*
X887211D02*
D03*
X902209Y635147D02*
D03*
X917106Y633388D02*
D03*
X919290Y666412D02*
D03*
X904306Y665723D02*
D03*
X889344Y664654D02*
D03*
X874344D02*
D03*
X859344D02*
D03*
X844344D02*
D03*
X829344D02*
D03*
X814344D02*
D03*
X799344D02*
D03*
X784344D02*
D03*
X769344D02*
D03*
X754344D02*
D03*
X739344D02*
D03*
X724344D02*
D03*
X709344D02*
D03*
X694344D02*
D03*
X679344D02*
D03*
X664344D02*
D03*
X649344D02*
D03*
X634344D02*
D03*
X619344D02*
D03*
X604344D02*
D03*
X589344D02*
D03*
X574344D02*
D03*
X559344D02*
D03*
X544344D02*
D03*
X529344D02*
D03*
X514344D02*
D03*
X499344D02*
D03*
X484344D02*
D03*
X469344D02*
D03*
X454344D02*
D03*
X439344D02*
D03*
X424344D02*
D03*
X409344D02*
D03*
X394345D02*
D03*
X379345D02*
D03*
X364345D02*
D03*
X349345D02*
D03*
X334345D02*
D03*
X319345D02*
D03*
X304345D02*
D03*
X289345D02*
D03*
X274345D02*
D03*
X259345D02*
D03*
X244345D02*
D03*
X229345D02*
D03*
X214345D02*
D03*
X199345D02*
D03*
X184345D02*
D03*
X169345D02*
D03*
X154345D02*
D03*
X139345D02*
D03*
X124345D02*
D03*
X109345D02*
D03*
X94345D02*
D03*
X79345D02*
D03*
X64345D02*
D03*
X1056498Y381209D02*
D03*
X1026498D02*
D03*
X996498Y501209D02*
D03*
X1011498Y411209D02*
D03*
X996498Y381209D02*
D03*
X966498Y501209D02*
D03*
X981498Y411209D02*
D03*
X966498Y381209D02*
D03*
X936498Y501209D02*
D03*
X951498Y411209D02*
D03*
X936498Y381209D02*
D03*
X906498Y501209D02*
D03*
X921498Y411209D02*
D03*
X906498Y381209D02*
D03*
X876498Y501209D02*
D03*
X891498Y411209D02*
D03*
X876498Y381209D02*
D03*
X846498Y501209D02*
D03*
X861498Y411209D02*
D03*
X846498Y381209D02*
D03*
X816498Y501209D02*
D03*
X831498Y411209D02*
D03*
X816498Y381209D02*
D03*
X786498Y501209D02*
D03*
X801498Y411209D02*
D03*
X786498Y381209D02*
D03*
X756498Y501209D02*
D03*
X771498Y411209D02*
D03*
X756498Y381209D02*
D03*
X726498Y501209D02*
D03*
X741498Y411209D02*
D03*
X726498Y381209D02*
D03*
X696498Y501209D02*
D03*
X711498Y411209D02*
D03*
X696498Y381209D02*
D03*
X666498Y501209D02*
D03*
X681498Y411209D02*
D03*
X666498Y381209D02*
D03*
X636498Y501209D02*
D03*
X651498Y411209D02*
D03*
X636498Y381209D02*
D03*
X606498Y501209D02*
D03*
X621498Y411209D02*
D03*
X606498Y381209D02*
D03*
X576498Y501209D02*
D03*
X591498Y411209D02*
D03*
X576498Y381209D02*
D03*
X546498Y501209D02*
D03*
X561498Y411209D02*
D03*
X546498Y381209D02*
D03*
X516498Y501209D02*
D03*
X531498Y411209D02*
D03*
X516498Y381209D02*
D03*
X486498Y501209D02*
D03*
X501498Y411209D02*
D03*
X486498Y381209D02*
D03*
X456498Y501209D02*
D03*
X471498Y411209D02*
D03*
X456498Y381209D02*
D03*
X426498Y501209D02*
D03*
X441498Y411209D02*
D03*
X426498Y381209D02*
D03*
X396498Y501209D02*
D03*
X411498Y411209D02*
D03*
X396498Y381209D02*
D03*
X366498Y501209D02*
D03*
X381498Y411209D02*
D03*
X366498Y381209D02*
D03*
X336498Y501209D02*
D03*
X351498Y411209D02*
D03*
X336498Y381209D02*
D03*
X306498Y501209D02*
D03*
X321498Y411209D02*
D03*
X306498Y381209D02*
D03*
X276498Y501209D02*
D03*
X291498Y411209D02*
D03*
X276498Y381209D02*
D03*
X246498Y501209D02*
D03*
X261498Y411209D02*
D03*
X246498Y381209D02*
D03*
X216498Y501209D02*
D03*
X231498Y411209D02*
D03*
X216498Y381209D02*
D03*
X186498Y501209D02*
D03*
X201498Y411209D02*
D03*
X186498Y381209D02*
D03*
X156498Y501209D02*
D03*
X171498Y411209D02*
D03*
X156498Y381209D02*
D03*
X126498Y501209D02*
D03*
X141498Y411209D02*
D03*
X126498Y381209D02*
D03*
X96498Y501209D02*
D03*
X111498Y411209D02*
D03*
X96498Y381209D02*
D03*
X81498Y411209D02*
D03*
X66498Y381209D02*
D03*
X1056498Y171209D02*
D03*
X1026498D02*
D03*
X1011498Y321209D02*
D03*
X996498Y291209D02*
D03*
X1011498Y201209D02*
D03*
X996498Y171209D02*
D03*
X981498Y321209D02*
D03*
X966498Y291209D02*
D03*
X981498Y201209D02*
D03*
X966498Y171209D02*
D03*
X951498Y321209D02*
D03*
X936498Y291209D02*
D03*
X951498Y201209D02*
D03*
X936498Y171209D02*
D03*
X921498Y321209D02*
D03*
X906498Y291209D02*
D03*
X921498Y201209D02*
D03*
X906498Y171209D02*
D03*
X891498Y321209D02*
D03*
X876498Y291209D02*
D03*
X891498Y201209D02*
D03*
X876498Y171209D02*
D03*
X861498Y321209D02*
D03*
X846498Y291209D02*
D03*
X861498Y201209D02*
D03*
X846498Y171209D02*
D03*
X831498Y321209D02*
D03*
X816498Y291209D02*
D03*
X831498Y201209D02*
D03*
X816498Y171209D02*
D03*
X801498Y321209D02*
D03*
X786498Y291209D02*
D03*
X801498Y201209D02*
D03*
X786498Y171209D02*
D03*
X771498Y321209D02*
D03*
X756498Y291209D02*
D03*
X771498Y201209D02*
D03*
X756498Y171209D02*
D03*
X741498Y321209D02*
D03*
X726498Y291209D02*
D03*
X741498Y201209D02*
D03*
X726498Y171209D02*
D03*
X711498Y321209D02*
D03*
X696498Y291209D02*
D03*
X711498Y201209D02*
D03*
X696498Y171209D02*
D03*
X681498Y321209D02*
D03*
X666498Y291209D02*
D03*
X681498Y201209D02*
D03*
X666498Y171209D02*
D03*
X651498Y321209D02*
D03*
X636498Y291209D02*
D03*
X651498Y201209D02*
D03*
X636498Y171209D02*
D03*
X621498Y321209D02*
D03*
X606498Y291209D02*
D03*
X621498Y201209D02*
D03*
X606498Y171209D02*
D03*
X591498Y321209D02*
D03*
X576498Y291209D02*
D03*
X591498Y201209D02*
D03*
X576498Y171209D02*
D03*
X561498Y321209D02*
D03*
X546498Y291209D02*
D03*
X561498Y201209D02*
D03*
X546498Y171209D02*
D03*
X531498Y321209D02*
D03*
X516498Y291209D02*
D03*
X531498Y201209D02*
D03*
X516498Y171209D02*
D03*
X501498Y321209D02*
D03*
X486498Y291209D02*
D03*
X501498Y201209D02*
D03*
X486498Y171209D02*
D03*
X471498Y321209D02*
D03*
X456498Y291209D02*
D03*
X471498Y201209D02*
D03*
X456498Y171209D02*
D03*
X441498Y321209D02*
D03*
X426498Y291209D02*
D03*
X441498Y201209D02*
D03*
X426498Y171209D02*
D03*
X411498Y321209D02*
D03*
X396498Y291209D02*
D03*
X411498Y201209D02*
D03*
X396498Y171209D02*
D03*
X381498Y321209D02*
D03*
X366498Y291209D02*
D03*
X381498Y201209D02*
D03*
X366498Y171209D02*
D03*
X351498Y321209D02*
D03*
X336498Y291209D02*
D03*
X351498Y201209D02*
D03*
X336498Y171209D02*
D03*
X321498Y321209D02*
D03*
X306498Y291209D02*
D03*
X321498Y201209D02*
D03*
X306498Y171209D02*
D03*
X291498Y321209D02*
D03*
X276498Y291209D02*
D03*
X291498Y201209D02*
D03*
X276498Y171209D02*
D03*
X261498Y321209D02*
D03*
X246498Y291209D02*
D03*
X261498Y201209D02*
D03*
X246498Y171209D02*
D03*
X231498Y321209D02*
D03*
X216498Y291209D02*
D03*
X231498Y201209D02*
D03*
X216498Y171209D02*
D03*
X201498Y321209D02*
D03*
X186498Y291209D02*
D03*
X201498Y201209D02*
D03*
X186498Y171209D02*
D03*
X171498Y321209D02*
D03*
X156498Y291209D02*
D03*
X171498Y201209D02*
D03*
X156498Y171209D02*
D03*
X141498Y321209D02*
D03*
X126498Y291209D02*
D03*
X141498Y201209D02*
D03*
X126498Y171209D02*
D03*
X111498Y321209D02*
D03*
X96498Y291209D02*
D03*
X111498Y201209D02*
D03*
X96498Y171209D02*
D03*
X81498Y321209D02*
D03*
X66498Y171209D02*
D03*
X36498D02*
D03*
X639162Y464249D02*
D03*
X689162D02*
D03*
X546764Y435751D02*
D03*
X379162Y464249D02*
D03*
X986763Y435751D02*
D03*
X336764D02*
D03*
X669162Y464249D02*
D03*
X679162D02*
D03*
X229162D02*
D03*
X1019161D02*
D03*
X509162D02*
D03*
X519162D02*
D03*
X216765Y435751D02*
D03*
X219162Y464249D02*
D03*
X769161D02*
D03*
X626764Y435751D02*
D03*
X549162Y464249D02*
D03*
X96765Y435751D02*
D03*
X209162Y464249D02*
D03*
X389162D02*
D03*
X439162D02*
D03*
X909161D02*
D03*
X716764Y435751D02*
D03*
X346764D02*
D03*
X849161Y464249D02*
D03*
X506764Y435751D02*
D03*
X709161Y464249D02*
D03*
X206765Y435751D02*
D03*
X236765D02*
D03*
X66765D02*
D03*
X516764D02*
D03*
X406764D02*
D03*
X126765D02*
D03*
X289162Y464249D02*
D03*
X299162D02*
D03*
X409162D02*
D03*
X399162D02*
D03*
X676764Y435751D02*
D03*
X906763D02*
D03*
X356764D02*
D03*
X1016763D02*
D03*
X279162Y464249D02*
D03*
X226765Y435751D02*
D03*
X959161Y464249D02*
D03*
X736764Y435751D02*
D03*
X619162Y464249D02*
D03*
X799161D02*
D03*
X286765Y435751D02*
D03*
X269162Y464249D02*
D03*
X106765Y435751D02*
D03*
X939161Y464249D02*
D03*
X589162D02*
D03*
X359162D02*
D03*
X369162D02*
D03*
X196765Y435751D02*
D03*
X876763D02*
D03*
X566764D02*
D03*
X189163Y464249D02*
D03*
X456764Y435751D02*
D03*
X339162Y464249D02*
D03*
X659162D02*
D03*
X609162D02*
D03*
X899161D02*
D03*
X186765Y435751D02*
D03*
X686764D02*
D03*
X309162Y464249D02*
D03*
X779161D02*
D03*
X869161D02*
D03*
X776764Y435751D02*
D03*
X419162Y464249D02*
D03*
X116765Y435751D02*
D03*
X489162Y464249D02*
D03*
X829161D02*
D03*
X176765Y435751D02*
D03*
X739161Y464249D02*
D03*
X786764Y435751D02*
D03*
X169163Y464249D02*
D03*
X496764Y435751D02*
D03*
X89163Y464249D02*
D03*
X329162D02*
D03*
X936763Y435751D02*
D03*
X649162Y464249D02*
D03*
X929161D02*
D03*
X576764Y435751D02*
D03*
X466764D02*
D03*
X256765D02*
D03*
X646764D02*
D03*
X946763D02*
D03*
X796764D02*
D03*
X999161Y464249D02*
D03*
X759161D02*
D03*
X426764Y435751D02*
D03*
X699161Y464249D02*
D03*
X846763Y435751D02*
D03*
X839161Y464249D02*
D03*
X616764Y435751D02*
D03*
X636764D02*
D03*
X886763D02*
D03*
X166765D02*
D03*
X79163Y464249D02*
D03*
X479162D02*
D03*
X949161D02*
D03*
X809161D02*
D03*
X156765Y435751D02*
D03*
X966763D02*
D03*
X956763D02*
D03*
X889161Y464249D02*
D03*
X199162D02*
D03*
X629162D02*
D03*
X749161D02*
D03*
X726764Y435751D02*
D03*
X896763D02*
D03*
X586764D02*
D03*
X76765D02*
D03*
X579162Y464249D02*
D03*
X756764Y435751D02*
D03*
X249162Y464249D02*
D03*
X99163D02*
D03*
X996763Y435751D02*
D03*
X719161Y464249D02*
D03*
X1009161D02*
D03*
X149163D02*
D03*
X159163D02*
D03*
X866763Y435751D02*
D03*
X296765D02*
D03*
X606764D02*
D03*
X239162Y464249D02*
D03*
X979161D02*
D03*
X976763Y435751D02*
D03*
X666764D02*
D03*
X989161Y464249D02*
D03*
X259162D02*
D03*
X1029161D02*
D03*
X856763Y435751D02*
D03*
X596764D02*
D03*
X306765D02*
D03*
X556764D02*
D03*
X446764D02*
D03*
X476764D02*
D03*
X559162Y464249D02*
D03*
X806764Y435751D02*
D03*
X366764D02*
D03*
X316765D02*
D03*
X729161Y464249D02*
D03*
X859161D02*
D03*
X656764Y435751D02*
D03*
X696764D02*
D03*
X429162Y464249D02*
D03*
X746764Y435751D02*
D03*
X436764D02*
D03*
X459162Y464249D02*
D03*
X816764Y435751D02*
D03*
X326764D02*
D03*
X499162Y464249D02*
D03*
X926763Y435751D02*
D03*
X529162Y464249D02*
D03*
X69163D02*
D03*
X486764Y435751D02*
D03*
X879161Y464249D02*
D03*
X1006763Y435751D02*
D03*
X179163Y464249D02*
D03*
X276765Y435751D02*
D03*
X1036763D02*
D03*
X246765D02*
D03*
X599162Y464249D02*
D03*
X266765Y435751D02*
D03*
X386764D02*
D03*
X139163Y464249D02*
D03*
X569162D02*
D03*
X539162D02*
D03*
X826763Y435751D02*
D03*
X536764D02*
D03*
X376764D02*
D03*
X789161Y464249D02*
D03*
X819161D02*
D03*
X119163D02*
D03*
X766764Y435751D02*
D03*
X919161Y464249D02*
D03*
X706764Y435751D02*
D03*
X396764D02*
D03*
X136765D02*
D03*
X916763D02*
D03*
X416764D02*
D03*
X86765D02*
D03*
X1026763D02*
D03*
X469162Y464249D02*
D03*
X969161D02*
D03*
X109163D02*
D03*
X129163D02*
D03*
X319162D02*
D03*
X449162D02*
D03*
X526764Y435751D02*
D03*
X349162Y464249D02*
D03*
X836763Y435751D02*
D03*
X146765D02*
D03*
X1032434Y264655D02*
D03*
X1017434D02*
D03*
X1002434D02*
D03*
X987434D02*
D03*
X972434D02*
D03*
X957434D02*
D03*
X942434D02*
D03*
X927434D02*
D03*
X912434D02*
D03*
X897434D02*
D03*
X882434D02*
D03*
X867434D02*
D03*
X852434D02*
D03*
X837434D02*
D03*
X822434D02*
D03*
X807434D02*
D03*
X792434D02*
D03*
X777434D02*
D03*
X762434D02*
D03*
X747434D02*
D03*
X732434D02*
D03*
X717434D02*
D03*
X702434D02*
D03*
X687434D02*
D03*
X672434D02*
D03*
X657434D02*
D03*
X642434D02*
D03*
X627434D02*
D03*
X612434D02*
D03*
X597434D02*
D03*
X582434D02*
D03*
X567434D02*
D03*
X552434D02*
D03*
X537434D02*
D03*
X522434D02*
D03*
X507434D02*
D03*
X492434D02*
D03*
X477434D02*
D03*
X462434D02*
D03*
X447434D02*
D03*
X432434D02*
D03*
X417434D02*
D03*
X402434D02*
D03*
X387434D02*
D03*
X372434D02*
D03*
X357434D02*
D03*
X342434D02*
D03*
X327434D02*
D03*
X312434D02*
D03*
X297434D02*
D03*
X282434D02*
D03*
X267434D02*
D03*
X252434D02*
D03*
X237434D02*
D03*
X222434D02*
D03*
X207434D02*
D03*
X192434D02*
D03*
X177434D02*
D03*
X162434D02*
D03*
X147434D02*
D03*
X132434D02*
D03*
X117434D02*
D03*
X102434D02*
D03*
X87434D02*
D03*
X72434D02*
D03*
X65777Y235345D02*
D03*
X80777D02*
D03*
X95777D02*
D03*
X110777D02*
D03*
X125777D02*
D03*
X140777D02*
D03*
X155777D02*
D03*
X170777D02*
D03*
X185777D02*
D03*
X200777D02*
D03*
X215777D02*
D03*
X230777D02*
D03*
X245777D02*
D03*
X260777D02*
D03*
X275777D02*
D03*
X290777D02*
D03*
X305777D02*
D03*
X320776D02*
D03*
X335776D02*
D03*
X350776D02*
D03*
X365776D02*
D03*
X380776D02*
D03*
X395776D02*
D03*
X410776D02*
D03*
X425776D02*
D03*
X440776D02*
D03*
X455776D02*
D03*
X470776D02*
D03*
X485776D02*
D03*
X500776D02*
D03*
X515776D02*
D03*
X530776D02*
D03*
X545776D02*
D03*
X560776D02*
D03*
X575776D02*
D03*
X590776D02*
D03*
X605776D02*
D03*
X620776D02*
D03*
X635776D02*
D03*
X650776D02*
D03*
X665776D02*
D03*
X680776D02*
D03*
X695776D02*
D03*
X710776D02*
D03*
X725776D02*
D03*
X740776D02*
D03*
X755776D02*
D03*
X770776D02*
D03*
X785776D02*
D03*
X800776D02*
D03*
X815776D02*
D03*
X830776D02*
D03*
X845776D02*
D03*
X860776D02*
D03*
X875776D02*
D03*
X890776D02*
D03*
X905776D02*
D03*
X920776D02*
D03*
X935776D02*
D03*
X950776D02*
D03*
X965776D02*
D03*
X980776D02*
D03*
X995776D02*
D03*
X1010776D02*
D03*
X1025776D02*
D03*
X1091000Y2498500D02*
D03*
Y2513500D02*
D03*
X1081000Y2506000D02*
D03*
X1071000Y2498500D02*
D03*
Y2513500D02*
D03*
X1061000Y2506000D02*
D03*
X1051000Y2498500D02*
D03*
Y2513500D02*
D03*
X1041000Y2581000D02*
D03*
X1031000D02*
D03*
X1021000D02*
D03*
Y2429200D02*
D03*
X1031000D02*
D03*
X1041000D02*
D03*
X60000Y2580000D02*
D03*
X70000D02*
D03*
X80000D02*
D03*
Y2428200D02*
D03*
X70000D02*
D03*
X60000D02*
D03*
X10000Y2497500D02*
D03*
Y2512500D02*
D03*
X20000Y2505000D02*
D03*
X30000Y2497500D02*
D03*
Y2512500D02*
D03*
X40000Y2505000D02*
D03*
X50000Y2497500D02*
D03*
Y2512500D02*
D03*
X309367Y2096750D02*
D03*
Y2113250D02*
D03*
X792000Y2096750D02*
D03*
Y2113250D02*
D03*
X1040000Y1655000D02*
D03*
Y1755000D02*
D03*
X58500Y1656500D02*
D03*
X60000Y1760000D02*
D03*
X83500Y1686500D02*
D03*
Y1716500D02*
D03*
Y1671500D02*
D03*
Y1731500D02*
D03*
X71000Y1664000D02*
D03*
Y1679000D02*
D03*
Y1694000D02*
D03*
Y1724000D02*
D03*
Y1739000D02*
D03*
X1051000Y2313500D02*
D03*
Y2298500D02*
D03*
X1061000Y2306000D02*
D03*
X1071000Y2313500D02*
D03*
Y2298500D02*
D03*
X1081000Y2306000D02*
D03*
X1091000Y2313500D02*
D03*
Y2298500D02*
D03*
X50000Y2312500D02*
D03*
Y2297500D02*
D03*
X40000Y2305000D02*
D03*
X30000Y2312500D02*
D03*
Y2297500D02*
D03*
X20000Y2305000D02*
D03*
X10000Y2312500D02*
D03*
Y2297500D02*
D03*
X50000Y2112500D02*
D03*
Y2097500D02*
D03*
X40000Y2105000D02*
D03*
X30000Y2112500D02*
D03*
Y2097500D02*
D03*
X20000Y2105000D02*
D03*
X10000Y2112500D02*
D03*
Y2097500D02*
D03*
X1051000Y2113500D02*
D03*
Y2098500D02*
D03*
X1061000Y2106000D02*
D03*
X1071000Y2113500D02*
D03*
Y2098500D02*
D03*
X1081000Y2106000D02*
D03*
X1091000Y2113500D02*
D03*
Y2098500D02*
D03*
X1051000Y1913500D02*
D03*
Y1898500D02*
D03*
X1061000Y1906000D02*
D03*
X1071000Y1913500D02*
D03*
Y1898500D02*
D03*
X1081000Y1906000D02*
D03*
X1091000Y1913500D02*
D03*
Y1898500D02*
D03*
X50000Y1912500D02*
D03*
Y1897500D02*
D03*
X40000Y1905000D02*
D03*
X30000Y1912500D02*
D03*
Y1897500D02*
D03*
X20000Y1905000D02*
D03*
X10000Y1912500D02*
D03*
Y1897500D02*
D03*
X1051000Y1513500D02*
D03*
Y1498500D02*
D03*
X1061000Y1506000D02*
D03*
X1071000Y1513500D02*
D03*
Y1498500D02*
D03*
X1081000Y1506000D02*
D03*
X1091000Y1513500D02*
D03*
Y1498500D02*
D03*
X10000Y1497500D02*
D03*
Y1512500D02*
D03*
X20000Y1505000D02*
D03*
X30000Y1497500D02*
D03*
Y1512500D02*
D03*
X40000Y1505000D02*
D03*
X50000Y1497500D02*
D03*
Y1512500D02*
D03*
X808000Y1168000D02*
D03*
Y1182000D02*
D03*
X292000Y1168000D02*
D03*
Y1182000D02*
D03*
X60000Y1428200D02*
D03*
X70000D02*
D03*
X80000D02*
D03*
Y1580000D02*
D03*
X70000D02*
D03*
X60000D02*
D03*
X1040000Y2028200D02*
D03*
X1030000D02*
D03*
X1020000D02*
D03*
Y2180000D02*
D03*
X1030000D02*
D03*
X1040000D02*
D03*
Y2228200D02*
D03*
X1030000D02*
D03*
X1020000D02*
D03*
Y2380000D02*
D03*
X1030000D02*
D03*
X1040000D02*
D03*
X60000Y2228200D02*
D03*
X70000D02*
D03*
X80000D02*
D03*
Y2380000D02*
D03*
X70000D02*
D03*
X60000D02*
D03*
Y2028200D02*
D03*
X70000D02*
D03*
X80000D02*
D03*
Y2180000D02*
D03*
X70000D02*
D03*
X60000D02*
D03*
X1040000Y1790000D02*
D03*
Y1775000D02*
D03*
X1030000Y1740000D02*
D03*
Y1725000D02*
D03*
Y1695000D02*
D03*
Y1680000D02*
D03*
Y1665000D02*
D03*
X1040000Y1640000D02*
D03*
Y1620000D02*
D03*
X1085000Y1610000D02*
D03*
X1060000D02*
D03*
X1085000Y1705000D02*
D03*
X1060000D02*
D03*
X1027500Y1782500D02*
D03*
X1017500Y1732500D02*
D03*
Y1672500D02*
D03*
X1027500Y1632500D02*
D03*
Y1767500D02*
D03*
X1017500Y1717500D02*
D03*
Y1687500D02*
D03*
X1027500Y1612500D02*
D03*
X72500D02*
D03*
Y1767500D02*
D03*
Y1632500D02*
D03*
Y1782500D02*
D03*
X40000Y1705000D02*
D03*
X15000D02*
D03*
X40000Y1610000D02*
D03*
X15000D02*
D03*
X60000Y1620000D02*
D03*
Y1640000D02*
D03*
Y1775000D02*
D03*
Y1790000D02*
D03*
X1040000Y1980000D02*
D03*
X1030000D02*
D03*
X1020000D02*
D03*
Y1828200D02*
D03*
X1030000D02*
D03*
X1040000D02*
D03*
X60000Y1980000D02*
D03*
X70000D02*
D03*
X80000D02*
D03*
Y1828200D02*
D03*
X70000D02*
D03*
X60000D02*
D03*
X1040000Y1581000D02*
D03*
X1030000D02*
D03*
X1020000D02*
D03*
Y1429200D02*
D03*
X1030000D02*
D03*
X1040000D02*
D03*
X1085000Y1266000D02*
D03*
X1065000D02*
D03*
X1045000D02*
D03*
X1075000Y1281000D02*
D03*
X1055000D02*
D03*
X1035000D02*
D03*
Y1301000D02*
D03*
X1045000Y1291000D02*
D03*
Y1361000D02*
D03*
X1035000Y1351000D02*
D03*
Y1371000D02*
D03*
X1055000D02*
D03*
X1075000D02*
D03*
X1045000Y1386000D02*
D03*
X1065000D02*
D03*
X1085000D02*
D03*
Y1116000D02*
D03*
X1065000D02*
D03*
X1045000D02*
D03*
X1075000Y1131000D02*
D03*
X1055000D02*
D03*
X1035000D02*
D03*
Y1151000D02*
D03*
X1045000Y1141000D02*
D03*
Y1211000D02*
D03*
X1035000Y1201000D02*
D03*
Y1221000D02*
D03*
X1055000D02*
D03*
X1075000D02*
D03*
X1045000Y1236000D02*
D03*
X1065000D02*
D03*
X1085000D02*
D03*
Y966000D02*
D03*
X1065000D02*
D03*
X1045000D02*
D03*
X1075000Y981000D02*
D03*
X1055000D02*
D03*
X1035000D02*
D03*
Y1001000D02*
D03*
X1045000Y991000D02*
D03*
Y1061000D02*
D03*
X1035000Y1051000D02*
D03*
Y1071000D02*
D03*
X1055000D02*
D03*
X1075000D02*
D03*
X1045000Y1086000D02*
D03*
X1065000D02*
D03*
X1085000D02*
D03*
X15000Y1385000D02*
D03*
X35000D02*
D03*
X55000D02*
D03*
X25000Y1370000D02*
D03*
X45000D02*
D03*
X65000D02*
D03*
Y1350000D02*
D03*
X55000Y1360000D02*
D03*
Y1290000D02*
D03*
X65000Y1300000D02*
D03*
Y1280000D02*
D03*
X45000D02*
D03*
X25000D02*
D03*
X55000Y1265000D02*
D03*
X35000D02*
D03*
X15000D02*
D03*
Y1235000D02*
D03*
X35000D02*
D03*
X55000D02*
D03*
X25000Y1220000D02*
D03*
X45000D02*
D03*
X65000D02*
D03*
Y1200000D02*
D03*
X55000Y1210000D02*
D03*
Y1140000D02*
D03*
X65000Y1150000D02*
D03*
Y1130000D02*
D03*
X45000D02*
D03*
X25000D02*
D03*
X55000Y1115000D02*
D03*
X35000D02*
D03*
X15000D02*
D03*
Y1085000D02*
D03*
X35000D02*
D03*
X55000D02*
D03*
X25000Y1070000D02*
D03*
X45000D02*
D03*
X65000D02*
D03*
Y1050000D02*
D03*
X55000Y1060000D02*
D03*
Y990000D02*
D03*
X65000Y1000000D02*
D03*
Y980000D02*
D03*
X45000D02*
D03*
X25000D02*
D03*
X55000Y965000D02*
D03*
X35000D02*
D03*
X15000D02*
D03*
X1085000Y591000D02*
D03*
X1065000D02*
D03*
X1045000D02*
D03*
X1075000Y606000D02*
D03*
X1055000D02*
D03*
X1035000D02*
D03*
Y626000D02*
D03*
X1045000Y616000D02*
D03*
Y686000D02*
D03*
X1035000Y676000D02*
D03*
Y696000D02*
D03*
X1055000D02*
D03*
X1075000D02*
D03*
X1045000Y711000D02*
D03*
X1065000D02*
D03*
X1085000D02*
D03*
X1045000Y666000D02*
D03*
Y636000D02*
D03*
X1085000Y791000D02*
D03*
X1065000D02*
D03*
X1045000D02*
D03*
X1075000Y806000D02*
D03*
X1055000D02*
D03*
X1035000D02*
D03*
Y826000D02*
D03*
X1045000Y816000D02*
D03*
Y886000D02*
D03*
X1035000Y876000D02*
D03*
Y896000D02*
D03*
X1055000D02*
D03*
X1075000D02*
D03*
X1045000Y911000D02*
D03*
X1065000D02*
D03*
X1085000D02*
D03*
X1045000Y866000D02*
D03*
Y836000D02*
D03*
X16000Y790000D02*
D03*
X36000D02*
D03*
X56000D02*
D03*
X26000Y805000D02*
D03*
X46000D02*
D03*
X66000D02*
D03*
Y825000D02*
D03*
X56000Y815000D02*
D03*
Y885000D02*
D03*
X66000Y875000D02*
D03*
Y895000D02*
D03*
X46000D02*
D03*
X26000D02*
D03*
X56000Y910000D02*
D03*
X36000D02*
D03*
X16000D02*
D03*
X56000Y865000D02*
D03*
Y835000D02*
D03*
X16000Y590000D02*
D03*
X36000D02*
D03*
X56000D02*
D03*
X26000Y605000D02*
D03*
X46000D02*
D03*
X66000D02*
D03*
Y625000D02*
D03*
X56000Y615000D02*
D03*
Y685000D02*
D03*
X66000Y675000D02*
D03*
Y695000D02*
D03*
X46000D02*
D03*
X26000D02*
D03*
X56000Y710000D02*
D03*
X36000D02*
D03*
X16000D02*
D03*
X56000Y665000D02*
D03*
Y635000D02*
D03*
X16000Y390000D02*
D03*
X36000D02*
D03*
X56000D02*
D03*
X26000Y405000D02*
D03*
X46000D02*
D03*
X66000D02*
D03*
Y425000D02*
D03*
X56000Y415000D02*
D03*
Y485000D02*
D03*
X66000Y475000D02*
D03*
Y495000D02*
D03*
X46000D02*
D03*
X26000D02*
D03*
X56000Y510000D02*
D03*
X36000D02*
D03*
X16000D02*
D03*
X56000Y465000D02*
D03*
Y435000D02*
D03*
X16000Y190000D02*
D03*
X36000D02*
D03*
X56000D02*
D03*
X26000Y205000D02*
D03*
X46000D02*
D03*
X66000D02*
D03*
Y225000D02*
D03*
X56000Y215000D02*
D03*
Y285000D02*
D03*
X66000Y275000D02*
D03*
Y295000D02*
D03*
X46000D02*
D03*
X26000D02*
D03*
X56000Y310000D02*
D03*
X36000D02*
D03*
X16000D02*
D03*
X56000Y265000D02*
D03*
Y235000D02*
D03*
X1085000Y191000D02*
D03*
X1065000D02*
D03*
X1045000D02*
D03*
X1075000Y206000D02*
D03*
X1055000D02*
D03*
X1035000D02*
D03*
Y226000D02*
D03*
X1045000Y216000D02*
D03*
Y286000D02*
D03*
X1035000Y276000D02*
D03*
Y296000D02*
D03*
X1055000D02*
D03*
X1075000D02*
D03*
X1045000Y311000D02*
D03*
X1065000D02*
D03*
X1085000D02*
D03*
X1045000Y266000D02*
D03*
Y236000D02*
D03*
Y436000D02*
D03*
Y466000D02*
D03*
X1085000Y511000D02*
D03*
X1065000D02*
D03*
X1045000D02*
D03*
X1075000Y496000D02*
D03*
X1055000D02*
D03*
X1035000D02*
D03*
Y476000D02*
D03*
X1045000Y486000D02*
D03*
Y416000D02*
D03*
X1035000Y426000D02*
D03*
Y406000D02*
D03*
X1055000D02*
D03*
X1075000D02*
D03*
X1045000Y391000D02*
D03*
X1065000D02*
D03*
X1085000D02*
D03*
Y135000D02*
D03*
X1065000D02*
D03*
X1045000D02*
D03*
X1075000Y120000D02*
D03*
X1055000D02*
D03*
X1035000D02*
D03*
Y100000D02*
D03*
X1045000Y110000D02*
D03*
Y40000D02*
D03*
X1035000Y50000D02*
D03*
Y30000D02*
D03*
X1055000D02*
D03*
X1075000D02*
D03*
X1045000Y15000D02*
D03*
X1065000D02*
D03*
X1085000D02*
D03*
X15000D02*
D03*
X35000D02*
D03*
X55000D02*
D03*
X25000Y30000D02*
D03*
X45000D02*
D03*
X65000D02*
D03*
Y50000D02*
D03*
X55000Y40000D02*
D03*
Y110000D02*
D03*
X65000Y100000D02*
D03*
Y120000D02*
D03*
X45000D02*
D03*
X25000D02*
D03*
X55000Y135000D02*
D03*
X35000D02*
D03*
X15000D02*
D03*
D20*
X800000Y2109500D02*
D03*
Y2100500D02*
D03*
X301367Y2109500D02*
D03*
Y2100500D02*
D03*
X800000Y1909500D02*
D03*
Y1900500D02*
D03*
X301367Y1909500D02*
D03*
Y1900500D02*
D03*
X300000Y1175000D02*
D03*
X800000D02*
D03*
Y1025000D02*
D03*
X300000D02*
D03*
M02*
