G04*
G04 #@! TF.GenerationSoftware,Altium Limited,Altium Designer,26.3.0 (6)*
G04*
G04 Layer_Color=2752767*
%FSLAX44Y44*%
%MOMM*%
G71*
G04*
G04 #@! TF.SameCoordinates,457E2347-D248-4FD0-A138-36721A4E8DCB*
G04*
G04*
G04 #@! TF.FilePolarity,Positive*
G04*
G01*
G75*
%ADD27C,0.0508*%
D27*
X1009466Y1159177D02*
Y1163241D01*
X1013530D01*
Y1159177D01*
X1009466D01*
Y1099177D02*
Y1103241D01*
X1013530D01*
Y1099177D01*
X1009466D01*
X994466Y1069177D02*
Y1073241D01*
X998530D01*
Y1069177D01*
X994466D01*
X979466Y1159177D02*
Y1163241D01*
X983530D01*
Y1159177D01*
X979466D01*
Y1099177D02*
Y1103241D01*
X983530D01*
Y1099177D01*
X979466D01*
X964466Y1069177D02*
Y1073241D01*
X968530D01*
Y1069177D01*
X964466D01*
X949466Y1159177D02*
Y1163241D01*
X953530D01*
Y1159177D01*
X949466D01*
Y1099177D02*
Y1103241D01*
X953530D01*
Y1099177D01*
X949466D01*
X934466Y1069177D02*
Y1073241D01*
X938530D01*
Y1069177D01*
X934466D01*
X919466Y1159177D02*
Y1163241D01*
X923530D01*
Y1159177D01*
X919466D01*
Y1099177D02*
Y1103241D01*
X923530D01*
Y1099177D01*
X919466D01*
X904466Y1069177D02*
Y1073241D01*
X908530D01*
Y1069177D01*
X904466D01*
X889466Y1159177D02*
Y1163241D01*
X893530D01*
Y1159177D01*
X889466D01*
Y1099177D02*
Y1103241D01*
X893530D01*
Y1099177D01*
X889466D01*
X874466Y1069177D02*
Y1073241D01*
X878530D01*
Y1069177D01*
X874466D01*
X859466Y1159177D02*
Y1163241D01*
X863530D01*
Y1159177D01*
X859466D01*
Y1099177D02*
Y1103241D01*
X863530D01*
Y1099177D01*
X859466D01*
X844466Y1069177D02*
Y1073241D01*
X848530D01*
Y1069177D01*
X844466D01*
X829466Y1159177D02*
Y1163241D01*
X833530D01*
Y1159177D01*
X829466D01*
Y1099177D02*
Y1103241D01*
X833530D01*
Y1099177D01*
X829466D01*
X814466Y1069177D02*
Y1073241D01*
X818530D01*
Y1069177D01*
X814466D01*
X799466Y1159177D02*
Y1163241D01*
X803530D01*
Y1159177D01*
X799466D01*
Y1099177D02*
Y1103241D01*
X803530D01*
Y1099177D01*
X799466D01*
X784466Y1069177D02*
Y1073241D01*
X788530D01*
Y1069177D01*
X784466D01*
X769466Y1159177D02*
Y1163241D01*
X773530D01*
Y1159177D01*
X769466D01*
Y1099177D02*
Y1103241D01*
X773530D01*
Y1099177D01*
X769466D01*
X754466Y1069177D02*
Y1073241D01*
X758530D01*
Y1069177D01*
X754466D01*
X739466Y1159177D02*
Y1163241D01*
X743530D01*
Y1159177D01*
X739466D01*
Y1099177D02*
Y1103241D01*
X743530D01*
Y1099177D01*
X739466D01*
X724466Y1069177D02*
Y1073241D01*
X728530D01*
Y1069177D01*
X724466D01*
X709466Y1159177D02*
Y1163241D01*
X713530D01*
Y1159177D01*
X709466D01*
Y1099177D02*
Y1103241D01*
X713530D01*
Y1099177D01*
X709466D01*
X694466Y1069177D02*
Y1073241D01*
X698530D01*
Y1069177D01*
X694466D01*
X679466Y1159177D02*
Y1163241D01*
X683530D01*
Y1159177D01*
X679466D01*
Y1099177D02*
Y1103241D01*
X683530D01*
Y1099177D01*
X679466D01*
X664466Y1069177D02*
Y1073241D01*
X668530D01*
Y1069177D01*
X664466D01*
X649466Y1159177D02*
Y1163241D01*
X653530D01*
Y1159177D01*
X649466D01*
Y1099177D02*
Y1103241D01*
X653530D01*
Y1099177D01*
X649466D01*
X634466Y1069177D02*
Y1073241D01*
X638530D01*
Y1069177D01*
X634466D01*
X619466Y1159177D02*
Y1163241D01*
X623530D01*
Y1159177D01*
X619466D01*
Y1099177D02*
Y1103241D01*
X623530D01*
Y1099177D01*
X619466D01*
X604466Y1069177D02*
Y1073241D01*
X608530D01*
Y1069177D01*
X604466D01*
X589466Y1159177D02*
Y1163241D01*
X593530D01*
Y1159177D01*
X589466D01*
Y1099177D02*
Y1103241D01*
X593530D01*
Y1099177D01*
X589466D01*
X574466Y1069177D02*
Y1073241D01*
X578530D01*
Y1069177D01*
X574466D01*
X529466Y1159177D02*
Y1163241D01*
X533530D01*
Y1159177D01*
X529466D01*
Y1099177D02*
Y1103241D01*
X533530D01*
Y1099177D01*
X529466D01*
X514466Y1069177D02*
Y1073241D01*
X518530D01*
Y1069177D01*
X514466D01*
X499466Y1159177D02*
Y1163241D01*
X503530D01*
Y1159177D01*
X499466D01*
Y1099177D02*
Y1103241D01*
X503530D01*
Y1099177D01*
X499466D01*
X484466Y1069177D02*
Y1073241D01*
X488530D01*
Y1069177D01*
X484466D01*
X469466Y1159177D02*
Y1163241D01*
X473530D01*
Y1159177D01*
X469466D01*
Y1099177D02*
Y1103241D01*
X473530D01*
Y1099177D01*
X469466D01*
X454466Y1069177D02*
Y1073241D01*
X458530D01*
Y1069177D01*
X454466D01*
X439466Y1159177D02*
Y1163241D01*
X443530D01*
Y1159177D01*
X439466D01*
Y1099177D02*
Y1103241D01*
X443530D01*
Y1099177D01*
X439466D01*
X424466Y1069177D02*
Y1073241D01*
X428530D01*
Y1069177D01*
X424466D01*
X409466Y1159177D02*
Y1163241D01*
X413530D01*
Y1159177D01*
X409466D01*
Y1099177D02*
Y1103241D01*
X413530D01*
Y1099177D01*
X409466D01*
X394466Y1069177D02*
Y1073241D01*
X398530D01*
Y1069177D01*
X394466D01*
X379466Y1159177D02*
Y1163241D01*
X383530D01*
Y1159177D01*
X379466D01*
Y1099177D02*
Y1103241D01*
X383530D01*
Y1099177D01*
X379466D01*
X364466Y1069177D02*
Y1073241D01*
X368530D01*
Y1069177D01*
X364466D01*
X349466Y1159177D02*
Y1163241D01*
X353530D01*
Y1159177D01*
X349466D01*
Y1099177D02*
Y1103241D01*
X353530D01*
Y1099177D01*
X349466D01*
X334466Y1069177D02*
Y1073241D01*
X338530D01*
Y1069177D01*
X334466D01*
X319466Y1159177D02*
Y1163241D01*
X323530D01*
Y1159177D01*
X319466D01*
Y1099177D02*
Y1103241D01*
X323530D01*
Y1099177D01*
X319466D01*
X304466Y1069177D02*
Y1073241D01*
X308530D01*
Y1069177D01*
X304466D01*
X289466Y1159177D02*
Y1163241D01*
X293530D01*
Y1159177D01*
X289466D01*
Y1099177D02*
Y1103241D01*
X293530D01*
Y1099177D01*
X289466D01*
X274466Y1069177D02*
Y1073241D01*
X278530D01*
Y1069177D01*
X274466D01*
X259466Y1159177D02*
Y1163241D01*
X263530D01*
Y1159177D01*
X259466D01*
Y1099177D02*
Y1103241D01*
X263530D01*
Y1099177D01*
X259466D01*
X244466Y1069177D02*
Y1073241D01*
X248530D01*
Y1069177D01*
X244466D01*
X229466Y1159177D02*
Y1163241D01*
X233530D01*
Y1159177D01*
X229466D01*
Y1099177D02*
Y1103241D01*
X233530D01*
Y1099177D01*
X229466D01*
X214466Y1069177D02*
Y1073241D01*
X218530D01*
Y1069177D01*
X214466D01*
X199466Y1159177D02*
Y1163241D01*
X203530D01*
Y1159177D01*
X199466D01*
Y1099177D02*
Y1103241D01*
X203530D01*
Y1099177D01*
X199466D01*
X184466Y1069177D02*
Y1073241D01*
X188530D01*
Y1069177D01*
X184466D01*
X169466Y1159177D02*
Y1163241D01*
X173530D01*
Y1159177D01*
X169466D01*
Y1099177D02*
Y1103241D01*
X173530D01*
Y1099177D01*
X169466D01*
X154466Y1069177D02*
Y1073241D01*
X158530D01*
Y1069177D01*
X154466D01*
X139466Y1159177D02*
Y1163241D01*
X143530D01*
Y1159177D01*
X139466D01*
Y1099177D02*
Y1103241D01*
X143530D01*
Y1099177D01*
X139466D01*
X124466Y1069177D02*
Y1073241D01*
X128530D01*
Y1069177D01*
X124466D01*
X109466Y1159177D02*
Y1163241D01*
X113530D01*
Y1159177D01*
X109466D01*
Y1099177D02*
Y1103241D01*
X113530D01*
Y1099177D01*
X109466D01*
X94466Y1069177D02*
Y1073241D01*
X98530D01*
Y1069177D01*
X94466D01*
X79466Y1159177D02*
Y1163241D01*
X83530D01*
Y1159177D01*
X79466D01*
Y1099177D02*
Y1103241D01*
X83530D01*
Y1099177D01*
X79466D01*
X1009466Y1009177D02*
Y1013241D01*
X1013530D01*
Y1009177D01*
X1009466D01*
Y949177D02*
Y953241D01*
X1013530D01*
Y949177D01*
X1009466D01*
X994466Y919177D02*
Y923241D01*
X998530D01*
Y919177D01*
X994466D01*
X979466Y1009177D02*
Y1013241D01*
X983530D01*
Y1009177D01*
X979466D01*
Y949177D02*
Y953241D01*
X983530D01*
Y949177D01*
X979466D01*
X964466Y919177D02*
Y923241D01*
X968530D01*
Y919177D01*
X964466D01*
X949466Y1009177D02*
Y1013241D01*
X953530D01*
Y1009177D01*
X949466D01*
Y949177D02*
Y953241D01*
X953530D01*
Y949177D01*
X949466D01*
X934466Y919177D02*
Y923241D01*
X938530D01*
Y919177D01*
X934466D01*
X919466Y1009177D02*
Y1013241D01*
X923530D01*
Y1009177D01*
X919466D01*
Y949177D02*
Y953241D01*
X923530D01*
Y949177D01*
X919466D01*
X904466Y919177D02*
Y923241D01*
X908530D01*
Y919177D01*
X904466D01*
X889466Y1009177D02*
Y1013241D01*
X893530D01*
Y1009177D01*
X889466D01*
Y949177D02*
Y953241D01*
X893530D01*
Y949177D01*
X889466D01*
X874466Y919177D02*
Y923241D01*
X878530D01*
Y919177D01*
X874466D01*
X859466Y1009177D02*
Y1013241D01*
X863530D01*
Y1009177D01*
X859466D01*
Y949177D02*
Y953241D01*
X863530D01*
Y949177D01*
X859466D01*
X844466Y919177D02*
Y923241D01*
X848530D01*
Y919177D01*
X844466D01*
X829466Y1009177D02*
Y1013241D01*
X833530D01*
Y1009177D01*
X829466D01*
Y949177D02*
Y953241D01*
X833530D01*
Y949177D01*
X829466D01*
X814466Y919177D02*
Y923241D01*
X818530D01*
Y919177D01*
X814466D01*
X799466Y1009177D02*
Y1013241D01*
X803530D01*
Y1009177D01*
X799466D01*
X784466Y919177D02*
Y923241D01*
X788530D01*
Y919177D01*
X784466D01*
X769466Y1009177D02*
Y1013241D01*
X773530D01*
Y1009177D01*
X769466D01*
Y949177D02*
Y953241D01*
X773530D01*
Y949177D01*
X769466D01*
X754466Y919177D02*
Y923241D01*
X758530D01*
Y919177D01*
X754466D01*
X739466Y1009177D02*
Y1013241D01*
X743530D01*
Y1009177D01*
X739466D01*
Y949177D02*
Y953241D01*
X743530D01*
Y949177D01*
X739466D01*
X724466Y919177D02*
Y923241D01*
X728530D01*
Y919177D01*
X724466D01*
X709466Y1009177D02*
Y1013241D01*
X713530D01*
Y1009177D01*
X709466D01*
Y949177D02*
Y953241D01*
X713530D01*
Y949177D01*
X709466D01*
X694466Y919177D02*
Y923241D01*
X698530D01*
Y919177D01*
X694466D01*
X679466Y1009177D02*
Y1013241D01*
X683530D01*
Y1009177D01*
X679466D01*
Y949177D02*
Y953241D01*
X683530D01*
Y949177D01*
X679466D01*
X664466Y919177D02*
Y923241D01*
X668530D01*
Y919177D01*
X664466D01*
X649466Y1009177D02*
Y1013241D01*
X653530D01*
Y1009177D01*
X649466D01*
Y949177D02*
Y953241D01*
X653530D01*
Y949177D01*
X649466D01*
X634466Y919177D02*
Y923241D01*
X638530D01*
Y919177D01*
X634466D01*
X619466Y1009177D02*
Y1013241D01*
X623530D01*
Y1009177D01*
X619466D01*
Y949177D02*
Y953241D01*
X623530D01*
Y949177D01*
X619466D01*
X604466Y919177D02*
Y923241D01*
X608530D01*
Y919177D01*
X604466D01*
X589466Y1009177D02*
Y1013241D01*
X593530D01*
Y1009177D01*
X589466D01*
Y949177D02*
Y953241D01*
X593530D01*
Y949177D01*
X589466D01*
X574466Y919177D02*
Y923241D01*
X578530D01*
Y919177D01*
X574466D01*
X559466Y1009177D02*
Y1013241D01*
X563530D01*
Y1009177D01*
X559466D01*
Y949177D02*
Y953241D01*
X563530D01*
Y949177D01*
X559466D01*
X544466Y919177D02*
Y923241D01*
X548530D01*
Y919177D01*
X544466D01*
X529466Y1009177D02*
Y1013241D01*
X533530D01*
Y1009177D01*
X529466D01*
Y949177D02*
Y953241D01*
X533530D01*
Y949177D01*
X529466D01*
X514466Y919177D02*
Y923241D01*
X518530D01*
Y919177D01*
X514466D01*
X499466Y1009177D02*
Y1013241D01*
X503530D01*
Y1009177D01*
X499466D01*
Y949177D02*
Y953241D01*
X503530D01*
Y949177D01*
X499466D01*
X484466Y919177D02*
Y923241D01*
X488530D01*
Y919177D01*
X484466D01*
X469466Y1009177D02*
Y1013241D01*
X473530D01*
Y1009177D01*
X469466D01*
Y949177D02*
Y953241D01*
X473530D01*
Y949177D01*
X469466D01*
X454466Y919177D02*
Y923241D01*
X458530D01*
Y919177D01*
X454466D01*
X439466Y1009177D02*
Y1013241D01*
X443530D01*
Y1009177D01*
X439466D01*
Y949177D02*
Y953241D01*
X443530D01*
Y949177D01*
X439466D01*
X424466Y919177D02*
Y923241D01*
X428530D01*
Y919177D01*
X424466D01*
X409466Y1009177D02*
Y1013241D01*
X413530D01*
Y1009177D01*
X409466D01*
Y949177D02*
Y953241D01*
X413530D01*
Y949177D01*
X409466D01*
X394466Y919177D02*
Y923241D01*
X398530D01*
Y919177D01*
X394466D01*
X379466Y1009177D02*
Y1013241D01*
X383530D01*
Y1009177D01*
X379466D01*
Y949177D02*
Y953241D01*
X383530D01*
Y949177D01*
X379466D01*
X364466Y919177D02*
Y923241D01*
X368530D01*
Y919177D01*
X364466D01*
X349466Y1009177D02*
Y1013241D01*
X353530D01*
Y1009177D01*
X349466D01*
Y949177D02*
Y953241D01*
X353530D01*
Y949177D01*
X349466D01*
X334466Y919177D02*
Y923241D01*
X338530D01*
Y919177D01*
X334466D01*
X319466Y1009177D02*
Y1013241D01*
X323530D01*
Y1009177D01*
X319466D01*
Y949177D02*
Y953241D01*
X323530D01*
Y949177D01*
X319466D01*
X304466Y919177D02*
Y923241D01*
X308530D01*
Y919177D01*
X304466D01*
X289466Y1009177D02*
Y1013241D01*
X293530D01*
Y1009177D01*
X289466D01*
X274466Y919177D02*
Y923241D01*
X278530D01*
Y919177D01*
X274466D01*
X259466Y1009177D02*
Y1013241D01*
X263530D01*
Y1009177D01*
X259466D01*
Y949177D02*
Y953241D01*
X263530D01*
Y949177D01*
X259466D01*
X244466Y919177D02*
Y923241D01*
X248530D01*
Y919177D01*
X244466D01*
X229466Y1009177D02*
Y1013241D01*
X233530D01*
Y1009177D01*
X229466D01*
Y949177D02*
Y953241D01*
X233530D01*
Y949177D01*
X229466D01*
X214466Y919177D02*
Y923241D01*
X218530D01*
Y919177D01*
X214466D01*
X199466Y1009177D02*
Y1013241D01*
X203530D01*
Y1009177D01*
X199466D01*
Y949177D02*
Y953241D01*
X203530D01*
Y949177D01*
X199466D01*
X184466Y919177D02*
Y923241D01*
X188530D01*
Y919177D01*
X184466D01*
X169466Y1009177D02*
Y1013241D01*
X173530D01*
Y1009177D01*
X169466D01*
Y949177D02*
Y953241D01*
X173530D01*
Y949177D01*
X169466D01*
X154466Y919177D02*
Y923241D01*
X158530D01*
Y919177D01*
X154466D01*
X139466Y1009177D02*
Y1013241D01*
X143530D01*
Y1009177D01*
X139466D01*
Y949177D02*
Y953241D01*
X143530D01*
Y949177D01*
X139466D01*
X124466Y919177D02*
Y923241D01*
X128530D01*
Y919177D01*
X124466D01*
X109466Y1009177D02*
Y1013241D01*
X113530D01*
Y1009177D01*
X109466D01*
Y949177D02*
Y953241D01*
X113530D01*
Y949177D01*
X109466D01*
X94466Y919177D02*
Y923241D01*
X98530D01*
Y919177D01*
X94466D01*
X79466Y1009177D02*
Y1013241D01*
X83530D01*
Y1009177D01*
X79466D01*
Y949177D02*
Y953241D01*
X83530D01*
Y949177D01*
X79466D01*
X1009466Y859177D02*
Y863241D01*
X1013530D01*
Y859177D01*
X1009466D01*
Y799177D02*
Y803241D01*
X1013530D01*
Y799177D01*
X1009466D01*
X994466Y769177D02*
Y773241D01*
X998530D01*
Y769177D01*
X994466D01*
X979466Y859177D02*
Y863241D01*
X983530D01*
Y859177D01*
X979466D01*
Y799177D02*
Y803241D01*
X983530D01*
Y799177D01*
X979466D01*
X964466Y769177D02*
Y773241D01*
X968530D01*
Y769177D01*
X964466D01*
X949466Y859177D02*
Y863241D01*
X953530D01*
Y859177D01*
X949466D01*
Y799177D02*
Y803241D01*
X953530D01*
Y799177D01*
X949466D01*
X934466Y769177D02*
Y773241D01*
X938530D01*
Y769177D01*
X934466D01*
X919466Y859177D02*
Y863241D01*
X923530D01*
Y859177D01*
X919466D01*
Y799177D02*
Y803241D01*
X923530D01*
Y799177D01*
X919466D01*
X904466Y769177D02*
Y773241D01*
X908530D01*
Y769177D01*
X904466D01*
X889466Y859177D02*
Y863241D01*
X893530D01*
Y859177D01*
X889466D01*
Y799177D02*
Y803241D01*
X893530D01*
Y799177D01*
X889466D01*
X874466Y769177D02*
Y773241D01*
X878530D01*
Y769177D01*
X874466D01*
X859466Y859177D02*
Y863241D01*
X863530D01*
Y859177D01*
X859466D01*
Y799177D02*
Y803241D01*
X863530D01*
Y799177D01*
X859466D01*
X844466Y769177D02*
Y773241D01*
X848530D01*
Y769177D01*
X844466D01*
X829466Y859177D02*
Y863241D01*
X833530D01*
Y859177D01*
X829466D01*
Y799177D02*
Y803241D01*
X833530D01*
Y799177D01*
X829466D01*
X814466Y769177D02*
Y773241D01*
X818530D01*
Y769177D01*
X814466D01*
X799466Y859177D02*
Y863241D01*
X803530D01*
Y859177D01*
X799466D01*
Y799177D02*
Y803241D01*
X803530D01*
Y799177D01*
X799466D01*
X784466Y769177D02*
Y773241D01*
X788530D01*
Y769177D01*
X784466D01*
X769466Y859177D02*
Y863241D01*
X773530D01*
Y859177D01*
X769466D01*
Y799177D02*
Y803241D01*
X773530D01*
Y799177D01*
X769466D01*
X754466Y769177D02*
Y773241D01*
X758530D01*
Y769177D01*
X754466D01*
X739466Y859177D02*
Y863241D01*
X743530D01*
Y859177D01*
X739466D01*
Y799177D02*
Y803241D01*
X743530D01*
Y799177D01*
X739466D01*
X724466Y769177D02*
Y773241D01*
X728530D01*
Y769177D01*
X724466D01*
X709466Y859177D02*
Y863241D01*
X713530D01*
Y859177D01*
X709466D01*
Y799177D02*
Y803241D01*
X713530D01*
Y799177D01*
X709466D01*
X694466Y769177D02*
Y773241D01*
X698530D01*
Y769177D01*
X694466D01*
X679466Y859177D02*
Y863241D01*
X683530D01*
Y859177D01*
X679466D01*
Y799177D02*
Y803241D01*
X683530D01*
Y799177D01*
X679466D01*
X664466Y769177D02*
Y773241D01*
X668530D01*
Y769177D01*
X664466D01*
X649466Y859177D02*
Y863241D01*
X653530D01*
Y859177D01*
X649466D01*
Y799177D02*
Y803241D01*
X653530D01*
Y799177D01*
X649466D01*
X634466Y769177D02*
Y773241D01*
X638530D01*
Y769177D01*
X634466D01*
X619466Y859177D02*
Y863241D01*
X623530D01*
Y859177D01*
X619466D01*
Y799177D02*
Y803241D01*
X623530D01*
Y799177D01*
X619466D01*
X604466Y769177D02*
Y773241D01*
X608530D01*
Y769177D01*
X604466D01*
X589466Y859177D02*
Y863241D01*
X593530D01*
Y859177D01*
X589466D01*
Y799177D02*
Y803241D01*
X593530D01*
Y799177D01*
X589466D01*
X574466Y769177D02*
Y773241D01*
X578530D01*
Y769177D01*
X574466D01*
X559466Y859177D02*
Y863241D01*
X563530D01*
Y859177D01*
X559466D01*
Y799177D02*
Y803241D01*
X563530D01*
Y799177D01*
X559466D01*
X544466Y769177D02*
Y773241D01*
X548530D01*
Y769177D01*
X544466D01*
X529466Y859177D02*
Y863241D01*
X533530D01*
Y859177D01*
X529466D01*
Y799177D02*
Y803241D01*
X533530D01*
Y799177D01*
X529466D01*
X514466Y769177D02*
Y773241D01*
X518530D01*
Y769177D01*
X514466D01*
X499466Y859177D02*
Y863241D01*
X503530D01*
Y859177D01*
X499466D01*
Y799177D02*
Y803241D01*
X503530D01*
Y799177D01*
X499466D01*
X484466Y769177D02*
Y773241D01*
X488530D01*
Y769177D01*
X484466D01*
X469466Y859177D02*
Y863241D01*
X473530D01*
Y859177D01*
X469466D01*
Y799177D02*
Y803241D01*
X473530D01*
Y799177D01*
X469466D01*
X454466Y769177D02*
Y773241D01*
X458530D01*
Y769177D01*
X454466D01*
X439466Y859177D02*
Y863241D01*
X443530D01*
Y859177D01*
X439466D01*
Y799177D02*
Y803241D01*
X443530D01*
Y799177D01*
X439466D01*
X424466Y769177D02*
Y773241D01*
X428530D01*
Y769177D01*
X424466D01*
X409466Y859177D02*
Y863241D01*
X413530D01*
Y859177D01*
X409466D01*
Y799177D02*
Y803241D01*
X413530D01*
Y799177D01*
X409466D01*
X394466Y769177D02*
Y773241D01*
X398530D01*
Y769177D01*
X394466D01*
X379466Y859177D02*
Y863241D01*
X383530D01*
Y859177D01*
X379466D01*
Y799177D02*
Y803241D01*
X383530D01*
Y799177D01*
X379466D01*
X364466Y769177D02*
Y773241D01*
X368530D01*
Y769177D01*
X364466D01*
X349466Y859177D02*
Y863241D01*
X353530D01*
Y859177D01*
X349466D01*
Y799177D02*
Y803241D01*
X353530D01*
Y799177D01*
X349466D01*
X334466Y769177D02*
Y773241D01*
X338530D01*
Y769177D01*
X334466D01*
X319466Y859177D02*
Y863241D01*
X323530D01*
Y859177D01*
X319466D01*
Y799177D02*
Y803241D01*
X323530D01*
Y799177D01*
X319466D01*
X304466Y769177D02*
Y773241D01*
X308530D01*
Y769177D01*
X304466D01*
X289466Y859177D02*
Y863241D01*
X293530D01*
Y859177D01*
X289466D01*
Y799177D02*
Y803241D01*
X293530D01*
Y799177D01*
X289466D01*
X274466Y769177D02*
Y773241D01*
X278530D01*
Y769177D01*
X274466D01*
X259466Y859177D02*
Y863241D01*
X263530D01*
Y859177D01*
X259466D01*
Y799177D02*
Y803241D01*
X263530D01*
Y799177D01*
X259466D01*
X244466Y769177D02*
Y773241D01*
X248530D01*
Y769177D01*
X244466D01*
X229466Y859177D02*
Y863241D01*
X233530D01*
Y859177D01*
X229466D01*
Y799177D02*
Y803241D01*
X233530D01*
Y799177D01*
X229466D01*
X214466Y769177D02*
Y773241D01*
X218530D01*
Y769177D01*
X214466D01*
X199466Y859177D02*
Y863241D01*
X203530D01*
Y859177D01*
X199466D01*
Y799177D02*
Y803241D01*
X203530D01*
Y799177D01*
X199466D01*
X184466Y769177D02*
Y773241D01*
X188530D01*
Y769177D01*
X184466D01*
X169466Y859177D02*
Y863241D01*
X173530D01*
Y859177D01*
X169466D01*
Y799177D02*
Y803241D01*
X173530D01*
Y799177D01*
X169466D01*
X154466Y769177D02*
Y773241D01*
X158530D01*
Y769177D01*
X154466D01*
X139466Y859177D02*
Y863241D01*
X143530D01*
Y859177D01*
X139466D01*
Y799177D02*
Y803241D01*
X143530D01*
Y799177D01*
X139466D01*
X124466Y769177D02*
Y773241D01*
X128530D01*
Y769177D01*
X124466D01*
X109466Y859177D02*
Y863241D01*
X113530D01*
Y859177D01*
X109466D01*
Y799177D02*
Y803241D01*
X113530D01*
Y799177D01*
X109466D01*
X94466Y769177D02*
Y773241D01*
X98530D01*
Y769177D01*
X94466D01*
X79466Y859177D02*
Y863241D01*
X83530D01*
Y859177D01*
X79466D01*
Y799177D02*
Y803241D01*
X83530D01*
Y799177D01*
X79466D01*
X297968Y822968D02*
Y827032D01*
X302032D01*
Y822968D01*
X297968D01*
X62968Y847968D02*
Y852032D01*
X67032D01*
Y847968D01*
X62968D01*
Y797968D02*
Y802032D01*
X67032D01*
Y797968D01*
X62968D01*
Y867968D02*
Y872032D01*
X67032D01*
Y867968D01*
X62968D01*
Y997968D02*
Y1002032D01*
X67032D01*
Y997968D01*
X62968D01*
Y1017968D02*
Y1022032D01*
X67032D01*
Y1017968D01*
X62968D01*
Y1077968D02*
Y1082032D01*
X67032D01*
Y1077968D01*
X62968D01*
X292968Y983968D02*
Y988032D01*
X297032D01*
Y983968D01*
X292968D01*
X297968Y972968D02*
Y977032D01*
X302032D01*
Y972968D01*
X297968D01*
X292968Y961968D02*
Y966032D01*
X297032D01*
Y961968D01*
X292968D01*
X62968Y1167968D02*
Y1172032D01*
X67032D01*
Y1167968D01*
X62968D01*
Y1147968D02*
Y1152032D01*
X67032D01*
Y1147968D01*
X62968D01*
Y1097968D02*
Y1102032D01*
X67032D01*
Y1097968D01*
X62968D01*
Y927968D02*
Y932032D01*
X67032D01*
Y927968D01*
X62968D01*
Y947968D02*
Y952032D01*
X67032D01*
Y947968D01*
X62968D01*
X1032968Y1078968D02*
Y1083032D01*
X1037032D01*
Y1078968D01*
X1032968D01*
Y1018968D02*
Y1023032D01*
X1037032D01*
Y1018968D01*
X1032968D01*
X1042968Y1063968D02*
Y1068032D01*
X1047032D01*
Y1063968D01*
X1042968D01*
Y1033968D02*
Y1038032D01*
X1047032D01*
Y1033968D01*
X1042968D01*
X801968Y983968D02*
Y988032D01*
X806032D01*
Y983968D01*
X801968D01*
X797968Y972968D02*
Y977032D01*
X802032D01*
Y972968D01*
X797968D01*
X801968Y961968D02*
Y966032D01*
X806032D01*
Y961968D01*
X801968D01*
X1032968Y948968D02*
Y953032D01*
X1037032D01*
Y948968D01*
X1032968D01*
X1042968Y1008968D02*
Y1013032D01*
X1047032D01*
Y1008968D01*
X1042968D01*
X1032968Y998968D02*
Y1003032D01*
X1037032D01*
Y998968D01*
X1032968D01*
X1042968Y938968D02*
Y943032D01*
X1047032D01*
Y938968D01*
X1042968D01*
X1062968Y1033968D02*
Y1038032D01*
X1067032D01*
Y1033968D01*
X1062968D01*
X1082968Y763968D02*
Y768032D01*
X1087032D01*
Y763968D01*
X1082968D01*
X1072968Y778968D02*
Y783032D01*
X1077032D01*
Y778968D01*
X1072968D01*
X1062968Y1183968D02*
Y1188032D01*
X1067032D01*
Y1183968D01*
X1062968D01*
X1082968D02*
Y1188032D01*
X1087032D01*
Y1183968D01*
X1082968D01*
X1072968Y1078968D02*
Y1083032D01*
X1077032D01*
Y1078968D01*
X1072968D01*
X1062968Y763968D02*
Y768032D01*
X1067032D01*
Y763968D01*
X1062968D01*
X1072968Y1168968D02*
Y1173032D01*
X1077032D01*
Y1168968D01*
X1072968D01*
X1062968Y1063968D02*
Y1068032D01*
X1067032D01*
Y1063968D01*
X1062968D01*
X1082968D02*
Y1068032D01*
X1087032D01*
Y1063968D01*
X1082968D01*
Y1033968D02*
Y1038032D01*
X1087032D01*
Y1033968D01*
X1082968D01*
X1072968Y1018968D02*
Y1023032D01*
X1077032D01*
Y1018968D01*
X1072968D01*
X1032968Y1148968D02*
Y1153032D01*
X1037032D01*
Y1148968D01*
X1032968D01*
X1042968Y1088968D02*
Y1093032D01*
X1047032D01*
Y1088968D01*
X1042968D01*
X1032968Y1098968D02*
Y1103032D01*
X1037032D01*
Y1098968D01*
X1032968D01*
X1042968Y763968D02*
Y768032D01*
X1047032D01*
Y763968D01*
X1042968D01*
X1052968Y778968D02*
Y783032D01*
X1057032D01*
Y778968D01*
X1052968D01*
X1042968Y1158968D02*
Y1163032D01*
X1047032D01*
Y1158968D01*
X1042968D01*
X1032968Y778968D02*
Y783032D01*
X1037032D01*
Y778968D01*
X1032968D01*
X1052968Y1018968D02*
Y1023032D01*
X1057032D01*
Y1018968D01*
X1052968D01*
X1042968Y1183968D02*
Y1188032D01*
X1047032D01*
Y1183968D01*
X1042968D01*
X1052968Y1078968D02*
Y1083032D01*
X1057032D01*
Y1078968D01*
X1052968D01*
Y1168968D02*
Y1173032D01*
X1057032D01*
Y1168968D01*
X1052968D01*
X1032968D02*
Y1173032D01*
X1037032D01*
Y1168968D01*
X1032968D01*
X1042968Y858968D02*
Y863032D01*
X1047032D01*
Y858968D01*
X1042968D01*
Y913968D02*
Y918032D01*
X1047032D01*
Y913968D01*
X1042968D01*
X1052968Y928968D02*
Y933032D01*
X1057032D01*
Y928968D01*
X1052968D01*
X1032968Y848968D02*
Y853032D01*
X1037032D01*
Y848968D01*
X1032968D01*
Y928968D02*
Y933032D01*
X1037032D01*
Y928968D01*
X1032968D01*
X1042968Y883968D02*
Y888032D01*
X1047032D01*
Y883968D01*
X1042968D01*
X1072968Y928968D02*
Y933032D01*
X1077032D01*
Y928968D01*
X1072968D01*
X1052968Y868968D02*
Y873032D01*
X1057032D01*
Y868968D01*
X1052968D01*
X1082968Y913968D02*
Y918032D01*
X1087032D01*
Y913968D01*
X1082968D01*
X1062968Y883968D02*
Y888032D01*
X1067032D01*
Y883968D01*
X1062968D01*
X1082968D02*
Y888032D01*
X1087032D01*
Y883968D01*
X1082968D01*
X1032968Y868968D02*
Y873032D01*
X1037032D01*
Y868968D01*
X1032968D01*
X1072968D02*
Y873032D01*
X1077032D01*
Y868968D01*
X1072968D01*
X1062968Y913968D02*
Y918032D01*
X1067032D01*
Y913968D01*
X1062968D01*
X797968Y822968D02*
Y827032D01*
X802032D01*
Y822968D01*
X797968D01*
X1032968Y798968D02*
Y803032D01*
X1037032D01*
Y798968D01*
X1032968D01*
X1042968Y788968D02*
Y793032D01*
X1047032D01*
Y788968D01*
X1042968D01*
X12968Y1062968D02*
Y1067032D01*
X17032D01*
Y1062968D01*
X12968D01*
Y1032968D02*
Y1037032D01*
X17032D01*
Y1032968D01*
X12968D01*
Y882968D02*
Y887032D01*
X17032D01*
Y882968D01*
X12968D01*
Y762968D02*
Y767032D01*
X17032D01*
Y762968D01*
X12968D01*
Y912968D02*
Y917032D01*
X17032D01*
Y912968D01*
X12968D01*
Y1182968D02*
Y1187032D01*
X17032D01*
Y1182968D01*
X12968D01*
X42968Y867968D02*
Y872032D01*
X47032D01*
Y867968D01*
X42968D01*
X32968Y882968D02*
Y887032D01*
X37032D01*
Y882968D01*
X32968D01*
Y912968D02*
Y917032D01*
X37032D01*
Y912968D01*
X32968D01*
X22968Y867968D02*
Y872032D01*
X27032D01*
Y867968D01*
X22968D01*
X52968Y882968D02*
Y887032D01*
X57032D01*
Y882968D01*
X52968D01*
Y1032968D02*
Y1037032D01*
X57032D01*
Y1032968D01*
X52968D01*
X32968D02*
Y1037032D01*
X37032D01*
Y1032968D01*
X32968D01*
X52968Y1007968D02*
Y1012032D01*
X57032D01*
Y1007968D01*
X52968D01*
X42968Y1017968D02*
Y1022032D01*
X47032D01*
Y1017968D01*
X42968D01*
X52968Y912968D02*
Y917032D01*
X57032D01*
Y912968D01*
X52968D01*
X22968Y927968D02*
Y932032D01*
X27032D01*
Y927968D01*
X22968D01*
X32968Y1062968D02*
Y1067032D01*
X37032D01*
Y1062968D01*
X32968D01*
X42968Y1077968D02*
Y1082032D01*
X47032D01*
Y1077968D01*
X42968D01*
Y1167968D02*
Y1172032D01*
X47032D01*
Y1167968D01*
X42968D01*
X52968Y1182968D02*
Y1187032D01*
X57032D01*
Y1182968D01*
X52968D01*
Y937968D02*
Y942032D01*
X57032D01*
Y937968D01*
X52968D01*
Y1062968D02*
Y1067032D01*
X57032D01*
Y1062968D01*
X52968D01*
X42968Y927968D02*
Y932032D01*
X47032D01*
Y927968D01*
X42968D01*
X22968Y1017968D02*
Y1022032D01*
X27032D01*
Y1017968D01*
X22968D01*
Y1167968D02*
Y1172032D01*
X27032D01*
Y1167968D01*
X22968D01*
X52968Y1157968D02*
Y1162032D01*
X57032D01*
Y1157968D01*
X52968D01*
X22968Y1077968D02*
Y1082032D01*
X27032D01*
Y1077968D01*
X22968D01*
X32968Y1182968D02*
Y1187032D01*
X37032D01*
Y1182968D01*
X32968D01*
X52968Y1087968D02*
Y1092032D01*
X57032D01*
Y1087968D01*
X52968D01*
Y762968D02*
Y767032D01*
X57032D01*
Y762968D01*
X52968D01*
Y857968D02*
Y862032D01*
X57032D01*
Y857968D01*
X52968D01*
X22968Y777968D02*
Y782032D01*
X27032D01*
Y777968D01*
X22968D01*
X52968Y787968D02*
Y792032D01*
X57032D01*
Y787968D01*
X52968D01*
X42968Y777968D02*
Y782032D01*
X47032D01*
Y777968D01*
X42968D01*
X32968Y762968D02*
Y767032D01*
X37032D01*
Y762968D01*
X32968D01*
X62968Y777968D02*
Y782032D01*
X67032D01*
Y777968D01*
X62968D01*
X1020318Y665158D02*
Y669222D01*
X1024382D01*
Y665158D01*
X1020318D01*
X1005318D02*
Y669222D01*
X1009382D01*
Y665158D01*
X1005318D01*
X990318D02*
Y669222D01*
X994382D01*
Y665158D01*
X990318D01*
X975318D02*
Y669222D01*
X979382D01*
Y665158D01*
X975318D01*
X978828Y630778D02*
Y634841D01*
X982892D01*
Y630778D01*
X978828D01*
X1007906D02*
Y634841D01*
X1011970D01*
Y630778D01*
X1007906D01*
X1022906D02*
Y634841D01*
X1026970D01*
Y630778D01*
X1022906D01*
X943271Y665158D02*
Y669222D01*
X947335D01*
Y665158D01*
X943271D01*
X928271D02*
Y669222D01*
X932335D01*
Y665158D01*
X928271D01*
X925929Y630778D02*
Y634841D01*
X929993D01*
Y630778D01*
X925929D01*
X955091Y630429D02*
Y634493D01*
X959155D01*
Y630429D01*
X955091D01*
X969991Y632159D02*
Y636223D01*
X974055D01*
Y632159D01*
X969991D01*
X962512Y664991D02*
Y669055D01*
X966576D01*
Y664991D01*
X962512D01*
X738064Y665158D02*
Y669222D01*
X742128D01*
Y665158D01*
X738064D01*
X648064D02*
Y669222D01*
X652128D01*
Y665158D01*
X648064D01*
X513064D02*
Y669222D01*
X517127D01*
Y665158D01*
X513064D01*
X768064D02*
Y669222D01*
X772128D01*
Y665158D01*
X768064D01*
X843063D02*
Y669222D01*
X847127D01*
Y665158D01*
X843063D01*
X453064D02*
Y669222D01*
X457128D01*
Y665158D01*
X453064D01*
X884405Y630777D02*
Y634841D01*
X888469D01*
Y630777D01*
X884405D01*
X168064Y665158D02*
Y669222D01*
X172128D01*
Y665158D01*
X168064D01*
X363064D02*
Y669222D01*
X367128D01*
Y665158D01*
X363064D01*
X749405Y630777D02*
Y634841D01*
X753469D01*
Y630777D01*
X749405D01*
X573064Y665158D02*
Y669222D01*
X577127D01*
Y665158D01*
X573064D01*
X273064D02*
Y669222D01*
X277128D01*
Y665158D01*
X273064D01*
X333064D02*
Y669222D01*
X337128D01*
Y665158D01*
X333064D01*
X449405Y630777D02*
Y634841D01*
X453469D01*
Y630777D01*
X449405D01*
X494405D02*
Y634841D01*
X498469D01*
Y630777D01*
X494405D01*
X119405D02*
Y634841D01*
X123469D01*
Y630777D01*
X119405D01*
X438064Y665158D02*
Y669222D01*
X442128D01*
Y665158D01*
X438064D01*
X588064D02*
Y669222D01*
X592127D01*
Y665158D01*
X588064D01*
X254405Y630777D02*
Y634841D01*
X258469D01*
Y630777D01*
X254405D01*
X123064Y665158D02*
Y669222D01*
X127128D01*
Y665158D01*
X123064D01*
X603064D02*
Y669222D01*
X607127D01*
Y665158D01*
X603064D01*
X543064D02*
Y669222D01*
X547127D01*
Y665158D01*
X543064D01*
X873063D02*
Y669222D01*
X877127D01*
Y665158D01*
X873063D01*
X704405Y630777D02*
Y634841D01*
X708469D01*
Y630777D01*
X704405D01*
X164405D02*
Y634841D01*
X168469D01*
Y630777D01*
X164405D01*
X629405D02*
Y634841D01*
X633469D01*
Y630777D01*
X629405D01*
X303064Y665158D02*
Y669222D01*
X307128D01*
Y665158D01*
X303064D01*
X464405Y630777D02*
Y634841D01*
X468469D01*
Y630777D01*
X464405D01*
X74405D02*
Y634841D01*
X78469D01*
Y630777D01*
X74405D01*
X89405D02*
Y634841D01*
X93469D01*
Y630777D01*
X89405D01*
X329405D02*
Y634841D01*
X333469D01*
Y630777D01*
X329405D01*
X539405D02*
Y634841D01*
X543469D01*
Y630777D01*
X539405D01*
X434405D02*
Y634841D01*
X438469D01*
Y630777D01*
X434405D01*
X509405D02*
Y634841D01*
X513469D01*
Y630777D01*
X509405D01*
X78064Y665158D02*
Y669222D01*
X82128D01*
Y665158D01*
X78064D01*
X419405Y630777D02*
Y634841D01*
X423469D01*
Y630777D01*
X419405D01*
X224405D02*
Y634841D01*
X228469D01*
Y630777D01*
X224405D01*
X599405D02*
Y634841D01*
X603469D01*
Y630777D01*
X599405D01*
X618064Y665158D02*
Y669222D01*
X622127D01*
Y665158D01*
X618064D01*
X644405Y630777D02*
Y634841D01*
X648469D01*
Y630777D01*
X644405D01*
X408064Y665158D02*
Y669222D01*
X412128D01*
Y665158D01*
X408064D01*
X569405Y630777D02*
Y634841D01*
X573469D01*
Y630777D01*
X569405D01*
X554405D02*
Y634841D01*
X558469D01*
Y630777D01*
X554405D01*
X723064Y665158D02*
Y669222D01*
X727128D01*
Y665158D01*
X723064D01*
X389405Y630777D02*
Y634841D01*
X393469D01*
Y630777D01*
X389405D01*
X783064Y665158D02*
Y669222D01*
X787128D01*
Y665158D01*
X783064D01*
X813063D02*
Y669222D01*
X817127D01*
Y665158D01*
X813063D01*
X899405Y630777D02*
Y634841D01*
X903469D01*
Y630777D01*
X899405D01*
X479405D02*
Y634841D01*
X483469D01*
Y630777D01*
X479405D01*
X659405D02*
Y634841D01*
X663469D01*
Y630777D01*
X659405D01*
X299405D02*
Y634841D01*
X303469D01*
Y630777D01*
X299405D01*
X753064Y665158D02*
Y669222D01*
X757128D01*
Y665158D01*
X753064D01*
X393064D02*
Y669222D01*
X397128D01*
Y665158D01*
X393064D01*
X633064D02*
Y669222D01*
X637127D01*
Y665158D01*
X633064D01*
X134405Y630777D02*
Y634841D01*
X138469D01*
Y630777D01*
X134405D01*
X153064Y665158D02*
Y669222D01*
X157128D01*
Y665158D01*
X153064D01*
X528064D02*
Y669222D01*
X532127D01*
Y665158D01*
X528064D01*
X869405Y630777D02*
Y634841D01*
X873469D01*
Y630777D01*
X869405D01*
X584405D02*
Y634841D01*
X588469D01*
Y630777D01*
X584405D01*
X258064Y665158D02*
Y669222D01*
X262128D01*
Y665158D01*
X258064D01*
X344405Y630777D02*
Y634841D01*
X348469D01*
Y630777D01*
X344405D01*
X903063Y665158D02*
Y669222D01*
X907127D01*
Y665158D01*
X903063D01*
X734405Y630777D02*
Y634841D01*
X738469D01*
Y630777D01*
X734405D01*
X678064Y665158D02*
Y669222D01*
X682128D01*
Y665158D01*
X678064D01*
X108064D02*
Y669222D01*
X112128D01*
Y665158D01*
X108064D01*
X183064D02*
Y669222D01*
X187128D01*
Y665158D01*
X183064D01*
X138064D02*
Y669222D01*
X142128D01*
Y665158D01*
X138064D01*
X839405Y630777D02*
Y634841D01*
X843469D01*
Y630777D01*
X839405D01*
X779405D02*
Y634841D01*
X783469D01*
Y630777D01*
X779405D01*
X689405D02*
Y634841D01*
X693469D01*
Y630777D01*
X689405D01*
X423064Y665158D02*
Y669222D01*
X427128D01*
Y665158D01*
X423064D01*
X213064D02*
Y669222D01*
X217128D01*
Y665158D01*
X213064D01*
X708064D02*
Y669222D01*
X712128D01*
Y665158D01*
X708064D01*
X149405Y630777D02*
Y634841D01*
X153469D01*
Y630777D01*
X149405D01*
X888063Y665158D02*
Y669222D01*
X892127D01*
Y665158D01*
X888063D01*
X764405Y630777D02*
Y634841D01*
X768469D01*
Y630777D01*
X764405D01*
X284405D02*
Y634841D01*
X288469D01*
Y630777D01*
X284405D01*
X719405D02*
Y634841D01*
X723469D01*
Y630777D01*
X719405D01*
X104405D02*
Y634841D01*
X108469D01*
Y630777D01*
X104405D01*
X269405D02*
Y634841D01*
X273469D01*
Y630777D01*
X269405D01*
X674405D02*
Y634841D01*
X678469D01*
Y630777D01*
X674405D01*
X809405D02*
Y634841D01*
X813469D01*
Y630777D01*
X809405D01*
X318064Y665158D02*
Y669222D01*
X322128D01*
Y665158D01*
X318064D01*
X558064D02*
Y669222D01*
X562127D01*
Y665158D01*
X558064D01*
X918037Y664277D02*
Y668341D01*
X922102D01*
Y664277D01*
X918037D01*
X359405Y630777D02*
Y634841D01*
X363469D01*
Y630777D01*
X359405D01*
X179405D02*
Y634841D01*
X183469D01*
Y630777D01*
X179405D01*
X798064Y665158D02*
Y669222D01*
X802128D01*
Y665158D01*
X798064D01*
X93064D02*
Y669222D01*
X97128D01*
Y665158D01*
X93064D01*
X498064D02*
Y669222D01*
X502127D01*
Y665158D01*
X498064D01*
X239405Y630777D02*
Y634841D01*
X243469D01*
Y630777D01*
X239405D01*
X209405D02*
Y634841D01*
X213469D01*
Y630777D01*
X209405D01*
X228064Y665158D02*
Y669222D01*
X232128D01*
Y665158D01*
X228064D01*
X794405Y630777D02*
Y634841D01*
X798469D01*
Y630777D01*
X794405D01*
X614405D02*
Y634841D01*
X618469D01*
Y630777D01*
X614405D01*
X404405D02*
Y634841D01*
X408469D01*
Y630777D01*
X404405D01*
X314405D02*
Y634841D01*
X318469D01*
Y630777D01*
X314405D01*
X828063Y665158D02*
Y669222D01*
X832127D01*
Y665158D01*
X828063D01*
X288064D02*
Y669222D01*
X292128D01*
Y665158D01*
X288064D01*
X348064D02*
Y669222D01*
X352128D01*
Y665158D01*
X348064D01*
X468064D02*
Y669222D01*
X472128D01*
Y665158D01*
X468064D01*
X243064D02*
Y669222D01*
X247128D01*
Y665158D01*
X243064D01*
X824405Y630777D02*
Y634841D01*
X828469D01*
Y630777D01*
X824405D01*
X854405D02*
Y634841D01*
X858469D01*
Y630777D01*
X854405D01*
X378064Y665158D02*
Y669222D01*
X382128D01*
Y665158D01*
X378064D01*
X198064D02*
Y669222D01*
X202128D01*
Y665158D01*
X198064D01*
X858063D02*
Y669222D01*
X862127D01*
Y665158D01*
X858063D01*
X194405Y630777D02*
Y634841D01*
X198469D01*
Y630777D01*
X194405D01*
X914400Y631150D02*
Y635214D01*
X918464D01*
Y631150D01*
X914400D01*
X693064Y665158D02*
Y669222D01*
X697128D01*
Y665158D01*
X693064D01*
X63064D02*
Y669222D01*
X67128D01*
Y665158D01*
X63064D01*
X663064D02*
Y669222D01*
X667128D01*
Y665158D01*
X663064D01*
X483064D02*
Y669222D01*
X487128D01*
Y665158D01*
X483064D01*
X374405Y630777D02*
Y634841D01*
X378469D01*
Y630777D01*
X374405D01*
X524405D02*
Y634841D01*
X528469D01*
Y630777D01*
X524405D01*
X1028220Y463017D02*
Y467081D01*
X1032284D01*
Y463017D01*
X1028220D01*
X1018220D02*
Y467081D01*
X1022284D01*
Y463017D01*
X1018220D01*
X1008220D02*
Y467081D01*
X1012284D01*
Y463017D01*
X1008220D01*
X998220D02*
Y467081D01*
X1002284D01*
Y463017D01*
X998220D01*
X988220D02*
Y467081D01*
X992284D01*
Y463017D01*
X988220D01*
X978220D02*
Y467081D01*
X982284D01*
Y463017D01*
X978220D01*
X968220D02*
Y467081D01*
X972284D01*
Y463017D01*
X968220D01*
X958220D02*
Y467081D01*
X962284D01*
Y463017D01*
X958220D01*
X948220D02*
Y467081D01*
X952284D01*
Y463017D01*
X948220D01*
X938220D02*
Y467081D01*
X942284D01*
Y463017D01*
X938220D01*
X928220D02*
Y467081D01*
X932284D01*
Y463017D01*
X928220D01*
X918220D02*
Y467081D01*
X922284D01*
Y463017D01*
X918220D01*
X908220D02*
Y467081D01*
X912284D01*
Y463017D01*
X908220D01*
X898220D02*
Y467081D01*
X902284D01*
Y463017D01*
X898220D01*
X888220D02*
Y467081D01*
X892284D01*
Y463017D01*
X888220D01*
X878220D02*
Y467081D01*
X882284D01*
Y463017D01*
X878220D01*
X868220D02*
Y467081D01*
X872284D01*
Y463017D01*
X868220D01*
X858220D02*
Y467081D01*
X862284D01*
Y463017D01*
X858220D01*
X848220D02*
Y467081D01*
X852284D01*
Y463017D01*
X848220D01*
X838220D02*
Y467081D01*
X842284D01*
Y463017D01*
X838220D01*
X828220D02*
Y467081D01*
X832284D01*
Y463017D01*
X828220D01*
X818220D02*
Y467081D01*
X822284D01*
Y463017D01*
X818220D01*
X808221D02*
Y467081D01*
X812284D01*
Y463017D01*
X808221D01*
X798221D02*
Y467081D01*
X802284D01*
Y463017D01*
X798221D01*
X788221D02*
Y467081D01*
X792284D01*
Y463017D01*
X788221D01*
X778221D02*
Y467081D01*
X782284D01*
Y463017D01*
X778221D01*
X768221D02*
Y467081D01*
X772284D01*
Y463017D01*
X768221D01*
X758221D02*
Y467081D01*
X762285D01*
Y463017D01*
X758221D01*
X748221D02*
Y467081D01*
X752285D01*
Y463017D01*
X748221D01*
X738221D02*
Y467081D01*
X742285D01*
Y463017D01*
X738221D01*
X728221D02*
Y467081D01*
X732285D01*
Y463017D01*
X728221D01*
X718221D02*
Y467081D01*
X722285D01*
Y463017D01*
X718221D01*
X708221D02*
Y467081D01*
X712285D01*
Y463017D01*
X708221D01*
X698221D02*
Y467081D01*
X702285D01*
Y463017D01*
X698221D01*
X688221D02*
Y467081D01*
X692285D01*
Y463017D01*
X688221D01*
X678221D02*
Y467081D01*
X682285D01*
Y463017D01*
X678221D01*
X668221D02*
Y467081D01*
X672285D01*
Y463017D01*
X668221D01*
X658221D02*
Y467081D01*
X662285D01*
Y463017D01*
X658221D01*
X648221D02*
Y467081D01*
X652285D01*
Y463017D01*
X648221D01*
X638221D02*
Y467081D01*
X642285D01*
Y463017D01*
X638221D01*
X628221D02*
Y467081D01*
X632285D01*
Y463017D01*
X628221D01*
X618221D02*
Y467081D01*
X622285D01*
Y463017D01*
X618221D01*
X608221D02*
Y467081D01*
X612285D01*
Y463017D01*
X608221D01*
X598221D02*
Y467081D01*
X602285D01*
Y463017D01*
X598221D01*
X588221D02*
Y467081D01*
X592285D01*
Y463017D01*
X588221D01*
X578221D02*
Y467081D01*
X582285D01*
Y463017D01*
X578221D01*
X568221D02*
Y467081D01*
X572285D01*
Y463017D01*
X568221D01*
X558221D02*
Y467081D01*
X562285D01*
Y463017D01*
X558221D01*
X548221D02*
Y467081D01*
X552285D01*
Y463017D01*
X548221D01*
X538221D02*
Y467081D01*
X542285D01*
Y463017D01*
X538221D01*
X528221D02*
Y467081D01*
X532285D01*
Y463017D01*
X528221D01*
X518221D02*
Y467081D01*
X522285D01*
Y463017D01*
X518221D01*
X508221D02*
Y467081D01*
X512285D01*
Y463017D01*
X508221D01*
X498221D02*
Y467081D01*
X502285D01*
Y463017D01*
X498221D01*
X488221D02*
Y467081D01*
X492285D01*
Y463017D01*
X488221D01*
X478221D02*
Y467081D01*
X482285D01*
Y463017D01*
X478221D01*
X468221D02*
Y467081D01*
X472285D01*
Y463017D01*
X468221D01*
X458221D02*
Y467081D01*
X462285D01*
Y463017D01*
X458221D01*
X448221D02*
Y467081D01*
X452285D01*
Y463017D01*
X448221D01*
X438221D02*
Y467081D01*
X442285D01*
Y463017D01*
X438221D01*
X428221D02*
Y467081D01*
X432285D01*
Y463017D01*
X428221D01*
X418221D02*
Y467081D01*
X422285D01*
Y463017D01*
X418221D01*
X408221D02*
Y467081D01*
X412285D01*
Y463017D01*
X408221D01*
X398221D02*
Y467081D01*
X402285D01*
Y463017D01*
X398221D01*
X388221D02*
Y467081D01*
X392285D01*
Y463017D01*
X388221D01*
X378221D02*
Y467081D01*
X382285D01*
Y463017D01*
X378221D01*
X368221D02*
Y467081D01*
X372285D01*
Y463017D01*
X368221D01*
X358221D02*
Y467081D01*
X362285D01*
Y463017D01*
X358221D01*
X348221D02*
Y467081D01*
X352285D01*
Y463017D01*
X348221D01*
X338221D02*
Y467081D01*
X342285D01*
Y463017D01*
X338221D01*
X328221D02*
Y467081D01*
X332285D01*
Y463017D01*
X328221D01*
X318221D02*
Y467081D01*
X322285D01*
Y463017D01*
X318221D01*
X308221D02*
Y467081D01*
X312285D01*
Y463017D01*
X308221D01*
X298221D02*
Y467081D01*
X302285D01*
Y463017D01*
X298221D01*
X288221D02*
Y467081D01*
X292285D01*
Y463017D01*
X288221D01*
X278221D02*
Y467081D01*
X282285D01*
Y463017D01*
X278221D01*
X268221D02*
Y467081D01*
X272285D01*
Y463017D01*
X268221D01*
X258222D02*
Y467081D01*
X262286D01*
Y463017D01*
X258222D01*
X248222D02*
Y467081D01*
X252286D01*
Y463017D01*
X248222D01*
X238222D02*
Y467081D01*
X242286D01*
Y463017D01*
X238222D01*
X228222D02*
Y467081D01*
X232286D01*
Y463017D01*
X228222D01*
X218222D02*
Y467081D01*
X222286D01*
Y463017D01*
X218222D01*
X208222D02*
Y467081D01*
X212286D01*
Y463017D01*
X208222D01*
X198222D02*
Y467081D01*
X202286D01*
Y463017D01*
X198222D01*
X188222D02*
Y467081D01*
X192286D01*
Y463017D01*
X188222D01*
X178222D02*
Y467081D01*
X182286D01*
Y463017D01*
X178222D01*
X168222D02*
Y467081D01*
X172286D01*
Y463017D01*
X168222D01*
X158222D02*
Y467081D01*
X162286D01*
Y463017D01*
X158222D01*
X148222D02*
Y467081D01*
X152286D01*
Y463017D01*
X148222D01*
X138222D02*
Y467081D01*
X142286D01*
Y463017D01*
X138222D01*
X128222D02*
Y467081D01*
X132286D01*
Y463017D01*
X128222D01*
X118222D02*
Y467081D01*
X122286D01*
Y463017D01*
X118222D01*
X108222D02*
Y467081D01*
X112286D01*
Y463017D01*
X108222D01*
X98222D02*
Y467081D01*
X102286D01*
Y463017D01*
X98222D01*
X88222D02*
Y467081D01*
X92286D01*
Y463017D01*
X88222D01*
X78222D02*
Y467081D01*
X82286D01*
Y463017D01*
X78222D01*
X68222D02*
Y467081D01*
X72286D01*
Y463017D01*
X68222D01*
X64465Y432919D02*
Y436983D01*
X68528D01*
Y432919D01*
X64465D01*
X74464D02*
Y436983D01*
X78528D01*
Y432919D01*
X74464D01*
X84464D02*
Y436983D01*
X88528D01*
Y432919D01*
X84464D01*
X94464D02*
Y436983D01*
X98528D01*
Y432919D01*
X94464D01*
X104464D02*
Y436983D01*
X108528D01*
Y432919D01*
X104464D01*
X114464D02*
Y436983D01*
X118528D01*
Y432919D01*
X114464D01*
X124464D02*
Y436983D01*
X128528D01*
Y432919D01*
X124464D01*
X134464D02*
Y436983D01*
X138528D01*
Y432919D01*
X134464D01*
X144464D02*
Y436983D01*
X148528D01*
Y432919D01*
X144464D01*
X154464D02*
Y436983D01*
X158528D01*
Y432919D01*
X154464D01*
X164464D02*
Y436983D01*
X168528D01*
Y432919D01*
X164464D01*
X174464D02*
Y436983D01*
X178528D01*
Y432919D01*
X174464D01*
X184464D02*
Y436983D01*
X188528D01*
Y432919D01*
X184464D01*
X194464D02*
Y436983D01*
X198528D01*
Y432919D01*
X194464D01*
X204464D02*
Y436983D01*
X208528D01*
Y432919D01*
X204464D01*
X214464D02*
Y436983D01*
X218528D01*
Y432919D01*
X214464D01*
X224464D02*
Y436983D01*
X228528D01*
Y432919D01*
X224464D01*
X234464D02*
Y436983D01*
X238528D01*
Y432919D01*
X234464D01*
X244464D02*
Y436983D01*
X248528D01*
Y432919D01*
X244464D01*
X254464D02*
Y436983D01*
X258528D01*
Y432919D01*
X254464D01*
X264464D02*
Y436983D01*
X268528D01*
Y432919D01*
X264464D01*
X274464D02*
Y436983D01*
X278528D01*
Y432919D01*
X274464D01*
X284464D02*
Y436983D01*
X288528D01*
Y432919D01*
X284464D01*
X294464D02*
Y436983D01*
X298528D01*
Y432919D01*
X294464D01*
X304464D02*
Y436983D01*
X308528D01*
Y432919D01*
X304464D01*
X314464D02*
Y436983D01*
X318528D01*
Y432919D01*
X314464D01*
X324464D02*
Y436983D01*
X328528D01*
Y432919D01*
X324464D01*
X334464D02*
Y436983D01*
X338528D01*
Y432919D01*
X334464D01*
X344464D02*
Y436983D01*
X348528D01*
Y432919D01*
X344464D01*
X354464D02*
Y436983D01*
X358528D01*
Y432919D01*
X354464D01*
X364464D02*
Y436983D01*
X368528D01*
Y432919D01*
X364464D01*
X374464D02*
Y436983D01*
X378528D01*
Y432919D01*
X374464D01*
X384464D02*
Y436983D01*
X388528D01*
Y432919D01*
X384464D01*
X394464D02*
Y436983D01*
X398528D01*
Y432919D01*
X394464D01*
X404464D02*
Y436983D01*
X408528D01*
Y432919D01*
X404464D01*
X414464D02*
Y436983D01*
X418528D01*
Y432919D01*
X414464D01*
X424464D02*
Y436983D01*
X428528D01*
Y432919D01*
X424464D01*
X434464D02*
Y436983D01*
X438528D01*
Y432919D01*
X434464D01*
X444464D02*
Y436983D01*
X448528D01*
Y432919D01*
X444464D01*
X454464D02*
Y436983D01*
X458528D01*
Y432919D01*
X454464D01*
X464464D02*
Y436983D01*
X468528D01*
Y432919D01*
X464464D01*
X474464D02*
Y436983D01*
X478528D01*
Y432919D01*
X474464D01*
X484464D02*
Y436983D01*
X488528D01*
Y432919D01*
X484464D01*
X494464D02*
Y436983D01*
X498528D01*
Y432919D01*
X494464D01*
X504464D02*
Y436983D01*
X508528D01*
Y432919D01*
X504464D01*
X514464D02*
Y436983D01*
X518528D01*
Y432919D01*
X514464D01*
X524464D02*
Y436983D01*
X528527D01*
Y432919D01*
X524464D01*
X534464D02*
Y436983D01*
X538527D01*
Y432919D01*
X534464D01*
X544464D02*
Y436983D01*
X548527D01*
Y432919D01*
X544464D01*
X554464D02*
Y436983D01*
X558527D01*
Y432919D01*
X554464D01*
X564464D02*
Y436983D01*
X568527D01*
Y432919D01*
X564464D01*
X574463D02*
Y436983D01*
X578527D01*
Y432919D01*
X574463D01*
X584463D02*
Y436983D01*
X588527D01*
Y432919D01*
X584463D01*
X594463D02*
Y436983D01*
X598527D01*
Y432919D01*
X594463D01*
X604463D02*
Y436983D01*
X608527D01*
Y432919D01*
X604463D01*
X614463D02*
Y436983D01*
X618527D01*
Y432919D01*
X614463D01*
X624463D02*
Y436983D01*
X628527D01*
Y432919D01*
X624463D01*
X634463D02*
Y436983D01*
X638527D01*
Y432919D01*
X634463D01*
X644463D02*
Y436983D01*
X648527D01*
Y432919D01*
X644463D01*
X654463D02*
Y436983D01*
X658527D01*
Y432919D01*
X654463D01*
X664463D02*
Y436983D01*
X668527D01*
Y432919D01*
X664463D01*
X674463D02*
Y436983D01*
X678527D01*
Y432919D01*
X674463D01*
X684463D02*
Y436983D01*
X688527D01*
Y432919D01*
X684463D01*
X694463D02*
Y436983D01*
X698527D01*
Y432919D01*
X694463D01*
X704463D02*
Y436983D01*
X708527D01*
Y432919D01*
X704463D01*
X714463D02*
Y436983D01*
X718527D01*
Y432919D01*
X714463D01*
X724463D02*
Y436983D01*
X728527D01*
Y432919D01*
X724463D01*
X734463D02*
Y436983D01*
X738527D01*
Y432919D01*
X734463D01*
X744463D02*
Y436983D01*
X748527D01*
Y432919D01*
X744463D01*
X754463D02*
Y436983D01*
X758527D01*
Y432919D01*
X754463D01*
X764463D02*
Y436983D01*
X768527D01*
Y432919D01*
X764463D01*
X774463D02*
Y436983D01*
X778527D01*
Y432919D01*
X774463D01*
X784463D02*
Y436983D01*
X788527D01*
Y432919D01*
X784463D01*
X794463D02*
Y436983D01*
X798527D01*
Y432919D01*
X794463D01*
X804463D02*
Y436983D01*
X808527D01*
Y432919D01*
X804463D01*
X814463D02*
Y436983D01*
X818527D01*
Y432919D01*
X814463D01*
X824463D02*
Y436983D01*
X828527D01*
Y432919D01*
X824463D01*
X834463D02*
Y436983D01*
X838527D01*
Y432919D01*
X834463D01*
X844463D02*
Y436983D01*
X848527D01*
Y432919D01*
X844463D01*
X854463D02*
Y436983D01*
X858527D01*
Y432919D01*
X854463D01*
X864463D02*
Y436983D01*
X868527D01*
Y432919D01*
X864463D01*
X874463D02*
Y436983D01*
X878527D01*
Y432919D01*
X874463D01*
X884463D02*
Y436983D01*
X888527D01*
Y432919D01*
X884463D01*
X894463D02*
Y436983D01*
X898527D01*
Y432919D01*
X894463D01*
X904463D02*
Y436983D01*
X908527D01*
Y432919D01*
X904463D01*
X914463D02*
Y436983D01*
X918527D01*
Y432919D01*
X914463D01*
X924463D02*
Y436983D01*
X928527D01*
Y432919D01*
X924463D01*
X934463D02*
Y436983D01*
X938527D01*
Y432919D01*
X934463D01*
X944463D02*
Y436983D01*
X948527D01*
Y432919D01*
X944463D01*
X954463D02*
Y436983D01*
X958527D01*
Y432919D01*
X954463D01*
X964463D02*
Y436983D01*
X968527D01*
Y432919D01*
X964463D01*
X974463D02*
Y436983D01*
X978527D01*
Y432919D01*
X974463D01*
X984463D02*
Y436983D01*
X988527D01*
Y432919D01*
X984463D01*
X994463D02*
Y436983D01*
X998527D01*
Y432919D01*
X994463D01*
X1004463D02*
Y436983D01*
X1008527D01*
Y432919D01*
X1004463D01*
X1014463D02*
Y436983D01*
X1018527D01*
Y432919D01*
X1014463D01*
X1024463D02*
Y436983D01*
X1028527D01*
Y432919D01*
X1024463D01*
X1034463D02*
Y436983D01*
X1038527D01*
Y432919D01*
X1034463D01*
X1032415Y265159D02*
Y269223D01*
X1036479D01*
Y265159D01*
X1032415D01*
X1017415D02*
Y269223D01*
X1021479D01*
Y265159D01*
X1017415D01*
X1002415D02*
Y269223D01*
X1006479D01*
Y265159D01*
X1002415D01*
X987415D02*
Y269223D01*
X991479D01*
Y265159D01*
X987415D01*
X972415D02*
Y269223D01*
X976479D01*
Y265159D01*
X972415D01*
X957415D02*
Y269223D01*
X961479D01*
Y265159D01*
X957415D01*
X942415D02*
Y269223D01*
X946479D01*
Y265159D01*
X942415D01*
X927415D02*
Y269223D01*
X931479D01*
Y265159D01*
X927415D01*
X912415D02*
Y269223D01*
X916479D01*
Y265159D01*
X912415D01*
X897415D02*
Y269223D01*
X901479D01*
Y265159D01*
X897415D01*
X882415D02*
Y269223D01*
X886479D01*
Y265159D01*
X882415D01*
X867415D02*
Y269223D01*
X871479D01*
Y265159D01*
X867415D01*
X852415D02*
Y269223D01*
X856479D01*
Y265159D01*
X852415D01*
X837415D02*
Y269223D01*
X841479D01*
Y265159D01*
X837415D01*
X822415D02*
Y269223D01*
X826479D01*
Y265159D01*
X822415D01*
X807415D02*
Y269223D01*
X811479D01*
Y265159D01*
X807415D01*
X792415D02*
Y269223D01*
X796479D01*
Y265159D01*
X792415D01*
X777415D02*
Y269223D01*
X781479D01*
Y265159D01*
X777415D01*
X762415D02*
Y269223D01*
X766479D01*
Y265159D01*
X762415D01*
X747415D02*
Y269223D01*
X751479D01*
Y265159D01*
X747415D01*
X732415D02*
Y269223D01*
X736479D01*
Y265159D01*
X732415D01*
X717415D02*
Y269223D01*
X721479D01*
Y265159D01*
X717415D01*
X702415D02*
Y269223D01*
X706479D01*
Y265159D01*
X702415D01*
X687415D02*
Y269223D01*
X691479D01*
Y265159D01*
X687415D01*
X672415D02*
Y269223D01*
X676479D01*
Y265159D01*
X672415D01*
X657415D02*
Y269223D01*
X661479D01*
Y265159D01*
X657415D01*
X642415D02*
Y269223D01*
X646479D01*
Y265159D01*
X642415D01*
X627415D02*
Y269223D01*
X631479D01*
Y265159D01*
X627415D01*
X612415D02*
Y269223D01*
X616479D01*
Y265159D01*
X612415D01*
X597415D02*
Y269223D01*
X601479D01*
Y265159D01*
X597415D01*
X582415D02*
Y269223D01*
X586479D01*
Y265159D01*
X582415D01*
X567415D02*
Y269223D01*
X571479D01*
Y265159D01*
X567415D01*
X552415D02*
Y269223D01*
X556479D01*
Y265159D01*
X552415D01*
X537415D02*
Y269223D01*
X541479D01*
Y265159D01*
X537415D01*
X522415D02*
Y269223D01*
X526479D01*
Y265159D01*
X522415D01*
X507415D02*
Y269223D01*
X511479D01*
Y265159D01*
X507415D01*
X492415D02*
Y269223D01*
X496479D01*
Y265159D01*
X492415D01*
X477415D02*
Y269223D01*
X481479D01*
Y265159D01*
X477415D01*
X462415D02*
Y269223D01*
X466479D01*
Y265159D01*
X462415D01*
X447415D02*
Y269223D01*
X451479D01*
Y265159D01*
X447415D01*
X432415D02*
Y269223D01*
X436479D01*
Y265159D01*
X432415D01*
X417415D02*
Y269223D01*
X421479D01*
Y265159D01*
X417415D01*
X402415D02*
Y269223D01*
X406479D01*
Y265159D01*
X402415D01*
X387415D02*
Y269223D01*
X391479D01*
Y265159D01*
X387415D01*
X372415D02*
Y269223D01*
X376479D01*
Y265159D01*
X372415D01*
X357415D02*
Y269223D01*
X361479D01*
Y265159D01*
X357415D01*
X342415D02*
Y269223D01*
X346479D01*
Y265159D01*
X342415D01*
X327415D02*
Y269223D01*
X331479D01*
Y265159D01*
X327415D01*
X312415D02*
Y269223D01*
X316479D01*
Y265159D01*
X312415D01*
X297415D02*
Y269223D01*
X301479D01*
Y265159D01*
X297415D01*
X282415D02*
Y269223D01*
X286479D01*
Y265159D01*
X282415D01*
X267415D02*
Y269223D01*
X271479D01*
Y265159D01*
X267415D01*
X252415D02*
Y269223D01*
X256479D01*
Y265159D01*
X252415D01*
X237415D02*
Y269223D01*
X241479D01*
Y265159D01*
X237415D01*
X222415D02*
Y269223D01*
X226479D01*
Y265159D01*
X222415D01*
X207415D02*
Y269223D01*
X211479D01*
Y265159D01*
X207415D01*
X192415D02*
Y269223D01*
X196479D01*
Y265159D01*
X192415D01*
X177415D02*
Y269223D01*
X181479D01*
Y265159D01*
X177415D01*
X162415D02*
Y269223D01*
X166479D01*
Y265159D01*
X162415D01*
X147415D02*
Y269223D01*
X151479D01*
Y265159D01*
X147415D01*
X132415D02*
Y269223D01*
X136479D01*
Y265159D01*
X132415D01*
X117415D02*
Y269223D01*
X121479D01*
Y265159D01*
X117415D01*
X102415D02*
Y269223D01*
X106479D01*
Y265159D01*
X102415D01*
X87415D02*
Y269223D01*
X91479D01*
Y265159D01*
X87415D01*
X72415D02*
Y269223D01*
X76479D01*
Y265159D01*
X72415D01*
X62906Y230777D02*
Y234841D01*
X66970D01*
Y230777D01*
X62906D01*
X77906D02*
Y234841D01*
X81970D01*
Y230777D01*
X77906D01*
X92906D02*
Y234841D01*
X96970D01*
Y230777D01*
X92906D01*
X107906D02*
Y234841D01*
X111970D01*
Y230777D01*
X107906D01*
X122906D02*
Y234841D01*
X126970D01*
Y230777D01*
X122906D01*
X137906D02*
Y234841D01*
X141970D01*
Y230777D01*
X137906D01*
X152906D02*
Y234841D01*
X156970D01*
Y230777D01*
X152906D01*
X167906D02*
Y234841D01*
X171970D01*
Y230777D01*
X167906D01*
X182906D02*
Y234841D01*
X186970D01*
Y230777D01*
X182906D01*
X197906D02*
Y234841D01*
X201970D01*
Y230777D01*
X197906D01*
X212906D02*
Y234841D01*
X216970D01*
Y230777D01*
X212906D01*
X227906D02*
Y234841D01*
X231970D01*
Y230777D01*
X227906D01*
X242906D02*
Y234841D01*
X246970D01*
Y230777D01*
X242906D01*
X257906D02*
Y234841D01*
X261970D01*
Y230777D01*
X257906D01*
X272906D02*
Y234841D01*
X276970D01*
Y230777D01*
X272906D01*
X287906D02*
Y234841D01*
X291970D01*
Y230777D01*
X287906D01*
X302906D02*
Y234841D01*
X306970D01*
Y230777D01*
X302906D01*
X317906D02*
Y234841D01*
X321970D01*
Y230777D01*
X317906D01*
X332906D02*
Y234841D01*
X336970D01*
Y230777D01*
X332906D01*
X347906D02*
Y234841D01*
X351970D01*
Y230777D01*
X347906D01*
X362906D02*
Y234841D01*
X366970D01*
Y230777D01*
X362906D01*
X377906D02*
Y234841D01*
X381970D01*
Y230777D01*
X377906D01*
X392906D02*
Y234841D01*
X396970D01*
Y230777D01*
X392906D01*
X407906D02*
Y234841D01*
X411970D01*
Y230777D01*
X407906D01*
X422906D02*
Y234841D01*
X426970D01*
Y230777D01*
X422906D01*
X437906D02*
Y234841D01*
X441970D01*
Y230777D01*
X437906D01*
X452906D02*
Y234841D01*
X456970D01*
Y230777D01*
X452906D01*
X467906D02*
Y234841D01*
X471970D01*
Y230777D01*
X467906D01*
X482906D02*
Y234841D01*
X486970D01*
Y230777D01*
X482906D01*
X497906D02*
Y234841D01*
X501970D01*
Y230777D01*
X497906D01*
X512906D02*
Y234841D01*
X516970D01*
Y230777D01*
X512906D01*
X527906D02*
Y234841D01*
X531970D01*
Y230777D01*
X527906D01*
X542906D02*
Y234841D01*
X546970D01*
Y230777D01*
X542906D01*
X557906D02*
Y234841D01*
X561970D01*
Y230777D01*
X557906D01*
X572906D02*
Y234841D01*
X576970D01*
Y230777D01*
X572906D01*
X587906D02*
Y234841D01*
X591970D01*
Y230777D01*
X587906D01*
X602906D02*
Y234841D01*
X606970D01*
Y230777D01*
X602906D01*
X617906D02*
Y234841D01*
X621970D01*
Y230777D01*
X617906D01*
X632906D02*
Y234841D01*
X636970D01*
Y230777D01*
X632906D01*
X647906D02*
Y234841D01*
X651970D01*
Y230777D01*
X647906D01*
X662906D02*
Y234841D01*
X666970D01*
Y230777D01*
X662906D01*
X677906D02*
Y234841D01*
X681970D01*
Y230777D01*
X677906D01*
X692906D02*
Y234841D01*
X696970D01*
Y230777D01*
X692906D01*
X707906D02*
Y234841D01*
X711970D01*
Y230777D01*
X707906D01*
X722906D02*
Y234841D01*
X726970D01*
Y230777D01*
X722906D01*
X737906D02*
Y234841D01*
X741970D01*
Y230777D01*
X737906D01*
X752906D02*
Y234841D01*
X756970D01*
Y230777D01*
X752906D01*
X767906D02*
Y234841D01*
X771970D01*
Y230777D01*
X767906D01*
X782906D02*
Y234841D01*
X786970D01*
Y230777D01*
X782906D01*
X797906D02*
Y234841D01*
X801970D01*
Y230777D01*
X797906D01*
X812906D02*
Y234841D01*
X816970D01*
Y230777D01*
X812906D01*
X827906D02*
Y234841D01*
X831970D01*
Y230777D01*
X827906D01*
X842906D02*
Y234841D01*
X846970D01*
Y230777D01*
X842906D01*
X857906D02*
Y234841D01*
X861970D01*
Y230777D01*
X857906D01*
X872906D02*
Y234841D01*
X876970D01*
Y230777D01*
X872906D01*
X887906D02*
Y234841D01*
X891970D01*
Y230777D01*
X887906D01*
X902906D02*
Y234841D01*
X906970D01*
Y230777D01*
X902906D01*
X917906D02*
Y234841D01*
X921970D01*
Y230777D01*
X917906D01*
X932906D02*
Y234841D01*
X936970D01*
Y230777D01*
X932906D01*
X947906D02*
Y234841D01*
X951970D01*
Y230777D01*
X947906D01*
X962906D02*
Y234841D01*
X966970D01*
Y230777D01*
X962906D01*
X977906D02*
Y234841D01*
X981970D01*
Y230777D01*
X977906D01*
X992906D02*
Y234841D01*
X996970D01*
Y230777D01*
X992906D01*
X1007906D02*
Y234841D01*
X1011970D01*
Y230777D01*
X1007906D01*
X1022906D02*
Y234841D01*
X1026970D01*
Y230777D01*
X1022906D01*
X1054466Y559177D02*
Y563241D01*
X1058530D01*
Y559177D01*
X1054466D01*
X1024466D02*
Y563241D01*
X1028530D01*
Y559177D01*
X1024466D01*
X1009466Y709177D02*
Y713241D01*
X1013530D01*
Y709177D01*
X1009466D01*
X994466Y679177D02*
Y683241D01*
X998530D01*
Y679177D01*
X994466D01*
X1009466Y589177D02*
Y593241D01*
X1013530D01*
Y589177D01*
X1009466D01*
X994466Y559177D02*
Y563241D01*
X998530D01*
Y559177D01*
X994466D01*
X979466Y709177D02*
Y713241D01*
X983530D01*
Y709177D01*
X979466D01*
Y589177D02*
Y593241D01*
X983530D01*
Y589177D01*
X979466D01*
X964466Y559177D02*
Y563241D01*
X968530D01*
Y559177D01*
X964466D01*
X949466Y709177D02*
Y713241D01*
X953530D01*
Y709177D01*
X949466D01*
X934466Y679177D02*
Y683241D01*
X938530D01*
Y679177D01*
X934466D01*
X949466Y589177D02*
Y593241D01*
X953530D01*
Y589177D01*
X949466D01*
X934466Y559177D02*
Y563241D01*
X938530D01*
Y559177D01*
X934466D01*
X919466Y709177D02*
Y713241D01*
X923530D01*
Y709177D01*
X919466D01*
Y589177D02*
Y593241D01*
X923530D01*
Y589177D01*
X919466D01*
X904466Y559177D02*
Y563241D01*
X908530D01*
Y559177D01*
X904466D01*
X889466Y709177D02*
Y713241D01*
X893530D01*
Y709177D01*
X889466D01*
X874466Y679177D02*
Y683241D01*
X878530D01*
Y679177D01*
X874466D01*
X889466Y589177D02*
Y593241D01*
X893530D01*
Y589177D01*
X889466D01*
X874466Y559177D02*
Y563241D01*
X878530D01*
Y559177D01*
X874466D01*
X859466Y709177D02*
Y713241D01*
X863530D01*
Y709177D01*
X859466D01*
X844466Y679177D02*
Y683241D01*
X848530D01*
Y679177D01*
X844466D01*
X859466Y589177D02*
Y593241D01*
X863530D01*
Y589177D01*
X859466D01*
X844466Y559177D02*
Y563241D01*
X848530D01*
Y559177D01*
X844466D01*
X829466Y709177D02*
Y713241D01*
X833530D01*
Y709177D01*
X829466D01*
X814466Y679177D02*
Y683241D01*
X818530D01*
Y679177D01*
X814466D01*
X829466Y589177D02*
Y593241D01*
X833530D01*
Y589177D01*
X829466D01*
X814466Y559177D02*
Y563241D01*
X818530D01*
Y559177D01*
X814466D01*
X799466Y709177D02*
Y713241D01*
X803530D01*
Y709177D01*
X799466D01*
X784466Y679177D02*
Y683241D01*
X788530D01*
Y679177D01*
X784466D01*
X799466Y589177D02*
Y593241D01*
X803530D01*
Y589177D01*
X799466D01*
X784466Y559177D02*
Y563241D01*
X788530D01*
Y559177D01*
X784466D01*
X769466Y709177D02*
Y713241D01*
X773530D01*
Y709177D01*
X769466D01*
X754466Y679177D02*
Y683241D01*
X758530D01*
Y679177D01*
X754466D01*
X769466Y589177D02*
Y593241D01*
X773530D01*
Y589177D01*
X769466D01*
X754466Y559177D02*
Y563241D01*
X758530D01*
Y559177D01*
X754466D01*
X739466Y709177D02*
Y713241D01*
X743530D01*
Y709177D01*
X739466D01*
X724466Y679177D02*
Y683241D01*
X728530D01*
Y679177D01*
X724466D01*
X739466Y589177D02*
Y593241D01*
X743530D01*
Y589177D01*
X739466D01*
X724466Y559177D02*
Y563241D01*
X728530D01*
Y559177D01*
X724466D01*
X709466Y709177D02*
Y713241D01*
X713530D01*
Y709177D01*
X709466D01*
X694466Y679177D02*
Y683241D01*
X698530D01*
Y679177D01*
X694466D01*
X709466Y589177D02*
Y593241D01*
X713530D01*
Y589177D01*
X709466D01*
X694466Y559177D02*
Y563241D01*
X698530D01*
Y559177D01*
X694466D01*
X679466Y709177D02*
Y713241D01*
X683530D01*
Y709177D01*
X679466D01*
X664466Y679177D02*
Y683241D01*
X668530D01*
Y679177D01*
X664466D01*
X679466Y589177D02*
Y593241D01*
X683530D01*
Y589177D01*
X679466D01*
X664466Y559177D02*
Y563241D01*
X668530D01*
Y559177D01*
X664466D01*
X649466Y709177D02*
Y713241D01*
X653530D01*
Y709177D01*
X649466D01*
X634466Y679177D02*
Y683241D01*
X638530D01*
Y679177D01*
X634466D01*
X649466Y589177D02*
Y593241D01*
X653530D01*
Y589177D01*
X649466D01*
X634466Y559177D02*
Y563241D01*
X638530D01*
Y559177D01*
X634466D01*
X619466Y709177D02*
Y713241D01*
X623530D01*
Y709177D01*
X619466D01*
X604466Y679177D02*
Y683241D01*
X608530D01*
Y679177D01*
X604466D01*
X619466Y589177D02*
Y593241D01*
X623530D01*
Y589177D01*
X619466D01*
X604466Y559177D02*
Y563241D01*
X608530D01*
Y559177D01*
X604466D01*
X589466Y709177D02*
Y713241D01*
X593530D01*
Y709177D01*
X589466D01*
X574466Y679177D02*
Y683241D01*
X578530D01*
Y679177D01*
X574466D01*
X589466Y589177D02*
Y593241D01*
X593530D01*
Y589177D01*
X589466D01*
X574466Y559177D02*
Y563241D01*
X578530D01*
Y559177D01*
X574466D01*
X559466Y709177D02*
Y713241D01*
X563530D01*
Y709177D01*
X559466D01*
X544466Y679177D02*
Y683241D01*
X548530D01*
Y679177D01*
X544466D01*
X559466Y589177D02*
Y593241D01*
X563530D01*
Y589177D01*
X559466D01*
X544466Y559177D02*
Y563241D01*
X548530D01*
Y559177D01*
X544466D01*
X529466Y709177D02*
Y713241D01*
X533530D01*
Y709177D01*
X529466D01*
X514466Y679177D02*
Y683241D01*
X518530D01*
Y679177D01*
X514466D01*
X529466Y589177D02*
Y593241D01*
X533530D01*
Y589177D01*
X529466D01*
X514466Y559177D02*
Y563241D01*
X518530D01*
Y559177D01*
X514466D01*
X499466Y709177D02*
Y713241D01*
X503530D01*
Y709177D01*
X499466D01*
X484466Y679177D02*
Y683241D01*
X488530D01*
Y679177D01*
X484466D01*
X499466Y589177D02*
Y593241D01*
X503530D01*
Y589177D01*
X499466D01*
X484466Y559177D02*
Y563241D01*
X488530D01*
Y559177D01*
X484466D01*
X469466Y709177D02*
Y713241D01*
X473530D01*
Y709177D01*
X469466D01*
X454466Y679177D02*
Y683241D01*
X458530D01*
Y679177D01*
X454466D01*
X469466Y589177D02*
Y593241D01*
X473530D01*
Y589177D01*
X469466D01*
X454466Y559177D02*
Y563241D01*
X458530D01*
Y559177D01*
X454466D01*
X439466Y709177D02*
Y713241D01*
X443530D01*
Y709177D01*
X439466D01*
X424466Y679177D02*
Y683241D01*
X428530D01*
Y679177D01*
X424466D01*
X439466Y589177D02*
Y593241D01*
X443530D01*
Y589177D01*
X439466D01*
X424466Y559177D02*
Y563241D01*
X428530D01*
Y559177D01*
X424466D01*
X409466Y709177D02*
Y713241D01*
X413530D01*
Y709177D01*
X409466D01*
X394466Y679177D02*
Y683241D01*
X398530D01*
Y679177D01*
X394466D01*
X409466Y589177D02*
Y593241D01*
X413530D01*
Y589177D01*
X409466D01*
X394466Y559177D02*
Y563241D01*
X398530D01*
Y559177D01*
X394466D01*
X379466Y709177D02*
Y713241D01*
X383530D01*
Y709177D01*
X379466D01*
X364466Y679177D02*
Y683241D01*
X368530D01*
Y679177D01*
X364466D01*
X379466Y589177D02*
Y593241D01*
X383530D01*
Y589177D01*
X379466D01*
X364466Y559177D02*
Y563241D01*
X368530D01*
Y559177D01*
X364466D01*
X349466Y709177D02*
Y713241D01*
X353530D01*
Y709177D01*
X349466D01*
X334466Y679177D02*
Y683241D01*
X338530D01*
Y679177D01*
X334466D01*
X349466Y589177D02*
Y593241D01*
X353530D01*
Y589177D01*
X349466D01*
X334466Y559177D02*
Y563241D01*
X338530D01*
Y559177D01*
X334466D01*
X319466Y709177D02*
Y713241D01*
X323530D01*
Y709177D01*
X319466D01*
X304466Y679177D02*
Y683241D01*
X308530D01*
Y679177D01*
X304466D01*
X319466Y589177D02*
Y593241D01*
X323530D01*
Y589177D01*
X319466D01*
X304466Y559177D02*
Y563241D01*
X308530D01*
Y559177D01*
X304466D01*
X289466Y709177D02*
Y713241D01*
X293530D01*
Y709177D01*
X289466D01*
X274466Y679177D02*
Y683241D01*
X278530D01*
Y679177D01*
X274466D01*
X289466Y589177D02*
Y593241D01*
X293530D01*
Y589177D01*
X289466D01*
X274466Y559177D02*
Y563241D01*
X278530D01*
Y559177D01*
X274466D01*
X259466Y709177D02*
Y713241D01*
X263530D01*
Y709177D01*
X259466D01*
X244466Y679177D02*
Y683241D01*
X248530D01*
Y679177D01*
X244466D01*
X259466Y589177D02*
Y593241D01*
X263530D01*
Y589177D01*
X259466D01*
X244466Y559177D02*
Y563241D01*
X248530D01*
Y559177D01*
X244466D01*
X229466Y709177D02*
Y713241D01*
X233530D01*
Y709177D01*
X229466D01*
X214466Y679177D02*
Y683241D01*
X218530D01*
Y679177D01*
X214466D01*
X229466Y589177D02*
Y593241D01*
X233530D01*
Y589177D01*
X229466D01*
X214466Y559177D02*
Y563241D01*
X218530D01*
Y559177D01*
X214466D01*
X199466Y709177D02*
Y713241D01*
X203530D01*
Y709177D01*
X199466D01*
X184466Y679177D02*
Y683241D01*
X188530D01*
Y679177D01*
X184466D01*
X199466Y589177D02*
Y593241D01*
X203530D01*
Y589177D01*
X199466D01*
X184466Y559177D02*
Y563241D01*
X188530D01*
Y559177D01*
X184466D01*
X169466Y709177D02*
Y713241D01*
X173530D01*
Y709177D01*
X169466D01*
X154466Y679177D02*
Y683241D01*
X158530D01*
Y679177D01*
X154466D01*
X169466Y589177D02*
Y593241D01*
X173530D01*
Y589177D01*
X169466D01*
X154466Y559177D02*
Y563241D01*
X158530D01*
Y559177D01*
X154466D01*
X139466Y709177D02*
Y713241D01*
X143530D01*
Y709177D01*
X139466D01*
X124466Y679177D02*
Y683241D01*
X128530D01*
Y679177D01*
X124466D01*
X139466Y589177D02*
Y593241D01*
X143530D01*
Y589177D01*
X139466D01*
X124466Y559177D02*
Y563241D01*
X128530D01*
Y559177D01*
X124466D01*
X109466Y709177D02*
Y713241D01*
X113530D01*
Y709177D01*
X109466D01*
X94466Y679177D02*
Y683241D01*
X98530D01*
Y679177D01*
X94466D01*
X109466Y589177D02*
Y593241D01*
X113530D01*
Y589177D01*
X109466D01*
X94466Y559177D02*
Y563241D01*
X98530D01*
Y559177D01*
X94466D01*
X79466Y709177D02*
Y713241D01*
X83530D01*
Y709177D01*
X79466D01*
Y589177D02*
Y593241D01*
X83530D01*
Y589177D01*
X79466D01*
X64466Y559177D02*
Y563241D01*
X68530D01*
Y559177D01*
X64466D01*
X34466D02*
Y563241D01*
X38530D01*
Y559177D01*
X34466D01*
X1054466Y379177D02*
Y383241D01*
X1058530D01*
Y379177D01*
X1054466D01*
X1024466D02*
Y383241D01*
X1028530D01*
Y379177D01*
X1024466D01*
X994466Y499177D02*
Y503241D01*
X998530D01*
Y499177D01*
X994466D01*
X1009466Y409177D02*
Y413241D01*
X1013530D01*
Y409177D01*
X1009466D01*
X994466Y379177D02*
Y383241D01*
X998530D01*
Y379177D01*
X994466D01*
X964466Y499177D02*
Y503241D01*
X968530D01*
Y499177D01*
X964466D01*
X979466Y409177D02*
Y413241D01*
X983530D01*
Y409177D01*
X979466D01*
X964466Y379177D02*
Y383241D01*
X968530D01*
Y379177D01*
X964466D01*
X934466Y499177D02*
Y503241D01*
X938530D01*
Y499177D01*
X934466D01*
X949466Y409177D02*
Y413241D01*
X953530D01*
Y409177D01*
X949466D01*
X934466Y379177D02*
Y383241D01*
X938530D01*
Y379177D01*
X934466D01*
X904466Y499177D02*
Y503241D01*
X908530D01*
Y499177D01*
X904466D01*
X919466Y409177D02*
Y413241D01*
X923530D01*
Y409177D01*
X919466D01*
X904466Y379177D02*
Y383241D01*
X908530D01*
Y379177D01*
X904466D01*
X874466Y499177D02*
Y503241D01*
X878530D01*
Y499177D01*
X874466D01*
X889466Y409177D02*
Y413241D01*
X893530D01*
Y409177D01*
X889466D01*
X874466Y379177D02*
Y383241D01*
X878530D01*
Y379177D01*
X874466D01*
X844466Y499177D02*
Y503241D01*
X848530D01*
Y499177D01*
X844466D01*
X859466Y409177D02*
Y413241D01*
X863530D01*
Y409177D01*
X859466D01*
X844466Y379177D02*
Y383241D01*
X848530D01*
Y379177D01*
X844466D01*
X814466Y499177D02*
Y503241D01*
X818530D01*
Y499177D01*
X814466D01*
X829466Y409177D02*
Y413241D01*
X833530D01*
Y409177D01*
X829466D01*
X814466Y379177D02*
Y383241D01*
X818530D01*
Y379177D01*
X814466D01*
X784466Y499177D02*
Y503241D01*
X788530D01*
Y499177D01*
X784466D01*
X799466Y409177D02*
Y413241D01*
X803530D01*
Y409177D01*
X799466D01*
X784466Y379177D02*
Y383241D01*
X788530D01*
Y379177D01*
X784466D01*
X754466Y499177D02*
Y503241D01*
X758530D01*
Y499177D01*
X754466D01*
X769466Y409177D02*
Y413241D01*
X773530D01*
Y409177D01*
X769466D01*
X754466Y379177D02*
Y383241D01*
X758530D01*
Y379177D01*
X754466D01*
X724466Y499177D02*
Y503241D01*
X728530D01*
Y499177D01*
X724466D01*
X739466Y409177D02*
Y413241D01*
X743530D01*
Y409177D01*
X739466D01*
X724466Y379177D02*
Y383241D01*
X728530D01*
Y379177D01*
X724466D01*
X694466Y499177D02*
Y503241D01*
X698530D01*
Y499177D01*
X694466D01*
X709466Y409177D02*
Y413241D01*
X713530D01*
Y409177D01*
X709466D01*
X694466Y379177D02*
Y383241D01*
X698530D01*
Y379177D01*
X694466D01*
X664466Y499177D02*
Y503241D01*
X668530D01*
Y499177D01*
X664466D01*
X679466Y409177D02*
Y413241D01*
X683530D01*
Y409177D01*
X679466D01*
X664466Y379177D02*
Y383241D01*
X668530D01*
Y379177D01*
X664466D01*
X634466Y499177D02*
Y503241D01*
X638530D01*
Y499177D01*
X634466D01*
X649466Y409177D02*
Y413241D01*
X653530D01*
Y409177D01*
X649466D01*
X634466Y379177D02*
Y383241D01*
X638530D01*
Y379177D01*
X634466D01*
X604466Y499177D02*
Y503241D01*
X608530D01*
Y499177D01*
X604466D01*
X619466Y409177D02*
Y413241D01*
X623530D01*
Y409177D01*
X619466D01*
X604466Y379177D02*
Y383241D01*
X608530D01*
Y379177D01*
X604466D01*
X574466Y499177D02*
Y503241D01*
X578530D01*
Y499177D01*
X574466D01*
X589466Y409177D02*
Y413241D01*
X593530D01*
Y409177D01*
X589466D01*
X574466Y379177D02*
Y383241D01*
X578530D01*
Y379177D01*
X574466D01*
X544466Y499177D02*
Y503241D01*
X548530D01*
Y499177D01*
X544466D01*
X559466Y409177D02*
Y413241D01*
X563530D01*
Y409177D01*
X559466D01*
X544466Y379177D02*
Y383241D01*
X548530D01*
Y379177D01*
X544466D01*
X514466Y499177D02*
Y503241D01*
X518530D01*
Y499177D01*
X514466D01*
X529466Y409177D02*
Y413241D01*
X533530D01*
Y409177D01*
X529466D01*
X514466Y379177D02*
Y383241D01*
X518530D01*
Y379177D01*
X514466D01*
X484466Y499177D02*
Y503241D01*
X488530D01*
Y499177D01*
X484466D01*
X499466Y409177D02*
Y413241D01*
X503530D01*
Y409177D01*
X499466D01*
X484466Y379177D02*
Y383241D01*
X488530D01*
Y379177D01*
X484466D01*
X454466Y499177D02*
Y503241D01*
X458530D01*
Y499177D01*
X454466D01*
X469466Y409177D02*
Y413241D01*
X473530D01*
Y409177D01*
X469466D01*
X454466Y379177D02*
Y383241D01*
X458530D01*
Y379177D01*
X454466D01*
X424466Y499177D02*
Y503241D01*
X428530D01*
Y499177D01*
X424466D01*
X439466Y409177D02*
Y413241D01*
X443530D01*
Y409177D01*
X439466D01*
X424466Y379177D02*
Y383241D01*
X428530D01*
Y379177D01*
X424466D01*
X394466Y499177D02*
Y503241D01*
X398530D01*
Y499177D01*
X394466D01*
X409466Y409177D02*
Y413241D01*
X413530D01*
Y409177D01*
X409466D01*
X394466Y379177D02*
Y383241D01*
X398530D01*
Y379177D01*
X394466D01*
X364466Y499177D02*
Y503241D01*
X368530D01*
Y499177D01*
X364466D01*
X379466Y409177D02*
Y413241D01*
X383530D01*
Y409177D01*
X379466D01*
X364466Y379177D02*
Y383241D01*
X368530D01*
Y379177D01*
X364466D01*
X334466Y499177D02*
Y503241D01*
X338530D01*
Y499177D01*
X334466D01*
X349466Y409177D02*
Y413241D01*
X353530D01*
Y409177D01*
X349466D01*
X334466Y379177D02*
Y383241D01*
X338530D01*
Y379177D01*
X334466D01*
X304466Y499177D02*
Y503241D01*
X308530D01*
Y499177D01*
X304466D01*
X319466Y409177D02*
Y413241D01*
X323530D01*
Y409177D01*
X319466D01*
X304466Y379177D02*
Y383241D01*
X308530D01*
Y379177D01*
X304466D01*
X274466Y499177D02*
Y503241D01*
X278530D01*
Y499177D01*
X274466D01*
X289466Y409177D02*
Y413241D01*
X293530D01*
Y409177D01*
X289466D01*
X274466Y379177D02*
Y383241D01*
X278530D01*
Y379177D01*
X274466D01*
X244466Y499177D02*
Y503241D01*
X248530D01*
Y499177D01*
X244466D01*
X259466Y409177D02*
Y413241D01*
X263530D01*
Y409177D01*
X259466D01*
X244466Y379177D02*
Y383241D01*
X248530D01*
Y379177D01*
X244466D01*
X214466Y499177D02*
Y503241D01*
X218530D01*
Y499177D01*
X214466D01*
X229466Y409177D02*
Y413241D01*
X233530D01*
Y409177D01*
X229466D01*
X214466Y379177D02*
Y383241D01*
X218530D01*
Y379177D01*
X214466D01*
X184466Y499177D02*
Y503241D01*
X188530D01*
Y499177D01*
X184466D01*
X199466Y409177D02*
Y413241D01*
X203530D01*
Y409177D01*
X199466D01*
X184466Y379177D02*
Y383241D01*
X188530D01*
Y379177D01*
X184466D01*
X154466Y499177D02*
Y503241D01*
X158530D01*
Y499177D01*
X154466D01*
X169466Y409177D02*
Y413241D01*
X173530D01*
Y409177D01*
X169466D01*
X154466Y379177D02*
Y383241D01*
X158530D01*
Y379177D01*
X154466D01*
X124466Y499177D02*
Y503241D01*
X128530D01*
Y499177D01*
X124466D01*
X139466Y409177D02*
Y413241D01*
X143530D01*
Y409177D01*
X139466D01*
X124466Y379177D02*
Y383241D01*
X128530D01*
Y379177D01*
X124466D01*
X94466Y499177D02*
Y503241D01*
X98530D01*
Y499177D01*
X94466D01*
X109466Y409177D02*
Y413241D01*
X113530D01*
Y409177D01*
X109466D01*
X94466Y379177D02*
Y383241D01*
X98530D01*
Y379177D01*
X94466D01*
X79466Y409177D02*
Y413241D01*
X83530D01*
Y409177D01*
X79466D01*
X64466Y379177D02*
Y383241D01*
X68530D01*
Y379177D01*
X64466D01*
X1054466Y169177D02*
Y173241D01*
X1058530D01*
Y169177D01*
X1054466D01*
X1024466D02*
Y173241D01*
X1028530D01*
Y169177D01*
X1024466D01*
X1009466Y319177D02*
Y323241D01*
X1013530D01*
Y319177D01*
X1009466D01*
X994466Y289177D02*
Y293241D01*
X998530D01*
Y289177D01*
X994466D01*
X1009466Y199177D02*
Y203241D01*
X1013530D01*
Y199177D01*
X1009466D01*
X994466Y169177D02*
Y173241D01*
X998530D01*
Y169177D01*
X994466D01*
X979466Y319177D02*
Y323241D01*
X983530D01*
Y319177D01*
X979466D01*
X964466Y289177D02*
Y293241D01*
X968530D01*
Y289177D01*
X964466D01*
X979466Y199177D02*
Y203241D01*
X983530D01*
Y199177D01*
X979466D01*
X964466Y169177D02*
Y173241D01*
X968530D01*
Y169177D01*
X964466D01*
X949466Y319177D02*
Y323241D01*
X953530D01*
Y319177D01*
X949466D01*
X934466Y289177D02*
Y293241D01*
X938530D01*
Y289177D01*
X934466D01*
X949466Y199177D02*
Y203241D01*
X953530D01*
Y199177D01*
X949466D01*
X934466Y169177D02*
Y173241D01*
X938530D01*
Y169177D01*
X934466D01*
X919466Y319177D02*
Y323241D01*
X923530D01*
Y319177D01*
X919466D01*
X904466Y289177D02*
Y293241D01*
X908530D01*
Y289177D01*
X904466D01*
X919466Y199177D02*
Y203241D01*
X923530D01*
Y199177D01*
X919466D01*
X904466Y169177D02*
Y173241D01*
X908530D01*
Y169177D01*
X904466D01*
X889466Y319177D02*
Y323241D01*
X893530D01*
Y319177D01*
X889466D01*
X874466Y289177D02*
Y293241D01*
X878530D01*
Y289177D01*
X874466D01*
X889466Y199177D02*
Y203241D01*
X893530D01*
Y199177D01*
X889466D01*
X874466Y169177D02*
Y173241D01*
X878530D01*
Y169177D01*
X874466D01*
X859466Y319177D02*
Y323241D01*
X863530D01*
Y319177D01*
X859466D01*
X844466Y289177D02*
Y293241D01*
X848530D01*
Y289177D01*
X844466D01*
X859466Y199177D02*
Y203241D01*
X863530D01*
Y199177D01*
X859466D01*
X844466Y169177D02*
Y173241D01*
X848530D01*
Y169177D01*
X844466D01*
X829466Y319177D02*
Y323241D01*
X833530D01*
Y319177D01*
X829466D01*
X814466Y289177D02*
Y293241D01*
X818530D01*
Y289177D01*
X814466D01*
X829466Y199177D02*
Y203241D01*
X833530D01*
Y199177D01*
X829466D01*
X814466Y169177D02*
Y173241D01*
X818530D01*
Y169177D01*
X814466D01*
X799466Y319177D02*
Y323241D01*
X803530D01*
Y319177D01*
X799466D01*
X784466Y289177D02*
Y293241D01*
X788530D01*
Y289177D01*
X784466D01*
X799466Y199177D02*
Y203241D01*
X803530D01*
Y199177D01*
X799466D01*
X784466Y169177D02*
Y173241D01*
X788530D01*
Y169177D01*
X784466D01*
X769466Y319177D02*
Y323241D01*
X773530D01*
Y319177D01*
X769466D01*
X754466Y289177D02*
Y293241D01*
X758530D01*
Y289177D01*
X754466D01*
X769466Y199177D02*
Y203241D01*
X773530D01*
Y199177D01*
X769466D01*
X754466Y169177D02*
Y173241D01*
X758530D01*
Y169177D01*
X754466D01*
X739466Y319177D02*
Y323241D01*
X743530D01*
Y319177D01*
X739466D01*
X724466Y289177D02*
Y293241D01*
X728530D01*
Y289177D01*
X724466D01*
X739466Y199177D02*
Y203241D01*
X743530D01*
Y199177D01*
X739466D01*
X724466Y169177D02*
Y173241D01*
X728530D01*
Y169177D01*
X724466D01*
X709466Y319177D02*
Y323241D01*
X713530D01*
Y319177D01*
X709466D01*
X694466Y289177D02*
Y293241D01*
X698530D01*
Y289177D01*
X694466D01*
X709466Y199177D02*
Y203241D01*
X713530D01*
Y199177D01*
X709466D01*
X694466Y169177D02*
Y173241D01*
X698530D01*
Y169177D01*
X694466D01*
X679466Y319177D02*
Y323241D01*
X683530D01*
Y319177D01*
X679466D01*
X664466Y289177D02*
Y293241D01*
X668530D01*
Y289177D01*
X664466D01*
X679466Y199177D02*
Y203241D01*
X683530D01*
Y199177D01*
X679466D01*
X664466Y169177D02*
Y173241D01*
X668530D01*
Y169177D01*
X664466D01*
X649466Y319177D02*
Y323241D01*
X653530D01*
Y319177D01*
X649466D01*
X634466Y289177D02*
Y293241D01*
X638530D01*
Y289177D01*
X634466D01*
X649466Y199177D02*
Y203241D01*
X653530D01*
Y199177D01*
X649466D01*
X634466Y169177D02*
Y173241D01*
X638530D01*
Y169177D01*
X634466D01*
X619466Y319177D02*
Y323241D01*
X623530D01*
Y319177D01*
X619466D01*
X604466Y289177D02*
Y293241D01*
X608530D01*
Y289177D01*
X604466D01*
X619466Y199177D02*
Y203241D01*
X623530D01*
Y199177D01*
X619466D01*
X604466Y169177D02*
Y173241D01*
X608530D01*
Y169177D01*
X604466D01*
X589466Y319177D02*
Y323241D01*
X593530D01*
Y319177D01*
X589466D01*
X574466Y289177D02*
Y293241D01*
X578530D01*
Y289177D01*
X574466D01*
X589466Y199177D02*
Y203241D01*
X593530D01*
Y199177D01*
X589466D01*
X574466Y169177D02*
Y173241D01*
X578530D01*
Y169177D01*
X574466D01*
X559466Y319177D02*
Y323241D01*
X563530D01*
Y319177D01*
X559466D01*
X544466Y289177D02*
Y293241D01*
X548530D01*
Y289177D01*
X544466D01*
X559466Y199177D02*
Y203241D01*
X563530D01*
Y199177D01*
X559466D01*
X544466Y169177D02*
Y173241D01*
X548530D01*
Y169177D01*
X544466D01*
X529466Y319177D02*
Y323241D01*
X533530D01*
Y319177D01*
X529466D01*
X514466Y289177D02*
Y293241D01*
X518530D01*
Y289177D01*
X514466D01*
X529466Y199177D02*
Y203241D01*
X533530D01*
Y199177D01*
X529466D01*
X514466Y169177D02*
Y173241D01*
X518530D01*
Y169177D01*
X514466D01*
X499466Y319177D02*
Y323241D01*
X503530D01*
Y319177D01*
X499466D01*
X484466Y289177D02*
Y293241D01*
X488530D01*
Y289177D01*
X484466D01*
X499466Y199177D02*
Y203241D01*
X503530D01*
Y199177D01*
X499466D01*
X484466Y169177D02*
Y173241D01*
X488530D01*
Y169177D01*
X484466D01*
X469466Y319177D02*
Y323241D01*
X473530D01*
Y319177D01*
X469466D01*
X454466Y289177D02*
Y293241D01*
X458530D01*
Y289177D01*
X454466D01*
X469466Y199177D02*
Y203241D01*
X473530D01*
Y199177D01*
X469466D01*
X454466Y169177D02*
Y173241D01*
X458530D01*
Y169177D01*
X454466D01*
X439466Y319177D02*
Y323241D01*
X443530D01*
Y319177D01*
X439466D01*
X424466Y289177D02*
Y293241D01*
X428530D01*
Y289177D01*
X424466D01*
X439466Y199177D02*
Y203241D01*
X443530D01*
Y199177D01*
X439466D01*
X424466Y169177D02*
Y173241D01*
X428530D01*
Y169177D01*
X424466D01*
X409466Y319177D02*
Y323241D01*
X413530D01*
Y319177D01*
X409466D01*
X394466Y289177D02*
Y293241D01*
X398530D01*
Y289177D01*
X394466D01*
X409466Y199177D02*
Y203241D01*
X413530D01*
Y199177D01*
X409466D01*
X394466Y169177D02*
Y173241D01*
X398530D01*
Y169177D01*
X394466D01*
X379466Y319177D02*
Y323241D01*
X383530D01*
Y319177D01*
X379466D01*
X364466Y289177D02*
Y293241D01*
X368530D01*
Y289177D01*
X364466D01*
X379466Y199177D02*
Y203241D01*
X383530D01*
Y199177D01*
X379466D01*
X364466Y169177D02*
Y173241D01*
X368530D01*
Y169177D01*
X364466D01*
X349466Y319177D02*
Y323241D01*
X353530D01*
Y319177D01*
X349466D01*
X334466Y289177D02*
Y293241D01*
X338530D01*
Y289177D01*
X334466D01*
X349466Y199177D02*
Y203241D01*
X353530D01*
Y199177D01*
X349466D01*
X334466Y169177D02*
Y173241D01*
X338530D01*
Y169177D01*
X334466D01*
X319466Y319177D02*
Y323241D01*
X323530D01*
Y319177D01*
X319466D01*
X304466Y289177D02*
Y293241D01*
X308530D01*
Y289177D01*
X304466D01*
X319466Y199177D02*
Y203241D01*
X323530D01*
Y199177D01*
X319466D01*
X304466Y169177D02*
Y173241D01*
X308530D01*
Y169177D01*
X304466D01*
X289466Y319177D02*
Y323241D01*
X293530D01*
Y319177D01*
X289466D01*
X274466Y289177D02*
Y293241D01*
X278530D01*
Y289177D01*
X274466D01*
X289466Y199177D02*
Y203241D01*
X293530D01*
Y199177D01*
X289466D01*
X274466Y169177D02*
Y173241D01*
X278530D01*
Y169177D01*
X274466D01*
X259466Y319177D02*
Y323241D01*
X263530D01*
Y319177D01*
X259466D01*
X244466Y289177D02*
Y293241D01*
X248530D01*
Y289177D01*
X244466D01*
X259466Y199177D02*
Y203241D01*
X263530D01*
Y199177D01*
X259466D01*
X244466Y169177D02*
Y173241D01*
X248530D01*
Y169177D01*
X244466D01*
X229466Y319177D02*
Y323241D01*
X233530D01*
Y319177D01*
X229466D01*
X214466Y289177D02*
Y293241D01*
X218530D01*
Y289177D01*
X214466D01*
X229466Y199177D02*
Y203241D01*
X233530D01*
Y199177D01*
X229466D01*
X214466Y169177D02*
Y173241D01*
X218530D01*
Y169177D01*
X214466D01*
X199466Y319177D02*
Y323241D01*
X203530D01*
Y319177D01*
X199466D01*
X184466Y289177D02*
Y293241D01*
X188530D01*
Y289177D01*
X184466D01*
X199466Y199177D02*
Y203241D01*
X203530D01*
Y199177D01*
X199466D01*
X184466Y169177D02*
Y173241D01*
X188530D01*
Y169177D01*
X184466D01*
X169466Y319177D02*
Y323241D01*
X173530D01*
Y319177D01*
X169466D01*
X154466Y289177D02*
Y293241D01*
X158530D01*
Y289177D01*
X154466D01*
X169466Y199177D02*
Y203241D01*
X173530D01*
Y199177D01*
X169466D01*
X154466Y169177D02*
Y173241D01*
X158530D01*
Y169177D01*
X154466D01*
X139466Y319177D02*
Y323241D01*
X143530D01*
Y319177D01*
X139466D01*
X124466Y289177D02*
Y293241D01*
X128530D01*
Y289177D01*
X124466D01*
X139466Y199177D02*
Y203241D01*
X143530D01*
Y199177D01*
X139466D01*
X124466Y169177D02*
Y173241D01*
X128530D01*
Y169177D01*
X124466D01*
X109466Y319177D02*
Y323241D01*
X113530D01*
Y319177D01*
X109466D01*
X94466Y289177D02*
Y293241D01*
X98530D01*
Y289177D01*
X94466D01*
X109466Y199177D02*
Y203241D01*
X113530D01*
Y199177D01*
X109466D01*
X94466Y169177D02*
Y173241D01*
X98530D01*
Y169177D01*
X94466D01*
X79466Y319177D02*
Y323241D01*
X83530D01*
Y319177D01*
X79466D01*
X64466Y169177D02*
Y173241D01*
X68530D01*
Y169177D01*
X64466D01*
X34466D02*
Y173241D01*
X38530D01*
Y169177D01*
X34466D01*
X1082968Y588968D02*
Y593032D01*
X1087032D01*
Y588968D01*
X1082968D01*
X1062968D02*
Y593032D01*
X1067032D01*
Y588968D01*
X1062968D01*
X1042968D02*
Y593032D01*
X1047032D01*
Y588968D01*
X1042968D01*
X1072968Y603968D02*
Y608032D01*
X1077032D01*
Y603968D01*
X1072968D01*
X1052968D02*
Y608032D01*
X1057032D01*
Y603968D01*
X1052968D01*
X1032968D02*
Y608032D01*
X1037032D01*
Y603968D01*
X1032968D01*
Y623968D02*
Y628032D01*
X1037032D01*
Y623968D01*
X1032968D01*
X1042968Y613968D02*
Y618032D01*
X1047032D01*
Y613968D01*
X1042968D01*
Y683968D02*
Y688032D01*
X1047032D01*
Y683968D01*
X1042968D01*
X1032968Y673968D02*
Y678032D01*
X1037032D01*
Y673968D01*
X1032968D01*
Y693968D02*
Y698032D01*
X1037032D01*
Y693968D01*
X1032968D01*
X1052968D02*
Y698032D01*
X1057032D01*
Y693968D01*
X1052968D01*
X1072968D02*
Y698032D01*
X1077032D01*
Y693968D01*
X1072968D01*
X1042968Y708968D02*
Y713032D01*
X1047032D01*
Y708968D01*
X1042968D01*
X1062968D02*
Y713032D01*
X1067032D01*
Y708968D01*
X1062968D01*
X1082968D02*
Y713032D01*
X1087032D01*
Y708968D01*
X1082968D01*
X1042968Y663968D02*
Y668032D01*
X1047032D01*
Y663968D01*
X1042968D01*
Y633968D02*
Y638032D01*
X1047032D01*
Y633968D01*
X1042968D01*
X13968Y587968D02*
Y592032D01*
X18032D01*
Y587968D01*
X13968D01*
X33968D02*
Y592032D01*
X38032D01*
Y587968D01*
X33968D01*
X53968D02*
Y592032D01*
X58032D01*
Y587968D01*
X53968D01*
X23968Y602968D02*
Y607032D01*
X28032D01*
Y602968D01*
X23968D01*
X43968D02*
Y607032D01*
X48032D01*
Y602968D01*
X43968D01*
X63968D02*
Y607032D01*
X68032D01*
Y602968D01*
X63968D01*
Y622968D02*
Y627032D01*
X68032D01*
Y622968D01*
X63968D01*
X53968Y612968D02*
Y617032D01*
X58032D01*
Y612968D01*
X53968D01*
Y682968D02*
Y687032D01*
X58032D01*
Y682968D01*
X53968D01*
X63968Y672968D02*
Y677032D01*
X68032D01*
Y672968D01*
X63968D01*
Y692968D02*
Y697032D01*
X68032D01*
Y692968D01*
X63968D01*
X43968D02*
Y697032D01*
X48032D01*
Y692968D01*
X43968D01*
X23968D02*
Y697032D01*
X28032D01*
Y692968D01*
X23968D01*
X53968Y707968D02*
Y712032D01*
X58032D01*
Y707968D01*
X53968D01*
X33968D02*
Y712032D01*
X38032D01*
Y707968D01*
X33968D01*
X13968D02*
Y712032D01*
X18032D01*
Y707968D01*
X13968D01*
X53968Y662968D02*
Y667032D01*
X58032D01*
Y662968D01*
X53968D01*
Y632968D02*
Y637032D01*
X58032D01*
Y632968D01*
X53968D01*
X13968Y387968D02*
Y392032D01*
X18032D01*
Y387968D01*
X13968D01*
X33968D02*
Y392032D01*
X38032D01*
Y387968D01*
X33968D01*
X53968D02*
Y392032D01*
X58032D01*
Y387968D01*
X53968D01*
X23968Y402968D02*
Y407032D01*
X28032D01*
Y402968D01*
X23968D01*
X43968D02*
Y407032D01*
X48032D01*
Y402968D01*
X43968D01*
X63968D02*
Y407032D01*
X68032D01*
Y402968D01*
X63968D01*
Y422968D02*
Y427032D01*
X68032D01*
Y422968D01*
X63968D01*
X53968Y412968D02*
Y417032D01*
X58032D01*
Y412968D01*
X53968D01*
Y482968D02*
Y487032D01*
X58032D01*
Y482968D01*
X53968D01*
X63968Y472968D02*
Y477032D01*
X68032D01*
Y472968D01*
X63968D01*
Y492968D02*
Y497032D01*
X68032D01*
Y492968D01*
X63968D01*
X43968D02*
Y497032D01*
X48032D01*
Y492968D01*
X43968D01*
X23968D02*
Y497032D01*
X28032D01*
Y492968D01*
X23968D01*
X53968Y507968D02*
Y512032D01*
X58032D01*
Y507968D01*
X53968D01*
X33968D02*
Y512032D01*
X38032D01*
Y507968D01*
X33968D01*
X13968D02*
Y512032D01*
X18032D01*
Y507968D01*
X13968D01*
X53968Y462968D02*
Y467032D01*
X58032D01*
Y462968D01*
X53968D01*
Y432968D02*
Y437032D01*
X58032D01*
Y432968D01*
X53968D01*
X13968Y187968D02*
Y192032D01*
X18032D01*
Y187968D01*
X13968D01*
X33968D02*
Y192032D01*
X38032D01*
Y187968D01*
X33968D01*
X53968D02*
Y192032D01*
X58032D01*
Y187968D01*
X53968D01*
X23968Y202968D02*
Y207032D01*
X28032D01*
Y202968D01*
X23968D01*
X43968D02*
Y207032D01*
X48032D01*
Y202968D01*
X43968D01*
X63968D02*
Y207032D01*
X68032D01*
Y202968D01*
X63968D01*
X53968Y212968D02*
Y217032D01*
X58032D01*
Y212968D01*
X53968D01*
Y282968D02*
Y287032D01*
X58032D01*
Y282968D01*
X53968D01*
X63968Y272968D02*
Y277032D01*
X68032D01*
Y272968D01*
X63968D01*
Y292968D02*
Y297032D01*
X68032D01*
Y292968D01*
X63968D01*
X43968D02*
Y297032D01*
X48032D01*
Y292968D01*
X43968D01*
X23968D02*
Y297032D01*
X28032D01*
Y292968D01*
X23968D01*
X53968Y307968D02*
Y312032D01*
X58032D01*
Y307968D01*
X53968D01*
X33968D02*
Y312032D01*
X38032D01*
Y307968D01*
X33968D01*
X13968D02*
Y312032D01*
X18032D01*
Y307968D01*
X13968D01*
X53968Y262968D02*
Y267032D01*
X58032D01*
Y262968D01*
X53968D01*
Y232968D02*
Y237032D01*
X58032D01*
Y232968D01*
X53968D01*
X1082968Y188968D02*
Y193032D01*
X1087032D01*
Y188968D01*
X1082968D01*
X1062968D02*
Y193032D01*
X1067032D01*
Y188968D01*
X1062968D01*
X1042968D02*
Y193032D01*
X1047032D01*
Y188968D01*
X1042968D01*
X1072968Y203968D02*
Y208032D01*
X1077032D01*
Y203968D01*
X1072968D01*
X1052968D02*
Y208032D01*
X1057032D01*
Y203968D01*
X1052968D01*
X1032968D02*
Y208032D01*
X1037032D01*
Y203968D01*
X1032968D01*
Y223968D02*
Y228032D01*
X1037032D01*
Y223968D01*
X1032968D01*
X1042968Y213968D02*
Y218032D01*
X1047032D01*
Y213968D01*
X1042968D01*
Y283968D02*
Y288032D01*
X1047032D01*
Y283968D01*
X1042968D01*
X1032968Y293968D02*
Y298032D01*
X1037032D01*
Y293968D01*
X1032968D01*
X1052968D02*
Y298032D01*
X1057032D01*
Y293968D01*
X1052968D01*
X1072968D02*
Y298032D01*
X1077032D01*
Y293968D01*
X1072968D01*
X1042968Y308968D02*
Y313032D01*
X1047032D01*
Y308968D01*
X1042968D01*
X1062968D02*
Y313032D01*
X1067032D01*
Y308968D01*
X1062968D01*
X1082968D02*
Y313032D01*
X1087032D01*
Y308968D01*
X1082968D01*
X1042968Y263968D02*
Y268032D01*
X1047032D01*
Y263968D01*
X1042968D01*
Y233968D02*
Y238032D01*
X1047032D01*
Y233968D01*
X1042968D01*
Y433968D02*
Y438032D01*
X1047032D01*
Y433968D01*
X1042968D01*
Y463968D02*
Y468032D01*
X1047032D01*
Y463968D01*
X1042968D01*
X1082968Y508968D02*
Y513032D01*
X1087032D01*
Y508968D01*
X1082968D01*
X1062968D02*
Y513032D01*
X1067032D01*
Y508968D01*
X1062968D01*
X1042968D02*
Y513032D01*
X1047032D01*
Y508968D01*
X1042968D01*
X1072968Y493968D02*
Y498032D01*
X1077032D01*
Y493968D01*
X1072968D01*
X1052968D02*
Y498032D01*
X1057032D01*
Y493968D01*
X1052968D01*
X1032968D02*
Y498032D01*
X1037032D01*
Y493968D01*
X1032968D01*
Y473968D02*
Y478032D01*
X1037032D01*
Y473968D01*
X1032968D01*
X1042968Y483968D02*
Y488032D01*
X1047032D01*
Y483968D01*
X1042968D01*
Y413968D02*
Y418032D01*
X1047032D01*
Y413968D01*
X1042968D01*
X1032968Y423968D02*
Y428032D01*
X1037032D01*
Y423968D01*
X1032968D01*
Y403968D02*
Y408032D01*
X1037032D01*
Y403968D01*
X1032968D01*
X1052968D02*
Y408032D01*
X1057032D01*
Y403968D01*
X1052968D01*
X1072968D02*
Y408032D01*
X1077032D01*
Y403968D01*
X1072968D01*
X1042968Y388968D02*
Y393032D01*
X1047032D01*
Y388968D01*
X1042968D01*
X1062968D02*
Y393032D01*
X1067032D01*
Y388968D01*
X1062968D01*
X1082968D02*
Y393032D01*
X1087032D01*
Y388968D01*
X1082968D01*
Y132968D02*
Y137032D01*
X1087032D01*
Y132968D01*
X1082968D01*
X1062968D02*
Y137032D01*
X1067032D01*
Y132968D01*
X1062968D01*
X1042968D02*
Y137032D01*
X1047032D01*
Y132968D01*
X1042968D01*
X1072968Y117968D02*
Y122032D01*
X1077032D01*
Y117968D01*
X1072968D01*
X1052968D02*
Y122032D01*
X1057032D01*
Y117968D01*
X1052968D01*
X1032968D02*
Y122032D01*
X1037032D01*
Y117968D01*
X1032968D01*
Y97968D02*
Y102032D01*
X1037032D01*
Y97968D01*
X1032968D01*
X1042968Y107968D02*
Y112032D01*
X1047032D01*
Y107968D01*
X1042968D01*
Y37968D02*
Y42032D01*
X1047032D01*
Y37968D01*
X1042968D01*
X1032968Y47968D02*
Y52032D01*
X1037032D01*
Y47968D01*
X1032968D01*
Y27968D02*
Y32032D01*
X1037032D01*
Y27968D01*
X1032968D01*
X1052968D02*
Y32032D01*
X1057032D01*
Y27968D01*
X1052968D01*
X1072968D02*
Y32032D01*
X1077032D01*
Y27968D01*
X1072968D01*
X1042968Y12968D02*
Y17032D01*
X1047032D01*
Y12968D01*
X1042968D01*
X1062968D02*
Y17032D01*
X1067032D01*
Y12968D01*
X1062968D01*
X1082968D02*
Y17032D01*
X1087032D01*
Y12968D01*
X1082968D01*
X12968D02*
Y17032D01*
X17032D01*
Y12968D01*
X12968D01*
X32968D02*
Y17032D01*
X37032D01*
Y12968D01*
X32968D01*
X52968D02*
Y17032D01*
X57032D01*
Y12968D01*
X52968D01*
X22968Y27968D02*
Y32032D01*
X27032D01*
Y27968D01*
X22968D01*
X42968D02*
Y32032D01*
X47032D01*
Y27968D01*
X42968D01*
X62968D02*
Y32032D01*
X67032D01*
Y27968D01*
X62968D01*
Y47968D02*
Y52032D01*
X67032D01*
Y47968D01*
X62968D01*
X52968Y37968D02*
Y42032D01*
X57032D01*
Y37968D01*
X52968D01*
Y107968D02*
Y112032D01*
X57032D01*
Y107968D01*
X52968D01*
X62968Y97968D02*
Y102032D01*
X67032D01*
Y97968D01*
X62968D01*
Y117968D02*
Y122032D01*
X67032D01*
Y117968D01*
X62968D01*
X42968D02*
Y122032D01*
X47032D01*
Y117968D01*
X42968D01*
X22968D02*
Y122032D01*
X27032D01*
Y117968D01*
X22968D01*
X52968Y132968D02*
Y137032D01*
X57032D01*
Y132968D01*
X52968D01*
X32968D02*
Y137032D01*
X37032D01*
Y132968D01*
X32968D01*
X12968D02*
Y137032D01*
X17032D01*
Y132968D01*
X12968D01*
M02*
