G04*
G04 #@! TF.GenerationSoftware,Altium Limited,Altium Designer,26.3.0 (6)*
G04*
G04 Layer_Color=16711935*
%FSLAX44Y44*%
%MOMM*%
G71*
G04*
G04 #@! TF.SameCoordinates,FC0C107F-D51E-44C7-B9C1-16E332C9C4B2*
G04*
G04*
G04 #@! TF.FilePolarity,Negative*
G04*
G01*
G75*
%ADD25R,4.2032X1.7032*%
D25*
X1074000Y2581400D02*
D03*
Y2529600D02*
D03*
X27000Y2580400D02*
D03*
Y2528600D02*
D03*
Y2480400D02*
D03*
Y2428600D02*
D03*
X1074000Y2481400D02*
D03*
Y2429600D02*
D03*
Y224600D02*
D03*
Y276400D02*
D03*
Y424600D02*
D03*
Y476400D02*
D03*
Y2029600D02*
D03*
Y2081400D02*
D03*
Y2329600D02*
D03*
Y2381400D02*
D03*
Y2129600D02*
D03*
Y2181400D02*
D03*
Y1829600D02*
D03*
Y1881400D02*
D03*
Y49600D02*
D03*
Y101400D02*
D03*
Y624600D02*
D03*
Y676400D02*
D03*
Y824600D02*
D03*
Y876400D02*
D03*
Y999600D02*
D03*
Y1051400D02*
D03*
Y1149600D02*
D03*
Y1201400D02*
D03*
Y1299600D02*
D03*
Y1351400D02*
D03*
Y1429600D02*
D03*
Y1481400D02*
D03*
Y1529600D02*
D03*
Y1581400D02*
D03*
Y1629600D02*
D03*
Y1681400D02*
D03*
Y1729600D02*
D03*
Y1781400D02*
D03*
Y1929600D02*
D03*
Y1981400D02*
D03*
Y2229600D02*
D03*
Y2281400D02*
D03*
X27000Y2228600D02*
D03*
Y2280400D02*
D03*
Y2328600D02*
D03*
Y2380400D02*
D03*
Y2128600D02*
D03*
Y2180400D02*
D03*
Y2028600D02*
D03*
Y2080400D02*
D03*
Y1828600D02*
D03*
Y1880400D02*
D03*
Y1928600D02*
D03*
Y1980400D02*
D03*
Y1728600D02*
D03*
Y1780400D02*
D03*
Y1628600D02*
D03*
Y1680400D02*
D03*
Y1428600D02*
D03*
Y1480400D02*
D03*
Y1528600D02*
D03*
Y1580400D02*
D03*
X26000Y1298600D02*
D03*
Y1350400D02*
D03*
Y1148600D02*
D03*
Y1200400D02*
D03*
Y998600D02*
D03*
Y1050400D02*
D03*
X27000Y823600D02*
D03*
Y875400D02*
D03*
Y623600D02*
D03*
Y675400D02*
D03*
Y423600D02*
D03*
Y475400D02*
D03*
X26000Y48600D02*
D03*
Y100400D02*
D03*
X27000Y223600D02*
D03*
Y275400D02*
D03*
M02*
