G04*
G04 #@! TF.GenerationSoftware,Altium Limited,Altium Designer,26.3.0 (6)*
G04*
G04 Layer_Color=128*
%FSLAX44Y44*%
%MOMM*%
G71*
G04*
G04 #@! TF.SameCoordinates,FC0C107F-D51E-44C7-B9C1-16E332C9C4B2*
G04*
G04*
G04 #@! TF.FilePolarity,Positive*
G04*
G01*
G75*
%ADD31C,0.0508*%
D31*
X1024998Y2541208D02*
X1027998D01*
X1026498Y2539708D02*
Y2542708D01*
X1024998Y2481208D02*
X1027998D01*
X1026498Y2479708D02*
Y2482708D01*
X1039998Y2451208D02*
X1042998D01*
X1041498Y2449708D02*
Y2452708D01*
X1024998Y2421208D02*
X1027998D01*
X1026498Y2419708D02*
Y2422708D01*
X1009998Y2571208D02*
X1012998D01*
X1011498Y2569708D02*
Y2572708D01*
X994998Y2541208D02*
X997998D01*
X996498Y2539708D02*
Y2542708D01*
X994998Y2481208D02*
X997998D01*
X996498Y2479708D02*
Y2482708D01*
X1009998Y2451208D02*
X1012998D01*
X1011498Y2449708D02*
Y2452708D01*
X994998Y2421208D02*
X997998D01*
X996498Y2419708D02*
Y2422708D01*
X979998Y2571208D02*
X982998D01*
X981498Y2569708D02*
Y2572708D01*
X964998Y2541208D02*
X967998D01*
X966498Y2539708D02*
Y2542708D01*
X964998Y2481208D02*
X967998D01*
X966498Y2479708D02*
Y2482708D01*
X979998Y2451208D02*
X982998D01*
X981498Y2449708D02*
Y2452708D01*
X964998Y2421208D02*
X967998D01*
X966498Y2419708D02*
Y2422708D01*
X949998Y2571208D02*
X952998D01*
X951498Y2569708D02*
Y2572708D01*
X934998Y2541208D02*
X937998D01*
X936498Y2539708D02*
Y2542708D01*
X934998Y2481208D02*
X937998D01*
X936498Y2479708D02*
Y2482708D01*
X949998Y2451208D02*
X952998D01*
X951498Y2449708D02*
Y2452708D01*
X934998Y2421208D02*
X937998D01*
X936498Y2419708D02*
Y2422708D01*
X919998Y2571208D02*
X922998D01*
X921498Y2569708D02*
Y2572708D01*
X904998Y2541208D02*
X907998D01*
X906498Y2539708D02*
Y2542708D01*
X904998Y2481208D02*
X907998D01*
X906498Y2479708D02*
Y2482708D01*
X919998Y2451208D02*
X922998D01*
X921498Y2449708D02*
Y2452708D01*
X904998Y2421208D02*
X907998D01*
X906498Y2419708D02*
Y2422708D01*
X889998Y2571208D02*
X892998D01*
X891498Y2569708D02*
Y2572708D01*
X874998Y2541208D02*
X877998D01*
X876498Y2539708D02*
Y2542708D01*
X874998Y2481208D02*
X877998D01*
X876498Y2479708D02*
Y2482708D01*
X889998Y2451208D02*
X892998D01*
X891498Y2449708D02*
Y2452708D01*
X874998Y2421208D02*
X877998D01*
X876498Y2419708D02*
Y2422708D01*
X859998Y2571208D02*
X862998D01*
X861498Y2569708D02*
Y2572708D01*
X844998Y2541208D02*
X847998D01*
X846498Y2539708D02*
Y2542708D01*
X844998Y2481208D02*
X847998D01*
X846498Y2479708D02*
Y2482708D01*
X859998Y2451208D02*
X862998D01*
X861498Y2449708D02*
Y2452708D01*
X844998Y2421208D02*
X847998D01*
X846498Y2419708D02*
Y2422708D01*
X829998Y2571208D02*
X832998D01*
X831498Y2569708D02*
Y2572708D01*
X814998Y2541208D02*
X817998D01*
X816498Y2539708D02*
Y2542708D01*
X814998Y2481208D02*
X817998D01*
X816498Y2479708D02*
Y2482708D01*
X829998Y2451208D02*
X832998D01*
X831498Y2449708D02*
Y2452708D01*
X814998Y2421208D02*
X817998D01*
X816498Y2419708D02*
Y2422708D01*
X799998Y2571208D02*
X802998D01*
X801498Y2569708D02*
Y2572708D01*
X784998Y2541208D02*
X787998D01*
X786498Y2539708D02*
Y2542708D01*
X784998Y2481208D02*
X787998D01*
X786498Y2479708D02*
Y2482708D01*
X799998Y2451208D02*
X802998D01*
X801498Y2449708D02*
Y2452708D01*
X784998Y2421208D02*
X787998D01*
X786498Y2419708D02*
Y2422708D01*
X769998Y2571208D02*
X772998D01*
X771498Y2569708D02*
Y2572708D01*
X754998Y2541208D02*
X757998D01*
X756498Y2539708D02*
Y2542708D01*
X754998Y2481208D02*
X757998D01*
X756498Y2479708D02*
Y2482708D01*
X769998Y2451208D02*
X772998D01*
X771498Y2449708D02*
Y2452708D01*
X754998Y2421208D02*
X757998D01*
X756498Y2419708D02*
Y2422708D01*
X739998Y2571208D02*
X742998D01*
X741498Y2569708D02*
Y2572708D01*
X724998Y2541208D02*
X727998D01*
X726498Y2539708D02*
Y2542708D01*
X724998Y2481208D02*
X727998D01*
X726498Y2479708D02*
Y2482708D01*
X739998Y2451208D02*
X742998D01*
X741498Y2449708D02*
Y2452708D01*
X724998Y2421208D02*
X727998D01*
X726498Y2419708D02*
Y2422708D01*
X709998Y2571208D02*
X712998D01*
X711498Y2569708D02*
Y2572708D01*
X694998Y2541208D02*
X697998D01*
X696498Y2539708D02*
Y2542708D01*
X694998Y2481208D02*
X697998D01*
X696498Y2479708D02*
Y2482708D01*
X709998Y2451208D02*
X712998D01*
X711498Y2449708D02*
Y2452708D01*
X694998Y2421208D02*
X697998D01*
X696498Y2419708D02*
Y2422708D01*
X679998Y2571208D02*
X682998D01*
X681498Y2569708D02*
Y2572708D01*
X664998Y2541208D02*
X667998D01*
X666498Y2539708D02*
Y2542708D01*
X664998Y2481208D02*
X667998D01*
X666498Y2479708D02*
Y2482708D01*
X679998Y2451208D02*
X682998D01*
X681498Y2449708D02*
Y2452708D01*
X664998Y2421208D02*
X667998D01*
X666498Y2419708D02*
Y2422708D01*
X649998Y2571208D02*
X652998D01*
X651498Y2569708D02*
Y2572708D01*
X634998Y2541208D02*
X637998D01*
X636498Y2539708D02*
Y2542708D01*
X634998Y2481208D02*
X637998D01*
X636498Y2479708D02*
Y2482708D01*
X649998Y2451208D02*
X652998D01*
X651498Y2449708D02*
Y2452708D01*
X634998Y2421208D02*
X637998D01*
X636498Y2419708D02*
Y2422708D01*
X619998Y2571208D02*
X622998D01*
X621498Y2569708D02*
Y2572708D01*
X604998Y2541208D02*
X607998D01*
X606498Y2539708D02*
Y2542708D01*
X604998Y2481208D02*
X607998D01*
X606498Y2479708D02*
Y2482708D01*
X619998Y2451208D02*
X622998D01*
X621498Y2449708D02*
Y2452708D01*
X604998Y2421208D02*
X607998D01*
X606498Y2419708D02*
Y2422708D01*
X589998Y2571208D02*
X592998D01*
X591498Y2569708D02*
Y2572708D01*
X574998Y2541208D02*
X577998D01*
X576498Y2539708D02*
Y2542708D01*
X574998Y2481208D02*
X577998D01*
X576498Y2479708D02*
Y2482708D01*
X589998Y2451208D02*
X592998D01*
X591498Y2449708D02*
Y2452708D01*
X574998Y2421208D02*
X577998D01*
X576498Y2419708D02*
Y2422708D01*
X529998Y2571208D02*
X532998D01*
X531498Y2569708D02*
Y2572708D01*
X514998Y2541208D02*
X517998D01*
X516498Y2539708D02*
Y2542708D01*
X514998Y2481208D02*
X517998D01*
X516498Y2479708D02*
Y2482708D01*
X529998Y2451208D02*
X532998D01*
X531498Y2449708D02*
Y2452708D01*
X514998Y2421208D02*
X517998D01*
X516498Y2419708D02*
Y2422708D01*
X499998Y2571208D02*
X502998D01*
X501498Y2569708D02*
Y2572708D01*
X484998Y2541208D02*
X487998D01*
X486498Y2539708D02*
Y2542708D01*
X484998Y2481208D02*
X487998D01*
X486498Y2479708D02*
Y2482708D01*
X499998Y2451208D02*
X502998D01*
X501498Y2449708D02*
Y2452708D01*
X484998Y2421208D02*
X487998D01*
X486498Y2419708D02*
Y2422708D01*
X469998Y2571208D02*
X472998D01*
X471498Y2569708D02*
Y2572708D01*
X454998Y2541208D02*
X457998D01*
X456498Y2539708D02*
Y2542708D01*
X454998Y2481208D02*
X457998D01*
X456498Y2479708D02*
Y2482708D01*
X469998Y2451208D02*
X472998D01*
X471498Y2449708D02*
Y2452708D01*
X454998Y2421208D02*
X457998D01*
X456498Y2419708D02*
Y2422708D01*
X439998Y2571208D02*
X442998D01*
X441498Y2569708D02*
Y2572708D01*
X424998Y2541208D02*
X427998D01*
X426498Y2539708D02*
Y2542708D01*
X424998Y2481208D02*
X427998D01*
X426498Y2479708D02*
Y2482708D01*
X439998Y2451208D02*
X442998D01*
X441498Y2449708D02*
Y2452708D01*
X424998Y2421208D02*
X427998D01*
X426498Y2419708D02*
Y2422708D01*
X409998Y2571208D02*
X412998D01*
X411498Y2569708D02*
Y2572708D01*
X394998Y2541208D02*
X397998D01*
X396498Y2539708D02*
Y2542708D01*
X394998Y2481208D02*
X397998D01*
X396498Y2479708D02*
Y2482708D01*
X409998Y2451208D02*
X412998D01*
X411498Y2449708D02*
Y2452708D01*
X394998Y2421208D02*
X397998D01*
X396498Y2419708D02*
Y2422708D01*
X379998Y2571208D02*
X382998D01*
X381498Y2569708D02*
Y2572708D01*
X364998Y2541208D02*
X367998D01*
X366498Y2539708D02*
Y2542708D01*
X364998Y2481208D02*
X367998D01*
X366498Y2479708D02*
Y2482708D01*
X379998Y2451208D02*
X382998D01*
X381498Y2449708D02*
Y2452708D01*
X364998Y2421208D02*
X367998D01*
X366498Y2419708D02*
Y2422708D01*
X349998Y2571208D02*
X352998D01*
X351498Y2569708D02*
Y2572708D01*
X334998Y2541208D02*
X337998D01*
X336498Y2539708D02*
Y2542708D01*
X334998Y2481208D02*
X337998D01*
X336498Y2479708D02*
Y2482708D01*
X349998Y2451208D02*
X352998D01*
X351498Y2449708D02*
Y2452708D01*
X334998Y2421208D02*
X337998D01*
X336498Y2419708D02*
Y2422708D01*
X319998Y2571208D02*
X322998D01*
X321498Y2569708D02*
Y2572708D01*
X304998Y2541208D02*
X307998D01*
X306498Y2539708D02*
Y2542708D01*
X304998Y2481208D02*
X307998D01*
X306498Y2479708D02*
Y2482708D01*
X319998Y2451208D02*
X322998D01*
X321498Y2449708D02*
Y2452708D01*
X304998Y2421208D02*
X307998D01*
X306498Y2419708D02*
Y2422708D01*
X289998Y2571208D02*
X292998D01*
X291498Y2569708D02*
Y2572708D01*
X274998Y2541208D02*
X277998D01*
X276498Y2539708D02*
Y2542708D01*
X274998Y2481208D02*
X277998D01*
X276498Y2479708D02*
Y2482708D01*
X289998Y2451208D02*
X292998D01*
X291498Y2449708D02*
Y2452708D01*
X274998Y2421208D02*
X277998D01*
X276498Y2419708D02*
Y2422708D01*
X259998Y2571208D02*
X262998D01*
X261498Y2569708D02*
Y2572708D01*
X244998Y2541208D02*
X247998D01*
X246498Y2539708D02*
Y2542708D01*
X244998Y2481208D02*
X247998D01*
X246498Y2479708D02*
Y2482708D01*
X259998Y2451208D02*
X262998D01*
X261498Y2449708D02*
Y2452708D01*
X244998Y2421208D02*
X247998D01*
X246498Y2419708D02*
Y2422708D01*
X229998Y2571208D02*
X232998D01*
X231498Y2569708D02*
Y2572708D01*
X214998Y2541208D02*
X217998D01*
X216498Y2539708D02*
Y2542708D01*
X214998Y2481208D02*
X217998D01*
X216498Y2479708D02*
Y2482708D01*
X229998Y2451208D02*
X232998D01*
X231498Y2449708D02*
Y2452708D01*
X214998Y2421208D02*
X217998D01*
X216498Y2419708D02*
Y2422708D01*
X199998Y2571208D02*
X202998D01*
X201498Y2569708D02*
Y2572708D01*
X184998Y2541208D02*
X187998D01*
X186498Y2539708D02*
Y2542708D01*
X184998Y2481208D02*
X187998D01*
X186498Y2479708D02*
Y2482708D01*
X199998Y2451208D02*
X202998D01*
X201498Y2449708D02*
Y2452708D01*
X184998Y2421208D02*
X187998D01*
X186498Y2419708D02*
Y2422708D01*
X169998Y2571208D02*
X172998D01*
X171498Y2569708D02*
Y2572708D01*
X154998Y2541208D02*
X157998D01*
X156498Y2539708D02*
Y2542708D01*
X154998Y2481208D02*
X157998D01*
X156498Y2479708D02*
Y2482708D01*
X169998Y2451208D02*
X172998D01*
X171498Y2449708D02*
Y2452708D01*
X154998Y2421208D02*
X157998D01*
X156498Y2419708D02*
Y2422708D01*
X139998Y2571208D02*
X142998D01*
X141498Y2569708D02*
Y2572708D01*
X124998Y2541208D02*
X127998D01*
X126498Y2539708D02*
Y2542708D01*
X124998Y2481208D02*
X127998D01*
X126498Y2479708D02*
Y2482708D01*
X139998Y2451208D02*
X142998D01*
X141498Y2449708D02*
Y2452708D01*
X124998Y2421208D02*
X127998D01*
X126498Y2419708D02*
Y2422708D01*
X109998Y2571208D02*
X112998D01*
X111498Y2569708D02*
Y2572708D01*
X94998Y2541208D02*
X97998D01*
X96498Y2539708D02*
Y2542708D01*
X94998Y2481208D02*
X97998D01*
X96498Y2479708D02*
Y2482708D01*
X109998Y2451208D02*
X112998D01*
X111498Y2449708D02*
Y2452708D01*
X94998Y2421208D02*
X97998D01*
X96498Y2419708D02*
Y2422708D01*
X79998Y2571208D02*
X82998D01*
X81498Y2569708D02*
Y2572708D01*
X64998Y2541208D02*
X67998D01*
X66498Y2539708D02*
Y2542708D01*
X79998Y2451208D02*
X82998D01*
X81498Y2449708D02*
Y2452708D01*
X1039998Y2361208D02*
X1042998D01*
X1041498Y2359709D02*
Y2362708D01*
X1024998Y2331208D02*
X1027998D01*
X1026498Y2329709D02*
Y2332708D01*
X1024998Y2271208D02*
X1027998D01*
X1026498Y2269709D02*
Y2272708D01*
X1024998Y2211208D02*
X1027998D01*
X1026498Y2209709D02*
Y2212708D01*
X1009998Y2361208D02*
X1012998D01*
X1011498Y2359709D02*
Y2362708D01*
X994998Y2331208D02*
X997998D01*
X996498Y2329709D02*
Y2332708D01*
X994998Y2271208D02*
X997998D01*
X996498Y2269709D02*
Y2272708D01*
X1009998Y2241208D02*
X1012998D01*
X1011498Y2239709D02*
Y2242708D01*
X994998Y2211208D02*
X997998D01*
X996498Y2209709D02*
Y2212708D01*
X979998Y2361208D02*
X982998D01*
X981498Y2359709D02*
Y2362708D01*
X964998Y2331208D02*
X967998D01*
X966498Y2329709D02*
Y2332708D01*
X964998Y2271208D02*
X967998D01*
X966498Y2269709D02*
Y2272708D01*
X979998Y2241208D02*
X982998D01*
X981498Y2239709D02*
Y2242708D01*
X964998Y2211208D02*
X967998D01*
X966498Y2209709D02*
Y2212708D01*
X949998Y2361208D02*
X952998D01*
X951498Y2359709D02*
Y2362708D01*
X934998Y2331208D02*
X937998D01*
X936498Y2329709D02*
Y2332708D01*
X934998Y2271208D02*
X937998D01*
X936498Y2269709D02*
Y2272708D01*
X949998Y2241208D02*
X952998D01*
X951498Y2239709D02*
Y2242708D01*
X934998Y2211208D02*
X937998D01*
X936498Y2209709D02*
Y2212708D01*
X919998Y2361208D02*
X922998D01*
X921498Y2359709D02*
Y2362708D01*
X904998Y2331208D02*
X907998D01*
X906498Y2329709D02*
Y2332708D01*
X904998Y2271208D02*
X907998D01*
X906498Y2269709D02*
Y2272708D01*
X919998Y2241208D02*
X922998D01*
X921498Y2239709D02*
Y2242708D01*
X904998Y2211208D02*
X907998D01*
X906498Y2209709D02*
Y2212708D01*
X889998Y2361208D02*
X892998D01*
X891498Y2359709D02*
Y2362708D01*
X874998Y2331208D02*
X877998D01*
X876498Y2329709D02*
Y2332708D01*
X874998Y2271208D02*
X877998D01*
X876498Y2269709D02*
Y2272708D01*
X889998Y2241208D02*
X892998D01*
X891498Y2239709D02*
Y2242708D01*
X874998Y2211208D02*
X877998D01*
X876498Y2209709D02*
Y2212708D01*
X859998Y2361208D02*
X862998D01*
X861498Y2359709D02*
Y2362708D01*
X844998Y2331208D02*
X847998D01*
X846498Y2329709D02*
Y2332708D01*
X844998Y2271208D02*
X847998D01*
X846498Y2269709D02*
Y2272708D01*
X859998Y2241208D02*
X862998D01*
X861498Y2239709D02*
Y2242708D01*
X844998Y2211208D02*
X847998D01*
X846498Y2209709D02*
Y2212708D01*
X829998Y2361208D02*
X832998D01*
X831498Y2359709D02*
Y2362708D01*
X814998Y2331208D02*
X817998D01*
X816498Y2329709D02*
Y2332708D01*
X814998Y2271208D02*
X817998D01*
X816498Y2269709D02*
Y2272708D01*
X829998Y2241208D02*
X832998D01*
X831498Y2239709D02*
Y2242708D01*
X814998Y2211208D02*
X817998D01*
X816498Y2209709D02*
Y2212708D01*
X799998Y2361208D02*
X802998D01*
X801498Y2359709D02*
Y2362708D01*
X784998Y2331208D02*
X787998D01*
X786498Y2329709D02*
Y2332708D01*
X784998Y2271208D02*
X787998D01*
X786498Y2269709D02*
Y2272708D01*
X799998Y2241208D02*
X802998D01*
X801498Y2239709D02*
Y2242708D01*
X784998Y2211208D02*
X787998D01*
X786498Y2209709D02*
Y2212708D01*
X769998Y2361208D02*
X772998D01*
X771498Y2359709D02*
Y2362708D01*
X754998Y2331208D02*
X757998D01*
X756498Y2329709D02*
Y2332708D01*
X754998Y2271208D02*
X757998D01*
X756498Y2269709D02*
Y2272708D01*
X769998Y2241208D02*
X772998D01*
X771498Y2239709D02*
Y2242708D01*
X754998Y2211208D02*
X757998D01*
X756498Y2209709D02*
Y2212708D01*
X739998Y2361208D02*
X742998D01*
X741498Y2359709D02*
Y2362708D01*
X724998Y2331208D02*
X727998D01*
X726498Y2329709D02*
Y2332708D01*
X724998Y2271208D02*
X727998D01*
X726498Y2269709D02*
Y2272708D01*
X739998Y2241208D02*
X742998D01*
X741498Y2239709D02*
Y2242708D01*
X724998Y2211208D02*
X727998D01*
X726498Y2209709D02*
Y2212708D01*
X709998Y2361208D02*
X712998D01*
X711498Y2359709D02*
Y2362708D01*
X694998Y2331208D02*
X697998D01*
X696498Y2329709D02*
Y2332708D01*
X694998Y2271208D02*
X697998D01*
X696498Y2269709D02*
Y2272708D01*
X709998Y2241208D02*
X712998D01*
X711498Y2239709D02*
Y2242708D01*
X694998Y2211208D02*
X697998D01*
X696498Y2209709D02*
Y2212708D01*
X679998Y2361208D02*
X682998D01*
X681498Y2359709D02*
Y2362708D01*
X664998Y2331208D02*
X667998D01*
X666498Y2329709D02*
Y2332708D01*
X664998Y2271208D02*
X667998D01*
X666498Y2269709D02*
Y2272708D01*
X679998Y2241208D02*
X682998D01*
X681498Y2239709D02*
Y2242708D01*
X664998Y2211208D02*
X667998D01*
X666498Y2209709D02*
Y2212708D01*
X649998Y2361208D02*
X652998D01*
X651498Y2359709D02*
Y2362708D01*
X634998Y2331208D02*
X637998D01*
X636498Y2329709D02*
Y2332708D01*
X634998Y2271208D02*
X637998D01*
X636498Y2269709D02*
Y2272708D01*
X649998Y2241208D02*
X652998D01*
X651498Y2239709D02*
Y2242708D01*
X634998Y2211208D02*
X637998D01*
X636498Y2209709D02*
Y2212708D01*
X619998Y2361208D02*
X622998D01*
X621498Y2359709D02*
Y2362708D01*
X604998Y2331208D02*
X607998D01*
X606498Y2329709D02*
Y2332708D01*
X604998Y2271208D02*
X607998D01*
X606498Y2269709D02*
Y2272708D01*
X619998Y2241208D02*
X622998D01*
X621498Y2239709D02*
Y2242708D01*
X604998Y2211208D02*
X607998D01*
X606498Y2209709D02*
Y2212708D01*
X589998Y2361208D02*
X592998D01*
X591498Y2359709D02*
Y2362708D01*
X574998Y2331208D02*
X577998D01*
X576498Y2329709D02*
Y2332708D01*
X574998Y2271208D02*
X577998D01*
X576498Y2269709D02*
Y2272708D01*
X589998Y2241208D02*
X592998D01*
X591498Y2239709D02*
Y2242708D01*
X574998Y2211208D02*
X577998D01*
X576498Y2209709D02*
Y2212708D01*
X559998Y2361208D02*
X562998D01*
X561498Y2359709D02*
Y2362708D01*
X544998Y2331208D02*
X547998D01*
X546498Y2329709D02*
Y2332708D01*
X544998Y2271208D02*
X547998D01*
X546498Y2269709D02*
Y2272708D01*
X559998Y2241208D02*
X562998D01*
X561498Y2239709D02*
Y2242708D01*
X544998Y2211208D02*
X547998D01*
X546498Y2209709D02*
Y2212708D01*
X529998Y2361208D02*
X532998D01*
X531498Y2359709D02*
Y2362708D01*
X514998Y2331208D02*
X517998D01*
X516498Y2329709D02*
Y2332708D01*
X514998Y2271208D02*
X517998D01*
X516498Y2269709D02*
Y2272708D01*
X529998Y2241208D02*
X532998D01*
X531498Y2239709D02*
Y2242708D01*
X514998Y2211208D02*
X517998D01*
X516498Y2209709D02*
Y2212708D01*
X499998Y2361208D02*
X502998D01*
X501498Y2359709D02*
Y2362708D01*
X484998Y2331208D02*
X487998D01*
X486498Y2329709D02*
Y2332708D01*
X484998Y2271208D02*
X487998D01*
X486498Y2269709D02*
Y2272708D01*
X499998Y2241208D02*
X502998D01*
X501498Y2239709D02*
Y2242708D01*
X484998Y2211208D02*
X487998D01*
X486498Y2209709D02*
Y2212708D01*
X469998Y2361208D02*
X472998D01*
X471498Y2359709D02*
Y2362708D01*
X454998Y2331208D02*
X457998D01*
X456498Y2329709D02*
Y2332708D01*
X454998Y2271208D02*
X457998D01*
X456498Y2269709D02*
Y2272708D01*
X469998Y2241208D02*
X472998D01*
X471498Y2239709D02*
Y2242708D01*
X454998Y2211208D02*
X457998D01*
X456498Y2209709D02*
Y2212708D01*
X439998Y2361208D02*
X442998D01*
X441498Y2359709D02*
Y2362708D01*
X424998Y2331208D02*
X427998D01*
X426498Y2329709D02*
Y2332708D01*
X424998Y2271208D02*
X427998D01*
X426498Y2269709D02*
Y2272708D01*
X439998Y2241208D02*
X442998D01*
X441498Y2239709D02*
Y2242708D01*
X424998Y2211208D02*
X427998D01*
X426498Y2209709D02*
Y2212708D01*
X409998Y2361208D02*
X412998D01*
X411498Y2359709D02*
Y2362708D01*
X394998Y2331208D02*
X397998D01*
X396498Y2329709D02*
Y2332708D01*
X394998Y2271208D02*
X397998D01*
X396498Y2269709D02*
Y2272708D01*
X409998Y2241208D02*
X412998D01*
X411498Y2239709D02*
Y2242708D01*
X394998Y2211208D02*
X397998D01*
X396498Y2209709D02*
Y2212708D01*
X379998Y2361208D02*
X382998D01*
X381498Y2359709D02*
Y2362708D01*
X364998Y2331208D02*
X367998D01*
X366498Y2329709D02*
Y2332708D01*
X364998Y2271208D02*
X367998D01*
X366498Y2269709D02*
Y2272708D01*
X379998Y2241208D02*
X382998D01*
X381498Y2239709D02*
Y2242708D01*
X364998Y2211208D02*
X367998D01*
X366498Y2209709D02*
Y2212708D01*
X349998Y2361208D02*
X352998D01*
X351498Y2359709D02*
Y2362708D01*
X334998Y2331208D02*
X337998D01*
X336498Y2329709D02*
Y2332708D01*
X334998Y2271208D02*
X337998D01*
X336498Y2269709D02*
Y2272708D01*
X349998Y2241208D02*
X352998D01*
X351498Y2239709D02*
Y2242708D01*
X334998Y2211208D02*
X337998D01*
X336498Y2209709D02*
Y2212708D01*
X319998Y2361208D02*
X322998D01*
X321498Y2359709D02*
Y2362708D01*
X304998Y2331208D02*
X307998D01*
X306498Y2329709D02*
Y2332708D01*
X304998Y2271208D02*
X307998D01*
X306498Y2269709D02*
Y2272708D01*
X319998Y2241208D02*
X322998D01*
X321498Y2239709D02*
Y2242708D01*
X304998Y2211208D02*
X307998D01*
X306498Y2209709D02*
Y2212708D01*
X289998Y2361208D02*
X292998D01*
X291498Y2359709D02*
Y2362708D01*
X274998Y2331208D02*
X277998D01*
X276498Y2329709D02*
Y2332708D01*
X274998Y2271208D02*
X277998D01*
X276498Y2269709D02*
Y2272708D01*
X289998Y2241208D02*
X292998D01*
X291498Y2239709D02*
Y2242708D01*
X274998Y2211208D02*
X277998D01*
X276498Y2209709D02*
Y2212708D01*
X259998Y2361208D02*
X262998D01*
X261498Y2359709D02*
Y2362708D01*
X244998Y2331208D02*
X247998D01*
X246498Y2329709D02*
Y2332708D01*
X244998Y2271208D02*
X247998D01*
X246498Y2269709D02*
Y2272708D01*
X259998Y2241208D02*
X262998D01*
X261498Y2239709D02*
Y2242708D01*
X244998Y2211208D02*
X247998D01*
X246498Y2209709D02*
Y2212708D01*
X229998Y2361208D02*
X232998D01*
X231498Y2359709D02*
Y2362708D01*
X214998Y2331208D02*
X217998D01*
X216498Y2329709D02*
Y2332708D01*
X214998Y2271208D02*
X217998D01*
X216498Y2269709D02*
Y2272708D01*
X229998Y2241208D02*
X232998D01*
X231498Y2239709D02*
Y2242708D01*
X214998Y2211208D02*
X217998D01*
X216498Y2209709D02*
Y2212708D01*
X199998Y2361208D02*
X202998D01*
X201498Y2359709D02*
Y2362708D01*
X184998Y2331208D02*
X187998D01*
X186498Y2329709D02*
Y2332708D01*
X184998Y2271208D02*
X187998D01*
X186498Y2269709D02*
Y2272708D01*
X199998Y2241208D02*
X202998D01*
X201498Y2239709D02*
Y2242708D01*
X184998Y2211208D02*
X187998D01*
X186498Y2209709D02*
Y2212708D01*
X169998Y2361208D02*
X172998D01*
X171498Y2359709D02*
Y2362708D01*
X154998Y2331208D02*
X157998D01*
X156498Y2329709D02*
Y2332708D01*
X154998Y2271208D02*
X157998D01*
X156498Y2269709D02*
Y2272708D01*
X169998Y2241208D02*
X172998D01*
X171498Y2239709D02*
Y2242708D01*
X154998Y2211208D02*
X157998D01*
X156498Y2209709D02*
Y2212708D01*
X139998Y2361208D02*
X142998D01*
X141498Y2359709D02*
Y2362708D01*
X124998Y2331208D02*
X127998D01*
X126498Y2329709D02*
Y2332708D01*
X124998Y2271208D02*
X127998D01*
X126498Y2269709D02*
Y2272708D01*
X139998Y2241208D02*
X142998D01*
X141498Y2239709D02*
Y2242708D01*
X124998Y2211208D02*
X127998D01*
X126498Y2209709D02*
Y2212708D01*
X109998Y2361208D02*
X112998D01*
X111498Y2359709D02*
Y2362708D01*
X94998Y2331208D02*
X97998D01*
X96498Y2329709D02*
Y2332708D01*
X94998Y2271208D02*
X97998D01*
X96498Y2269709D02*
Y2272708D01*
X109998Y2241208D02*
X112998D01*
X111498Y2239709D02*
Y2242708D01*
X94998Y2211208D02*
X97998D01*
X96498Y2209709D02*
Y2212708D01*
X79998Y2361208D02*
X82998D01*
X81498Y2359709D02*
Y2362708D01*
X79998Y2241208D02*
X82998D01*
X81498Y2239709D02*
Y2242708D01*
X64998Y2211208D02*
X67998D01*
X66498Y2209709D02*
Y2212708D01*
X1024998Y2151208D02*
X1027998D01*
X1026498Y2149709D02*
Y2152708D01*
X1024998Y2091208D02*
X1027998D01*
X1026498Y2089709D02*
Y2092708D01*
X1039998Y2061209D02*
X1042998D01*
X1041498Y2059709D02*
Y2062708D01*
X994998Y2151208D02*
X997998D01*
X996498Y2149709D02*
Y2152708D01*
X1009998Y2121208D02*
X1012998D01*
X1011498Y2119709D02*
Y2122708D01*
X994998Y2091208D02*
X997998D01*
X996498Y2089709D02*
Y2092708D01*
X1009998Y2061209D02*
X1012998D01*
X1011498Y2059709D02*
Y2062708D01*
X994998Y2031209D02*
X997998D01*
X996498Y2029709D02*
Y2032709D01*
X964998Y2151208D02*
X967998D01*
X966498Y2149709D02*
Y2152708D01*
X979998Y2121208D02*
X982998D01*
X981498Y2119709D02*
Y2122708D01*
X964998Y2091208D02*
X967998D01*
X966498Y2089709D02*
Y2092708D01*
X979998Y2061209D02*
X982998D01*
X981498Y2059709D02*
Y2062708D01*
X964998Y2031209D02*
X967998D01*
X966498Y2029709D02*
Y2032709D01*
X934998Y2151208D02*
X937998D01*
X936498Y2149709D02*
Y2152708D01*
X949998Y2121208D02*
X952998D01*
X951498Y2119709D02*
Y2122708D01*
X934998Y2091208D02*
X937998D01*
X936498Y2089709D02*
Y2092708D01*
X949998Y2061209D02*
X952998D01*
X951498Y2059709D02*
Y2062708D01*
X934998Y2031209D02*
X937998D01*
X936498Y2029709D02*
Y2032709D01*
X904998Y2151208D02*
X907998D01*
X906498Y2149709D02*
Y2152708D01*
X919998Y2121208D02*
X922998D01*
X921498Y2119709D02*
Y2122708D01*
X904998Y2091208D02*
X907998D01*
X906498Y2089709D02*
Y2092708D01*
X919998Y2061209D02*
X922998D01*
X921498Y2059709D02*
Y2062708D01*
X904998Y2031209D02*
X907998D01*
X906498Y2029709D02*
Y2032709D01*
X874998Y2151208D02*
X877998D01*
X876498Y2149709D02*
Y2152708D01*
X889998Y2121208D02*
X892998D01*
X891498Y2119709D02*
Y2122708D01*
X874998Y2091208D02*
X877998D01*
X876498Y2089709D02*
Y2092708D01*
X889998Y2061209D02*
X892998D01*
X891498Y2059709D02*
Y2062708D01*
X874998Y2031209D02*
X877998D01*
X876498Y2029709D02*
Y2032709D01*
X844998Y2151208D02*
X847998D01*
X846498Y2149709D02*
Y2152708D01*
X859998Y2121208D02*
X862998D01*
X861498Y2119709D02*
Y2122708D01*
X844998Y2091208D02*
X847998D01*
X846498Y2089709D02*
Y2092708D01*
X859998Y2061209D02*
X862998D01*
X861498Y2059709D02*
Y2062708D01*
X844998Y2031209D02*
X847998D01*
X846498Y2029709D02*
Y2032709D01*
X814998Y2151208D02*
X817998D01*
X816498Y2149709D02*
Y2152708D01*
X829998Y2121208D02*
X832998D01*
X831498Y2119709D02*
Y2122708D01*
X814998Y2091208D02*
X817998D01*
X816498Y2089709D02*
Y2092708D01*
X829998Y2061209D02*
X832998D01*
X831498Y2059709D02*
Y2062708D01*
X814998Y2031209D02*
X817998D01*
X816498Y2029709D02*
Y2032709D01*
X784998Y2151208D02*
X787998D01*
X786498Y2149709D02*
Y2152708D01*
X799998Y2121208D02*
X802998D01*
X801498Y2119709D02*
Y2122708D01*
X784998Y2091208D02*
X787998D01*
X786498Y2089709D02*
Y2092708D01*
X799998Y2061209D02*
X802998D01*
X801498Y2059709D02*
Y2062708D01*
X784998Y2031209D02*
X787998D01*
X786498Y2029709D02*
Y2032709D01*
X754998Y2151208D02*
X757998D01*
X756498Y2149709D02*
Y2152708D01*
X769998Y2121208D02*
X772998D01*
X771498Y2119709D02*
Y2122708D01*
X754998Y2091208D02*
X757998D01*
X756498Y2089709D02*
Y2092708D01*
X769998Y2061209D02*
X772998D01*
X771498Y2059709D02*
Y2062708D01*
X754998Y2031209D02*
X757998D01*
X756498Y2029709D02*
Y2032709D01*
X724998Y2151208D02*
X727998D01*
X726498Y2149709D02*
Y2152708D01*
X739998Y2121208D02*
X742998D01*
X741498Y2119709D02*
Y2122708D01*
X724998Y2091208D02*
X727998D01*
X726498Y2089709D02*
Y2092708D01*
X739998Y2061209D02*
X742998D01*
X741498Y2059709D02*
Y2062708D01*
X724998Y2031209D02*
X727998D01*
X726498Y2029709D02*
Y2032709D01*
X694998Y2151208D02*
X697998D01*
X696498Y2149709D02*
Y2152708D01*
X709998Y2121208D02*
X712998D01*
X711498Y2119709D02*
Y2122708D01*
X694998Y2091208D02*
X697998D01*
X696498Y2089709D02*
Y2092708D01*
X709998Y2061209D02*
X712998D01*
X711498Y2059709D02*
Y2062708D01*
X694998Y2031209D02*
X697998D01*
X696498Y2029709D02*
Y2032709D01*
X664998Y2151208D02*
X667998D01*
X666498Y2149709D02*
Y2152708D01*
X679998Y2121208D02*
X682998D01*
X681498Y2119709D02*
Y2122708D01*
X664998Y2091208D02*
X667998D01*
X666498Y2089709D02*
Y2092708D01*
X679998Y2061209D02*
X682998D01*
X681498Y2059709D02*
Y2062708D01*
X664998Y2031209D02*
X667998D01*
X666498Y2029709D02*
Y2032709D01*
X634998Y2151208D02*
X637998D01*
X636498Y2149709D02*
Y2152708D01*
X649998Y2121208D02*
X652998D01*
X651498Y2119709D02*
Y2122708D01*
X634998Y2091208D02*
X637998D01*
X636498Y2089709D02*
Y2092708D01*
X649998Y2061209D02*
X652998D01*
X651498Y2059709D02*
Y2062708D01*
X634998Y2031209D02*
X637998D01*
X636498Y2029709D02*
Y2032709D01*
X604998Y2151208D02*
X607998D01*
X606498Y2149709D02*
Y2152708D01*
X619998Y2121208D02*
X622998D01*
X621498Y2119709D02*
Y2122708D01*
X604998Y2091208D02*
X607998D01*
X606498Y2089709D02*
Y2092708D01*
X619998Y2061209D02*
X622998D01*
X621498Y2059709D02*
Y2062708D01*
X604998Y2031209D02*
X607998D01*
X606498Y2029709D02*
Y2032709D01*
X574998Y2151208D02*
X577998D01*
X576498Y2149709D02*
Y2152708D01*
X589998Y2121208D02*
X592998D01*
X591498Y2119709D02*
Y2122708D01*
X574998Y2091208D02*
X577998D01*
X576498Y2089709D02*
Y2092708D01*
X589998Y2061209D02*
X592998D01*
X591498Y2059709D02*
Y2062708D01*
X574998Y2031209D02*
X577998D01*
X576498Y2029709D02*
Y2032709D01*
X544998Y2151208D02*
X547998D01*
X546498Y2149709D02*
Y2152708D01*
X559998Y2121208D02*
X562998D01*
X561498Y2119709D02*
Y2122708D01*
X544998Y2091208D02*
X547998D01*
X546498Y2089709D02*
Y2092708D01*
X559998Y2061209D02*
X562998D01*
X561498Y2059709D02*
Y2062708D01*
X544998Y2031209D02*
X547998D01*
X546498Y2029709D02*
Y2032709D01*
X514998Y2151208D02*
X517998D01*
X516498Y2149709D02*
Y2152708D01*
X529998Y2121208D02*
X532998D01*
X531498Y2119709D02*
Y2122708D01*
X514998Y2091208D02*
X517998D01*
X516498Y2089709D02*
Y2092708D01*
X529998Y2061209D02*
X532998D01*
X531498Y2059709D02*
Y2062708D01*
X514998Y2031209D02*
X517998D01*
X516498Y2029709D02*
Y2032709D01*
X484998Y2151208D02*
X487998D01*
X486498Y2149709D02*
Y2152708D01*
X499998Y2121208D02*
X502998D01*
X501498Y2119709D02*
Y2122708D01*
X484998Y2091208D02*
X487998D01*
X486498Y2089709D02*
Y2092708D01*
X499998Y2061209D02*
X502998D01*
X501498Y2059709D02*
Y2062708D01*
X484998Y2031209D02*
X487998D01*
X486498Y2029709D02*
Y2032709D01*
X454998Y2151208D02*
X457998D01*
X456498Y2149709D02*
Y2152708D01*
X469998Y2121208D02*
X472998D01*
X471498Y2119709D02*
Y2122708D01*
X454998Y2091208D02*
X457998D01*
X456498Y2089709D02*
Y2092708D01*
X469998Y2061209D02*
X472998D01*
X471498Y2059709D02*
Y2062708D01*
X454998Y2031209D02*
X457998D01*
X456498Y2029709D02*
Y2032709D01*
X424998Y2151208D02*
X427998D01*
X426498Y2149709D02*
Y2152708D01*
X439998Y2121208D02*
X442998D01*
X441498Y2119709D02*
Y2122708D01*
X424998Y2091208D02*
X427998D01*
X426498Y2089709D02*
Y2092708D01*
X439998Y2061209D02*
X442998D01*
X441498Y2059709D02*
Y2062708D01*
X424998Y2031209D02*
X427998D01*
X426498Y2029709D02*
Y2032709D01*
X394998Y2151208D02*
X397998D01*
X396498Y2149709D02*
Y2152708D01*
X409998Y2121208D02*
X412998D01*
X411498Y2119709D02*
Y2122708D01*
X394998Y2091208D02*
X397998D01*
X396498Y2089709D02*
Y2092708D01*
X409998Y2061209D02*
X412998D01*
X411498Y2059709D02*
Y2062708D01*
X394998Y2031209D02*
X397998D01*
X396498Y2029709D02*
Y2032709D01*
X364998Y2151208D02*
X367998D01*
X366498Y2149709D02*
Y2152708D01*
X379998Y2121208D02*
X382998D01*
X381498Y2119709D02*
Y2122708D01*
X364998Y2091208D02*
X367998D01*
X366498Y2089709D02*
Y2092708D01*
X379998Y2061209D02*
X382998D01*
X381498Y2059709D02*
Y2062708D01*
X364998Y2031209D02*
X367998D01*
X366498Y2029709D02*
Y2032709D01*
X334998Y2151208D02*
X337998D01*
X336498Y2149709D02*
Y2152708D01*
X349998Y2121208D02*
X352998D01*
X351498Y2119709D02*
Y2122708D01*
X334998Y2091208D02*
X337998D01*
X336498Y2089709D02*
Y2092708D01*
X349998Y2061209D02*
X352998D01*
X351498Y2059709D02*
Y2062708D01*
X334998Y2031209D02*
X337998D01*
X336498Y2029709D02*
Y2032709D01*
X304998Y2151208D02*
X307998D01*
X306498Y2149709D02*
Y2152708D01*
X319998Y2121208D02*
X322998D01*
X321498Y2119709D02*
Y2122708D01*
X304998Y2091208D02*
X307998D01*
X306498Y2089709D02*
Y2092708D01*
X319998Y2061209D02*
X322998D01*
X321498Y2059709D02*
Y2062708D01*
X304998Y2031209D02*
X307998D01*
X306498Y2029709D02*
Y2032709D01*
X274998Y2151208D02*
X277998D01*
X276498Y2149709D02*
Y2152708D01*
X289998Y2121208D02*
X292998D01*
X291498Y2119709D02*
Y2122708D01*
X274998Y2091208D02*
X277998D01*
X276498Y2089709D02*
Y2092708D01*
X289998Y2061209D02*
X292998D01*
X291498Y2059709D02*
Y2062708D01*
X274998Y2031209D02*
X277998D01*
X276498Y2029709D02*
Y2032709D01*
X244998Y2151208D02*
X247998D01*
X246498Y2149709D02*
Y2152708D01*
X259998Y2121208D02*
X262998D01*
X261498Y2119709D02*
Y2122708D01*
X244998Y2091208D02*
X247998D01*
X246498Y2089709D02*
Y2092708D01*
X259998Y2061209D02*
X262998D01*
X261498Y2059709D02*
Y2062708D01*
X244998Y2031209D02*
X247998D01*
X246498Y2029709D02*
Y2032709D01*
X214998Y2151208D02*
X217998D01*
X216498Y2149709D02*
Y2152708D01*
X229998Y2121208D02*
X232998D01*
X231498Y2119709D02*
Y2122708D01*
X214998Y2091208D02*
X217998D01*
X216498Y2089709D02*
Y2092708D01*
X229998Y2061209D02*
X232998D01*
X231498Y2059709D02*
Y2062708D01*
X214998Y2031209D02*
X217998D01*
X216498Y2029709D02*
Y2032709D01*
X184998Y2151208D02*
X187998D01*
X186498Y2149709D02*
Y2152708D01*
X199998Y2121208D02*
X202998D01*
X201498Y2119709D02*
Y2122708D01*
X184998Y2091208D02*
X187998D01*
X186498Y2089709D02*
Y2092708D01*
X199998Y2061209D02*
X202998D01*
X201498Y2059709D02*
Y2062708D01*
X184998Y2031209D02*
X187998D01*
X186498Y2029709D02*
Y2032709D01*
X154998Y2151208D02*
X157998D01*
X156498Y2149709D02*
Y2152708D01*
X169998Y2121208D02*
X172998D01*
X171498Y2119709D02*
Y2122708D01*
X154998Y2091208D02*
X157998D01*
X156498Y2089709D02*
Y2092708D01*
X169998Y2061209D02*
X172998D01*
X171498Y2059709D02*
Y2062708D01*
X154998Y2031209D02*
X157998D01*
X156498Y2029709D02*
Y2032709D01*
X124998Y2151208D02*
X127998D01*
X126498Y2149709D02*
Y2152708D01*
X139998Y2121208D02*
X142998D01*
X141498Y2119709D02*
Y2122708D01*
X124998Y2091208D02*
X127998D01*
X126498Y2089709D02*
Y2092708D01*
X139998Y2061209D02*
X142998D01*
X141498Y2059709D02*
Y2062708D01*
X124998Y2031209D02*
X127998D01*
X126498Y2029709D02*
Y2032709D01*
X94998Y2151208D02*
X97998D01*
X96498Y2149709D02*
Y2152708D01*
X109998Y2121208D02*
X112998D01*
X111498Y2119709D02*
Y2122708D01*
X94998Y2091208D02*
X97998D01*
X96498Y2089709D02*
Y2092708D01*
X109998Y2061209D02*
X112998D01*
X111498Y2059709D02*
Y2062708D01*
X94998Y2031209D02*
X97998D01*
X96498Y2029709D02*
Y2032709D01*
X64998Y2151208D02*
X67998D01*
X66498Y2149709D02*
Y2152708D01*
X79998Y2121208D02*
X82998D01*
X81498Y2119709D02*
Y2122708D01*
X79998Y2061209D02*
X82998D01*
X81498Y2059709D02*
Y2062708D01*
X299825Y2100500D02*
X302826D01*
X301325Y2099000D02*
Y2102000D01*
X299825Y2109500D02*
X302826D01*
X301325Y2108000D02*
Y2111000D01*
X797175Y2100500D02*
X800174D01*
X798674Y2099000D02*
Y2102000D01*
X797175Y2109500D02*
X800174D01*
X798674Y2108000D02*
Y2111000D01*
X797175Y1909500D02*
X800174D01*
X798674Y1908000D02*
Y1911000D01*
X797175Y1900500D02*
X800174D01*
X798674Y1899000D02*
Y1902000D01*
X299825Y1909500D02*
X302826D01*
X301325Y1908000D02*
Y1911000D01*
X299825Y1900500D02*
X302826D01*
X301325Y1899000D02*
Y1902000D01*
X1024998Y1941209D02*
X1027998D01*
X1026498Y1939709D02*
Y1942709D01*
X1024998Y1881209D02*
X1027998D01*
X1026498Y1879709D02*
Y1882709D01*
X1039998Y1851209D02*
X1042998D01*
X1041498Y1849709D02*
Y1852709D01*
X1009998Y1971209D02*
X1012998D01*
X1011498Y1969709D02*
Y1972709D01*
X994998Y1941209D02*
X997998D01*
X996498Y1939709D02*
Y1942709D01*
X994998Y1881209D02*
X997998D01*
X996498Y1879709D02*
Y1882709D01*
X1009998Y1851209D02*
X1012998D01*
X1011498Y1849709D02*
Y1852709D01*
X994998Y1821209D02*
X997998D01*
X996498Y1819709D02*
Y1822709D01*
X979998Y1971209D02*
X982998D01*
X981498Y1969709D02*
Y1972709D01*
X964998Y1941209D02*
X967998D01*
X966498Y1939709D02*
Y1942709D01*
X964998Y1881209D02*
X967998D01*
X966498Y1879709D02*
Y1882709D01*
X979998Y1851209D02*
X982998D01*
X981498Y1849709D02*
Y1852709D01*
X964998Y1821209D02*
X967998D01*
X966498Y1819709D02*
Y1822709D01*
X949998Y1971209D02*
X952998D01*
X951498Y1969709D02*
Y1972709D01*
X934998Y1941209D02*
X937998D01*
X936498Y1939709D02*
Y1942709D01*
X934998Y1881209D02*
X937998D01*
X936498Y1879709D02*
Y1882709D01*
X949998Y1851209D02*
X952998D01*
X951498Y1849709D02*
Y1852709D01*
X934998Y1821209D02*
X937998D01*
X936498Y1819709D02*
Y1822709D01*
X919998Y1971209D02*
X922998D01*
X921498Y1969709D02*
Y1972709D01*
X904998Y1941209D02*
X907998D01*
X906498Y1939709D02*
Y1942709D01*
X904998Y1881209D02*
X907998D01*
X906498Y1879709D02*
Y1882709D01*
X919998Y1851209D02*
X922998D01*
X921498Y1849709D02*
Y1852709D01*
X904998Y1821209D02*
X907998D01*
X906498Y1819709D02*
Y1822709D01*
X889998Y1971209D02*
X892998D01*
X891498Y1969709D02*
Y1972709D01*
X874998Y1941209D02*
X877998D01*
X876498Y1939709D02*
Y1942709D01*
X874998Y1881209D02*
X877998D01*
X876498Y1879709D02*
Y1882709D01*
X889998Y1851209D02*
X892998D01*
X891498Y1849709D02*
Y1852709D01*
X874998Y1821209D02*
X877998D01*
X876498Y1819709D02*
Y1822709D01*
X859998Y1971209D02*
X862998D01*
X861498Y1969709D02*
Y1972709D01*
X844998Y1941209D02*
X847998D01*
X846498Y1939709D02*
Y1942709D01*
X844998Y1881209D02*
X847998D01*
X846498Y1879709D02*
Y1882709D01*
X859998Y1851209D02*
X862998D01*
X861498Y1849709D02*
Y1852709D01*
X844998Y1821209D02*
X847998D01*
X846498Y1819709D02*
Y1822709D01*
X829998Y1971209D02*
X832998D01*
X831498Y1969709D02*
Y1972709D01*
X814998Y1941209D02*
X817998D01*
X816498Y1939709D02*
Y1942709D01*
X814998Y1881209D02*
X817998D01*
X816498Y1879709D02*
Y1882709D01*
X829998Y1851209D02*
X832998D01*
X831498Y1849709D02*
Y1852709D01*
X814998Y1821209D02*
X817998D01*
X816498Y1819709D02*
Y1822709D01*
X799998Y1971209D02*
X802998D01*
X801498Y1969709D02*
Y1972709D01*
X784998Y1941209D02*
X787998D01*
X786498Y1939709D02*
Y1942709D01*
X784998Y1881209D02*
X787998D01*
X786498Y1879709D02*
Y1882709D01*
X799998Y1851209D02*
X802998D01*
X801498Y1849709D02*
Y1852709D01*
X784998Y1821209D02*
X787998D01*
X786498Y1819709D02*
Y1822709D01*
X769998Y1971209D02*
X772998D01*
X771498Y1969709D02*
Y1972709D01*
X754998Y1941209D02*
X757998D01*
X756498Y1939709D02*
Y1942709D01*
X754998Y1881209D02*
X757998D01*
X756498Y1879709D02*
Y1882709D01*
X769998Y1851209D02*
X772998D01*
X771498Y1849709D02*
Y1852709D01*
X754998Y1821209D02*
X757998D01*
X756498Y1819709D02*
Y1822709D01*
X739998Y1971209D02*
X742998D01*
X741498Y1969709D02*
Y1972709D01*
X724998Y1941209D02*
X727998D01*
X726498Y1939709D02*
Y1942709D01*
X724998Y1881209D02*
X727998D01*
X726498Y1879709D02*
Y1882709D01*
X739998Y1851209D02*
X742998D01*
X741498Y1849709D02*
Y1852709D01*
X724998Y1821209D02*
X727998D01*
X726498Y1819709D02*
Y1822709D01*
X709998Y1971209D02*
X712998D01*
X711498Y1969709D02*
Y1972709D01*
X694998Y1941209D02*
X697998D01*
X696498Y1939709D02*
Y1942709D01*
X694998Y1881209D02*
X697998D01*
X696498Y1879709D02*
Y1882709D01*
X709998Y1851209D02*
X712998D01*
X711498Y1849709D02*
Y1852709D01*
X694998Y1821209D02*
X697998D01*
X696498Y1819709D02*
Y1822709D01*
X679998Y1971209D02*
X682998D01*
X681498Y1969709D02*
Y1972709D01*
X664998Y1941209D02*
X667998D01*
X666498Y1939709D02*
Y1942709D01*
X664998Y1881209D02*
X667998D01*
X666498Y1879709D02*
Y1882709D01*
X679998Y1851209D02*
X682998D01*
X681498Y1849709D02*
Y1852709D01*
X664998Y1821209D02*
X667998D01*
X666498Y1819709D02*
Y1822709D01*
X649998Y1971209D02*
X652998D01*
X651498Y1969709D02*
Y1972709D01*
X634998Y1941209D02*
X637998D01*
X636498Y1939709D02*
Y1942709D01*
X634998Y1881209D02*
X637998D01*
X636498Y1879709D02*
Y1882709D01*
X649998Y1851209D02*
X652998D01*
X651498Y1849709D02*
Y1852709D01*
X634998Y1821209D02*
X637998D01*
X636498Y1819709D02*
Y1822709D01*
X619998Y1971209D02*
X622998D01*
X621498Y1969709D02*
Y1972709D01*
X604998Y1941209D02*
X607998D01*
X606498Y1939709D02*
Y1942709D01*
X604998Y1881209D02*
X607998D01*
X606498Y1879709D02*
Y1882709D01*
X619998Y1851209D02*
X622998D01*
X621498Y1849709D02*
Y1852709D01*
X604998Y1821209D02*
X607998D01*
X606498Y1819709D02*
Y1822709D01*
X589998Y1971209D02*
X592998D01*
X591498Y1969709D02*
Y1972709D01*
X574998Y1941209D02*
X577998D01*
X576498Y1939709D02*
Y1942709D01*
X574998Y1881209D02*
X577998D01*
X576498Y1879709D02*
Y1882709D01*
X589998Y1851209D02*
X592998D01*
X591498Y1849709D02*
Y1852709D01*
X574998Y1821209D02*
X577998D01*
X576498Y1819709D02*
Y1822709D01*
X559998Y1971209D02*
X562998D01*
X561498Y1969709D02*
Y1972709D01*
X544998Y1941209D02*
X547998D01*
X546498Y1939709D02*
Y1942709D01*
X544998Y1881209D02*
X547998D01*
X546498Y1879709D02*
Y1882709D01*
X559998Y1851209D02*
X562998D01*
X561498Y1849709D02*
Y1852709D01*
X544998Y1821209D02*
X547998D01*
X546498Y1819709D02*
Y1822709D01*
X529998Y1971209D02*
X532998D01*
X531498Y1969709D02*
Y1972709D01*
X514998Y1941209D02*
X517998D01*
X516498Y1939709D02*
Y1942709D01*
X514998Y1881209D02*
X517998D01*
X516498Y1879709D02*
Y1882709D01*
X529998Y1851209D02*
X532998D01*
X531498Y1849709D02*
Y1852709D01*
X514998Y1821209D02*
X517998D01*
X516498Y1819709D02*
Y1822709D01*
X499998Y1971209D02*
X502998D01*
X501498Y1969709D02*
Y1972709D01*
X484998Y1941209D02*
X487998D01*
X486498Y1939709D02*
Y1942709D01*
X484998Y1881209D02*
X487998D01*
X486498Y1879709D02*
Y1882709D01*
X499998Y1851209D02*
X502998D01*
X501498Y1849709D02*
Y1852709D01*
X484998Y1821209D02*
X487998D01*
X486498Y1819709D02*
Y1822709D01*
X469998Y1971209D02*
X472998D01*
X471498Y1969709D02*
Y1972709D01*
X454998Y1941209D02*
X457998D01*
X456498Y1939709D02*
Y1942709D01*
X454998Y1881209D02*
X457998D01*
X456498Y1879709D02*
Y1882709D01*
X469998Y1851209D02*
X472998D01*
X471498Y1849709D02*
Y1852709D01*
X454998Y1821209D02*
X457998D01*
X456498Y1819709D02*
Y1822709D01*
X439998Y1971209D02*
X442998D01*
X441498Y1969709D02*
Y1972709D01*
X424998Y1941209D02*
X427998D01*
X426498Y1939709D02*
Y1942709D01*
X424998Y1881209D02*
X427998D01*
X426498Y1879709D02*
Y1882709D01*
X439998Y1851209D02*
X442998D01*
X441498Y1849709D02*
Y1852709D01*
X424998Y1821209D02*
X427998D01*
X426498Y1819709D02*
Y1822709D01*
X409998Y1971209D02*
X412998D01*
X411498Y1969709D02*
Y1972709D01*
X394998Y1941209D02*
X397998D01*
X396498Y1939709D02*
Y1942709D01*
X394998Y1881209D02*
X397998D01*
X396498Y1879709D02*
Y1882709D01*
X409998Y1851209D02*
X412998D01*
X411498Y1849709D02*
Y1852709D01*
X394998Y1821209D02*
X397998D01*
X396498Y1819709D02*
Y1822709D01*
X379998Y1971209D02*
X382998D01*
X381498Y1969709D02*
Y1972709D01*
X364998Y1941209D02*
X367998D01*
X366498Y1939709D02*
Y1942709D01*
X364998Y1881209D02*
X367998D01*
X366498Y1879709D02*
Y1882709D01*
X379998Y1851209D02*
X382998D01*
X381498Y1849709D02*
Y1852709D01*
X364998Y1821209D02*
X367998D01*
X366498Y1819709D02*
Y1822709D01*
X349998Y1971209D02*
X352998D01*
X351498Y1969709D02*
Y1972709D01*
X334998Y1941209D02*
X337998D01*
X336498Y1939709D02*
Y1942709D01*
X334998Y1881209D02*
X337998D01*
X336498Y1879709D02*
Y1882709D01*
X349998Y1851209D02*
X352998D01*
X351498Y1849709D02*
Y1852709D01*
X334998Y1821209D02*
X337998D01*
X336498Y1819709D02*
Y1822709D01*
X319998Y1971209D02*
X322998D01*
X321498Y1969709D02*
Y1972709D01*
X304998Y1941209D02*
X307998D01*
X306498Y1939709D02*
Y1942709D01*
X304998Y1881209D02*
X307998D01*
X306498Y1879709D02*
Y1882709D01*
X319998Y1851209D02*
X322998D01*
X321498Y1849709D02*
Y1852709D01*
X304998Y1821209D02*
X307998D01*
X306498Y1819709D02*
Y1822709D01*
X289998Y1971209D02*
X292998D01*
X291498Y1969709D02*
Y1972709D01*
X274998Y1941209D02*
X277998D01*
X276498Y1939709D02*
Y1942709D01*
X274998Y1881209D02*
X277998D01*
X276498Y1879709D02*
Y1882709D01*
X289998Y1851209D02*
X292998D01*
X291498Y1849709D02*
Y1852709D01*
X274998Y1821209D02*
X277998D01*
X276498Y1819709D02*
Y1822709D01*
X259998Y1971209D02*
X262998D01*
X261498Y1969709D02*
Y1972709D01*
X244998Y1941209D02*
X247998D01*
X246498Y1939709D02*
Y1942709D01*
X244998Y1881209D02*
X247998D01*
X246498Y1879709D02*
Y1882709D01*
X259998Y1851209D02*
X262998D01*
X261498Y1849709D02*
Y1852709D01*
X244998Y1821209D02*
X247998D01*
X246498Y1819709D02*
Y1822709D01*
X229998Y1971209D02*
X232998D01*
X231498Y1969709D02*
Y1972709D01*
X214998Y1941209D02*
X217998D01*
X216498Y1939709D02*
Y1942709D01*
X214998Y1881209D02*
X217998D01*
X216498Y1879709D02*
Y1882709D01*
X229998Y1851209D02*
X232998D01*
X231498Y1849709D02*
Y1852709D01*
X214998Y1821209D02*
X217998D01*
X216498Y1819709D02*
Y1822709D01*
X199998Y1971209D02*
X202998D01*
X201498Y1969709D02*
Y1972709D01*
X184998Y1941209D02*
X187998D01*
X186498Y1939709D02*
Y1942709D01*
X184998Y1881209D02*
X187998D01*
X186498Y1879709D02*
Y1882709D01*
X199998Y1851209D02*
X202998D01*
X201498Y1849709D02*
Y1852709D01*
X184998Y1821209D02*
X187998D01*
X186498Y1819709D02*
Y1822709D01*
X169998Y1971209D02*
X172998D01*
X171498Y1969709D02*
Y1972709D01*
X154998Y1941209D02*
X157998D01*
X156498Y1939709D02*
Y1942709D01*
X154998Y1881209D02*
X157998D01*
X156498Y1879709D02*
Y1882709D01*
X169998Y1851209D02*
X172998D01*
X171498Y1849709D02*
Y1852709D01*
X154998Y1821209D02*
X157998D01*
X156498Y1819709D02*
Y1822709D01*
X139998Y1971209D02*
X142998D01*
X141498Y1969709D02*
Y1972709D01*
X124998Y1941209D02*
X127998D01*
X126498Y1939709D02*
Y1942709D01*
X124998Y1881209D02*
X127998D01*
X126498Y1879709D02*
Y1882709D01*
X139998Y1851209D02*
X142998D01*
X141498Y1849709D02*
Y1852709D01*
X124998Y1821209D02*
X127998D01*
X126498Y1819709D02*
Y1822709D01*
X109998Y1971209D02*
X112998D01*
X111498Y1969709D02*
Y1972709D01*
X94998Y1941209D02*
X97998D01*
X96498Y1939709D02*
Y1942709D01*
X94998Y1881209D02*
X97998D01*
X96498Y1879709D02*
Y1882709D01*
X109998Y1851209D02*
X112998D01*
X111498Y1849709D02*
Y1852709D01*
X94998Y1821209D02*
X97998D01*
X96498Y1819709D02*
Y1822709D01*
X79998Y1971209D02*
X82998D01*
X81498Y1969709D02*
Y1972709D01*
X64998Y1941209D02*
X67998D01*
X66498Y1939709D02*
Y1942709D01*
X79998Y1851209D02*
X82998D01*
X81498Y1849709D02*
Y1852709D01*
X1009998Y1371209D02*
X1012998D01*
X1011498Y1369709D02*
Y1372709D01*
X994998Y1341209D02*
X997998D01*
X996498Y1339709D02*
Y1342709D01*
X1009998Y1311209D02*
X1012998D01*
X1011498Y1309709D02*
Y1312709D01*
X994998Y1281209D02*
X997998D01*
X996498Y1279709D02*
Y1282709D01*
X979998Y1371209D02*
X982998D01*
X981498Y1369709D02*
Y1372709D01*
X964998Y1341209D02*
X967998D01*
X966498Y1339709D02*
Y1342709D01*
X979998Y1311209D02*
X982998D01*
X981498Y1309709D02*
Y1312709D01*
X964998Y1281209D02*
X967998D01*
X966498Y1279709D02*
Y1282709D01*
X949998Y1371209D02*
X952998D01*
X951498Y1369709D02*
Y1372709D01*
X934998Y1341209D02*
X937998D01*
X936498Y1339709D02*
Y1342709D01*
X949998Y1311209D02*
X952998D01*
X951498Y1309709D02*
Y1312709D01*
X934998Y1281209D02*
X937998D01*
X936498Y1279709D02*
Y1282709D01*
X919998Y1371209D02*
X922998D01*
X921498Y1369709D02*
Y1372709D01*
X904998Y1341209D02*
X907998D01*
X906498Y1339709D02*
Y1342709D01*
X919998Y1311209D02*
X922998D01*
X921498Y1309709D02*
Y1312709D01*
X904998Y1281209D02*
X907998D01*
X906498Y1279709D02*
Y1282709D01*
X889998Y1371209D02*
X892998D01*
X891498Y1369709D02*
Y1372709D01*
X874998Y1341209D02*
X877998D01*
X876498Y1339709D02*
Y1342709D01*
X889998Y1311209D02*
X892998D01*
X891498Y1309709D02*
Y1312709D01*
X874998Y1281209D02*
X877998D01*
X876498Y1279709D02*
Y1282709D01*
X859998Y1371209D02*
X862998D01*
X861498Y1369709D02*
Y1372709D01*
X844998Y1341209D02*
X847998D01*
X846498Y1339709D02*
Y1342709D01*
X859998Y1311209D02*
X862998D01*
X861498Y1309709D02*
Y1312709D01*
X844998Y1281209D02*
X847998D01*
X846498Y1279709D02*
Y1282709D01*
X829998Y1371209D02*
X832998D01*
X831498Y1369709D02*
Y1372709D01*
X814998Y1341209D02*
X817998D01*
X816498Y1339709D02*
Y1342709D01*
X829998Y1311209D02*
X832998D01*
X831498Y1309709D02*
Y1312709D01*
X814998Y1281209D02*
X817998D01*
X816498Y1279709D02*
Y1282709D01*
X799998Y1371209D02*
X802998D01*
X801498Y1369709D02*
Y1372709D01*
X784998Y1341209D02*
X787998D01*
X786498Y1339709D02*
Y1342709D01*
X799998Y1311209D02*
X802998D01*
X801498Y1309709D02*
Y1312709D01*
X784998Y1281209D02*
X787998D01*
X786498Y1279709D02*
Y1282709D01*
X769998Y1371209D02*
X772998D01*
X771498Y1369709D02*
Y1372709D01*
X754998Y1341209D02*
X757998D01*
X756498Y1339709D02*
Y1342709D01*
X769998Y1311209D02*
X772998D01*
X771498Y1309709D02*
Y1312709D01*
X754998Y1281209D02*
X757998D01*
X756498Y1279709D02*
Y1282709D01*
X739998Y1371209D02*
X742998D01*
X741498Y1369709D02*
Y1372709D01*
X724998Y1341209D02*
X727998D01*
X726498Y1339709D02*
Y1342709D01*
X739998Y1311209D02*
X742998D01*
X741498Y1309709D02*
Y1312709D01*
X724998Y1281209D02*
X727998D01*
X726498Y1279709D02*
Y1282709D01*
X709998Y1371209D02*
X712998D01*
X711498Y1369709D02*
Y1372709D01*
X694998Y1341209D02*
X697998D01*
X696498Y1339709D02*
Y1342709D01*
X709998Y1311209D02*
X712998D01*
X711498Y1309709D02*
Y1312709D01*
X694998Y1281209D02*
X697998D01*
X696498Y1279709D02*
Y1282709D01*
X679998Y1371209D02*
X682998D01*
X681498Y1369709D02*
Y1372709D01*
X664998Y1341209D02*
X667998D01*
X666498Y1339709D02*
Y1342709D01*
X679998Y1311209D02*
X682998D01*
X681498Y1309709D02*
Y1312709D01*
X664998Y1281209D02*
X667998D01*
X666498Y1279709D02*
Y1282709D01*
X649998Y1371209D02*
X652998D01*
X651498Y1369709D02*
Y1372709D01*
X634998Y1341209D02*
X637998D01*
X636498Y1339709D02*
Y1342709D01*
X649998Y1311209D02*
X652998D01*
X651498Y1309709D02*
Y1312709D01*
X634998Y1281209D02*
X637998D01*
X636498Y1279709D02*
Y1282709D01*
X619998Y1371209D02*
X622998D01*
X621498Y1369709D02*
Y1372709D01*
X604998Y1341209D02*
X607998D01*
X606498Y1339709D02*
Y1342709D01*
X619998Y1311209D02*
X622998D01*
X621498Y1309709D02*
Y1312709D01*
X604998Y1281209D02*
X607998D01*
X606498Y1279709D02*
Y1282709D01*
X589998Y1371209D02*
X592998D01*
X591498Y1369709D02*
Y1372709D01*
X574998Y1341209D02*
X577998D01*
X576498Y1339709D02*
Y1342709D01*
X589998Y1311209D02*
X592998D01*
X591498Y1309709D02*
Y1312709D01*
X574998Y1281209D02*
X577998D01*
X576498Y1279709D02*
Y1282709D01*
X529998Y1371209D02*
X532998D01*
X531498Y1369709D02*
Y1372709D01*
X514998Y1341209D02*
X517998D01*
X516498Y1339709D02*
Y1342709D01*
X529998Y1311209D02*
X532998D01*
X531498Y1309709D02*
Y1312709D01*
X514998Y1281209D02*
X517998D01*
X516498Y1279709D02*
Y1282709D01*
X499998Y1371209D02*
X502998D01*
X501498Y1369709D02*
Y1372709D01*
X484998Y1341209D02*
X487998D01*
X486498Y1339709D02*
Y1342709D01*
X499998Y1311209D02*
X502998D01*
X501498Y1309709D02*
Y1312709D01*
X484998Y1281209D02*
X487998D01*
X486498Y1279709D02*
Y1282709D01*
X469998Y1371209D02*
X472998D01*
X471498Y1369709D02*
Y1372709D01*
X454998Y1341209D02*
X457998D01*
X456498Y1339709D02*
Y1342709D01*
X469998Y1311209D02*
X472998D01*
X471498Y1309709D02*
Y1312709D01*
X454998Y1281209D02*
X457998D01*
X456498Y1279709D02*
Y1282709D01*
X439998Y1371209D02*
X442998D01*
X441498Y1369709D02*
Y1372709D01*
X424998Y1341209D02*
X427998D01*
X426498Y1339709D02*
Y1342709D01*
X439998Y1311209D02*
X442998D01*
X441498Y1309709D02*
Y1312709D01*
X424998Y1281209D02*
X427998D01*
X426498Y1279709D02*
Y1282709D01*
X409998Y1371209D02*
X412998D01*
X411498Y1369709D02*
Y1372709D01*
X394998Y1341209D02*
X397998D01*
X396498Y1339709D02*
Y1342709D01*
X409998Y1311209D02*
X412998D01*
X411498Y1309709D02*
Y1312709D01*
X394998Y1281209D02*
X397998D01*
X396498Y1279709D02*
Y1282709D01*
X379998Y1371209D02*
X382998D01*
X381498Y1369709D02*
Y1372709D01*
X364998Y1341209D02*
X367998D01*
X366498Y1339709D02*
Y1342709D01*
X379998Y1311209D02*
X382998D01*
X381498Y1309709D02*
Y1312709D01*
X364998Y1281209D02*
X367998D01*
X366498Y1279709D02*
Y1282709D01*
X349998Y1371209D02*
X352998D01*
X351498Y1369709D02*
Y1372709D01*
X334998Y1341209D02*
X337998D01*
X336498Y1339709D02*
Y1342709D01*
X349998Y1311209D02*
X352998D01*
X351498Y1309709D02*
Y1312709D01*
X334998Y1281209D02*
X337998D01*
X336498Y1279709D02*
Y1282709D01*
X319998Y1371209D02*
X322998D01*
X321498Y1369709D02*
Y1372709D01*
X304998Y1341209D02*
X307998D01*
X306498Y1339709D02*
Y1342709D01*
X319998Y1311209D02*
X322998D01*
X321498Y1309709D02*
Y1312709D01*
X304998Y1281209D02*
X307998D01*
X306498Y1279709D02*
Y1282709D01*
X289998Y1371209D02*
X292998D01*
X291498Y1369709D02*
Y1372709D01*
X274998Y1341209D02*
X277998D01*
X276498Y1339709D02*
Y1342709D01*
X289998Y1311209D02*
X292998D01*
X291498Y1309709D02*
Y1312709D01*
X274998Y1281209D02*
X277998D01*
X276498Y1279709D02*
Y1282709D01*
X259998Y1371209D02*
X262998D01*
X261498Y1369709D02*
Y1372709D01*
X244998Y1341209D02*
X247998D01*
X246498Y1339709D02*
Y1342709D01*
X259998Y1311209D02*
X262998D01*
X261498Y1309709D02*
Y1312709D01*
X244998Y1281209D02*
X247998D01*
X246498Y1279709D02*
Y1282709D01*
X229998Y1371209D02*
X232998D01*
X231498Y1369709D02*
Y1372709D01*
X214998Y1341209D02*
X217998D01*
X216498Y1339709D02*
Y1342709D01*
X229998Y1311209D02*
X232998D01*
X231498Y1309709D02*
Y1312709D01*
X214998Y1281209D02*
X217998D01*
X216498Y1279709D02*
Y1282709D01*
X199998Y1371209D02*
X202998D01*
X201498Y1369709D02*
Y1372709D01*
X184998Y1341209D02*
X187998D01*
X186498Y1339709D02*
Y1342709D01*
X199998Y1311209D02*
X202998D01*
X201498Y1309709D02*
Y1312709D01*
X184998Y1281209D02*
X187998D01*
X186498Y1279709D02*
Y1282709D01*
X169998Y1371209D02*
X172998D01*
X171498Y1369709D02*
Y1372709D01*
X154998Y1341209D02*
X157998D01*
X156498Y1339709D02*
Y1342709D01*
X169998Y1311209D02*
X172998D01*
X171498Y1309709D02*
Y1312709D01*
X154998Y1281209D02*
X157998D01*
X156498Y1279709D02*
Y1282709D01*
X139998Y1371209D02*
X142998D01*
X141498Y1369709D02*
Y1372709D01*
X124998Y1341209D02*
X127998D01*
X126498Y1339709D02*
Y1342709D01*
X139998Y1311209D02*
X142998D01*
X141498Y1309709D02*
Y1312709D01*
X124998Y1281209D02*
X127998D01*
X126498Y1279709D02*
Y1282709D01*
X109998Y1371209D02*
X112998D01*
X111498Y1369709D02*
Y1372709D01*
X94998Y1341209D02*
X97998D01*
X96498Y1339709D02*
Y1342709D01*
X109998Y1311209D02*
X112998D01*
X111498Y1309709D02*
Y1312709D01*
X94998Y1281209D02*
X97998D01*
X96498Y1279709D02*
Y1282709D01*
X79998Y1371209D02*
X82998D01*
X81498Y1369709D02*
Y1372709D01*
X79998Y1311209D02*
X82998D01*
X81498Y1309709D02*
Y1312709D01*
X1009998Y1221209D02*
X1012998D01*
X1011498Y1219709D02*
Y1222709D01*
X994998Y1191209D02*
X997998D01*
X996498Y1189709D02*
Y1192709D01*
X1009998Y1161209D02*
X1012998D01*
X1011498Y1159709D02*
Y1162709D01*
X994998Y1131209D02*
X997998D01*
X996498Y1129709D02*
Y1132709D01*
X979998Y1221209D02*
X982998D01*
X981498Y1219709D02*
Y1222709D01*
X964998Y1191209D02*
X967998D01*
X966498Y1189709D02*
Y1192709D01*
X979998Y1161209D02*
X982998D01*
X981498Y1159709D02*
Y1162709D01*
X964998Y1131209D02*
X967998D01*
X966498Y1129709D02*
Y1132709D01*
X949998Y1221209D02*
X952998D01*
X951498Y1219709D02*
Y1222709D01*
X934998Y1191209D02*
X937998D01*
X936498Y1189709D02*
Y1192709D01*
X949998Y1161209D02*
X952998D01*
X951498Y1159709D02*
Y1162709D01*
X934998Y1131209D02*
X937998D01*
X936498Y1129709D02*
Y1132709D01*
X919998Y1221209D02*
X922998D01*
X921498Y1219709D02*
Y1222709D01*
X904998Y1191209D02*
X907998D01*
X906498Y1189709D02*
Y1192709D01*
X919998Y1161209D02*
X922998D01*
X921498Y1159709D02*
Y1162709D01*
X904998Y1131209D02*
X907998D01*
X906498Y1129709D02*
Y1132709D01*
X889998Y1221209D02*
X892998D01*
X891498Y1219709D02*
Y1222709D01*
X874998Y1191209D02*
X877998D01*
X876498Y1189709D02*
Y1192709D01*
X889998Y1161209D02*
X892998D01*
X891498Y1159709D02*
Y1162709D01*
X874998Y1131209D02*
X877998D01*
X876498Y1129709D02*
Y1132709D01*
X859998Y1221209D02*
X862998D01*
X861498Y1219709D02*
Y1222709D01*
X844998Y1191209D02*
X847998D01*
X846498Y1189709D02*
Y1192709D01*
X859998Y1161209D02*
X862998D01*
X861498Y1159709D02*
Y1162709D01*
X844998Y1131209D02*
X847998D01*
X846498Y1129709D02*
Y1132709D01*
X829998Y1221209D02*
X832998D01*
X831498Y1219709D02*
Y1222709D01*
X829998Y1161209D02*
X832998D01*
X831498Y1159709D02*
Y1162709D01*
X814998Y1131209D02*
X817998D01*
X816498Y1129709D02*
Y1132709D01*
X799998Y1221209D02*
X802998D01*
X801498Y1219709D02*
Y1222709D01*
X784998Y1191209D02*
X787998D01*
X786498Y1189709D02*
Y1192709D01*
X784998Y1131209D02*
X787998D01*
X786498Y1129709D02*
Y1132709D01*
X769998Y1221209D02*
X772998D01*
X771498Y1219709D02*
Y1222709D01*
X754998Y1191209D02*
X757998D01*
X756498Y1189709D02*
Y1192709D01*
X769998Y1161209D02*
X772998D01*
X771498Y1159709D02*
Y1162709D01*
X754998Y1131209D02*
X757998D01*
X756498Y1129709D02*
Y1132709D01*
X739998Y1221209D02*
X742998D01*
X741498Y1219709D02*
Y1222709D01*
X724998Y1191209D02*
X727998D01*
X726498Y1189709D02*
Y1192709D01*
X739998Y1161209D02*
X742998D01*
X741498Y1159709D02*
Y1162709D01*
X724998Y1131209D02*
X727998D01*
X726498Y1129709D02*
Y1132709D01*
X709998Y1221209D02*
X712998D01*
X711498Y1219709D02*
Y1222709D01*
X694998Y1191209D02*
X697998D01*
X696498Y1189709D02*
Y1192709D01*
X709998Y1161209D02*
X712998D01*
X711498Y1159709D02*
Y1162709D01*
X694998Y1131209D02*
X697998D01*
X696498Y1129709D02*
Y1132709D01*
X679998Y1221209D02*
X682998D01*
X681498Y1219709D02*
Y1222709D01*
X664998Y1191209D02*
X667998D01*
X666498Y1189709D02*
Y1192709D01*
X679998Y1161209D02*
X682998D01*
X681498Y1159709D02*
Y1162709D01*
X664998Y1131209D02*
X667998D01*
X666498Y1129709D02*
Y1132709D01*
X649998Y1221209D02*
X652998D01*
X651498Y1219709D02*
Y1222709D01*
X634998Y1191209D02*
X637998D01*
X636498Y1189709D02*
Y1192709D01*
X649998Y1161209D02*
X652998D01*
X651498Y1159709D02*
Y1162709D01*
X634998Y1131209D02*
X637998D01*
X636498Y1129709D02*
Y1132709D01*
X619998Y1221209D02*
X622998D01*
X621498Y1219709D02*
Y1222709D01*
X604998Y1191209D02*
X607998D01*
X606498Y1189709D02*
Y1192709D01*
X619998Y1161209D02*
X622998D01*
X621498Y1159709D02*
Y1162709D01*
X604998Y1131209D02*
X607998D01*
X606498Y1129709D02*
Y1132709D01*
X589998Y1221209D02*
X592998D01*
X591498Y1219709D02*
Y1222709D01*
X574998Y1191209D02*
X577998D01*
X576498Y1189709D02*
Y1192709D01*
X589998Y1161209D02*
X592998D01*
X591498Y1159709D02*
Y1162709D01*
X574998Y1131209D02*
X577998D01*
X576498Y1129709D02*
Y1132709D01*
X559998Y1221209D02*
X562998D01*
X561498Y1219709D02*
Y1222709D01*
X544998Y1191209D02*
X547998D01*
X546498Y1189709D02*
Y1192709D01*
X559998Y1161209D02*
X562998D01*
X561498Y1159709D02*
Y1162709D01*
X544998Y1131209D02*
X547998D01*
X546498Y1129709D02*
Y1132709D01*
X529998Y1221209D02*
X532998D01*
X531498Y1219709D02*
Y1222709D01*
X514998Y1191209D02*
X517998D01*
X516498Y1189709D02*
Y1192709D01*
X529998Y1161209D02*
X532998D01*
X531498Y1159709D02*
Y1162709D01*
X514998Y1131209D02*
X517998D01*
X516498Y1129709D02*
Y1132709D01*
X499998Y1221209D02*
X502998D01*
X501498Y1219709D02*
Y1222709D01*
X484998Y1191209D02*
X487998D01*
X486498Y1189709D02*
Y1192709D01*
X499998Y1161209D02*
X502998D01*
X501498Y1159709D02*
Y1162709D01*
X484998Y1131209D02*
X487998D01*
X486498Y1129709D02*
Y1132709D01*
X469998Y1221209D02*
X472998D01*
X471498Y1219709D02*
Y1222709D01*
X454998Y1191209D02*
X457998D01*
X456498Y1189709D02*
Y1192709D01*
X469998Y1161209D02*
X472998D01*
X471498Y1159709D02*
Y1162709D01*
X454998Y1131209D02*
X457998D01*
X456498Y1129709D02*
Y1132709D01*
X439998Y1221209D02*
X442998D01*
X441498Y1219709D02*
Y1222709D01*
X424998Y1191209D02*
X427998D01*
X426498Y1189709D02*
Y1192709D01*
X439998Y1161209D02*
X442998D01*
X441498Y1159709D02*
Y1162709D01*
X424998Y1131209D02*
X427998D01*
X426498Y1129709D02*
Y1132709D01*
X409998Y1221209D02*
X412998D01*
X411498Y1219709D02*
Y1222709D01*
X394998Y1191209D02*
X397998D01*
X396498Y1189709D02*
Y1192709D01*
X409998Y1161209D02*
X412998D01*
X411498Y1159709D02*
Y1162709D01*
X394998Y1131209D02*
X397998D01*
X396498Y1129709D02*
Y1132709D01*
X379998Y1221209D02*
X382998D01*
X381498Y1219709D02*
Y1222709D01*
X364998Y1191209D02*
X367998D01*
X366498Y1189709D02*
Y1192709D01*
X379998Y1161209D02*
X382998D01*
X381498Y1159709D02*
Y1162709D01*
X364998Y1131209D02*
X367998D01*
X366498Y1129709D02*
Y1132709D01*
X349998Y1221209D02*
X352998D01*
X351498Y1219709D02*
Y1222709D01*
X334998Y1191209D02*
X337998D01*
X336498Y1189709D02*
Y1192709D01*
X349998Y1161209D02*
X352998D01*
X351498Y1159709D02*
Y1162709D01*
X334998Y1131209D02*
X337998D01*
X336498Y1129709D02*
Y1132709D01*
X319998Y1221209D02*
X322998D01*
X321498Y1219709D02*
Y1222709D01*
X319998Y1161209D02*
X322998D01*
X321498Y1159709D02*
Y1162709D01*
X304998Y1131209D02*
X307998D01*
X306498Y1129709D02*
Y1132709D01*
X289998Y1221209D02*
X292998D01*
X291498Y1219709D02*
Y1222709D01*
X274998Y1191209D02*
X277998D01*
X276498Y1189709D02*
Y1192709D01*
X274998Y1131209D02*
X277998D01*
X276498Y1129709D02*
Y1132709D01*
X259998Y1221209D02*
X262998D01*
X261498Y1219709D02*
Y1222709D01*
X244998Y1191209D02*
X247998D01*
X246498Y1189709D02*
Y1192709D01*
X259998Y1161209D02*
X262998D01*
X261498Y1159709D02*
Y1162709D01*
X244998Y1131209D02*
X247998D01*
X246498Y1129709D02*
Y1132709D01*
X229998Y1221209D02*
X232998D01*
X231498Y1219709D02*
Y1222709D01*
X214998Y1191209D02*
X217998D01*
X216498Y1189709D02*
Y1192709D01*
X229998Y1161209D02*
X232998D01*
X231498Y1159709D02*
Y1162709D01*
X214998Y1131209D02*
X217998D01*
X216498Y1129709D02*
Y1132709D01*
X199998Y1221209D02*
X202998D01*
X201498Y1219709D02*
Y1222709D01*
X184998Y1191209D02*
X187998D01*
X186498Y1189709D02*
Y1192709D01*
X199998Y1161209D02*
X202998D01*
X201498Y1159709D02*
Y1162709D01*
X184998Y1131209D02*
X187998D01*
X186498Y1129709D02*
Y1132709D01*
X169998Y1221209D02*
X172998D01*
X171498Y1219709D02*
Y1222709D01*
X154998Y1191209D02*
X157998D01*
X156498Y1189709D02*
Y1192709D01*
X169998Y1161209D02*
X172998D01*
X171498Y1159709D02*
Y1162709D01*
X154998Y1131209D02*
X157998D01*
X156498Y1129709D02*
Y1132709D01*
X139998Y1221209D02*
X142998D01*
X141498Y1219709D02*
Y1222709D01*
X124998Y1191209D02*
X127998D01*
X126498Y1189709D02*
Y1192709D01*
X139998Y1161209D02*
X142998D01*
X141498Y1159709D02*
Y1162709D01*
X124998Y1131209D02*
X127998D01*
X126498Y1129709D02*
Y1132709D01*
X109998Y1221209D02*
X112998D01*
X111498Y1219709D02*
Y1222709D01*
X94998Y1191209D02*
X97998D01*
X96498Y1189709D02*
Y1192709D01*
X109998Y1161209D02*
X112998D01*
X111498Y1159709D02*
Y1162709D01*
X94998Y1131209D02*
X97998D01*
X96498Y1129709D02*
Y1132709D01*
X79998Y1221209D02*
X82998D01*
X81498Y1219709D02*
Y1222709D01*
X79998Y1161209D02*
X82998D01*
X81498Y1159709D02*
Y1162709D01*
X1009998Y1071209D02*
X1012998D01*
X1011498Y1069709D02*
Y1072709D01*
X994998Y1041209D02*
X997998D01*
X996498Y1039709D02*
Y1042709D01*
X1009998Y1011209D02*
X1012998D01*
X1011498Y1009709D02*
Y1012709D01*
X994998Y981209D02*
X997998D01*
X996498Y979709D02*
Y982709D01*
X979998Y1071209D02*
X982998D01*
X981498Y1069709D02*
Y1072709D01*
X964998Y1041209D02*
X967998D01*
X966498Y1039709D02*
Y1042709D01*
X979998Y1011209D02*
X982998D01*
X981498Y1009709D02*
Y1012709D01*
X964998Y981209D02*
X967998D01*
X966498Y979709D02*
Y982709D01*
X949998Y1071209D02*
X952998D01*
X951498Y1069709D02*
Y1072709D01*
X934998Y1041209D02*
X937998D01*
X936498Y1039709D02*
Y1042709D01*
X949998Y1011209D02*
X952998D01*
X951498Y1009709D02*
Y1012709D01*
X934998Y981209D02*
X937998D01*
X936498Y979709D02*
Y982709D01*
X919998Y1071209D02*
X922998D01*
X921498Y1069709D02*
Y1072709D01*
X904998Y1041209D02*
X907998D01*
X906498Y1039709D02*
Y1042709D01*
X919998Y1011209D02*
X922998D01*
X921498Y1009709D02*
Y1012709D01*
X904998Y981209D02*
X907998D01*
X906498Y979709D02*
Y982709D01*
X889998Y1071209D02*
X892998D01*
X891498Y1069709D02*
Y1072709D01*
X874998Y1041209D02*
X877998D01*
X876498Y1039709D02*
Y1042709D01*
X889998Y1011209D02*
X892998D01*
X891498Y1009709D02*
Y1012709D01*
X874998Y981209D02*
X877998D01*
X876498Y979709D02*
Y982709D01*
X859998Y1071209D02*
X862998D01*
X861498Y1069709D02*
Y1072709D01*
X844998Y1041209D02*
X847998D01*
X846498Y1039709D02*
Y1042709D01*
X859998Y1011209D02*
X862998D01*
X861498Y1009709D02*
Y1012709D01*
X844998Y981209D02*
X847998D01*
X846498Y979709D02*
Y982709D01*
X829998Y1071209D02*
X832998D01*
X831498Y1069709D02*
Y1072709D01*
X814998Y1041209D02*
X817998D01*
X816498Y1039709D02*
Y1042709D01*
X829998Y1011209D02*
X832998D01*
X831498Y1009709D02*
Y1012709D01*
X814998Y981209D02*
X817998D01*
X816498Y979709D02*
Y982709D01*
X799998Y1071209D02*
X802998D01*
X801498Y1069709D02*
Y1072709D01*
X784998Y1041209D02*
X787998D01*
X786498Y1039709D02*
Y1042709D01*
X799998Y1011209D02*
X802998D01*
X801498Y1009709D02*
Y1012709D01*
X784998Y981209D02*
X787998D01*
X786498Y979709D02*
Y982709D01*
X769998Y1071209D02*
X772998D01*
X771498Y1069709D02*
Y1072709D01*
X754998Y1041209D02*
X757998D01*
X756498Y1039709D02*
Y1042709D01*
X769998Y1011209D02*
X772998D01*
X771498Y1009709D02*
Y1012709D01*
X754998Y981209D02*
X757998D01*
X756498Y979709D02*
Y982709D01*
X739998Y1071209D02*
X742998D01*
X741498Y1069709D02*
Y1072709D01*
X724998Y1041209D02*
X727998D01*
X726498Y1039709D02*
Y1042709D01*
X739998Y1011209D02*
X742998D01*
X741498Y1009709D02*
Y1012709D01*
X724998Y981209D02*
X727998D01*
X726498Y979709D02*
Y982709D01*
X709998Y1071209D02*
X712998D01*
X711498Y1069709D02*
Y1072709D01*
X694998Y1041209D02*
X697998D01*
X696498Y1039709D02*
Y1042709D01*
X709998Y1011209D02*
X712998D01*
X711498Y1009709D02*
Y1012709D01*
X694998Y981209D02*
X697998D01*
X696498Y979709D02*
Y982709D01*
X679998Y1071209D02*
X682998D01*
X681498Y1069709D02*
Y1072709D01*
X664998Y1041209D02*
X667998D01*
X666498Y1039709D02*
Y1042709D01*
X679998Y1011209D02*
X682998D01*
X681498Y1009709D02*
Y1012709D01*
X664998Y981209D02*
X667998D01*
X666498Y979709D02*
Y982709D01*
X649998Y1071209D02*
X652998D01*
X651498Y1069709D02*
Y1072709D01*
X634998Y1041209D02*
X637998D01*
X636498Y1039709D02*
Y1042709D01*
X649998Y1011209D02*
X652998D01*
X651498Y1009709D02*
Y1012709D01*
X634998Y981209D02*
X637998D01*
X636498Y979709D02*
Y982709D01*
X619998Y1071209D02*
X622998D01*
X621498Y1069709D02*
Y1072709D01*
X604998Y1041209D02*
X607998D01*
X606498Y1039709D02*
Y1042709D01*
X619998Y1011209D02*
X622998D01*
X621498Y1009709D02*
Y1012709D01*
X604998Y981209D02*
X607998D01*
X606498Y979709D02*
Y982709D01*
X589998Y1071209D02*
X592998D01*
X591498Y1069709D02*
Y1072709D01*
X574998Y1041209D02*
X577998D01*
X576498Y1039709D02*
Y1042709D01*
X589998Y1011209D02*
X592998D01*
X591498Y1009709D02*
Y1012709D01*
X574998Y981209D02*
X577998D01*
X576498Y979709D02*
Y982709D01*
X559998Y1071209D02*
X562998D01*
X561498Y1069709D02*
Y1072709D01*
X544998Y1041209D02*
X547998D01*
X546498Y1039709D02*
Y1042709D01*
X559998Y1011209D02*
X562998D01*
X561498Y1009709D02*
Y1012709D01*
X544998Y981209D02*
X547998D01*
X546498Y979709D02*
Y982709D01*
X529998Y1071209D02*
X532998D01*
X531498Y1069709D02*
Y1072709D01*
X514998Y1041209D02*
X517998D01*
X516498Y1039709D02*
Y1042709D01*
X529998Y1011209D02*
X532998D01*
X531498Y1009709D02*
Y1012709D01*
X514998Y981209D02*
X517998D01*
X516498Y979709D02*
Y982709D01*
X499998Y1071209D02*
X502998D01*
X501498Y1069709D02*
Y1072709D01*
X484998Y1041209D02*
X487998D01*
X486498Y1039709D02*
Y1042709D01*
X499998Y1011209D02*
X502998D01*
X501498Y1009709D02*
Y1012709D01*
X484998Y981209D02*
X487998D01*
X486498Y979709D02*
Y982709D01*
X469998Y1071209D02*
X472998D01*
X471498Y1069709D02*
Y1072709D01*
X454998Y1041209D02*
X457998D01*
X456498Y1039709D02*
Y1042709D01*
X469998Y1011209D02*
X472998D01*
X471498Y1009709D02*
Y1012709D01*
X454998Y981209D02*
X457998D01*
X456498Y979709D02*
Y982709D01*
X439998Y1071209D02*
X442998D01*
X441498Y1069709D02*
Y1072709D01*
X424998Y1041209D02*
X427998D01*
X426498Y1039709D02*
Y1042709D01*
X439998Y1011209D02*
X442998D01*
X441498Y1009709D02*
Y1012709D01*
X424998Y981209D02*
X427998D01*
X426498Y979709D02*
Y982709D01*
X409998Y1071209D02*
X412998D01*
X411498Y1069709D02*
Y1072709D01*
X394998Y1041209D02*
X397998D01*
X396498Y1039709D02*
Y1042709D01*
X409998Y1011209D02*
X412998D01*
X411498Y1009709D02*
Y1012709D01*
X394998Y981209D02*
X397998D01*
X396498Y979709D02*
Y982709D01*
X379998Y1071209D02*
X382998D01*
X381498Y1069709D02*
Y1072709D01*
X364998Y1041209D02*
X367998D01*
X366498Y1039709D02*
Y1042709D01*
X379998Y1011209D02*
X382998D01*
X381498Y1009709D02*
Y1012709D01*
X364998Y981209D02*
X367998D01*
X366498Y979709D02*
Y982709D01*
X349998Y1071209D02*
X352998D01*
X351498Y1069709D02*
Y1072709D01*
X334998Y1041209D02*
X337998D01*
X336498Y1039709D02*
Y1042709D01*
X349998Y1011209D02*
X352998D01*
X351498Y1009709D02*
Y1012709D01*
X334998Y981209D02*
X337998D01*
X336498Y979709D02*
Y982709D01*
X319998Y1071209D02*
X322998D01*
X321498Y1069709D02*
Y1072709D01*
X304998Y1041209D02*
X307998D01*
X306498Y1039709D02*
Y1042709D01*
X319998Y1011209D02*
X322998D01*
X321498Y1009709D02*
Y1012709D01*
X304998Y981209D02*
X307998D01*
X306498Y979709D02*
Y982709D01*
X289998Y1071209D02*
X292998D01*
X291498Y1069709D02*
Y1072709D01*
X274998Y1041209D02*
X277998D01*
X276498Y1039709D02*
Y1042709D01*
X289998Y1011209D02*
X292998D01*
X291498Y1009709D02*
Y1012709D01*
X274998Y981209D02*
X277998D01*
X276498Y979709D02*
Y982709D01*
X259998Y1071209D02*
X262998D01*
X261498Y1069709D02*
Y1072709D01*
X244998Y1041209D02*
X247998D01*
X246498Y1039709D02*
Y1042709D01*
X259998Y1011209D02*
X262998D01*
X261498Y1009709D02*
Y1012709D01*
X244998Y981209D02*
X247998D01*
X246498Y979709D02*
Y982709D01*
X229998Y1071209D02*
X232998D01*
X231498Y1069709D02*
Y1072709D01*
X214998Y1041209D02*
X217998D01*
X216498Y1039709D02*
Y1042709D01*
X229998Y1011209D02*
X232998D01*
X231498Y1009709D02*
Y1012709D01*
X214998Y981209D02*
X217998D01*
X216498Y979709D02*
Y982709D01*
X199998Y1071209D02*
X202998D01*
X201498Y1069709D02*
Y1072709D01*
X184998Y1041209D02*
X187998D01*
X186498Y1039709D02*
Y1042709D01*
X199998Y1011209D02*
X202998D01*
X201498Y1009709D02*
Y1012709D01*
X184998Y981209D02*
X187998D01*
X186498Y979709D02*
Y982709D01*
X169998Y1071209D02*
X172998D01*
X171498Y1069709D02*
Y1072709D01*
X154998Y1041209D02*
X157998D01*
X156498Y1039709D02*
Y1042709D01*
X169998Y1011209D02*
X172998D01*
X171498Y1009709D02*
Y1012709D01*
X154998Y981209D02*
X157998D01*
X156498Y979709D02*
Y982709D01*
X139998Y1071209D02*
X142998D01*
X141498Y1069709D02*
Y1072709D01*
X124998Y1041209D02*
X127998D01*
X126498Y1039709D02*
Y1042709D01*
X139998Y1011209D02*
X142998D01*
X141498Y1009709D02*
Y1012709D01*
X124998Y981209D02*
X127998D01*
X126498Y979709D02*
Y982709D01*
X109998Y1071209D02*
X112998D01*
X111498Y1069709D02*
Y1072709D01*
X94998Y1041209D02*
X97998D01*
X96498Y1039709D02*
Y1042709D01*
X109998Y1011209D02*
X112998D01*
X111498Y1009709D02*
Y1012709D01*
X94998Y981209D02*
X97998D01*
X96498Y979709D02*
Y982709D01*
X79998Y1071209D02*
X82998D01*
X81498Y1069709D02*
Y1072709D01*
X79998Y1011209D02*
X82998D01*
X81498Y1009709D02*
Y1012709D01*
X293500Y1164000D02*
X296500D01*
X295000Y1162500D02*
Y1165500D01*
X293500Y1186000D02*
X296500D01*
X295000Y1184500D02*
Y1187500D01*
X802500Y1164000D02*
X805500D01*
X804000Y1162500D02*
Y1165500D01*
X802500Y1186000D02*
X805500D01*
X804000Y1184500D02*
Y1187500D01*
X298500Y1175000D02*
X301500D01*
X300000Y1173500D02*
Y1176500D01*
X798500Y1175000D02*
X801500D01*
X800000Y1173500D02*
Y1176500D01*
X798500Y1025000D02*
X801500D01*
X800000Y1023500D02*
Y1026500D01*
X298500Y1025000D02*
X301500D01*
X300000Y1023500D02*
Y1026500D01*
X1027676Y865049D02*
X1030676D01*
X1029176Y863549D02*
Y866549D01*
X1017676Y865049D02*
X1020676D01*
X1019176Y863549D02*
Y866549D01*
X1007676Y865049D02*
X1010676D01*
X1009176Y863549D02*
Y866549D01*
X997676Y865049D02*
X1000676D01*
X999176Y863549D02*
Y866549D01*
X987676Y865049D02*
X990676D01*
X989176Y863549D02*
Y866549D01*
X977799Y866611D02*
X980799D01*
X979299Y865111D02*
Y868111D01*
X976540Y833387D02*
X979540D01*
X978040Y831887D02*
Y834887D01*
X1005363Y832261D02*
X1008363D01*
X1006863Y830761D02*
Y833761D01*
X1014994Y834950D02*
X1017994D01*
X1016494Y833450D02*
Y836450D01*
X1024994Y834950D02*
X1027994D01*
X1026494Y833450D02*
Y836450D01*
X1034994Y834950D02*
X1037994D01*
X1036494Y833450D02*
Y836450D01*
X962913Y866611D02*
X965913D01*
X964413Y865111D02*
Y868111D01*
X952947Y865780D02*
X955947D01*
X954447Y864280D02*
Y867280D01*
X942974Y865049D02*
X945974D01*
X944474Y863549D02*
Y866549D01*
X933038Y866176D02*
X936038D01*
X934538Y864676D02*
Y867676D01*
X931388Y832452D02*
X934388D01*
X932888Y830953D02*
Y833952D01*
X960105Y833387D02*
X963104D01*
X961605Y831887D02*
Y834887D01*
X62273Y834951D02*
X65273D01*
X63773Y833451D02*
Y836451D01*
X72273Y834951D02*
X75273D01*
X73773Y833451D02*
Y836451D01*
X82273Y834951D02*
X85273D01*
X83773Y833451D02*
Y836451D01*
X92273Y834951D02*
X95273D01*
X93773Y833451D02*
Y836451D01*
X102273Y834951D02*
X105273D01*
X103773Y833451D02*
Y836451D01*
X112273Y834951D02*
X115273D01*
X113773Y833451D02*
Y836451D01*
X122273Y834951D02*
X125273D01*
X123773Y833451D02*
Y836451D01*
X132273Y834951D02*
X135273D01*
X133773Y833451D02*
Y836451D01*
X142273Y834951D02*
X145273D01*
X143773Y833451D02*
Y836451D01*
X152273Y834951D02*
X155273D01*
X153773Y833451D02*
Y836451D01*
X162273Y834951D02*
X165273D01*
X163773Y833451D02*
Y836451D01*
X172273Y834951D02*
X175273D01*
X173773Y833451D02*
Y836451D01*
X182273Y834951D02*
X185273D01*
X183773Y833451D02*
Y836451D01*
X192273Y834951D02*
X195273D01*
X193773Y833451D02*
Y836451D01*
X202272Y834951D02*
X205273D01*
X203773Y833451D02*
Y836451D01*
X212272Y834951D02*
X215273D01*
X213773Y833451D02*
Y836451D01*
X222272Y834951D02*
X225273D01*
X223773Y833451D02*
Y836451D01*
X232272Y834951D02*
X235273D01*
X233773Y833451D02*
Y836451D01*
X242272Y834951D02*
X245273D01*
X243773Y833451D02*
Y836451D01*
X252272Y834951D02*
X255272D01*
X253772Y833451D02*
Y836451D01*
X262272Y834951D02*
X265272D01*
X263772Y833451D02*
Y836451D01*
X272272Y834951D02*
X275272D01*
X273772Y833451D02*
Y836451D01*
X282272Y834951D02*
X285272D01*
X283772Y833451D02*
Y836451D01*
X292272Y834951D02*
X295272D01*
X293772Y833451D02*
Y836451D01*
X302272Y834951D02*
X305272D01*
X303772Y833451D02*
Y836451D01*
X312272Y834951D02*
X315272D01*
X313772Y833451D02*
Y836451D01*
X322272Y834951D02*
X325272D01*
X323772Y833451D02*
Y836451D01*
X332272Y834951D02*
X335272D01*
X333772Y833451D02*
Y836451D01*
X342272Y834951D02*
X345272D01*
X343772Y833451D02*
Y836451D01*
X352272Y834951D02*
X355272D01*
X353772Y833451D02*
Y836451D01*
X362272Y834951D02*
X365272D01*
X363772Y833451D02*
Y836451D01*
X372272Y834951D02*
X375272D01*
X373772Y833451D02*
Y836451D01*
X382272Y834951D02*
X385272D01*
X383772Y833451D02*
Y836451D01*
X392272Y834951D02*
X395272D01*
X393772Y833451D02*
Y836451D01*
X402272Y834951D02*
X405272D01*
X403772Y833451D02*
Y836451D01*
X412272Y834951D02*
X415272D01*
X413772Y833451D02*
Y836451D01*
X422272Y834951D02*
X425272D01*
X423772Y833451D02*
Y836451D01*
X432272Y834951D02*
X435272D01*
X433772Y833451D02*
Y836451D01*
X442272Y834951D02*
X445272D01*
X443772Y833451D02*
Y836451D01*
X452272Y834951D02*
X455272D01*
X453772Y833451D02*
Y836451D01*
X462272Y834951D02*
X465272D01*
X463772Y833451D02*
Y836451D01*
X472272Y834951D02*
X475272D01*
X473772Y833451D02*
Y836451D01*
X482272Y834951D02*
X485272D01*
X483772Y833451D02*
Y836451D01*
X492272Y834951D02*
X495272D01*
X493772Y833451D02*
Y836451D01*
X502272Y834951D02*
X505272D01*
X503772Y833451D02*
Y836451D01*
X512272Y834951D02*
X515272D01*
X513772Y833451D02*
Y836451D01*
X522272Y834951D02*
X525272D01*
X523772Y833451D02*
Y836451D01*
X532272Y834951D02*
X535272D01*
X533772Y833451D02*
Y836451D01*
X542272Y834951D02*
X545272D01*
X543772Y833451D02*
Y836451D01*
X552272Y834951D02*
X555272D01*
X553772Y833451D02*
Y836451D01*
X562272Y834951D02*
X565272D01*
X563772Y833451D02*
Y836451D01*
X572272Y834951D02*
X575272D01*
X573772Y833451D02*
Y836451D01*
X582272Y834951D02*
X585272D01*
X583772Y833451D02*
Y836451D01*
X592272Y834951D02*
X595272D01*
X593772Y833451D02*
Y836451D01*
X602272Y834951D02*
X605272D01*
X603772Y833451D02*
Y836451D01*
X612272Y834951D02*
X615272D01*
X613772Y833451D02*
Y836451D01*
X622272Y834951D02*
X625272D01*
X623772Y833451D02*
Y836451D01*
X632272Y834951D02*
X635272D01*
X633772Y833451D02*
Y836451D01*
X642272Y834951D02*
X645272D01*
X643772Y833451D02*
Y836451D01*
X652272Y834951D02*
X655272D01*
X653772Y833451D02*
Y836451D01*
X662272Y834951D02*
X665272D01*
X663772Y833451D02*
Y836451D01*
X672272Y834951D02*
X675272D01*
X673772Y833451D02*
Y836451D01*
X682272Y834951D02*
X685272D01*
X683772Y833451D02*
Y836451D01*
X692272Y834951D02*
X695272D01*
X693772Y833451D02*
Y836451D01*
X702271Y834951D02*
X705272D01*
X703772Y833451D02*
Y836451D01*
X712271Y834951D02*
X715272D01*
X713772Y833451D02*
Y836451D01*
X722271Y834951D02*
X725272D01*
X723772Y833451D02*
Y836451D01*
X732271Y834951D02*
X735272D01*
X733772Y833451D02*
Y836451D01*
X742271Y834951D02*
X745272D01*
X743772Y833451D02*
Y836451D01*
X752271Y834951D02*
X755271D01*
X753771Y833451D02*
Y836451D01*
X762271Y834951D02*
X765271D01*
X763771Y833451D02*
Y836451D01*
X772271Y834951D02*
X775271D01*
X773771Y833451D02*
Y836451D01*
X782271Y834951D02*
X785271D01*
X783771Y833451D02*
Y836451D01*
X792271Y834951D02*
X795271D01*
X793771Y833451D02*
Y836451D01*
X802271Y834951D02*
X805271D01*
X803771Y833451D02*
Y836451D01*
X812271Y834951D02*
X815271D01*
X813771Y833451D02*
Y836451D01*
X822271Y834951D02*
X825271D01*
X823771Y833451D02*
Y836451D01*
X832271Y834951D02*
X835271D01*
X833771Y833451D02*
Y836451D01*
X842271Y834951D02*
X845271D01*
X843771Y833451D02*
Y836451D01*
X852271Y834951D02*
X855271D01*
X853771Y833451D02*
Y836451D01*
X862271Y834951D02*
X865271D01*
X863771Y833451D02*
Y836451D01*
X872271Y834951D02*
X875271D01*
X873771Y833451D02*
Y836451D01*
X882271Y834951D02*
X885271D01*
X883771Y833451D02*
Y836451D01*
X892271Y834951D02*
X895271D01*
X893771Y833451D02*
Y836451D01*
X902261Y834502D02*
X905261D01*
X903761Y833002D02*
Y836002D01*
X912199Y833387D02*
X915199D01*
X913699Y831887D02*
Y834887D01*
X922093Y834840D02*
X925092D01*
X923593Y833340D02*
Y836340D01*
X917360Y866468D02*
X920360D01*
X918860Y864968D02*
Y867968D01*
X907361Y866611D02*
X910361D01*
X908861Y865111D02*
Y868111D01*
X897484Y865049D02*
X900484D01*
X898984Y863549D02*
Y866549D01*
X887484Y865049D02*
X890484D01*
X888984Y863549D02*
Y866549D01*
X877484Y865049D02*
X880484D01*
X878984Y863549D02*
Y866549D01*
X867484Y865049D02*
X870484D01*
X868984Y863549D02*
Y866549D01*
X857484Y865049D02*
X860484D01*
X858984Y863549D02*
Y866549D01*
X847484Y865049D02*
X850484D01*
X848984Y863549D02*
Y866549D01*
X837484Y865049D02*
X840484D01*
X838984Y863549D02*
Y866549D01*
X827484Y865049D02*
X830484D01*
X828984Y863549D02*
Y866549D01*
X817484Y865049D02*
X820484D01*
X818984Y863549D02*
Y866549D01*
X807484Y865049D02*
X810484D01*
X808984Y863549D02*
Y866549D01*
X797484Y865049D02*
X800484D01*
X798984Y863549D02*
Y866549D01*
X787484Y865049D02*
X790484D01*
X788984Y863549D02*
Y866549D01*
X777484Y865049D02*
X780484D01*
X778984Y863549D02*
Y866549D01*
X767484Y865049D02*
X770484D01*
X768984Y863549D02*
Y866549D01*
X757485Y865049D02*
X760484D01*
X758985Y863549D02*
Y866549D01*
X747485Y865049D02*
X750484D01*
X748985Y863549D02*
Y866549D01*
X737485Y865049D02*
X740484D01*
X738985Y863549D02*
Y866549D01*
X727485Y865049D02*
X730484D01*
X728985Y863549D02*
Y866549D01*
X717485Y865049D02*
X720484D01*
X718985Y863549D02*
Y866549D01*
X707485Y865049D02*
X710485D01*
X708985Y863549D02*
Y866549D01*
X697485Y865049D02*
X700485D01*
X698985Y863549D02*
Y866549D01*
X687485Y865049D02*
X690485D01*
X688985Y863549D02*
Y866549D01*
X677485Y865049D02*
X680485D01*
X678985Y863549D02*
Y866549D01*
X667485Y865049D02*
X670485D01*
X668985Y863549D02*
Y866549D01*
X657485Y865049D02*
X660485D01*
X658985Y863549D02*
Y866549D01*
X647485Y865049D02*
X650485D01*
X648985Y863549D02*
Y866549D01*
X637485Y865049D02*
X640485D01*
X638985Y863549D02*
Y866549D01*
X627485Y865049D02*
X630485D01*
X628985Y863549D02*
Y866549D01*
X617485Y865049D02*
X620485D01*
X618985Y863549D02*
Y866549D01*
X607485Y865049D02*
X610485D01*
X608985Y863549D02*
Y866549D01*
X597485Y865049D02*
X600485D01*
X598985Y863549D02*
Y866549D01*
X587485Y865049D02*
X590485D01*
X588985Y863549D02*
Y866549D01*
X577485Y865049D02*
X580485D01*
X578985Y863549D02*
Y866549D01*
X567485Y865049D02*
X570485D01*
X568985Y863549D02*
Y866549D01*
X557485Y865049D02*
X560485D01*
X558985Y863549D02*
Y866549D01*
X547485Y865049D02*
X550485D01*
X548985Y863549D02*
Y866549D01*
X537485Y865049D02*
X540485D01*
X538985Y863549D02*
Y866549D01*
X527485Y865049D02*
X530485D01*
X528985Y863549D02*
Y866549D01*
X517485Y865049D02*
X520485D01*
X518985Y863549D02*
Y866549D01*
X507485Y865049D02*
X510485D01*
X508985Y863549D02*
Y866549D01*
X497485Y865049D02*
X500485D01*
X498985Y863549D02*
Y866549D01*
X487485Y865049D02*
X490485D01*
X488985Y863549D02*
Y866549D01*
X477485Y865049D02*
X480485D01*
X478985Y863549D02*
Y866549D01*
X467485Y865049D02*
X470485D01*
X468985Y863549D02*
Y866549D01*
X457485Y865049D02*
X460485D01*
X458985Y863549D02*
Y866549D01*
X447485Y865049D02*
X450485D01*
X448985Y863549D02*
Y866549D01*
X437485Y865049D02*
X440485D01*
X438985Y863549D02*
Y866549D01*
X427485Y865049D02*
X430485D01*
X428985Y863549D02*
Y866549D01*
X417485Y865049D02*
X420485D01*
X418985Y863549D02*
Y866549D01*
X407485Y865049D02*
X410485D01*
X408985Y863549D02*
Y866549D01*
X397485Y865049D02*
X400485D01*
X398985Y863549D02*
Y866549D01*
X387485Y865049D02*
X390485D01*
X388985Y863549D02*
Y866549D01*
X377485Y865049D02*
X380485D01*
X378985Y863549D02*
Y866549D01*
X367485Y865049D02*
X370485D01*
X368985Y863549D02*
Y866549D01*
X357485Y865049D02*
X360485D01*
X358985Y863549D02*
Y866549D01*
X347485Y865049D02*
X350485D01*
X348985Y863549D02*
Y866549D01*
X337485Y865049D02*
X340485D01*
X338985Y863549D02*
Y866549D01*
X327485Y865049D02*
X330485D01*
X328985Y863549D02*
Y866549D01*
X317485Y865049D02*
X320485D01*
X318985Y863549D02*
Y866549D01*
X307485Y865049D02*
X310485D01*
X308985Y863549D02*
Y866549D01*
X297485Y865049D02*
X300485D01*
X298985Y863549D02*
Y866549D01*
X287485Y865049D02*
X290485D01*
X288985Y863549D02*
Y866549D01*
X277485Y865049D02*
X280485D01*
X278985Y863549D02*
Y866549D01*
X267485Y865049D02*
X270485D01*
X268985Y863549D02*
Y866549D01*
X257486Y865049D02*
X260485D01*
X258986Y863549D02*
Y866549D01*
X247486Y865049D02*
X250485D01*
X248986Y863549D02*
Y866549D01*
X237486Y865049D02*
X240485D01*
X238986Y863549D02*
Y866549D01*
X227486Y865049D02*
X230485D01*
X228986Y863549D02*
Y866549D01*
X217486Y865049D02*
X220485D01*
X218986Y863549D02*
Y866549D01*
X207486Y865049D02*
X210486D01*
X208986Y863549D02*
Y866549D01*
X197486Y865049D02*
X200486D01*
X198986Y863549D02*
Y866549D01*
X187486Y865049D02*
X190486D01*
X188986Y863549D02*
Y866549D01*
X177486Y865049D02*
X180486D01*
X178986Y863549D02*
Y866549D01*
X167486Y865049D02*
X170486D01*
X168986Y863549D02*
Y866549D01*
X157486Y865049D02*
X160486D01*
X158986Y863549D02*
Y866549D01*
X147486Y865049D02*
X150486D01*
X148986Y863549D02*
Y866549D01*
X137486Y865049D02*
X140486D01*
X138986Y863549D02*
Y866549D01*
X127486Y865049D02*
X130486D01*
X128986Y863549D02*
Y866549D01*
X117486Y865049D02*
X120486D01*
X118986Y863549D02*
Y866549D01*
X107486Y865049D02*
X110486D01*
X108986Y863549D02*
Y866549D01*
X97486Y865049D02*
X100486D01*
X98986Y863549D02*
Y866549D01*
X87486Y865049D02*
X90486D01*
X88986Y863549D02*
Y866549D01*
X77486Y865049D02*
X80486D01*
X78986Y863549D02*
Y866549D01*
X67486Y865049D02*
X70486D01*
X68986Y863549D02*
Y866549D01*
X1020850Y667190D02*
X1023850D01*
X1022350Y665691D02*
Y668690D01*
X1005850Y667190D02*
X1008850D01*
X1007350Y665691D02*
Y668690D01*
X990850Y667190D02*
X993850D01*
X992350Y665691D02*
Y668690D01*
X975850Y667190D02*
X978850D01*
X977350Y665691D02*
Y668690D01*
X979360Y632809D02*
X982360D01*
X980860Y631310D02*
Y634310D01*
X1008438Y632809D02*
X1011438D01*
X1009938Y631310D02*
Y634310D01*
X1023438Y632809D02*
X1026438D01*
X1024938Y631310D02*
Y634310D01*
X943803Y667190D02*
X946803D01*
X945303Y665691D02*
Y668690D01*
X928803Y667190D02*
X931803D01*
X930303Y665691D02*
Y668690D01*
X926461Y632809D02*
X929461D01*
X927961Y631310D02*
Y634310D01*
X955623Y632462D02*
X958623D01*
X957123Y630961D02*
Y633961D01*
X970523Y634191D02*
X973523D01*
X972023Y632691D02*
Y635691D01*
X963044Y667023D02*
X966044D01*
X964544Y665523D02*
Y668523D01*
X738596Y667190D02*
X741596D01*
X740096Y665690D02*
Y668690D01*
X648596Y667190D02*
X651596D01*
X650096Y665690D02*
Y668690D01*
X513596Y667190D02*
X516595D01*
X515095Y665690D02*
Y668690D01*
X768596Y667190D02*
X771596D01*
X770096Y665690D02*
Y668690D01*
X843595Y667190D02*
X846595D01*
X845095Y665690D02*
Y668690D01*
X453596Y667190D02*
X456596D01*
X455096Y665690D02*
Y668690D01*
X884937Y632809D02*
X887937D01*
X886437Y631309D02*
Y634309D01*
X168596Y667190D02*
X171596D01*
X170096Y665690D02*
Y668690D01*
X363596Y667190D02*
X366596D01*
X365096Y665690D02*
Y668690D01*
X749937Y632809D02*
X752937D01*
X751437Y631309D02*
Y634309D01*
X573596Y667190D02*
X576595D01*
X575095Y665690D02*
Y668690D01*
X273596Y667190D02*
X276596D01*
X275096Y665690D02*
Y668690D01*
X333596Y667190D02*
X336596D01*
X335096Y665690D02*
Y668690D01*
X449937Y632809D02*
X452937D01*
X451437Y631309D02*
Y634309D01*
X494937Y632809D02*
X497937D01*
X496437Y631309D02*
Y634309D01*
X119937Y632809D02*
X122937D01*
X121437Y631309D02*
Y634309D01*
X438596Y667190D02*
X441596D01*
X440096Y665690D02*
Y668690D01*
X588596Y667190D02*
X591595D01*
X590095Y665690D02*
Y668690D01*
X254937Y632809D02*
X257937D01*
X256437Y631309D02*
Y634309D01*
X123596Y667190D02*
X126596D01*
X125096Y665690D02*
Y668690D01*
X603596Y667190D02*
X606595D01*
X605095Y665690D02*
Y668690D01*
X543596Y667190D02*
X546595D01*
X545095Y665690D02*
Y668690D01*
X873595Y667190D02*
X876595D01*
X875095Y665690D02*
Y668690D01*
X704937Y632809D02*
X707937D01*
X706437Y631309D02*
Y634309D01*
X164937Y632809D02*
X167937D01*
X166437Y631309D02*
Y634309D01*
X629937Y632809D02*
X632937D01*
X631437Y631309D02*
Y634309D01*
X303596Y667190D02*
X306596D01*
X305096Y665690D02*
Y668690D01*
X464937Y632809D02*
X467937D01*
X466437Y631309D02*
Y634309D01*
X74937Y632809D02*
X77937D01*
X76437Y631309D02*
Y634309D01*
X89937Y632809D02*
X92937D01*
X91437Y631309D02*
Y634309D01*
X329937Y632809D02*
X332937D01*
X331437Y631309D02*
Y634309D01*
X539937Y632809D02*
X542937D01*
X541437Y631309D02*
Y634309D01*
X434937Y632809D02*
X437937D01*
X436437Y631309D02*
Y634309D01*
X509937Y632809D02*
X512937D01*
X511437Y631309D02*
Y634309D01*
X78596Y667190D02*
X81596D01*
X80096Y665690D02*
Y668690D01*
X419937Y632809D02*
X422937D01*
X421437Y631309D02*
Y634309D01*
X224937Y632809D02*
X227937D01*
X226437Y631309D02*
Y634309D01*
X599937Y632809D02*
X602937D01*
X601437Y631309D02*
Y634309D01*
X618596Y667190D02*
X621595D01*
X620095Y665690D02*
Y668690D01*
X644937Y632809D02*
X647937D01*
X646437Y631309D02*
Y634309D01*
X408596Y667190D02*
X411596D01*
X410096Y665690D02*
Y668690D01*
X569937Y632809D02*
X572937D01*
X571437Y631309D02*
Y634309D01*
X554937Y632809D02*
X557937D01*
X556437Y631309D02*
Y634309D01*
X723596Y667190D02*
X726596D01*
X725096Y665690D02*
Y668690D01*
X389937Y632809D02*
X392937D01*
X391437Y631309D02*
Y634309D01*
X783596Y667190D02*
X786596D01*
X785096Y665690D02*
Y668690D01*
X813596Y667190D02*
X816595D01*
X815095Y665690D02*
Y668690D01*
X899937Y632809D02*
X902936D01*
X901437Y631309D02*
Y634309D01*
X479937Y632809D02*
X482937D01*
X481437Y631309D02*
Y634309D01*
X659937Y632809D02*
X662937D01*
X661437Y631309D02*
Y634309D01*
X299937Y632809D02*
X302937D01*
X301437Y631309D02*
Y634309D01*
X753596Y667190D02*
X756596D01*
X755096Y665690D02*
Y668690D01*
X393596Y667190D02*
X396596D01*
X395096Y665690D02*
Y668690D01*
X633596Y667190D02*
X636595D01*
X635095Y665690D02*
Y668690D01*
X134937Y632809D02*
X137937D01*
X136437Y631309D02*
Y634309D01*
X153596Y667190D02*
X156596D01*
X155096Y665690D02*
Y668690D01*
X528596Y667190D02*
X531595D01*
X530095Y665690D02*
Y668690D01*
X869937Y632809D02*
X872937D01*
X871437Y631309D02*
Y634309D01*
X584937Y632809D02*
X587937D01*
X586437Y631309D02*
Y634309D01*
X258596Y667190D02*
X261596D01*
X260096Y665690D02*
Y668690D01*
X344937Y632809D02*
X347937D01*
X346437Y631309D02*
Y634309D01*
X903595Y667190D02*
X906595D01*
X905095Y665690D02*
Y668690D01*
X734937Y632809D02*
X737937D01*
X736437Y631309D02*
Y634309D01*
X678596Y667190D02*
X681596D01*
X680096Y665690D02*
Y668690D01*
X108596Y667190D02*
X111596D01*
X110096Y665690D02*
Y668690D01*
X183596Y667190D02*
X186596D01*
X185096Y665690D02*
Y668690D01*
X138596Y667190D02*
X141596D01*
X140096Y665690D02*
Y668690D01*
X839937Y632809D02*
X842937D01*
X841437Y631309D02*
Y634309D01*
X779937Y632809D02*
X782937D01*
X781437Y631309D02*
Y634309D01*
X689937Y632809D02*
X692937D01*
X691437Y631309D02*
Y634309D01*
X423596Y667190D02*
X426596D01*
X425096Y665690D02*
Y668690D01*
X213596Y667190D02*
X216596D01*
X215096Y665690D02*
Y668690D01*
X708596Y667190D02*
X711596D01*
X710096Y665690D02*
Y668690D01*
X149937Y632809D02*
X152937D01*
X151437Y631309D02*
Y634309D01*
X888595Y667190D02*
X891595D01*
X890095Y665690D02*
Y668690D01*
X764937Y632809D02*
X767937D01*
X766437Y631309D02*
Y634309D01*
X284937Y632809D02*
X287937D01*
X286437Y631309D02*
Y634309D01*
X719937Y632809D02*
X722937D01*
X721437Y631309D02*
Y634309D01*
X104937Y632809D02*
X107937D01*
X106437Y631309D02*
Y634309D01*
X269937Y632809D02*
X272937D01*
X271437Y631309D02*
Y634309D01*
X674937Y632809D02*
X677937D01*
X676437Y631309D02*
Y634309D01*
X809937Y632809D02*
X812937D01*
X811437Y631309D02*
Y634309D01*
X318596Y667190D02*
X321596D01*
X320096Y665690D02*
Y668690D01*
X558596Y667190D02*
X561595D01*
X560095Y665690D02*
Y668690D01*
X918569Y666309D02*
X921570D01*
X920070Y664809D02*
Y667809D01*
X359937Y632809D02*
X362937D01*
X361437Y631309D02*
Y634309D01*
X179937Y632809D02*
X182937D01*
X181437Y631309D02*
Y634309D01*
X798596Y667190D02*
X801596D01*
X800096Y665690D02*
Y668690D01*
X93596Y667190D02*
X96596D01*
X95096Y665690D02*
Y668690D01*
X498596Y667190D02*
X501595D01*
X500095Y665690D02*
Y668690D01*
X239937Y632809D02*
X242937D01*
X241437Y631309D02*
Y634309D01*
X209937Y632809D02*
X212937D01*
X211437Y631309D02*
Y634309D01*
X228596Y667190D02*
X231596D01*
X230096Y665690D02*
Y668690D01*
X794937Y632809D02*
X797937D01*
X796437Y631309D02*
Y634309D01*
X614937Y632809D02*
X617937D01*
X616437Y631309D02*
Y634309D01*
X404937Y632809D02*
X407937D01*
X406437Y631309D02*
Y634309D01*
X314937Y632809D02*
X317937D01*
X316437Y631309D02*
Y634309D01*
X828595Y667190D02*
X831595D01*
X830095Y665690D02*
Y668690D01*
X288596Y667190D02*
X291596D01*
X290096Y665690D02*
Y668690D01*
X348596Y667190D02*
X351596D01*
X350096Y665690D02*
Y668690D01*
X468596Y667190D02*
X471596D01*
X470096Y665690D02*
Y668690D01*
X243596Y667190D02*
X246596D01*
X245096Y665690D02*
Y668690D01*
X824937Y632809D02*
X827937D01*
X826437Y631309D02*
Y634309D01*
X854937Y632809D02*
X857937D01*
X856437Y631309D02*
Y634309D01*
X378596Y667190D02*
X381596D01*
X380096Y665690D02*
Y668690D01*
X198596Y667190D02*
X201596D01*
X200096Y665690D02*
Y668690D01*
X858595Y667190D02*
X861595D01*
X860095Y665690D02*
Y668690D01*
X194937Y632809D02*
X197937D01*
X196437Y631309D02*
Y634309D01*
X914932Y633182D02*
X917932D01*
X916432Y631682D02*
Y634682D01*
X693596Y667190D02*
X696596D01*
X695096Y665690D02*
Y668690D01*
X63596Y667190D02*
X66596D01*
X65096Y665690D02*
Y668690D01*
X663596Y667190D02*
X666596D01*
X665096Y665690D02*
Y668690D01*
X483596Y667190D02*
X486595D01*
X485095Y665690D02*
Y668690D01*
X374937Y632809D02*
X377937D01*
X376437Y631309D02*
Y634309D01*
X524937Y632809D02*
X527937D01*
X526437Y631309D02*
Y634309D01*
X1028752Y465049D02*
X1031752D01*
X1030252Y463549D02*
Y466549D01*
X1018752Y465049D02*
X1021752D01*
X1020252Y463549D02*
Y466549D01*
X1008752Y465049D02*
X1011752D01*
X1010252Y463549D02*
Y466549D01*
X998752Y465049D02*
X1001752D01*
X1000252Y463549D02*
Y466549D01*
X988752Y465049D02*
X991752D01*
X990252Y463549D02*
Y466549D01*
X978752Y465049D02*
X981752D01*
X980252Y463549D02*
Y466549D01*
X968752Y465049D02*
X971752D01*
X970252Y463549D02*
Y466549D01*
X958752Y465049D02*
X961752D01*
X960252Y463549D02*
Y466549D01*
X948752Y465049D02*
X951752D01*
X950252Y463549D02*
Y466549D01*
X938752Y465049D02*
X941752D01*
X940252Y463549D02*
Y466549D01*
X928752Y465049D02*
X931752D01*
X930252Y463549D02*
Y466549D01*
X918752Y465049D02*
X921752D01*
X920252Y463549D02*
Y466549D01*
X908752Y465049D02*
X911752D01*
X910252Y463549D02*
Y466549D01*
X898752Y465049D02*
X901752D01*
X900252Y463549D02*
Y466549D01*
X888752Y465049D02*
X891752D01*
X890252Y463549D02*
Y466549D01*
X878752Y465049D02*
X881752D01*
X880252Y463549D02*
Y466549D01*
X868752Y465049D02*
X871752D01*
X870252Y463549D02*
Y466549D01*
X858752Y465049D02*
X861752D01*
X860252Y463549D02*
Y466549D01*
X848752Y465049D02*
X851752D01*
X850252Y463549D02*
Y466549D01*
X838752Y465049D02*
X841752D01*
X840252Y463549D02*
Y466549D01*
X828752Y465049D02*
X831752D01*
X830252Y463549D02*
Y466549D01*
X818752Y465049D02*
X821752D01*
X820252Y463549D02*
Y466549D01*
X808753Y465049D02*
X811752D01*
X810253Y463549D02*
Y466549D01*
X798753Y465049D02*
X801752D01*
X800253Y463549D02*
Y466549D01*
X788753Y465049D02*
X791752D01*
X790253Y463549D02*
Y466549D01*
X778753Y465049D02*
X781752D01*
X780253Y463549D02*
Y466549D01*
X768753Y465049D02*
X771752D01*
X770253Y463549D02*
Y466549D01*
X758753Y465049D02*
X761753D01*
X760253Y463549D02*
Y466549D01*
X748753Y465049D02*
X751753D01*
X750253Y463549D02*
Y466549D01*
X738753Y465049D02*
X741753D01*
X740253Y463549D02*
Y466549D01*
X728753Y465049D02*
X731753D01*
X730253Y463549D02*
Y466549D01*
X718753Y465049D02*
X721753D01*
X720253Y463549D02*
Y466549D01*
X708753Y465049D02*
X711753D01*
X710253Y463549D02*
Y466549D01*
X698753Y465049D02*
X701753D01*
X700253Y463549D02*
Y466549D01*
X688753Y465049D02*
X691753D01*
X690253Y463549D02*
Y466549D01*
X678753Y465049D02*
X681753D01*
X680253Y463549D02*
Y466549D01*
X668753Y465049D02*
X671753D01*
X670253Y463549D02*
Y466549D01*
X658753Y465049D02*
X661753D01*
X660253Y463549D02*
Y466549D01*
X648753Y465049D02*
X651753D01*
X650253Y463549D02*
Y466549D01*
X638753Y465049D02*
X641753D01*
X640253Y463549D02*
Y466549D01*
X628753Y465049D02*
X631753D01*
X630253Y463549D02*
Y466549D01*
X618753Y465049D02*
X621753D01*
X620253Y463549D02*
Y466549D01*
X608753Y465049D02*
X611753D01*
X610253Y463549D02*
Y466549D01*
X598753Y465049D02*
X601753D01*
X600253Y463549D02*
Y466549D01*
X588753Y465049D02*
X591753D01*
X590253Y463549D02*
Y466549D01*
X578753Y465049D02*
X581753D01*
X580253Y463549D02*
Y466549D01*
X568753Y465049D02*
X571753D01*
X570253Y463549D02*
Y466549D01*
X558753Y465049D02*
X561753D01*
X560253Y463549D02*
Y466549D01*
X548753Y465049D02*
X551753D01*
X550253Y463549D02*
Y466549D01*
X538753Y465049D02*
X541753D01*
X540253Y463549D02*
Y466549D01*
X528753Y465049D02*
X531753D01*
X530253Y463549D02*
Y466549D01*
X518753Y465049D02*
X521753D01*
X520253Y463549D02*
Y466549D01*
X508753Y465049D02*
X511753D01*
X510253Y463549D02*
Y466549D01*
X498753Y465049D02*
X501753D01*
X500253Y463549D02*
Y466549D01*
X488753Y465049D02*
X491753D01*
X490253Y463549D02*
Y466549D01*
X478753Y465049D02*
X481753D01*
X480253Y463549D02*
Y466549D01*
X468753Y465049D02*
X471753D01*
X470253Y463549D02*
Y466549D01*
X458753Y465049D02*
X461753D01*
X460253Y463549D02*
Y466549D01*
X448753Y465049D02*
X451753D01*
X450253Y463549D02*
Y466549D01*
X438753Y465049D02*
X441753D01*
X440253Y463549D02*
Y466549D01*
X428753Y465049D02*
X431753D01*
X430253Y463549D02*
Y466549D01*
X418753Y465049D02*
X421753D01*
X420253Y463549D02*
Y466549D01*
X408753Y465049D02*
X411753D01*
X410253Y463549D02*
Y466549D01*
X398753Y465049D02*
X401753D01*
X400253Y463549D02*
Y466549D01*
X388753Y465049D02*
X391753D01*
X390253Y463549D02*
Y466549D01*
X378753Y465049D02*
X381753D01*
X380253Y463549D02*
Y466549D01*
X368753Y465049D02*
X371753D01*
X370253Y463549D02*
Y466549D01*
X358753Y465049D02*
X361753D01*
X360253Y463549D02*
Y466549D01*
X348753Y465049D02*
X351753D01*
X350253Y463549D02*
Y466549D01*
X338753Y465049D02*
X341753D01*
X340253Y463549D02*
Y466549D01*
X328753Y465049D02*
X331753D01*
X330253Y463549D02*
Y466549D01*
X318753Y465049D02*
X321753D01*
X320253Y463549D02*
Y466549D01*
X308754Y465049D02*
X311754D01*
X310254Y463549D02*
Y466549D01*
X298754Y465049D02*
X301754D01*
X300254Y463549D02*
Y466549D01*
X288754Y465049D02*
X291754D01*
X290254Y463549D02*
Y466549D01*
X278754Y465049D02*
X281754D01*
X280254Y463549D02*
Y466549D01*
X268754Y465049D02*
X271754D01*
X270254Y463549D02*
Y466549D01*
X258754Y465049D02*
X261754D01*
X260254Y463549D02*
Y466549D01*
X248754Y465049D02*
X251754D01*
X250254Y463549D02*
Y466549D01*
X238754Y465049D02*
X241754D01*
X240254Y463549D02*
Y466549D01*
X228754Y465049D02*
X231754D01*
X230254Y463549D02*
Y466549D01*
X218754Y465049D02*
X221754D01*
X220254Y463549D02*
Y466549D01*
X208754Y465049D02*
X211754D01*
X210254Y463549D02*
Y466549D01*
X198754Y465049D02*
X201754D01*
X200254Y463549D02*
Y466549D01*
X188754Y465049D02*
X191754D01*
X190254Y463549D02*
Y466549D01*
X178754Y465049D02*
X181754D01*
X180254Y463549D02*
Y466549D01*
X168754Y465049D02*
X171754D01*
X170254Y463549D02*
Y466549D01*
X158754Y465049D02*
X161754D01*
X160254Y463549D02*
Y466549D01*
X148754Y465049D02*
X151754D01*
X150254Y463549D02*
Y466549D01*
X138754Y465049D02*
X141754D01*
X140254Y463549D02*
Y466549D01*
X128754Y465049D02*
X131754D01*
X130254Y463549D02*
Y466549D01*
X118754Y465049D02*
X121754D01*
X120254Y463549D02*
Y466549D01*
X108754Y465049D02*
X111754D01*
X110254Y463549D02*
Y466549D01*
X98754Y465049D02*
X101754D01*
X100254Y463549D02*
Y466549D01*
X88754Y465049D02*
X91754D01*
X90254Y463549D02*
Y466549D01*
X78754Y465049D02*
X81754D01*
X80254Y463549D02*
Y466549D01*
X68754Y465049D02*
X71754D01*
X70254Y463549D02*
Y466549D01*
X64997Y434951D02*
X67997D01*
X66497Y433451D02*
Y436451D01*
X74996Y434951D02*
X77996D01*
X76496Y433451D02*
Y436451D01*
X84996Y434951D02*
X87996D01*
X86496Y433451D02*
Y436451D01*
X94996Y434951D02*
X97996D01*
X96496Y433451D02*
Y436451D01*
X104996Y434951D02*
X107996D01*
X106496Y433451D02*
Y436451D01*
X114996Y434951D02*
X117996D01*
X116496Y433451D02*
Y436451D01*
X124996Y434951D02*
X127996D01*
X126496Y433451D02*
Y436451D01*
X134996Y434951D02*
X137996D01*
X136496Y433451D02*
Y436451D01*
X144996Y434951D02*
X147996D01*
X146496Y433451D02*
Y436451D01*
X154996Y434951D02*
X157996D01*
X156496Y433451D02*
Y436451D01*
X164996Y434951D02*
X167996D01*
X166496Y433451D02*
Y436451D01*
X174996Y434951D02*
X177996D01*
X176496Y433451D02*
Y436451D01*
X184996Y434951D02*
X187996D01*
X186496Y433451D02*
Y436451D01*
X194996Y434951D02*
X197996D01*
X196496Y433451D02*
Y436451D01*
X204996Y434951D02*
X207996D01*
X206496Y433451D02*
Y436451D01*
X214996Y434951D02*
X217996D01*
X216496Y433451D02*
Y436451D01*
X224996Y434951D02*
X227996D01*
X226496Y433451D02*
Y436451D01*
X234996Y434951D02*
X237996D01*
X236496Y433451D02*
Y436451D01*
X244996Y434951D02*
X247996D01*
X246496Y433451D02*
Y436451D01*
X254996Y434951D02*
X257996D01*
X256496Y433451D02*
Y436451D01*
X264996Y434951D02*
X267996D01*
X266496Y433451D02*
Y436451D01*
X274996Y434951D02*
X277996D01*
X276496Y433451D02*
Y436451D01*
X284996Y434951D02*
X287996D01*
X286496Y433451D02*
Y436451D01*
X294996Y434951D02*
X297996D01*
X296496Y433451D02*
Y436451D01*
X304996Y434951D02*
X307996D01*
X306496Y433451D02*
Y436451D01*
X314996Y434951D02*
X317996D01*
X316496Y433451D02*
Y436451D01*
X324996Y434951D02*
X327996D01*
X326496Y433451D02*
Y436451D01*
X334996Y434951D02*
X337996D01*
X336496Y433451D02*
Y436451D01*
X344996Y434951D02*
X347996D01*
X346496Y433451D02*
Y436451D01*
X354996Y434951D02*
X357996D01*
X356496Y433451D02*
Y436451D01*
X364996Y434951D02*
X367996D01*
X366496Y433451D02*
Y436451D01*
X374996Y434951D02*
X377996D01*
X376496Y433451D02*
Y436451D01*
X384996Y434951D02*
X387996D01*
X386496Y433451D02*
Y436451D01*
X394996Y434951D02*
X397996D01*
X396496Y433451D02*
Y436451D01*
X404996Y434951D02*
X407996D01*
X406496Y433451D02*
Y436451D01*
X414996Y434951D02*
X417996D01*
X416496Y433451D02*
Y436451D01*
X424996Y434951D02*
X427996D01*
X426496Y433451D02*
Y436451D01*
X434996Y434951D02*
X437996D01*
X436496Y433451D02*
Y436451D01*
X444996Y434951D02*
X447996D01*
X446496Y433451D02*
Y436451D01*
X454996Y434951D02*
X457996D01*
X456496Y433451D02*
Y436451D01*
X464996Y434951D02*
X467996D01*
X466496Y433451D02*
Y436451D01*
X474996Y434951D02*
X477996D01*
X476496Y433451D02*
Y436451D01*
X484996Y434951D02*
X487996D01*
X486496Y433451D02*
Y436451D01*
X494996Y434951D02*
X497996D01*
X496496Y433451D02*
Y436451D01*
X504996Y434951D02*
X507996D01*
X506496Y433451D02*
Y436451D01*
X514996Y434951D02*
X517996D01*
X516496Y433451D02*
Y436451D01*
X524995Y434951D02*
X527995D01*
X526496Y433451D02*
Y436451D01*
X534995Y434951D02*
X537995D01*
X536496Y433451D02*
Y436451D01*
X544995Y434951D02*
X547995D01*
X546496Y433451D02*
Y436451D01*
X554995Y434951D02*
X557995D01*
X556496Y433451D02*
Y436451D01*
X564995Y434951D02*
X567995D01*
X566496Y433451D02*
Y436451D01*
X574995Y434951D02*
X577995D01*
X576495Y433451D02*
Y436451D01*
X584995Y434951D02*
X587995D01*
X586495Y433451D02*
Y436451D01*
X594995Y434951D02*
X597995D01*
X596495Y433451D02*
Y436451D01*
X604995Y434951D02*
X607995D01*
X606495Y433451D02*
Y436451D01*
X614995Y434951D02*
X617995D01*
X616495Y433451D02*
Y436451D01*
X624995Y434951D02*
X627995D01*
X626495Y433451D02*
Y436451D01*
X634995Y434951D02*
X637995D01*
X636495Y433451D02*
Y436451D01*
X644995Y434951D02*
X647995D01*
X646495Y433451D02*
Y436451D01*
X654995Y434951D02*
X657995D01*
X656495Y433451D02*
Y436451D01*
X664995Y434951D02*
X667995D01*
X666495Y433451D02*
Y436451D01*
X674995Y434951D02*
X677995D01*
X676495Y433451D02*
Y436451D01*
X684995Y434951D02*
X687995D01*
X686495Y433451D02*
Y436451D01*
X694995Y434951D02*
X697995D01*
X696495Y433451D02*
Y436451D01*
X704995Y434951D02*
X707995D01*
X706495Y433451D02*
Y436451D01*
X714995Y434951D02*
X717995D01*
X716495Y433451D02*
Y436451D01*
X724995Y434951D02*
X727995D01*
X726495Y433451D02*
Y436451D01*
X734995Y434951D02*
X737995D01*
X736495Y433451D02*
Y436451D01*
X744995Y434951D02*
X747995D01*
X746495Y433451D02*
Y436451D01*
X754995Y434951D02*
X757995D01*
X756495Y433451D02*
Y436451D01*
X764995Y434951D02*
X767995D01*
X766495Y433451D02*
Y436451D01*
X774995Y434951D02*
X777995D01*
X776495Y433451D02*
Y436451D01*
X784995Y434951D02*
X787995D01*
X786495Y433451D02*
Y436451D01*
X794995Y434951D02*
X797995D01*
X796495Y433451D02*
Y436451D01*
X804995Y434951D02*
X807995D01*
X806495Y433451D02*
Y436451D01*
X814995Y434951D02*
X817995D01*
X816495Y433451D02*
Y436451D01*
X824995Y434951D02*
X827995D01*
X826495Y433451D02*
Y436451D01*
X834995Y434951D02*
X837995D01*
X836495Y433451D02*
Y436451D01*
X844995Y434951D02*
X847995D01*
X846495Y433451D02*
Y436451D01*
X854995Y434951D02*
X857995D01*
X856495Y433451D02*
Y436451D01*
X864995Y434951D02*
X867995D01*
X866495Y433451D02*
Y436451D01*
X874995Y434951D02*
X877995D01*
X876495Y433451D02*
Y436451D01*
X884995Y434951D02*
X887995D01*
X886495Y433451D02*
Y436451D01*
X894995Y434951D02*
X897995D01*
X896495Y433451D02*
Y436451D01*
X904995Y434951D02*
X907995D01*
X906495Y433451D02*
Y436451D01*
X914995Y434951D02*
X917995D01*
X916495Y433451D02*
Y436451D01*
X924995Y434951D02*
X927995D01*
X926495Y433451D02*
Y436451D01*
X934995Y434951D02*
X937995D01*
X936495Y433451D02*
Y436451D01*
X944995Y434951D02*
X947995D01*
X946495Y433451D02*
Y436451D01*
X954995Y434951D02*
X957995D01*
X956495Y433451D02*
Y436451D01*
X964995Y434951D02*
X967995D01*
X966495Y433451D02*
Y436451D01*
X974995Y434951D02*
X977995D01*
X976495Y433451D02*
Y436451D01*
X984995Y434951D02*
X987995D01*
X986495Y433451D02*
Y436451D01*
X994995Y434951D02*
X997995D01*
X996495Y433451D02*
Y436451D01*
X1004995Y434951D02*
X1007995D01*
X1006495Y433451D02*
Y436451D01*
X1014995Y434951D02*
X1017995D01*
X1016495Y433451D02*
Y436451D01*
X1024995Y434951D02*
X1027995D01*
X1026495Y433451D02*
Y436451D01*
X1034995Y434951D02*
X1037995D01*
X1036495Y433451D02*
Y436451D01*
X1032947Y267190D02*
X1035947D01*
X1034447Y265690D02*
Y268690D01*
X1017947Y267190D02*
X1020947D01*
X1019447Y265690D02*
Y268690D01*
X1002947Y267190D02*
X1005947D01*
X1004447Y265690D02*
Y268690D01*
X987947Y267190D02*
X990947D01*
X989447Y265690D02*
Y268690D01*
X972947Y267190D02*
X975947D01*
X974447Y265690D02*
Y268690D01*
X957947Y267190D02*
X960947D01*
X959447Y265690D02*
Y268690D01*
X942947Y267190D02*
X945947D01*
X944447Y265690D02*
Y268690D01*
X927947Y267190D02*
X930947D01*
X929447Y265690D02*
Y268690D01*
X912947Y267190D02*
X915947D01*
X914447Y265690D02*
Y268690D01*
X897947Y267190D02*
X900947D01*
X899447Y265690D02*
Y268690D01*
X882947Y267190D02*
X885947D01*
X884447Y265690D02*
Y268690D01*
X867947Y267190D02*
X870947D01*
X869447Y265690D02*
Y268690D01*
X852947Y267190D02*
X855947D01*
X854447Y265690D02*
Y268690D01*
X837947Y267190D02*
X840947D01*
X839447Y265690D02*
Y268690D01*
X822947Y267190D02*
X825947D01*
X824447Y265690D02*
Y268690D01*
X807947Y267190D02*
X810947D01*
X809447Y265690D02*
Y268690D01*
X792947Y267190D02*
X795947D01*
X794447Y265690D02*
Y268690D01*
X777947Y267190D02*
X780947D01*
X779447Y265690D02*
Y268690D01*
X762947Y267190D02*
X765947D01*
X764447Y265690D02*
Y268690D01*
X747947Y267190D02*
X750947D01*
X749447Y265690D02*
Y268690D01*
X732947Y267190D02*
X735947D01*
X734447Y265690D02*
Y268690D01*
X717947Y267190D02*
X720947D01*
X719447Y265690D02*
Y268690D01*
X702947Y267190D02*
X705947D01*
X704447Y265690D02*
Y268690D01*
X687947Y267190D02*
X690947D01*
X689447Y265690D02*
Y268690D01*
X672947Y267190D02*
X675947D01*
X674447Y265690D02*
Y268690D01*
X657947Y267190D02*
X660947D01*
X659447Y265690D02*
Y268690D01*
X642947Y267190D02*
X645947D01*
X644447Y265690D02*
Y268690D01*
X627947Y267190D02*
X630947D01*
X629447Y265690D02*
Y268690D01*
X612947Y267190D02*
X615947D01*
X614447Y265690D02*
Y268690D01*
X597947Y267190D02*
X600947D01*
X599447Y265690D02*
Y268690D01*
X582947Y267190D02*
X585947D01*
X584447Y265690D02*
Y268690D01*
X567947Y267190D02*
X570947D01*
X569447Y265690D02*
Y268690D01*
X552947Y267190D02*
X555947D01*
X554447Y265690D02*
Y268690D01*
X537947Y267190D02*
X540947D01*
X539447Y265690D02*
Y268690D01*
X522947Y267190D02*
X525947D01*
X524447Y265690D02*
Y268690D01*
X507947Y267190D02*
X510947D01*
X509447Y265690D02*
Y268690D01*
X492947Y267190D02*
X495947D01*
X494447Y265690D02*
Y268690D01*
X477947Y267190D02*
X480947D01*
X479447Y265690D02*
Y268690D01*
X462947Y267190D02*
X465947D01*
X464447Y265690D02*
Y268690D01*
X447947Y267190D02*
X450947D01*
X449447Y265690D02*
Y268690D01*
X432947Y267190D02*
X435947D01*
X434447Y265690D02*
Y268690D01*
X417947Y267190D02*
X420947D01*
X419447Y265690D02*
Y268690D01*
X402947Y267190D02*
X405947D01*
X404447Y265690D02*
Y268690D01*
X387947Y267190D02*
X390947D01*
X389447Y265690D02*
Y268690D01*
X372947Y267190D02*
X375947D01*
X374447Y265690D02*
Y268690D01*
X357947Y267190D02*
X360947D01*
X359447Y265690D02*
Y268690D01*
X342947Y267190D02*
X345947D01*
X344447Y265690D02*
Y268690D01*
X327947Y267190D02*
X330947D01*
X329447Y265690D02*
Y268690D01*
X312947Y267190D02*
X315947D01*
X314447Y265690D02*
Y268690D01*
X297947Y267190D02*
X300947D01*
X299447Y265690D02*
Y268690D01*
X282947Y267190D02*
X285947D01*
X284447Y265690D02*
Y268690D01*
X267947Y267190D02*
X270947D01*
X269447Y265690D02*
Y268690D01*
X252947Y267190D02*
X255947D01*
X254447Y265690D02*
Y268690D01*
X237947Y267190D02*
X240947D01*
X239447Y265690D02*
Y268690D01*
X222947Y267190D02*
X225947D01*
X224447Y265690D02*
Y268690D01*
X207947Y267190D02*
X210947D01*
X209447Y265690D02*
Y268690D01*
X192947Y267190D02*
X195947D01*
X194447Y265690D02*
Y268690D01*
X177947Y267190D02*
X180947D01*
X179447Y265690D02*
Y268690D01*
X162947Y267190D02*
X165947D01*
X164447Y265690D02*
Y268690D01*
X147947Y267190D02*
X150947D01*
X149447Y265690D02*
Y268690D01*
X132947Y267190D02*
X135947D01*
X134447Y265690D02*
Y268690D01*
X117947Y267190D02*
X120947D01*
X119447Y265690D02*
Y268690D01*
X102947Y267190D02*
X105947D01*
X104447Y265690D02*
Y268690D01*
X87947Y267190D02*
X90947D01*
X89447Y265690D02*
Y268690D01*
X72947Y267190D02*
X75947D01*
X74447Y265690D02*
Y268690D01*
X63438Y232810D02*
X66438D01*
X64938Y231310D02*
Y234310D01*
X78438Y232810D02*
X81438D01*
X79938Y231310D02*
Y234310D01*
X93438Y232810D02*
X96438D01*
X94938Y231310D02*
Y234310D01*
X108438Y232810D02*
X111438D01*
X109938Y231310D02*
Y234310D01*
X123438Y232810D02*
X126438D01*
X124938Y231310D02*
Y234310D01*
X138438Y232810D02*
X141438D01*
X139938Y231310D02*
Y234310D01*
X153438Y232810D02*
X156438D01*
X154938Y231310D02*
Y234310D01*
X168438Y232810D02*
X171438D01*
X169938Y231310D02*
Y234310D01*
X183438Y232810D02*
X186438D01*
X184938Y231310D02*
Y234310D01*
X198438Y232810D02*
X201438D01*
X199938Y231310D02*
Y234310D01*
X213438Y232810D02*
X216438D01*
X214938Y231310D02*
Y234310D01*
X228438Y232810D02*
X231438D01*
X229938Y231310D02*
Y234310D01*
X243438Y232810D02*
X246438D01*
X244938Y231310D02*
Y234310D01*
X258438Y232810D02*
X261438D01*
X259938Y231310D02*
Y234310D01*
X273438Y232810D02*
X276438D01*
X274938Y231310D02*
Y234310D01*
X288438Y232810D02*
X291438D01*
X289938Y231310D02*
Y234310D01*
X303438Y232810D02*
X306438D01*
X304938Y231310D02*
Y234310D01*
X318438Y232810D02*
X321438D01*
X319938Y231310D02*
Y234310D01*
X333438Y232810D02*
X336438D01*
X334938Y231310D02*
Y234310D01*
X348438Y232810D02*
X351438D01*
X349938Y231310D02*
Y234310D01*
X363438Y232810D02*
X366438D01*
X364938Y231310D02*
Y234310D01*
X378438Y232810D02*
X381438D01*
X379938Y231310D02*
Y234310D01*
X393438Y232810D02*
X396438D01*
X394938Y231310D02*
Y234310D01*
X408438Y232810D02*
X411438D01*
X409938Y231310D02*
Y234310D01*
X423438Y232810D02*
X426438D01*
X424938Y231310D02*
Y234310D01*
X438438Y232810D02*
X441438D01*
X439938Y231310D02*
Y234310D01*
X453438Y232810D02*
X456438D01*
X454938Y231310D02*
Y234310D01*
X468438Y232810D02*
X471438D01*
X469938Y231310D02*
Y234310D01*
X483438Y232810D02*
X486438D01*
X484938Y231310D02*
Y234310D01*
X498438Y232810D02*
X501438D01*
X499938Y231310D02*
Y234310D01*
X513438Y232810D02*
X516438D01*
X514938Y231310D02*
Y234310D01*
X528438Y232810D02*
X531438D01*
X529938Y231310D02*
Y234310D01*
X543438Y232810D02*
X546438D01*
X544938Y231310D02*
Y234310D01*
X558438Y232810D02*
X561438D01*
X559938Y231310D02*
Y234310D01*
X573438Y232810D02*
X576438D01*
X574938Y231310D02*
Y234310D01*
X588438Y232810D02*
X591438D01*
X589938Y231310D02*
Y234310D01*
X603438Y232810D02*
X606438D01*
X604938Y231310D02*
Y234310D01*
X618438Y232810D02*
X621438D01*
X619938Y231310D02*
Y234310D01*
X633438Y232810D02*
X636438D01*
X634938Y231310D02*
Y234310D01*
X648438Y232810D02*
X651438D01*
X649938Y231310D02*
Y234310D01*
X663438Y232810D02*
X666438D01*
X664938Y231310D02*
Y234310D01*
X678438Y232810D02*
X681438D01*
X679938Y231310D02*
Y234310D01*
X693438Y232810D02*
X696438D01*
X694938Y231310D02*
Y234310D01*
X708438Y232810D02*
X711438D01*
X709938Y231310D02*
Y234310D01*
X723438Y232810D02*
X726438D01*
X724938Y231310D02*
Y234310D01*
X738438Y232810D02*
X741438D01*
X739938Y231310D02*
Y234310D01*
X753438Y232810D02*
X756438D01*
X754938Y231310D02*
Y234310D01*
X768438Y232810D02*
X771438D01*
X769938Y231310D02*
Y234310D01*
X783438Y232810D02*
X786438D01*
X784938Y231310D02*
Y234310D01*
X798438Y232810D02*
X801438D01*
X799938Y231310D02*
Y234310D01*
X813438Y232810D02*
X816438D01*
X814938Y231310D02*
Y234310D01*
X828438Y232810D02*
X831438D01*
X829938Y231310D02*
Y234310D01*
X843438Y232810D02*
X846438D01*
X844938Y231310D02*
Y234310D01*
X858438Y232810D02*
X861438D01*
X859938Y231310D02*
Y234310D01*
X873438Y232810D02*
X876438D01*
X874938Y231310D02*
Y234310D01*
X888438Y232810D02*
X891438D01*
X889938Y231310D02*
Y234310D01*
X903438Y232810D02*
X906438D01*
X904938Y231310D02*
Y234310D01*
X918438Y232810D02*
X921438D01*
X919938Y231310D02*
Y234310D01*
X933438Y232810D02*
X936438D01*
X934938Y231310D02*
Y234310D01*
X948438Y232810D02*
X951438D01*
X949938Y231310D02*
Y234310D01*
X963438Y232810D02*
X966438D01*
X964938Y231310D02*
Y234310D01*
X978438Y232810D02*
X981438D01*
X979938Y231310D02*
Y234310D01*
X993438Y232810D02*
X996438D01*
X994938Y231310D02*
Y234310D01*
X1008438Y232810D02*
X1011438D01*
X1009938Y231310D02*
Y234310D01*
X1023438Y232810D02*
X1026438D01*
X1024938Y231310D02*
Y234310D01*
X1054998Y771209D02*
X1057998D01*
X1056498Y769709D02*
Y772709D01*
X1024998Y771209D02*
X1027998D01*
X1026498Y769709D02*
Y772709D01*
X1009998Y921209D02*
X1012998D01*
X1011498Y919709D02*
Y922709D01*
X994998Y891209D02*
X997998D01*
X996498Y889709D02*
Y892709D01*
X1009998Y801209D02*
X1012998D01*
X1011498Y799709D02*
Y802709D01*
X994998Y771209D02*
X997998D01*
X996498Y769709D02*
Y772709D01*
X979998Y921209D02*
X982998D01*
X981498Y919709D02*
Y922709D01*
X964998Y891209D02*
X967998D01*
X966498Y889709D02*
Y892709D01*
X979998Y801209D02*
X982998D01*
X981498Y799709D02*
Y802709D01*
X964998Y771209D02*
X967998D01*
X966498Y769709D02*
Y772709D01*
X949998Y921209D02*
X952998D01*
X951498Y919709D02*
Y922709D01*
X934998Y891209D02*
X937998D01*
X936498Y889709D02*
Y892709D01*
X949998Y801209D02*
X952998D01*
X951498Y799709D02*
Y802709D01*
X934998Y771209D02*
X937998D01*
X936498Y769709D02*
Y772709D01*
X919998Y921209D02*
X922998D01*
X921498Y919709D02*
Y922709D01*
X904998Y891209D02*
X907998D01*
X906498Y889709D02*
Y892709D01*
X919998Y801209D02*
X922998D01*
X921498Y799709D02*
Y802709D01*
X904998Y771209D02*
X907998D01*
X906498Y769709D02*
Y772709D01*
X889998Y921209D02*
X892998D01*
X891498Y919709D02*
Y922709D01*
X874998Y891209D02*
X877998D01*
X876498Y889709D02*
Y892709D01*
X889998Y801209D02*
X892998D01*
X891498Y799709D02*
Y802709D01*
X874998Y771209D02*
X877998D01*
X876498Y769709D02*
Y772709D01*
X859998Y921209D02*
X862998D01*
X861498Y919709D02*
Y922709D01*
X844998Y891209D02*
X847998D01*
X846498Y889709D02*
Y892709D01*
X859998Y801209D02*
X862998D01*
X861498Y799709D02*
Y802709D01*
X844998Y771209D02*
X847998D01*
X846498Y769709D02*
Y772709D01*
X829998Y921209D02*
X832998D01*
X831498Y919709D02*
Y922709D01*
X814998Y891209D02*
X817998D01*
X816498Y889709D02*
Y892709D01*
X829998Y801209D02*
X832998D01*
X831498Y799709D02*
Y802709D01*
X814998Y771209D02*
X817998D01*
X816498Y769709D02*
Y772709D01*
X799998Y921209D02*
X802998D01*
X801498Y919709D02*
Y922709D01*
X784998Y891209D02*
X787998D01*
X786498Y889709D02*
Y892709D01*
X799998Y801209D02*
X802998D01*
X801498Y799709D02*
Y802709D01*
X784998Y771209D02*
X787998D01*
X786498Y769709D02*
Y772709D01*
X769998Y921209D02*
X772998D01*
X771498Y919709D02*
Y922709D01*
X754998Y891209D02*
X757998D01*
X756498Y889709D02*
Y892709D01*
X769998Y801209D02*
X772998D01*
X771498Y799709D02*
Y802709D01*
X754998Y771209D02*
X757998D01*
X756498Y769709D02*
Y772709D01*
X739998Y921209D02*
X742998D01*
X741498Y919709D02*
Y922709D01*
X724998Y891209D02*
X727998D01*
X726498Y889709D02*
Y892709D01*
X739998Y801209D02*
X742998D01*
X741498Y799709D02*
Y802709D01*
X724998Y771209D02*
X727998D01*
X726498Y769709D02*
Y772709D01*
X709998Y921209D02*
X712998D01*
X711498Y919709D02*
Y922709D01*
X694998Y891209D02*
X697998D01*
X696498Y889709D02*
Y892709D01*
X709998Y801209D02*
X712998D01*
X711498Y799709D02*
Y802709D01*
X694998Y771209D02*
X697998D01*
X696498Y769709D02*
Y772709D01*
X679998Y921209D02*
X682998D01*
X681498Y919709D02*
Y922709D01*
X664998Y891209D02*
X667998D01*
X666498Y889709D02*
Y892709D01*
X679998Y801209D02*
X682998D01*
X681498Y799709D02*
Y802709D01*
X664998Y771209D02*
X667998D01*
X666498Y769709D02*
Y772709D01*
X649998Y921209D02*
X652998D01*
X651498Y919709D02*
Y922709D01*
X634998Y891209D02*
X637998D01*
X636498Y889709D02*
Y892709D01*
X649998Y801209D02*
X652998D01*
X651498Y799709D02*
Y802709D01*
X634998Y771209D02*
X637998D01*
X636498Y769709D02*
Y772709D01*
X619998Y921209D02*
X622998D01*
X621498Y919709D02*
Y922709D01*
X604998Y891209D02*
X607998D01*
X606498Y889709D02*
Y892709D01*
X619998Y801209D02*
X622998D01*
X621498Y799709D02*
Y802709D01*
X604998Y771209D02*
X607998D01*
X606498Y769709D02*
Y772709D01*
X589998Y921209D02*
X592998D01*
X591498Y919709D02*
Y922709D01*
X574998Y891209D02*
X577998D01*
X576498Y889709D02*
Y892709D01*
X589998Y801209D02*
X592998D01*
X591498Y799709D02*
Y802709D01*
X574998Y771209D02*
X577998D01*
X576498Y769709D02*
Y772709D01*
X559998Y921209D02*
X562998D01*
X561498Y919709D02*
Y922709D01*
X544998Y891209D02*
X547998D01*
X546498Y889709D02*
Y892709D01*
X559998Y801209D02*
X562998D01*
X561498Y799709D02*
Y802709D01*
X544998Y771209D02*
X547998D01*
X546498Y769709D02*
Y772709D01*
X529998Y921209D02*
X532998D01*
X531498Y919709D02*
Y922709D01*
X514998Y891209D02*
X517998D01*
X516498Y889709D02*
Y892709D01*
X529998Y801209D02*
X532998D01*
X531498Y799709D02*
Y802709D01*
X514998Y771209D02*
X517998D01*
X516498Y769709D02*
Y772709D01*
X499998Y921209D02*
X502998D01*
X501498Y919709D02*
Y922709D01*
X484998Y891209D02*
X487998D01*
X486498Y889709D02*
Y892709D01*
X499998Y801209D02*
X502998D01*
X501498Y799709D02*
Y802709D01*
X484998Y771209D02*
X487998D01*
X486498Y769709D02*
Y772709D01*
X469998Y921209D02*
X472998D01*
X471498Y919709D02*
Y922709D01*
X454998Y891209D02*
X457998D01*
X456498Y889709D02*
Y892709D01*
X469998Y801209D02*
X472998D01*
X471498Y799709D02*
Y802709D01*
X454998Y771209D02*
X457998D01*
X456498Y769709D02*
Y772709D01*
X439998Y921209D02*
X442998D01*
X441498Y919709D02*
Y922709D01*
X424998Y891209D02*
X427998D01*
X426498Y889709D02*
Y892709D01*
X439998Y801209D02*
X442998D01*
X441498Y799709D02*
Y802709D01*
X424998Y771209D02*
X427998D01*
X426498Y769709D02*
Y772709D01*
X409998Y921209D02*
X412998D01*
X411498Y919709D02*
Y922709D01*
X394998Y891209D02*
X397998D01*
X396498Y889709D02*
Y892709D01*
X409998Y801209D02*
X412998D01*
X411498Y799709D02*
Y802709D01*
X394998Y771209D02*
X397998D01*
X396498Y769709D02*
Y772709D01*
X379998Y921209D02*
X382998D01*
X381498Y919709D02*
Y922709D01*
X364998Y891209D02*
X367998D01*
X366498Y889709D02*
Y892709D01*
X379998Y801209D02*
X382998D01*
X381498Y799709D02*
Y802709D01*
X364998Y771209D02*
X367998D01*
X366498Y769709D02*
Y772709D01*
X349998Y921209D02*
X352998D01*
X351498Y919709D02*
Y922709D01*
X334998Y891209D02*
X337998D01*
X336498Y889709D02*
Y892709D01*
X349998Y801209D02*
X352998D01*
X351498Y799709D02*
Y802709D01*
X334998Y771209D02*
X337998D01*
X336498Y769709D02*
Y772709D01*
X319998Y921209D02*
X322998D01*
X321498Y919709D02*
Y922709D01*
X304998Y891209D02*
X307998D01*
X306498Y889709D02*
Y892709D01*
X319998Y801209D02*
X322998D01*
X321498Y799709D02*
Y802709D01*
X304998Y771209D02*
X307998D01*
X306498Y769709D02*
Y772709D01*
X289998Y921209D02*
X292998D01*
X291498Y919709D02*
Y922709D01*
X274998Y891209D02*
X277998D01*
X276498Y889709D02*
Y892709D01*
X289998Y801209D02*
X292998D01*
X291498Y799709D02*
Y802709D01*
X274998Y771209D02*
X277998D01*
X276498Y769709D02*
Y772709D01*
X259998Y921209D02*
X262998D01*
X261498Y919709D02*
Y922709D01*
X244998Y891209D02*
X247998D01*
X246498Y889709D02*
Y892709D01*
X259998Y801209D02*
X262998D01*
X261498Y799709D02*
Y802709D01*
X244998Y771209D02*
X247998D01*
X246498Y769709D02*
Y772709D01*
X229998Y921209D02*
X232998D01*
X231498Y919709D02*
Y922709D01*
X214998Y891209D02*
X217998D01*
X216498Y889709D02*
Y892709D01*
X229998Y801209D02*
X232998D01*
X231498Y799709D02*
Y802709D01*
X214998Y771209D02*
X217998D01*
X216498Y769709D02*
Y772709D01*
X199998Y921209D02*
X202998D01*
X201498Y919709D02*
Y922709D01*
X184998Y891209D02*
X187998D01*
X186498Y889709D02*
Y892709D01*
X199998Y801209D02*
X202998D01*
X201498Y799709D02*
Y802709D01*
X184998Y771209D02*
X187998D01*
X186498Y769709D02*
Y772709D01*
X169998Y921209D02*
X172998D01*
X171498Y919709D02*
Y922709D01*
X154998Y891209D02*
X157998D01*
X156498Y889709D02*
Y892709D01*
X169998Y801209D02*
X172998D01*
X171498Y799709D02*
Y802709D01*
X154998Y771209D02*
X157998D01*
X156498Y769709D02*
Y772709D01*
X139998Y921209D02*
X142998D01*
X141498Y919709D02*
Y922709D01*
X124998Y891209D02*
X127998D01*
X126498Y889709D02*
Y892709D01*
X139998Y801209D02*
X142998D01*
X141498Y799709D02*
Y802709D01*
X124998Y771209D02*
X127998D01*
X126498Y769709D02*
Y772709D01*
X109998Y921209D02*
X112998D01*
X111498Y919709D02*
Y922709D01*
X94998Y891209D02*
X97998D01*
X96498Y889709D02*
Y892709D01*
X109998Y801209D02*
X112998D01*
X111498Y799709D02*
Y802709D01*
X94998Y771209D02*
X97998D01*
X96498Y769709D02*
Y772709D01*
X79998Y921209D02*
X82998D01*
X81498Y919709D02*
Y922709D01*
X64998Y771209D02*
X67998D01*
X66498Y769709D02*
Y772709D01*
X34998Y771209D02*
X37998D01*
X36498Y769709D02*
Y772709D01*
X1009998Y1761209D02*
X1012998D01*
X1011498Y1759709D02*
Y1762709D01*
X994998Y1731209D02*
X997998D01*
X996498Y1729709D02*
Y1732709D01*
X994998Y1671209D02*
X997998D01*
X996498Y1669709D02*
Y1672709D01*
X1009998Y1641209D02*
X1012998D01*
X1011498Y1639709D02*
Y1642709D01*
X994998Y1611209D02*
X997998D01*
X996498Y1609709D02*
Y1612709D01*
X979998Y1761209D02*
X982998D01*
X981498Y1759709D02*
Y1762709D01*
X964998Y1731209D02*
X967998D01*
X966498Y1729709D02*
Y1732709D01*
X964998Y1671209D02*
X967998D01*
X966498Y1669709D02*
Y1672709D01*
X979998Y1641209D02*
X982998D01*
X981498Y1639709D02*
Y1642709D01*
X964998Y1611209D02*
X967998D01*
X966498Y1609709D02*
Y1612709D01*
X949998Y1761209D02*
X952998D01*
X951498Y1759709D02*
Y1762709D01*
X934998Y1731209D02*
X937998D01*
X936498Y1729709D02*
Y1732709D01*
X934998Y1671209D02*
X937998D01*
X936498Y1669709D02*
Y1672709D01*
X949998Y1641209D02*
X952998D01*
X951498Y1639709D02*
Y1642709D01*
X934998Y1611209D02*
X937998D01*
X936498Y1609709D02*
Y1612709D01*
X919998Y1761209D02*
X922998D01*
X921498Y1759709D02*
Y1762709D01*
X904998Y1731209D02*
X907998D01*
X906498Y1729709D02*
Y1732709D01*
X904998Y1671209D02*
X907998D01*
X906498Y1669709D02*
Y1672709D01*
X919998Y1641209D02*
X922998D01*
X921498Y1639709D02*
Y1642709D01*
X904998Y1611209D02*
X907998D01*
X906498Y1609709D02*
Y1612709D01*
X889998Y1761209D02*
X892998D01*
X891498Y1759709D02*
Y1762709D01*
X874998Y1731209D02*
X877998D01*
X876498Y1729709D02*
Y1732709D01*
X874998Y1671209D02*
X877998D01*
X876498Y1669709D02*
Y1672709D01*
X889998Y1641209D02*
X892998D01*
X891498Y1639709D02*
Y1642709D01*
X874998Y1611209D02*
X877998D01*
X876498Y1609709D02*
Y1612709D01*
X859998Y1761209D02*
X862998D01*
X861498Y1759709D02*
Y1762709D01*
X844998Y1731209D02*
X847998D01*
X846498Y1729709D02*
Y1732709D01*
X844998Y1671209D02*
X847998D01*
X846498Y1669709D02*
Y1672709D01*
X859998Y1641209D02*
X862998D01*
X861498Y1639709D02*
Y1642709D01*
X844998Y1611209D02*
X847998D01*
X846498Y1609709D02*
Y1612709D01*
X829998Y1761209D02*
X832998D01*
X831498Y1759709D02*
Y1762709D01*
X814998Y1731209D02*
X817998D01*
X816498Y1729709D02*
Y1732709D01*
X814998Y1671209D02*
X817998D01*
X816498Y1669709D02*
Y1672709D01*
X829998Y1641209D02*
X832998D01*
X831498Y1639709D02*
Y1642709D01*
X814998Y1611209D02*
X817998D01*
X816498Y1609709D02*
Y1612709D01*
X799998Y1761209D02*
X802998D01*
X801498Y1759709D02*
Y1762709D01*
X784998Y1731209D02*
X787998D01*
X786498Y1729709D02*
Y1732709D01*
X784998Y1671209D02*
X787998D01*
X786498Y1669709D02*
Y1672709D01*
X799998Y1641209D02*
X802998D01*
X801498Y1639709D02*
Y1642709D01*
X784998Y1611209D02*
X787998D01*
X786498Y1609709D02*
Y1612709D01*
X769998Y1761209D02*
X772998D01*
X771498Y1759709D02*
Y1762709D01*
X754998Y1731209D02*
X757998D01*
X756498Y1729709D02*
Y1732709D01*
X754998Y1671209D02*
X757998D01*
X756498Y1669709D02*
Y1672709D01*
X769998Y1641209D02*
X772998D01*
X771498Y1639709D02*
Y1642709D01*
X754998Y1611209D02*
X757998D01*
X756498Y1609709D02*
Y1612709D01*
X739998Y1761209D02*
X742998D01*
X741498Y1759709D02*
Y1762709D01*
X724998Y1731209D02*
X727998D01*
X726498Y1729709D02*
Y1732709D01*
X724998Y1671209D02*
X727998D01*
X726498Y1669709D02*
Y1672709D01*
X739998Y1641209D02*
X742998D01*
X741498Y1639709D02*
Y1642709D01*
X724998Y1611209D02*
X727998D01*
X726498Y1609709D02*
Y1612709D01*
X709998Y1761209D02*
X712998D01*
X711498Y1759709D02*
Y1762709D01*
X694998Y1731209D02*
X697998D01*
X696498Y1729709D02*
Y1732709D01*
X694998Y1671209D02*
X697998D01*
X696498Y1669709D02*
Y1672709D01*
X709998Y1641209D02*
X712998D01*
X711498Y1639709D02*
Y1642709D01*
X694998Y1611209D02*
X697998D01*
X696498Y1609709D02*
Y1612709D01*
X679998Y1761209D02*
X682998D01*
X681498Y1759709D02*
Y1762709D01*
X664998Y1731209D02*
X667998D01*
X666498Y1729709D02*
Y1732709D01*
X664998Y1671209D02*
X667998D01*
X666498Y1669709D02*
Y1672709D01*
X679998Y1641209D02*
X682998D01*
X681498Y1639709D02*
Y1642709D01*
X664998Y1611209D02*
X667998D01*
X666498Y1609709D02*
Y1612709D01*
X649998Y1761209D02*
X652998D01*
X651498Y1759709D02*
Y1762709D01*
X634998Y1731209D02*
X637998D01*
X636498Y1729709D02*
Y1732709D01*
X634998Y1671209D02*
X637998D01*
X636498Y1669709D02*
Y1672709D01*
X649998Y1641209D02*
X652998D01*
X651498Y1639709D02*
Y1642709D01*
X634998Y1611209D02*
X637998D01*
X636498Y1609709D02*
Y1612709D01*
X619998Y1761209D02*
X622998D01*
X621498Y1759709D02*
Y1762709D01*
X604998Y1731209D02*
X607998D01*
X606498Y1729709D02*
Y1732709D01*
X604998Y1671209D02*
X607998D01*
X606498Y1669709D02*
Y1672709D01*
X619998Y1641209D02*
X622998D01*
X621498Y1639709D02*
Y1642709D01*
X604998Y1611209D02*
X607998D01*
X606498Y1609709D02*
Y1612709D01*
X589998Y1761209D02*
X592998D01*
X591498Y1759709D02*
Y1762709D01*
X574998Y1731209D02*
X577998D01*
X576498Y1729709D02*
Y1732709D01*
X574998Y1671209D02*
X577998D01*
X576498Y1669709D02*
Y1672709D01*
X589998Y1641209D02*
X592998D01*
X591498Y1639709D02*
Y1642709D01*
X574998Y1611209D02*
X577998D01*
X576498Y1609709D02*
Y1612709D01*
X559998Y1761209D02*
X562998D01*
X561498Y1759709D02*
Y1762709D01*
X544998Y1731209D02*
X547998D01*
X546498Y1729709D02*
Y1732709D01*
X544998Y1671209D02*
X547998D01*
X546498Y1669709D02*
Y1672709D01*
X559998Y1641209D02*
X562998D01*
X561498Y1639709D02*
Y1642709D01*
X544998Y1611209D02*
X547998D01*
X546498Y1609709D02*
Y1612709D01*
X529998Y1761209D02*
X532998D01*
X531498Y1759709D02*
Y1762709D01*
X514998Y1731209D02*
X517998D01*
X516498Y1729709D02*
Y1732709D01*
X514998Y1671209D02*
X517998D01*
X516498Y1669709D02*
Y1672709D01*
X529998Y1641209D02*
X532998D01*
X531498Y1639709D02*
Y1642709D01*
X514998Y1611209D02*
X517998D01*
X516498Y1609709D02*
Y1612709D01*
X499998Y1761209D02*
X502998D01*
X501498Y1759709D02*
Y1762709D01*
X484998Y1731209D02*
X487998D01*
X486498Y1729709D02*
Y1732709D01*
X484998Y1671209D02*
X487998D01*
X486498Y1669709D02*
Y1672709D01*
X499998Y1641209D02*
X502998D01*
X501498Y1639709D02*
Y1642709D01*
X484998Y1611209D02*
X487998D01*
X486498Y1609709D02*
Y1612709D01*
X469998Y1761209D02*
X472998D01*
X471498Y1759709D02*
Y1762709D01*
X454998Y1731209D02*
X457998D01*
X456498Y1729709D02*
Y1732709D01*
X454998Y1671209D02*
X457998D01*
X456498Y1669709D02*
Y1672709D01*
X469998Y1641209D02*
X472998D01*
X471498Y1639709D02*
Y1642709D01*
X454998Y1611209D02*
X457998D01*
X456498Y1609709D02*
Y1612709D01*
X439998Y1761209D02*
X442998D01*
X441498Y1759709D02*
Y1762709D01*
X424998Y1731209D02*
X427998D01*
X426498Y1729709D02*
Y1732709D01*
X424998Y1671209D02*
X427998D01*
X426498Y1669709D02*
Y1672709D01*
X439998Y1641209D02*
X442998D01*
X441498Y1639709D02*
Y1642709D01*
X424998Y1611209D02*
X427998D01*
X426498Y1609709D02*
Y1612709D01*
X409998Y1761209D02*
X412998D01*
X411498Y1759709D02*
Y1762709D01*
X394998Y1731209D02*
X397998D01*
X396498Y1729709D02*
Y1732709D01*
X394998Y1671209D02*
X397998D01*
X396498Y1669709D02*
Y1672709D01*
X409998Y1641209D02*
X412998D01*
X411498Y1639709D02*
Y1642709D01*
X394998Y1611209D02*
X397998D01*
X396498Y1609709D02*
Y1612709D01*
X379998Y1761209D02*
X382998D01*
X381498Y1759709D02*
Y1762709D01*
X364998Y1731209D02*
X367998D01*
X366498Y1729709D02*
Y1732709D01*
X364998Y1671209D02*
X367998D01*
X366498Y1669709D02*
Y1672709D01*
X379998Y1641209D02*
X382998D01*
X381498Y1639709D02*
Y1642709D01*
X364998Y1611209D02*
X367998D01*
X366498Y1609709D02*
Y1612709D01*
X349998Y1761209D02*
X352998D01*
X351498Y1759709D02*
Y1762709D01*
X334998Y1731209D02*
X337998D01*
X336498Y1729709D02*
Y1732709D01*
X334998Y1671209D02*
X337998D01*
X336498Y1669709D02*
Y1672709D01*
X349998Y1641209D02*
X352998D01*
X351498Y1639709D02*
Y1642709D01*
X334998Y1611209D02*
X337998D01*
X336498Y1609709D02*
Y1612709D01*
X319998Y1761209D02*
X322998D01*
X321498Y1759709D02*
Y1762709D01*
X304998Y1731209D02*
X307998D01*
X306498Y1729709D02*
Y1732709D01*
X304998Y1671209D02*
X307998D01*
X306498Y1669709D02*
Y1672709D01*
X319998Y1641209D02*
X322998D01*
X321498Y1639709D02*
Y1642709D01*
X304998Y1611209D02*
X307998D01*
X306498Y1609709D02*
Y1612709D01*
X289998Y1761209D02*
X292998D01*
X291498Y1759709D02*
Y1762709D01*
X274998Y1731209D02*
X277998D01*
X276498Y1729709D02*
Y1732709D01*
X274998Y1671209D02*
X277998D01*
X276498Y1669709D02*
Y1672709D01*
X289998Y1641209D02*
X292998D01*
X291498Y1639709D02*
Y1642709D01*
X274998Y1611209D02*
X277998D01*
X276498Y1609709D02*
Y1612709D01*
X259998Y1761209D02*
X262998D01*
X261498Y1759709D02*
Y1762709D01*
X244998Y1731209D02*
X247998D01*
X246498Y1729709D02*
Y1732709D01*
X244998Y1671209D02*
X247998D01*
X246498Y1669709D02*
Y1672709D01*
X259998Y1641209D02*
X262998D01*
X261498Y1639709D02*
Y1642709D01*
X244998Y1611209D02*
X247998D01*
X246498Y1609709D02*
Y1612709D01*
X229998Y1761209D02*
X232998D01*
X231498Y1759709D02*
Y1762709D01*
X214998Y1731209D02*
X217998D01*
X216498Y1729709D02*
Y1732709D01*
X214998Y1671209D02*
X217998D01*
X216498Y1669709D02*
Y1672709D01*
X229998Y1641209D02*
X232998D01*
X231498Y1639709D02*
Y1642709D01*
X214998Y1611209D02*
X217998D01*
X216498Y1609709D02*
Y1612709D01*
X199998Y1761209D02*
X202998D01*
X201498Y1759709D02*
Y1762709D01*
X184998Y1731209D02*
X187998D01*
X186498Y1729709D02*
Y1732709D01*
X184998Y1671209D02*
X187998D01*
X186498Y1669709D02*
Y1672709D01*
X199998Y1641209D02*
X202998D01*
X201498Y1639709D02*
Y1642709D01*
X184998Y1611209D02*
X187998D01*
X186498Y1609709D02*
Y1612709D01*
X169998Y1761209D02*
X172998D01*
X171498Y1759709D02*
Y1762709D01*
X154998Y1731209D02*
X157998D01*
X156498Y1729709D02*
Y1732709D01*
X154998Y1671209D02*
X157998D01*
X156498Y1669709D02*
Y1672709D01*
X169998Y1641209D02*
X172998D01*
X171498Y1639709D02*
Y1642709D01*
X154998Y1611209D02*
X157998D01*
X156498Y1609709D02*
Y1612709D01*
X139998Y1761209D02*
X142998D01*
X141498Y1759709D02*
Y1762709D01*
X124998Y1731209D02*
X127998D01*
X126498Y1729709D02*
Y1732709D01*
X124998Y1671209D02*
X127998D01*
X126498Y1669709D02*
Y1672709D01*
X139998Y1641209D02*
X142998D01*
X141498Y1639709D02*
Y1642709D01*
X124998Y1611209D02*
X127998D01*
X126498Y1609709D02*
Y1612709D01*
X109998Y1761209D02*
X112998D01*
X111498Y1759709D02*
Y1762709D01*
X109998Y1641209D02*
X112998D01*
X111498Y1639709D02*
Y1642709D01*
X94998Y1611209D02*
X97998D01*
X96498Y1609709D02*
Y1612709D01*
X1054998Y561209D02*
X1057998D01*
X1056498Y559709D02*
Y562709D01*
X1024998Y561209D02*
X1027998D01*
X1026498Y559709D02*
Y562709D01*
X1009998Y711209D02*
X1012998D01*
X1011498Y709709D02*
Y712709D01*
X994998Y681209D02*
X997998D01*
X996498Y679709D02*
Y682709D01*
X1009998Y591209D02*
X1012998D01*
X1011498Y589709D02*
Y592709D01*
X994998Y561209D02*
X997998D01*
X996498Y559709D02*
Y562709D01*
X979998Y711209D02*
X982998D01*
X981498Y709709D02*
Y712709D01*
X979998Y591209D02*
X982998D01*
X981498Y589709D02*
Y592709D01*
X964998Y561209D02*
X967998D01*
X966498Y559709D02*
Y562709D01*
X949998Y711209D02*
X952998D01*
X951498Y709709D02*
Y712709D01*
X934998Y681209D02*
X937998D01*
X936498Y679709D02*
Y682709D01*
X949998Y591209D02*
X952998D01*
X951498Y589709D02*
Y592709D01*
X934998Y561209D02*
X937998D01*
X936498Y559709D02*
Y562709D01*
X919998Y711209D02*
X922998D01*
X921498Y709709D02*
Y712709D01*
X919998Y591209D02*
X922998D01*
X921498Y589709D02*
Y592709D01*
X904998Y561209D02*
X907998D01*
X906498Y559709D02*
Y562709D01*
X889998Y711209D02*
X892998D01*
X891498Y709709D02*
Y712709D01*
X874998Y681209D02*
X877998D01*
X876498Y679709D02*
Y682709D01*
X889998Y591209D02*
X892998D01*
X891498Y589709D02*
Y592709D01*
X874998Y561209D02*
X877998D01*
X876498Y559709D02*
Y562709D01*
X859998Y711209D02*
X862998D01*
X861498Y709709D02*
Y712709D01*
X844998Y681209D02*
X847998D01*
X846498Y679709D02*
Y682709D01*
X859998Y591209D02*
X862998D01*
X861498Y589709D02*
Y592709D01*
X844998Y561209D02*
X847998D01*
X846498Y559709D02*
Y562709D01*
X829998Y711209D02*
X832998D01*
X831498Y709709D02*
Y712709D01*
X814998Y681209D02*
X817998D01*
X816498Y679709D02*
Y682709D01*
X829998Y591209D02*
X832998D01*
X831498Y589709D02*
Y592709D01*
X814998Y561209D02*
X817998D01*
X816498Y559709D02*
Y562709D01*
X799998Y711209D02*
X802998D01*
X801498Y709709D02*
Y712709D01*
X784998Y681209D02*
X787998D01*
X786498Y679709D02*
Y682709D01*
X799998Y591209D02*
X802998D01*
X801498Y589709D02*
Y592709D01*
X784998Y561209D02*
X787998D01*
X786498Y559709D02*
Y562709D01*
X769998Y711209D02*
X772998D01*
X771498Y709709D02*
Y712709D01*
X754998Y681209D02*
X757998D01*
X756498Y679709D02*
Y682709D01*
X769998Y591209D02*
X772998D01*
X771498Y589709D02*
Y592709D01*
X754998Y561209D02*
X757998D01*
X756498Y559709D02*
Y562709D01*
X739998Y711209D02*
X742998D01*
X741498Y709709D02*
Y712709D01*
X724998Y681209D02*
X727998D01*
X726498Y679709D02*
Y682709D01*
X739998Y591209D02*
X742998D01*
X741498Y589709D02*
Y592709D01*
X724998Y561209D02*
X727998D01*
X726498Y559709D02*
Y562709D01*
X709998Y711209D02*
X712998D01*
X711498Y709709D02*
Y712709D01*
X694998Y681209D02*
X697998D01*
X696498Y679709D02*
Y682709D01*
X709998Y591209D02*
X712998D01*
X711498Y589709D02*
Y592709D01*
X694998Y561209D02*
X697998D01*
X696498Y559709D02*
Y562709D01*
X679998Y711209D02*
X682998D01*
X681498Y709709D02*
Y712709D01*
X664998Y681209D02*
X667998D01*
X666498Y679709D02*
Y682709D01*
X679998Y591209D02*
X682998D01*
X681498Y589709D02*
Y592709D01*
X664998Y561209D02*
X667998D01*
X666498Y559709D02*
Y562709D01*
X649998Y711209D02*
X652998D01*
X651498Y709709D02*
Y712709D01*
X634998Y681209D02*
X637998D01*
X636498Y679709D02*
Y682709D01*
X649998Y591209D02*
X652998D01*
X651498Y589709D02*
Y592709D01*
X634998Y561209D02*
X637998D01*
X636498Y559709D02*
Y562709D01*
X619998Y711209D02*
X622998D01*
X621498Y709709D02*
Y712709D01*
X604998Y681209D02*
X607998D01*
X606498Y679709D02*
Y682709D01*
X619998Y591209D02*
X622998D01*
X621498Y589709D02*
Y592709D01*
X604998Y561209D02*
X607998D01*
X606498Y559709D02*
Y562709D01*
X589998Y711209D02*
X592998D01*
X591498Y709709D02*
Y712709D01*
X574998Y681209D02*
X577998D01*
X576498Y679709D02*
Y682709D01*
X589998Y591209D02*
X592998D01*
X591498Y589709D02*
Y592709D01*
X574998Y561209D02*
X577998D01*
X576498Y559709D02*
Y562709D01*
X559998Y711209D02*
X562998D01*
X561498Y709709D02*
Y712709D01*
X544998Y681209D02*
X547998D01*
X546498Y679709D02*
Y682709D01*
X559998Y591209D02*
X562998D01*
X561498Y589709D02*
Y592709D01*
X544998Y561209D02*
X547998D01*
X546498Y559709D02*
Y562709D01*
X529998Y711209D02*
X532998D01*
X531498Y709709D02*
Y712709D01*
X514998Y681209D02*
X517998D01*
X516498Y679709D02*
Y682709D01*
X529998Y591209D02*
X532998D01*
X531498Y589709D02*
Y592709D01*
X514998Y561209D02*
X517998D01*
X516498Y559709D02*
Y562709D01*
X499998Y711209D02*
X502998D01*
X501498Y709709D02*
Y712709D01*
X484998Y681209D02*
X487998D01*
X486498Y679709D02*
Y682709D01*
X499998Y591209D02*
X502998D01*
X501498Y589709D02*
Y592709D01*
X484998Y561209D02*
X487998D01*
X486498Y559709D02*
Y562709D01*
X469998Y711209D02*
X472998D01*
X471498Y709709D02*
Y712709D01*
X454998Y681209D02*
X457998D01*
X456498Y679709D02*
Y682709D01*
X469998Y591209D02*
X472998D01*
X471498Y589709D02*
Y592709D01*
X454998Y561209D02*
X457998D01*
X456498Y559709D02*
Y562709D01*
X439998Y711209D02*
X442998D01*
X441498Y709709D02*
Y712709D01*
X424998Y681209D02*
X427998D01*
X426498Y679709D02*
Y682709D01*
X439998Y591209D02*
X442998D01*
X441498Y589709D02*
Y592709D01*
X424998Y561209D02*
X427998D01*
X426498Y559709D02*
Y562709D01*
X409998Y711209D02*
X412998D01*
X411498Y709709D02*
Y712709D01*
X394998Y681209D02*
X397998D01*
X396498Y679709D02*
Y682709D01*
X409998Y591209D02*
X412998D01*
X411498Y589709D02*
Y592709D01*
X394998Y561209D02*
X397998D01*
X396498Y559709D02*
Y562709D01*
X379998Y711209D02*
X382998D01*
X381498Y709709D02*
Y712709D01*
X364998Y681209D02*
X367998D01*
X366498Y679709D02*
Y682709D01*
X379998Y591209D02*
X382998D01*
X381498Y589709D02*
Y592709D01*
X364998Y561209D02*
X367998D01*
X366498Y559709D02*
Y562709D01*
X349998Y711209D02*
X352998D01*
X351498Y709709D02*
Y712709D01*
X334998Y681209D02*
X337998D01*
X336498Y679709D02*
Y682709D01*
X349998Y591209D02*
X352998D01*
X351498Y589709D02*
Y592709D01*
X334998Y561209D02*
X337998D01*
X336498Y559709D02*
Y562709D01*
X319998Y711209D02*
X322998D01*
X321498Y709709D02*
Y712709D01*
X304998Y681209D02*
X307998D01*
X306498Y679709D02*
Y682709D01*
X319998Y591209D02*
X322998D01*
X321498Y589709D02*
Y592709D01*
X304998Y561209D02*
X307998D01*
X306498Y559709D02*
Y562709D01*
X289998Y711209D02*
X292998D01*
X291498Y709709D02*
Y712709D01*
X274998Y681209D02*
X277998D01*
X276498Y679709D02*
Y682709D01*
X289998Y591209D02*
X292998D01*
X291498Y589709D02*
Y592709D01*
X274998Y561209D02*
X277998D01*
X276498Y559709D02*
Y562709D01*
X259998Y711209D02*
X262998D01*
X261498Y709709D02*
Y712709D01*
X244998Y681209D02*
X247998D01*
X246498Y679709D02*
Y682709D01*
X259998Y591209D02*
X262998D01*
X261498Y589709D02*
Y592709D01*
X244998Y561209D02*
X247998D01*
X246498Y559709D02*
Y562709D01*
X229998Y711209D02*
X232998D01*
X231498Y709709D02*
Y712709D01*
X214998Y681209D02*
X217998D01*
X216498Y679709D02*
Y682709D01*
X229998Y591209D02*
X232998D01*
X231498Y589709D02*
Y592709D01*
X214998Y561209D02*
X217998D01*
X216498Y559709D02*
Y562709D01*
X199998Y711209D02*
X202998D01*
X201498Y709709D02*
Y712709D01*
X184998Y681209D02*
X187998D01*
X186498Y679709D02*
Y682709D01*
X199998Y591209D02*
X202998D01*
X201498Y589709D02*
Y592709D01*
X184998Y561209D02*
X187998D01*
X186498Y559709D02*
Y562709D01*
X169998Y711209D02*
X172998D01*
X171498Y709709D02*
Y712709D01*
X154998Y681209D02*
X157998D01*
X156498Y679709D02*
Y682709D01*
X169998Y591209D02*
X172998D01*
X171498Y589709D02*
Y592709D01*
X154998Y561209D02*
X157998D01*
X156498Y559709D02*
Y562709D01*
X139998Y711209D02*
X142998D01*
X141498Y709709D02*
Y712709D01*
X124998Y681209D02*
X127998D01*
X126498Y679709D02*
Y682709D01*
X139998Y591209D02*
X142998D01*
X141498Y589709D02*
Y592709D01*
X124998Y561209D02*
X127998D01*
X126498Y559709D02*
Y562709D01*
X109998Y711209D02*
X112998D01*
X111498Y709709D02*
Y712709D01*
X94998Y681209D02*
X97998D01*
X96498Y679709D02*
Y682709D01*
X109998Y591209D02*
X112998D01*
X111498Y589709D02*
Y592709D01*
X94998Y561209D02*
X97998D01*
X96498Y559709D02*
Y562709D01*
X79998Y711209D02*
X82998D01*
X81498Y709709D02*
Y712709D01*
X79998Y591209D02*
X82998D01*
X81498Y589709D02*
Y592709D01*
X64998Y561209D02*
X67998D01*
X66498Y559709D02*
Y562709D01*
X34998Y561209D02*
X37998D01*
X36498Y559709D02*
Y562709D01*
X1054998Y381209D02*
X1057998D01*
X1056498Y379709D02*
Y382709D01*
X1024998Y381209D02*
X1027998D01*
X1026498Y379709D02*
Y382709D01*
X994998Y501209D02*
X997998D01*
X996498Y499709D02*
Y502709D01*
X1009998Y411209D02*
X1012998D01*
X1011498Y409709D02*
Y412709D01*
X994998Y381209D02*
X997998D01*
X996498Y379709D02*
Y382709D01*
X964998Y501209D02*
X967998D01*
X966498Y499709D02*
Y502709D01*
X979998Y411209D02*
X982998D01*
X981498Y409709D02*
Y412709D01*
X964998Y381209D02*
X967998D01*
X966498Y379709D02*
Y382709D01*
X934998Y501209D02*
X937998D01*
X936498Y499709D02*
Y502709D01*
X949998Y411209D02*
X952998D01*
X951498Y409709D02*
Y412709D01*
X934998Y381209D02*
X937998D01*
X936498Y379709D02*
Y382709D01*
X904998Y501209D02*
X907998D01*
X906498Y499709D02*
Y502709D01*
X919998Y411209D02*
X922998D01*
X921498Y409709D02*
Y412709D01*
X904998Y381209D02*
X907998D01*
X906498Y379709D02*
Y382709D01*
X874998Y501209D02*
X877998D01*
X876498Y499709D02*
Y502709D01*
X889998Y411209D02*
X892998D01*
X891498Y409709D02*
Y412709D01*
X874998Y381209D02*
X877998D01*
X876498Y379709D02*
Y382709D01*
X844998Y501209D02*
X847998D01*
X846498Y499709D02*
Y502709D01*
X859998Y411209D02*
X862998D01*
X861498Y409709D02*
Y412709D01*
X844998Y381209D02*
X847998D01*
X846498Y379709D02*
Y382709D01*
X814998Y501209D02*
X817998D01*
X816498Y499709D02*
Y502709D01*
X829998Y411209D02*
X832998D01*
X831498Y409709D02*
Y412709D01*
X814998Y381209D02*
X817998D01*
X816498Y379709D02*
Y382709D01*
X784998Y501209D02*
X787998D01*
X786498Y499709D02*
Y502709D01*
X799998Y411209D02*
X802998D01*
X801498Y409709D02*
Y412709D01*
X784998Y381209D02*
X787998D01*
X786498Y379709D02*
Y382709D01*
X754998Y501209D02*
X757998D01*
X756498Y499709D02*
Y502709D01*
X769998Y411209D02*
X772998D01*
X771498Y409709D02*
Y412709D01*
X754998Y381209D02*
X757998D01*
X756498Y379709D02*
Y382709D01*
X724998Y501209D02*
X727998D01*
X726498Y499709D02*
Y502709D01*
X739998Y411209D02*
X742998D01*
X741498Y409709D02*
Y412709D01*
X724998Y381209D02*
X727998D01*
X726498Y379709D02*
Y382709D01*
X694998Y501209D02*
X697998D01*
X696498Y499709D02*
Y502709D01*
X709998Y411209D02*
X712998D01*
X711498Y409709D02*
Y412709D01*
X694998Y381209D02*
X697998D01*
X696498Y379709D02*
Y382709D01*
X664998Y501209D02*
X667998D01*
X666498Y499709D02*
Y502709D01*
X679998Y411209D02*
X682998D01*
X681498Y409709D02*
Y412709D01*
X664998Y381209D02*
X667998D01*
X666498Y379709D02*
Y382709D01*
X634998Y501209D02*
X637998D01*
X636498Y499709D02*
Y502709D01*
X649998Y411209D02*
X652998D01*
X651498Y409709D02*
Y412709D01*
X634998Y381209D02*
X637998D01*
X636498Y379709D02*
Y382709D01*
X604998Y501209D02*
X607998D01*
X606498Y499709D02*
Y502709D01*
X619998Y411209D02*
X622998D01*
X621498Y409709D02*
Y412709D01*
X604998Y381209D02*
X607998D01*
X606498Y379709D02*
Y382709D01*
X574998Y501209D02*
X577998D01*
X576498Y499709D02*
Y502709D01*
X589998Y411209D02*
X592998D01*
X591498Y409709D02*
Y412709D01*
X574998Y381209D02*
X577998D01*
X576498Y379709D02*
Y382709D01*
X544998Y501209D02*
X547998D01*
X546498Y499709D02*
Y502709D01*
X559998Y411209D02*
X562998D01*
X561498Y409709D02*
Y412709D01*
X544998Y381209D02*
X547998D01*
X546498Y379709D02*
Y382709D01*
X514998Y501209D02*
X517998D01*
X516498Y499709D02*
Y502709D01*
X529998Y411209D02*
X532998D01*
X531498Y409709D02*
Y412709D01*
X514998Y381209D02*
X517998D01*
X516498Y379709D02*
Y382709D01*
X484998Y501209D02*
X487998D01*
X486498Y499709D02*
Y502709D01*
X499998Y411209D02*
X502998D01*
X501498Y409709D02*
Y412709D01*
X484998Y381209D02*
X487998D01*
X486498Y379709D02*
Y382709D01*
X454998Y501209D02*
X457998D01*
X456498Y499709D02*
Y502709D01*
X469998Y411209D02*
X472998D01*
X471498Y409709D02*
Y412709D01*
X454998Y381209D02*
X457998D01*
X456498Y379709D02*
Y382709D01*
X424998Y501209D02*
X427998D01*
X426498Y499709D02*
Y502709D01*
X439998Y411209D02*
X442998D01*
X441498Y409709D02*
Y412709D01*
X424998Y381209D02*
X427998D01*
X426498Y379709D02*
Y382709D01*
X394998Y501209D02*
X397998D01*
X396498Y499709D02*
Y502709D01*
X409998Y411209D02*
X412998D01*
X411498Y409709D02*
Y412709D01*
X394998Y381209D02*
X397998D01*
X396498Y379709D02*
Y382709D01*
X364998Y501209D02*
X367998D01*
X366498Y499709D02*
Y502709D01*
X379998Y411209D02*
X382998D01*
X381498Y409709D02*
Y412709D01*
X364998Y381209D02*
X367998D01*
X366498Y379709D02*
Y382709D01*
X334998Y501209D02*
X337998D01*
X336498Y499709D02*
Y502709D01*
X349998Y411209D02*
X352998D01*
X351498Y409709D02*
Y412709D01*
X334998Y381209D02*
X337998D01*
X336498Y379709D02*
Y382709D01*
X304998Y501209D02*
X307998D01*
X306498Y499709D02*
Y502709D01*
X319998Y411209D02*
X322998D01*
X321498Y409709D02*
Y412709D01*
X304998Y381209D02*
X307998D01*
X306498Y379709D02*
Y382709D01*
X274998Y501209D02*
X277998D01*
X276498Y499709D02*
Y502709D01*
X289998Y411209D02*
X292998D01*
X291498Y409709D02*
Y412709D01*
X274998Y381209D02*
X277998D01*
X276498Y379709D02*
Y382709D01*
X244998Y501209D02*
X247998D01*
X246498Y499709D02*
Y502709D01*
X259998Y411209D02*
X262998D01*
X261498Y409709D02*
Y412709D01*
X244998Y381209D02*
X247998D01*
X246498Y379709D02*
Y382709D01*
X214998Y501209D02*
X217998D01*
X216498Y499709D02*
Y502709D01*
X229998Y411209D02*
X232998D01*
X231498Y409709D02*
Y412709D01*
X214998Y381209D02*
X217998D01*
X216498Y379709D02*
Y382709D01*
X184998Y501209D02*
X187998D01*
X186498Y499709D02*
Y502709D01*
X199998Y411209D02*
X202998D01*
X201498Y409709D02*
Y412709D01*
X184998Y381209D02*
X187998D01*
X186498Y379709D02*
Y382709D01*
X154998Y501209D02*
X157998D01*
X156498Y499709D02*
Y502709D01*
X169998Y411209D02*
X172998D01*
X171498Y409709D02*
Y412709D01*
X154998Y381209D02*
X157998D01*
X156498Y379709D02*
Y382709D01*
X124998Y501209D02*
X127998D01*
X126498Y499709D02*
Y502709D01*
X139998Y411209D02*
X142998D01*
X141498Y409709D02*
Y412709D01*
X124998Y381209D02*
X127998D01*
X126498Y379709D02*
Y382709D01*
X94998Y501209D02*
X97998D01*
X96498Y499709D02*
Y502709D01*
X109998Y411209D02*
X112998D01*
X111498Y409709D02*
Y412709D01*
X94998Y381209D02*
X97998D01*
X96498Y379709D02*
Y382709D01*
X79998Y411209D02*
X82998D01*
X81498Y409709D02*
Y412709D01*
X64998Y381209D02*
X67998D01*
X66498Y379709D02*
Y382709D01*
X1054998Y171209D02*
X1057998D01*
X1056498Y169709D02*
Y172709D01*
X1024998Y171209D02*
X1027998D01*
X1026498Y169709D02*
Y172709D01*
X1009998Y321209D02*
X1012998D01*
X1011498Y319709D02*
Y322709D01*
X994998Y291209D02*
X997998D01*
X996498Y289709D02*
Y292709D01*
X1009998Y201209D02*
X1012998D01*
X1011498Y199709D02*
Y202709D01*
X994998Y171209D02*
X997998D01*
X996498Y169709D02*
Y172709D01*
X979998Y321209D02*
X982998D01*
X981498Y319709D02*
Y322709D01*
X964998Y291209D02*
X967998D01*
X966498Y289709D02*
Y292709D01*
X979998Y201209D02*
X982998D01*
X981498Y199709D02*
Y202709D01*
X964998Y171209D02*
X967998D01*
X966498Y169709D02*
Y172709D01*
X949998Y321209D02*
X952998D01*
X951498Y319709D02*
Y322709D01*
X934998Y291209D02*
X937998D01*
X936498Y289709D02*
Y292709D01*
X949998Y201209D02*
X952998D01*
X951498Y199709D02*
Y202709D01*
X934998Y171209D02*
X937998D01*
X936498Y169709D02*
Y172709D01*
X919998Y321209D02*
X922998D01*
X921498Y319709D02*
Y322709D01*
X904998Y291209D02*
X907998D01*
X906498Y289709D02*
Y292709D01*
X919998Y201209D02*
X922998D01*
X921498Y199709D02*
Y202709D01*
X904998Y171209D02*
X907998D01*
X906498Y169709D02*
Y172709D01*
X889998Y321209D02*
X892998D01*
X891498Y319709D02*
Y322709D01*
X874998Y291209D02*
X877998D01*
X876498Y289709D02*
Y292709D01*
X889998Y201209D02*
X892998D01*
X891498Y199709D02*
Y202709D01*
X874998Y171209D02*
X877998D01*
X876498Y169709D02*
Y172709D01*
X859998Y321209D02*
X862998D01*
X861498Y319709D02*
Y322709D01*
X844998Y291209D02*
X847998D01*
X846498Y289709D02*
Y292709D01*
X859998Y201209D02*
X862998D01*
X861498Y199709D02*
Y202709D01*
X844998Y171209D02*
X847998D01*
X846498Y169709D02*
Y172709D01*
X829998Y321209D02*
X832998D01*
X831498Y319709D02*
Y322709D01*
X814998Y291209D02*
X817998D01*
X816498Y289709D02*
Y292709D01*
X829998Y201209D02*
X832998D01*
X831498Y199709D02*
Y202709D01*
X814998Y171209D02*
X817998D01*
X816498Y169709D02*
Y172709D01*
X799998Y321209D02*
X802998D01*
X801498Y319709D02*
Y322709D01*
X784998Y291209D02*
X787998D01*
X786498Y289709D02*
Y292709D01*
X799998Y201209D02*
X802998D01*
X801498Y199709D02*
Y202709D01*
X784998Y171209D02*
X787998D01*
X786498Y169709D02*
Y172709D01*
X769998Y321209D02*
X772998D01*
X771498Y319709D02*
Y322709D01*
X754998Y291209D02*
X757998D01*
X756498Y289709D02*
Y292709D01*
X769998Y201209D02*
X772998D01*
X771498Y199709D02*
Y202709D01*
X754998Y171209D02*
X757998D01*
X756498Y169709D02*
Y172709D01*
X739998Y321209D02*
X742998D01*
X741498Y319709D02*
Y322709D01*
X724998Y291209D02*
X727998D01*
X726498Y289709D02*
Y292709D01*
X739998Y201209D02*
X742998D01*
X741498Y199709D02*
Y202709D01*
X724998Y171209D02*
X727998D01*
X726498Y169709D02*
Y172709D01*
X709998Y321209D02*
X712998D01*
X711498Y319709D02*
Y322709D01*
X694998Y291209D02*
X697998D01*
X696498Y289709D02*
Y292709D01*
X709998Y201209D02*
X712998D01*
X711498Y199709D02*
Y202709D01*
X694998Y171209D02*
X697998D01*
X696498Y169709D02*
Y172709D01*
X679998Y321209D02*
X682998D01*
X681498Y319709D02*
Y322709D01*
X664998Y291209D02*
X667998D01*
X666498Y289709D02*
Y292709D01*
X679998Y201209D02*
X682998D01*
X681498Y199709D02*
Y202709D01*
X664998Y171209D02*
X667998D01*
X666498Y169709D02*
Y172709D01*
X649998Y321209D02*
X652998D01*
X651498Y319709D02*
Y322709D01*
X634998Y291209D02*
X637998D01*
X636498Y289709D02*
Y292709D01*
X649998Y201209D02*
X652998D01*
X651498Y199709D02*
Y202709D01*
X634998Y171209D02*
X637998D01*
X636498Y169709D02*
Y172709D01*
X619998Y321209D02*
X622998D01*
X621498Y319709D02*
Y322709D01*
X604998Y291209D02*
X607998D01*
X606498Y289709D02*
Y292709D01*
X619998Y201209D02*
X622998D01*
X621498Y199709D02*
Y202709D01*
X604998Y171209D02*
X607998D01*
X606498Y169709D02*
Y172709D01*
X589998Y321209D02*
X592998D01*
X591498Y319709D02*
Y322709D01*
X574998Y291209D02*
X577998D01*
X576498Y289709D02*
Y292709D01*
X589998Y201209D02*
X592998D01*
X591498Y199709D02*
Y202709D01*
X574998Y171209D02*
X577998D01*
X576498Y169709D02*
Y172709D01*
X559998Y321209D02*
X562998D01*
X561498Y319709D02*
Y322709D01*
X544998Y291209D02*
X547998D01*
X546498Y289709D02*
Y292709D01*
X559998Y201209D02*
X562998D01*
X561498Y199709D02*
Y202709D01*
X544998Y171209D02*
X547998D01*
X546498Y169709D02*
Y172709D01*
X529998Y321209D02*
X532998D01*
X531498Y319709D02*
Y322709D01*
X514998Y291209D02*
X517998D01*
X516498Y289709D02*
Y292709D01*
X529998Y201209D02*
X532998D01*
X531498Y199709D02*
Y202709D01*
X514998Y171209D02*
X517998D01*
X516498Y169709D02*
Y172709D01*
X499998Y321209D02*
X502998D01*
X501498Y319709D02*
Y322709D01*
X484998Y291209D02*
X487998D01*
X486498Y289709D02*
Y292709D01*
X499998Y201209D02*
X502998D01*
X501498Y199709D02*
Y202709D01*
X484998Y171209D02*
X487998D01*
X486498Y169709D02*
Y172709D01*
X469998Y321209D02*
X472998D01*
X471498Y319709D02*
Y322709D01*
X454998Y291209D02*
X457998D01*
X456498Y289709D02*
Y292709D01*
X469998Y201209D02*
X472998D01*
X471498Y199709D02*
Y202709D01*
X454998Y171209D02*
X457998D01*
X456498Y169709D02*
Y172709D01*
X439998Y321209D02*
X442998D01*
X441498Y319709D02*
Y322709D01*
X424998Y291209D02*
X427998D01*
X426498Y289709D02*
Y292709D01*
X439998Y201209D02*
X442998D01*
X441498Y199709D02*
Y202709D01*
X424998Y171209D02*
X427998D01*
X426498Y169709D02*
Y172709D01*
X409998Y321209D02*
X412998D01*
X411498Y319709D02*
Y322709D01*
X394998Y291209D02*
X397998D01*
X396498Y289709D02*
Y292709D01*
X409998Y201209D02*
X412998D01*
X411498Y199709D02*
Y202709D01*
X394998Y171209D02*
X397998D01*
X396498Y169709D02*
Y172709D01*
X379998Y321209D02*
X382998D01*
X381498Y319709D02*
Y322709D01*
X364998Y291209D02*
X367998D01*
X366498Y289709D02*
Y292709D01*
X379998Y201209D02*
X382998D01*
X381498Y199709D02*
Y202709D01*
X364998Y171209D02*
X367998D01*
X366498Y169709D02*
Y172709D01*
X349998Y321209D02*
X352998D01*
X351498Y319709D02*
Y322709D01*
X334998Y291209D02*
X337998D01*
X336498Y289709D02*
Y292709D01*
X349998Y201209D02*
X352998D01*
X351498Y199709D02*
Y202709D01*
X334998Y171209D02*
X337998D01*
X336498Y169709D02*
Y172709D01*
X319998Y321209D02*
X322998D01*
X321498Y319709D02*
Y322709D01*
X304998Y291209D02*
X307998D01*
X306498Y289709D02*
Y292709D01*
X319998Y201209D02*
X322998D01*
X321498Y199709D02*
Y202709D01*
X304998Y171209D02*
X307998D01*
X306498Y169709D02*
Y172709D01*
X289998Y321209D02*
X292998D01*
X291498Y319709D02*
Y322709D01*
X274998Y291209D02*
X277998D01*
X276498Y289709D02*
Y292709D01*
X289998Y201209D02*
X292998D01*
X291498Y199709D02*
Y202709D01*
X274998Y171209D02*
X277998D01*
X276498Y169709D02*
Y172709D01*
X259998Y321209D02*
X262998D01*
X261498Y319709D02*
Y322709D01*
X244998Y291209D02*
X247998D01*
X246498Y289709D02*
Y292709D01*
X259998Y201209D02*
X262998D01*
X261498Y199709D02*
Y202709D01*
X244998Y171209D02*
X247998D01*
X246498Y169709D02*
Y172709D01*
X229998Y321209D02*
X232998D01*
X231498Y319709D02*
Y322709D01*
X214998Y291209D02*
X217998D01*
X216498Y289709D02*
Y292709D01*
X229998Y201209D02*
X232998D01*
X231498Y199709D02*
Y202709D01*
X214998Y171209D02*
X217998D01*
X216498Y169709D02*
Y172709D01*
X199998Y321209D02*
X202998D01*
X201498Y319709D02*
Y322709D01*
X184998Y291209D02*
X187998D01*
X186498Y289709D02*
Y292709D01*
X199998Y201209D02*
X202998D01*
X201498Y199709D02*
Y202709D01*
X184998Y171209D02*
X187998D01*
X186498Y169709D02*
Y172709D01*
X169998Y321209D02*
X172998D01*
X171498Y319709D02*
Y322709D01*
X154998Y291209D02*
X157998D01*
X156498Y289709D02*
Y292709D01*
X169998Y201209D02*
X172998D01*
X171498Y199709D02*
Y202709D01*
X154998Y171209D02*
X157998D01*
X156498Y169709D02*
Y172709D01*
X139998Y321209D02*
X142998D01*
X141498Y319709D02*
Y322709D01*
X124998Y291209D02*
X127998D01*
X126498Y289709D02*
Y292709D01*
X139998Y201209D02*
X142998D01*
X141498Y199709D02*
Y202709D01*
X124998Y171209D02*
X127998D01*
X126498Y169709D02*
Y172709D01*
X109998Y321209D02*
X112998D01*
X111498Y319709D02*
Y322709D01*
X94998Y291209D02*
X97998D01*
X96498Y289709D02*
Y292709D01*
X109998Y201209D02*
X112998D01*
X111498Y199709D02*
Y202709D01*
X94998Y171209D02*
X97998D01*
X96498Y169709D02*
Y172709D01*
X79998Y321209D02*
X82998D01*
X81498Y319709D02*
Y322709D01*
X64998Y171209D02*
X67998D01*
X66498Y169709D02*
Y172709D01*
X34998Y171209D02*
X37998D01*
X36498Y169709D02*
Y172709D01*
X1089500Y2498500D02*
X1092500D01*
X1091000Y2497000D02*
Y2500000D01*
X1089500Y2513500D02*
X1092500D01*
X1091000Y2512000D02*
Y2515000D01*
X1079500Y2506000D02*
X1082500D01*
X1081000Y2504500D02*
Y2507500D01*
X1069500Y2498500D02*
X1072500D01*
X1071000Y2497000D02*
Y2500000D01*
X1069500Y2513500D02*
X1072500D01*
X1071000Y2512000D02*
Y2515000D01*
X1059500Y2506000D02*
X1062500D01*
X1061000Y2504500D02*
Y2507500D01*
X1049500Y2498500D02*
X1052500D01*
X1051000Y2497000D02*
Y2500000D01*
X1049500Y2513500D02*
X1052500D01*
X1051000Y2512000D02*
Y2515000D01*
X1039500Y2581000D02*
X1042500D01*
X1041000Y2579500D02*
Y2582500D01*
X1039500Y2429200D02*
X1042500D01*
X1041000Y2427700D02*
Y2430700D01*
X58500Y2580000D02*
X61500D01*
X60000Y2578500D02*
Y2581500D01*
X58500Y2428200D02*
X61500D01*
X60000Y2426700D02*
Y2429700D01*
X8500Y2497500D02*
X11500D01*
X10000Y2496000D02*
Y2499000D01*
X8500Y2512500D02*
X11500D01*
X10000Y2511000D02*
Y2514000D01*
X18500Y2505000D02*
X21500D01*
X20000Y2503500D02*
Y2506500D01*
X28500Y2497500D02*
X31500D01*
X30000Y2496000D02*
Y2499000D01*
X28500Y2512500D02*
X31500D01*
X30000Y2511000D02*
Y2514000D01*
X38500Y2505000D02*
X41500D01*
X40000Y2503500D02*
Y2506500D01*
X48500Y2497500D02*
X51500D01*
X50000Y2496000D02*
Y2499000D01*
X48500Y2512500D02*
X51500D01*
X50000Y2511000D02*
Y2514000D01*
X1049500Y2313500D02*
X1052500D01*
X1051000Y2312000D02*
Y2315000D01*
X1049500Y2298500D02*
X1052500D01*
X1051000Y2297000D02*
Y2300000D01*
X1059500Y2306000D02*
X1062500D01*
X1061000Y2304500D02*
Y2307500D01*
X1069500Y2313500D02*
X1072500D01*
X1071000Y2312000D02*
Y2315000D01*
X1069500Y2298500D02*
X1072500D01*
X1071000Y2297000D02*
Y2300000D01*
X1079500Y2306000D02*
X1082500D01*
X1081000Y2304500D02*
Y2307500D01*
X1089500Y2313500D02*
X1092500D01*
X1091000Y2312000D02*
Y2315000D01*
X1089500Y2298500D02*
X1092500D01*
X1091000Y2297000D02*
Y2300000D01*
X48500Y2312500D02*
X51500D01*
X50000Y2311000D02*
Y2314000D01*
X48500Y2297500D02*
X51500D01*
X50000Y2296000D02*
Y2299000D01*
X38500Y2305000D02*
X41500D01*
X40000Y2303500D02*
Y2306500D01*
X28500Y2312500D02*
X31500D01*
X30000Y2311000D02*
Y2314000D01*
X28500Y2297500D02*
X31500D01*
X30000Y2296000D02*
Y2299000D01*
X18500Y2305000D02*
X21500D01*
X20000Y2303500D02*
Y2306500D01*
X8500Y2312500D02*
X11500D01*
X10000Y2311000D02*
Y2314000D01*
X8500Y2297500D02*
X11500D01*
X10000Y2296000D02*
Y2299000D01*
X48500Y2112500D02*
X51500D01*
X50000Y2111000D02*
Y2114000D01*
X48500Y2097500D02*
X51500D01*
X50000Y2096000D02*
Y2099000D01*
X38500Y2105000D02*
X41500D01*
X40000Y2103500D02*
Y2106500D01*
X28500Y2112500D02*
X31500D01*
X30000Y2111000D02*
Y2114000D01*
X28500Y2097500D02*
X31500D01*
X30000Y2096000D02*
Y2099000D01*
X18500Y2105000D02*
X21500D01*
X20000Y2103500D02*
Y2106500D01*
X8500Y2112500D02*
X11500D01*
X10000Y2111000D02*
Y2114000D01*
X8500Y2097500D02*
X11500D01*
X10000Y2096000D02*
Y2099000D01*
X1049500Y2113500D02*
X1052500D01*
X1051000Y2112000D02*
Y2115000D01*
X1049500Y2098500D02*
X1052500D01*
X1051000Y2097000D02*
Y2100000D01*
X1059500Y2106000D02*
X1062500D01*
X1061000Y2104500D02*
Y2107500D01*
X1069500Y2113500D02*
X1072500D01*
X1071000Y2112000D02*
Y2115000D01*
X1069500Y2098500D02*
X1072500D01*
X1071000Y2097000D02*
Y2100000D01*
X1079500Y2106000D02*
X1082500D01*
X1081000Y2104500D02*
Y2107500D01*
X1089500Y2113500D02*
X1092500D01*
X1091000Y2112000D02*
Y2115000D01*
X1089500Y2098500D02*
X1092500D01*
X1091000Y2097000D02*
Y2100000D01*
X1049500Y1913500D02*
X1052500D01*
X1051000Y1912000D02*
Y1915000D01*
X1049500Y1898500D02*
X1052500D01*
X1051000Y1897000D02*
Y1900000D01*
X1059500Y1906000D02*
X1062500D01*
X1061000Y1904500D02*
Y1907500D01*
X1069500Y1913500D02*
X1072500D01*
X1071000Y1912000D02*
Y1915000D01*
X1069500Y1898500D02*
X1072500D01*
X1071000Y1897000D02*
Y1900000D01*
X1079500Y1906000D02*
X1082500D01*
X1081000Y1904500D02*
Y1907500D01*
X1089500Y1913500D02*
X1092500D01*
X1091000Y1912000D02*
Y1915000D01*
X1089500Y1898500D02*
X1092500D01*
X1091000Y1897000D02*
Y1900000D01*
X48500Y1912500D02*
X51500D01*
X50000Y1911000D02*
Y1914000D01*
X48500Y1897500D02*
X51500D01*
X50000Y1896000D02*
Y1899000D01*
X38500Y1905000D02*
X41500D01*
X40000Y1903500D02*
Y1906500D01*
X28500Y1912500D02*
X31500D01*
X30000Y1911000D02*
Y1914000D01*
X28500Y1897500D02*
X31500D01*
X30000Y1896000D02*
Y1899000D01*
X18500Y1905000D02*
X21500D01*
X20000Y1903500D02*
Y1906500D01*
X8500Y1912500D02*
X11500D01*
X10000Y1911000D02*
Y1914000D01*
X8500Y1897500D02*
X11500D01*
X10000Y1896000D02*
Y1899000D01*
X1049500Y1513500D02*
X1052500D01*
X1051000Y1512000D02*
Y1515000D01*
X1049500Y1498500D02*
X1052500D01*
X1051000Y1497000D02*
Y1500000D01*
X1059500Y1506000D02*
X1062500D01*
X1061000Y1504500D02*
Y1507500D01*
X1069500Y1513500D02*
X1072500D01*
X1071000Y1512000D02*
Y1515000D01*
X1069500Y1498500D02*
X1072500D01*
X1071000Y1497000D02*
Y1500000D01*
X1079500Y1506000D02*
X1082500D01*
X1081000Y1504500D02*
Y1507500D01*
X1089500Y1513500D02*
X1092500D01*
X1091000Y1512000D02*
Y1515000D01*
X1089500Y1498500D02*
X1092500D01*
X1091000Y1497000D02*
Y1500000D01*
X8500Y1497500D02*
X11500D01*
X10000Y1496000D02*
Y1499000D01*
X8500Y1512500D02*
X11500D01*
X10000Y1511000D02*
Y1514000D01*
X18500Y1505000D02*
X21500D01*
X20000Y1503500D02*
Y1506500D01*
X28500Y1497500D02*
X31500D01*
X30000Y1496000D02*
Y1499000D01*
X28500Y1512500D02*
X31500D01*
X30000Y1511000D02*
Y1514000D01*
X38500Y1505000D02*
X41500D01*
X40000Y1503500D02*
Y1506500D01*
X48500Y1497500D02*
X51500D01*
X50000Y1496000D02*
Y1499000D01*
X48500Y1512500D02*
X51500D01*
X50000Y1511000D02*
Y1514000D01*
X58500Y1428200D02*
X61500D01*
X60000Y1426700D02*
Y1429700D01*
X68500Y1428200D02*
X71500D01*
X70000Y1426700D02*
Y1429700D01*
X78500Y1428200D02*
X81500D01*
X80000Y1426700D02*
Y1429700D01*
X78500Y1580000D02*
X81500D01*
X80000Y1578500D02*
Y1581500D01*
X68500Y1580000D02*
X71500D01*
X70000Y1578500D02*
Y1581500D01*
X58500Y1580000D02*
X61500D01*
X60000Y1578500D02*
Y1581500D01*
X1038500Y2028200D02*
X1041500D01*
X1040000Y2026700D02*
Y2029700D01*
X1038500Y2180000D02*
X1041500D01*
X1040000Y2178500D02*
Y2181500D01*
X1038500Y2228200D02*
X1041500D01*
X1040000Y2226700D02*
Y2229700D01*
X1038500Y2380000D02*
X1041500D01*
X1040000Y2378500D02*
Y2381500D01*
X58500Y2228200D02*
X61500D01*
X60000Y2226700D02*
Y2229700D01*
X58500Y2380000D02*
X61500D01*
X60000Y2378500D02*
Y2381500D01*
X58500Y2028200D02*
X61500D01*
X60000Y2026700D02*
Y2029700D01*
X58500Y2180000D02*
X61500D01*
X60000Y2178500D02*
Y2181500D01*
X1038500Y1790000D02*
X1041500D01*
X1040000Y1788500D02*
Y1791500D01*
X1038500Y1775000D02*
X1041500D01*
X1040000Y1773500D02*
Y1776500D01*
X1038500Y1640000D02*
X1041500D01*
X1040000Y1638500D02*
Y1641500D01*
X1038500Y1620000D02*
X1041500D01*
X1040000Y1618500D02*
Y1621500D01*
X1083500Y1610000D02*
X1086500D01*
X1085000Y1608500D02*
Y1611500D01*
X1058500Y1610000D02*
X1061500D01*
X1060000Y1608500D02*
Y1611500D01*
X1083500Y1705000D02*
X1086500D01*
X1085000Y1703500D02*
Y1706500D01*
X1058500Y1705000D02*
X1061500D01*
X1060000Y1703500D02*
Y1706500D01*
X1026000Y1782500D02*
X1029000D01*
X1027500Y1781000D02*
Y1784000D01*
X1026000Y1632500D02*
X1029000D01*
X1027500Y1631000D02*
Y1634000D01*
X1026000Y1767500D02*
X1029000D01*
X1027500Y1766000D02*
Y1769000D01*
X1026000Y1612500D02*
X1029000D01*
X1027500Y1611000D02*
Y1614000D01*
X71000Y1612500D02*
X74000D01*
X72500Y1611000D02*
Y1614000D01*
X71000Y1767500D02*
X74000D01*
X72500Y1766000D02*
Y1769000D01*
X71000Y1632500D02*
X74000D01*
X72500Y1631000D02*
Y1634000D01*
X71000Y1782500D02*
X74000D01*
X72500Y1781000D02*
Y1784000D01*
X38500Y1705000D02*
X41500D01*
X40000Y1703500D02*
Y1706500D01*
X13500Y1705000D02*
X16500D01*
X15000Y1703500D02*
Y1706500D01*
X38500Y1610000D02*
X41500D01*
X40000Y1608500D02*
Y1611500D01*
X13500Y1610000D02*
X16500D01*
X15000Y1608500D02*
Y1611500D01*
X58500Y1620000D02*
X61500D01*
X60000Y1618500D02*
Y1621500D01*
X58500Y1640000D02*
X61500D01*
X60000Y1638500D02*
Y1641500D01*
X58500Y1775000D02*
X61500D01*
X60000Y1773500D02*
Y1776500D01*
X58500Y1790000D02*
X61500D01*
X60000Y1788500D02*
Y1791500D01*
X1038500Y1980000D02*
X1041500D01*
X1040000Y1978500D02*
Y1981500D01*
X1038500Y1828200D02*
X1041500D01*
X1040000Y1826700D02*
Y1829700D01*
X58500Y1980000D02*
X61500D01*
X60000Y1978500D02*
Y1981500D01*
X58500Y1828200D02*
X61500D01*
X60000Y1826700D02*
Y1829700D01*
X1038500Y1581000D02*
X1041500D01*
X1040000Y1579500D02*
Y1582500D01*
X1028500Y1581000D02*
X1031500D01*
X1030000Y1579500D02*
Y1582500D01*
X1018500Y1581000D02*
X1021500D01*
X1020000Y1579500D02*
Y1582500D01*
X1018500Y1429200D02*
X1021500D01*
X1020000Y1427700D02*
Y1430700D01*
X1028500Y1429200D02*
X1031500D01*
X1030000Y1427700D02*
Y1430700D01*
X1038500Y1429200D02*
X1041500D01*
X1040000Y1427700D02*
Y1430700D01*
X1083500Y1266000D02*
X1086500D01*
X1085000Y1264500D02*
Y1267500D01*
X1063500Y1266000D02*
X1066500D01*
X1065000Y1264500D02*
Y1267500D01*
X1043500Y1266000D02*
X1046500D01*
X1045000Y1264500D02*
Y1267500D01*
X1073500Y1281000D02*
X1076500D01*
X1075000Y1279500D02*
Y1282500D01*
X1053500Y1281000D02*
X1056500D01*
X1055000Y1279500D02*
Y1282500D01*
X1033500Y1281000D02*
X1036500D01*
X1035000Y1279500D02*
Y1282500D01*
X1033500Y1301000D02*
X1036500D01*
X1035000Y1299500D02*
Y1302500D01*
X1043500Y1291000D02*
X1046500D01*
X1045000Y1289500D02*
Y1292500D01*
X1043500Y1361000D02*
X1046500D01*
X1045000Y1359500D02*
Y1362500D01*
X1033500Y1351000D02*
X1036500D01*
X1035000Y1349500D02*
Y1352500D01*
X1033500Y1371000D02*
X1036500D01*
X1035000Y1369500D02*
Y1372500D01*
X1053500Y1371000D02*
X1056500D01*
X1055000Y1369500D02*
Y1372500D01*
X1073500Y1371000D02*
X1076500D01*
X1075000Y1369500D02*
Y1372500D01*
X1043500Y1386000D02*
X1046500D01*
X1045000Y1384500D02*
Y1387500D01*
X1063500Y1386000D02*
X1066500D01*
X1065000Y1384500D02*
Y1387500D01*
X1083500Y1386000D02*
X1086500D01*
X1085000Y1384500D02*
Y1387500D01*
X1083500Y1116000D02*
X1086500D01*
X1085000Y1114500D02*
Y1117500D01*
X1063500Y1116000D02*
X1066500D01*
X1065000Y1114500D02*
Y1117500D01*
X1043500Y1116000D02*
X1046500D01*
X1045000Y1114500D02*
Y1117500D01*
X1073500Y1131000D02*
X1076500D01*
X1075000Y1129500D02*
Y1132500D01*
X1053500Y1131000D02*
X1056500D01*
X1055000Y1129500D02*
Y1132500D01*
X1033500Y1131000D02*
X1036500D01*
X1035000Y1129500D02*
Y1132500D01*
X1033500Y1151000D02*
X1036500D01*
X1035000Y1149500D02*
Y1152500D01*
X1043500Y1141000D02*
X1046500D01*
X1045000Y1139500D02*
Y1142500D01*
X1043500Y1211000D02*
X1046500D01*
X1045000Y1209500D02*
Y1212500D01*
X1033500Y1201000D02*
X1036500D01*
X1035000Y1199500D02*
Y1202500D01*
X1033500Y1221000D02*
X1036500D01*
X1035000Y1219500D02*
Y1222500D01*
X1053500Y1221000D02*
X1056500D01*
X1055000Y1219500D02*
Y1222500D01*
X1073500Y1221000D02*
X1076500D01*
X1075000Y1219500D02*
Y1222500D01*
X1043500Y1236000D02*
X1046500D01*
X1045000Y1234500D02*
Y1237500D01*
X1063500Y1236000D02*
X1066500D01*
X1065000Y1234500D02*
Y1237500D01*
X1083500Y1236000D02*
X1086500D01*
X1085000Y1234500D02*
Y1237500D01*
X1083500Y966000D02*
X1086500D01*
X1085000Y964500D02*
Y967500D01*
X1063500Y966000D02*
X1066500D01*
X1065000Y964500D02*
Y967500D01*
X1043500Y966000D02*
X1046500D01*
X1045000Y964500D02*
Y967500D01*
X1073500Y981000D02*
X1076500D01*
X1075000Y979500D02*
Y982500D01*
X1053500Y981000D02*
X1056500D01*
X1055000Y979500D02*
Y982500D01*
X1033500Y981000D02*
X1036500D01*
X1035000Y979500D02*
Y982500D01*
X1033500Y1001000D02*
X1036500D01*
X1035000Y999500D02*
Y1002500D01*
X1043500Y991000D02*
X1046500D01*
X1045000Y989500D02*
Y992500D01*
X1043500Y1061000D02*
X1046500D01*
X1045000Y1059500D02*
Y1062500D01*
X1033500Y1051000D02*
X1036500D01*
X1035000Y1049500D02*
Y1052500D01*
X1033500Y1071000D02*
X1036500D01*
X1035000Y1069500D02*
Y1072500D01*
X1053500Y1071000D02*
X1056500D01*
X1055000Y1069500D02*
Y1072500D01*
X1073500Y1071000D02*
X1076500D01*
X1075000Y1069500D02*
Y1072500D01*
X1043500Y1086000D02*
X1046500D01*
X1045000Y1084500D02*
Y1087500D01*
X1063500Y1086000D02*
X1066500D01*
X1065000Y1084500D02*
Y1087500D01*
X1083500Y1086000D02*
X1086500D01*
X1085000Y1084500D02*
Y1087500D01*
X13500Y1385000D02*
X16500D01*
X15000Y1383500D02*
Y1386500D01*
X33500Y1385000D02*
X36500D01*
X35000Y1383500D02*
Y1386500D01*
X53500Y1385000D02*
X56500D01*
X55000Y1383500D02*
Y1386500D01*
X23500Y1370000D02*
X26500D01*
X25000Y1368500D02*
Y1371500D01*
X43500Y1370000D02*
X46500D01*
X45000Y1368500D02*
Y1371500D01*
X63500Y1370000D02*
X66500D01*
X65000Y1368500D02*
Y1371500D01*
X63500Y1350000D02*
X66500D01*
X65000Y1348500D02*
Y1351500D01*
X53500Y1360000D02*
X56500D01*
X55000Y1358500D02*
Y1361500D01*
X53500Y1290000D02*
X56500D01*
X55000Y1288500D02*
Y1291500D01*
X63500Y1300000D02*
X66500D01*
X65000Y1298500D02*
Y1301500D01*
X63500Y1280000D02*
X66500D01*
X65000Y1278500D02*
Y1281500D01*
X43500Y1280000D02*
X46500D01*
X45000Y1278500D02*
Y1281500D01*
X23500Y1280000D02*
X26500D01*
X25000Y1278500D02*
Y1281500D01*
X53500Y1265000D02*
X56500D01*
X55000Y1263500D02*
Y1266500D01*
X33500Y1265000D02*
X36500D01*
X35000Y1263500D02*
Y1266500D01*
X13500Y1265000D02*
X16500D01*
X15000Y1263500D02*
Y1266500D01*
X13500Y1235000D02*
X16500D01*
X15000Y1233500D02*
Y1236500D01*
X33500Y1235000D02*
X36500D01*
X35000Y1233500D02*
Y1236500D01*
X53500Y1235000D02*
X56500D01*
X55000Y1233500D02*
Y1236500D01*
X23500Y1220000D02*
X26500D01*
X25000Y1218500D02*
Y1221500D01*
X43500Y1220000D02*
X46500D01*
X45000Y1218500D02*
Y1221500D01*
X63500Y1220000D02*
X66500D01*
X65000Y1218500D02*
Y1221500D01*
X63500Y1200000D02*
X66500D01*
X65000Y1198500D02*
Y1201500D01*
X53500Y1210000D02*
X56500D01*
X55000Y1208500D02*
Y1211500D01*
X53500Y1140000D02*
X56500D01*
X55000Y1138500D02*
Y1141500D01*
X63500Y1150000D02*
X66500D01*
X65000Y1148500D02*
Y1151500D01*
X63500Y1130000D02*
X66500D01*
X65000Y1128500D02*
Y1131500D01*
X43500Y1130000D02*
X46500D01*
X45000Y1128500D02*
Y1131500D01*
X23500Y1130000D02*
X26500D01*
X25000Y1128500D02*
Y1131500D01*
X53500Y1115000D02*
X56500D01*
X55000Y1113500D02*
Y1116500D01*
X33500Y1115000D02*
X36500D01*
X35000Y1113500D02*
Y1116500D01*
X13500Y1115000D02*
X16500D01*
X15000Y1113500D02*
Y1116500D01*
X13500Y1085000D02*
X16500D01*
X15000Y1083500D02*
Y1086500D01*
X33500Y1085000D02*
X36500D01*
X35000Y1083500D02*
Y1086500D01*
X53500Y1085000D02*
X56500D01*
X55000Y1083500D02*
Y1086500D01*
X23500Y1070000D02*
X26500D01*
X25000Y1068500D02*
Y1071500D01*
X43500Y1070000D02*
X46500D01*
X45000Y1068500D02*
Y1071500D01*
X63500Y1070000D02*
X66500D01*
X65000Y1068500D02*
Y1071500D01*
X63500Y1050000D02*
X66500D01*
X65000Y1048500D02*
Y1051500D01*
X53500Y1060000D02*
X56500D01*
X55000Y1058500D02*
Y1061500D01*
X53500Y990000D02*
X56500D01*
X55000Y988500D02*
Y991500D01*
X63500Y1000000D02*
X66500D01*
X65000Y998500D02*
Y1001500D01*
X63500Y980000D02*
X66500D01*
X65000Y978500D02*
Y981500D01*
X43500Y980000D02*
X46500D01*
X45000Y978500D02*
Y981500D01*
X23500Y980000D02*
X26500D01*
X25000Y978500D02*
Y981500D01*
X53500Y965000D02*
X56500D01*
X55000Y963500D02*
Y966500D01*
X33500Y965000D02*
X36500D01*
X35000Y963500D02*
Y966500D01*
X13500Y965000D02*
X16500D01*
X15000Y963500D02*
Y966500D01*
X1083500Y591000D02*
X1086500D01*
X1085000Y589500D02*
Y592500D01*
X1063500Y591000D02*
X1066500D01*
X1065000Y589500D02*
Y592500D01*
X1043500Y591000D02*
X1046500D01*
X1045000Y589500D02*
Y592500D01*
X1073500Y606000D02*
X1076500D01*
X1075000Y604500D02*
Y607500D01*
X1053500Y606000D02*
X1056500D01*
X1055000Y604500D02*
Y607500D01*
X1033500Y606000D02*
X1036500D01*
X1035000Y604500D02*
Y607500D01*
X1033500Y626000D02*
X1036500D01*
X1035000Y624500D02*
Y627500D01*
X1043500Y616000D02*
X1046500D01*
X1045000Y614500D02*
Y617500D01*
X1043500Y686000D02*
X1046500D01*
X1045000Y684500D02*
Y687500D01*
X1033500Y676000D02*
X1036500D01*
X1035000Y674500D02*
Y677500D01*
X1033500Y696000D02*
X1036500D01*
X1035000Y694500D02*
Y697500D01*
X1053500Y696000D02*
X1056500D01*
X1055000Y694500D02*
Y697500D01*
X1073500Y696000D02*
X1076500D01*
X1075000Y694500D02*
Y697500D01*
X1043500Y711000D02*
X1046500D01*
X1045000Y709500D02*
Y712500D01*
X1063500Y711000D02*
X1066500D01*
X1065000Y709500D02*
Y712500D01*
X1083500Y711000D02*
X1086500D01*
X1085000Y709500D02*
Y712500D01*
X1043500Y666000D02*
X1046500D01*
X1045000Y664500D02*
Y667500D01*
X1043500Y636000D02*
X1046500D01*
X1045000Y634500D02*
Y637500D01*
X1083500Y791000D02*
X1086500D01*
X1085000Y789500D02*
Y792500D01*
X1063500Y791000D02*
X1066500D01*
X1065000Y789500D02*
Y792500D01*
X1043500Y791000D02*
X1046500D01*
X1045000Y789500D02*
Y792500D01*
X1073500Y806000D02*
X1076500D01*
X1075000Y804500D02*
Y807500D01*
X1053500Y806000D02*
X1056500D01*
X1055000Y804500D02*
Y807500D01*
X1033500Y806000D02*
X1036500D01*
X1035000Y804500D02*
Y807500D01*
X1033500Y826000D02*
X1036500D01*
X1035000Y824500D02*
Y827500D01*
X1043500Y816000D02*
X1046500D01*
X1045000Y814500D02*
Y817500D01*
X1043500Y886000D02*
X1046500D01*
X1045000Y884500D02*
Y887500D01*
X1033500Y876000D02*
X1036500D01*
X1035000Y874500D02*
Y877500D01*
X1033500Y896000D02*
X1036500D01*
X1035000Y894500D02*
Y897500D01*
X1053500Y896000D02*
X1056500D01*
X1055000Y894500D02*
Y897500D01*
X1073500Y896000D02*
X1076500D01*
X1075000Y894500D02*
Y897500D01*
X1043500Y911000D02*
X1046500D01*
X1045000Y909500D02*
Y912500D01*
X1063500Y911000D02*
X1066500D01*
X1065000Y909500D02*
Y912500D01*
X1083500Y911000D02*
X1086500D01*
X1085000Y909500D02*
Y912500D01*
X1043500Y866000D02*
X1046500D01*
X1045000Y864500D02*
Y867500D01*
X1043500Y836000D02*
X1046500D01*
X1045000Y834500D02*
Y837500D01*
X14500Y790000D02*
X17500D01*
X16000Y788500D02*
Y791500D01*
X34500Y790000D02*
X37500D01*
X36000Y788500D02*
Y791500D01*
X54500Y790000D02*
X57500D01*
X56000Y788500D02*
Y791500D01*
X24500Y805000D02*
X27500D01*
X26000Y803500D02*
Y806500D01*
X44500Y805000D02*
X47500D01*
X46000Y803500D02*
Y806500D01*
X64500Y805000D02*
X67500D01*
X66000Y803500D02*
Y806500D01*
X64500Y825000D02*
X67500D01*
X66000Y823500D02*
Y826500D01*
X54500Y815000D02*
X57500D01*
X56000Y813500D02*
Y816500D01*
X54500Y885000D02*
X57500D01*
X56000Y883500D02*
Y886500D01*
X64500Y875000D02*
X67500D01*
X66000Y873500D02*
Y876500D01*
X64500Y895000D02*
X67500D01*
X66000Y893500D02*
Y896500D01*
X44500Y895000D02*
X47500D01*
X46000Y893500D02*
Y896500D01*
X24500Y895000D02*
X27500D01*
X26000Y893500D02*
Y896500D01*
X54500Y910000D02*
X57500D01*
X56000Y908500D02*
Y911500D01*
X34500Y910000D02*
X37500D01*
X36000Y908500D02*
Y911500D01*
X14500Y910000D02*
X17500D01*
X16000Y908500D02*
Y911500D01*
X54500Y865000D02*
X57500D01*
X56000Y863500D02*
Y866500D01*
X54500Y835000D02*
X57500D01*
X56000Y833500D02*
Y836500D01*
X14500Y590000D02*
X17500D01*
X16000Y588500D02*
Y591500D01*
X34500Y590000D02*
X37500D01*
X36000Y588500D02*
Y591500D01*
X54500Y590000D02*
X57500D01*
X56000Y588500D02*
Y591500D01*
X24500Y605000D02*
X27500D01*
X26000Y603500D02*
Y606500D01*
X44500Y605000D02*
X47500D01*
X46000Y603500D02*
Y606500D01*
X64500Y605000D02*
X67500D01*
X66000Y603500D02*
Y606500D01*
X64500Y625000D02*
X67500D01*
X66000Y623500D02*
Y626500D01*
X54500Y615000D02*
X57500D01*
X56000Y613500D02*
Y616500D01*
X54500Y685000D02*
X57500D01*
X56000Y683500D02*
Y686500D01*
X64500Y675000D02*
X67500D01*
X66000Y673500D02*
Y676500D01*
X64500Y695000D02*
X67500D01*
X66000Y693500D02*
Y696500D01*
X44500Y695000D02*
X47500D01*
X46000Y693500D02*
Y696500D01*
X24500Y695000D02*
X27500D01*
X26000Y693500D02*
Y696500D01*
X54500Y710000D02*
X57500D01*
X56000Y708500D02*
Y711500D01*
X34500Y710000D02*
X37500D01*
X36000Y708500D02*
Y711500D01*
X14500Y710000D02*
X17500D01*
X16000Y708500D02*
Y711500D01*
X54500Y665000D02*
X57500D01*
X56000Y663500D02*
Y666500D01*
X54500Y635000D02*
X57500D01*
X56000Y633500D02*
Y636500D01*
X14500Y390000D02*
X17500D01*
X16000Y388500D02*
Y391500D01*
X34500Y390000D02*
X37500D01*
X36000Y388500D02*
Y391500D01*
X54500Y390000D02*
X57500D01*
X56000Y388500D02*
Y391500D01*
X24500Y405000D02*
X27500D01*
X26000Y403500D02*
Y406500D01*
X44500Y405000D02*
X47500D01*
X46000Y403500D02*
Y406500D01*
X64500Y405000D02*
X67500D01*
X66000Y403500D02*
Y406500D01*
X64500Y425000D02*
X67500D01*
X66000Y423500D02*
Y426500D01*
X54500Y415000D02*
X57500D01*
X56000Y413500D02*
Y416500D01*
X54500Y485000D02*
X57500D01*
X56000Y483500D02*
Y486500D01*
X64500Y475000D02*
X67500D01*
X66000Y473500D02*
Y476500D01*
X64500Y495000D02*
X67500D01*
X66000Y493500D02*
Y496500D01*
X44500Y495000D02*
X47500D01*
X46000Y493500D02*
Y496500D01*
X24500Y495000D02*
X27500D01*
X26000Y493500D02*
Y496500D01*
X54500Y510000D02*
X57500D01*
X56000Y508500D02*
Y511500D01*
X34500Y510000D02*
X37500D01*
X36000Y508500D02*
Y511500D01*
X14500Y510000D02*
X17500D01*
X16000Y508500D02*
Y511500D01*
X54500Y465000D02*
X57500D01*
X56000Y463500D02*
Y466500D01*
X54500Y435000D02*
X57500D01*
X56000Y433500D02*
Y436500D01*
X14500Y190000D02*
X17500D01*
X16000Y188500D02*
Y191500D01*
X34500Y190000D02*
X37500D01*
X36000Y188500D02*
Y191500D01*
X54500Y190000D02*
X57500D01*
X56000Y188500D02*
Y191500D01*
X24500Y205000D02*
X27500D01*
X26000Y203500D02*
Y206500D01*
X44500Y205000D02*
X47500D01*
X46000Y203500D02*
Y206500D01*
X64500Y205000D02*
X67500D01*
X66000Y203500D02*
Y206500D01*
X54500Y215000D02*
X57500D01*
X56000Y213500D02*
Y216500D01*
X54500Y285000D02*
X57500D01*
X56000Y283500D02*
Y286500D01*
X64500Y275000D02*
X67500D01*
X66000Y273500D02*
Y276500D01*
X64500Y295000D02*
X67500D01*
X66000Y293500D02*
Y296500D01*
X44500Y295000D02*
X47500D01*
X46000Y293500D02*
Y296500D01*
X24500Y295000D02*
X27500D01*
X26000Y293500D02*
Y296500D01*
X54500Y310000D02*
X57500D01*
X56000Y308500D02*
Y311500D01*
X34500Y310000D02*
X37500D01*
X36000Y308500D02*
Y311500D01*
X14500Y310000D02*
X17500D01*
X16000Y308500D02*
Y311500D01*
X54500Y265000D02*
X57500D01*
X56000Y263500D02*
Y266500D01*
X54500Y235000D02*
X57500D01*
X56000Y233500D02*
Y236500D01*
X1083500Y191000D02*
X1086500D01*
X1085000Y189500D02*
Y192500D01*
X1063500Y191000D02*
X1066500D01*
X1065000Y189500D02*
Y192500D01*
X1043500Y191000D02*
X1046500D01*
X1045000Y189500D02*
Y192500D01*
X1073500Y206000D02*
X1076500D01*
X1075000Y204500D02*
Y207500D01*
X1053500Y206000D02*
X1056500D01*
X1055000Y204500D02*
Y207500D01*
X1033500Y206000D02*
X1036500D01*
X1035000Y204500D02*
Y207500D01*
X1033500Y226000D02*
X1036500D01*
X1035000Y224500D02*
Y227500D01*
X1043500Y216000D02*
X1046500D01*
X1045000Y214500D02*
Y217500D01*
X1043500Y286000D02*
X1046500D01*
X1045000Y284500D02*
Y287500D01*
X1033500Y296000D02*
X1036500D01*
X1035000Y294500D02*
Y297500D01*
X1053500Y296000D02*
X1056500D01*
X1055000Y294500D02*
Y297500D01*
X1073500Y296000D02*
X1076500D01*
X1075000Y294500D02*
Y297500D01*
X1043500Y311000D02*
X1046500D01*
X1045000Y309500D02*
Y312500D01*
X1063500Y311000D02*
X1066500D01*
X1065000Y309500D02*
Y312500D01*
X1083500Y311000D02*
X1086500D01*
X1085000Y309500D02*
Y312500D01*
X1043500Y266000D02*
X1046500D01*
X1045000Y264500D02*
Y267500D01*
X1043500Y236000D02*
X1046500D01*
X1045000Y234500D02*
Y237500D01*
X1043500Y436000D02*
X1046500D01*
X1045000Y434500D02*
Y437500D01*
X1043500Y466000D02*
X1046500D01*
X1045000Y464500D02*
Y467500D01*
X1083500Y511000D02*
X1086500D01*
X1085000Y509500D02*
Y512500D01*
X1063500Y511000D02*
X1066500D01*
X1065000Y509500D02*
Y512500D01*
X1043500Y511000D02*
X1046500D01*
X1045000Y509500D02*
Y512500D01*
X1073500Y496000D02*
X1076500D01*
X1075000Y494500D02*
Y497500D01*
X1053500Y496000D02*
X1056500D01*
X1055000Y494500D02*
Y497500D01*
X1033500Y496000D02*
X1036500D01*
X1035000Y494500D02*
Y497500D01*
X1033500Y476000D02*
X1036500D01*
X1035000Y474500D02*
Y477500D01*
X1043500Y486000D02*
X1046500D01*
X1045000Y484500D02*
Y487500D01*
X1043500Y416000D02*
X1046500D01*
X1045000Y414500D02*
Y417500D01*
X1033500Y426000D02*
X1036500D01*
X1035000Y424500D02*
Y427500D01*
X1033500Y406000D02*
X1036500D01*
X1035000Y404500D02*
Y407500D01*
X1053500Y406000D02*
X1056500D01*
X1055000Y404500D02*
Y407500D01*
X1073500Y406000D02*
X1076500D01*
X1075000Y404500D02*
Y407500D01*
X1043500Y391000D02*
X1046500D01*
X1045000Y389500D02*
Y392500D01*
X1063500Y391000D02*
X1066500D01*
X1065000Y389500D02*
Y392500D01*
X1083500Y391000D02*
X1086500D01*
X1085000Y389500D02*
Y392500D01*
X1083500Y135000D02*
X1086500D01*
X1085000Y133500D02*
Y136500D01*
X1063500Y135000D02*
X1066500D01*
X1065000Y133500D02*
Y136500D01*
X1043500Y135000D02*
X1046500D01*
X1045000Y133500D02*
Y136500D01*
X1073500Y120000D02*
X1076500D01*
X1075000Y118500D02*
Y121500D01*
X1053500Y120000D02*
X1056500D01*
X1055000Y118500D02*
Y121500D01*
X1033500Y120000D02*
X1036500D01*
X1035000Y118500D02*
Y121500D01*
X1033500Y100000D02*
X1036500D01*
X1035000Y98500D02*
Y101500D01*
X1043500Y110000D02*
X1046500D01*
X1045000Y108500D02*
Y111500D01*
X1043500Y40000D02*
X1046500D01*
X1045000Y38500D02*
Y41500D01*
X1033500Y50000D02*
X1036500D01*
X1035000Y48500D02*
Y51500D01*
X1033500Y30000D02*
X1036500D01*
X1035000Y28500D02*
Y31500D01*
X1053500Y30000D02*
X1056500D01*
X1055000Y28500D02*
Y31500D01*
X1073500Y30000D02*
X1076500D01*
X1075000Y28500D02*
Y31500D01*
X1043500Y15000D02*
X1046500D01*
X1045000Y13500D02*
Y16500D01*
X1063500Y15000D02*
X1066500D01*
X1065000Y13500D02*
Y16500D01*
X1083500Y15000D02*
X1086500D01*
X1085000Y13500D02*
Y16500D01*
X13500Y15000D02*
X16500D01*
X15000Y13500D02*
Y16500D01*
X33500Y15000D02*
X36500D01*
X35000Y13500D02*
Y16500D01*
X53500Y15000D02*
X56500D01*
X55000Y13500D02*
Y16500D01*
X23500Y30000D02*
X26500D01*
X25000Y28500D02*
Y31500D01*
X43500Y30000D02*
X46500D01*
X45000Y28500D02*
Y31500D01*
X63500Y30000D02*
X66500D01*
X65000Y28500D02*
Y31500D01*
X63500Y50000D02*
X66500D01*
X65000Y48500D02*
Y51500D01*
X53500Y40000D02*
X56500D01*
X55000Y38500D02*
Y41500D01*
X53500Y110000D02*
X56500D01*
X55000Y108500D02*
Y111500D01*
X63500Y100000D02*
X66500D01*
X65000Y98500D02*
Y101500D01*
X63500Y120000D02*
X66500D01*
X65000Y118500D02*
Y121500D01*
X43500Y120000D02*
X46500D01*
X45000Y118500D02*
Y121500D01*
X23500Y120000D02*
X26500D01*
X25000Y118500D02*
Y121500D01*
X53500Y135000D02*
X56500D01*
X55000Y133500D02*
Y136500D01*
X33500Y135000D02*
X36500D01*
X35000Y133500D02*
Y136500D01*
X13500Y135000D02*
X16500D01*
X15000Y133500D02*
Y136500D01*
M02*
