G04*
G04 #@! TF.GenerationSoftware,Altium Limited,Altium Designer,26.3.0 (6)*
G04*
G04 Layer_Physical_Order=2*
G04 Layer_Color=16776960*
%FSLAX44Y44*%
%MOMM*%
G71*
G04*
G04 #@! TF.SameCoordinates,FC0C107F-D51E-44C7-B9C1-16E332C9C4B2*
G04*
G04*
G04 #@! TF.FilePolarity,Positive*
G04*
G01*
G75*
%ADD10R,4.0000X1.5000*%
%ADD13C,0.1900*%
%ADD15C,0.8000*%
%ADD19C,0.6000*%
%ADD20C,0.7000*%
G36*
X1093882Y486440D02*
X1076500D01*
Y476400D01*
Y466360D01*
X1093882D01*
Y434640D01*
X1076500D01*
Y424600D01*
Y414560D01*
X1093882D01*
Y356118D01*
X6118D01*
Y413560D01*
X24500D01*
Y423600D01*
Y433640D01*
X6118D01*
Y465360D01*
X24500D01*
Y475400D01*
Y485440D01*
X6118D01*
Y543882D01*
X1093882D01*
Y486440D01*
D02*
G37*
G36*
Y286440D02*
X1076500D01*
Y276400D01*
Y266360D01*
X1093882D01*
Y234640D01*
X1076500D01*
Y224600D01*
Y214560D01*
X1093882D01*
X1093883Y156117D01*
X6118D01*
Y213560D01*
X24500D01*
Y223600D01*
Y233640D01*
X6118D01*
Y265360D01*
X24500D01*
Y275400D01*
Y285440D01*
X6118D01*
Y343882D01*
X1093882D01*
Y286440D01*
D02*
G37*
G36*
X1093883Y111440D02*
X1076500D01*
Y101400D01*
Y91360D01*
X1093883D01*
Y59640D01*
X1076500D01*
Y49600D01*
Y39560D01*
X1093883D01*
Y6118D01*
X6118D01*
Y38560D01*
X23500D01*
Y48600D01*
Y58640D01*
X6118D01*
Y90360D01*
X23500D01*
Y100400D01*
Y110440D01*
X6118D01*
Y143882D01*
X1093883D01*
Y111440D01*
D02*
G37*
G36*
X1093882Y1211440D02*
X1076500D01*
Y1201400D01*
Y1191360D01*
X1093882D01*
Y1159640D01*
X1076500D01*
Y1149600D01*
Y1139560D01*
X1093882D01*
Y1106118D01*
X6118D01*
Y1138560D01*
X23500D01*
Y1148600D01*
Y1158640D01*
X6118D01*
Y1190360D01*
X23500D01*
Y1200400D01*
Y1210440D01*
X6118D01*
Y1243883D01*
X1093882D01*
Y1211440D01*
D02*
G37*
G36*
Y1061440D02*
X1076500D01*
Y1051400D01*
Y1041360D01*
X1093882D01*
Y1009640D01*
X1076500D01*
Y999600D01*
Y989560D01*
X1093882D01*
Y956117D01*
X6118D01*
Y988560D01*
X23500D01*
Y998600D01*
Y1008640D01*
X6118D01*
Y1040360D01*
X23500D01*
Y1050400D01*
Y1060440D01*
X6118D01*
Y1093883D01*
X1093882D01*
Y1061440D01*
D02*
G37*
G36*
X1093882Y886440D02*
X1076500D01*
Y876400D01*
Y866360D01*
X1093882D01*
Y834640D01*
X1076500D01*
Y824600D01*
Y814560D01*
X1093882D01*
Y756117D01*
X6118D01*
Y813560D01*
X24500D01*
Y823600D01*
Y833640D01*
X6118D01*
Y865360D01*
X24500D01*
Y875400D01*
Y885440D01*
X6118D01*
Y943883D01*
X1093882D01*
X1093882Y886440D01*
D02*
G37*
G36*
Y686440D02*
X1076500D01*
Y676400D01*
Y666360D01*
X1093882D01*
Y634640D01*
X1076500D01*
Y624600D01*
Y614560D01*
X1093882D01*
X1093882Y556118D01*
X6118D01*
Y613560D01*
X24500D01*
Y623600D01*
Y633640D01*
X6118D01*
Y665360D01*
X24500D01*
Y675400D01*
Y685440D01*
X6118D01*
Y743882D01*
X1093882D01*
Y686440D01*
D02*
G37*
G36*
X1093882Y1991440D02*
X1076500D01*
Y1981400D01*
Y1971360D01*
X1093882D01*
Y1939640D01*
X1076500D01*
Y1929601D01*
Y1919560D01*
X1093882D01*
Y1891440D01*
X1076500D01*
Y1881400D01*
Y1871360D01*
X1093882D01*
Y1839640D01*
X1076500D01*
Y1829600D01*
Y1819560D01*
X1093882D01*
Y1806118D01*
X6118D01*
Y1818560D01*
X24500D01*
Y1828600D01*
Y1838640D01*
X6118D01*
Y1870360D01*
X24500D01*
Y1880400D01*
Y1890440D01*
X6118D01*
Y1918560D01*
X24500D01*
Y1928600D01*
Y1938640D01*
X6118D01*
Y1970360D01*
X24500D01*
Y1980400D01*
Y1990440D01*
X6118D01*
Y1993883D01*
X1093882D01*
Y1991440D01*
D02*
G37*
G36*
Y1791440D02*
X1076500D01*
Y1781400D01*
Y1771360D01*
X1093882D01*
Y1739640D01*
X1076500D01*
Y1729600D01*
Y1719560D01*
X1093882D01*
Y1691440D01*
X1076500D01*
Y1681400D01*
Y1671360D01*
X1093882D01*
Y1639640D01*
X1076500D01*
Y1629600D01*
Y1619560D01*
X1093882D01*
Y1606118D01*
X6118D01*
Y1618560D01*
X24500D01*
Y1628600D01*
Y1638640D01*
X6118D01*
Y1670360D01*
X24500D01*
Y1680400D01*
Y1690440D01*
X6118D01*
Y1718560D01*
X24500D01*
Y1728600D01*
Y1738640D01*
X6118D01*
Y1770360D01*
X24500D01*
Y1780400D01*
Y1790440D01*
X6118D01*
Y1793882D01*
X1093882D01*
Y1791440D01*
D02*
G37*
G36*
X1093882Y1591440D02*
X1076500D01*
Y1581400D01*
Y1571360D01*
X1093882D01*
Y1539640D01*
X1076500D01*
Y1529600D01*
Y1519560D01*
X1093882D01*
Y1491440D01*
X1076500D01*
Y1481400D01*
Y1471360D01*
X1093882D01*
Y1439640D01*
X1076500D01*
Y1429600D01*
Y1419560D01*
X1093882D01*
Y1406118D01*
X6118D01*
Y1418560D01*
X24500D01*
Y1428600D01*
Y1438640D01*
X6118D01*
Y1470360D01*
X24500D01*
Y1480400D01*
Y1490440D01*
X6118D01*
Y1518560D01*
X24500D01*
Y1528600D01*
Y1538640D01*
X6118D01*
Y1570360D01*
X24500D01*
Y1580400D01*
Y1590440D01*
X6118D01*
Y1593883D01*
X1093882D01*
Y1591440D01*
D02*
G37*
G36*
Y1361440D02*
X1076500D01*
Y1351400D01*
Y1341360D01*
X1093882D01*
Y1309640D01*
X1076500D01*
Y1299601D01*
Y1289560D01*
X1093882D01*
Y1256118D01*
X6118D01*
Y1288560D01*
X23500D01*
Y1298600D01*
Y1308640D01*
X6118D01*
Y1340360D01*
X23500D01*
Y1350400D01*
Y1360440D01*
X6118D01*
Y1393883D01*
X1093882D01*
Y1361440D01*
D02*
G37*
G36*
X1093882Y2591440D02*
X1076500D01*
Y2581400D01*
Y2571360D01*
X1093882D01*
Y2539640D01*
X1076500D01*
Y2529600D01*
Y2519560D01*
X1093882D01*
Y2491440D01*
X1076500D01*
Y2481400D01*
Y2471360D01*
X1093882D01*
Y2439640D01*
X1076500D01*
Y2429600D01*
Y2419560D01*
X1093882D01*
X1093882Y2406118D01*
X6118D01*
Y2418560D01*
X24500D01*
Y2428600D01*
Y2438640D01*
X6118D01*
Y2470360D01*
X24500D01*
Y2480400D01*
Y2490440D01*
X6118D01*
Y2518560D01*
X24500D01*
Y2528600D01*
Y2538640D01*
X6118D01*
Y2570360D01*
X24500D01*
Y2580400D01*
Y2590440D01*
X6118D01*
Y2593882D01*
X1093882D01*
Y2591440D01*
D02*
G37*
G36*
X1093882Y2391440D02*
X1076500D01*
Y2381400D01*
Y2371360D01*
X1093882D01*
Y2339640D01*
X1076500D01*
Y2329600D01*
Y2319560D01*
X1093882D01*
Y2291440D01*
X1076500D01*
Y2281400D01*
Y2271360D01*
X1093882D01*
Y2239640D01*
X1076500D01*
Y2229600D01*
Y2219560D01*
X1093882D01*
Y2206118D01*
X6118D01*
Y2218560D01*
X24500D01*
Y2228600D01*
Y2238640D01*
X6118D01*
Y2270360D01*
X24500D01*
Y2280400D01*
Y2290440D01*
X6118D01*
Y2318560D01*
X24500D01*
Y2328600D01*
Y2338640D01*
X6118D01*
Y2370360D01*
X24500D01*
Y2380400D01*
Y2390440D01*
X6118D01*
Y2393882D01*
X1093882D01*
Y2391440D01*
D02*
G37*
G36*
Y2191440D02*
X1076500D01*
Y2181400D01*
Y2171360D01*
X1093882D01*
Y2139640D01*
X1076500D01*
Y2129600D01*
Y2119560D01*
X1093882D01*
Y2091440D01*
X1076500D01*
Y2081400D01*
Y2071360D01*
X1093882D01*
X1093882Y2039640D01*
X1076500D01*
Y2029600D01*
Y2019560D01*
X1093882D01*
Y2006118D01*
X6118D01*
Y2018560D01*
X24500D01*
Y2028600D01*
Y2038640D01*
X6118D01*
Y2070360D01*
X24500D01*
Y2080400D01*
Y2090440D01*
X6118D01*
Y2118560D01*
X24500D01*
Y2128600D01*
Y2138640D01*
X6118D01*
Y2170360D01*
X24500D01*
Y2180400D01*
Y2190440D01*
X6118D01*
Y2193883D01*
X1093882D01*
Y2191440D01*
D02*
G37*
%LPC*%
G36*
X1071500Y486440D02*
X1051460D01*
Y478900D01*
X1071500D01*
Y486440D01*
D02*
G37*
G36*
X49540Y485440D02*
X29500D01*
Y477900D01*
X49540D01*
Y485440D01*
D02*
G37*
G36*
X1071500Y473900D02*
X1051460D01*
Y466360D01*
X1071500D01*
Y473900D01*
D02*
G37*
G36*
X49540Y472900D02*
X29500D01*
Y465360D01*
X49540D01*
Y472900D01*
D02*
G37*
G36*
X1071500Y434640D02*
X1051460D01*
Y427100D01*
X1071500D01*
Y434640D01*
D02*
G37*
G36*
X49540Y433640D02*
X29500D01*
Y426100D01*
X49540D01*
Y433640D01*
D02*
G37*
G36*
X1071500Y422100D02*
X1051460D01*
Y414560D01*
X1071500D01*
Y422100D01*
D02*
G37*
G36*
X49540Y421100D02*
X29500D01*
Y413560D01*
X49540D01*
Y421100D01*
D02*
G37*
G36*
X1071500Y286440D02*
X1051460D01*
Y278900D01*
X1071500D01*
Y286440D01*
D02*
G37*
G36*
X49540Y285440D02*
X29500D01*
Y277900D01*
X49540D01*
Y285440D01*
D02*
G37*
G36*
X1071500Y273900D02*
X1051460D01*
Y266360D01*
X1071500D01*
Y273900D01*
D02*
G37*
G36*
X49540Y272900D02*
X29500D01*
Y265360D01*
X49540D01*
Y272900D01*
D02*
G37*
G36*
X1071500Y234640D02*
X1051460D01*
Y227100D01*
X1071500D01*
Y234640D01*
D02*
G37*
G36*
X49540Y233640D02*
X29500D01*
Y226100D01*
X49540D01*
Y233640D01*
D02*
G37*
G36*
X1071500Y222100D02*
X1051460D01*
Y214560D01*
X1071500D01*
Y222100D01*
D02*
G37*
G36*
X49540Y221100D02*
X29500D01*
Y213560D01*
X49540D01*
Y221100D01*
D02*
G37*
G36*
X1071500Y111440D02*
X1051460D01*
Y103900D01*
X1071500D01*
Y111440D01*
D02*
G37*
G36*
X48540Y110440D02*
X28500D01*
Y102900D01*
X48540D01*
Y110440D01*
D02*
G37*
G36*
X1071500Y98900D02*
X1051460D01*
Y91360D01*
X1071500D01*
Y98900D01*
D02*
G37*
G36*
X48540Y97900D02*
X28500D01*
Y90360D01*
X48540D01*
Y97900D01*
D02*
G37*
G36*
X1071500Y59640D02*
X1051460D01*
Y52100D01*
X1071500D01*
Y59640D01*
D02*
G37*
G36*
X48540Y58640D02*
X28500D01*
Y51100D01*
X48540D01*
Y58640D01*
D02*
G37*
G36*
X1071500Y47100D02*
X1051460D01*
Y39560D01*
X1071500D01*
Y47100D01*
D02*
G37*
G36*
X48540Y46100D02*
X28500D01*
Y38560D01*
X48540D01*
Y46100D01*
D02*
G37*
G36*
X1071500Y1211440D02*
X1051460D01*
Y1203900D01*
X1071500D01*
Y1211440D01*
D02*
G37*
G36*
X48540Y1210440D02*
X28500D01*
Y1202900D01*
X48540D01*
Y1210440D01*
D02*
G37*
G36*
X1071500Y1198900D02*
X1051460D01*
Y1191360D01*
X1071500D01*
Y1198900D01*
D02*
G37*
G36*
X48540Y1197900D02*
X28500D01*
Y1190360D01*
X48540D01*
Y1197900D01*
D02*
G37*
G36*
X800000Y1181118D02*
X300000D01*
X297659Y1180652D01*
X295674Y1179326D01*
X294348Y1177341D01*
X293883Y1175000D01*
X294348Y1172659D01*
X295674Y1170674D01*
X297659Y1169348D01*
X300000Y1168883D01*
X800000D01*
X802341Y1169348D01*
X804326Y1170674D01*
X805652Y1172659D01*
X806117Y1175000D01*
X805652Y1177341D01*
X804326Y1179326D01*
X802341Y1180652D01*
X800000Y1181118D01*
D02*
G37*
G36*
X1071500Y1159640D02*
X1051460D01*
Y1152100D01*
X1071500D01*
Y1159640D01*
D02*
G37*
G36*
X48540Y1158640D02*
X28500D01*
Y1151100D01*
X48540D01*
Y1158640D01*
D02*
G37*
G36*
X1071500Y1147100D02*
X1051460D01*
Y1139560D01*
X1071500D01*
Y1147100D01*
D02*
G37*
G36*
X48540Y1146100D02*
X28500D01*
Y1138560D01*
X48540D01*
Y1146100D01*
D02*
G37*
G36*
X1071500Y1061440D02*
X1051460D01*
Y1053900D01*
X1071500D01*
Y1061440D01*
D02*
G37*
G36*
X48540Y1060440D02*
X28500D01*
Y1052900D01*
X48540D01*
Y1060440D01*
D02*
G37*
G36*
X1071500Y1048900D02*
X1051460D01*
Y1041360D01*
X1071500D01*
Y1048900D01*
D02*
G37*
G36*
X48540Y1047900D02*
X28500D01*
Y1040360D01*
X48540D01*
Y1047900D01*
D02*
G37*
G36*
X800000Y1031117D02*
X300000D01*
X297659Y1030652D01*
X295674Y1029326D01*
X294348Y1027341D01*
X293883Y1025000D01*
X294348Y1022659D01*
X295674Y1020674D01*
X297659Y1019348D01*
X300000Y1018883D01*
X800000D01*
X802341Y1019348D01*
X804326Y1020674D01*
X805652Y1022659D01*
X806117Y1025000D01*
X805652Y1027341D01*
X804326Y1029326D01*
X802341Y1030652D01*
X800000Y1031117D01*
D02*
G37*
G36*
X1071500Y1009640D02*
X1051460D01*
Y1002100D01*
X1071500D01*
Y1009640D01*
D02*
G37*
G36*
X48540Y1008640D02*
X28500D01*
Y1001100D01*
X48540D01*
Y1008640D01*
D02*
G37*
G36*
X1071500Y997100D02*
X1051460D01*
Y989560D01*
X1071500D01*
Y997100D01*
D02*
G37*
G36*
X48540Y996100D02*
X28500D01*
Y988560D01*
X48540D01*
Y996100D01*
D02*
G37*
G36*
X1071500Y886440D02*
X1051460D01*
Y878900D01*
X1071500D01*
Y886440D01*
D02*
G37*
G36*
X49540Y885440D02*
X29500D01*
Y877900D01*
X49540D01*
Y885440D01*
D02*
G37*
G36*
X1071500Y873900D02*
X1051460D01*
Y866360D01*
X1071500D01*
Y873900D01*
D02*
G37*
G36*
X49540Y872900D02*
X29500D01*
Y865360D01*
X49540D01*
Y872900D01*
D02*
G37*
G36*
X1071500Y834640D02*
X1051460D01*
Y827100D01*
X1071500D01*
Y834640D01*
D02*
G37*
G36*
X49540Y833640D02*
X29500D01*
Y826100D01*
X49540D01*
Y833640D01*
D02*
G37*
G36*
X1071500Y822100D02*
X1051460D01*
Y814560D01*
X1071500D01*
Y822100D01*
D02*
G37*
G36*
X49540Y821100D02*
X29500D01*
Y813560D01*
X49540D01*
Y821100D01*
D02*
G37*
G36*
X1071500Y686440D02*
X1051460D01*
Y678900D01*
X1071500D01*
Y686440D01*
D02*
G37*
G36*
X49540Y685440D02*
X29500D01*
Y677900D01*
X49540D01*
Y685440D01*
D02*
G37*
G36*
X1071500Y673900D02*
X1051460D01*
Y666360D01*
X1071500D01*
Y673900D01*
D02*
G37*
G36*
X49540Y672900D02*
X29500D01*
Y665360D01*
X49540D01*
Y672900D01*
D02*
G37*
G36*
X1071500Y634640D02*
X1051460D01*
Y627100D01*
X1071500D01*
Y634640D01*
D02*
G37*
G36*
X49540Y633640D02*
X29500D01*
Y626100D01*
X49540D01*
Y633640D01*
D02*
G37*
G36*
X1071500Y622100D02*
X1051460D01*
Y614560D01*
X1071500D01*
Y622100D01*
D02*
G37*
G36*
X49540Y621100D02*
X29500D01*
Y613560D01*
X49540D01*
Y621100D01*
D02*
G37*
G36*
X1071500Y1991440D02*
X1051460D01*
Y1983900D01*
X1071500D01*
Y1991440D01*
D02*
G37*
G36*
X49540Y1990440D02*
X29500D01*
Y1982900D01*
X49540D01*
Y1990440D01*
D02*
G37*
G36*
X1071500Y1978900D02*
X1051460D01*
Y1971360D01*
X1071500D01*
Y1978900D01*
D02*
G37*
G36*
X49540Y1977900D02*
X29500D01*
Y1970360D01*
X49540D01*
Y1977900D01*
D02*
G37*
G36*
X1071500Y1939640D02*
X1051460D01*
Y1932101D01*
X1071500D01*
Y1939640D01*
D02*
G37*
G36*
X49540Y1938640D02*
X29500D01*
Y1931100D01*
X49540D01*
Y1938640D01*
D02*
G37*
G36*
X1071500Y1927101D02*
X1051460D01*
Y1919560D01*
X1071500D01*
Y1927101D01*
D02*
G37*
G36*
X49540Y1926100D02*
X29500D01*
Y1918560D01*
X49540D01*
Y1926100D01*
D02*
G37*
G36*
X799769Y1915000D02*
X797580D01*
X795559Y1914163D01*
X794012Y1912616D01*
X793175Y1910594D01*
Y1908792D01*
X306826D01*
Y1910594D01*
X305988Y1912616D01*
X304441Y1914163D01*
X302419Y1915000D01*
X300231D01*
X298210Y1914163D01*
X296663Y1912616D01*
X295826Y1910594D01*
Y1908406D01*
X296663Y1906385D01*
X298047Y1905000D01*
X296663Y1903616D01*
X295826Y1901594D01*
Y1899406D01*
X296663Y1897385D01*
X298210Y1895838D01*
X300231Y1895000D01*
X302419D01*
X304441Y1895838D01*
X305988Y1897385D01*
X306826Y1899406D01*
Y1901208D01*
X793175D01*
Y1899406D01*
X794012Y1897385D01*
X795559Y1895838D01*
X797580Y1895000D01*
X799769D01*
X801790Y1895838D01*
X803337Y1897385D01*
X804174Y1899406D01*
Y1901594D01*
X803337Y1903616D01*
X801953Y1905000D01*
X803337Y1906385D01*
X804174Y1908406D01*
Y1910594D01*
X803337Y1912616D01*
X801790Y1914163D01*
X799769Y1915000D01*
D02*
G37*
G36*
X1071500Y1891440D02*
X1051460D01*
Y1883900D01*
X1071500D01*
Y1891440D01*
D02*
G37*
G36*
X49540Y1890440D02*
X29500D01*
Y1882900D01*
X49540D01*
Y1890440D01*
D02*
G37*
G36*
X1071500Y1878900D02*
X1051460D01*
Y1871360D01*
X1071500D01*
Y1878900D01*
D02*
G37*
G36*
X49540Y1877900D02*
X29500D01*
Y1870360D01*
X49540D01*
Y1877900D01*
D02*
G37*
G36*
X1071500Y1839640D02*
X1051460D01*
Y1832100D01*
X1071500D01*
Y1839640D01*
D02*
G37*
G36*
X49540Y1838640D02*
X29500D01*
Y1831100D01*
X49540D01*
Y1838640D01*
D02*
G37*
G36*
X1071500Y1827100D02*
X1051460D01*
Y1819560D01*
X1071500D01*
Y1827100D01*
D02*
G37*
G36*
X49540Y1826100D02*
X29500D01*
Y1818560D01*
X49540D01*
Y1826100D01*
D02*
G37*
G36*
X1071500Y1791440D02*
X1051460D01*
Y1783900D01*
X1071500D01*
Y1791440D01*
D02*
G37*
G36*
X49540Y1790440D02*
X29500D01*
Y1782900D01*
X49540D01*
Y1790440D01*
D02*
G37*
G36*
X1071500Y1778900D02*
X1051460D01*
Y1771360D01*
X1071500D01*
Y1778900D01*
D02*
G37*
G36*
X49540Y1777900D02*
X29500D01*
Y1770360D01*
X49540D01*
Y1777900D01*
D02*
G37*
G36*
X1071500Y1739640D02*
X1051460D01*
Y1732100D01*
X1071500D01*
Y1739640D01*
D02*
G37*
G36*
X49540Y1738640D02*
X29500D01*
Y1731100D01*
X49540D01*
Y1738640D01*
D02*
G37*
G36*
X1071500Y1727100D02*
X1051460D01*
Y1719560D01*
X1071500D01*
Y1727100D01*
D02*
G37*
G36*
X49540Y1726100D02*
X29500D01*
Y1718560D01*
X49540D01*
Y1726100D01*
D02*
G37*
G36*
X1071500Y1691440D02*
X1051460D01*
Y1683900D01*
X1071500D01*
Y1691440D01*
D02*
G37*
G36*
X49540Y1690440D02*
X29500D01*
Y1682900D01*
X49540D01*
Y1690440D01*
D02*
G37*
G36*
X1071500Y1678900D02*
X1051460D01*
Y1671360D01*
X1071500D01*
Y1678900D01*
D02*
G37*
G36*
X49540Y1677900D02*
X29500D01*
Y1670360D01*
X49540D01*
Y1677900D01*
D02*
G37*
G36*
X1071500Y1639640D02*
X1051460D01*
Y1632100D01*
X1071500D01*
Y1639640D01*
D02*
G37*
G36*
X49540Y1638640D02*
X29500D01*
Y1631100D01*
X49540D01*
Y1638640D01*
D02*
G37*
G36*
X1071500Y1627100D02*
X1051460D01*
Y1619560D01*
X1071500D01*
Y1627100D01*
D02*
G37*
G36*
X49540Y1626100D02*
X29500D01*
Y1618560D01*
X49540D01*
Y1626100D01*
D02*
G37*
G36*
X1071500Y1591440D02*
X1051460D01*
Y1583900D01*
X1071500D01*
Y1591440D01*
D02*
G37*
G36*
X49540Y1590440D02*
X29500D01*
Y1582900D01*
X49540D01*
Y1590440D01*
D02*
G37*
G36*
X1071500Y1578900D02*
X1051460D01*
Y1571360D01*
X1071500D01*
Y1578900D01*
D02*
G37*
G36*
X49540Y1577900D02*
X29500D01*
Y1570360D01*
X49540D01*
Y1577900D01*
D02*
G37*
G36*
X1071500Y1539640D02*
X1051460D01*
Y1532100D01*
X1071500D01*
Y1539640D01*
D02*
G37*
G36*
X49540Y1538640D02*
X29500D01*
Y1531100D01*
X49540D01*
Y1538640D01*
D02*
G37*
G36*
X1071500Y1527100D02*
X1051460D01*
Y1519560D01*
X1071500D01*
Y1527100D01*
D02*
G37*
G36*
X49540Y1526100D02*
X29500D01*
Y1518560D01*
X49540D01*
Y1526100D01*
D02*
G37*
G36*
X1071500Y1491440D02*
X1051460D01*
Y1483900D01*
X1071500D01*
Y1491440D01*
D02*
G37*
G36*
X49540Y1490440D02*
X29500D01*
Y1482900D01*
X49540D01*
Y1490440D01*
D02*
G37*
G36*
X1071500Y1478900D02*
X1051460D01*
Y1471360D01*
X1071500D01*
Y1478900D01*
D02*
G37*
G36*
X49540Y1477900D02*
X29500D01*
Y1470360D01*
X49540D01*
Y1477900D01*
D02*
G37*
G36*
X1071500Y1439640D02*
X1051460D01*
Y1432100D01*
X1071500D01*
Y1439640D01*
D02*
G37*
G36*
X49540Y1438640D02*
X29500D01*
Y1431100D01*
X49540D01*
Y1438640D01*
D02*
G37*
G36*
X1071500Y1427100D02*
X1051460D01*
Y1419560D01*
X1071500D01*
Y1427100D01*
D02*
G37*
G36*
X49540Y1426100D02*
X29500D01*
Y1418560D01*
X49540D01*
Y1426100D01*
D02*
G37*
G36*
X1071500Y1361440D02*
X1051460D01*
Y1353900D01*
X1071500D01*
Y1361440D01*
D02*
G37*
G36*
X48540Y1360440D02*
X28500D01*
Y1352900D01*
X48540D01*
Y1360440D01*
D02*
G37*
G36*
X1071500Y1348900D02*
X1051460D01*
Y1341360D01*
X1071500D01*
Y1348900D01*
D02*
G37*
G36*
X48540Y1347900D02*
X28500D01*
Y1340360D01*
X48540D01*
Y1347900D01*
D02*
G37*
G36*
X1071500Y1309640D02*
X1051460D01*
Y1302101D01*
X1071500D01*
Y1309640D01*
D02*
G37*
G36*
X48540Y1308640D02*
X28500D01*
Y1301100D01*
X48540D01*
Y1308640D01*
D02*
G37*
G36*
X1071500Y1297101D02*
X1051460D01*
Y1289560D01*
X1071500D01*
Y1297101D01*
D02*
G37*
G36*
X48540Y1296100D02*
X28500D01*
Y1288560D01*
X48540D01*
Y1296100D01*
D02*
G37*
G36*
X559000Y1380000D02*
X540000D01*
Y1270000D01*
X559000D01*
Y1380000D01*
D02*
G37*
G36*
X1071500Y2591440D02*
X1051460D01*
Y2583900D01*
X1071500D01*
Y2591440D01*
D02*
G37*
G36*
X49540Y2590440D02*
X29500D01*
Y2582900D01*
X49540D01*
Y2590440D01*
D02*
G37*
G36*
X1071500Y2578900D02*
X1051460D01*
Y2571360D01*
X1071500D01*
Y2578900D01*
D02*
G37*
G36*
X49540Y2577900D02*
X29500D01*
Y2570360D01*
X49540D01*
Y2577900D01*
D02*
G37*
G36*
X1071500Y2539640D02*
X1051460D01*
Y2532100D01*
X1071500D01*
Y2539640D01*
D02*
G37*
G36*
X49540Y2538640D02*
X29500D01*
Y2531100D01*
X49540D01*
Y2538640D01*
D02*
G37*
G36*
X1071500Y2527100D02*
X1051460D01*
Y2519560D01*
X1071500D01*
Y2527100D01*
D02*
G37*
G36*
X49540Y2526100D02*
X29500D01*
Y2518560D01*
X49540D01*
Y2526100D01*
D02*
G37*
G36*
X1071500Y2491440D02*
X1051460D01*
Y2483900D01*
X1071500D01*
Y2491440D01*
D02*
G37*
G36*
X49540Y2490440D02*
X29500D01*
Y2482900D01*
X49540D01*
Y2490440D01*
D02*
G37*
G36*
X1071500Y2478900D02*
X1051460D01*
Y2471360D01*
X1071500D01*
Y2478900D01*
D02*
G37*
G36*
X49540Y2477900D02*
X29500D01*
Y2470360D01*
X49540D01*
Y2477900D01*
D02*
G37*
G36*
X1071500Y2439640D02*
X1051460D01*
Y2432100D01*
X1071500D01*
Y2439640D01*
D02*
G37*
G36*
X49540Y2438640D02*
X29500D01*
Y2431100D01*
X49540D01*
Y2438640D01*
D02*
G37*
G36*
X559000Y2580000D02*
X540000D01*
Y2420000D01*
X559000D01*
Y2580000D01*
D02*
G37*
G36*
X1071500Y2427100D02*
X1051460D01*
Y2419560D01*
X1071500D01*
Y2427100D01*
D02*
G37*
G36*
X49540Y2426100D02*
X29500D01*
Y2418560D01*
X49540D01*
Y2426100D01*
D02*
G37*
G36*
X1071500Y2391440D02*
X1051460D01*
Y2383900D01*
X1071500D01*
Y2391440D01*
D02*
G37*
G36*
X49540Y2390440D02*
X29500D01*
Y2382900D01*
X49540D01*
Y2390440D01*
D02*
G37*
G36*
X1071500Y2378900D02*
X1051460D01*
Y2371360D01*
X1071500D01*
Y2378900D01*
D02*
G37*
G36*
X49540Y2377900D02*
X29500D01*
Y2370360D01*
X49540D01*
Y2377900D01*
D02*
G37*
G36*
X1071500Y2339640D02*
X1051460D01*
Y2332100D01*
X1071500D01*
Y2339640D01*
D02*
G37*
G36*
X49540Y2338640D02*
X29500D01*
Y2331100D01*
X49540D01*
Y2338640D01*
D02*
G37*
G36*
X1071500Y2327100D02*
X1051460D01*
Y2319560D01*
X1071500D01*
Y2327100D01*
D02*
G37*
G36*
X49540Y2326100D02*
X29500D01*
Y2318560D01*
X49540D01*
Y2326100D01*
D02*
G37*
G36*
X1071500Y2291440D02*
X1051460D01*
Y2283900D01*
X1071500D01*
Y2291440D01*
D02*
G37*
G36*
X49540Y2290440D02*
X29500D01*
Y2282900D01*
X49540D01*
Y2290440D01*
D02*
G37*
G36*
X1071500Y2278900D02*
X1051460D01*
Y2271360D01*
X1071500D01*
Y2278900D01*
D02*
G37*
G36*
X49540Y2277900D02*
X29500D01*
Y2270360D01*
X49540D01*
Y2277900D01*
D02*
G37*
G36*
X1071500Y2239640D02*
X1051460D01*
Y2232100D01*
X1071500D01*
Y2239640D01*
D02*
G37*
G36*
X49540Y2238640D02*
X29500D01*
Y2231100D01*
X49540D01*
Y2238640D01*
D02*
G37*
G36*
X1071500Y2227100D02*
X1051460D01*
Y2219560D01*
X1071500D01*
Y2227100D01*
D02*
G37*
G36*
X49540Y2226100D02*
X29500D01*
Y2218560D01*
X49540D01*
Y2226100D01*
D02*
G37*
G36*
X1071500Y2191440D02*
X1051460D01*
Y2183900D01*
X1071500D01*
Y2191440D01*
D02*
G37*
G36*
X49540Y2190440D02*
X29500D01*
Y2182900D01*
X49540D01*
Y2190440D01*
D02*
G37*
G36*
X1071500Y2178900D02*
X1051460D01*
Y2171360D01*
X1071500D01*
Y2178900D01*
D02*
G37*
G36*
X49540Y2177900D02*
X29500D01*
Y2170360D01*
X49540D01*
Y2177900D01*
D02*
G37*
G36*
X1071500Y2139640D02*
X1051460D01*
Y2132100D01*
X1071500D01*
Y2139640D01*
D02*
G37*
G36*
X49540Y2138640D02*
X29500D01*
Y2131100D01*
X49540D01*
Y2138640D01*
D02*
G37*
G36*
X1071500Y2127100D02*
X1051460D01*
Y2119560D01*
X1071500D01*
Y2127100D01*
D02*
G37*
G36*
X49540Y2126100D02*
X29500D01*
Y2118560D01*
X49540D01*
Y2126100D01*
D02*
G37*
G36*
X799769Y2115000D02*
X797580D01*
X795559Y2114163D01*
X794012Y2112616D01*
X793175Y2110594D01*
Y2108792D01*
X306826D01*
Y2110594D01*
X305988Y2112616D01*
X304441Y2114163D01*
X302419Y2115000D01*
X300231D01*
X298210Y2114163D01*
X296663Y2112616D01*
X295826Y2110594D01*
Y2108406D01*
X296663Y2106385D01*
X298047Y2105000D01*
X296663Y2103616D01*
X295826Y2101594D01*
Y2099406D01*
X296663Y2097385D01*
X298210Y2095838D01*
X300231Y2095000D01*
X302419D01*
X304441Y2095838D01*
X305988Y2097385D01*
X306826Y2099406D01*
Y2101208D01*
X793175D01*
Y2099406D01*
X794012Y2097385D01*
X795559Y2095838D01*
X797580Y2095000D01*
X799769D01*
X801790Y2095838D01*
X803337Y2097385D01*
X804174Y2099406D01*
Y2101594D01*
X803337Y2103616D01*
X801953Y2105000D01*
X803337Y2106385D01*
X804174Y2108406D01*
Y2110594D01*
X803337Y2112616D01*
X801790Y2114163D01*
X799769Y2115000D01*
D02*
G37*
G36*
X1071500Y2091440D02*
X1051460D01*
Y2083900D01*
X1071500D01*
Y2091440D01*
D02*
G37*
G36*
X49540Y2090440D02*
X29500D01*
Y2082900D01*
X49540D01*
Y2090440D01*
D02*
G37*
G36*
X1071500Y2078900D02*
X1051460D01*
Y2071360D01*
X1071500D01*
Y2078900D01*
D02*
G37*
G36*
X49540Y2077900D02*
X29500D01*
Y2070360D01*
X49540D01*
Y2077900D01*
D02*
G37*
G36*
X1071500Y2039640D02*
X1051460D01*
Y2032100D01*
X1071500D01*
Y2039640D01*
D02*
G37*
G36*
X49540Y2038640D02*
X29500D01*
Y2031100D01*
X49540D01*
Y2038640D01*
D02*
G37*
G36*
X1071500Y2027100D02*
X1051460D01*
Y2019560D01*
X1071500D01*
Y2027100D01*
D02*
G37*
G36*
X49540Y2026100D02*
X29500D01*
Y2018560D01*
X49540D01*
Y2026100D01*
D02*
G37*
%LPD*%
D10*
X1074000Y2581400D02*
D03*
Y2529600D02*
D03*
X27000Y2580400D02*
D03*
Y2528600D02*
D03*
Y2480400D02*
D03*
Y2428600D02*
D03*
X1074000Y2481400D02*
D03*
Y2429600D02*
D03*
Y224600D02*
D03*
Y276400D02*
D03*
Y424600D02*
D03*
Y476400D02*
D03*
Y2029600D02*
D03*
Y2081400D02*
D03*
Y2329600D02*
D03*
Y2381400D02*
D03*
Y2129600D02*
D03*
Y2181400D02*
D03*
Y1829600D02*
D03*
Y1881400D02*
D03*
Y49600D02*
D03*
Y101400D02*
D03*
Y624600D02*
D03*
Y676400D02*
D03*
Y824600D02*
D03*
Y876400D02*
D03*
Y999600D02*
D03*
Y1051400D02*
D03*
Y1149600D02*
D03*
Y1201400D02*
D03*
Y1299600D02*
D03*
Y1351400D02*
D03*
Y1429600D02*
D03*
Y1481400D02*
D03*
Y1529600D02*
D03*
Y1581400D02*
D03*
Y1629600D02*
D03*
Y1681400D02*
D03*
Y1729600D02*
D03*
Y1781400D02*
D03*
Y1929600D02*
D03*
Y1981400D02*
D03*
Y2229600D02*
D03*
Y2281400D02*
D03*
X27000Y2228600D02*
D03*
Y2280400D02*
D03*
Y2328600D02*
D03*
Y2380400D02*
D03*
Y2128600D02*
D03*
Y2180400D02*
D03*
Y2028600D02*
D03*
Y2080400D02*
D03*
Y1828600D02*
D03*
Y1880400D02*
D03*
Y1928600D02*
D03*
Y1980400D02*
D03*
Y1728600D02*
D03*
Y1780400D02*
D03*
Y1628600D02*
D03*
Y1680400D02*
D03*
Y1428600D02*
D03*
Y1480400D02*
D03*
Y1528600D02*
D03*
Y1580400D02*
D03*
X26000Y1298600D02*
D03*
Y1350400D02*
D03*
Y1148600D02*
D03*
Y1200400D02*
D03*
Y998600D02*
D03*
Y1050400D02*
D03*
X27000Y823600D02*
D03*
Y875400D02*
D03*
Y623600D02*
D03*
Y675400D02*
D03*
Y423600D02*
D03*
Y475400D02*
D03*
X26000Y48600D02*
D03*
Y100400D02*
D03*
X27000Y223600D02*
D03*
Y275400D02*
D03*
D13*
X302089Y2109500D02*
X304989Y2106600D01*
X301325Y2109500D02*
X302089D01*
X795012Y2103400D02*
X797912Y2100500D01*
X304989Y2103400D02*
X795012D01*
X797912Y2109500D02*
X798674D01*
X795012Y2106600D02*
X797912Y2109500D01*
X304989Y2106600D02*
X795012D01*
X301325Y2100500D02*
X302089D01*
X304989Y2103400D01*
X797912Y2100500D02*
X798674D01*
X797912Y1900500D02*
X798674D01*
X302089D02*
X304989Y1903400D01*
X301325Y1900500D02*
X302089D01*
X304989Y1906600D02*
X795012D01*
X797912Y1909500D01*
X798674D01*
X304989Y1903400D02*
X795012D01*
X797912Y1900500D01*
X301325Y1909500D02*
X302089D01*
X304989Y1906600D01*
D15*
X300000Y1175000D02*
X800000D01*
X300000Y1025000D02*
X800000D01*
D19*
X1026498Y2541208D02*
D03*
Y2481208D02*
D03*
X1041498Y2451208D02*
D03*
X1026498Y2421208D02*
D03*
X1011498Y2571208D02*
D03*
X996498Y2541208D02*
D03*
Y2481208D02*
D03*
X1011498Y2451208D02*
D03*
X996498Y2421208D02*
D03*
X981498Y2571208D02*
D03*
X966498Y2541208D02*
D03*
Y2481208D02*
D03*
X981498Y2451208D02*
D03*
X966498Y2421208D02*
D03*
X951498Y2571208D02*
D03*
X936498Y2541208D02*
D03*
Y2481208D02*
D03*
X951498Y2451208D02*
D03*
X936498Y2421208D02*
D03*
X921498Y2571208D02*
D03*
X906498Y2541208D02*
D03*
Y2481208D02*
D03*
X921498Y2451208D02*
D03*
X906498Y2421208D02*
D03*
X891498Y2571208D02*
D03*
X876498Y2541208D02*
D03*
Y2481208D02*
D03*
X891498Y2451208D02*
D03*
X876498Y2421208D02*
D03*
X861498Y2571208D02*
D03*
X846498Y2541208D02*
D03*
Y2481208D02*
D03*
X861498Y2451208D02*
D03*
X846498Y2421208D02*
D03*
X831498Y2571208D02*
D03*
X816498Y2541208D02*
D03*
Y2481208D02*
D03*
X831498Y2451208D02*
D03*
X816498Y2421208D02*
D03*
X801498Y2571208D02*
D03*
X786498Y2541208D02*
D03*
Y2481208D02*
D03*
X801498Y2451208D02*
D03*
X786498Y2421208D02*
D03*
X771498Y2571208D02*
D03*
X756498Y2541208D02*
D03*
Y2481208D02*
D03*
X771498Y2451208D02*
D03*
X756498Y2421208D02*
D03*
X741498Y2571208D02*
D03*
X726498Y2541208D02*
D03*
Y2481208D02*
D03*
X741498Y2451208D02*
D03*
X726498Y2421208D02*
D03*
X711498Y2571208D02*
D03*
X696498Y2541208D02*
D03*
Y2481208D02*
D03*
X711498Y2451208D02*
D03*
X696498Y2421208D02*
D03*
X681498Y2571208D02*
D03*
X666498Y2541208D02*
D03*
Y2481208D02*
D03*
X681498Y2451208D02*
D03*
X666498Y2421208D02*
D03*
X651498Y2571208D02*
D03*
X636498Y2541208D02*
D03*
Y2481208D02*
D03*
X651498Y2451208D02*
D03*
X636498Y2421208D02*
D03*
X621498Y2571208D02*
D03*
X606498Y2541208D02*
D03*
Y2481208D02*
D03*
X621498Y2451208D02*
D03*
X606498Y2421208D02*
D03*
X591498Y2571208D02*
D03*
X576498Y2541208D02*
D03*
Y2481208D02*
D03*
X591498Y2451208D02*
D03*
X576498Y2421208D02*
D03*
X531498Y2571208D02*
D03*
X516498Y2541208D02*
D03*
Y2481208D02*
D03*
X531498Y2451208D02*
D03*
X516498Y2421208D02*
D03*
X501498Y2571208D02*
D03*
X486498Y2541208D02*
D03*
Y2481208D02*
D03*
X501498Y2451208D02*
D03*
X486498Y2421208D02*
D03*
X471498Y2571208D02*
D03*
X456498Y2541208D02*
D03*
Y2481208D02*
D03*
X471498Y2451208D02*
D03*
X456498Y2421208D02*
D03*
X441498Y2571208D02*
D03*
X426498Y2541208D02*
D03*
Y2481208D02*
D03*
X441498Y2451208D02*
D03*
X426498Y2421208D02*
D03*
X411498Y2571208D02*
D03*
X396498Y2541208D02*
D03*
Y2481208D02*
D03*
X411498Y2451208D02*
D03*
X396498Y2421208D02*
D03*
X381498Y2571208D02*
D03*
X366498Y2541208D02*
D03*
Y2481208D02*
D03*
X381498Y2451208D02*
D03*
X366498Y2421208D02*
D03*
X351498Y2571208D02*
D03*
X336498Y2541208D02*
D03*
Y2481208D02*
D03*
X351498Y2451208D02*
D03*
X336498Y2421208D02*
D03*
X321498Y2571208D02*
D03*
X306498Y2541208D02*
D03*
Y2481208D02*
D03*
X321498Y2451208D02*
D03*
X306498Y2421208D02*
D03*
X291498Y2571208D02*
D03*
X276498Y2541208D02*
D03*
Y2481208D02*
D03*
X291498Y2451208D02*
D03*
X276498Y2421208D02*
D03*
X261498Y2571208D02*
D03*
X246498Y2541208D02*
D03*
Y2481208D02*
D03*
X261498Y2451208D02*
D03*
X246498Y2421208D02*
D03*
X231498Y2571208D02*
D03*
X216498Y2541208D02*
D03*
Y2481208D02*
D03*
X231498Y2451208D02*
D03*
X216498Y2421208D02*
D03*
X201498Y2571208D02*
D03*
X186498Y2541208D02*
D03*
Y2481208D02*
D03*
X201498Y2451208D02*
D03*
X186498Y2421208D02*
D03*
X171498Y2571208D02*
D03*
X156498Y2541208D02*
D03*
Y2481208D02*
D03*
X171498Y2451208D02*
D03*
X156498Y2421208D02*
D03*
X141498Y2571208D02*
D03*
X126498Y2541208D02*
D03*
Y2481208D02*
D03*
X141498Y2451208D02*
D03*
X126498Y2421208D02*
D03*
X111498Y2571208D02*
D03*
X96498Y2541208D02*
D03*
Y2481208D02*
D03*
X111498Y2451208D02*
D03*
X96498Y2421208D02*
D03*
X81498Y2571208D02*
D03*
X66498Y2541208D02*
D03*
X81498Y2451208D02*
D03*
X1041498Y2361208D02*
D03*
X1026498Y2331208D02*
D03*
Y2271208D02*
D03*
Y2211208D02*
D03*
X1011498Y2361208D02*
D03*
X996498Y2331208D02*
D03*
Y2271208D02*
D03*
X1011498Y2241208D02*
D03*
X996498Y2211208D02*
D03*
X981498Y2361208D02*
D03*
X966498Y2331208D02*
D03*
Y2271208D02*
D03*
X981498Y2241208D02*
D03*
X966498Y2211208D02*
D03*
X951498Y2361208D02*
D03*
X936498Y2331208D02*
D03*
Y2271208D02*
D03*
X951498Y2241208D02*
D03*
X936498Y2211208D02*
D03*
X921498Y2361208D02*
D03*
X906498Y2331208D02*
D03*
Y2271208D02*
D03*
X921498Y2241208D02*
D03*
X906498Y2211208D02*
D03*
X891498Y2361208D02*
D03*
X876498Y2331208D02*
D03*
Y2271208D02*
D03*
X891498Y2241208D02*
D03*
X876498Y2211208D02*
D03*
X861498Y2361208D02*
D03*
X846498Y2331208D02*
D03*
Y2271208D02*
D03*
X861498Y2241208D02*
D03*
X846498Y2211208D02*
D03*
X831498Y2361208D02*
D03*
X816498Y2331208D02*
D03*
Y2271208D02*
D03*
X831498Y2241208D02*
D03*
X816498Y2211208D02*
D03*
X801498Y2361208D02*
D03*
X786498Y2331208D02*
D03*
Y2271208D02*
D03*
X801498Y2241208D02*
D03*
X786498Y2211208D02*
D03*
X771498Y2361208D02*
D03*
X756498Y2331208D02*
D03*
Y2271208D02*
D03*
X771498Y2241208D02*
D03*
X756498Y2211208D02*
D03*
X741498Y2361208D02*
D03*
X726498Y2331208D02*
D03*
Y2271208D02*
D03*
X741498Y2241208D02*
D03*
X726498Y2211208D02*
D03*
X711498Y2361208D02*
D03*
X696498Y2331208D02*
D03*
Y2271208D02*
D03*
X711498Y2241208D02*
D03*
X696498Y2211208D02*
D03*
X681498Y2361208D02*
D03*
X666498Y2331208D02*
D03*
Y2271208D02*
D03*
X681498Y2241208D02*
D03*
X666498Y2211208D02*
D03*
X651498Y2361208D02*
D03*
X636498Y2331208D02*
D03*
Y2271208D02*
D03*
X651498Y2241208D02*
D03*
X636498Y2211208D02*
D03*
X621498Y2361208D02*
D03*
X606498Y2331208D02*
D03*
Y2271208D02*
D03*
X621498Y2241208D02*
D03*
X606498Y2211208D02*
D03*
X591498Y2361208D02*
D03*
X576498Y2331208D02*
D03*
Y2271208D02*
D03*
X591498Y2241208D02*
D03*
X576498Y2211208D02*
D03*
X561498Y2361208D02*
D03*
X546498Y2331208D02*
D03*
Y2271208D02*
D03*
X561498Y2241208D02*
D03*
X546498Y2211208D02*
D03*
X531498Y2361208D02*
D03*
X516498Y2331208D02*
D03*
Y2271208D02*
D03*
X531498Y2241208D02*
D03*
X516498Y2211208D02*
D03*
X501498Y2361208D02*
D03*
X486498Y2331208D02*
D03*
Y2271208D02*
D03*
X501498Y2241208D02*
D03*
X486498Y2211208D02*
D03*
X471498Y2361208D02*
D03*
X456498Y2331208D02*
D03*
Y2271208D02*
D03*
X471498Y2241208D02*
D03*
X456498Y2211208D02*
D03*
X441498Y2361208D02*
D03*
X426498Y2331208D02*
D03*
Y2271208D02*
D03*
X441498Y2241208D02*
D03*
X426498Y2211208D02*
D03*
X411498Y2361208D02*
D03*
X396498Y2331208D02*
D03*
Y2271208D02*
D03*
X411498Y2241208D02*
D03*
X396498Y2211208D02*
D03*
X381498Y2361208D02*
D03*
X366498Y2331208D02*
D03*
Y2271208D02*
D03*
X381498Y2241208D02*
D03*
X366498Y2211208D02*
D03*
X351498Y2361208D02*
D03*
X336498Y2331208D02*
D03*
Y2271208D02*
D03*
X351498Y2241208D02*
D03*
X336498Y2211208D02*
D03*
X321498Y2361208D02*
D03*
X306498Y2331208D02*
D03*
Y2271208D02*
D03*
X321498Y2241208D02*
D03*
X306498Y2211208D02*
D03*
X291498Y2361208D02*
D03*
X276498Y2331208D02*
D03*
Y2271208D02*
D03*
X291498Y2241208D02*
D03*
X276498Y2211208D02*
D03*
X261498Y2361208D02*
D03*
X246498Y2331208D02*
D03*
Y2271208D02*
D03*
X261498Y2241208D02*
D03*
X246498Y2211208D02*
D03*
X231498Y2361208D02*
D03*
X216498Y2331208D02*
D03*
Y2271208D02*
D03*
X231498Y2241208D02*
D03*
X216498Y2211208D02*
D03*
X201498Y2361208D02*
D03*
X186498Y2331208D02*
D03*
Y2271208D02*
D03*
X201498Y2241208D02*
D03*
X186498Y2211208D02*
D03*
X171498Y2361208D02*
D03*
X156498Y2331208D02*
D03*
Y2271208D02*
D03*
X171498Y2241208D02*
D03*
X156498Y2211208D02*
D03*
X141498Y2361208D02*
D03*
X126498Y2331208D02*
D03*
Y2271208D02*
D03*
X141498Y2241208D02*
D03*
X126498Y2211208D02*
D03*
X111498Y2361208D02*
D03*
X96498Y2331208D02*
D03*
Y2271208D02*
D03*
X111498Y2241208D02*
D03*
X96498Y2211208D02*
D03*
X81498Y2361208D02*
D03*
Y2241208D02*
D03*
X66498Y2211208D02*
D03*
X1026498Y2151208D02*
D03*
Y2091208D02*
D03*
X1041498Y2061209D02*
D03*
X996498Y2151208D02*
D03*
X1011498Y2121208D02*
D03*
X996498Y2091208D02*
D03*
X1011498Y2061209D02*
D03*
X996498Y2031209D02*
D03*
X966498Y2151208D02*
D03*
X981498Y2121208D02*
D03*
X966498Y2091208D02*
D03*
X981498Y2061209D02*
D03*
X966498Y2031209D02*
D03*
X936498Y2151208D02*
D03*
X951498Y2121208D02*
D03*
X936498Y2091208D02*
D03*
X951498Y2061209D02*
D03*
X936498Y2031209D02*
D03*
X906498Y2151208D02*
D03*
X921498Y2121208D02*
D03*
X906498Y2091208D02*
D03*
X921498Y2061209D02*
D03*
X906498Y2031209D02*
D03*
X876498Y2151208D02*
D03*
X891498Y2121208D02*
D03*
X876498Y2091208D02*
D03*
X891498Y2061209D02*
D03*
X876498Y2031209D02*
D03*
X846498Y2151208D02*
D03*
X861498Y2121208D02*
D03*
X846498Y2091208D02*
D03*
X861498Y2061209D02*
D03*
X846498Y2031209D02*
D03*
X816498Y2151208D02*
D03*
X831498Y2121208D02*
D03*
X816498Y2091208D02*
D03*
X831498Y2061209D02*
D03*
X816498Y2031209D02*
D03*
X786498Y2151208D02*
D03*
X801498Y2121208D02*
D03*
X786498Y2091208D02*
D03*
X801498Y2061209D02*
D03*
X786498Y2031209D02*
D03*
X756498Y2151208D02*
D03*
X771498Y2121208D02*
D03*
X756498Y2091208D02*
D03*
X771498Y2061209D02*
D03*
X756498Y2031209D02*
D03*
X726498Y2151208D02*
D03*
X741498Y2121208D02*
D03*
X726498Y2091208D02*
D03*
X741498Y2061209D02*
D03*
X726498Y2031209D02*
D03*
X696498Y2151208D02*
D03*
X711498Y2121208D02*
D03*
X696498Y2091208D02*
D03*
X711498Y2061209D02*
D03*
X696498Y2031209D02*
D03*
X666498Y2151208D02*
D03*
X681498Y2121208D02*
D03*
X666498Y2091208D02*
D03*
X681498Y2061209D02*
D03*
X666498Y2031209D02*
D03*
X636498Y2151208D02*
D03*
X651498Y2121208D02*
D03*
X636498Y2091208D02*
D03*
X651498Y2061209D02*
D03*
X636498Y2031209D02*
D03*
X606498Y2151208D02*
D03*
X621498Y2121208D02*
D03*
X606498Y2091208D02*
D03*
X621498Y2061209D02*
D03*
X606498Y2031209D02*
D03*
X576498Y2151208D02*
D03*
X591498Y2121208D02*
D03*
X576498Y2091208D02*
D03*
X591498Y2061209D02*
D03*
X576498Y2031209D02*
D03*
X546498Y2151208D02*
D03*
X561498Y2121208D02*
D03*
X546498Y2091208D02*
D03*
X561498Y2061209D02*
D03*
X546498Y2031209D02*
D03*
X516498Y2151208D02*
D03*
X531498Y2121208D02*
D03*
X516498Y2091208D02*
D03*
X531498Y2061209D02*
D03*
X516498Y2031209D02*
D03*
X486498Y2151208D02*
D03*
X501498Y2121208D02*
D03*
X486498Y2091208D02*
D03*
X501498Y2061209D02*
D03*
X486498Y2031209D02*
D03*
X456498Y2151208D02*
D03*
X471498Y2121208D02*
D03*
X456498Y2091208D02*
D03*
X471498Y2061209D02*
D03*
X456498Y2031209D02*
D03*
X426498Y2151208D02*
D03*
X441498Y2121208D02*
D03*
X426498Y2091208D02*
D03*
X441498Y2061209D02*
D03*
X426498Y2031209D02*
D03*
X396498Y2151208D02*
D03*
X411498Y2121208D02*
D03*
X396498Y2091208D02*
D03*
X411498Y2061209D02*
D03*
X396498Y2031209D02*
D03*
X366498Y2151208D02*
D03*
X381498Y2121208D02*
D03*
X366498Y2091208D02*
D03*
X381498Y2061209D02*
D03*
X366498Y2031209D02*
D03*
X336498Y2151208D02*
D03*
X351498Y2121208D02*
D03*
X336498Y2091208D02*
D03*
X351498Y2061209D02*
D03*
X336498Y2031209D02*
D03*
X306498Y2151208D02*
D03*
X321498Y2121208D02*
D03*
X306498Y2091208D02*
D03*
X321498Y2061209D02*
D03*
X306498Y2031209D02*
D03*
X276498Y2151208D02*
D03*
X291498Y2121208D02*
D03*
X276498Y2091208D02*
D03*
X291498Y2061209D02*
D03*
X276498Y2031209D02*
D03*
X246498Y2151208D02*
D03*
X261498Y2121208D02*
D03*
X246498Y2091208D02*
D03*
X261498Y2061209D02*
D03*
X246498Y2031209D02*
D03*
X216498Y2151208D02*
D03*
X231498Y2121208D02*
D03*
X216498Y2091208D02*
D03*
X231498Y2061209D02*
D03*
X216498Y2031209D02*
D03*
X186498Y2151208D02*
D03*
X201498Y2121208D02*
D03*
X186498Y2091208D02*
D03*
X201498Y2061209D02*
D03*
X186498Y2031209D02*
D03*
X156498Y2151208D02*
D03*
X171498Y2121208D02*
D03*
X156498Y2091208D02*
D03*
X171498Y2061209D02*
D03*
X156498Y2031209D02*
D03*
X126498Y2151208D02*
D03*
X141498Y2121208D02*
D03*
X126498Y2091208D02*
D03*
X141498Y2061209D02*
D03*
X126498Y2031209D02*
D03*
X96498Y2151208D02*
D03*
X111498Y2121208D02*
D03*
X96498Y2091208D02*
D03*
X111498Y2061209D02*
D03*
X96498Y2031209D02*
D03*
X66498Y2151208D02*
D03*
X81498Y2121208D02*
D03*
Y2061209D02*
D03*
X1026498Y1941209D02*
D03*
Y1881209D02*
D03*
X1041498Y1851209D02*
D03*
X1011498Y1971209D02*
D03*
X996498Y1941209D02*
D03*
Y1881209D02*
D03*
X1011498Y1851209D02*
D03*
X996498Y1821209D02*
D03*
X981498Y1971209D02*
D03*
X966498Y1941209D02*
D03*
Y1881209D02*
D03*
X981498Y1851209D02*
D03*
X966498Y1821209D02*
D03*
X951498Y1971209D02*
D03*
X936498Y1941209D02*
D03*
Y1881209D02*
D03*
X951498Y1851209D02*
D03*
X936498Y1821209D02*
D03*
X921498Y1971209D02*
D03*
X906498Y1941209D02*
D03*
Y1881209D02*
D03*
X921498Y1851209D02*
D03*
X906498Y1821209D02*
D03*
X891498Y1971209D02*
D03*
X876498Y1941209D02*
D03*
Y1881209D02*
D03*
X891498Y1851209D02*
D03*
X876498Y1821209D02*
D03*
X861498Y1971209D02*
D03*
X846498Y1941209D02*
D03*
Y1881209D02*
D03*
X861498Y1851209D02*
D03*
X846498Y1821209D02*
D03*
X831498Y1971209D02*
D03*
X816498Y1941209D02*
D03*
Y1881209D02*
D03*
X831498Y1851209D02*
D03*
X816498Y1821209D02*
D03*
X801498Y1971209D02*
D03*
X786498Y1941209D02*
D03*
Y1881209D02*
D03*
X801498Y1851209D02*
D03*
X786498Y1821209D02*
D03*
X771498Y1971209D02*
D03*
X756498Y1941209D02*
D03*
Y1881209D02*
D03*
X771498Y1851209D02*
D03*
X756498Y1821209D02*
D03*
X741498Y1971209D02*
D03*
X726498Y1941209D02*
D03*
Y1881209D02*
D03*
X741498Y1851209D02*
D03*
X726498Y1821209D02*
D03*
X711498Y1971209D02*
D03*
X696498Y1941209D02*
D03*
Y1881209D02*
D03*
X711498Y1851209D02*
D03*
X696498Y1821209D02*
D03*
X681498Y1971209D02*
D03*
X666498Y1941209D02*
D03*
Y1881209D02*
D03*
X681498Y1851209D02*
D03*
X666498Y1821209D02*
D03*
X651498Y1971209D02*
D03*
X636498Y1941209D02*
D03*
Y1881209D02*
D03*
X651498Y1851209D02*
D03*
X636498Y1821209D02*
D03*
X621498Y1971209D02*
D03*
X606498Y1941209D02*
D03*
Y1881209D02*
D03*
X621498Y1851209D02*
D03*
X606498Y1821209D02*
D03*
X591498Y1971209D02*
D03*
X576498Y1941209D02*
D03*
Y1881209D02*
D03*
X591498Y1851209D02*
D03*
X576498Y1821209D02*
D03*
X561498Y1971209D02*
D03*
X546498Y1941209D02*
D03*
Y1881209D02*
D03*
X561498Y1851209D02*
D03*
X546498Y1821209D02*
D03*
X531498Y1971209D02*
D03*
X516498Y1941209D02*
D03*
Y1881209D02*
D03*
X531498Y1851209D02*
D03*
X516498Y1821209D02*
D03*
X501498Y1971209D02*
D03*
X486498Y1941209D02*
D03*
Y1881209D02*
D03*
X501498Y1851209D02*
D03*
X486498Y1821209D02*
D03*
X471498Y1971209D02*
D03*
X456498Y1941209D02*
D03*
Y1881209D02*
D03*
X471498Y1851209D02*
D03*
X456498Y1821209D02*
D03*
X441498Y1971209D02*
D03*
X426498Y1941209D02*
D03*
Y1881209D02*
D03*
X441498Y1851209D02*
D03*
X426498Y1821209D02*
D03*
X411498Y1971209D02*
D03*
X396498Y1941209D02*
D03*
Y1881209D02*
D03*
X411498Y1851209D02*
D03*
X396498Y1821209D02*
D03*
X381498Y1971209D02*
D03*
X366498Y1941209D02*
D03*
Y1881209D02*
D03*
X381498Y1851209D02*
D03*
X366498Y1821209D02*
D03*
X351498Y1971209D02*
D03*
X336498Y1941209D02*
D03*
Y1881209D02*
D03*
X351498Y1851209D02*
D03*
X336498Y1821209D02*
D03*
X321498Y1971209D02*
D03*
X306498Y1941209D02*
D03*
Y1881209D02*
D03*
X321498Y1851209D02*
D03*
X306498Y1821209D02*
D03*
X291498Y1971209D02*
D03*
X276498Y1941209D02*
D03*
Y1881209D02*
D03*
X291498Y1851209D02*
D03*
X276498Y1821209D02*
D03*
X261498Y1971209D02*
D03*
X246498Y1941209D02*
D03*
Y1881209D02*
D03*
X261498Y1851209D02*
D03*
X246498Y1821209D02*
D03*
X231498Y1971209D02*
D03*
X216498Y1941209D02*
D03*
Y1881209D02*
D03*
X231498Y1851209D02*
D03*
X216498Y1821209D02*
D03*
X201498Y1971209D02*
D03*
X186498Y1941209D02*
D03*
Y1881209D02*
D03*
X201498Y1851209D02*
D03*
X186498Y1821209D02*
D03*
X171498Y1971209D02*
D03*
X156498Y1941209D02*
D03*
Y1881209D02*
D03*
X171498Y1851209D02*
D03*
X156498Y1821209D02*
D03*
X141498Y1971209D02*
D03*
X126498Y1941209D02*
D03*
Y1881209D02*
D03*
X141498Y1851209D02*
D03*
X126498Y1821209D02*
D03*
X111498Y1971209D02*
D03*
X96498Y1941209D02*
D03*
Y1881209D02*
D03*
X111498Y1851209D02*
D03*
X96498Y1821209D02*
D03*
X81498Y1971209D02*
D03*
X66498Y1941209D02*
D03*
X81498Y1851209D02*
D03*
X1011498Y1371209D02*
D03*
X996498Y1341209D02*
D03*
X1011498Y1311209D02*
D03*
X996498Y1281209D02*
D03*
X981498Y1371209D02*
D03*
X966498Y1341209D02*
D03*
X981498Y1311209D02*
D03*
X966498Y1281209D02*
D03*
X951498Y1371209D02*
D03*
X936498Y1341209D02*
D03*
X951498Y1311209D02*
D03*
X936498Y1281209D02*
D03*
X921498Y1371209D02*
D03*
X906498Y1341209D02*
D03*
X921498Y1311209D02*
D03*
X906498Y1281209D02*
D03*
X891498Y1371209D02*
D03*
X876498Y1341209D02*
D03*
X891498Y1311209D02*
D03*
X876498Y1281209D02*
D03*
X861498Y1371209D02*
D03*
X846498Y1341209D02*
D03*
X861498Y1311209D02*
D03*
X846498Y1281209D02*
D03*
X831498Y1371209D02*
D03*
X816498Y1341209D02*
D03*
X831498Y1311209D02*
D03*
X816498Y1281209D02*
D03*
X801498Y1371209D02*
D03*
X786498Y1341209D02*
D03*
X801498Y1311209D02*
D03*
X786498Y1281209D02*
D03*
X771498Y1371209D02*
D03*
X756498Y1341209D02*
D03*
X771498Y1311209D02*
D03*
X756498Y1281209D02*
D03*
X741498Y1371209D02*
D03*
X726498Y1341209D02*
D03*
X741498Y1311209D02*
D03*
X726498Y1281209D02*
D03*
X711498Y1371209D02*
D03*
X696498Y1341209D02*
D03*
X711498Y1311209D02*
D03*
X696498Y1281209D02*
D03*
X681498Y1371209D02*
D03*
X666498Y1341209D02*
D03*
X681498Y1311209D02*
D03*
X666498Y1281209D02*
D03*
X651498Y1371209D02*
D03*
X636498Y1341209D02*
D03*
X651498Y1311209D02*
D03*
X636498Y1281209D02*
D03*
X621498Y1371209D02*
D03*
X606498Y1341209D02*
D03*
X621498Y1311209D02*
D03*
X606498Y1281209D02*
D03*
X591498Y1371209D02*
D03*
X576498Y1341209D02*
D03*
X591498Y1311209D02*
D03*
X576498Y1281209D02*
D03*
X531498Y1371209D02*
D03*
X516498Y1341209D02*
D03*
X531498Y1311209D02*
D03*
X516498Y1281209D02*
D03*
X501498Y1371209D02*
D03*
X486498Y1341209D02*
D03*
X501498Y1311209D02*
D03*
X486498Y1281209D02*
D03*
X471498Y1371209D02*
D03*
X456498Y1341209D02*
D03*
X471498Y1311209D02*
D03*
X456498Y1281209D02*
D03*
X441498Y1371209D02*
D03*
X426498Y1341209D02*
D03*
X441498Y1311209D02*
D03*
X426498Y1281209D02*
D03*
X411498Y1371209D02*
D03*
X396498Y1341209D02*
D03*
X411498Y1311209D02*
D03*
X396498Y1281209D02*
D03*
X381498Y1371209D02*
D03*
X366498Y1341209D02*
D03*
X381498Y1311209D02*
D03*
X366498Y1281209D02*
D03*
X351498Y1371209D02*
D03*
X336498Y1341209D02*
D03*
X351498Y1311209D02*
D03*
X336498Y1281209D02*
D03*
X321498Y1371209D02*
D03*
X306498Y1341209D02*
D03*
X321498Y1311209D02*
D03*
X306498Y1281209D02*
D03*
X291498Y1371209D02*
D03*
X276498Y1341209D02*
D03*
X291498Y1311209D02*
D03*
X276498Y1281209D02*
D03*
X261498Y1371209D02*
D03*
X246498Y1341209D02*
D03*
X261498Y1311209D02*
D03*
X246498Y1281209D02*
D03*
X231498Y1371209D02*
D03*
X216498Y1341209D02*
D03*
X231498Y1311209D02*
D03*
X216498Y1281209D02*
D03*
X201498Y1371209D02*
D03*
X186498Y1341209D02*
D03*
X201498Y1311209D02*
D03*
X186498Y1281209D02*
D03*
X171498Y1371209D02*
D03*
X156498Y1341209D02*
D03*
X171498Y1311209D02*
D03*
X156498Y1281209D02*
D03*
X141498Y1371209D02*
D03*
X126498Y1341209D02*
D03*
X141498Y1311209D02*
D03*
X126498Y1281209D02*
D03*
X111498Y1371209D02*
D03*
X96498Y1341209D02*
D03*
X111498Y1311209D02*
D03*
X96498Y1281209D02*
D03*
X81498Y1371209D02*
D03*
Y1311209D02*
D03*
X1011498Y1221209D02*
D03*
X996498Y1191209D02*
D03*
X1011498Y1161209D02*
D03*
X996498Y1131209D02*
D03*
X981498Y1221209D02*
D03*
X966498Y1191209D02*
D03*
X981498Y1161209D02*
D03*
X966498Y1131209D02*
D03*
X951498Y1221209D02*
D03*
X936498Y1191209D02*
D03*
X951498Y1161209D02*
D03*
X936498Y1131209D02*
D03*
X921498Y1221209D02*
D03*
X906498Y1191209D02*
D03*
X921498Y1161209D02*
D03*
X906498Y1131209D02*
D03*
X891498Y1221209D02*
D03*
X876498Y1191209D02*
D03*
X891498Y1161209D02*
D03*
X876498Y1131209D02*
D03*
X861498Y1221209D02*
D03*
X846498Y1191209D02*
D03*
X861498Y1161209D02*
D03*
X846498Y1131209D02*
D03*
X831498Y1221209D02*
D03*
Y1161209D02*
D03*
X816498Y1131209D02*
D03*
X801498Y1221209D02*
D03*
X786498Y1191209D02*
D03*
Y1131209D02*
D03*
X771498Y1221209D02*
D03*
X756498Y1191209D02*
D03*
X771498Y1161209D02*
D03*
X756498Y1131209D02*
D03*
X741498Y1221209D02*
D03*
X726498Y1191209D02*
D03*
X741498Y1161209D02*
D03*
X726498Y1131209D02*
D03*
X711498Y1221209D02*
D03*
X696498Y1191209D02*
D03*
X711498Y1161209D02*
D03*
X696498Y1131209D02*
D03*
X681498Y1221209D02*
D03*
X666498Y1191209D02*
D03*
X681498Y1161209D02*
D03*
X666498Y1131209D02*
D03*
X651498Y1221209D02*
D03*
X636498Y1191209D02*
D03*
X651498Y1161209D02*
D03*
X636498Y1131209D02*
D03*
X621498Y1221209D02*
D03*
X606498Y1191209D02*
D03*
X621498Y1161209D02*
D03*
X606498Y1131209D02*
D03*
X591498Y1221209D02*
D03*
X576498Y1191209D02*
D03*
X591498Y1161209D02*
D03*
X576498Y1131209D02*
D03*
X561498Y1221209D02*
D03*
X546498Y1191209D02*
D03*
X561498Y1161209D02*
D03*
X546498Y1131209D02*
D03*
X531498Y1221209D02*
D03*
X516498Y1191209D02*
D03*
X531498Y1161209D02*
D03*
X516498Y1131209D02*
D03*
X501498Y1221209D02*
D03*
X486498Y1191209D02*
D03*
X501498Y1161209D02*
D03*
X486498Y1131209D02*
D03*
X471498Y1221209D02*
D03*
X456498Y1191209D02*
D03*
X471498Y1161209D02*
D03*
X456498Y1131209D02*
D03*
X441498Y1221209D02*
D03*
X426498Y1191209D02*
D03*
X441498Y1161209D02*
D03*
X426498Y1131209D02*
D03*
X411498Y1221209D02*
D03*
X396498Y1191209D02*
D03*
X411498Y1161209D02*
D03*
X396498Y1131209D02*
D03*
X381498Y1221209D02*
D03*
X366498Y1191209D02*
D03*
X381498Y1161209D02*
D03*
X366498Y1131209D02*
D03*
X351498Y1221209D02*
D03*
X336498Y1191209D02*
D03*
X351498Y1161209D02*
D03*
X336498Y1131209D02*
D03*
X321498Y1221209D02*
D03*
Y1161209D02*
D03*
X306498Y1131209D02*
D03*
X291498Y1221209D02*
D03*
X276498Y1191209D02*
D03*
Y1131209D02*
D03*
X261498Y1221209D02*
D03*
X246498Y1191209D02*
D03*
X261498Y1161209D02*
D03*
X246498Y1131209D02*
D03*
X231498Y1221209D02*
D03*
X216498Y1191209D02*
D03*
X231498Y1161209D02*
D03*
X216498Y1131209D02*
D03*
X201498Y1221209D02*
D03*
X186498Y1191209D02*
D03*
X201498Y1161209D02*
D03*
X186498Y1131209D02*
D03*
X171498Y1221209D02*
D03*
X156498Y1191209D02*
D03*
X171498Y1161209D02*
D03*
X156498Y1131209D02*
D03*
X141498Y1221209D02*
D03*
X126498Y1191209D02*
D03*
X141498Y1161209D02*
D03*
X126498Y1131209D02*
D03*
X111498Y1221209D02*
D03*
X96498Y1191209D02*
D03*
X111498Y1161209D02*
D03*
X96498Y1131209D02*
D03*
X81498Y1221209D02*
D03*
Y1161209D02*
D03*
X1011498Y1071209D02*
D03*
X996498Y1041209D02*
D03*
X1011498Y1011209D02*
D03*
X996498Y981209D02*
D03*
X981498Y1071209D02*
D03*
X966498Y1041209D02*
D03*
X981498Y1011209D02*
D03*
X966498Y981209D02*
D03*
X951498Y1071209D02*
D03*
X936498Y1041209D02*
D03*
X951498Y1011209D02*
D03*
X936498Y981209D02*
D03*
X921498Y1071209D02*
D03*
X906498Y1041209D02*
D03*
X921498Y1011209D02*
D03*
X906498Y981209D02*
D03*
X891498Y1071209D02*
D03*
X876498Y1041209D02*
D03*
X891498Y1011209D02*
D03*
X876498Y981209D02*
D03*
X861498Y1071209D02*
D03*
X846498Y1041209D02*
D03*
X861498Y1011209D02*
D03*
X846498Y981209D02*
D03*
X831498Y1071209D02*
D03*
X816498Y1041209D02*
D03*
X831498Y1011209D02*
D03*
X816498Y981209D02*
D03*
X801498Y1071209D02*
D03*
X786498Y1041209D02*
D03*
X801498Y1011209D02*
D03*
X786498Y981209D02*
D03*
X771498Y1071209D02*
D03*
X756498Y1041209D02*
D03*
X771498Y1011209D02*
D03*
X756498Y981209D02*
D03*
X741498Y1071209D02*
D03*
X726498Y1041209D02*
D03*
X741498Y1011209D02*
D03*
X726498Y981209D02*
D03*
X711498Y1071209D02*
D03*
X696498Y1041209D02*
D03*
X711498Y1011209D02*
D03*
X696498Y981209D02*
D03*
X681498Y1071209D02*
D03*
X666498Y1041209D02*
D03*
X681498Y1011209D02*
D03*
X666498Y981209D02*
D03*
X651498Y1071209D02*
D03*
X636498Y1041209D02*
D03*
X651498Y1011209D02*
D03*
X636498Y981209D02*
D03*
X621498Y1071209D02*
D03*
X606498Y1041209D02*
D03*
X621498Y1011209D02*
D03*
X606498Y981209D02*
D03*
X591498Y1071209D02*
D03*
X576498Y1041209D02*
D03*
X591498Y1011209D02*
D03*
X576498Y981209D02*
D03*
X561498Y1071209D02*
D03*
X546498Y1041209D02*
D03*
X561498Y1011209D02*
D03*
X546498Y981209D02*
D03*
X531498Y1071209D02*
D03*
X516498Y1041209D02*
D03*
X531498Y1011209D02*
D03*
X516498Y981209D02*
D03*
X501498Y1071209D02*
D03*
X486498Y1041209D02*
D03*
X501498Y1011209D02*
D03*
X486498Y981209D02*
D03*
X471498Y1071209D02*
D03*
X456498Y1041209D02*
D03*
X471498Y1011209D02*
D03*
X456498Y981209D02*
D03*
X441498Y1071209D02*
D03*
X426498Y1041209D02*
D03*
X441498Y1011209D02*
D03*
X426498Y981209D02*
D03*
X411498Y1071209D02*
D03*
X396498Y1041209D02*
D03*
X411498Y1011209D02*
D03*
X396498Y981209D02*
D03*
X381498Y1071209D02*
D03*
X366498Y1041209D02*
D03*
X381498Y1011209D02*
D03*
X366498Y981209D02*
D03*
X351498Y1071209D02*
D03*
X336498Y1041209D02*
D03*
X351498Y1011209D02*
D03*
X336498Y981209D02*
D03*
X321498Y1071209D02*
D03*
X306498Y1041209D02*
D03*
X321498Y1011209D02*
D03*
X306498Y981209D02*
D03*
X291498Y1071209D02*
D03*
X276498Y1041209D02*
D03*
X291498Y1011209D02*
D03*
X276498Y981209D02*
D03*
X261498Y1071209D02*
D03*
X246498Y1041209D02*
D03*
X261498Y1011209D02*
D03*
X246498Y981209D02*
D03*
X231498Y1071209D02*
D03*
X216498Y1041209D02*
D03*
X231498Y1011209D02*
D03*
X216498Y981209D02*
D03*
X201498Y1071209D02*
D03*
X186498Y1041209D02*
D03*
X201498Y1011209D02*
D03*
X186498Y981209D02*
D03*
X171498Y1071209D02*
D03*
X156498Y1041209D02*
D03*
X171498Y1011209D02*
D03*
X156498Y981209D02*
D03*
X141498Y1071209D02*
D03*
X126498Y1041209D02*
D03*
X141498Y1011209D02*
D03*
X126498Y981209D02*
D03*
X111498Y1071209D02*
D03*
X96498Y1041209D02*
D03*
X111498Y1011209D02*
D03*
X96498Y981209D02*
D03*
X81498Y1071209D02*
D03*
Y1011209D02*
D03*
X295000Y1164000D02*
D03*
Y1186000D02*
D03*
X804000Y1164000D02*
D03*
Y1186000D02*
D03*
X300000Y1175000D02*
D03*
X800000D02*
D03*
Y1025000D02*
D03*
X300000D02*
D03*
X1029176Y865049D02*
D03*
X1019176D02*
D03*
X1009176D02*
D03*
X999176D02*
D03*
X989176D02*
D03*
X979299Y866611D02*
D03*
X978040Y833387D02*
D03*
X1006863Y832261D02*
D03*
X1016494Y834950D02*
D03*
X1026494D02*
D03*
X1036494D02*
D03*
X964413Y866611D02*
D03*
X954447Y865780D02*
D03*
X944474Y865049D02*
D03*
X934538Y866176D02*
D03*
X932888Y832452D02*
D03*
X961605Y833387D02*
D03*
X63773Y834951D02*
D03*
X73773D02*
D03*
X83773D02*
D03*
X93773D02*
D03*
X103773D02*
D03*
X113773D02*
D03*
X123773D02*
D03*
X133773D02*
D03*
X143773D02*
D03*
X153773D02*
D03*
X163773D02*
D03*
X173773D02*
D03*
X183773D02*
D03*
X193773D02*
D03*
X203773D02*
D03*
X213773D02*
D03*
X223773D02*
D03*
X233773D02*
D03*
X243773D02*
D03*
X253772D02*
D03*
X263772D02*
D03*
X273772D02*
D03*
X283772D02*
D03*
X293772D02*
D03*
X303772D02*
D03*
X313772D02*
D03*
X323772D02*
D03*
X333772D02*
D03*
X343772D02*
D03*
X353772D02*
D03*
X363772D02*
D03*
X373772D02*
D03*
X383772D02*
D03*
X393772D02*
D03*
X403772D02*
D03*
X413772D02*
D03*
X423772D02*
D03*
X433772D02*
D03*
X443772D02*
D03*
X453772D02*
D03*
X463772D02*
D03*
X473772D02*
D03*
X483772D02*
D03*
X493772D02*
D03*
X503772D02*
D03*
X513772D02*
D03*
X523772D02*
D03*
X533772D02*
D03*
X543772D02*
D03*
X553772D02*
D03*
X563772D02*
D03*
X573772D02*
D03*
X583772D02*
D03*
X593772D02*
D03*
X603772D02*
D03*
X613772D02*
D03*
X623772D02*
D03*
X633772D02*
D03*
X643772D02*
D03*
X653772D02*
D03*
X663772D02*
D03*
X673772D02*
D03*
X683772D02*
D03*
X693772D02*
D03*
X703772D02*
D03*
X713772D02*
D03*
X723772D02*
D03*
X733772D02*
D03*
X743772D02*
D03*
X753771D02*
D03*
X763771D02*
D03*
X773771D02*
D03*
X783771D02*
D03*
X793771D02*
D03*
X803771D02*
D03*
X813771D02*
D03*
X823771D02*
D03*
X833771D02*
D03*
X843771D02*
D03*
X853771D02*
D03*
X863771D02*
D03*
X873771D02*
D03*
X883771D02*
D03*
X893771D02*
D03*
X903761Y834502D02*
D03*
X913699Y833387D02*
D03*
X923593Y834840D02*
D03*
X918860Y866468D02*
D03*
X908861Y866611D02*
D03*
X898984Y865049D02*
D03*
X888984D02*
D03*
X878984D02*
D03*
X868984D02*
D03*
X858984D02*
D03*
X848984D02*
D03*
X838984D02*
D03*
X828984D02*
D03*
X818984D02*
D03*
X808984D02*
D03*
X798984D02*
D03*
X788984D02*
D03*
X778984D02*
D03*
X768984D02*
D03*
X758985D02*
D03*
X748985D02*
D03*
X738985D02*
D03*
X728985D02*
D03*
X718985D02*
D03*
X708985D02*
D03*
X698985D02*
D03*
X688985D02*
D03*
X678985D02*
D03*
X668985D02*
D03*
X658985D02*
D03*
X648985D02*
D03*
X638985D02*
D03*
X628985D02*
D03*
X618985D02*
D03*
X608985D02*
D03*
X598985D02*
D03*
X588985D02*
D03*
X578985D02*
D03*
X568985D02*
D03*
X558985D02*
D03*
X548985D02*
D03*
X538985D02*
D03*
X528985D02*
D03*
X518985D02*
D03*
X508985D02*
D03*
X498985D02*
D03*
X488985D02*
D03*
X478985D02*
D03*
X468985D02*
D03*
X458985D02*
D03*
X448985D02*
D03*
X438985D02*
D03*
X428985D02*
D03*
X418985D02*
D03*
X408985D02*
D03*
X398985D02*
D03*
X388985D02*
D03*
X378985D02*
D03*
X368985D02*
D03*
X358985D02*
D03*
X348985D02*
D03*
X338985D02*
D03*
X328985D02*
D03*
X318985D02*
D03*
X308985D02*
D03*
X298985D02*
D03*
X288985D02*
D03*
X278985D02*
D03*
X268985D02*
D03*
X258986D02*
D03*
X248986D02*
D03*
X238986D02*
D03*
X228986D02*
D03*
X218986D02*
D03*
X208986D02*
D03*
X198986D02*
D03*
X188986D02*
D03*
X178986D02*
D03*
X168986D02*
D03*
X158986D02*
D03*
X148986D02*
D03*
X138986D02*
D03*
X128986D02*
D03*
X118986D02*
D03*
X108986D02*
D03*
X98986D02*
D03*
X88986D02*
D03*
X78986D02*
D03*
X68986D02*
D03*
X1022350Y667190D02*
D03*
X1007350D02*
D03*
X992350D02*
D03*
X977350D02*
D03*
X980860Y632809D02*
D03*
X1009938D02*
D03*
X1024938D02*
D03*
X945303Y667190D02*
D03*
X930303D02*
D03*
X927961Y632809D02*
D03*
X957123Y632462D02*
D03*
X972023Y634191D02*
D03*
X964544Y667023D02*
D03*
X740096Y667190D02*
D03*
X650096D02*
D03*
X515095D02*
D03*
X770096D02*
D03*
X845095D02*
D03*
X455096D02*
D03*
X886437Y632809D02*
D03*
X170096Y667190D02*
D03*
X365096D02*
D03*
X751437Y632809D02*
D03*
X575095Y667190D02*
D03*
X275096D02*
D03*
X335096D02*
D03*
X451437Y632809D02*
D03*
X496437D02*
D03*
X121437D02*
D03*
X440096Y667190D02*
D03*
X590095D02*
D03*
X256437Y632809D02*
D03*
X125096Y667190D02*
D03*
X605095D02*
D03*
X545095D02*
D03*
X875095D02*
D03*
X706437Y632809D02*
D03*
X166437D02*
D03*
X631437D02*
D03*
X305096Y667190D02*
D03*
X466437Y632809D02*
D03*
X76437D02*
D03*
X91437D02*
D03*
X331437D02*
D03*
X541437D02*
D03*
X436437D02*
D03*
X511437D02*
D03*
X80096Y667190D02*
D03*
X421437Y632809D02*
D03*
X226437D02*
D03*
X601437D02*
D03*
X620095Y667190D02*
D03*
X646437Y632809D02*
D03*
X410096Y667190D02*
D03*
X571437Y632809D02*
D03*
X556437D02*
D03*
X725096Y667190D02*
D03*
X391437Y632809D02*
D03*
X785096Y667190D02*
D03*
X815095D02*
D03*
X901437Y632809D02*
D03*
X481437D02*
D03*
X661437D02*
D03*
X301437D02*
D03*
X755096Y667190D02*
D03*
X395096D02*
D03*
X635095D02*
D03*
X136437Y632809D02*
D03*
X155096Y667190D02*
D03*
X530095D02*
D03*
X871437Y632809D02*
D03*
X586437D02*
D03*
X260096Y667190D02*
D03*
X346437Y632809D02*
D03*
X905095Y667190D02*
D03*
X736437Y632809D02*
D03*
X680096Y667190D02*
D03*
X110096D02*
D03*
X185096D02*
D03*
X140096D02*
D03*
X841437Y632809D02*
D03*
X781437D02*
D03*
X691437D02*
D03*
X425096Y667190D02*
D03*
X215096D02*
D03*
X710096D02*
D03*
X151437Y632809D02*
D03*
X890095Y667190D02*
D03*
X766437Y632809D02*
D03*
X286437D02*
D03*
X721437D02*
D03*
X106437D02*
D03*
X271437D02*
D03*
X676437D02*
D03*
X811437D02*
D03*
X320096Y667190D02*
D03*
X560095D02*
D03*
X920070Y666309D02*
D03*
X361437Y632809D02*
D03*
X181437D02*
D03*
X800096Y667190D02*
D03*
X95096D02*
D03*
X500095D02*
D03*
X241437Y632809D02*
D03*
X211437D02*
D03*
X230096Y667190D02*
D03*
X796437Y632809D02*
D03*
X616437D02*
D03*
X406437D02*
D03*
X316437D02*
D03*
X830095Y667190D02*
D03*
X290096D02*
D03*
X350096D02*
D03*
X470096D02*
D03*
X245096D02*
D03*
X826437Y632809D02*
D03*
X856437D02*
D03*
X380096Y667190D02*
D03*
X200096D02*
D03*
X860095D02*
D03*
X196437Y632809D02*
D03*
X916432Y633182D02*
D03*
X695096Y667190D02*
D03*
X65096D02*
D03*
X665096D02*
D03*
X485095D02*
D03*
X376437Y632809D02*
D03*
X526437D02*
D03*
X1030252Y465049D02*
D03*
X1020252D02*
D03*
X1010252D02*
D03*
X1000252D02*
D03*
X990252D02*
D03*
X980252D02*
D03*
X970252D02*
D03*
X960252D02*
D03*
X950252D02*
D03*
X940252D02*
D03*
X930252D02*
D03*
X920252D02*
D03*
X910252D02*
D03*
X900252D02*
D03*
X890252D02*
D03*
X880252D02*
D03*
X870252D02*
D03*
X860252D02*
D03*
X850252D02*
D03*
X840252D02*
D03*
X830252D02*
D03*
X820252D02*
D03*
X810253D02*
D03*
X800253D02*
D03*
X790253D02*
D03*
X780253D02*
D03*
X770253D02*
D03*
X760253D02*
D03*
X750253D02*
D03*
X740253D02*
D03*
X730253D02*
D03*
X720253D02*
D03*
X710253D02*
D03*
X700253D02*
D03*
X690253D02*
D03*
X680253D02*
D03*
X670253D02*
D03*
X660253D02*
D03*
X650253D02*
D03*
X640253D02*
D03*
X630253D02*
D03*
X620253D02*
D03*
X610253D02*
D03*
X600253D02*
D03*
X590253D02*
D03*
X580253D02*
D03*
X570253D02*
D03*
X560253D02*
D03*
X550253D02*
D03*
X540253D02*
D03*
X530253D02*
D03*
X520253D02*
D03*
X510253D02*
D03*
X500253D02*
D03*
X490253D02*
D03*
X480253D02*
D03*
X470253D02*
D03*
X460253D02*
D03*
X450253D02*
D03*
X440253D02*
D03*
X430253D02*
D03*
X420253D02*
D03*
X410253D02*
D03*
X400253D02*
D03*
X390253D02*
D03*
X380253D02*
D03*
X370253D02*
D03*
X360253D02*
D03*
X350253D02*
D03*
X340253D02*
D03*
X330253D02*
D03*
X320253D02*
D03*
X310254D02*
D03*
X300254D02*
D03*
X290254D02*
D03*
X280254D02*
D03*
X270254D02*
D03*
X260254D02*
D03*
X250254D02*
D03*
X240254D02*
D03*
X230254D02*
D03*
X220254D02*
D03*
X210254D02*
D03*
X200254D02*
D03*
X190254D02*
D03*
X180254D02*
D03*
X170254D02*
D03*
X160254D02*
D03*
X150254D02*
D03*
X140254D02*
D03*
X130254D02*
D03*
X120254D02*
D03*
X110254D02*
D03*
X100254D02*
D03*
X90254D02*
D03*
X80254D02*
D03*
X70254D02*
D03*
X66497Y434951D02*
D03*
X76496D02*
D03*
X86496D02*
D03*
X96496D02*
D03*
X106496D02*
D03*
X116496D02*
D03*
X126496D02*
D03*
X136496D02*
D03*
X146496D02*
D03*
X156496D02*
D03*
X166496D02*
D03*
X176496D02*
D03*
X186496D02*
D03*
X196496D02*
D03*
X206496D02*
D03*
X216496D02*
D03*
X226496D02*
D03*
X236496D02*
D03*
X246496D02*
D03*
X256496D02*
D03*
X266496D02*
D03*
X276496D02*
D03*
X286496D02*
D03*
X296496D02*
D03*
X306496D02*
D03*
X316496D02*
D03*
X326496D02*
D03*
X336496D02*
D03*
X346496D02*
D03*
X356496D02*
D03*
X366496D02*
D03*
X376496D02*
D03*
X386496D02*
D03*
X396496D02*
D03*
X406496D02*
D03*
X416496D02*
D03*
X426496D02*
D03*
X436496D02*
D03*
X446496D02*
D03*
X456496D02*
D03*
X466496D02*
D03*
X476496D02*
D03*
X486496D02*
D03*
X496496D02*
D03*
X506496D02*
D03*
X516496D02*
D03*
X526496D02*
D03*
X536496D02*
D03*
X546496D02*
D03*
X556496D02*
D03*
X566496D02*
D03*
X576495D02*
D03*
X586495D02*
D03*
X596495D02*
D03*
X606495D02*
D03*
X616495D02*
D03*
X626495D02*
D03*
X636495D02*
D03*
X646495D02*
D03*
X656495D02*
D03*
X666495D02*
D03*
X676495D02*
D03*
X686495D02*
D03*
X696495D02*
D03*
X706495D02*
D03*
X716495D02*
D03*
X726495D02*
D03*
X736495D02*
D03*
X746495D02*
D03*
X756495D02*
D03*
X766495D02*
D03*
X776495D02*
D03*
X786495D02*
D03*
X796495D02*
D03*
X806495D02*
D03*
X816495D02*
D03*
X826495D02*
D03*
X836495D02*
D03*
X846495D02*
D03*
X856495D02*
D03*
X866495D02*
D03*
X876495D02*
D03*
X886495D02*
D03*
X896495D02*
D03*
X906495D02*
D03*
X916495D02*
D03*
X926495D02*
D03*
X936495D02*
D03*
X946495D02*
D03*
X956495D02*
D03*
X966495D02*
D03*
X976495D02*
D03*
X986495D02*
D03*
X996495D02*
D03*
X1006495D02*
D03*
X1016495D02*
D03*
X1026495D02*
D03*
X1036495D02*
D03*
X1034447Y267190D02*
D03*
X1019447D02*
D03*
X1004447D02*
D03*
X989447D02*
D03*
X974447D02*
D03*
X959447D02*
D03*
X944447D02*
D03*
X929447D02*
D03*
X914447D02*
D03*
X899447D02*
D03*
X884447D02*
D03*
X869447D02*
D03*
X854447D02*
D03*
X839447D02*
D03*
X824447D02*
D03*
X809447D02*
D03*
X794447D02*
D03*
X779447D02*
D03*
X764447D02*
D03*
X749447D02*
D03*
X734447D02*
D03*
X719447D02*
D03*
X704447D02*
D03*
X689447D02*
D03*
X674447D02*
D03*
X659447D02*
D03*
X644447D02*
D03*
X629447D02*
D03*
X614447D02*
D03*
X599447D02*
D03*
X584447D02*
D03*
X569447D02*
D03*
X554447D02*
D03*
X539447D02*
D03*
X524447D02*
D03*
X509447D02*
D03*
X494447D02*
D03*
X479447D02*
D03*
X464447D02*
D03*
X449447D02*
D03*
X434447D02*
D03*
X419447D02*
D03*
X404447D02*
D03*
X389447D02*
D03*
X374447D02*
D03*
X359447D02*
D03*
X344447D02*
D03*
X329447D02*
D03*
X314447D02*
D03*
X299447D02*
D03*
X284447D02*
D03*
X269447D02*
D03*
X254447D02*
D03*
X239447D02*
D03*
X224447D02*
D03*
X209447D02*
D03*
X194447D02*
D03*
X179447D02*
D03*
X164447D02*
D03*
X149447D02*
D03*
X134447D02*
D03*
X119447D02*
D03*
X104447D02*
D03*
X89447D02*
D03*
X74447D02*
D03*
X64938Y232810D02*
D03*
X79938D02*
D03*
X94938D02*
D03*
X109938D02*
D03*
X124938D02*
D03*
X139938D02*
D03*
X154938D02*
D03*
X169938D02*
D03*
X184938D02*
D03*
X199938D02*
D03*
X214938D02*
D03*
X229938D02*
D03*
X244938D02*
D03*
X259938D02*
D03*
X274938D02*
D03*
X289938D02*
D03*
X304938D02*
D03*
X319938D02*
D03*
X334938D02*
D03*
X349938D02*
D03*
X364938D02*
D03*
X379938D02*
D03*
X394938D02*
D03*
X409938D02*
D03*
X424938D02*
D03*
X439938D02*
D03*
X454938D02*
D03*
X469938D02*
D03*
X484938D02*
D03*
X499938D02*
D03*
X514938D02*
D03*
X529938D02*
D03*
X544938D02*
D03*
X559938D02*
D03*
X574938D02*
D03*
X589938D02*
D03*
X604938D02*
D03*
X619938D02*
D03*
X634938D02*
D03*
X649938D02*
D03*
X664938D02*
D03*
X679938D02*
D03*
X694938D02*
D03*
X709938D02*
D03*
X724938D02*
D03*
X739938D02*
D03*
X754938D02*
D03*
X769938D02*
D03*
X784938D02*
D03*
X799938D02*
D03*
X814938D02*
D03*
X829938D02*
D03*
X844938D02*
D03*
X859938D02*
D03*
X874938D02*
D03*
X889938D02*
D03*
X904938D02*
D03*
X919938D02*
D03*
X934938D02*
D03*
X949938D02*
D03*
X964938D02*
D03*
X979938D02*
D03*
X994938D02*
D03*
X1009938D02*
D03*
X1024938D02*
D03*
X1056498Y771209D02*
D03*
X1026498D02*
D03*
X1011498Y921209D02*
D03*
X996498Y891209D02*
D03*
X1011498Y801209D02*
D03*
X996498Y771209D02*
D03*
X981498Y921209D02*
D03*
X966498Y891209D02*
D03*
X981498Y801209D02*
D03*
X966498Y771209D02*
D03*
X951498Y921209D02*
D03*
X936498Y891209D02*
D03*
X951498Y801209D02*
D03*
X936498Y771209D02*
D03*
X921498Y921209D02*
D03*
X906498Y891209D02*
D03*
X921498Y801209D02*
D03*
X906498Y771209D02*
D03*
X891498Y921209D02*
D03*
X876498Y891209D02*
D03*
X891498Y801209D02*
D03*
X876498Y771209D02*
D03*
X861498Y921209D02*
D03*
X846498Y891209D02*
D03*
X861498Y801209D02*
D03*
X846498Y771209D02*
D03*
X831498Y921209D02*
D03*
X816498Y891209D02*
D03*
X831498Y801209D02*
D03*
X816498Y771209D02*
D03*
X801498Y921209D02*
D03*
X786498Y891209D02*
D03*
X801498Y801209D02*
D03*
X786498Y771209D02*
D03*
X771498Y921209D02*
D03*
X756498Y891209D02*
D03*
X771498Y801209D02*
D03*
X756498Y771209D02*
D03*
X741498Y921209D02*
D03*
X726498Y891209D02*
D03*
X741498Y801209D02*
D03*
X726498Y771209D02*
D03*
X711498Y921209D02*
D03*
X696498Y891209D02*
D03*
X711498Y801209D02*
D03*
X696498Y771209D02*
D03*
X681498Y921209D02*
D03*
X666498Y891209D02*
D03*
X681498Y801209D02*
D03*
X666498Y771209D02*
D03*
X651498Y921209D02*
D03*
X636498Y891209D02*
D03*
X651498Y801209D02*
D03*
X636498Y771209D02*
D03*
X621498Y921209D02*
D03*
X606498Y891209D02*
D03*
X621498Y801209D02*
D03*
X606498Y771209D02*
D03*
X591498Y921209D02*
D03*
X576498Y891209D02*
D03*
X591498Y801209D02*
D03*
X576498Y771209D02*
D03*
X561498Y921209D02*
D03*
X546498Y891209D02*
D03*
X561498Y801209D02*
D03*
X546498Y771209D02*
D03*
X531498Y921209D02*
D03*
X516498Y891209D02*
D03*
X531498Y801209D02*
D03*
X516498Y771209D02*
D03*
X501498Y921209D02*
D03*
X486498Y891209D02*
D03*
X501498Y801209D02*
D03*
X486498Y771209D02*
D03*
X471498Y921209D02*
D03*
X456498Y891209D02*
D03*
X471498Y801209D02*
D03*
X456498Y771209D02*
D03*
X441498Y921209D02*
D03*
X426498Y891209D02*
D03*
X441498Y801209D02*
D03*
X426498Y771209D02*
D03*
X411498Y921209D02*
D03*
X396498Y891209D02*
D03*
X411498Y801209D02*
D03*
X396498Y771209D02*
D03*
X381498Y921209D02*
D03*
X366498Y891209D02*
D03*
X381498Y801209D02*
D03*
X366498Y771209D02*
D03*
X351498Y921209D02*
D03*
X336498Y891209D02*
D03*
X351498Y801209D02*
D03*
X336498Y771209D02*
D03*
X321498Y921209D02*
D03*
X306498Y891209D02*
D03*
X321498Y801209D02*
D03*
X306498Y771209D02*
D03*
X291498Y921209D02*
D03*
X276498Y891209D02*
D03*
X291498Y801209D02*
D03*
X276498Y771209D02*
D03*
X261498Y921209D02*
D03*
X246498Y891209D02*
D03*
X261498Y801209D02*
D03*
X246498Y771209D02*
D03*
X231498Y921209D02*
D03*
X216498Y891209D02*
D03*
X231498Y801209D02*
D03*
X216498Y771209D02*
D03*
X201498Y921209D02*
D03*
X186498Y891209D02*
D03*
X201498Y801209D02*
D03*
X186498Y771209D02*
D03*
X171498Y921209D02*
D03*
X156498Y891209D02*
D03*
X171498Y801209D02*
D03*
X156498Y771209D02*
D03*
X141498Y921209D02*
D03*
X126498Y891209D02*
D03*
X141498Y801209D02*
D03*
X126498Y771209D02*
D03*
X111498Y921209D02*
D03*
X96498Y891209D02*
D03*
X111498Y801209D02*
D03*
X96498Y771209D02*
D03*
X81498Y921209D02*
D03*
X66498Y771209D02*
D03*
X36498D02*
D03*
X1011498Y1761209D02*
D03*
X996498Y1731209D02*
D03*
Y1671209D02*
D03*
X1011498Y1641209D02*
D03*
X996498Y1611209D02*
D03*
X981498Y1761209D02*
D03*
X966498Y1731209D02*
D03*
Y1671209D02*
D03*
X981498Y1641209D02*
D03*
X966498Y1611209D02*
D03*
X951498Y1761209D02*
D03*
X936498Y1731209D02*
D03*
Y1671209D02*
D03*
X951498Y1641209D02*
D03*
X936498Y1611209D02*
D03*
X921498Y1761209D02*
D03*
X906498Y1731209D02*
D03*
Y1671209D02*
D03*
X921498Y1641209D02*
D03*
X906498Y1611209D02*
D03*
X891498Y1761209D02*
D03*
X876498Y1731209D02*
D03*
Y1671209D02*
D03*
X891498Y1641209D02*
D03*
X876498Y1611209D02*
D03*
X861498Y1761209D02*
D03*
X846498Y1731209D02*
D03*
Y1671209D02*
D03*
X861498Y1641209D02*
D03*
X846498Y1611209D02*
D03*
X831498Y1761209D02*
D03*
X816498Y1731209D02*
D03*
Y1671209D02*
D03*
X831498Y1641209D02*
D03*
X816498Y1611209D02*
D03*
X801498Y1761209D02*
D03*
X786498Y1731209D02*
D03*
Y1671209D02*
D03*
X801498Y1641209D02*
D03*
X786498Y1611209D02*
D03*
X771498Y1761209D02*
D03*
X756498Y1731209D02*
D03*
Y1671209D02*
D03*
X771498Y1641209D02*
D03*
X756498Y1611209D02*
D03*
X741498Y1761209D02*
D03*
X726498Y1731209D02*
D03*
Y1671209D02*
D03*
X741498Y1641209D02*
D03*
X726498Y1611209D02*
D03*
X711498Y1761209D02*
D03*
X696498Y1731209D02*
D03*
Y1671209D02*
D03*
X711498Y1641209D02*
D03*
X696498Y1611209D02*
D03*
X681498Y1761209D02*
D03*
X666498Y1731209D02*
D03*
Y1671209D02*
D03*
X681498Y1641209D02*
D03*
X666498Y1611209D02*
D03*
X651498Y1761209D02*
D03*
X636498Y1731209D02*
D03*
Y1671209D02*
D03*
X651498Y1641209D02*
D03*
X636498Y1611209D02*
D03*
X621498Y1761209D02*
D03*
X606498Y1731209D02*
D03*
Y1671209D02*
D03*
X621498Y1641209D02*
D03*
X606498Y1611209D02*
D03*
X591498Y1761209D02*
D03*
X576498Y1731209D02*
D03*
Y1671209D02*
D03*
X591498Y1641209D02*
D03*
X576498Y1611209D02*
D03*
X561498Y1761209D02*
D03*
X546498Y1731209D02*
D03*
Y1671209D02*
D03*
X561498Y1641209D02*
D03*
X546498Y1611209D02*
D03*
X531498Y1761209D02*
D03*
X516498Y1731209D02*
D03*
Y1671209D02*
D03*
X531498Y1641209D02*
D03*
X516498Y1611209D02*
D03*
X501498Y1761209D02*
D03*
X486498Y1731209D02*
D03*
Y1671209D02*
D03*
X501498Y1641209D02*
D03*
X486498Y1611209D02*
D03*
X471498Y1761209D02*
D03*
X456498Y1731209D02*
D03*
Y1671209D02*
D03*
X471498Y1641209D02*
D03*
X456498Y1611209D02*
D03*
X441498Y1761209D02*
D03*
X426498Y1731209D02*
D03*
Y1671209D02*
D03*
X441498Y1641209D02*
D03*
X426498Y1611209D02*
D03*
X411498Y1761209D02*
D03*
X396498Y1731209D02*
D03*
Y1671209D02*
D03*
X411498Y1641209D02*
D03*
X396498Y1611209D02*
D03*
X381498Y1761209D02*
D03*
X366498Y1731209D02*
D03*
Y1671209D02*
D03*
X381498Y1641209D02*
D03*
X366498Y1611209D02*
D03*
X351498Y1761209D02*
D03*
X336498Y1731209D02*
D03*
Y1671209D02*
D03*
X351498Y1641209D02*
D03*
X336498Y1611209D02*
D03*
X321498Y1761209D02*
D03*
X306498Y1731209D02*
D03*
Y1671209D02*
D03*
X321498Y1641209D02*
D03*
X306498Y1611209D02*
D03*
X291498Y1761209D02*
D03*
X276498Y1731209D02*
D03*
Y1671209D02*
D03*
X291498Y1641209D02*
D03*
X276498Y1611209D02*
D03*
X261498Y1761209D02*
D03*
X246498Y1731209D02*
D03*
Y1671209D02*
D03*
X261498Y1641209D02*
D03*
X246498Y1611209D02*
D03*
X231498Y1761209D02*
D03*
X216498Y1731209D02*
D03*
Y1671209D02*
D03*
X231498Y1641209D02*
D03*
X216498Y1611209D02*
D03*
X201498Y1761209D02*
D03*
X186498Y1731209D02*
D03*
Y1671209D02*
D03*
X201498Y1641209D02*
D03*
X186498Y1611209D02*
D03*
X171498Y1761209D02*
D03*
X156498Y1731209D02*
D03*
Y1671209D02*
D03*
X171498Y1641209D02*
D03*
X156498Y1611209D02*
D03*
X141498Y1761209D02*
D03*
X126498Y1731209D02*
D03*
Y1671209D02*
D03*
X141498Y1641209D02*
D03*
X126498Y1611209D02*
D03*
X111498Y1761209D02*
D03*
Y1641209D02*
D03*
X96498Y1611209D02*
D03*
X1056498Y561209D02*
D03*
X1026498D02*
D03*
X1011498Y711209D02*
D03*
X996498Y681209D02*
D03*
X1011498Y591209D02*
D03*
X996498Y561209D02*
D03*
X981498Y711209D02*
D03*
Y591209D02*
D03*
X966498Y561209D02*
D03*
X951498Y711209D02*
D03*
X936498Y681209D02*
D03*
X951498Y591209D02*
D03*
X936498Y561209D02*
D03*
X921498Y711209D02*
D03*
Y591209D02*
D03*
X906498Y561209D02*
D03*
X891498Y711209D02*
D03*
X876498Y681209D02*
D03*
X891498Y591209D02*
D03*
X876498Y561209D02*
D03*
X861498Y711209D02*
D03*
X846498Y681209D02*
D03*
X861498Y591209D02*
D03*
X846498Y561209D02*
D03*
X831498Y711209D02*
D03*
X816498Y681209D02*
D03*
X831498Y591209D02*
D03*
X816498Y561209D02*
D03*
X801498Y711209D02*
D03*
X786498Y681209D02*
D03*
X801498Y591209D02*
D03*
X786498Y561209D02*
D03*
X771498Y711209D02*
D03*
X756498Y681209D02*
D03*
X771498Y591209D02*
D03*
X756498Y561209D02*
D03*
X741498Y711209D02*
D03*
X726498Y681209D02*
D03*
X741498Y591209D02*
D03*
X726498Y561209D02*
D03*
X711498Y711209D02*
D03*
X696498Y681209D02*
D03*
X711498Y591209D02*
D03*
X696498Y561209D02*
D03*
X681498Y711209D02*
D03*
X666498Y681209D02*
D03*
X681498Y591209D02*
D03*
X666498Y561209D02*
D03*
X651498Y711209D02*
D03*
X636498Y681209D02*
D03*
X651498Y591209D02*
D03*
X636498Y561209D02*
D03*
X621498Y711209D02*
D03*
X606498Y681209D02*
D03*
X621498Y591209D02*
D03*
X606498Y561209D02*
D03*
X591498Y711209D02*
D03*
X576498Y681209D02*
D03*
X591498Y591209D02*
D03*
X576498Y561209D02*
D03*
X561498Y711209D02*
D03*
X546498Y681209D02*
D03*
X561498Y591209D02*
D03*
X546498Y561209D02*
D03*
X531498Y711209D02*
D03*
X516498Y681209D02*
D03*
X531498Y591209D02*
D03*
X516498Y561209D02*
D03*
X501498Y711209D02*
D03*
X486498Y681209D02*
D03*
X501498Y591209D02*
D03*
X486498Y561209D02*
D03*
X471498Y711209D02*
D03*
X456498Y681209D02*
D03*
X471498Y591209D02*
D03*
X456498Y561209D02*
D03*
X441498Y711209D02*
D03*
X426498Y681209D02*
D03*
X441498Y591209D02*
D03*
X426498Y561209D02*
D03*
X411498Y711209D02*
D03*
X396498Y681209D02*
D03*
X411498Y591209D02*
D03*
X396498Y561209D02*
D03*
X381498Y711209D02*
D03*
X366498Y681209D02*
D03*
X381498Y591209D02*
D03*
X366498Y561209D02*
D03*
X351498Y711209D02*
D03*
X336498Y681209D02*
D03*
X351498Y591209D02*
D03*
X336498Y561209D02*
D03*
X321498Y711209D02*
D03*
X306498Y681209D02*
D03*
X321498Y591209D02*
D03*
X306498Y561209D02*
D03*
X291498Y711209D02*
D03*
X276498Y681209D02*
D03*
X291498Y591209D02*
D03*
X276498Y561209D02*
D03*
X261498Y711209D02*
D03*
X246498Y681209D02*
D03*
X261498Y591209D02*
D03*
X246498Y561209D02*
D03*
X231498Y711209D02*
D03*
X216498Y681209D02*
D03*
X231498Y591209D02*
D03*
X216498Y561209D02*
D03*
X201498Y711209D02*
D03*
X186498Y681209D02*
D03*
X201498Y591209D02*
D03*
X186498Y561209D02*
D03*
X171498Y711209D02*
D03*
X156498Y681209D02*
D03*
X171498Y591209D02*
D03*
X156498Y561209D02*
D03*
X141498Y711209D02*
D03*
X126498Y681209D02*
D03*
X141498Y591209D02*
D03*
X126498Y561209D02*
D03*
X111498Y711209D02*
D03*
X96498Y681209D02*
D03*
X111498Y591209D02*
D03*
X96498Y561209D02*
D03*
X81498Y711209D02*
D03*
Y591209D02*
D03*
X66498Y561209D02*
D03*
X36498D02*
D03*
X1056498Y381209D02*
D03*
X1026498D02*
D03*
X996498Y501209D02*
D03*
X1011498Y411209D02*
D03*
X996498Y381209D02*
D03*
X966498Y501209D02*
D03*
X981498Y411209D02*
D03*
X966498Y381209D02*
D03*
X936498Y501209D02*
D03*
X951498Y411209D02*
D03*
X936498Y381209D02*
D03*
X906498Y501209D02*
D03*
X921498Y411209D02*
D03*
X906498Y381209D02*
D03*
X876498Y501209D02*
D03*
X891498Y411209D02*
D03*
X876498Y381209D02*
D03*
X846498Y501209D02*
D03*
X861498Y411209D02*
D03*
X846498Y381209D02*
D03*
X816498Y501209D02*
D03*
X831498Y411209D02*
D03*
X816498Y381209D02*
D03*
X786498Y501209D02*
D03*
X801498Y411209D02*
D03*
X786498Y381209D02*
D03*
X756498Y501209D02*
D03*
X771498Y411209D02*
D03*
X756498Y381209D02*
D03*
X726498Y501209D02*
D03*
X741498Y411209D02*
D03*
X726498Y381209D02*
D03*
X696498Y501209D02*
D03*
X711498Y411209D02*
D03*
X696498Y381209D02*
D03*
X666498Y501209D02*
D03*
X681498Y411209D02*
D03*
X666498Y381209D02*
D03*
X636498Y501209D02*
D03*
X651498Y411209D02*
D03*
X636498Y381209D02*
D03*
X606498Y501209D02*
D03*
X621498Y411209D02*
D03*
X606498Y381209D02*
D03*
X576498Y501209D02*
D03*
X591498Y411209D02*
D03*
X576498Y381209D02*
D03*
X546498Y501209D02*
D03*
X561498Y411209D02*
D03*
X546498Y381209D02*
D03*
X516498Y501209D02*
D03*
X531498Y411209D02*
D03*
X516498Y381209D02*
D03*
X486498Y501209D02*
D03*
X501498Y411209D02*
D03*
X486498Y381209D02*
D03*
X456498Y501209D02*
D03*
X471498Y411209D02*
D03*
X456498Y381209D02*
D03*
X426498Y501209D02*
D03*
X441498Y411209D02*
D03*
X426498Y381209D02*
D03*
X396498Y501209D02*
D03*
X411498Y411209D02*
D03*
X396498Y381209D02*
D03*
X366498Y501209D02*
D03*
X381498Y411209D02*
D03*
X366498Y381209D02*
D03*
X336498Y501209D02*
D03*
X351498Y411209D02*
D03*
X336498Y381209D02*
D03*
X306498Y501209D02*
D03*
X321498Y411209D02*
D03*
X306498Y381209D02*
D03*
X276498Y501209D02*
D03*
X291498Y411209D02*
D03*
X276498Y381209D02*
D03*
X246498Y501209D02*
D03*
X261498Y411209D02*
D03*
X246498Y381209D02*
D03*
X216498Y501209D02*
D03*
X231498Y411209D02*
D03*
X216498Y381209D02*
D03*
X186498Y501209D02*
D03*
X201498Y411209D02*
D03*
X186498Y381209D02*
D03*
X156498Y501209D02*
D03*
X171498Y411209D02*
D03*
X156498Y381209D02*
D03*
X126498Y501209D02*
D03*
X141498Y411209D02*
D03*
X126498Y381209D02*
D03*
X96498Y501209D02*
D03*
X111498Y411209D02*
D03*
X96498Y381209D02*
D03*
X81498Y411209D02*
D03*
X66498Y381209D02*
D03*
X1056498Y171209D02*
D03*
X1026498D02*
D03*
X1011498Y321209D02*
D03*
X996498Y291209D02*
D03*
X1011498Y201209D02*
D03*
X996498Y171209D02*
D03*
X981498Y321209D02*
D03*
X966498Y291209D02*
D03*
X981498Y201209D02*
D03*
X966498Y171209D02*
D03*
X951498Y321209D02*
D03*
X936498Y291209D02*
D03*
X951498Y201209D02*
D03*
X936498Y171209D02*
D03*
X921498Y321209D02*
D03*
X906498Y291209D02*
D03*
X921498Y201209D02*
D03*
X906498Y171209D02*
D03*
X891498Y321209D02*
D03*
X876498Y291209D02*
D03*
X891498Y201209D02*
D03*
X876498Y171209D02*
D03*
X861498Y321209D02*
D03*
X846498Y291209D02*
D03*
X861498Y201209D02*
D03*
X846498Y171209D02*
D03*
X831498Y321209D02*
D03*
X816498Y291209D02*
D03*
X831498Y201209D02*
D03*
X816498Y171209D02*
D03*
X801498Y321209D02*
D03*
X786498Y291209D02*
D03*
X801498Y201209D02*
D03*
X786498Y171209D02*
D03*
X771498Y321209D02*
D03*
X756498Y291209D02*
D03*
X771498Y201209D02*
D03*
X756498Y171209D02*
D03*
X741498Y321209D02*
D03*
X726498Y291209D02*
D03*
X741498Y201209D02*
D03*
X726498Y171209D02*
D03*
X711498Y321209D02*
D03*
X696498Y291209D02*
D03*
X711498Y201209D02*
D03*
X696498Y171209D02*
D03*
X681498Y321209D02*
D03*
X666498Y291209D02*
D03*
X681498Y201209D02*
D03*
X666498Y171209D02*
D03*
X651498Y321209D02*
D03*
X636498Y291209D02*
D03*
X651498Y201209D02*
D03*
X636498Y171209D02*
D03*
X621498Y321209D02*
D03*
X606498Y291209D02*
D03*
X621498Y201209D02*
D03*
X606498Y171209D02*
D03*
X591498Y321209D02*
D03*
X576498Y291209D02*
D03*
X591498Y201209D02*
D03*
X576498Y171209D02*
D03*
X561498Y321209D02*
D03*
X546498Y291209D02*
D03*
X561498Y201209D02*
D03*
X546498Y171209D02*
D03*
X531498Y321209D02*
D03*
X516498Y291209D02*
D03*
X531498Y201209D02*
D03*
X516498Y171209D02*
D03*
X501498Y321209D02*
D03*
X486498Y291209D02*
D03*
X501498Y201209D02*
D03*
X486498Y171209D02*
D03*
X471498Y321209D02*
D03*
X456498Y291209D02*
D03*
X471498Y201209D02*
D03*
X456498Y171209D02*
D03*
X441498Y321209D02*
D03*
X426498Y291209D02*
D03*
X441498Y201209D02*
D03*
X426498Y171209D02*
D03*
X411498Y321209D02*
D03*
X396498Y291209D02*
D03*
X411498Y201209D02*
D03*
X396498Y171209D02*
D03*
X381498Y321209D02*
D03*
X366498Y291209D02*
D03*
X381498Y201209D02*
D03*
X366498Y171209D02*
D03*
X351498Y321209D02*
D03*
X336498Y291209D02*
D03*
X351498Y201209D02*
D03*
X336498Y171209D02*
D03*
X321498Y321209D02*
D03*
X306498Y291209D02*
D03*
X321498Y201209D02*
D03*
X306498Y171209D02*
D03*
X291498Y321209D02*
D03*
X276498Y291209D02*
D03*
X291498Y201209D02*
D03*
X276498Y171209D02*
D03*
X261498Y321209D02*
D03*
X246498Y291209D02*
D03*
X261498Y201209D02*
D03*
X246498Y171209D02*
D03*
X231498Y321209D02*
D03*
X216498Y291209D02*
D03*
X231498Y201209D02*
D03*
X216498Y171209D02*
D03*
X201498Y321209D02*
D03*
X186498Y291209D02*
D03*
X201498Y201209D02*
D03*
X186498Y171209D02*
D03*
X171498Y321209D02*
D03*
X156498Y291209D02*
D03*
X171498Y201209D02*
D03*
X156498Y171209D02*
D03*
X141498Y321209D02*
D03*
X126498Y291209D02*
D03*
X141498Y201209D02*
D03*
X126498Y171209D02*
D03*
X111498Y321209D02*
D03*
X96498Y291209D02*
D03*
X111498Y201209D02*
D03*
X96498Y171209D02*
D03*
X81498Y321209D02*
D03*
X66498Y171209D02*
D03*
X36498D02*
D03*
X1091000Y2498500D02*
D03*
Y2513500D02*
D03*
X1081000Y2506000D02*
D03*
X1071000Y2498500D02*
D03*
Y2513500D02*
D03*
X1061000Y2506000D02*
D03*
X1051000Y2498500D02*
D03*
Y2513500D02*
D03*
X1041000Y2581000D02*
D03*
Y2429200D02*
D03*
X60000Y2580000D02*
D03*
Y2428200D02*
D03*
X10000Y2497500D02*
D03*
Y2512500D02*
D03*
X20000Y2505000D02*
D03*
X30000Y2497500D02*
D03*
Y2512500D02*
D03*
X40000Y2505000D02*
D03*
X50000Y2497500D02*
D03*
Y2512500D02*
D03*
X1051000Y2313500D02*
D03*
Y2298500D02*
D03*
X1061000Y2306000D02*
D03*
X1071000Y2313500D02*
D03*
Y2298500D02*
D03*
X1081000Y2306000D02*
D03*
X1091000Y2313500D02*
D03*
Y2298500D02*
D03*
X50000Y2312500D02*
D03*
Y2297500D02*
D03*
X40000Y2305000D02*
D03*
X30000Y2312500D02*
D03*
Y2297500D02*
D03*
X20000Y2305000D02*
D03*
X10000Y2312500D02*
D03*
Y2297500D02*
D03*
X50000Y2112500D02*
D03*
Y2097500D02*
D03*
X40000Y2105000D02*
D03*
X30000Y2112500D02*
D03*
Y2097500D02*
D03*
X20000Y2105000D02*
D03*
X10000Y2112500D02*
D03*
Y2097500D02*
D03*
X1051000Y2113500D02*
D03*
Y2098500D02*
D03*
X1061000Y2106000D02*
D03*
X1071000Y2113500D02*
D03*
Y2098500D02*
D03*
X1081000Y2106000D02*
D03*
X1091000Y2113500D02*
D03*
Y2098500D02*
D03*
X1051000Y1913500D02*
D03*
Y1898500D02*
D03*
X1061000Y1906000D02*
D03*
X1071000Y1913500D02*
D03*
Y1898500D02*
D03*
X1081000Y1906000D02*
D03*
X1091000Y1913500D02*
D03*
Y1898500D02*
D03*
X50000Y1912500D02*
D03*
Y1897500D02*
D03*
X40000Y1905000D02*
D03*
X30000Y1912500D02*
D03*
Y1897500D02*
D03*
X20000Y1905000D02*
D03*
X10000Y1912500D02*
D03*
Y1897500D02*
D03*
X1051000Y1513500D02*
D03*
Y1498500D02*
D03*
X1061000Y1506000D02*
D03*
X1071000Y1513500D02*
D03*
Y1498500D02*
D03*
X1081000Y1506000D02*
D03*
X1091000Y1513500D02*
D03*
Y1498500D02*
D03*
X10000Y1497500D02*
D03*
Y1512500D02*
D03*
X20000Y1505000D02*
D03*
X30000Y1497500D02*
D03*
Y1512500D02*
D03*
X40000Y1505000D02*
D03*
X50000Y1497500D02*
D03*
Y1512500D02*
D03*
X60000Y1428200D02*
D03*
X70000D02*
D03*
X80000D02*
D03*
Y1580000D02*
D03*
X70000D02*
D03*
X60000D02*
D03*
X1040000Y2028200D02*
D03*
Y2180000D02*
D03*
Y2228200D02*
D03*
Y2380000D02*
D03*
X60000Y2228200D02*
D03*
Y2380000D02*
D03*
Y2028200D02*
D03*
Y2180000D02*
D03*
X1040000Y1790000D02*
D03*
Y1775000D02*
D03*
Y1640000D02*
D03*
Y1620000D02*
D03*
X1085000Y1610000D02*
D03*
X1060000D02*
D03*
X1085000Y1705000D02*
D03*
X1060000D02*
D03*
X1027500Y1782500D02*
D03*
Y1632500D02*
D03*
Y1767500D02*
D03*
Y1612500D02*
D03*
X72500D02*
D03*
Y1767500D02*
D03*
Y1632500D02*
D03*
Y1782500D02*
D03*
X40000Y1705000D02*
D03*
X15000D02*
D03*
X40000Y1610000D02*
D03*
X15000D02*
D03*
X60000Y1620000D02*
D03*
Y1640000D02*
D03*
Y1775000D02*
D03*
Y1790000D02*
D03*
X1040000Y1980000D02*
D03*
Y1828200D02*
D03*
X60000Y1980000D02*
D03*
Y1828200D02*
D03*
X1040000Y1581000D02*
D03*
X1030000D02*
D03*
X1020000D02*
D03*
Y1429200D02*
D03*
X1030000D02*
D03*
X1040000D02*
D03*
X1085000Y1266000D02*
D03*
X1065000D02*
D03*
X1045000D02*
D03*
X1075000Y1281000D02*
D03*
X1055000D02*
D03*
X1035000D02*
D03*
Y1301000D02*
D03*
X1045000Y1291000D02*
D03*
Y1361000D02*
D03*
X1035000Y1351000D02*
D03*
Y1371000D02*
D03*
X1055000D02*
D03*
X1075000D02*
D03*
X1045000Y1386000D02*
D03*
X1065000D02*
D03*
X1085000D02*
D03*
Y1116000D02*
D03*
X1065000D02*
D03*
X1045000D02*
D03*
X1075000Y1131000D02*
D03*
X1055000D02*
D03*
X1035000D02*
D03*
Y1151000D02*
D03*
X1045000Y1141000D02*
D03*
Y1211000D02*
D03*
X1035000Y1201000D02*
D03*
Y1221000D02*
D03*
X1055000D02*
D03*
X1075000D02*
D03*
X1045000Y1236000D02*
D03*
X1065000D02*
D03*
X1085000D02*
D03*
Y966000D02*
D03*
X1065000D02*
D03*
X1045000D02*
D03*
X1075000Y981000D02*
D03*
X1055000D02*
D03*
X1035000D02*
D03*
Y1001000D02*
D03*
X1045000Y991000D02*
D03*
Y1061000D02*
D03*
X1035000Y1051000D02*
D03*
Y1071000D02*
D03*
X1055000D02*
D03*
X1075000D02*
D03*
X1045000Y1086000D02*
D03*
X1065000D02*
D03*
X1085000D02*
D03*
X15000Y1385000D02*
D03*
X35000D02*
D03*
X55000D02*
D03*
X25000Y1370000D02*
D03*
X45000D02*
D03*
X65000D02*
D03*
Y1350000D02*
D03*
X55000Y1360000D02*
D03*
Y1290000D02*
D03*
X65000Y1300000D02*
D03*
Y1280000D02*
D03*
X45000D02*
D03*
X25000D02*
D03*
X55000Y1265000D02*
D03*
X35000D02*
D03*
X15000D02*
D03*
Y1235000D02*
D03*
X35000D02*
D03*
X55000D02*
D03*
X25000Y1220000D02*
D03*
X45000D02*
D03*
X65000D02*
D03*
Y1200000D02*
D03*
X55000Y1210000D02*
D03*
Y1140000D02*
D03*
X65000Y1150000D02*
D03*
Y1130000D02*
D03*
X45000D02*
D03*
X25000D02*
D03*
X55000Y1115000D02*
D03*
X35000D02*
D03*
X15000D02*
D03*
Y1085000D02*
D03*
X35000D02*
D03*
X55000D02*
D03*
X25000Y1070000D02*
D03*
X45000D02*
D03*
X65000D02*
D03*
Y1050000D02*
D03*
X55000Y1060000D02*
D03*
Y990000D02*
D03*
X65000Y1000000D02*
D03*
Y980000D02*
D03*
X45000D02*
D03*
X25000D02*
D03*
X55000Y965000D02*
D03*
X35000D02*
D03*
X15000D02*
D03*
X1085000Y591000D02*
D03*
X1065000D02*
D03*
X1045000D02*
D03*
X1075000Y606000D02*
D03*
X1055000D02*
D03*
X1035000D02*
D03*
Y626000D02*
D03*
X1045000Y616000D02*
D03*
Y686000D02*
D03*
X1035000Y676000D02*
D03*
Y696000D02*
D03*
X1055000D02*
D03*
X1075000D02*
D03*
X1045000Y711000D02*
D03*
X1065000D02*
D03*
X1085000D02*
D03*
X1045000Y666000D02*
D03*
Y636000D02*
D03*
X1085000Y791000D02*
D03*
X1065000D02*
D03*
X1045000D02*
D03*
X1075000Y806000D02*
D03*
X1055000D02*
D03*
X1035000D02*
D03*
Y826000D02*
D03*
X1045000Y816000D02*
D03*
Y886000D02*
D03*
X1035000Y876000D02*
D03*
Y896000D02*
D03*
X1055000D02*
D03*
X1075000D02*
D03*
X1045000Y911000D02*
D03*
X1065000D02*
D03*
X1085000D02*
D03*
X1045000Y866000D02*
D03*
Y836000D02*
D03*
X16000Y790000D02*
D03*
X36000D02*
D03*
X56000D02*
D03*
X26000Y805000D02*
D03*
X46000D02*
D03*
X66000D02*
D03*
Y825000D02*
D03*
X56000Y815000D02*
D03*
Y885000D02*
D03*
X66000Y875000D02*
D03*
Y895000D02*
D03*
X46000D02*
D03*
X26000D02*
D03*
X56000Y910000D02*
D03*
X36000D02*
D03*
X16000D02*
D03*
X56000Y865000D02*
D03*
Y835000D02*
D03*
X16000Y590000D02*
D03*
X36000D02*
D03*
X56000D02*
D03*
X26000Y605000D02*
D03*
X46000D02*
D03*
X66000D02*
D03*
Y625000D02*
D03*
X56000Y615000D02*
D03*
Y685000D02*
D03*
X66000Y675000D02*
D03*
Y695000D02*
D03*
X46000D02*
D03*
X26000D02*
D03*
X56000Y710000D02*
D03*
X36000D02*
D03*
X16000D02*
D03*
X56000Y665000D02*
D03*
Y635000D02*
D03*
X16000Y390000D02*
D03*
X36000D02*
D03*
X56000D02*
D03*
X26000Y405000D02*
D03*
X46000D02*
D03*
X66000D02*
D03*
Y425000D02*
D03*
X56000Y415000D02*
D03*
Y485000D02*
D03*
X66000Y475000D02*
D03*
Y495000D02*
D03*
X46000D02*
D03*
X26000D02*
D03*
X56000Y510000D02*
D03*
X36000D02*
D03*
X16000D02*
D03*
X56000Y465000D02*
D03*
Y435000D02*
D03*
X16000Y190000D02*
D03*
X36000D02*
D03*
X56000D02*
D03*
X26000Y205000D02*
D03*
X46000D02*
D03*
X66000D02*
D03*
X56000Y215000D02*
D03*
Y285000D02*
D03*
X66000Y275000D02*
D03*
Y295000D02*
D03*
X46000D02*
D03*
X26000D02*
D03*
X56000Y310000D02*
D03*
X36000D02*
D03*
X16000D02*
D03*
X56000Y265000D02*
D03*
Y235000D02*
D03*
X1085000Y191000D02*
D03*
X1065000D02*
D03*
X1045000D02*
D03*
X1075000Y206000D02*
D03*
X1055000D02*
D03*
X1035000D02*
D03*
Y226000D02*
D03*
X1045000Y216000D02*
D03*
Y286000D02*
D03*
X1035000Y296000D02*
D03*
X1055000D02*
D03*
X1075000D02*
D03*
X1045000Y311000D02*
D03*
X1065000D02*
D03*
X1085000D02*
D03*
X1045000Y266000D02*
D03*
Y236000D02*
D03*
Y436000D02*
D03*
Y466000D02*
D03*
X1085000Y511000D02*
D03*
X1065000D02*
D03*
X1045000D02*
D03*
X1075000Y496000D02*
D03*
X1055000D02*
D03*
X1035000D02*
D03*
Y476000D02*
D03*
X1045000Y486000D02*
D03*
Y416000D02*
D03*
X1035000Y426000D02*
D03*
Y406000D02*
D03*
X1055000D02*
D03*
X1075000D02*
D03*
X1045000Y391000D02*
D03*
X1065000D02*
D03*
X1085000D02*
D03*
Y135000D02*
D03*
X1065000D02*
D03*
X1045000D02*
D03*
X1075000Y120000D02*
D03*
X1055000D02*
D03*
X1035000D02*
D03*
Y100000D02*
D03*
X1045000Y110000D02*
D03*
Y40000D02*
D03*
X1035000Y50000D02*
D03*
Y30000D02*
D03*
X1055000D02*
D03*
X1075000D02*
D03*
X1045000Y15000D02*
D03*
X1065000D02*
D03*
X1085000D02*
D03*
X15000D02*
D03*
X35000D02*
D03*
X55000D02*
D03*
X25000Y30000D02*
D03*
X45000D02*
D03*
X65000D02*
D03*
Y50000D02*
D03*
X55000Y40000D02*
D03*
Y110000D02*
D03*
X65000Y100000D02*
D03*
Y120000D02*
D03*
X45000D02*
D03*
X25000D02*
D03*
X55000Y135000D02*
D03*
X35000D02*
D03*
X15000D02*
D03*
D20*
X301325Y2100500D02*
D03*
Y2109500D02*
D03*
X798674Y2100500D02*
D03*
Y2109500D02*
D03*
Y1909500D02*
D03*
Y1900500D02*
D03*
X301325Y1909500D02*
D03*
Y1900500D02*
D03*
M02*
