M48
;Layer_Color=9474304
;FILE_FORMAT=4:4
METRIC,LZ
;TYPE=PLATED
T01F00S00C0.3000
%
T01
X00015Y00015
X00035
X00055
X00045Y0003
X00055Y0004
X00065Y0003
Y0005
Y001
Y0012
X00055Y0011
X00045Y0012
X00025
X00035Y00135
X00055
X00015
X00016Y0019
X00036
X00036498Y00171209
X00066498
X00056Y0019
X00046Y00205
X00056Y00215
X00066Y00205
X00064938Y0023281
X00056Y00235
X00079938Y0023281
X00094938
X00109938
X00124938
X00139938
X00154938
X00169938
X00184938
X00199938
X00214938
X00229938
X00244938
X00259938
X00274938
X00289938
X00304938
X00319938
X00334938
X00349938
X00364938
X00379938
X00381498Y00201209
X00351498
X00321498
X00291498
X00261498
X00231498
X00201498
X00171498
X00141498
X00111498
X00126498Y00171209
X00156498
X00186498
X00216498
X00246498
X00276498
X00306498
X00336498
X00366498
X00359447Y0026719
X00374447
X00344447
X00329447
X00314447
X00299447
X00284447
X00269447
X00254447
X00239447
X00224447
X00209447
X00194447
X00179447
X00164447
X00149447
X00134447
X00119447
X00104447
X00089447
X00074447
X00066Y00275
Y00295
X00056Y00285
X00046Y00295
X00026
X00036Y0031
X00056
X00081498Y00321209
X00111498
X00141498
X00171498
X00201498
X00231498
X00261498
X00291498
X00321498
X00351498
X00381498
X00366498Y00291209
X00336498
X00306498
X00276498
X00246498
X00216498
X00186498
X00156498
X00126498
X00096498
X00056Y00265
X00016Y0031
X00026Y00205
X00096498Y00171209
X00025Y0003
X00396498Y00171209
X00426498
X00456498
X00486498
X00516498
X00546498
X00576498
X00606498
X00636498
X00666498
X00696498
X00726498
X00756498
X00771498Y00201209
X00741498
X00711498
X00681498
X00651498
X00621498
X00591498
X00561498
X00531498
X00501498
X00471498
X00441498
X00411498
X00409938Y0023281
X00394938
X00424938
X00439938
X00454938
X00469938
X00484938
X00499938
X00514938
X00529938
X00544938
X00559938
X00574938
X00589938
X00604938
X00619938
X00634938
X00649938
X00664938
X00679938
X00694938
X00709938
X00724938
X00739938
X00754938
X00769938
X00764447Y0026719
X00749447
X00734447
X00719447
X00704447
X00689447
X00674447
X00659447
X00644447
X00629447
X00614447
X00599447
X00584447
X00569447
X00554447
X00539447
X00524447
X00509447
X00494447
X00479447
X00464447
X00449447
X00434447
X00419447
X00404447
X00389447
X00396498Y00291209
X00426498
X00456498
X00486498
X00516498
X00546498
X00576498
X00606498
X00636498
X00666498
X00696498
X00726498
X00756498
X00771498Y00321209
X00741498
X00711498
X00681498
X00651498
X00621498
X00591498
X00561498
X00531498
X00501498
X00471498
X00441498
X00411498
X00801498
X00831498
X00861498
X00891498
X00921498
X00951498
X00981498
X01011498
X01045Y00311
X01065
X01085
X01075Y00296
X01055
X01045Y00286
X01035Y00296
X01034447Y0026719
X01045Y00266
X01019447Y0026719
X01004447
X00989447
X00974447
X00959447
X00944447
X00929447
X00914447
X00899447
X00884447
X00869447
X00854447
X00839447
X00824447
X00809447
X00794447
X00779447
X00786498Y00291209
X00816498
X00846498
X00876498
X00906498
X00936498
X00966498
X00996498
X00994938Y0023281
X00979938
X00964938
X00949938
X00934938
X00919938
X00904938
X00889938
X00874938
X00859938
X00844938
X00829938
X00814938
X00799938
X00784938
X00801498Y00201209
X00831498
X00861498
X00891498
X00921498
X00951498
X00981498
X01011498
X01035Y00206
X01055
X01045Y00216
Y00236
X01035Y00226
X01024938Y0023281
X01009938
X00996498Y00171209
X01026498
X01056498
X01065Y00191
X01045
X01085
X01075Y00206
X01085Y00135
X01065
X01045
X01055Y0012
X01045Y0011
X01035Y0012
Y001
Y0005
Y0003
X01045Y0004
X01055Y0003
X01075
X01065Y00015
X01045
X01085
X01075Y0012
X00966498Y00171209
X00936498
X00906498
X00876498
X00846498
X00816498
X00786498
Y00381209
X00816498
X00846498
X00876498
X00906498
X00936498
X00966498
X00996498
X01026498
X01045Y00391
X01065
X01056498Y00381209
X01055Y00406
X01045Y00416
Y00436
X01036495Y00434951
X01026495
X01016495
X01006495
X00996495
X00986495
X00976495
X00966495
X00956495
X00946495
X00936495
X00926495
X00916495
X00906495
X00896495
X00886495
X00876495
X00866495
X00856495
X00846495
X00836495
X00826495
X00816495
X00806495
X00796495
X00786495
X00790253Y00465049
X00800253
X00810253
X00820252
X00830252
X00840252
X00850252
X00860252
X00870252
X00880252
X00890252
X00900252
X00910252
X00920252
X00930252
X00940252
X00950252
X00960252
X00970252
X00980252
X00990252
X01000252
X01010252
X01020252
X01030252
X01035Y00476
X01045Y00466
Y00486
X01055Y00496
X01035
X01045Y00511
X01065
X01085
X01075Y00496
X01056498Y00561209
X01026498
X00996498
X00966498
X00936498
X00906498
X00876498
X00846498
X00816498
X00786498
X00801498Y00591209
X00831498
X00861498
X00891498
X00921498
X00951498
X00981498
X01011498
X01045Y00591
X01065
X01085
X01075Y00606
X01055
X01045Y00616
X01035Y00606
Y00626
X01024938Y00632809
X01009938
X0098086
X00972023Y00634191
X00957123Y00632462
X00927961Y00632809
X00916432Y00633182
X00901437Y00632809
X00886437
X00871437
X00856437
X00841437
X00826437
X00811437
X00796437
X00781437
X00785096Y0066719
X00800096
X00815095
X00830095
X00845095
X00860095
X00875095
X00890095
X00905095
X0092007Y00666309
X00930303Y0066719
X00945303
X00964544Y00667023
X0097735Y0066719
X0099235
X0100735
X0102235
X01035Y00676
Y00696
X01045Y00686
X01055Y00696
X01075
X01065Y00711
X01045
X01011498Y00711209
X00981498
X00951498
X00921498
X00891498
X00861498
X00831498
X00801498
X00816498Y00681209
X00846498
X00876498
X00936498
X00996498
X01045Y00666
Y00636
X01085Y00711
X00996498Y00501209
X00966498
X00936498
X00906498
X00876498
X00846498
X00816498
X00786498
X00780253Y00465049
X00801498Y00411209
X00831498
X00861498
X00891498
X00921498
X00951498
X00981498
X01011498
X01035Y00406
Y00426
X01075Y00406
X01085Y00391
X00786498Y00681209
X00756498
X00755096Y0066719
X00740096
X00725096
X00710096
X00695096
X00680096
X00665096
X00650096
X00635095
X00620095
X00605095
X00590095
X00575095
X00560095
X00545095
X00530095
X00515095
X00500095
X00485095
X00470096
X00455096
X00440096
X00425096
X00410096
X00395096
X00396498Y00681209
X00426498
X00456498
X00486498
X00516498
X00546498
X00576498
X00606498
X00636498
X00666498
X00696498
X00726498
X00741498Y00711209
X00771498
X00770096Y0066719
X00766437Y00632809
X00751437
X00736437
X00721437
X00706437
X00691437
X00676437
X00661437
X00646437
X00631437
X00616437
X00601437
X00586437
X00571437
X00556437
X00541437
X00526437
X00511437
X00496437
X00481437
X00466437
X00451437
X00436437
X00421437
X00406437
X00391437
X00411498Y00591209
X00441498
X00471498
X00501498
X00531498
X00561498
X00591498
X00621498
X00651498
X00681498
X00711498
X00741498
X00771498
X00756498Y00561209
X00726498
X00696498
X00666498
X00636498
X00606498
X00576498
X00546498
X00516498
X00486498
X00456498
X00426498
X00396498
Y00501209
X00426498
X00456498
X00486498
X00516498
X00546498
X00576498
X00606498
X00636498
X00666498
X00696498
X00726498
X00756498
X00760253Y00465049
X00770253
X00750253
X00740253
X00730253
X00720253
X00710253
X00700253
X00690253
X00680253
X00670253
X00660253
X00650253
X00640253
X00630253
X00620253
X00610253
X00600253
X00590253
X00580253
X00570253
X00560253
X00550253
X00540253
X00530253
X00520253
X00510253
X00500253
X00490253
X00480253
X00470253
X00460253
X00450253
X00440253
X00430253
X00420253
X00410253
X00400253
X00390253
X00386496Y00434951
X00396496
X00406496
X00416496
X00426496
X00436496
X00446496
X00456496
X00466496
X00476496
X00486496
X00496496
X00506496
X00516496
X00526496
X00536496
X00546496
X00556496
X00566496
X00576495
X00586495
X00596495
X00606495
X00616495
X00626495
X00636495
X00646495
X00656495
X00666495
X00676495
X00686495
X00696495
X00706495
X00716495
X00726495
X00736495
X00746495
X00756495
X00766495
X00776495
X00771498Y00411209
X00741498
X00711498
X00681498
X00651498
X00621498
X00591498
X00561498
X00531498
X00501498
X00471498
X00441498
X00411498
X00426498Y00381209
X00456498
X00486498
X00516498
X00546498
X00576498
X00606498
X00636498
X00666498
X00696498
X00726498
X00756498
X00396498
X00411498Y00711209
X00441498
X00471498
X00501498
X00531498
X00561498
X00591498
X00621498
X00651498
X00681498
X00711498
X00381498
X00351498
X00321498
X00291498
X00261498
X00231498
X00201498
X00171498
X00141498
X00111498
X00081498
X00056Y0071
X00036
X00016
X00026Y00695
X00046
X00056Y00685
X00066Y00695
Y00675
X00065096Y0066719
X00056Y00665
X00080096Y0066719
X00095096
X00110096
X00125096
X00140096
X00155096
X00170096
X00185096
X00200096
X00215096
X00230096
X00245096
X00260096
X00275096
X00290096
X00305096
X00320096
X00335096
X00350096
X00365096
X00380096
X00366498Y00681209
X00336498
X00306498
X00276498
X00246498
X00216498
X00186498
X00156498
X00126498
X00096498
X00091437Y00632809
X00076437
X00066Y00625
Y00605
X00046
X00056Y00615
Y00635
Y0059
X00036
X00016
X00026Y00605
X00036498Y00561209
X00066498
X00096498
X00126498
X00156498
X00186498
X00216498
X00246498
X00276498
X00306498
X00336498
X00366498
X00381498Y00591209
X00351498
X00321498
X00291498
X00261498
X00231498
X00201498
X00171498
X00141498
X00111498
X00081498
X00106437Y00632809
X00121437
X00136437
X00151437
X00166437
X00181437
X00196437
X00211437
X00226437
X00241437
X00256437
X00271437
X00286437
X00301437
X00316437
X00331437
X00346437
X00361437
X00376437
X00366498Y00501209
X00336498
X00306498
X00276498
X00246498
X00216498
X00186498
X00156498
X00126498
X00096498
X00066Y00495
X00056Y00485
X00046Y00495
X00026
X00036Y0051
X00056
X00016
X00056Y00465
X00070254Y00465049
X00080254
X00090254
X00100254
X00110254
X00120254
X00130254
X00140254
X00150254
X00160254
X00170254
X00180254
X00190254
X00200254
X00210254
X00220254
X00230254
X00240254
X00250254
X00260254
X00270254
X00280254
X00290254
X00300254
X00310254
X00320253
X00330253
X00340253
X00350253
X00360253
X00370253
X00380253
X00376496Y00434951
X00366496
X00356496
X00346496
X00336496
X00326496
X00316496
X00306496
X00296496
X00286496
X00276496
X00266496
X00256496
X00246496
X00236496
X00226496
X00216496
X00206496
X00196496
X00186496
X00176496
X00166496
X00156496
X00146496
X00136496
X00126496
X00116496
X00106496
X00096496
X00086496
X00076496
X00066497
X00066Y00425
Y00405
X00046
X00056Y00415
Y00435
Y0039
X00066498Y00381209
X00096498
X00126498
X00156498
X00186498
X00216498
X00246498
X00276498
X00306498
X00336498
X00366498
X00381498Y00411209
X00351498
X00321498
X00291498
X00261498
X00231498
X00201498
X00171498
X00141498
X00111498
X00081498
X00026Y00405
X00016Y0039
X00036
X00066Y00475
X00055Y00765
X00035
X00015
X00025Y0078
X00045
X00055Y0079
X00065Y0078
Y008
X00081498Y00801209
X00111498
X00141498
X00171498
X00201498
X00231498
X00261498
X00291498
X00321498
X00351498
X00381498
X00366498Y00771209
X00336498
X00306498
X00276498
X00246498
X00216498
X00186498
X00156498
X00126498
X00096498
X00111498Y00861209
X00141498
X00171498
X00201498
X00231498
X00261498
X00291498
X00321498
X00351498
X00381498
X00366498Y00921209
X00336498
X00306498
X00276498
X00246498
X00216498
X00186498
X00156498
X00126498
X00096498
X00065Y0093
Y0095
X00081498Y00951209
X00111498
X00141498
X00171498
X00201498
X00231498
X00261498
X00295Y00964
X003Y00975
X00295Y00986
X00291498Y01011209
X00321498
X00351498
X00381498
Y00951209
X00351498
X00321498
X00261498Y01011209
X00231498
X00201498
X00171498
X00141498
X00111498
X00081498
X00065Y0102
Y01
X00055Y0101
X00045Y0102
X00025
X00015Y01035
X00035
X00055
Y01065
X00035
X00015
X00025Y0108
X00045
X00055Y0109
X00065Y0108
Y011
X00081498Y01101209
X00111498
X00141498
X00171498
X00201498
X00231498
X00261498
X00291498
X00321498
X00351498
X00381498
X00366498Y01071209
X00336498
X00306498
X00276498
X00246498
X00216498
X00186498
X00156498
X00126498
X00096498
X00065Y0115
X00055Y0094
X00045Y0093
X00025
X00015Y00915
X00035
X00055
Y00885
X00035
X00015
X00025Y0087
X00045
X00055Y0086
X00065Y0087
Y0085
X00081498Y00861209
X003Y00825
X00411498Y00801209
X00441498
X00471498
X00501498
X00531498
X00561498
X00591498
X00621498
X00651498
X00681498
X00711498
X00741498
X00771498
X00756498Y00771209
X00726498
X00696498
X00666498
X00636498
X00606498
X00576498
X00546498
X00516498
X00486498
X00456498
X00426498
X00396498
X00411498Y00861209
X00441498
X00471498
X00501498
X00531498
X00561498
X00591498
X00621498
X00651498
X00681498
X00711498
X00741498
X00771498
X00756498Y00921209
X00726498
X00696498
X00666498
X00636498
X00606498
X00576498
X00546498
X00516498
X00486498
X00456498
X00426498
X00396498
X00411498Y00951209
X00441498
X00471498
X00501498
X00531498
X00561498
X00591498
X00621498
X00651498
X00681498
X00711498
X00741498
X00771498
Y01011209
X00741498
X00711498
X00681498
X00651498
X00621498
X00591498
X00561498
X00531498
X00501498
X00471498
X00441498
X00411498
X00426498Y01071209
X00456498
X00486498
X00516498
X00531498Y01101209
X00501498
X00471498
X00441498
X00411498
X00396498Y01071209
X00576498
X00606498
X00636498
X00666498
X00696498
X00726498
X00756498
X00771498Y01101209
X00741498
X00711498
X00681498
X00651498
X00621498
X00591498
X00801498
X00831498
X00861498
X00891498
X00921498
X00951498
X00981498
X01011498
X01035Y01101
Y01081
X01045Y01091
X01055Y01081
X01075
X01065Y01066
X01045
Y01036
X01065
X01085
X01075Y01021
X01055
X01045Y01011
X01035Y01021
Y01001
X01011498Y01011209
X00981498
X00951498
X00921498
X00891498
X00861498
X00831498
X00801498
X00804Y00986
X008Y00975
X00804Y00964
X00831498Y00951209
X00861498
X00891498
X00921498
X00951498
X00981498
X01011498
X01035Y00951
Y00931
X01045Y00941
X01055Y00931
X01075
X01085Y00916
X01065
X01045
Y00886
X01065
X01085
X01075Y00871
X01055
X01045Y00861
X01035Y00871
Y00851
X01011498Y00861209
X00981498
X00951498
X00921498
X00891498
X00861498
X00831498
X00801498
X008Y00825
X00801498Y00801209
X00831498
X00861498
X00891498
X00921498
X00951498
X00981498
X01011498
X01035Y00801
Y00781
X01055
X01045Y00791
Y00766
X01065
X01085
X01075Y00781
X00996498Y00771209
X00966498
X00936498
X00906498
X00876498
X00846498
X00816498
X00786498
Y00921209
X00816498
X00846498
X00876498
X00906498
X00936498
X00966498
X00996498
Y01071209
X00966498
X00936498
X00906498
X00876498
X00846498
X00816498
X00786498
X01085Y01066
X01035Y01151
Y01171
X01045Y01161
X01055Y01171
X01075
X01065Y01186
X01045
X01085
X01011498Y01161209
X00981498
X00951498
X00921498
X00891498
X00861498
X00831498
X00801498
X00771498
X00741498
X00711498
X00681498
X00651498
X00621498
X00591498
X00531498
X00501498
X00471498
X00441498
X00411498
X00381498
X00351498
X00321498
X00291498
X00261498
X00231498
X00201498
X00171498
X00141498
X00111498
X00081498
X00065Y0117
X00045
X00055Y0116
Y01185
X00035
X00015
X00025Y0117
M30
