M48
;Layer_Color=9474304
;FILE_FORMAT=4:4
METRIC,LZ
;TYPE=PLATED
T01F00S00C0.3000
%
T01
X00015Y00015
X00035
X00055
X00045Y0003
X00055Y0004
X00065Y0003
Y0005
Y001
Y0012
X00055Y0011
X00045Y0012
X00025
X00035Y00135
X00055
X00015
X00016Y0019
X00036
X00036498Y00171209
X00066498
X00056Y0019
X00046Y00205
X00056Y00215
X00066Y00205
Y00225
X00065777Y00235345
X00056Y00235
X00080777Y00235345
X00095777
X00110777
X00125777
X00140777
X00155777
X00170777
X00185777
X00200777
X00215777
X00230777
X00245777
X00260777
X00275777
X00290777
X00305777
X00320776
X00335776
X00350776
X00365776
X00380776
X00381498Y00201209
X00351498
X00321498
X00291498
X00261498
X00231498
X00201498
X00171498
X00141498
X00111498
X00126498Y00171209
X00156498
X00186498
X00216498
X00246498
X00276498
X00306498
X00336498
X00366498
X00372434Y00264655
X00357434
X00342434
X00327434
X00312434
X00297434
X00282434
X00267434
X00252434
X00237434
X00222434
X00207434
X00192434
X00177434
X00162434
X00147434
X00132434
X00117434
X00102434
X00087434
X00072434
X00066Y00275
Y00295
X00056Y00285
X00046Y00295
X00026
X00036Y0031
X00056
X00081498Y00321209
X00111498
X00141498
X00171498
X00201498
X00231498
X00261498
X00291498
X00321498
X00351498
X00381498
X00366498Y00291209
X00336498
X00306498
X00276498
X00246498
X00216498
X00186498
X00156498
X00126498
X00096498
X00056Y00265
X00016Y0031
X00026Y00205
X00096498Y00171209
X00025Y0003
X00396498Y00171209
X00426498
X00456498
X00486498
X00516498
X00546498
X00576498
X00606498
X00636498
X00666498
X00696498
X00726498
X00756498
X00771498Y00201209
X00741498
X00711498
X00681498
X00651498
X00621498
X00591498
X00561498
X00531498
X00501498
X00471498
X00441498
X00411498
X00410776Y00235345
X00395776
X00425776
X00440776
X00455776
X00470776
X00485776
X00500776
X00515776
X00530776
X00545776
X00560776
X00575776
X00590776
X00605776
X00620776
X00635776
X00650776
X00665776
X00680776
X00695776
X00710776
X00725776
X00740776
X00755776
X00770776
X00777434Y00264655
X00762434
X00747434
X00732434
X00717434
X00702434
X00687434
X00672434
X00657434
X00642434
X00627434
X00612434
X00597434
X00582434
X00567434
X00552434
X00537434
X00522434
X00507434
X00492434
X00477434
X00462434
X00447434
X00432434
X00417434
X00402434
X00387434
X00396498Y00291209
X00426498
X00456498
X00486498
X00516498
X00546498
X00576498
X00606498
X00636498
X00666498
X00696498
X00726498
X00756498
X00771498Y00321209
X00741498
X00711498
X00681498
X00651498
X00621498
X00591498
X00561498
X00531498
X00501498
X00471498
X00441498
X00411498
X00801498
X00831498
X00861498
X00891498
X00921498
X00951498
X00981498
X01011498
X01045Y00311
X01065
X01085
X01075Y00296
X01055
X01045Y00286
X01035Y00296
Y00276
X01032434Y00264655
X01045Y00266
X01017434Y00264655
X01002434
X00987434
X00972434
X00957434
X00942434
X00927434
X00912434
X00897434
X00882434
X00867434
X00852434
X00837434
X00822434
X00807434
X00792434
X00786498Y00291209
X00816498
X00846498
X00876498
X00906498
X00936498
X00966498
X00996498
X00995776Y00235345
X00980776
X00965776
X00950776
X00935776
X00920776
X00905776
X00890776
X00875776
X00860776
X00845776
X00830776
X00815776
X00800776
X00785776
X00801498Y00201209
X00831498
X00861498
X00891498
X00921498
X00951498
X00981498
X01011498
X01035Y00206
X01055
X01045Y00216
Y00236
X01025776Y00235345
X01010776
X01035Y00226
X01045Y00191
X01065
X01085
X01075Y00206
X01056498Y00171209
X01026498
X00996498
X00966498
X00936498
X00906498
X00876498
X00846498
X00816498
X00786498
X01045Y00135
X01065
X01085
X01075Y0012
X01055
X01045Y0011
X01035Y0012
Y001
Y0005
Y0003
X01045Y0004
X01055Y0003
X01075
X01065Y00015
X01045
X01085
Y00391
X01065
X01056498Y00381209
X01045Y00391
Y00416
X01055Y00406
X01035
Y00426
X01036763Y00435751
X01045Y00436
X01026763Y00435751
X01016763
X01006763
X00996763
X00986763
X00976763
X00966763
X00956763
X00946763
X00936763
X00926763
X00916763
X00906763
X00896763
X00886763
X00876763
X00866763
X00856763
X00846763
X00836763
X00826763
X00816764
X00806764
X00796764
X00786764
X00789161Y00464249
X00799161
X00809161
X00819161
X00829161
X00839161
X00849161
X00859161
X00869161
X00879161
X00889161
X00899161
X00909161
X00919161
X00929161
X00939161
X00949161
X00959161
X00969161
X00979161
X00989161
X00999161
X01009161
X01019161
X01029161
X01035Y00476
X01045Y00466
Y00486
X01055Y00496
X01035
X01045Y00511
X01065
X01085
X01075Y00496
X01056498Y00561209
X01026498
X00996498
X00966498
X00936498
X00906498
X00876498
X00846498
X00816498
X00786498
X00801498Y00591209
X00831498
X00861498
X00891498
X00921498
X00951498
X00981498
X01011498
X01045Y00591
X01065
X01085
X01075Y00606
X01055
X01045Y00616
X01035Y00606
Y00626
X01025776Y00635345
X01010776
X00982564Y00632702
X00965357Y00633388
X00961907Y006614
X00952216Y00664857
X00937218Y00665091
X00936498Y00681209
X0091929Y00666412
X00904306Y00665723
X00889344Y00664654
X00874344
X00859344
X00844344
X00829344
X00814344
X00799344
X00784344
X00786498Y00681209
X00816498
X00846498
X00876498
X00891498Y00711209
X00921498
X00951498
X00981498
X01011498
X01045Y00711
X01065
X01085
X01075Y00696
X01055
X01045Y00686
X01035Y00696
Y00676
X01035844Y00664654
X01045Y00666
X01020844Y00664654
X01005844
X00990844
X00971162Y00666165
X00996498Y00681209
X01045Y00636
X00935924Y0063047
X00917106Y00633388
X00902209Y00635147
X00887211Y00635345
X00872211
X00857211
X00842211
X00827211
X00812211
X00797211
X00782211
X00801498Y00711209
X00831498
X00861498
X00876498Y00501209
X00906498
X00936498
X00966498
X00996498
X01011498Y00411209
X00981498
X00951498
X00921498
X00891498
X00861498
X00831498
X00801498
X00816498Y00381209
X00846498
X00876498
X00906498
X00936498
X00966498
X00996498
X01026498
X01075Y00406
X00786498Y00381209
X00779161Y00464249
X00786498Y00501209
X00816498
X00846498
X00756498
X00726498
X00696498
X00666498
X00636498
X00606498
X00576498
X00546498
X00516498
X00486498
X00456498
X00426498
X00396498
X00399162Y00464249
X00389162
X00409162
X00419162
X00429162
X00439162
X00449162
X00459162
X00469162
X00479162
X00489162
X00499162
X00509162
X00519162
X00529162
X00539162
X00549162
X00559162
X00569162
X00579162
X00589162
X00599162
X00609162
X00619162
X00629162
X00639162
X00649162
X00659162
X00669162
X00679162
X00689162
X00699161
X00709161
X00719161
X00729161
X00739161
X00749161
X00759161
X00769161
X00766764Y00435751
X00776764
X00756764
X00746764
X00736764
X00726764
X00716764
X00706764
X00696764
X00686764
X00676764
X00666764
X00656764
X00646764
X00636764
X00626764
X00616764
X00606764
X00596764
X00586764
X00576764
X00566764
X00556764
X00546764
X00536764
X00526764
X00516764
X00506764
X00496764
X00486764
X00476764
X00466764
X00456764
X00446764
X00436764
X00426764
X00416764
X00406764
X00396764
X00386764
X00411498Y00411209
X00441498
X00471498
X00501498
X00531498
X00561498
X00591498
X00621498
X00651498
X00681498
X00711498
X00741498
X00771498
X00756498Y00381209
X00726498
X00696498
X00666498
X00636498
X00606498
X00576498
X00546498
X00516498
X00486498
X00456498
X00426498
X00396498
Y00561209
X00426498
X00456498
X00486498
X00516498
X00546498
X00576498
X00606498
X00636498
X00666498
X00696498
X00726498
X00756498
X00771498Y00591209
X00741498
X00711498
X00681498
X00651498
X00621498
X00591498
X00561498
X00531498
X00501498
X00471498
X00441498
X00411498
X00407211Y00635345
X00392211
X00422211
X00437211
X00452211
X00467211
X00482211
X00497211
X00512211
X00527211
X00542211
X00557211
X00572211
X00587211
X00602211
X00617211
X00632211
X00647211
X00662211
X00677211
X00692211
X00707211
X00722211
X00737211
X00752211
X00767211
X00769344Y00664654
X00754344
X00739344
X00724344
X00709344
X00694344
X00679344
X00664344
X00649344
X00634344
X00619344
X00604344
X00589344
X00574344
X00559344
X00544344
X00529344
X00514344
X00499344
X00484344
X00469344
X00454344
X00439344
X00424344
X00409344
X00394345
X00396498Y00681209
X00426498
X00456498
X00486498
X00516498
X00546498
X00576498
X00606498
X00636498
X00666498
X00696498
X00726498
X00756498
X00771498Y00711209
X00741498
X00711498
X00681498
X00651498
X00621498
X00591498
X00561498
X00531498
X00501498
X00471498
X00441498
X00411498
X00381498
X00351498
X00321498
X00291498
X00261498
X00231498
X00201498
X00171498
X00141498
X00111498
X00081498
X00056Y0071
X00036
X00016
X00026Y00695
X00046
X00056Y00685
X00066Y00695
Y00675
X00064345Y00664654
X00056Y00665
X00079345Y00664654
X00094345
X00109345
X00124345
X00139345
X00154345
X00169345
X00184345
X00199345
X00214345
X00229345
X00244345
X00259345
X00274345
X00289345
X00304345
X00319345
X00334345
X00349345
X00364345
X00379345
X00366498Y00681209
X00336498
X00306498
X00276498
X00246498
X00216498
X00186498
X00156498
X00126498
X00096498
X00092211Y00635345
X00077211
X00062211
X00056Y00635
X00066Y00625
Y00605
X00046
X00056Y00615
Y0059
X00036
X00016
X00026Y00605
X00036498Y00561209
X00066498
X00096498
X00126498
X00156498
X00186498
X00216498
X00246498
X00276498
X00306498
X00336498
X00366498
X00381498Y00591209
X00351498
X00321498
X00291498
X00261498
X00231498
X00201498
X00171498
X00141498
X00111498
X00081498
X00107211Y00635345
X00122211
X00137211
X00152211
X00167211
X00182211
X00197211
X00212211
X00227211
X00242211
X00257211
X00272211
X00287211
X00302211
X00317211
X00332211
X00347211
X00362211
X00377211
X00366498Y00501209
X00336498
X00306498
X00276498
X00246498
X00216498
X00186498
X00156498
X00126498
X00096498
X00066Y00495
X00056Y00485
X00046Y00495
X00026
X00036Y0051
X00056
X00016
X00056Y00465
X00069163Y00464249
X00079163
X00089163
X00099163
X00109163
X00119163
X00129163
X00139163
X00149163
X00159163
X00169163
X00179163
X00189163
X00199162
X00209162
X00219162
X00229162
X00239162
X00249162
X00259162
X00269162
X00279162
X00289162
X00299162
X00309162
X00319162
X00329162
X00339162
X00349162
X00359162
X00369162
X00379162
X00376764Y00435751
X00366764
X00356764
X00346764
X00336764
X00326764
X00316765
X00306765
X00296765
X00286765
X00276765
X00266765
X00256765
X00246765
X00236765
X00226765
X00216765
X00206765
X00196765
X00186765
X00176765
X00166765
X00156765
X00146765
X00136765
X00126765
X00116765
X00106765
X00096765
X00086765
X00076765
X00066765
X00066Y00425
Y00405
X00046
X00056Y00415
Y00435
Y0039
X00066498Y00381209
X00096498
X00126498
X00156498
X00186498
X00216498
X00246498
X00276498
X00306498
X00336498
X00366498
X00381498Y00411209
X00351498
X00321498
X00291498
X00261498
X00231498
X00201498
X00171498
X00141498
X00111498
X00081498
X00026Y00405
X00016Y0039
X00036
X00066Y00475
X00066498Y00771209
X00056Y0079
X00036
X00036498Y00771209
X00016Y0079
X00026Y00805
X00046
X00056Y00815
X00066Y00805
Y00825
X00062445Y00835751
X00056Y00835
X00077445Y00835751
X00092445
X00107445
X00122445
X00137445
X00152445
X00167445
X00182445
X00197445
X00212445
X00227445
X00242445
X00257445
X00272445
X00287445
X00302445
X00317445
X00332445
X00347445
X00362445
X00377445
X00379177Y00864249
X00364177
X00349177
X00334177
X00319177
X00304177
X00289177
X00274177
X00259177
X00244177
X00229177
X00214177
X00199177
X00184177
X00169177
X00154177
X00139177
X00124177
X00109177
X00094177
X00079177
X00064177
X00056Y00865
Y00885
X00046Y00895
X00066
Y00875
X00056Y0091
X00036
X00016
X00026Y00895
X00096498Y00891209
X00126498
X00156498
X00186498
X00216498
X00246498
X00276498
X00306498
X00336498
X00366498
X00381498Y00921209
X00351498
X00321498
X00291498
X00261498
X00231498
X00201498
X00171498
X00141498
X00111498
X00081498
X00055Y00965
X00035
X00015
X00025Y0098
X00045
X00055Y0099
X00065Y0098
Y01
Y0105
Y0107
X00045
X00055Y0106
Y01085
X00035
X00015
X00025Y0107
X00035Y01115
X00055
Y0114
X00045Y0113
X00065
Y0115
X00025Y0113
X00015Y01115
X003Y01025
X00291498Y00801209
X00321498
X00351498
X00381498
X00366498Y00771209
X00336498
X00306498
X00276498
X00246498
X00216498
X00186498
X00156498
X00126498
X00096498
X00111498Y00801209
X00141498
X00171498
X00201498
X00231498
X00261498
X00411498
X00441498
X00471498
X00501498
X00531498
X00561498
X00591498
X00621498
X00651498
X00681498
X00711498
X00741498
X00771498
X00767445Y00835751
X00752445
X00737445
X00722445
X00707445
X00692445
X00677445
X00662445
X00647445
X00632445
X00617445
X00602445
X00587445
X00572445
X00557445
X00542445
X00527445
X00512445
X00497445
X00482445
X00467445
X00452445
X00437445
X00422445
X00407445
X00392445
X00394177Y00864249
X00409177
X00424177
X00439177
X00454177
X00469177
X00484177
X00499177
X00514177
X00529177
X00544177
X00559177
X00574177
X00589177
X00604177
X00619177
X00634177
X00649177
X00664177
X00679177
X00694177
X00709177
X00724177
X00739177
X00754177
X00769177
X00756498Y00891209
X00726498
X00696498
X00666498
X00636498
X00606498
X00576498
X00546498
X00516498
X00486498
X00456498
X00426498
X00396498
X00411498Y00921209
X00441498
X00471498
X00501498
X00531498
X00561498
X00591498
X00621498
X00651498
X00681498
X00711498
X00741498
X00771498
X00756498Y00771209
X00726498
X00696498
X00666498
X00636498
X00606498
X00576498
X00546498
X00516498
X00486498
X00456498
X00426498
X00396498
X00786498
X00816498
X00846498
X00876498
X00906498
X00936498
X00966498
X00996498
X01026498
X01056498
X01065Y00791
X01045
X01055Y00806
X01045Y00816
X01035Y00806
Y00826
X01025959Y00835751
X01010959
X00982881Y00832458
X00965357Y00833387
X00961672Y00861094
X00952216Y00864856
X00937218Y0086509
X00919091Y00866437
X00904112Y00865641
X00889177Y00864249
X00874177
X00859177
X00844177
X00829177
X00814177
X00799177
X00784177
X00786498Y00891209
X00816498
X00846498
X00876498
X00906498
X00936498
X00966498
X00971163Y00866165
X00990434Y00864248
X01005433
X01020433
X01035433
X01045Y00866
Y00886
X01055Y00896
X01035
Y00876
X01045Y00911
X01065
X01085
X01075Y00896
X01085Y00966
X01065
X01045
X01055Y00981
X01045Y00991
X01035Y00981
Y01001
Y01051
Y01071
X01045Y01061
X01055Y01071
X01075
X01065Y01086
X01045
Y01116
X01065
X01085
X01075Y01131
X01055
X01045Y01141
X01035Y01131
Y01151
X01085Y01086
X01075Y00981
X01011498Y00921209
X00981498
X00951498
X00921498
X00891498
X00861498
X00831498
X00801498
X00797445Y00835751
X00782445
X00812445
X00827445
X00842445
X00857445
X00872445
X00887445
X00902428Y00835054
X00917335Y00833387
X00935924Y00830469
X00921498Y00801209
X00951498
X00981498
X01011498
X01045Y00836
X01075Y00806
X01085Y00791
X00996498Y00891209
X00891498Y00801209
X00861498
X00831498
X00801498
X008Y01025
Y01175
X00808Y01168
Y01182
X01035Y01201
Y01221
X01045Y01211
X01055Y01221
X01075
X01065Y01236
X01045
Y01266
X01065
X01085
X01075Y01281
X01055
X01045Y01291
X01035Y01281
Y01301
Y01351
Y01371
X01045Y01361
X01055Y01371
X01075
X01065Y01386
X01045
X01085
X0104Y014292
X0103
X0102
X01051Y014985
Y015135
X01061Y01506
X01071Y015135
Y014985
X01081Y01506
X01091Y015135
Y014985
X01085Y01236
X003Y01175
X00292Y01182
Y01168
X00065Y012
Y0122
X00045
X00055Y0121
Y01235
X00035
X00015
X00025Y0122
X00035Y01265
X00055
Y0129
X00045Y0128
X00065
Y013
Y0135
Y0137
X00045
X00055Y0136
Y01385
X00035
X00015
X00025Y0137
Y0128
X00015Y01265
X0006Y014282
X0007
X0008
X0005Y014975
Y015125
X0004Y01505
X0003Y015125
Y014975
X0002Y01505
X0001Y015125
Y014975
X00015Y0161
X0004
X0006Y0162
Y0164
X000585Y016565
X00071Y01664
Y01679
Y01694
X000835Y016865
Y016715
X00126498Y01671209
X00156498
X00186498
X00216498
X00246498
X00276498
X00306498
X00336498
X00366498
X00381498Y01641209
X00351498
X00321498
X00291498
X00261498
X00231498
X00201498
X00171498
X00141498
X00111498
X00126498Y01611209
X00156498
X00186498
X00216498
X00246498
X00276498
X00306498
X00336498
X00366498
Y01731209
X00336498
X00306498
X00276498
X00246498
X00216498
X00186498
X00156498
X00126498
X000835Y017315
Y017165
X00071Y01724
Y01739
X000725Y017675
Y017825
X0006Y01775
Y0176
Y0179
Y018282
X0007
X0008
X00111498Y01761209
X00141498
X00171498
X00201498
X00231498
X00261498
X00291498
X00321498
X00351498
X00381498
X00301367Y019005
Y019095
X0005Y019125
Y018975
X0004Y01905
X0003Y019125
Y018975
X0002Y01905
X0001Y019125
Y018975
X00015Y01705
X0004
X000725Y016325
Y016125
X00096498Y01611209
X0008Y0158
X0007
X0006
X00396498Y01611209
X00426498
X00456498
X00486498
X00516498
X00546498
X00576498
X00606498
X00636498
X00666498
X00696498
X00726498
X00756498
X00771498Y01641209
X00741498
X00711498
X00681498
X00651498
X00621498
X00591498
X00561498
X00531498
X00501498
X00471498
X00441498
X00411498
X00426498Y01671209
X00456498
X00486498
X00516498
X00546498
X00576498
X00606498
X00636498
X00666498
X00696498
X00726498
X00756498
Y01731209
X00726498
X00696498
X00666498
X00636498
X00606498
X00576498
X00546498
X00516498
X00486498
X00456498
X00426498
X00396498
X00411498Y01761209
X00441498
X00471498
X00501498
X00531498
X00561498
X00591498
X00621498
X00651498
X00681498
X00711498
X00741498
X00771498
X00396498Y01671209
X00786498
X00816498
X00846498
X00876498
X00906498
X00936498
X00966498
X00996498
X010175Y016725
Y016875
X0103Y0168
Y01695
Y01665
X0104Y01655
Y0164
Y0162
X010275Y016125
Y016325
X01011498Y01641209
X00981498
X00951498
X00921498
X00891498
X00861498
X00831498
X00801498
X00816498Y01611209
X00846498
X00876498
X00906498
X00936498
X00966498
X00996498
X0102Y01581
X0103
X0104
X0106Y0161
X01085
Y01705
X0106
X0103Y01725
Y0174
X010175Y017325
Y017175
X00996498Y01731209
X00966498
X00936498
X00906498
X00876498
X00846498
X00816498
X00786498
X00801498Y01761209
X00831498
X00861498
X00891498
X00921498
X00951498
X00981498
X01011498
X010275Y017675
Y017825
X0104Y01775
Y0179
Y01755
Y018282
X0103
X0102
X01051Y018985
Y019135
X01061Y01906
X01071Y019135
Y018985
X01081Y01906
X01091Y019135
Y018985
X008Y019005
Y019095
X00786498Y01611209
X00792Y0209675
X008Y021005
Y021095
X00792Y0211325
X01051Y021135
Y020985
X01061Y02106
X01071Y021135
Y020985
X01081Y02106
X01091Y021135
Y020985
X0104Y020282
X0103
X0102
Y0198
X0103
X0104
Y0218
X0103
X0102
Y022282
X0103
X0104
X01051Y022985
Y023135
X01061Y02306
X01071Y023135
Y022985
X01081Y02306
X01091Y023135
Y022985
X00309367Y0211325
X00301367Y021095
Y021005
X00309367Y0209675
X0005Y020975
Y021125
X0004Y02105
X0003Y021125
Y020975
X0002Y02105
X0001Y021125
Y020975
X0006Y020282
X0007
X0008
Y0198
X0007
X0006
Y0218
X0007
X0008
Y022282
X0007
X0006
X0005Y022975
Y023125
X0004Y02305
X0003Y023125
Y022975
X0002Y02305
X0001Y023125
Y022975
X0006Y0238
X0007
X0008
Y024282
X0007
X0006
X0005Y024975
Y025125
X0004Y02505
X0003Y025125
Y024975
X0002Y02505
X0001Y025125
Y024975
X0006Y0258
X0007
X0008
X01021Y02581
X01031
X01041
X01051Y025135
Y024985
X01061Y02506
X01071Y025135
Y024985
X01081Y02506
X01091Y025135
Y024985
X01041Y024292
X01031
X01021
X0102Y0238
X0103
X0104
M30
